<svg xmlns="http://www.w3.org/2000/svg" viewBox="0 0 31.12 35.94"><defs><style>.cls-1{fill:#fff;}</style></defs><title>资源 1</title><g id="图层_2" data-name="图层 2"><g id="图层_1-2" data-name="图层 1"><g id="Group"><path id="Shape" class="cls-1" d="M31.12,27V9L15.51,0,0,9V27l15.51,9ZM1.29,26.13V9.73l14.22-8.2L29.7,9.73v16.4l-14.19,8.2Z"/><polygon id="Shape-2" data-name="Shape" class="cls-1" points="21.6 7.79 9.34 7.79 7.95 14.03 23.08 14.05 21.6 7.79"/><polygon id="Shape-3" data-name="Shape" class="cls-1" points="11.52 18.48 7.89 16.16 3.78 19.22 9.38 28.95 11.62 28.95 14.26 26.49 14.27 25.26 11.52 22.63 11.52 18.48"/><polygon id="Shape-4" data-name="Shape" class="cls-1" points="23.08 16.13 19.49 18.48 19.49 22.63 16.75 25.24 16.76 26.49 19.41 28.93 21.61 28.93 27.18 19.22 23.08 16.13"/><polygon id="Shape-5" data-name="Shape" class="cls-1" points="11.53 14.99 12.87 18.48 12.46 22.37 18.55 22.36 18.17 18.48 19.48 14.99 11.53 14.99"/></g></g></g></svg>