<?xml version="1.0" encoding="UTF-8"?>
<svg width="16px" height="16px" viewBox="0 0 16 16" version="1.1" xmlns="http://www.w3.org/2000/svg" xmlns:xlink="http://www.w3.org/1999/xlink">
    <!-- Generator: Sketch 50.2 (55047) - http://www.bohemiancoding.com/sketch -->
    <title>language-icon</title>
    <desc>Created with Sketch.</desc>
    <defs></defs>
    <g id="Page-1" stroke="none" stroke-width="1" fill="none" fill-rule="evenodd">
        <g id="language-icon" fill="#A3ADC7" fill-rule="nonzero">
            <path d="M7.85826331,6.69564213 C7.86306331,6.69258133 7.86996331,6.68985597 7.87456331,6.68671131 C7.85626331,6.65023332 7.84146331,6.6183675 7.83476331,6.59564213 C7.84296331,6.62884968 7.85156331,6.66222494 7.85826331,6.69564213 Z M10.9178995,9.99472525 C10.9184995,9.99472525 10.9184995,9.99392525 10.9184995,9.99352525 C10.9161995,9.99252525 10.9084995,9.99252525 10.9067995,9.98992525 C10.9092995,9.99242525 10.9152995,9.99242525 10.9177995,9.99472525 L10.9178995,9.99472525 Z M11.0059178,10.0197279 C10.9826116,10.0107598 10.930195,10.0270946 10.9094907,9.99079502 C10.8966812,10.0967045 10.9159622,10.1366875 11.0059178,10.0197279 Z M7.99728199,0.00366024915 C3.58294904,0.00366024915 0.00456625142,3.58202492 0.00456625142,7.99632163 C0.00456625142,12.4105459 3.58294904,15.9890736 7.99728199,15.9890736 C12.4114519,15.9890736 15.9899796,12.4105459 15.9899796,7.99632163 C15.9899796,3.58202492 12.4114519,0.00366024915 7.99728199,0.00366024915 Z M13.1025323,3.12588901 C12.8271438,3.13424236 12.6354337,3.13476784 12.414188,3.28744734 C12.3250374,3.34907361 12.2645164,3.43070442 12.1513749,3.46243262 C12.0499388,3.49098981 11.9404394,3.4659479 11.8398007,3.50008607 C11.4766387,3.62333862 11.5341699,4.40115968 11.055692,4.28366931 C10.8309128,4.22853001 10.6725074,3.96290827 10.5593839,3.78946319 C10.4597237,3.63685617 10.2782514,3.51065006 10.4008335,3.31966478 C10.3449151,3.33401586 10.2853001,3.31767157 10.2302514,3.32812684 C10.3068992,3.15980974 10.5639864,3.17452322 10.6067497,3.08848924 C10.7132775,2.87289694 10.3134949,2.85037373 10.2002809,2.82049377 C10.3367248,2.67504417 10.4057984,2.86941789 10.5404847,2.83640317 C10.6699343,2.80454813 10.4721721,2.63407475 10.3945459,2.61492186 C10.3666772,2.60803624 9.91092186,2.74087429 10.1747135,2.50480634 C9.84906731,2.29722281 9.52344404,2.08960333 9.19784371,1.8819479 C9.14301246,2.112906 9.6312752,2.24416761 9.7907316,2.32554473 C9.76596149,2.42092865 9.61761268,2.55980068 9.50403624,2.51915742 C9.39703737,2.48077916 9.44047112,2.30349264 9.2789128,2.32128652 C9.16356059,2.58949943 9.52280861,2.511094 9.55618573,2.67546093 C9.59411099,2.86271348 9.42037599,2.78334768 9.35356738,2.78012231 C9.33763986,2.77928879 9.21310079,2.65038279 9.20639638,2.74797735 C9.19831484,2.86385504 9.40499207,2.81866365 9.41957871,2.93570102 C9.17885391,2.94543148 9.05589128,2.85850963 8.85990487,2.7283171 C8.63117554,2.57650736 8.51379388,2.590188 8.23353114,2.590188 C8.31735447,2.55575991 8.4328154,2.53024689 8.5044983,2.47479955 C8.5436376,2.44450283 8.69725934,2.29519366 8.70738845,2.26187089 C8.75080408,2.11803398 8.70503284,2.12894224 8.5674111,2.03464553 C8.44508267,1.95096716 8.29669762,1.80071574 8.14847565,1.77112571 C7.61139751,1.6639094 7.98284032,2.25601812 7.57515742,2.33766704 C7.58213364,2.33802945 7.58967157,2.33835561 7.59566931,2.33835561 L7.57231257,2.33835561 C7.57336353,2.33828313 7.57419706,2.33788448 7.57515742,2.33766704 C7.48084258,2.3342786 7.30408154,2.31135674 7.24330691,2.36116874 C7.20041676,2.39621291 7.19681087,2.53691506 7.14884711,2.58785051 C7.0635017,2.67881314 6.93629898,2.69698754 6.83446433,2.76258211 C6.73505776,2.82667271 6.51591393,2.99111212 6.45753114,3.102641 C6.24239185,3.51369422 6.94229672,3.64127746 7.20764666,3.76141336 C7.32752888,3.81573726 7.67791619,3.89006569 7.74316648,3.98077463 C7.8306863,4.1025957 7.66773273,4.21680634 7.85049151,4.30244168 C7.90885617,4.32971234 8.02922763,4.33529332 8.07951076,4.27879502 C8.16119592,4.18672707 8.04629672,4.16594337 8.02672707,4.05959683 C7.98883805,3.85487656 8.05127973,3.93623556 8.15425595,3.86014949 C8.36408607,3.7052231 8.31682899,3.69574632 8.24132276,3.44887882 C8.2062786,3.33397961 8.07402039,3.01321857 8.19035108,2.92838052 C8.3420521,2.8177214 8.66556738,2.98835787 8.78187995,3.00263647 C8.91723669,3.01919819 8.99410193,3.2067769 9.06786863,3.28349717 C9.11688335,3.33443262 9.20451189,3.44251869 9.29011099,3.43081314 C9.4259932,3.41222197 9.3691325,3.29342695 9.44793658,3.23863194 C9.65934315,3.09202265 9.71502605,3.29119819 9.79928426,3.49040997 C9.87855946,3.67751755 9.95355832,3.74697169 10.094641,3.86698075 C10.1601631,3.92284485 10.4472933,4.12223783 10.4202039,4.24514609 C10.4018482,4.3279547 10.0738392,4.45350849 9.98612005,4.48130464 C9.66550396,4.58284938 9.0640453,4.31505323 8.99946546,4.82348358 C9.12385957,4.77716874 9.47767157,4.48811778 9.58380068,4.62512344 C9.6321812,4.6872752 9.54542242,4.77780294 9.56586183,4.83953794 C9.62638279,5.02459796 9.76911438,4.96012684 9.91880408,4.93021065 C9.90860249,4.93657078 9.89814723,4.94213364 9.887094,4.94708041 C10.0916149,4.84198414 10.070342,4.86387316 10.1641857,4.69339977 C10.1948267,4.63771687 10.2404168,4.50293998 10.2835787,4.46307588 C10.4322356,4.3263239 10.4551393,4.42049377 10.5472254,4.52598867 C10.5713431,4.55378482 10.7990396,4.8816308 10.7179887,4.86528652 C10.453128,4.81217667 10.1988494,4.81929785 9.97919819,4.96411325 C9.85264779,5.04770102 9.73294677,5.16048018 9.58182559,5.21598188 C9.5455855,5.22922763 9.27731823,5.25465006 9.30902831,5.20891506 C9.35532503,5.14219706 9.51465459,5.09805663 9.57753114,5.02604757 C9.40327067,4.95429219 9.2579479,5.11273386 9.12103284,5.20538165 C8.97574632,5.27411099 8.94197055,5.40221971 8.81824689,5.51452775 C8.76424915,5.56348811 8.6621427,5.57182333 8.60910532,5.63625821 C8.55766251,5.69879049 8.55126614,5.79714609 8.50255946,5.85648924 C8.46834881,5.89805663 8.38070215,5.87296036 8.34500566,5.93560136 C8.29850963,6.01743148 8.38755153,6.09342695 8.36803624,6.15237146 C8.33228539,6.25951529 8.12850736,6.35042356 8.05015629,6.42754247 C8.06068693,6.41740651 8.07105296,6.4071009 8.08125028,6.39662967 C8.00271801,6.47903964 7.90334768,6.53963307 7.84202945,6.63498075 C7.87016988,6.76957644 7.95893998,7.09064553 7.934188,7.16450283 C7.85250283,7.40751076 7.69386183,7.03233522 7.62951755,6.9354111 C7.408453,6.60232843 6.96663194,6.82520498 6.66480634,6.85285617 C6.2787769,6.88817214 5.90068403,7.38913703 6.13878143,7.79578709 C6.25310079,7.99079502 6.44537259,8.06630125 6.66592978,8.02116421 C6.86220612,7.98097395 6.92115062,7.70636467 7.1059932,7.70134541 C7.44567157,7.69228539 7.11345866,8.03421065 7.08406795,8.15969196 C7.05688788,8.27593205 7.12643262,8.28667724 7.24607928,8.31548811 C7.33443262,8.33659796 7.45955153,8.27767157 7.53614496,8.32811778 C7.58439864,8.35997282 7.58207928,8.53437826 7.64843488,8.4793658 C7.51778935,8.58766931 7.54832163,8.84444847 7.68226501,8.93725934 C7.8307769,9.0402718 8.00563533,8.94486976 8.16114156,8.98442582 C8.4546863,9.05933409 8.31456399,8.96204757 8.57235787,8.8064145 C8.74636467,8.70155379 8.77490374,8.82616535 8.89380747,8.82665459 C8.97474972,8.82699887 9.02615629,8.71030578 9.16147678,8.74426274 C9.27179162,8.77204077 9.31538845,8.85720498 9.44708494,8.87679275 C9.50108267,8.88476557 9.55683805,8.85648018 9.6083171,8.86215176 C9.85192299,8.8892231 10.0384145,9.04485617 10.2303783,9.18559456 C10.3885663,9.30141789 10.4933364,9.27795243 10.6781246,9.33077237 C10.8131189,9.36924122 11.0621971,9.56461155 11.0494405,9.7361359 C11.0471755,9.76681314 10.9291597,9.92106908 10.9089921,9.99054134 C10.9435289,10.0144598 11.1837826,9.9607701 11.2540883,9.95571461 C11.2309853,9.98260476 11.0673975,10.0975583 11.0673975,10.03653 C11.0673975,10.0678052 11.1831302,10.1320589 11.2113431,10.1520091 C11.2966886,9.87495357 11.4368471,10.0532367 11.6055266,10.1218573 C11.7489468,10.1802763 11.9254904,10.1834111 12.0784598,10.2198505 C12.208308,10.2507633 12.4946772,10.3384462 12.5908947,10.4445391 C12.706718,10.5722854 12.6266636,10.7797961 12.5409558,10.9068901 C12.4288471,11.0734496 12.2597871,11.1375583 12.1898618,11.3335266 C12.1345957,11.4888698 12.1760906,11.6458256 12.1445074,11.8180204 C12.1018165,12.0511348 12.0675878,11.9694134 11.9174632,12.1116557 C11.7911484,12.2314473 11.9153431,12.2106274 11.7433658,12.2869853 C11.5706274,12.3637418 11.4185096,12.3409105 11.2988992,12.5304462 C11.3036829,12.5185232 11.3075968,12.5065821 11.3109309,12.4941155 C11.2604485,12.5647293 11.2352254,12.7093817 11.2113069,12.7568199 C11.1510034,12.8778981 11.0678324,12.9542741 10.9724666,13.0551121 C10.9359185,13.0937259 10.5999003,13.5527792 10.5804938,13.5159049 C10.5555425,13.467923 10.2906093,13.564068 10.2779796,13.4956467 C10.2885074,13.5531597 10.2754609,13.53388 10.3412548,13.5670215 C10.2803352,13.9442809 10.1207701,14.0005436 9.75030578,14.0043488 C9.78216082,14.1856761 9.61605436,14.1494904 9.53884485,14.2469762 C9.49372593,14.3039094 9.4721812,14.4639819 9.440906,14.5376942 C9.42137259,14.5839909 9.27673839,14.7695221 9.27673839,14.8062695 C9.27657531,14.840154 9.32537259,14.8897486 9.37108947,14.9373318 C9.10990713,14.988974 8.84361495,15.0249966 8.57311891,15.0469581 C8.62376444,14.9831755 8.63594111,14.9271302 8.47467271,14.9194473 C8.51783465,14.8021744 8.61916195,14.7352933 8.66210646,14.6217169 C8.68247339,14.5681178 8.66562174,14.5469354 8.68283579,14.4938256 C8.74185277,14.3105413 8.71626727,14.3796693 8.68299887,14.2373182 C8.60506455,13.9036195 8.71072254,13.8123488 8.80168516,13.5068267 C8.89505776,13.1928607 8.88637826,12.7858482 8.94621065,12.4476557 C8.97458664,12.2857894 9.02108267,11.9490464 8.96487429,11.7960589 C8.90154473,11.6237735 8.62294904,11.4880906 8.49538392,11.372231 C8.31474519,11.2076467 8.21872707,11.0298165 8.08460249,10.8264009 C8.01652548,10.7231166 7.93891733,10.6217169 7.88578935,10.5093907 C7.77217667,10.2692095 7.88587995,10.4121586 7.9049966,10.2703873 C7.92329785,10.1334179 7.88868856,10.0109989 7.9430487,9.86723443 C8.00320725,9.70828539 8.15338618,9.60924122 8.20270895,9.44896942 C8.24710306,9.30629219 8.21332729,9.12697622 8.06677237,9.07937486 C7.9850872,9.05270215 7.8949581,9.11414723 7.81291053,9.10064779 C7.69844621,9.08212911 7.568906,8.99667497 7.47908494,8.92838052 C7.35371234,8.83285164 7.30672707,8.67761721 7.17321857,8.58705323 C7.06143601,8.51160136 6.98194337,8.55675651 6.86238732,8.52145866 C6.73768516,8.48471121 6.66071121,8.33083579 6.56012684,8.28267271 C6.40918686,8.21048245 6.32411325,8.31414723 6.16476557,8.29318233 C6.02926387,8.27544281 5.82258664,8.12526387 5.69596376,8.06851189 C5.43849604,7.9532684 5.28173952,7.82606569 5.17876331,7.56477463 C5.09059117,7.34070215 4.96204757,7.23618573 4.81070895,7.04954926 C4.657359,6.86046659 4.60932276,6.69932503 4.37296489,6.64893318 C4.34520498,6.64291733 4.43080408,6.84743828 4.43962854,6.86383692 C4.52408607,7.02024915 4.65092639,7.16308947 4.75294224,7.30872027 C4.9030487,7.52320725 4.83908494,7.56345187 4.68638732,7.35604983 C4.51178256,7.11876784 4.30916421,6.88284485 4.15769875,6.63155606 C4.10043941,6.5365889 4.11143828,6.47518007 4.0169966,6.38501472 C3.92574405,6.29789354 3.80633296,6.2554564 3.71444621,6.17259343 C3.38382786,5.87527973 3.32372367,5.47836014 3.36141336,5.05449604 C3.37366251,4.91633069 3.42356512,4.80583465 3.40156738,4.67303284 C3.3834111,4.56275425 3.31830578,4.47157418 3.23694677,4.39034202 C3.21074519,4.34859343 3.1449513,4.24578029 3.14114609,4.23923896 C3.06609287,4.11457305 3.00771008,3.9919547 2.88848018,3.88966704 C2.82005889,3.83074066 2.64306229,3.69301019 2.47641223,3.57763986 C3.22516874,2.64376897 4.20491959,1.90371008 5.32888788,1.44420385 C5.33783918,1.50070215 5.36210193,1.55710985 5.39846886,1.61110759 C5.49088109,1.74814949 5.57894451,1.7373137 5.75934768,1.77523896 C5.74001359,1.98461608 5.49528426,1.98628313 5.3296308,1.96357871 C5.13188675,1.93643488 4.92385051,1.87074972 4.75256172,2.04404983 C4.84716648,2.10094677 5.10684485,2.32248245 5.07232616,2.09098075 C5.26175311,2.08152208 5.44487429,2.07585051 5.630188,2.09851869 C5.70444394,2.10761495 5.95323216,2.19111212 6.02065685,2.15306002 C6.04896036,2.1370419 6.07911212,1.99744507 6.10904643,1.95450057 C6.0562265,1.95480861 5.99960136,1.9281359 5.94698075,1.93319139 C6.06968969,1.77605436 6.19196376,1.89930691 6.34814043,1.97160589 C6.1761812,2.07608607 6.27816082,2.32646886 6.44626048,2.12301699 C6.58435334,1.95571461 6.41248471,1.83441903 6.23715515,1.73693318 C6.41395243,1.51579615 6.52298075,1.49584598 6.68932276,1.74543148 C6.71673839,1.5915017 6.84096942,1.65310985 6.97081767,1.66448924 L6.97081767,1.62598414 C6.91366704,1.62736127 6.85263873,1.59449151 6.79606795,1.60043488 C6.92834428,1.38937259 6.84390487,1.34117327 7.03300566,1.27228086 C7.18360136,1.2174496 7.61320951,1.26847565 7.66613817,1.12692186 C7.36547225,1.185359 7.00225595,1.1993658 6.73099887,1.33606342 C6.61403398,1.39500793 6.47470895,1.58108267 6.35790713,1.46014949 C6.238188,1.33606342 6.44354247,1.1365436 6.54860249,1.07573273 L6.52345187,1.07573273 C6.99917554,0.974550396 7.49184145,0.920226501 7.99731823,0.920226501 C8.32391393,0.920226501 8.64489241,0.944398641 8.95996376,0.987451869 C8.85093545,1.04471121 8.93155153,1.08334315 8.85214949,1.14187089 C8.70048471,1.25339977 8.43129332,1.34648245 8.25083579,1.41696942 C8.48023556,1.41635334 9.03554247,1.63207248 9.1424145,1.31029672 C9.06833975,1.29891733 8.99446433,1.28751982 8.92048018,1.27614043 C9.05871801,1.18447112 9.21290147,1.11028766 9.37478596,1.0559094 C10.835624,1.34530464 12.1350487,2.08628766 13.1235153,3.1260521 C13.116376,3.12588901 13.1093635,3.12570781 13.1025323,3.12588901 Z M14.3961223,5.93210419 C14.4092593,5.90401812 14.4399909,5.89475878 14.452675,5.87158324 C14.4793839,5.82284032 14.4734224,5.78980747 14.5063103,5.74798641 C14.5414994,5.7027769 14.5889921,5.69170555 14.6282582,5.65638958 C14.6412996,5.64485028 14.6521255,5.63102775 14.6602039,5.61560136 C14.7791012,5.94755802 14.8727702,6.28801643 14.9404122,6.63407475 C14.9383465,6.63657531 14.9371869,6.6403624 14.9346138,6.64246433 C14.917436,6.65605436 14.8054179,6.67268856 14.7824054,6.67348584 C14.7013001,6.67660249 14.6410328,6.62276784 14.582795,6.57212231 C14.5235425,6.52066138 14.4537803,6.45180521 14.4116693,6.38515968 C14.3666954,6.31398414 14.3944553,6.24085164 14.3976806,6.15956512 C14.4003624,6.09119819 14.367094,5.99371234 14.3961042,5.93210419 L14.3961223,5.93210419 Z M14.4875742,9.59677463 C14.3502786,9.47750849 14.1883035,9.31761721 14.0906908,9.16312571 C13.9864281,8.9984145 14.0506818,8.82888335 14.0583103,8.64023556 C14.0646523,8.48157644 13.9871348,8.25580068 14.0545595,8.11294224 C14.0855266,8.04771008 14.1564666,8.02614723 14.1856761,7.97269309 C14.2477554,7.85953341 14.2340023,7.7830487 14.3101789,7.68576217 C14.3919003,7.58128199 14.5017803,7.55556965 14.5928335,7.4736308 C14.6881993,7.38774179 14.6855538,7.31997282 14.7459298,7.20991166 C14.7901065,7.1294043 14.8939343,6.99518913 14.9922356,6.92499207 C15.0463008,7.27953384 15.0734196,7.63766313 15.073359,7.99630351 C15.073359,8.62615629 14.9895538,9.23662061 14.8343556,9.81827407 C14.7020249,9.78415402 14.5931778,9.6887701 14.4875742,9.59677463 Z" id="Shape"></path>
        </g>
    </g>
</svg>