<?xml version="1.0" encoding="UTF-8"?>
<svg width="16px" height="16px" viewBox="0 0 16 16" version="1.1" xmlns="http://www.w3.org/2000/svg" xmlns:xlink="http://www.w3.org/1999/xlink">
    <!-- Generator: Sketch 50.2 (55047) - http://www.bohemiancoding.com/sketch -->
    <title>user (1)</title>
    <desc>Created with Sketch.</desc>
    <defs></defs>
    <g id="Page-1" stroke="none" stroke-width="1" fill="none" fill-rule="evenodd">
        <g id="user-(1)" fill="#A3ADC7" fill-rule="nonzero">
            <path d="M15.9792208,13.6386494 L15.9792208,14.3833766 C15.9792208,15.2610909 15.2610909,15.9792208 14.3833766,15.9792208 L1.61662338,15.9792208 C0.738909091,15.9792208 0.0207792208,15.2610909 0.0207792208,14.3833766 L0.0207792208,13.6386494 C0.0207792208,11.697039 2.28155844,10.5267532 4.40935065,9.59584416 C4.48914286,9.56924675 4.54233766,9.54264935 4.62212987,9.48945455 C4.78171429,9.40966234 4.9678961,9.40966234 5.12748052,9.51605195 C5.9785974,10.0745974 6.9627013,10.3937662 8,10.3937662 C9.0372987,10.3937662 10.0214026,10.0745974 10.8725195,9.54264935 C11.0321039,9.43625974 11.2182857,9.43625974 11.3778701,9.51605195 C11.4576623,9.54264935 11.5108571,9.56924675 11.5906494,9.62244156 C13.7184416,10.5267532 15.9792208,11.697039 15.9792208,13.6386494 Z" id="Shape"></path>
            <path d="M4.03698701,4.40935065 C4.03698701,6.83309172 5.81128836,8.79792208 8,8.79792208 C10.1887116,8.79792208 11.963013,6.83309172 11.963013,4.40935065 C11.963013,2.84146509 11.207667,1.39267909 9.98150649,0.608736306 C8.75534601,-0.175206474 7.24465399,-0.175206474 6.01849351,0.608736306 C4.79233302,1.39267909 4.03698701,2.84146509 4.03698701,4.40935065 Z" id="Shape"></path>
        </g>
    </g>
</svg>