<?xml version="1.0" encoding="UTF-8"?>
<svg width="59px" height="51px" viewBox="0 0 59 51" version="1.1" xmlns="http://www.w3.org/2000/svg" xmlns:xlink="http://www.w3.org/1999/xlink">
    <!-- Generator: Sketch 50.2 (55047) - http://www.bohemiancoding.com/sketch -->
    <title>webDevelopmentIcon</title>
    <desc>Created with Sketch.</desc>
    <defs></defs>
    <g id="Page-1" stroke="none" stroke-width="1" fill="none" fill-rule="evenodd">
        <g id="webDevelopmentIcon">
            <g id="Group" transform="translate(8.000000, 8.000000)" stroke="#6B6BB7" stroke-linecap="round" stroke-linejoin="round">
                <path d="M3.7,1.8 C4.6,1.8 4.6,1.8 4.6,1.8" id="path0" stroke-width="1.17"></path>
                <path d="M7.2,1.8 C8.1,1.8 8.1,1.8 8.1,1.8" id="path1" stroke-width="1.17"></path>
                <path d="M10.7,1.8 C11.6,1.8 11.6,1.8 11.6,1.8" id="path2" stroke-width="1.17"></path>
                <path d="M40.1,20.8 C40.1,20.8 40.1,20.8 0.3,20.8 L0.3,3.9 C40.1,3.9 40.4,3.9 40.4,3.9 L40.4,20.8 L40.1,20.8 Z" id="path5" stroke-width="1.1713"></path>
                <path d="M0.3,38.9 L0.3,2.6 C0.3,1.2 1.5,1.42108547e-14 2.9,1.42108547e-14 L37.8,1.42108547e-14 C39.2,1.42108547e-14 40.4,1.2 40.4,2.6 L40.4,38.9 C40.4,40.3 39.3,41.5 37.8,41.5 C30.6,41.5 10.2,41.6 2.9,41.6 C1.4,41.5 0.3,40.2 0.3,38.9 Z" id="path7" stroke-width="1.17"></path>
                <path d="M6.2,32.9 L13,32.9 L6.2,32.9 Z M6.2,34.8 L13,34.8 L6.2,34.8 Z M9.3,36.9 L6.3,36.9 L9.3,36.9 Z M17.1,32.9 L23.9,32.9 L17.1,32.9 Z M17.1,34.8 L23.9,34.8 L17.1,34.8 Z M20.2,36.9 L17.2,36.9 L20.2,36.9 Z M27.9,32.9 L34.7,32.9 L27.9,32.9 Z M27.9,34.8 L34.7,34.8 L27.9,34.8 Z M30.9,36.9 L27.9,36.9 L30.9,36.9 Z M13.1,25.5 L6.2,25.5 L6.2,30.2 L13.1,30.2 L13.1,25.5 Z M23.7,25.5 L16.8,25.5 L16.8,30.2 L23.7,30.2 L23.7,25.5 Z M34.6,25.5 L27.7,25.5 L27.7,30.2 L34.6,30.2 L34.6,25.5 Z" id="path4" stroke-width="1.17"></path>
                <path d="M33.3,20.6 C33.8,19.9 34.4,19 34.4,18.2 L36.5,18.1 L36.5,14.2 L34.4,14.3 C34.2,13.3 33.8,12.5 33.3,12.1 L35.1,10.5 L32.6,7.9 L31.1,9.5 C30.4,9 29.4,8.7 28.7,8.4 L28.6,6.3 L24.7,6.3 L24.8,8.4 C23.8,8.6 23,9 22.6,9.5 L21,7.7 L18.4,10.2 L20,12 C19.5,12.7 18.9,13.6 18.9,14.4 L16.8,14.5 L16.8,18.4 L18.9,18.3 C19.1,19.3 19.7,20.4 20.3,20.8" id="path6" stroke-width="1.17"></path>
                <path d="M27.2,11.7 C29.7,11.9 31.7,14 31.5,16.5 C31.3,19 29.2,21 26.7,20.8 C24.2,20.6 22.3,18.9 22.3,16.1 C22.2,13.4 24.7,11.5 27.2,11.7 Z" id="path3" stroke-width="1.17"></path>
            </g>
            <g id="stars_1_" fill="#9494FF" fill-rule="nonzero">
                <path d="M2.8,20.9 C1.5,20.9 0.6,21.9 0.6,23.1 C0.6,24.4 1.6,25.3 2.8,25.3 C4,25.3 5,24.3 5,23.1 C5,21.9 4.1,20.9 2.8,20.9 Z M2.8,24.7 C1.9,24.7 1.2,24 1.2,23.1 C1.2,22.2 1.9,21.5 2.8,21.5 C3.7,21.5 4.4,22.2 4.4,23.1 C4.4,23.9 3.7,24.7 2.8,24.7 Z" id="star5"></path>
                <path d="M18.2,1.3 C17.3,1.3 16.5,2 16.5,3 C16.5,4 17.2,4.7 18.2,4.7 C19.2,4.7 19.9,4 19.9,3 C19.9,2 19.2,1.3 18.2,1.3 Z M18.2,4.3 C17.5,4.3 16.9,3.8 16.9,3 C16.9,2.2 17.4,1.7 18.2,1.7 C18.9,1.7 19.5,2.2 19.5,3 C19.5,3.8 18.8,4.3 18.2,4.3 Z" id="star4"></path>
                <path d="M55.3,4.3 C52.9,4.3 52.1,3.6 52.1,1.1 C52.1,0.9 52,0.8 51.8,0.8 C51.6,0.8 51.5,0.9 51.5,1.1 C51.5,3.5 50.7,4.3 48.3,4.3 C48.1,4.3 48,4.4 48,4.6 C48,4.8 48.1,4.9 48.3,4.9 C50.7,4.9 51.5,5.6 51.5,8.1 C51.5,8.3 51.6,8.4 51.8,8.4 C52,8.4 52.1,8.3 52.1,8.1 C52.1,5.7 52.8,4.9 55.3,4.9 C55.5,4.9 55.6,4.8 55.6,4.6 C55.6,4.4 55.4,4.3 55.3,4.3 Z M51.8,6 C51.5,5.3 51.1,4.8 50.4,4.6 C51.1,4.3 51.6,3.9 51.8,3.2 C52.1,3.9 52.5,4.4 53.2,4.6 C52.6,4.8 52.1,5.3 51.8,6 Z" id="star3"></path>
                <path d="M7.8,4.1 C5.8,4.1 5.2,3.5 5.2,1.5 C5.2,1.3 5.1,1.3 5,1.3 C4.8,1.3 4.8,1.4 4.8,1.5 C4.8,3.5 4.2,4.1 2.2,4.1 C2,4.1 2,4.2 2,4.3 C2,4.4 2.1,4.5 2.2,4.5 C4.2,4.5 4.8,5.1 4.8,7.1 C4.8,7.3 4.9,7.3 5,7.3 C5.2,7.3 5.2,7.2 5.2,7.1 C5.2,5.1 5.8,4.5 7.8,4.5 C8,4.5 8,4.4 8,4.3 C8,4.1 7.9,4.1 7.8,4.1 Z M5,5.5 C4.8,4.9 4.4,4.5 3.8,4.3 C4.4,4.1 4.8,3.7 5,3.1 C5.2,3.7 5.6,4.1 6.2,4.3 C5.6,4.5 5.1,4.8 5,5.5 Z" id="star2"></path>
                <path d="M58.2,17.9 C56.4,17.9 55.9,17.4 55.9,15.6 C55.9,15.5 55.8,15.4 55.7,15.4 C55.6,15.4 55.5,15.5 55.5,15.6 C55.5,17.4 55,17.9 53.2,17.9 C53.1,17.9 53,18 53,18.1 C53,18.2 53.1,18.3 53.2,18.3 C55,18.3 55.5,18.8 55.5,20.6 C55.5,20.7 55.6,20.8 55.7,20.8 C55.8,20.8 55.9,20.7 55.9,20.6 C55.9,18.8 56.4,18.3 58.2,18.3 C58.3,18.3 58.4,18.2 58.4,18.1 C58.4,17.9 58.2,17.9 58.2,17.9 Z M55.7,19.1 C55.5,18.6 55.2,18.3 54.6,18.1 C55.1,17.9 55.4,17.6 55.7,17 C55.9,17.5 56.2,17.9 56.7,18.1 C56,18.3 55.9,18.6 55.7,19.1 Z" id="star1"></path>
            </g>
        </g>
    </g>
</svg>