<?xml version="1.0" encoding="utf-8"?>
<!-- Generator: Adobe Illustrator 18.1.1, SVG Export Plug-In . SVG Version: 6.00 Build 0)  -->
<!DOCTYPE svg PUBLIC "-//W3C//DTD SVG 1.1//EN" "http://www.w3.org/Graphics/SVG/1.1/DTD/svg11.dtd">
<svg version="1.1" id="affiliateIcon" xmlns="http://www.w3.org/2000/svg" xmlns:xlink="http://www.w3.org/1999/xlink" x="0px"
	 y="0px" width="75px" height="75px" viewBox="0 0 75 75" enable-background="new 0 0 75 75" xml:space="preserve">
<g id="stars">
	<g id="star6">
		<g>
			<path fill="#F1F2F2" d="M41.1,39.2C41.1,39.3,41.1,39.3,41.1,39.2L40,39.3c0,0-0.1,0-0.1-0.1c0,0,0-0.1,0.1-0.1L41.1,39.2
				L41.1,39.2z"/>
		</g>
		<g>
			<path fill="#F1F2F2" d="M42.9,39.2C42.9,39.3,42.9,39.3,42.9,39.2l-1.2,0.1c0,0-0.1,0-0.1-0.1c0,0,0-0.1,0.1-0.1L42.9,39.2
				L42.9,39.2z"/>
		</g>
		<g>
			<path fill="#F1F2F2" d="M41.5,39.6v1.1c0,0,0,0.1-0.1,0.1c0,0-0.1,0-0.1-0.1v-1.1C41.3,39.5,41.4,39.5,41.5,39.6
				C41.4,39.5,41.5,39.5,41.5,39.6z"/>
		</g>
		<g>
			<path fill="#F1F2F2" d="M41.5,37.8v1.1c0,0,0,0.1-0.1,0.1c0,0-0.1,0-0.1-0.1v-1.1C41.3,37.8,41.4,37.7,41.5,37.8
				C41.4,37.7,41.5,37.8,41.5,37.8z"/>
		</g>
	</g>
	<g id="star7">
		<g>
			<path fill="#F1F2F2" d="M18.7,29.3L18.7,29.3l-1.2,0.1c0,0-0.1,0-0.1-0.1c0,0,0-0.1,0.1-0.1L18.7,29.3
				C18.7,29.2,18.7,29.2,18.7,29.3z"/>
		</g>
		<g>
			<path fill="#F1F2F2" d="M20.5,29.3L20.5,29.3l-1.2,0.1c0,0-0.1,0-0.1-0.1c0,0,0-0.1,0.1-0.1L20.5,29.3
				C20.5,29.2,20.5,29.2,20.5,29.3z"/>
		</g>
		<g>
			<path fill="#F1F2F2" d="M19.1,29.6v1.1c0,0,0,0.1-0.1,0.1c0,0-0.1,0-0.1-0.1v-1.1C18.9,29.6,19,29.6,19.1,29.6L19.1,29.6z"/>
		</g>
		<g>
			<path fill="#F1F2F2" d="M19.1,27.8v1.1c0,0,0,0.1-0.1,0.1c0,0-0.1,0-0.1-0.1v-1.1C18.9,27.8,19,27.8,19.1,27.8L19.1,27.8z"/>
		</g>
	</g>
	<g id="star1">
		<g>
			<path fill="#F1F2F2" d="M24.2,15L24.2,15h-1.1c0,0-0.1,0-0.1-0.1c0,0,0-0.1,0.1-0.1L24.2,15C24.2,14.9,24.2,14.9,24.2,15z"/>
		</g>
		<g>
			<path fill="#F1F2F2" d="M26,15L26,15h-1.1c0,0-0.1,0-0.1-0.1c0,0,0-0.1,0.1-0.1L26,15C26,14.9,26,14.9,26,15z"/>
		</g>
		<g>
			<path fill="#F1F2F2" d="M24.6,15.3v1.1c0,0,0,0.1-0.1,0.1c0,0-0.1,0-0.1-0.1v-1.1C24.4,15.3,24.5,15.3,24.6,15.3
				C24.5,15.3,24.6,15.3,24.6,15.3z"/>
		</g>
		<g>
			<path fill="#F1F2F2" d="M24.6,13.5v1.1c0,0,0,0.1-0.1,0.1s-0.1,0-0.1-0.1v-1.1C24.4,13.5,24.5,13.5,24.6,13.5
				C24.5,13.5,24.6,13.5,24.6,13.5z"/>
		</g>
	</g>
	<g id="star2">
		<g>
			<path fill="#F1F2F2" d="M39.3,30.6c0,0.1-0.1,0.1-0.1,0.1h-2c-0.1,0-0.1-0.1-0.1-0.1c0-0.1,0.1-0.1,0.1-0.1h2
				C39.2,30.4,39.3,30.5,39.3,30.6z"/>
		</g>
		<g>
			<path fill="#F1F2F2" d="M42.5,30.6c0,0.1-0.1,0.1-0.1,0.1h-2c-0.1,0-0.1-0.1-0.1-0.1c0-0.1,0.1-0.1,0.1-0.1h2
				C42.4,30.4,42.5,30.5,42.5,30.6z"/>
		</g>
		<g>
			<path fill="#F1F2F2" d="M39.9,31.2v2c0,0.1-0.1,0.1-0.1,0.1c-0.1,0-0.1-0.1-0.1-0.1v-2c0-0.1,0.1-0.1,0.1-0.1
				C39.8,31.1,39.9,31.1,39.9,31.2z"/>
		</g>
		<g>
			<path fill="#F1F2F2" d="M39.9,28v2c0,0.1-0.1,0.1-0.1,0.1c-0.1,0-0.1-0.1-0.1-0.1v-2c0-0.1,0.1-0.1,0.1-0.1
				C39.8,27.8,39.9,27.9,39.9,28z"/>
		</g>
	</g>
	<g id="star3">
		<g>
			<path fill="#F1F2F2" d="M56.5,29.3c0,0.1-0.1,0.1-0.1,0.1h-2c-0.1,0-0.1-0.1-0.1-0.1c0-0.1,0.1-0.1,0.1-0.1h2
				C56.4,29.2,56.5,29.3,56.5,29.3z"/>
		</g>
		<g>
			<path fill="#F1F2F2" d="M59.7,29.3c0,0.1-0.1,0.1-0.1,0.1h-2c-0.1,0-0.1-0.1-0.1-0.1c0-0.1,0.1-0.1,0.1-0.1h2
				C59.6,29.2,59.7,29.3,59.7,29.3z"/>
		</g>
		<g>
			<path fill="#F1F2F2" d="M57.1,30v2c0,0.1,0,0.1-0.1,0.1S56.9,32,56.9,32v-2c0-0.1,0.1-0.1,0.1-0.1C57,29.9,57.1,29.9,57.1,30z"/>
		</g>
		<g>
			<path fill="#F1F2F2" d="M57.1,26.7v2c0,0.1-0.1,0.1-0.1,0.1c-0.1,0-0.1-0.1-0.1-0.1v-2c0-0.1,0.1-0.1,0.1-0.1L57.1,26.7z"/>
		</g>
	</g>
	<g id="star4">
		<g>
			<path fill="#F1F2F2" d="M33.1,35.8C33.1,35.9,33,35.9,33.1,35.8l-2,0.1c-0.1,0-0.1-0.1-0.1-0.1c0-0.1,0.1-0.1,0.1-0.1L33.1,35.8
				C33,35.7,33.1,35.7,33.1,35.8z"/>
		</g>
		<g>
			<path fill="#F1F2F2" d="M36.2,35.8C36.2,35.9,36.1,35.9,36.2,35.8l-2,0.1c-0.1,0-0.1-0.1-0.1-0.1c0-0.1,0.1-0.1,0.1-0.1
				L36.2,35.8C36.1,35.7,36.2,35.7,36.2,35.8z"/>
		</g>
		<g>
			<path fill="#F1F2F2" d="M33.7,36.4v1.9c0,0.1,0,0.1-0.1,0.1s-0.1-0.1-0.1-0.1v-1.9C33.5,36.3,33.6,36.3,33.7,36.4
				C33.6,36.3,33.7,36.3,33.7,36.4z"/>
		</g>
		<g>
			<path fill="#F1F2F2" d="M33.7,33.3v1.9c0,0.1-0.1,0.1-0.1,0.1c-0.1,0-0.1-0.1-0.1-0.1v-1.9C33.5,33.2,33.6,33.2,33.7,33.3
				C33.6,33.2,33.7,33.2,33.7,33.3z"/>
		</g>
	</g>
	<g id="star5">
		<g>
			<path fill="#F1F2F2" d="M53.9,13.5c0,0.1-0.1,0.1-0.1,0.1h-1.9c-0.1,0-0.1-0.1-0.1-0.1c0-0.1,0.1-0.1,0.1-0.1h1.9
				C53.8,13.4,53.9,13.4,53.9,13.5z"/>
		</g>
		<g>
			<path fill="#F1F2F2" d="M57,13.5c0,0.1-0.1,0.1-0.1,0.1H55c-0.1,0-0.1-0.1-0.1-0.1c0-0.1,0.1-0.1,0.1-0.1h1.9
				C56.9,13.4,57,13.4,57,13.5z"/>
		</g>
		<g>
			<path fill="#F1F2F2" d="M54.5,14.1V16c0,0.1,0,0.1-0.1,0.1S54.3,16,54.3,16v-1.9c0-0.1,0.1-0.1,0.1-0.1S54.5,14,54.5,14.1z"/>
		</g>
		<g>
			<path fill="#F1F2F2" d="M54.5,11v1.9c0,0.1-0.1,0.1-0.1,0.1c-0.1,0-0.1-0.1-0.1-0.1V11c0-0.1,0.1-0.1,0.1-0.1S54.5,10.9,54.5,11z
				"/>
		</g>
	</g>
</g>
<g>
	<path id="path0" fill="none" stroke="#FFFFFF" stroke-miterlimit="10" d="M38,60V45c0,0,0.2-2-2.4-2S26,43,26,43s-1.5-0.1-1.5-1.9
		c0-1.6,0-19.6,0-19.6"/>
	<path id="path1" fill="none" stroke="#FFFFFF" stroke-miterlimit="10" d="M38,60V45c0,0-0.2-2,2.4-2s9.6,0,9.6,0s1.5,0.2,1.5-1.9
		c0-1.6,0-19.1,0-19.1"/>
	<path id="path2" fill="none" stroke="#FFFFFF" stroke-miterlimit="10" d="M24.5,35H16c0,0-1-0.3-1-1.9S15,16,15,16"/>
	<path id="path3" fill="none" stroke="#FFFFFF" stroke-miterlimit="10" d="M24.5,30.5h6c0,0,2-0.3,2-2.4c0-1.6,0-15.6,0-15.6"/>
	<path id="path4" fill="none" stroke="#FFFFFF" stroke-miterlimit="10" d="M51.5,31h-6c0,0-1.5,0.1-1.5-1.9c0-1.6,0-16.6,0-16.6"/>
	<path id="path5" fill="none" stroke="#FFFFFF" stroke-miterlimit="10" d="M51.5,35h8c0,0,2-0.3,2-1.9s0-16.1,0-16.1"/>
</g>
<g id="coinMain">
	<path fill="#A7A9AC" d="M37.9,52.2c-3.9,0-7,3.1-7.1,7c0,3.9,3.1,7,7,7.1c3.9,0,7-3.1,7.1-7C44.9,55.4,41.7,52.2,37.9,52.2z"/>
	<g>
		<path fill="#FACB6B" d="M45.2,58.8c0,3.9-3.2,7-7.1,7s-7-3.2-7-7.1s3.2-7,7.1-7C42.1,51.7,45.3,54.9,45.2,58.8z"/>
		<path fill="#BC9850" d="M44.3,58.8c0,3.4-2.8,6-6.1,6s-6.1-2.8-6-6.1c0-3.4,2.8-6.1,6.1-6C41.6,52.7,44.3,55.4,44.3,58.8z"/>
		<path fill="#FACB6B" d="M43.8,58.8c0,3.1-2.5,5.6-5.6,5.6s-5.6-2.5-5.6-5.6s2.5-5.6,5.6-5.6C41.3,53.2,43.8,55.7,43.8,58.8z"/>
		<g>
			<path fill="#231F20" d="M37.9,62v-0.8c-0.5,0-0.9-0.2-1.2-0.4l0.2-0.5c0.3,0.2,0.7,0.3,1.2,0.3c0.6,0,1-0.3,1-0.8
				c0-0.4-0.3-0.7-0.9-1c-0.8-0.3-1.3-0.7-1.3-1.4s0.5-1.2,1.2-1.3v-0.8h0.5v0.8c0.5,0,0.8,0.1,1,0.3l-0.2,0.5
				c-0.2-0.1-0.5-0.3-1-0.3c-0.6,0-0.8,0.4-0.8,0.7c0,0.4,0.3,0.6,1,0.9c0.8,0.3,1.2,0.8,1.2,1.5c0,0.6-0.4,1.2-1.3,1.3v0.8L37.9,62
				z"/>
		</g>
	</g>
</g>
<g id="coin0">
	<path fill="#A7A9AC" d="M16,12.2c-2.4-0.3-4.6,1.3-4.9,3.7c-0.3,2.4,1.3,4.6,3.7,4.9s4.6-1.3,4.9-3.7C20.1,14.7,18.4,12.5,16,12.2z
		"/>
	<g>
		<path fill="#FACB6B" d="M20,16.8c-0.3,2.4-2.5,4-4.9,3.7s-4-2.5-3.7-4.9s2.5-4,4.9-3.7C18.7,12.2,20.3,14.4,20,16.8z"/>
		<path fill="#BC9850" d="M19.4,16.7c-0.3,2.1-2.2,3.5-4.2,3.2s-3.5-2.2-3.2-4.2c0.3-2.1,2.2-3.5,4.2-3.2
			C18.3,12.7,19.7,14.6,19.4,16.7z"/>
		<path fill="#FACB6B" d="M19.1,16.6c-0.3,1.9-2,3.2-3.9,3s-3.2-2-3-3.9s2-3.2,3.9-3C18.1,13,19.4,14.7,19.1,16.6z"/>
		<g>
			<path fill="#231F20" d="M15.3,18.2l0.1-0.5c-0.3,0-0.6-0.2-0.7-0.3l0.2-0.3c0.2,0.1,0.4,0.3,0.7,0.3s0.6-0.1,0.7-0.4
				c0-0.3-0.1-0.5-0.5-0.7c-0.5-0.3-0.7-0.5-0.7-1c0.1-0.4,0.4-0.7,0.8-0.7l0.1-0.5h0.3l-0.1,0.5c0.3,0,0.5,0.2,0.6,0.3l-0.2,0.3
				c-0.1,0-0.3-0.2-0.6-0.2c-0.4,0-0.5,0.2-0.6,0.4c0,0.3,0.1,0.4,0.5,0.6c0.5,0.3,0.7,0.6,0.6,1c0,0.4-0.4,0.7-0.9,0.7l-0.1,0.5
				H15.3z"/>
		</g>
	</g>
</g>
<g id="coin1">
	<path fill="#A7A9AC" d="M24.8,20.7c-1.3-0.2-2.4,0.7-2.6,2s0.7,2.5,2,2.6c1.3,0.2,2.4-0.7,2.6-2C27,22,26.1,20.8,24.8,20.7z"/>
	<g>
		<circle fill="#FACB6B" cx="24.7" cy="22.8" r="2.3"/>
		<path fill="#BC9850" d="M26.6,23.1c-0.1,1.1-1.2,1.9-2.3,1.7c-1.1-0.1-1.9-1.2-1.7-2.3c0.1-1.1,1.2-1.9,2.3-1.7
			C26,21,26.8,22,26.6,23.1z"/>
		<path fill="#FACB6B" d="M26.5,23.1c-0.1,1-1.1,1.7-2.1,1.6s-1.7-1.1-1.6-2.1s1.1-1.7,2.1-1.6S26.6,22.1,26.5,23.1z"/>
		<g>
			<path fill="#231F20" d="M24.4,23.9v-0.3c-0.2,0-0.3-0.1-0.4-0.2l0.1-0.2c0.1,0.1,0.2,0.1,0.4,0.2c0.2,0,0.3-0.1,0.3-0.2
				s-0.1-0.2-0.3-0.4c-0.3-0.1-0.4-0.3-0.4-0.5s0.2-0.4,0.5-0.4v-0.3h0.2v0.3c0.2,0,0.3,0.1,0.3,0.1L25,22.2c-0.1,0-0.2-0.1-0.3-0.1
				c-0.2,0-0.3,0.1-0.3,0.2s0.1,0.2,0.3,0.3c0.3,0.1,0.4,0.3,0.3,0.5c0,0.2-0.2,0.4-0.5,0.4v0.3L24.4,23.9z"/>
		</g>
	</g>
</g>
<g id="coin2">
	<path fill="#A7A9AC" d="M33,9c-2-0.3-3.9,1.1-4.1,3.2c-0.3,2,1.1,3.9,3.2,4.1c2,0.3,3.9-1.1,4.1-3.2C36.4,11.1,35,9.3,33,9z"/>
	<g>
		<path fill="#FACB6B" d="M36.4,12.9c-0.3,2-2.1,3.4-4.1,3.1c-2-0.3-3.4-2.1-3.2-4.1c0.3-2,2.1-3.4,4.1-3.2
			C35.2,9,36.6,10.9,36.4,12.9z"/>
		<path fill="#BC9850" d="M35.9,12.8c-0.2,1.7-1.8,3-3.6,2.7c-1.7-0.2-3-1.8-2.7-3.6c0.2-1.7,1.8-3,3.6-2.7
			C34.9,9.5,36.1,11.1,35.9,12.8z"/>
		<path fill="#FACB6B" d="M35.6,12.8c-0.2,1.6-1.7,2.7-3.3,2.5c-1.6-0.2-2.7-1.7-2.5-3.3s1.7-2.7,3.3-2.5
			C34.7,9.7,35.8,11.2,35.6,12.8z"/>
		<g>
			<path fill="#231F20" d="M32.3,14.1l0.1-0.4c-0.2,0-0.5-0.1-0.6-0.3l0.1-0.3c0.1,0.1,0.3,0.2,0.6,0.3c0.3,0,0.5-0.1,0.6-0.3
				c0-0.2-0.1-0.4-0.4-0.6c-0.4-0.2-0.6-0.4-0.6-0.8c0-0.3,0.3-0.6,0.7-0.6l0.1-0.4h0.3L33,11.1c0.2,0,0.4,0.1,0.5,0.2l-0.1,0.3
				c-0.1-0.1-0.2-0.2-0.5-0.2s-0.5,0.1-0.5,0.3s0.1,0.3,0.5,0.5s0.6,0.5,0.5,0.8c0,0.3-0.3,0.6-0.8,0.6L32.5,14L32.3,14.1z"/>
		</g>
	</g>
</g>
<g id="coin3">
	<path fill="#A7A9AC" d="M44.3,10.2c-1.4-0.2-2.8,0.8-3,2.3c-0.2,1.4,0.8,2.8,2.3,3c1.4,0.2,2.8-0.8,3-2.3
		C46.7,11.7,45.7,10.4,44.3,10.2z"/>
	<g>
		<circle fill="#FACB6B" cx="44.1" cy="12.7" r="2.6"/>
		<path fill="#BC9850" d="M46.4,13c-0.2,1.2-1.3,2.1-2.6,1.9c-1.2-0.2-2.1-1.3-1.9-2.5c0.2-1.2,1.3-2.1,2.6-2
			C45.7,10.6,46.5,11.7,46.4,13z"/>
		<path fill="#FACB6B" d="M46.2,12.9C46,14,45,14.8,43.8,14.7c-1.1-0.2-1.9-1.2-1.8-2.4c0.2-1.1,1.2-1.9,2.3-1.8
			C45.5,10.7,46.3,11.8,46.2,12.9z"/>
		<g>
			<path fill="#231F20" d="M43.9,13.9v-0.3c-0.2,0-0.3-0.1-0.4-0.2l0.1-0.2c0.1,0.1,0.2,0.2,0.4,0.2s0.4-0.1,0.4-0.2
				c0-0.2-0.1-0.3-0.3-0.4c-0.3-0.2-0.5-0.3-0.4-0.6c0-0.2,0.2-0.4,0.5-0.4v-0.3h0.2v0.3c0.2,0,0.3,0.1,0.4,0.2l-0.1,0.2
				c-0.1,0-0.2-0.1-0.4-0.2c-0.2,0-0.3,0.1-0.3,0.2c0,0.2,0.1,0.2,0.3,0.4c0.3,0.2,0.4,0.3,0.4,0.6c0,0.2-0.2,0.4-0.5,0.4v0.3H43.9z
				"/>
		</g>
	</g>
</g>
<g id="coin4">
	<path fill="#A7A9AC" d="M52.7,18.2c-2.3-0.3-4.3,1.3-4.6,3.5c-0.3,2.3,1.3,4.3,3.5,4.6c2.3,0.3,4.3-1.3,4.6-3.5
		S54.9,18.5,52.7,18.2z"/>
	<g>
		<path fill="#FACB6B" d="M56.5,22.6c-0.3,2.2-2.4,3.8-4.6,3.5c-2.2-0.3-3.8-2.4-3.5-4.6s2.4-3.8,4.6-3.5
			C55.2,18.2,56.8,20.3,56.5,22.6z"/>
		<path fill="#BC9850" d="M55.9,22.5c-0.3,1.9-2.1,3.3-4,3.1c-1.9-0.3-3.3-2.1-3.1-4c0.3-2,2.1-3.3,4-3.1
			C54.8,18.8,56.2,20.6,55.9,22.5z"/>
		<path fill="#FACB6B" d="M55.6,22.5c-0.2,1.8-1.9,3.1-3.7,2.8c-1.8-0.2-3.1-1.9-2.8-3.7c0.2-1.8,1.9-3,3.7-2.8S55.9,20.7,55.6,22.5
			z"/>
		<g>
			<path fill="#231F20" d="M52,23.9l0.1-0.5c-0.3,0-0.5-0.2-0.7-0.3l0.2-0.3c0.2,0.1,0.4,0.3,0.6,0.3c0.3,0,0.6-0.1,0.6-0.4
				s-0.1-0.4-0.5-0.6s-0.7-0.5-0.7-0.9c0.1-0.4,0.4-0.6,0.8-0.6l0.1-0.5h0.3l-0.1,0.5c0.3,0,0.5,0.1,0.6,0.2l-0.2,0.3
				c-0.1-0.1-0.3-0.2-0.6-0.2c-0.4,0-0.5,0.2-0.5,0.3c0,0.2,0.1,0.4,0.5,0.6c0.4,0.3,0.7,0.5,0.6,0.9c0,0.4-0.3,0.7-0.8,0.7
				l-0.1,0.5H52z"/>
		</g>
	</g>
</g>
<g id="coin5">
	<path fill="#A7A9AC" d="M59.8,15.2c-1.2,0.8-1.4,2.5-0.6,3.6c0.8,1.2,2.5,1.4,3.6,0.6c1.2-0.8,1.4-2.5,0.6-3.6
		C62.5,14.6,60.9,14.3,59.8,15.2z"/>
	<g>
		<path fill="#FACB6B" d="M63.4,15.5c0.8,1.2,0.6,2.8-0.6,3.6c-1.2,0.8-2.8,0.6-3.6-0.6s-0.6-2.8,0.6-3.6
			C60.9,14.1,62.6,14.4,63.4,15.5z"/>
		<path fill="#BC9850" d="M63.1,15.7c0.7,1,0.5,2.4-0.5,3.1c-1,0.7-2.4,0.5-3.1-0.5c-0.7-1-0.5-2.4,0.5-3.1
			C61,14.5,62.4,14.7,63.1,15.7z"/>
		<path fill="#FACB6B" d="M63,15.8c0.7,0.9,0.5,2.2-0.5,2.9c-0.9,0.7-2.2,0.5-2.9-0.5c-0.7-0.9-0.5-2.2,0.5-2.9
			C61,14.7,62.3,14.9,63,15.8z"/>
		<g>
			<path fill="#231F20" d="M61.9,18.1l-0.2-0.2c-0.1,0.1-0.3,0.2-0.4,0.2l-0.1-0.2c0.1,0,0.3,0,0.4-0.1c0.2-0.1,0.2-0.3,0.1-0.4
				c-0.1-0.1-0.2-0.1-0.5-0.1c-0.3,0.1-0.5,0.1-0.7-0.1c-0.1-0.2-0.1-0.5,0.1-0.6l-0.2-0.2l0.2-0.1l0.2,0.2c0.1-0.1,0.3-0.1,0.4-0.1
				l0.1,0.2c-0.1,0-0.2,0-0.4,0.1s-0.2,0.3-0.1,0.4c0.1,0.1,0.2,0.1,0.5,0.1c0.3-0.1,0.5,0,0.7,0.2C62.1,17.6,62.1,17.9,61.9,18.1
				l0.2,0.2L61.9,18.1z"/>
		</g>
	</g>
</g>
</svg>
