<?xml version="1.0" encoding="utf-8"?>
<!-- Generator: Adobe Illustrator 18.1.1, SVG Export Plug-In . SVG Version: 6.00 Build 0)  -->
<!DOCTYPE svg PUBLIC "-//W3C//DTD SVG 1.1//EN" "http://www.w3.org/Graphics/SVG/1.1/DTD/svg11.dtd">
<svg version="1.1" id="cloadStorageIcon" xmlns="http://www.w3.org/2000/svg" xmlns:xlink="http://www.w3.org/1999/xlink" x="0px"
	 y="0px" width="75px" height="75px" viewBox="0 0 75 75" enable-background="new 0 0 75 75" xml:space="preserve">
<g>
	<defs>
		<rect id="maskCloudbadsfadsf" x="12.5" y="12.2" width="44.1" height="37.4"/>
	</defs>
	<clipPath id="maskCloudbadsfadsf_1_">
		<use xlink:href="#maskCloudbadsfadsf"  overflow="visible"/>
	</clipPath>
	<g clip-path="url(#maskCloudbadsfadsf_1_)">
		<g id="page1">
			<g>
				<polygon fill="#BCBEC0" points="49.3,13.9 54.2,19.4 54.2,24.9 54.2,51.3 26.3,51.3 26.3,13.9 				"/>
				<g>
					<polygon fill="#FFFFFF" points="49.9,13.6 54.7,19.1 54.7,50.9 26.9,50.9 26.9,13.6 					"/>
					<polygon fill="#BCBEC0" points="54.7,24.5 54.7,19.1 49.9,19.1 					"/>
					<polygon fill="#5C6D84" points="49.9,19.1 54.7,19.1 49.9,13.6 					"/>
				</g>
			</g>
			<rect x="32.2" y="17.1" fill="#D1D3D4" width="9.2" height="0.4"/>
			<rect x="32.9" y="24.7" fill="#D1D3D4" width="6.8" height="0.4"/>
			<rect x="32.9" y="25.6" fill="#D1D3D4" width="8" height="0.4"/>
			<rect x="32.9" y="28.3" fill="#D1D3D4" width="8" height="0.4"/>
			<rect x="30" y="34.9" fill="#D1D3D4" width="8" height="0.4"/>
			<rect x="30" y="35.9" fill="#D1D3D4" width="15.6" height="0.4"/>
			<rect x="46.4" y="35.9" fill="#D1D3D4" width="2.7" height="0.4"/>
			<rect x="30" y="37" fill="#D1D3D4" width="4.5" height="0.4"/>
			<rect x="35.3" y="37" fill="#D1D3D4" width="6.8" height="0.4"/>
			<rect x="30" y="38" fill="#D1D3D4" width="8" height="0.4"/>
			<rect x="39.1" y="34.9" fill="#D1D3D4" width="1.5" height="0.4"/>
			<rect x="41.3" y="34.9" fill="#D1D3D4" width="1.5" height="0.4"/>
			<rect x="44.4" y="34.9" fill="#D1D3D4" width="7" height="0.4"/>
			<rect x="32.9" y="29.3" fill="#D1D3D4" width="4.7" height="0.4"/>
			<rect x="38.5" y="29.3" fill="#D1D3D4" width="9.2" height="0.4"/>
			<rect x="41.9" y="28.3" fill="#D1D3D4" width="3.8" height="0.4"/>
			<rect x="46.4" y="28.3" fill="#D1D3D4" width="2.7" height="0.4"/>
			<rect x="32.9" y="26.5" fill="#D1D3D4" width="4.7" height="0.7"/>
			<rect x="29.7" y="32.4" fill="#D1D3D4" width="7" height="0.9"/>
			<rect x="29.7" y="41.1" fill="#A7A9AC" width="6.2" height="0.9"/>
			<rect x="40" y="24.7" fill="#D1D3D4" width="1.9" height="0.4"/>
			<rect x="42.6" y="24.7" fill="#D1D3D4" width="1.9" height="0.4"/>
			<rect x="29.7" y="43.2" fill="#D1D3D4" width="9.2" height="0.4"/>
			<rect x="29.7" y="44.1" fill="#D1D3D4" width="10.8" height="0.4"/>
			<rect x="29.7" y="46.8" fill="#D1D3D4" width="10.8" height="0.4"/>
			<rect x="29.7" y="47.9" fill="#D1D3D4" width="6.4" height="0.4"/>
			<rect x="38" y="47.9" fill="#D1D3D4" width="12.5" height="0.4"/>
			<rect x="42.6" y="46.8" fill="#D1D3D4" width="5.1" height="0.4"/>
			<rect x="48.7" y="46.8" fill="#D1D3D4" width="3.7" height="0.4"/>
			<rect x="29.7" y="45" fill="#D1D3D4" width="6.4" height="0.7"/>
			<rect x="40" y="43.2" fill="#D1D3D4" width="2.6" height="0.4"/>
			<rect x="43.5" y="43.2" fill="#D1D3D4" width="2.6" height="0.4"/>
			<rect x="32.2" y="18.1" fill="#D1D3D4" width="9.2" height="0.8"/>
			<rect x="29.7" y="21" fill="#A7A9AC" width="12.4" height="0.7"/>
			<rect x="29.7" y="22.3" fill="#A7A9AC" width="9.5" height="0.7"/>
			<rect x="42.7" y="21" fill="#A7A9AC" width="0.9" height="0.7"/>
			<rect x="44.3" y="21" fill="#A7A9AC" width="7.9" height="0.7"/>
		</g>
		<g id="page0">
			<polyline fill="#BCBEC0" points="19,16.6 14.5,21.7 14.5,51.2 40.3,51.2 40.3,16.6 			"/>
			<polygon fill="#FFFFFF" points="18.5,17 14,22.1 14,51.7 39.8,51.7 39.8,17 			"/>
			<polygon fill="#A7A9AC" points="14,29.2 14,22.1 18.5,17 18.5,22.1 			"/>
			<polygon fill="#F17046" points="18.5,22.1 14,22.1 18.5,17 			"/>
			<path fill="#FB541E" d="M21.8,30.2c-0.3,0-0.5,0-0.7-0.1l-0.4,1.1c0.3,0.1,0.7,0.2,1.1,0.2c0.8,0,1.5-0.3,2.2-0.7l-0.7-0.9
				C22.8,30,22.3,30.2,21.8,30.2z"/>
			<path fill="#2D4255" d="M23.1,24l-0.4,1.1c1,0.4,1.7,1.3,1.7,2.5c0,0.1,0,0.1,0,0.2c0,0.8-0.5,1.6-1.1,2l0.7,0.9
				c0.9-0.7,1.6-1.7,1.6-2.9c0-0.1,0-0.1,0-0.2C25.5,25.9,24.5,24.6,23.1,24z"/>
			<path fill="#ADBCC3" d="M19.2,27.7H18c0.1,1.6,1.2,3,2.7,3.4l0.4-1.1C20,29.8,19.2,28.8,19.2,27.7z"/>
			<path fill="#F1C40F" d="M21.8,23.8c-0.8,0-1.6,0.3-2.2,0.7c-0.9,0.7-1.5,1.8-1.5,3c0,0.1,0,0.1,0,0.2h1.1c0-0.1,0-0.1,0-0.2
				c0-0.9,0.4-1.6,1.1-2.1c0.4-0.3,1-0.5,1.6-0.5c0.3,0,0.6,0.1,0.9,0.2l0.4-1.1C22.7,23.9,22.2,23.8,21.8,23.8z"/>
			<path fill="#BCBEC0" d="M21.8,24.4c-1.7,0-3.1,1.4-3.1,3.1s1.4,3.1,3.1,3.1s3.1-1.4,3.1-3.1S23.5,24.4,21.8,24.4z M24.4,27.7
				c0,0.8-0.5,1.6-1.1,2c-0.4,0.3-0.9,0.5-1.5,0.5c-0.3,0-0.5,0-0.7-0.1c-1-0.3-1.8-1.2-1.9-2.4c0-0.1,0-0.1,0-0.2
				c0-0.9,0.4-1.6,1.1-2.1c0.4-0.3,1-0.5,1.6-0.5c0.3,0,0.6,0.1,0.9,0.2c1,0.4,1.7,1.3,1.7,2.5C24.4,27.6,24.4,27.7,24.4,27.7z"/>
			<g>
				<g>
					<path fill="#0D99AF" d="M21.8,45.2c-2.3,0-4.2-1.9-4.2-4.2s1.9-4.2,4.2-4.2S26,38.7,26,41S24.1,45.2,21.8,45.2z M21.8,37
						c-2.2,0-4,1.8-4,4s1.8,4,4,4s4-1.8,4-4S24,37,21.8,37z"/>
				</g>
				<path fill="#2D4255" d="M18.2,41c0,0.5,0.1,1,0.3,1.4c0.2,0.4,0.4,0.8,0.8,1.1c0.3,0.3,0.7,0.6,1.1,0.8s0.9,0.3,1.4,0.3
					s1-0.1,1.4-0.3s0.8-0.4,1.1-0.8c0.3-0.3,0.6-0.7,0.8-1.1c0.2-0.4,0.3-0.9,0.3-1.4s-0.1-1-0.3-1.4c-0.2-0.4-0.4-0.8-0.8-1.1
					c-0.3-0.3-0.7-0.6-1.1-0.8s-0.9-0.3-1.4-0.3V41H18.2z"/>
			</g>
			<rect x="27.6" y="23.6" fill="#2D4255" width="10.6" height="1.2"/>
			<rect x="27.6" y="26.1" fill="#BCBEC0" width="10.6" height="0.7"/>
			<rect x="27.6" y="27.7" fill="#BCBEC0" width="10.6" height="0.7"/>
			<rect x="27.6" y="29.4" fill="#BCBEC0" width="10.6" height="0.7"/>
			<rect x="27.6" y="37.8" fill="#2D4255" width="10.6" height="1.2"/>
			<rect x="27.6" y="40.3" fill="#BCBEC0" width="10.6" height="0.7"/>
			<rect x="27.6" y="41.9" fill="#BCBEC0" width="10.6" height="0.7"/>
			<rect x="27.6" y="43.6" fill="#BCBEC0" width="10.6" height="0.7"/>
		</g>
	</g>
</g>
<g id="stars">
	<g id="star6">
		<path fill="#F1F2F2" d="M57.1,40.6C57,40.6,57,40.6,57.1,40.6l-0.9-0.8v-0.1h0.1L57.1,40.6C57.1,40.5,57.1,40.6,57.1,40.6z"/>
		<path fill="#F1F2F2" d="M58.3,41.8C58.3,41.9,58.3,41.9,58.3,41.8L57.4,41v-0.1h0.1L58.3,41.8C58.4,41.8,58.4,41.8,58.3,41.8z"/>
		<path fill="#F1F2F2" d="M57.1,41.1l-0.8,0.8h-0.1v-0.1L57.1,41.1C57,41,57,41,57.1,41.1C57.1,41,57.1,41,57.1,41.1z"/>
		<path fill="#F1F2F2" d="M58.3,39.8l-0.8,0.8h-0.1v-0.1L58.3,39.8C58.3,39.7,58.3,39.7,58.3,39.8C58.4,39.8,58.4,39.8,58.3,39.8z"
			/>
	</g>
	<g id="star5">
		<path fill="#F1F2F2" d="M22.9,14.7C22.9,14.8,22.8,14.8,22.9,14.7L22,14v-0.1h0.1L22.9,14.7L22.9,14.7z"/>
		<path fill="#F1F2F2" d="M24.1,16L24.1,16l-0.9-0.8v-0.1h0.1L24.1,16C24.2,15.9,24.2,16,24.1,16z"/>
		<path fill="#F1F2F2" d="M22.9,15.2L22.1,16H22v-0.1L22.9,15.2C22.8,15.1,22.9,15.1,22.9,15.2L22.9,15.2z"/>
		<path fill="#F1F2F2" d="M24.1,14l-0.8,0.8h-0.1v-0.1L24.1,14C24.1,13.9,24.1,13.9,24.1,14C24.2,13.9,24.2,14,24.1,14z"/>
	</g>
	<g id="star4">
		<path fill="#F1F2F2" d="M27.2,10.1c0,0-0.1,0-0.2,0l-1.3-1.3c0,0,0-0.1,0-0.2c0.1,0,0.1,0,0.2,0l1.3,1.3
			C27.3,10,27.3,10.1,27.2,10.1z"/>
		<path fill="#F1F2F2" d="M29.4,12.3c0,0-0.1,0-0.2,0L27.9,11c0,0,0-0.1,0-0.2c0,0,0.1,0,0.2,0l1.3,1.3
			C29.4,12.1,29.4,12.2,29.4,12.3z"/>
		<path fill="#F1F2F2" d="M27.2,10.9l-1.3,1.3c0,0-0.1,0-0.2,0c0,0,0-0.1,0-0.2l1.3-1.3c0,0,0.1,0,0.2,0
			C27.3,10.8,27.3,10.9,27.2,10.9z"/>
		<path fill="#F1F2F2" d="M29.4,8.8l-1.3,1.3c0,0-0.1,0-0.2,0c0,0,0-0.1,0-0.2l1.3-1.3c0,0,0.1,0,0.2,0C29.4,8.7,29.4,8.7,29.4,8.8z
			"/>
	</g>
	<g id="star3">
		<path fill="#F1F2F2" d="M17.1,8.2c-0.1,0.1-0.1,0.1-0.2,0l-1.6-1.6c-0.1-0.1-0.1-0.1,0-0.2s0.1-0.1,0.2,0L17.1,8
			C17.2,8,17.2,8.1,17.1,8.2z"/>
		<path fill="#F1F2F2" d="M19.7,10.8c-0.1,0.1-0.1,0.1-0.2,0l-1.6-1.6c-0.1-0.1-0.1-0.1,0-0.2C18,8.9,18,8.9,18.1,9l1.6,1.6
			C19.8,10.6,19.8,10.7,19.7,10.8z"/>
		<path fill="#F1F2F2" d="M17.1,9.2l-1.6,1.6c-0.1,0.1-0.1,0.1-0.2,0c-0.1-0.1-0.1-0.1,0-0.2L16.9,9C17,8.9,17,8.9,17.1,9
			S17.2,9.1,17.1,9.2z"/>
		<path fill="#F1F2F2" d="M19.7,6.6l-1.6,1.6c-0.1,0.1-0.1,0.1-0.2,0s-0.1-0.1,0-0.2l1.6-1.6c0.1-0.1,0.1-0.1,0.2,0
			C19.8,6.5,19.8,6.6,19.7,6.6z"/>
	</g>
	<g id="star2">
		<path fill="#F1F2F2" d="M63.2,44.3L63.2,44.3L62,43.2v-0.1h0.1L63.2,44.3C63.3,44.2,63.3,44.3,63.2,44.3z"/>
		<path fill="#F1F2F2" d="M65,46.1L65,46.1L63.8,45v-0.1h0.1L65,46.1C65.1,46,65.1,46.1,65,46.1z"/>
		<path fill="#F1F2F2" d="M63.2,45l-1.1,1.1H62V46L63.2,45L63.2,45C63.3,44.9,63.3,45,63.2,45z"/>
		<path fill="#F1F2F2" d="M65,43.2l-1.1,1.1h-0.1v-0.1L65,43.2L65,43.2C65.1,43.1,65.1,43.2,65,43.2z"/>
	</g>
	<g id="star1">
		<path fill="#F1F2F2" d="M60.4,34.7c0,0-0.1,0-0.2,0L59,33.5c0,0,0-0.1,0-0.2c0,0,0.1,0,0.2,0l1.2,1.2
			C60.5,34.6,60.5,34.7,60.4,34.7z"/>
		<path fill="#F1F2F2" d="M62.4,36.7c0,0-0.1,0-0.2,0L61,35.5c0,0,0-0.1,0-0.2c0,0,0.1,0,0.2,0l1.2,1.2
			C62.4,36.6,62.4,36.7,62.4,36.7z"/>
		<path fill="#F1F2F2" d="M60.4,35.5l-1.2,1.2c0,0-0.1,0-0.2,0c0,0,0-0.1,0-0.2l1.2-1.2c0,0,0.1,0,0.2,0
			C60.5,35.4,60.5,35.5,60.4,35.5z"/>
		<path fill="#F1F2F2" d="M62.4,33.5l-1.2,1.2c0,0-0.1,0-0.2,0c0,0,0-0.1,0-0.2l1.2-1.2c0,0,0.1,0,0.2,0
			C62.4,33.4,62.4,33.5,62.4,33.5z"/>
	</g>
</g>
<g id="clouds">
	<g id="cloud1">
		<path fill="#BCBEC0" d="M47.3,47.3c-1.4-0.7-2.8-1-4.3-0.9c1.4,0,2.7,0.3,4,0.9c4.4,2.2,6.1,7.5,4,11.8c-1.5,3-4.4,4.8-7.6,4.9
			c3.2,0,6.3-1.8,7.8-4.9C53.4,54.8,51.7,49.5,47.3,47.3z"/>
		<path fill="#FFFFFF" d="M47.1,47.3c-0.9-0.5-1.9-0.7-2.9-0.9c-1-3.2-3.2-5.9-6.4-7.5c-6.1-3-13.5-0.7-16.8,5.2
			c-4-0.4-7.9,1.6-9.8,5.4c-2.4,4.9-0.4,10.8,4.4,13.2c2.5,1.2,5.2,1.3,7.6,0.5c1.7,2.4,4.6,4,7.8,4c3.3,0,6.3-1.7,8-4.2
			c0.1,0,0.2,0.1,0.3,0.1c4.4,2.2,9.7,0.4,11.8-4C53.2,54.8,51.4,49.5,47.1,47.3z"/>
		<g>
			<path fill="#D1D3D4" d="M20.7,44.7c3.1-6.3,10.8-8.9,17-5.8c4.2,2.1,6.8,6.3,7,10.8c-0.2-6.8-5.7-12.2-12.5-12.3
				c-6.9-0.1-12.6,5.2-12.9,12.1C19.5,47.9,19.9,46.2,20.7,44.7z"/>
			<path fill="#D1D3D4" d="M44.7,50.5L44.7,50.5c0-0.2,0-0.2,0-0.3C44.7,50.3,44.7,50.4,44.7,50.5z"/>
			<path fill="#D1D3D4" d="M19.3,49.6c0,0.1,0,0.2,0,0.3s0,0.2,0,0.3C19.3,50,19.3,49.8,19.3,49.6z"/>
		</g>
	</g>
	<g id="cloud0">
		<path fill="#BCBEC0" d="M39.5,62.6c-3-1.5-4.3-5.2-2.8-8.2c1.3-2.6,4.2-3.9,7-3.2c-2.8-0.8-5.8,0.5-7.2,3.2
			c-1.5,3-0.3,6.7,2.8,8.2c0.4,0.2,0.9,0.4,1.3,0.5C40.2,62.9,39.8,62.8,39.5,62.6z"/>
		<path fill="#FFFFFF" d="M59.1,52.9c-0.6-0.3-1.2-0.5-1.8-0.5c-0.6-2-2-3.7-4-4.7c-3.8-1.9-8.4-0.4-10.5,3.3c-2.5-0.3-5,1-6.1,3.4
			c-1.5,3-0.3,6.7,2.8,8.2c1.5,0.8,3.3,0.8,4.8,0.3c1.1,1.5,2.9,2.5,4.9,2.5c2.1,0,3.9-1.1,5-2.6c0.1,0,0.1,0.1,0.2,0.1
			c2.7,1.4,6,0.2,7.4-2.5C63,57.6,61.9,54.2,59.1,52.9z"/>
		<g>
			<path fill="#D1D3D4" d="M42.6,51.2c2-4,6.7-5.6,10.7-3.6c2.7,1.3,4.2,4,4.4,6.8c-0.1-4.2-3.5-7.6-7.8-7.7
				c-4.3-0.1-7.9,3.3-8.1,7.6C41.9,53.2,42.1,52.2,42.6,51.2z"/>
			<path fill="#D1D3D4" d="M57.7,54.9C57.7,54.9,57.7,54.8,57.7,54.9c0-0.1,0-0.2,0-0.2C57.7,54.8,57.7,54.8,57.7,54.9z"/>
			<path fill="#D1D3D4" d="M41.8,54.3c0,0.1,0,0.1,0,0.2c0,0.1,0,0.1,0,0.2C41.8,54.6,41.8,54.5,41.8,54.3z"/>
		</g>
		<path fill="#BCBEC0" d="M59.3,52.9c-0.9-0.4-1.8-0.6-2.7-0.6c0.8,0,1.7,0.2,2.5,0.6c2.7,1.4,3.8,4.7,2.5,7.4
			c-0.9,1.9-2.8,3-4.7,3.1c2,0,3.9-1.1,4.9-3.1C63.1,57.6,62,54.2,59.3,52.9z"/>
	</g>
</g>
</svg>
