<?xml version="1.0" encoding="utf-8"?>
<!-- Generator: Adobe Illustrator 18.1.1, SVG Export Plug-In . SVG Version: 6.00 Build 0)  -->
<!DOCTYPE svg PUBLIC "-//W3C//DTD SVG 1.1//EN" "http://www.w3.org/Graphics/SVG/1.1/DTD/svg11.dtd">
<svg version="1.1" id="codeOptimizationIcon" xmlns="http://www.w3.org/2000/svg" xmlns:xlink="http://www.w3.org/1999/xlink"
	 x="0px" y="0px" width="75px" height="75px" viewBox="0 0 75 75" enable-background="new 0 0 75 75" xml:space="preserve">
<g id="computerAll">
	<g id="computerTop">
		<g id="gear">
			<g id="gearBottom">
				<path fill="#B55435" d="M30.6,18.5c0-2.9,2.4-5.1,5.3-5.1c2.9,0,5.1,2.4,5.1,5.3l0,0h2.4l0,0c0.1-4.2-3.3-7.7-7.6-7.7
					c-4.2-0.1-7.7,3.3-7.7,7.6c0,0.1,0,0.1,0,0.1h2.4C30.6,18.6,30.6,18.6,30.6,18.5z"/>
				<path id="gearRed" fill="#F17046" d="M47.5,20.8l-2.1-1.1v-1l0,0l-0.1-1.6l2-1.3h0.1c-0.2-0.9-0.5-1.8-0.9-2.6v0.1l-2.4,0.3
					l-1.4-1.9l0.9-2.2h0.1c-0.4-0.3-0.8-0.6-1.1-0.9c-0.4-0.3-0.8-0.5-1.2-0.7V8l-1.7,1.6L37.3,9l-0.6-2.3l0,0
					c-0.9-0.1-1.8-0.1-2.8,0.1l0,0L33.5,9l-2.3,0.8l-1.7-1.5V8.3c-0.8,0.4-1.4,1-2.1,1.6h0.1l1,2.1L27.1,14l-2.3-0.1v-0.1
					c-0.4,0.9-0.6,1.8-0.8,2.6h0.1l2.1,1.2v1.1l0,0l0.1,1.5l-2,1.3h-0.1c0.2,0.9,0.5,1.8,0.9,2.6V24l2.4-0.3l1.4,1.9l-0.9,2.2h-0.1
					c0.4,0.3,0.8,0.6,1.1,0.9c0.4,0.3,0.8,0.5,1.2,0.7v-0.1l1.7-1.6l2.3,0.7l0.6,2.3l0,0c0.9,0.1,1.8,0.1,2.8-0.1l0,0l0.4-2.3
					l2.3-0.8l1.8,1.5V29c0.8-0.4,1.4-1,2.1-1.6h-0.1L43,25.2l1.4-1.9l2.4,0.2v0.1C47.1,22.6,47.4,21.7,47.5,20.8L47.5,20.8z
					 M41.6,22.7c-2.2,3.2-6.6,4.1-9.8,1.9c-2-1.4-3.1-3.4-3.1-5.9l0,0c0-1.3,0.4-2.8,1.2-4.1c2.2-3.2,6.6-4,9.8-1.8
					c2,1.4,3.1,3.4,3.1,6l0,0C42.9,20,42.4,21.5,41.6,22.7z"/>
			</g>
		</g>
		<path fill="#353C4F" d="M70.1,50.5c0,1.4,0,2.5,0,2.5H5.3c0,0,0-1.1,0-2.5V21c0-1.4,1.1-2.5,2.3-2.5h60.1c1.3,0,2.3,1.1,2.3,2.5
			V50.5z"/>
		<rect x="8.2" y="20.9" fill="#85DEE3" width="59" height="29.7"/>
		<g>
			<defs>
				<rect id="asdfadsfdsaf" x="8.2" y="20.9" width="59" height="29.7"/>
			</defs>
			<clipPath id="asdfadsfdsaf_1_">
				<use xlink:href="#asdfadsfdsaf"  overflow="visible"/>
			</clipPath>
			<g clip-path="url(#asdfadsfdsaf_1_)">
				<g id="codeAll">
					<rect id="text47" x="41.4" y="46.8" fill="#FFFFFF" width="6.8" height="0.8"/>
					<rect id="text46" x="35.5" y="46.8" fill="#FFFFFF" width="4.5" height="0.8"/>
					<rect id="text45" x="23.1" y="46.8" fill="#FFFFFF" width="11.5" height="0.8"/>
					<rect id="text44" x="17" y="46.8" fill="#FFFFFF" width="5.3" height="0.8"/>
					<rect id="text43" x="12.9" y="46.8" fill="#FFFFFF" width="3.4" height="0.8"/>
					<rect id="text42" x="38.5" y="44.9" fill="#FFFFFF" width="9.8" height="0.8"/>
					<rect id="text41" x="35.5" y="44.9" fill="#FFFFFF" width="2.2" height="0.8"/>
					<rect id="text40" x="33" y="44.9" fill="#FFFFFF" width="1.1" height="0.8"/>
					<rect id="text39" x="30.2" y="44.9" fill="#FFFFFF" width="1.7" height="0.8"/>
					<rect id="text38" x="14.8" y="44.9" fill="#FFFFFF" width="14.8" height="0.8"/>
					<rect id="text37" x="12.9" y="44.9" fill="#FFFFFF" width="1.7" height="0.8"/>
					<rect id="text36" x="41.4" y="42.8" fill="#FFFFFF" width="6.8" height="0.8"/>
					<rect id="text35" x="35.5" y="42.8" fill="#FFFFFF" width="4.5" height="0.8"/>
					<rect id="text34" x="23.1" y="42.8" fill="#FFFFFF" width="11.5" height="0.8"/>
					<rect id="text33" x="17" y="42.8" fill="#FFFFFF" width="5.3" height="0.8"/>
					<rect id="text32" x="12.9" y="42.8" fill="#FFFFFF" width="3.4" height="0.8"/>
					<rect id="text31" x="42.9" y="40.9" fill="#FFFFFF" width="5.3" height="0.8"/>
					<rect id="text30" x="35.5" y="40.9" fill="#FFFFFF" width="5.8" height="0.8"/>
					<rect id="text29" x="30.2" y="40.9" fill="#FFFFFF" width="4.5" height="0.8"/>
					<rect id="text28" x="25.1" y="40.9" fill="#FFFFFF" width="4.5" height="0.8"/>
					<rect id="text27" x="12.9" y="40.9" fill="#FFFFFF" width="11.2" height="0.8"/>
					<rect id="text26" x="23.5" y="38.1" fill="#FFFFFF" width="3" height="0.8"/>
					<rect id="text25" x="18.1" y="38.1" fill="#FFFFFF" width="4.2" height="0.8"/>
					<rect id="text24" x="10.5" y="38.1" fill="#FFFFFF" width="6.8" height="0.8"/>
					<rect id="text23" x="41.4" y="34.6" fill="#FFFFFF" width="6.8" height="0.8"/>
					<rect id="text22" x="35.5" y="34.6" fill="#FFFFFF" width="4.5" height="0.8"/>
					<rect id="text21" x="23.1" y="34.6" fill="#FFFFFF" width="11.5" height="0.8"/>
					<rect id="text20" x="17" y="34.6" fill="#FFFFFF" width="5.3" height="0.8"/>
					<rect id="text19" x="12.9" y="34.6" fill="#FFFFFF" width="3.4" height="0.8"/>
					<rect id="text18" x="42.9" y="32.7" fill="#FFFFFF" width="5.3" height="0.8"/>
					<rect id="text17" x="35.5" y="32.7" fill="#FFFFFF" width="5.8" height="0.8"/>
					<rect id="text16" x="30.2" y="32.7" fill="#FFFFFF" width="4.5" height="0.8"/>
					<rect id="text15" x="25.1" y="32.7" fill="#FFFFFF" width="4.5" height="0.8"/>
					<rect id="text14" x="12.9" y="32.7" fill="#FFFFFF" width="11.2" height="0.8"/>
					<rect id="text13" x="46.8" y="30.8" fill="#FFFFFF" width="8.9" height="0.8"/>
					<rect id="text12" x="32.4" y="30.8" fill="#FFFFFF" width="13.1" height="0.8"/>
					<rect id="text11" x="18.5" y="30.8" fill="#FFFFFF" width="12.9" height="0.8"/>
					<rect id="text10" x="15.4" y="30.8" fill="#FFFFFF" width="2.3" height="0.8"/>
					<rect id="text9" x="12.9" y="30.8" fill="#FFFFFF" width="1.8" height="0.8"/>
					<rect id="text8" x="39.6" y="28.9" fill="#FFFFFF" width="8.6" height="0.8"/>
					<rect id="text7" x="35.5" y="28.9" fill="#FFFFFF" width="2.8" height="0.8"/>
					<rect id="text6" x="23.1" y="28.9" fill="#FFFFFF" width="11.5" height="0.8"/>
					<rect id="text5" x="20.6" y="28.9" fill="#FFFFFF" width="1.7" height="0.8"/>
					<rect id="text4" x="12.9" y="28.9" fill="#FFFFFF" width="6.8" height="0.8"/>
					<rect id="text3" x="23.1" y="26.2" fill="#FFFFFF" width="3" height="0.8"/>
					<rect id="text2" x="17.8" y="26.2" fill="#FFFFFF" width="4.2" height="0.8"/>
					<rect id="text1" x="10.2" y="26.2" fill="#FFFFFF" width="6.8" height="0.8"/>
					<rect id="text0" x="10.2" y="23.3" fill="#FFFFFF" width="12.3" height="1.2"/>
				</g>
				<path id="glare" opacity="0.3" fill="#FFFFFF" d="M51.5,18.7H7.9c-1.3,0-2.3,1.1-2.3,2.5v29.5c0,1.1,0,2,0,2.3L51.5,18.7z"/>
			</g>
		</g>
	</g>
	<g id="computerBottom">
		<path fill="#FFFFFF" d="M72.8,53.4c0-0.2-0.2-0.4-0.4-0.4H3c-0.2,0-0.4,0.2-0.4,0.4l0,0.9h70.2L72.8,53.4z"/>
		<path fill="#E6E7E8" d="M2.6,54.3l0.7,0.9c0.2,0.2,0.4,0.4,0.7,0.4h67.5c0.2,0,0.4-0.1,0.6-0.4l0.7-0.9H2.6z"/>
		<path fill="#BCBEC0" d="M28.7,53v0.5c0,0.1,0.2,0.2,0.4,0.2h17.2c0.2,0,0.4-0.1,0.4-0.2V53H28.7z"/>
	</g>
</g>

</svg>
