<?xml version="1.0" encoding="utf-8"?>
<!-- Generator: Adobe Illustrator 18.1.1, SVG Export Plug-In . SVG Version: 6.00 Build 0)  -->
<!DOCTYPE svg PUBLIC "-//W3C//DTD SVG 1.1//EN" "http://www.w3.org/Graphics/SVG/1.1/DTD/svg11.dtd">
<svg version="1.1" id="emailMarketingIcon" xmlns="http://www.w3.org/2000/svg" xmlns:xlink="http://www.w3.org/1999/xlink" x="0px"
	 y="0px" width="75px" height="75px" viewBox="0 0 75 75" enable-background="new 0 0 75 75" xml:space="preserve">
<g id="envelopeBack">
	<polygon fill="#BC9850" points="24.2,55.3 24.4,70.1 50.8,71.1 51.5,55.3 	"/>
	<path id="envelopeFlap" fill="#BC9850" d="M24.1,55.3l12.7-12.7c0.4-0.4,1.7-0.4,2,0l12.7,12.7H24.1z"/>
</g>
<g>
	<g>
		<defs>
			<rect id="emailMarketMaskowquier" x="17.2" y="0.8" width="41" height="69.7"/>
		</defs>
		<clipPath id="emailMarketMaskowquier_1_">
			<use xlink:href="#emailMarketMaskowquier"  overflow="visible"/>
		</clipPath>
		<g clip-path="url(#emailMarketMaskowquier_1_)">
			<g id="bgObjects">
				<g id="at">
					<path fill="#000000" opacity=".2" d="M29,14.8c-0.3,0.3-0.9,0.6-1.7,0.8c-0.8,0.2-1.8,0.4-3.2,0.4c-1,0-1.9-0.1-2.6-0.4
						c-0.7-0.3-1.4-0.7-1.9-1.2s-0.9-1.1-1.1-1.9c-0.3-0.7-0.4-1.5-0.4-2.4c0-0.9,0.1-1.7,0.4-2.5s0.7-1.4,1.2-2s1.2-1,1.9-1.3
						c0.8-0.3,1.6-0.5,2.6-0.5c0.8,0,1.5,0.1,2.2,0.3C27,4.3,27.6,4.6,28.1,5s0.9,0.9,1.2,1.5c0.3,0.6,0.4,1.4,0.4,2.3
						c0,0.7-0.1,1.4-0.3,2c-0.2,0.6-0.4,1-0.7,1.4c-0.3,0.4-0.6,0.7-1,0.9s-0.7,0.3-1.1,0.3c-0.5,0-0.9-0.1-1.1-0.3
						c-0.3-0.2-0.4-0.4-0.5-0.6c-0.2,0.3-0.4,0.5-0.7,0.7c-0.3,0.1-0.7,0.2-1.1,0.2s-0.8-0.1-1.1-0.2c-0.3-0.2-0.6-0.4-0.8-0.6
						c-0.2-0.3-0.3-0.6-0.4-0.9c-0.1-0.3-0.1-0.7-0.1-1.1c0-0.6,0.1-1.1,0.2-1.5c0.1-0.5,0.4-0.9,0.6-1.2c0.3-0.3,0.6-0.6,1-0.8
						c0.4-0.2,0.8-0.3,1.3-0.3c0.4,0,0.8,0.1,1,0.3c0.3,0.2,0.5,0.5,0.6,0.8L26,6.7h1.3L26.5,11c-0.1,0.3-0.1,0.5-0.1,0.6
						s0,0.2,0.1,0.2c0.1,0.1,0.2,0.1,0.3,0.1c0.2,0,0.4-0.1,0.6-0.2c0.2-0.1,0.4-0.3,0.6-0.6c0.2-0.2,0.3-0.6,0.4-0.9
						c0.1-0.4,0.2-0.8,0.2-1.3c0-0.7-0.1-1.3-0.3-1.8c-0.2-0.5-0.5-0.9-0.9-1.2C27,5.6,26.5,5.3,26,5.2C25.4,5,24.8,5,24.2,5
						c-0.8,0-1.4,0.1-2,0.4s-1.1,0.7-1.5,1.1c-0.4,0.5-0.7,1-0.9,1.6c-0.2,0.6-0.3,1.2-0.3,1.8c0,1.5,0.4,2.7,1.3,3.5
						c0.8,0.8,2,1.2,3.5,1.2c1,0,1.9-0.1,2.6-0.2c0.7-0.2,1.3-0.4,1.6-0.6L29,14.8z M23.6,11.9c0.5,0,0.9-0.2,1.2-0.7
						c0.3-0.5,0.5-1.1,0.5-1.9c0-0.5-0.1-0.8-0.3-1.1c-0.2-0.3-0.5-0.4-0.9-0.4c-0.5,0-0.9,0.2-1.3,0.6c-0.4,0.4-0.5,1.1-0.5,2
						c0,0.5,0.1,0.8,0.3,1.1C22.8,11.8,23.2,11.9,23.6,11.9z"/>
				</g>
				<g id="pin">
					<g>
						<path fill="#000000" opacity=".2"  d="M50.1,29.6l-0.7-1.2c-0.1-0.2-3.7-5.7-3.7-8c0-2.4,2-4.4,4.4-4.4s4.4,2,4.4,4.4c0,2.1-3,7-3.7,8
							L50.1,29.6z M50.1,17.1c-1.9,0-3.4,1.5-3.4,3.4c0,1.6,2.4,5.8,3.4,7.3c1.2-2,3.4-5.8,3.4-7.3C53.5,18.6,52,17.1,50.1,17.1z"/>
					</g>
					<g>
						<path fill="#000000" opacity=".2"  d="M50.1,22.9c-1.3,0-2.4-1.1-2.4-2.4s1.1-2.4,2.4-2.4c1.3,0,2.4,1.1,2.4,2.4S51.4,22.9,50.1,22.9z
							 M50.1,18.6c-1,0-1.9,0.8-1.9,1.9c0,1,0.8,1.9,1.9,1.9c1,0,1.9-0.8,1.9-1.9S51.1,18.6,50.1,18.6z"/>
					</g>
				</g>
				<path id="globe" fill="#000000" opacity=".2"  d="M32.8,27.9c-0.4-0.4-0.9-0.8-1.4-1.1c-0.4-0.3-0.8-0.5-1.3-0.7s-1-0.4-1.5-0.5
					c-0.6-0.1-1.3-0.2-2-0.2c-0.6,0-1.3,0.1-1.9,0.2c-0.4,0.1-0.8,0.2-1.2,0.4c-0.5,0.2-0.9,0.4-1.3,0.6c-0.1,0-0.1,0.1-0.2,0.1
					c-0.6,0.3-1.1,0.7-1.5,1.2c-1.6,1.6-2.6,3.8-2.6,6.2s1,4.6,2.6,6.2c0.5,0.5,1,0.9,1.5,1.2c0.1,0,0.1,0.1,0.2,0.1
					c0.4,0.2,0.9,0.5,1.3,0.6s0.8,0.3,1.2,0.4c0.6,0.1,1.2,0.2,1.9,0.2c0.7,0,1.3-0.1,2-0.2c0.5-0.1,1-0.3,1.5-0.5
					c0.4-0.2,0.9-0.4,1.3-0.7c0.5-0.3,1-0.7,1.4-1.1c1.6-1.6,2.6-3.8,2.6-6.2C35.3,31.6,34.3,29.4,32.8,27.9z M20.5,29.5
					c0.4-0.6,0.9-1.1,1.5-1.5c0.1,0,0.1-0.1,0.2-0.1c0.4-0.3,0.9-0.6,1.3-0.8c0.2-0.1,0.3-0.1,0.5-0.2c-0.2,0.2-0.3,0.5-0.5,0.8
					c-0.4,0.7-0.9,1.5-1.2,2.4h-0.1L22,30.2c-0.6,0.2-1.1,0.5-1.5,0.8s-0.8,0.5-1.2,0.7C19.6,30.9,20,30.1,20.5,29.5z M19.1,32.5
					c0.3-0.3,0.8-0.6,1.4-0.9c0.5-0.3,1-0.6,1.5-0.8l0,0l0,0c-0.3,1-0.5,2-0.5,3.1V34h-1H19C19,33.5,19,33,19.1,32.5z M19,34.8h1.5
					h1c0.1,0.9,0.3,1.7,0.5,2.4c0,0.2,0.1,0.3,0.2,0.5c0,0.1,0.1,0.2,0.1,0.3l-0.1-0.1L22,37.8c-0.6-0.3-1.1-0.6-1.5-0.8
					c-0.5-0.3-0.9-0.6-1.2-0.8C19.1,35.7,19.1,35.2,19,34.8z M23.5,41c-0.5-0.2-0.9-0.5-1.3-0.8c-0.1,0-0.1-0.1-0.2-0.1
					c-0.6-0.4-1.1-0.9-1.5-1.5c-0.4-0.5-0.7-1-0.9-1.6c0.3,0.2,0.6,0.4,0.9,0.6c0.5,0.3,1,0.5,1.5,0.8l0.2,0.1
					c0.1,0.1,0.3,0.1,0.4,0.2c0.3,0.6,0.6,1.2,0.9,1.6c0.2,0.4,0.5,0.7,0.7,1C24,41.2,23.7,41.1,23.5,41z M26.1,41.6
					c-0.3,0-0.7-0.1-1-0.1c-0.1-0.1-0.2-0.3-0.4-0.4c-0.3-0.3-0.6-0.7-0.8-1.2c-0.1-0.2-0.2-0.4-0.4-0.6c-0.1-0.1-0.1-0.2-0.2-0.3
					l0.2,0.1c0.4,0.1,0.8,0.2,1.2,0.3c0.5,0.1,0.9,0.1,1.4,0.2C26.1,39.6,26.1,41.6,26.1,41.6z M26.1,38.9c-0.5,0-0.9-0.1-1.4-0.2
					c-0.4-0.1-0.8-0.2-1.2-0.3c-0.2-0.1-0.3-0.1-0.5-0.2c-0.4-0.8-0.7-1.7-0.8-2.6c0-0.3-0.1-0.6-0.1-0.8h0.1h1.3h1.2h1.4V38.9z
					 M26.1,34h-1.4h-1.2h-1.3H22l0,0v-0.1c0-0.1,0-0.2,0-0.3c0-0.5,0.1-0.9,0.2-1.3c0.1-0.6,0.3-1.2,0.5-1.8
					c0.3-0.1,0.5-0.2,0.8-0.3c0.4-0.1,0.8-0.2,1.2-0.3c0.5-0.1,0.9-0.1,1.4-0.2V34z M26.1,29.2c-0.5,0-0.9,0.1-1.4,0.1
					c-0.4,0.1-0.8,0.2-1.2,0.3c-0.2,0.1-0.4,0.1-0.5,0.2c0.2-0.4,0.3-0.7,0.5-1.1c0.4-0.8,0.9-1.4,1.2-1.9c0-0.1,0.1-0.1,0.1-0.2
					l0,0c0.4-0.1,0.8-0.2,1.2-0.2L26.1,29.2L26.1,29.2z M34.2,32.9c0.1,0.3,0.1,0.7,0.1,1.1h-1.5H32c0,0,0,0,0-0.1
					c0-1-0.2-1.9-0.4-2.8c0.3,0.1,0.5,0.3,0.7,0.4c0.1,0.1,0.3,0.2,0.4,0.3c0.5,0.4,1,0.7,1.3,1C34.1,32.8,34.1,32.9,34.2,32.9z
					 M30.1,27.2c0.5,0.2,0.9,0.5,1.3,0.8c0.5,0.4,1,0.9,1.4,1.4c0.6,0.8,1,1.6,1.2,2.6c-0.3-0.3-0.8-0.6-1.2-0.9s-0.9-0.5-1.4-0.8
					l0,0c-0.4-1-0.8-1.8-1.2-2.6c-0.2-0.3-0.4-0.6-0.5-0.8C29.7,27.1,29.9,27.2,30.1,27.2z M26.9,26.4c0.6,0,1.1,0.1,1.7,0.3h0.1
					c0.4,0.5,0.9,1.3,1.4,2.2c0.2,0.4,0.4,0.7,0.5,1.1c-0.2-0.1-0.4-0.1-0.5-0.2c-0.5-0.2-1-0.3-1.5-0.4s-1.1-0.2-1.7-0.2V26.4z
					 M26.9,29.7c0.6,0,1.1,0.1,1.7,0.2c0.5,0.1,1,0.3,1.5,0.5c0.3,0.1,0.6,0.2,0.8,0.3c0.2,0.5,0.3,1.1,0.4,1.7
					c0.1,0.5,0.1,0.9,0.1,1.4c0,0,0,0,0,0.1h-0.1H30h-1.5h-1.7v-4.2H26.9z M26.9,34.8h1.7h1.5h1.3h0.1c0,0.2,0,0.4-0.1,0.6
					c-0.1,1-0.4,1.9-0.8,2.7c-0.2,0.1-0.3,0.1-0.5,0.2c-0.5,0.2-1,0.3-1.5,0.5c-0.5,0.1-1.1,0.2-1.7,0.2V34.8z M28.5,41.4
					c-0.5,0.1-1.1,0.2-1.6,0.2v-2.2c0.6,0,1.1-0.1,1.7-0.2c0.5-0.1,1-0.3,1.5-0.4l0.2-0.1c0,0.1-0.1,0.2-0.2,0.3
					c-0.2,0.3-0.3,0.6-0.5,0.8C29.3,40.5,28.9,41,28.5,41.4L28.5,41.4z M32.8,38.6c-0.4,0.5-0.9,1-1.4,1.4c-0.4,0.3-0.8,0.6-1.3,0.8
					c-0.2,0.1-0.5,0.2-0.7,0.3c0.2-0.3,0.5-0.6,0.7-1c0.3-0.5,0.6-1.1,0.9-1.7c0.1-0.1,0.3-0.1,0.4-0.2c0.5-0.2,1-0.5,1.4-0.8
					c0.4-0.2,0.7-0.4,0.9-0.6C33.5,37.5,33.1,38,32.8,38.6z M34,36c-0.3,0.3-0.7,0.6-1.2,0.9c-0.1,0.1-0.2,0.1-0.3,0.2
					c-0.3,0.2-0.7,0.4-1.1,0.6h-0.1c0-0.1,0.1-0.1,0.1-0.2c0.3-0.8,0.5-1.8,0.6-2.7h0.8h1.5C34.2,35.2,34.1,35.6,34,36z"/>
				<path id="camera" fill="#000000" opacity=".2"  d="M52.8,40h-5c-0.2,0-0.4-0.1-0.5-0.2c-0.1-0.1-0.2-0.3-0.1-0.5l0.2-1.6
					c0.1-0.4,0.4-0.6,0.7-0.6h4.3c0.4,0,0.7,0.3,0.7,0.6l0.2,1.6c0,0.2,0,0.4-0.1,0.5C53.2,39.9,53,40,52.8,40z M48.1,37.7l-0.3,1.7
					l4.9-0.1l-0.3-1.6L48.1,37.7z M56.4,49.5H44.2c-0.4,0-0.7-0.3-0.7-0.7v-8c0-0.4,0.3-0.7,0.7-0.7h12.3c0.4,0,0.7,0.3,0.7,0.7v8
					C57.1,49.2,56.8,49.5,56.4,49.5z M56.4,48.9v0.3V48.9L56.4,48.9v-8H44.2v8H56.4z M50.3,48c-1.7,0-3.1-1.4-3.1-3.1
					c0-1.7,1.4-3.1,3.1-3.1c1.7,0,3.1,1.4,3.1,3.1C53.4,46.6,52,48,50.3,48z M50.3,42.2c-1.5,0-2.7,1.2-2.7,2.7s1.2,2.7,2.7,2.7
					s2.7-1.2,2.7-2.7S51.8,42.2,50.3,42.2z M52.5,45.2c0-0.7-0.3-1.3-0.8-1.8s-1.1-0.8-1.8-0.8c-0.2,0-0.3,0.1-0.3,0.3
					s0.1,0.3,0.3,0.3c0.5,0,1,0.2,1.4,0.6c0.4,0.4,0.6,0.9,0.6,1.4c0,0.2,0.1,0.3,0.3,0.3C52.4,45.4,52.5,45.3,52.5,45.2z"/>
			</g>
			<g id="message">
				<rect x="29.2" y="52.9" fill="#D1D3D4" width="3.2" height="0.3"/>
				<rect x="29.2" y="56.1" fill="#D1D3D4" width="3.1" height="0.3"/>
				<rect x="29.3" y="24.8" fill="#D1D3D4" width="3.1" height="0.3"/>
				<polygon opacity="0.22" enable-background="new    " points="30.3,1.1 26.6,4.7 26.6,9.1 26.6,9.1 26.6,70.5 47.5,70.5 
					47.5,1.1 				"/>
				<g>
					<polygon fill="#FFFFFF" points="30.6,0.8 27,4.4 27,70.5 47.8,70.5 47.9,0.8 					"/>
					<polygon fill="#D1D3D4" points="27,8.8 27,4.4 30.6,4.4 					"/>
					<polygon fill="#4ABFC6" points="30.6,4.4 27,4.4 30.6,0.8 					"/>
				</g>
				<rect x="30.5" y="5.4" fill="#2D4255" width="14.4" height="0.6"/>
				<rect x="30.5" y="7" fill="#D1D3D4" width="7.6" height="0.3"/>
				<rect x="36" y="13.1" fill="#D1D3D4" width="4.3" height="0.3"/>
				<rect x="36" y="13.8" fill="#D1D3D4" width="5" height="0.3"/>
				<rect x="36" y="15.8" fill="#D1D3D4" width="5" height="0.3"/>
				<rect x="36" y="16.6" fill="#D1D3D4" width="3" height="0.3"/>
				<rect x="39.5" y="16.6" fill="#D1D3D4" width="5.8" height="0.3"/>
				<rect x="41.6" y="15.8" fill="#D1D3D4" width="2.4" height="0.3"/>
				<rect x="44.5" y="15.8" fill="#D1D3D4" width="1.7" height="0.3"/>
				<rect x="36" y="14.5" fill="#D1D3D4" width="3" height="0.5"/>
				<rect x="40.4" y="13.1" fill="#D1D3D4" width="1.2" height="0.3"/>
				<rect x="42.1" y="13.1" fill="#D1D3D4" width="1.2" height="0.3"/>
				<rect x="29.3" y="38.7" fill="#A7A9AC" width="4.7" height="0.7"/>
				<rect x="29.3" y="40.3" fill="#D1D3D4" width="6.9" height="0.3"/>
				<rect x="29.3" y="41" fill="#D1D3D4" width="8.1" height="0.3"/>
				<rect x="29.3" y="43" fill="#D1D3D4" width="8.1" height="0.3"/>
				<rect x="29.3" y="43.8" fill="#D1D3D4" width="4.8" height="0.3"/>
				<rect x="35.5" y="43.8" fill="#D1D3D4" width="9.3" height="0.3"/>
				<rect x="38.9" y="43" fill="#D1D3D4" width="3.8" height="0.3"/>
				<rect x="43.4" y="43" fill="#D1D3D4" width="2.7" height="0.3"/>
				<rect x="29.3" y="41.7" fill="#D1D3D4" width="4.8" height="0.5"/>
				<rect x="37" y="40.3" fill="#D1D3D4" width="1.9" height="0.3"/>
				<rect x="39.6" y="40.3" fill="#D1D3D4" width="1.9" height="0.3"/>
				<rect x="29.3" y="19.3" fill="#D1D3D4" width="6.9" height="0.3"/>
				<rect x="29.3" y="19.9" fill="#D1D3D4" width="8.1" height="0.3"/>
				<rect x="29.3" y="21.9" fill="#D1D3D4" width="8.1" height="0.3"/>
				<rect x="33.3" y="52.9" fill="#D1D3D4" width="4.5" height="0.3"/>
				<rect x="38.7" y="52.9" fill="#D1D3D4" width="1.9" height="0.3"/>
				<rect x="41.5" y="52.9" fill="#D1D3D4" width="4.6" height="0.3"/>
				<rect x="29.2" y="54" fill="#D1D3D4" width="5.9" height="0.3"/>
				<rect x="35.4" y="54" fill="#D1D3D4" width="1.5" height="0.3"/>
				<rect x="37.5" y="54" fill="#D1D3D4" width="1.5" height="0.3"/>
				<rect x="29.2" y="55" fill="#D1D3D4" width="8.1" height="0.3"/>
				<rect x="38" y="55" fill="#D1D3D4" width="8.2" height="0.3"/>
				<rect x="33.1" y="56.1" fill="#D1D3D4" width="4.4" height="0.3"/>
				<rect x="29.2" y="57.2" fill="#D1D3D4" width="8.1" height="0.3"/>
				<rect x="31.4" y="66.6" fill="#D1D3D4" width="12.2" height="0.3"/>
				<rect x="29.3" y="22.7" fill="#D1D3D4" width="4.8" height="0.3"/>
				<rect x="29.3" y="23.8" fill="#D1D3D4" width="7.4" height="0.3"/>
				<rect x="37.1" y="23.8" fill="#D1D3D4" width="1.2" height="0.3"/>
				<rect x="39.6" y="23.8" fill="#D1D3D4" width="3.3" height="0.3"/>
				<rect x="33.2" y="24.8" fill="#D1D3D4" width="6.9" height="0.3"/>
				<rect x="41" y="24.8" fill="#D1D3D4" width="3.8" height="0.3"/>
				<rect x="29.3" y="25.9" fill="#D1D3D4" width="6.4" height="0.3"/>
				<rect x="36.7" y="25.9" fill="#D1D3D4" width="9.5" height="0.3"/>
				<rect x="29.3" y="26.9" fill="#D1D3D4" width="4.8" height="0.3"/>
				<rect x="34.7" y="26.9" fill="#D1D3D4" width="3.8" height="0.3"/>
				<rect x="39.3" y="26.9" fill="#D1D3D4" width="5.3" height="0.3"/>
				<rect x="29.3" y="28" fill="#D1D3D4" width="7.7" height="0.3"/>
				<rect x="35.5" y="22.7" fill="#D1D3D4" width="9.3" height="0.3"/>
				<rect x="38.9" y="21.9" fill="#D1D3D4" width="3.8" height="0.3"/>
				<rect x="43.4" y="21.9" fill="#D1D3D4" width="2.7" height="0.3"/>
				<rect x="29.3" y="20.6" fill="#D1D3D4" width="4.8" height="0.5"/>
				<rect x="37" y="19.3" fill="#D1D3D4" width="1.9" height="0.3"/>
				<rect x="39.6" y="19.3" fill="#D1D3D4" width="1.9" height="0.3"/>
				<rect x="30.5" y="7.8" fill="#D1D3D4" width="7.6" height="0.6"/>
				<rect x="29.4" y="9.9" fill="#A7A9AC" width="9.3" height="0.5"/>
				<rect x="29.4" y="10.9" fill="#A7A9AC" width="7.1" height="0.5"/>
				<rect x="39" y="9.9" fill="#A7A9AC" width="0.7" height="0.5"/>
				<rect x="40.3" y="9.9" fill="#A7A9AC" width="5.9" height="0.5"/>
				<rect x="29.2" y="12.7" fill="#F17046" width="5.3" height="5.3"/>
				<rect x="41.6" y="60" fill="#F17046" width="4.1" height="4.1"/>
				<rect x="35.4" y="60" fill="#F17046" width="4.1" height="4.1"/>
				<rect x="29.1" y="46.4" fill="#4ABFC6" width="17" height="5.2"/>
				<rect x="29.2" y="31.1" fill="#576877" width="16.9" height="6"/>
				<rect x="28.8" y="60" fill="#F17046" width="4.1" height="4.1"/>
				<rect x="30.4" y="65.3" fill="#D1D3D4" width="14.1" height="0.3"/>
			</g>
		</g>
	</g>
</g>
<g id="envelopeFront">
	<path fill="#BC9850" d="M38.9,67.9c-0.4,0.4-1.7,0.4-2,0l-1.6-1.6l-11,7.3c0.1,0.1,0.3,0.2,0.5,0.2H51c0.2,0,0.4-0.1,0.5-0.2
		l-11-7.3L38.9,67.9z"/>
	<path fill="#FACB6B" d="M24.8,56l-0.7-0.7c0,0-0.1,0.1-0.1,0.2c-0.1,0.1-0.1,0.2-0.1,0.4v17.3c0,0.2,0.1,0.4,0.2,0.5l11-7.3
		L24.8,56z"/>
	<path fill="#FACB6B" d="M51.7,55.4c0-0.1-0.1-0.1-0.1-0.2L50.8,56L40.5,66.3l11,7.3c0.1-0.1,0.2-0.3,0.2-0.5V55.8
		C51.8,55.7,51.7,55.5,51.7,55.4z"/>
</g>
</svg>
