<?xml version="1.0" encoding="utf-8"?>
<!-- Generator: Adobe Illustrator 18.1.1, SVG Export Plug-In . SVG Version: 6.00 Build 0)  -->
<!DOCTYPE svg PUBLIC "-//W3C//DTD SVG 1.1//EN" "http://www.w3.org/Graphics/SVG/1.1/DTD/svg11.dtd">
<svg version="1.1" id="monitoringIcon" xmlns="http://www.w3.org/2000/svg" xmlns:xlink="http://www.w3.org/1999/xlink" x="0px"
	 y="0px" width="75px" height="75px" viewBox="0 0 75 75" enable-background="new 0 0 75 75" xml:space="preserve">
<g id="gearAll" opacity="0.25">
	<path id="gearGray" d="M26.7,28.9l-2-1l-0.1-2.2l1.9-1.2l0,0c-0.2-0.8-0.5-1.7-0.9-2.4l0,0l-2.2,0.3L22,20.6l0.8-2.1l0,0
		c-0.3-0.3-0.7-0.5-1.1-0.8c-0.4-0.2-0.7-0.5-1.1-0.6l0,0L19,18.7l-2-0.6l-0.5-2.2l0,0c-0.9-0.1-1.7,0-2.6,0.1l0,0l-0.4,2.2l-2,0.8
		l-1.7-1.4l0,0c-0.7,0.4-1.4,1-2,1.5l0,0l1,2L7.6,23l-2.2-0.2l0,0c-0.3,0.8-0.6,1.6-0.7,2.5l0,0l2,1.1l0.1,2.2l-1.9,1.2l0,0
		c0.2,0.8,0.5,1.7,0.9,2.4l0,0L8,31.9l1.4,1.8l-0.8,2.1l0,0c0.3,0.3,0.7,0.6,1.1,0.8c0.3,0.2,0.7,0.4,1.1,0.6l0,0l1.6-1.5l2.1,0.6
		l0.5,2.2l0,0c0.9,0.1,1.7,0,2.6-0.1l0,0l0.4-2.2l2.1-0.8l1.7,1.4l0,0c0.7-0.4,1.4-1,2.1-1.6l0,0l-1-2l1.2-1.9l2.2,0.2l0,0
		C26.4,30.6,26.6,29.8,26.7,28.9L26.7,28.9z M20.5,27.1c0,2.7-2.2,4.9-4.9,4.9s-4.9-2.2-4.9-4.9s2.2-4.9,4.9-4.9
		C18.4,22.2,20.5,24.4,20.5,27.1z"/>
</g>
<g id="magnifyingGlass">
	<g id="handle">
		
			<rect x="25.1" y="39.6" transform="matrix(-0.7416 -0.6709 0.6709 -0.7416 16.29 92.3319)" fill="#444" width="1.6" height="6.9"/>
		<path fill="#2D4255" d="M11.3,55.8c-0.1,0.1,0,0.5,0.4,0.8l2.4,2.2c0.3,0.3,0.7,0.4,0.8,0.3l11.6-12.8c0.1-0.1,0-0.5-0.4-0.8
			l-2.4-2.2C23.4,43,23,42.9,22.9,43L11.3,55.8z"/>
	</g>
	<path id="glare" opacity="0.5" fill="#FFFFFF" enable-background="new    " d="M39.8,27.9c1.8,1.6,2.7,3.8,2.8,6l-16.4,3.2
		c-1.1-2.9-0.5-6.2,1.7-8.6C31,25,36.4,24.8,39.8,27.9z"/>
	<path id="circle" fill="#2D4255" d="M27,28c-3.5,3.8-3.2,9.8,0.7,13.3c3.8,3.5,9.8,3.2,13.3-0.7s3.2-9.8-0.7-13.3S30.5,24.1,27,28z
		 M28.5,29.4c2.7-3,7.3-3.2,10.3-0.5s3.2,7.3,0.5,10.3S32,42.4,29,39.7C26.1,37,25.8,32.4,28.5,29.4z"/>
</g>
<g id="heartbeatDot">
	<g>
		<circle fill="#E58553" cx="31.6" cy="35.8" r="1.4"/>
	</g>
</g>
<g id="heartbeat">
	<g id="heartbeatMask">
		<g>
			<defs>
				<rect id="newhbMask_1_" x="31" y="13.6" width="39.2" height="38"/>
			</defs>
			<clipPath id="newhbMask_2_">
				<use id="heartbeatMaskToUse" xlink:href="#newhbMask_1_"  overflow="visible"/>
			</clipPath>
			<g id="heartbeatLine" clip-path="url(#newhbMask_2_)">
				<path fill="#E58553" d="M42.5,45.9L42.5,45.9c-0.5,0-0.7-0.7-0.7-0.9l-3-13.3c0-0.2-0.1-0.3-0.1-0.3s-0.1,0.1-0.2,0.3l-2.8,4.5
					h-4.2v-0.8h3.7l2.5-4.2c0.4-0.6,0.8-0.7,1-0.6c0.2,0,0.6,0.2,0.7,0.9l3,13.1L48,23.4c0.1-0.2,0.2-0.8,0.7-0.8l0,0
					c0.5,0,0.6,0.7,0.6,0.9L52,38c0,0.3,0.1,0.3,0.2,0.3c0,0,0.1,0,0.3-0.2l2.4-2.8h15.6v0.8H55.2L53,38.7c-0.5,0.5-0.9,0.5-1.1,0.5
					c-0.2-0.1-0.6-0.3-0.7-1L48.8,24l-5.5,21C43.2,45.2,43,45.9,42.5,45.9z"/>
			</g>
		</g>
	</g>
</g>
</svg>
