<?xml version="1.0" encoding="utf-8"?>
<!-- Generator: Adobe Illustrator 18.1.1, SVG Export Plug-In . SVG Version: 6.00 Build 0)  -->
<!DOCTYPE svg PUBLIC "-//W3C//DTD SVG 1.1//EN" "http://www.w3.org/Graphics/SVG/1.1/DTD/svg11.dtd">
<svg version="1.1" id="seoTagIcon" xmlns="http://www.w3.org/2000/svg" xmlns:xlink="http://www.w3.org/1999/xlink" x="0px" y="0px"
	 width="75px" height="75px" viewBox="0 0 75 75" enable-background="new 0 0 75 75" xml:space="preserve">
<g id="starsAll">
	<g id="star6">
		<g>
			<path fill="#F1F2F2" d="M50.4,25.2c0,0-0.1,0-0.2,0L49.1,24c0,0,0-0.1,0-0.2c0,0,0.1,0,0.2,0l1.2,1.2
				C50.5,25.1,50.5,25.2,50.4,25.2z"/>
		</g>
		<g>
			<path fill="#F1F2F2" d="M52.4,27.2c0,0-0.1,0-0.2,0L51,26c0,0,0-0.1,0-0.2c0,0,0.1,0,0.2,0l1.2,1.2
				C52.4,27.1,52.4,27.1,52.4,27.2z"/>
		</g>
		<g>
			<path fill="#F1F2F2" d="M50.4,26l-1.2,1.2c0,0-0.1,0-0.2,0c0,0,0-0.1,0-0.2l1.2-1.2c0,0,0.1,0,0.2,0C50.5,25.9,50.5,25.9,50.4,26
				z"/>
		</g>
		<g>
			<path fill="#F1F2F2" d="M52.4,24l-1.2,1.2c0,0-0.1,0-0.2,0c0,0,0-0.1,0-0.2l1.2-1.2c0,0,0.1,0,0.2,0C52.4,23.9,52.4,24,52.4,24z"
				/>
		</g>
	</g>
	<g id="star5">
		<g>
			<path fill="#F1F2F2" d="M18.8,27c0,0-0.1,0-0.1,0L17.8,26c0,0,0-0.1,0-0.1c0,0,0.1,0,0.1,0l0.9,0.9C18.8,26.9,18.8,26.9,18.8,27z
				"/>
		</g>
		<g>
			<path fill="#F1F2F2" d="M20.3,28.5c0,0-0.1,0-0.1,0l-0.9-0.9c0,0,0-0.1,0-0.1c0,0,0.1,0,0.1,0l0.9,0.9
				C20.3,28.4,20.3,28.4,20.3,28.5z"/>
		</g>
		<g>
			<path fill="#F1F2F2" d="M18.8,27.6l-0.9,0.9c0,0-0.1,0-0.1,0c0,0,0-0.1,0-0.1l0.9-0.9c0,0,0.1,0,0.1,0
				C18.8,27.5,18.8,27.5,18.8,27.6z"/>
		</g>
		<g>
			<path fill="#F1F2F2" d="M20.3,26L19.4,27c0,0-0.1,0-0.1,0c0,0,0-0.1,0-0.1l0.9-0.9c0,0,0.1,0,0.1,0C20.3,26,20.3,26,20.3,26z"/>
		</g>
	</g>
	<g id="star4">
		<g>
			<path fill="#F1F2F2" d="M14.3,20.1c0,0-0.1,0-0.2,0l-1.3-1.3c0,0,0-0.1,0-0.2c0.1,0,0.1,0,0.2,0l1.3,1.3
				C14.3,20,14.3,20.1,14.3,20.1z"/>
		</g>
		<g>
			<path fill="#F1F2F2" d="M16.5,22.3c0,0-0.1,0-0.2,0L15,21c0,0,0-0.1,0-0.2c0,0,0.1,0,0.2,0l1.3,1.3
				C16.5,22.2,16.5,22.2,16.5,22.3z"/>
		</g>
		<g>
			<path fill="#F1F2F2" d="M14.3,21L13,22.3c0,0-0.1,0-0.2,0c0,0,0-0.1,0-0.2l1.3-1.3c0,0,0.1,0,0.2,0C14.3,20.8,14.3,20.9,14.3,21z
				"/>
		</g>
		<g>
			<path fill="#F1F2F2" d="M16.5,18.8l-1.3,1.3c0,0-0.1,0-0.2,0c0,0,0-0.1,0-0.2l1.3-1.3c0,0,0.1,0,0.2,0
				C16.5,18.7,16.5,18.7,16.5,18.8z"/>
		</g>
	</g>
	<g id="star3">
		<g>
			<path fill="#F1F2F2" d="M23.9,13.8c-0.1,0.1-0.2,0.1-0.2,0L22,12.1c-0.1-0.1-0.1-0.2,0-0.2c0.1-0.1,0.2-0.1,0.2,0l1.7,1.7
				C23.9,13.7,23.9,13.8,23.9,13.8z"/>
		</g>
		<g>
			<path fill="#F1F2F2" d="M26.6,16.6c-0.1,0.1-0.2,0.1-0.2,0l-1.7-1.7c-0.1-0.1-0.1-0.2,0-0.2c0.1-0.1,0.2-0.1,0.2,0l1.7,1.7
				C26.7,16.4,26.7,16.5,26.6,16.6z"/>
		</g>
		<g>
			<path fill="#F1F2F2" d="M23.9,14.9l-1.7,1.7c-0.1,0.1-0.1,0.1-0.2,0c-0.1-0.1-0.1-0.2,0-0.2l1.7-1.7c0.1-0.1,0.2-0.1,0.2,0
				C23.9,14.8,23.9,14.9,23.9,14.9z"/>
		</g>
		<g>
			<path fill="#F1F2F2" d="M26.6,12.1l-1.7,1.7c-0.1,0.1-0.2,0.1-0.2,0c-0.1-0.1-0.1-0.2,0-0.2l1.7-1.7c0.1-0.1,0.2-0.1,0.2,0
				C26.7,12,26.7,12.1,26.6,12.1z"/>
		</g>
	</g>
	<g id="star2">
		<g>
			<path fill="#F1F2F2" d="M46.1,18.2c-0.1,0.1-0.2,0.1-0.2,0l-1.7-1.7c-0.1-0.1-0.1-0.2,0-0.2c0.1-0.1,0.2-0.1,0.2,0l1.7,1.7
				C46.2,18,46.2,18.1,46.1,18.2z"/>
		</g>
		<g>
			<path fill="#F1F2F2" d="M48.9,21c-0.1,0.1-0.2,0.1-0.2,0L47,19.3c-0.1-0.1-0.1-0.2,0-0.2c0.1-0.1,0.2-0.1,0.2,0l1.7,1.7
				C49,20.8,49,20.9,48.9,21z"/>
		</g>
		<g>
			<path fill="#F1F2F2" d="M46.1,19.3L44.4,21c-0.1,0.1-0.1,0.1-0.2,0c-0.1-0.1-0.1-0.2,0-0.2l1.7-1.7c0.1-0.1,0.2-0.1,0.2,0
				C46.2,19.1,46.2,19.2,46.1,19.3z"/>
		</g>
		<g>
			<path fill="#F1F2F2" d="M48.9,16.5l-1.7,1.7c-0.1,0.1-0.2,0.1-0.2,0c-0.1-0.1-0.1-0.2,0-0.2l1.7-1.7c0.1-0.1,0.2-0.1,0.2,0
				C49,16.3,49,16.4,48.9,16.5z"/>
		</g>
	</g>
	<g id="star1">
		<g>
			<path fill="#F1F2F2" d="M55.8,16.7c-0.1,0.1-0.2,0.1-0.3,0l-2.1-2.1c-0.1-0.1-0.1-0.2,0-0.3c0.1-0.1,0.2-0.1,0.3,0l2.1,2.1
				C55.9,16.5,55.9,16.6,55.8,16.7z"/>
		</g>
		<g>
			<path fill="#F1F2F2" d="M59.3,20.2c-0.1,0.1-0.2,0.1-0.3,0l-2.1-2.1c-0.1-0.1-0.1-0.2,0-0.3c0.1-0.1,0.2-0.1,0.3,0l2.1,2.1
				C59.4,20,59.4,20.1,59.3,20.2z"/>
		</g>
		<g>
			<path fill="#F1F2F2" d="M55.8,18.1l-2.1,2.1c-0.1,0.1-0.2,0.1-0.3,0c-0.1-0.1-0.1-0.2,0-0.3l2.1-2.1c0.1-0.1,0.2-0.1,0.3,0
				C55.9,17.9,55.9,18,55.8,18.1z"/>
		</g>
		<g>
			<path fill="#F1F2F2" d="M59.3,14.6l-2.1,2.1c-0.1,0.1-0.2,0.1-0.3,0c-0.1-0.1-0.1-0.2,0-0.3l2.1-2.1c0.1-0.1,0.2-0.1,0.3,0
				C59.4,14.4,59.4,14.5,59.3,14.6z"/>
		</g>
	</g>
</g>
<g>
	<g id="tagBg">
		<path id="tagTop" fill="#EA9D75" d="M61.8,44.4c0.5-0.5,0.5-1.4,0-2L39.2,19.8c-0.5-0.5-1.6-0.9-2.3-0.8L26.6,20l29.8,29.8
			L61.8,44.4z"/>
		<path id="tagBottom" fill="#E58553" d="M26.6,20l-2.7,0.3c-0.8,0.1-1.4,0.8-1.5,1.5L21,34.7c-0.1,0.8,0.3,1.8,0.8,2.3l22.7,22.7
			c0.5,0.5,1.4,0.5,2,0l9.9-9.9L26.6,20z M28,25.9c-0.8,0.8-2,0.8-2.7,0c-0.8-0.8-0.8-2,0-2.7c0.8-0.8,2-0.8,2.7,0
			C28.8,23.9,28.8,25.2,28,25.9z"/>
	</g>
	<g>
		<path id="letterS" fill="#FFFFFF" d="M38.3,32.4c0.1-0.6-0.1-1.5-0.8-2.2c-0.9-0.9-1.7-0.9-2.1-0.5c-0.5,0.5-0.1,1.3,0.6,2.2
			c1.1,1.5,2,3,0.5,4.5c-1.4,1.4-3.2,0.8-4.6-0.6c-1.3-1.3-1.9-2.7-1.2-4.3l1.5,0.5c-0.4,1,0,2,0.8,2.8c0.7,0.7,1.7,1.2,2.4,0.5
			c0.6-0.6,0.2-1.5-0.5-2.4c-1.1-1.4-2-3-0.6-4.4c1.3-1.3,3.1-0.5,4.3,0.6c1,1,1.7,2.3,1.2,3.7L38.3,32.4z"/>
		<path id="letterE" fill="#FFFFFF" d="M40.3,43.9l-4.7-4.7c2.1-2.1,4.2-4.2,6.3-6.3l4.7,4.7l-1.1,1.1l-3.5-3.5l-1.4,1.4l3.4,3.4
			l-1.1,1.1l-3.4-3.4l-1.4,1.4l3.5,3.5L40.3,43.9z"/>
		<path id="letterO" fill="#FFFFFF" d="M50.4,47.9c-1.6,1.6-4.3,2.2-6.5,0c-2.2-2.2-1.6-4.8,0-6.5c1.6-1.6,4.4-2.2,6.5-0.1
			C52.7,43.5,52.1,46.3,50.4,47.9z M45.1,42.6c-1,1.1-1.5,2.7-0.1,4.2c1.5,1.5,3.1,0.9,4.2-0.1c1.1-1,1.7-2.8,0.2-4.3
			C48,41,46.2,41.6,45.1,42.6z"/>
	</g>
</g>

</svg>
