<?xml version="1.0" encoding="utf-8"?>
<!-- Generator: Adobe Illustrator 18.1.1, SVG Export Plug-In . SVG Version: 6.00 Build 0)  -->
<!DOCTYPE svg PUBLIC "-//W3C//DTD SVG 1.1//EN" "http://www.w3.org/Graphics/SVG/1.1/DTD/svg11.dtd">
<svg version="1.1" id="targetingIcon" xmlns="http://www.w3.org/2000/svg" xmlns:xlink="http://www.w3.org/1999/xlink" x="0px"
	 y="0px" width="75px" height="75px" viewBox="0 0 75 75" enable-background="new 0 0 75 75" xml:space="preserve">
<g id="ring5">
	<circle opacity="0.3" fill="#7C7C7C" cx="36.5" cy="38.6" r="15.7"/>
	<circle fill="#939598" cx="37" cy="37.8" r="15.7"/>
	<circle fill="#FFFFFF" cx="37.6" cy="37.3" r="15.7"/>
</g>
<circle id="ring4" fill="#4E5659" cx="37.6" cy="37.3" r="12.3"/>
<circle id="ring3" fill="#FFFFFF" cx="37.6" cy="37.3" r="9.1"/>
<path id="ring2" fill="#4E5659" d="M43.8,37.3c0,3.4-2.8,6.1-6.2,6.1c-3.4,0-6.2-2.8-6.2-6.1c0-3.4,2.8-6.2,6.2-6.2
	C41,31.1,43.8,33.9,43.8,37.3z"/>
<circle id="ring1" fill="#FFFFFF" cx="37.6" cy="37.3" r="2.4"/>
<g id="arrows">
	<path id="arrow0" fill="#333" d="M37.7,8.7l-0.3,0l0,0.3l-1.1-0.6v0.3l1.1,0.6l0,0.3L36.3,9v0.3l1.1,0.6l0,0.3l-1.1-0.6l0,0.3
		l1.1,0.6c0,0,0,0,0,0l0,7.6c-0.3-0.2-0.7-0.3-1.1-0.3c0.5,0.4,1,0.9,1.2,1.5c0.2-0.6,0.7-1.1,1.2-1.5c-0.3,0-0.8,0.1-1.1,0.3l0-7.6
		c0,0,0,0,0,0l1.1-0.6l0-0.3l-1.1,0.6l0-0.3l1.1-0.6l0-0.3l-1.1,0.6l0-0.3l1.1-0.6l0-0.3L37.7,9V8.7z"/>
	<path id="arrow1" fill="#333" d="M52.2,12.6l-0.2-0.1l-0.2,0.3l-0.6-1.1L51,11.9l0.6,1.1l-0.2,0.3l-0.6-1.1l-0.2,0.3l0.6,1.1
		l-0.2,0.3l-0.6-1.1l-0.2,0.3L51,14c0,0,0,0,0,0l-3.8,6.6c-0.2-0.3-0.5-0.6-0.8-0.8c0.2,0.6,0.4,1.2,0.3,1.9
		c0.5-0.4,1.1-0.6,1.8-0.7c-0.3-0.1-0.7-0.3-1.1-0.3l3.8-6.6c0,0,0,0,0,0l1.3,0l0.2-0.3l-1.3,0l0.2-0.3l1.3,0l0.2-0.3l-1.3,0
		l0.1-0.3l1.3,0l0.1-0.3l-1.3,0L52.2,12.6z"/>
	<path id="arrow2" fill="#333" d="M62.6,23.2L62.5,23l-0.3,0.2l0-1.3L61.9,22l0,1.3l-0.3,0.2l0-1.3l-0.3,0.2l0,1.3l-0.3,0.1
		l0-1.3l-0.3,0.2l0,1.3c0,0,0,0,0,0l-6.6,3.8c0-0.4-0.1-0.8-0.3-1.1c-0.1,0.6-0.3,1.3-0.7,1.8c0.6-0.1,1.3,0.1,1.9,0.3
		c-0.2-0.3-0.5-0.6-0.8-0.8l6.6-3.8c0,0,0,0,0,0l1.1,0.6l0.3-0.1L61.3,24l0.3-0.1l1.1,0.6l0.3-0.1l-1.1-0.6l0.3-0.1l1.1,0.6l0.3-0.2
		l-1.1-0.6L62.6,23.2z"/>
	<path id="arrow3" fill="#333" d="M66.3,37.6l0-0.3l-0.3,0l0.6-1.1l-0.3,0l-0.6,1.1l-0.3,0l0.6-1.1h-0.3l-0.6,1.1h-0.3
		l0.6-1.1l-0.3,0l-0.6,1.1c0,0,0,0,0,0l-7.6,0c0.2-0.3,0.3-0.7,0.3-1.1c-0.4,0.5-0.9,1-1.5,1.2c0.6,0.2,1.1,0.7,1.5,1.2
		c0-0.3-0.1-0.8-0.3-1.1l7.6,0c0,0,0,0,0,0l0.6,1.1l0.3,0l-0.6-1.1l0.3,0l0.6,1.1l0.3,0l-0.6-1.1l0.3,0l0.6,1.1l0.3,0L66,37.6
		L66.3,37.6z"/>
	<path id="arrow4" fill="#333" d="M62.4,52.1l0.1-0.2l-0.3-0.2l1.1-0.6l-0.3-0.2L62,51.6l-0.3-0.1l1.1-0.6l-0.3-0.2l-1.1,0.6
		l-0.3-0.2l1.1-0.6l-0.3-0.2L61,51c0,0,0,0,0,0l-6.6-3.8c0.3-0.2,0.6-0.5,0.8-0.8c-0.6,0.3-1.2,0.4-1.9,0.3c0.4,0.5,0.6,1.1,0.7,1.8
		c0.1-0.3,0.3-0.7,0.3-1.1l6.6,3.8c0,0,0,0,0,0l0,1.3l0.3,0.2l0-1.3l0.3,0.2v1.3l0.3,0.2l0-1.3l0.3,0.2l0,1.3l0.3,0.1v-1.3
		L62.4,52.1z"/>
	<path id="arrow5" fill="#333" d="M51.9,62.6l0.2-0.1l-0.2-0.3l1.3,0l-0.2-0.3l-1.3,0l-0.2-0.3l1.3,0l-0.2-0.3h-1.3l-0.1-0.3
		l1.3,0l-0.2-0.3l-1.3,0c0,0,0,0,0,0l-3.8-6.6c0.4,0,0.8-0.1,1.1-0.3c-0.6-0.1-1.3-0.3-1.8-0.7c0.1,0.6-0.1,1.3-0.3,1.9
		c0.3-0.2,0.6-0.5,0.8-0.8l3.8,6.6c0,0,0,0,0,0l-0.6,1.1l0.1,0.3l0.6-1.1l0.1,0.3l-0.6,1.1l0.1,0.3l0.6-1.1l0.2,0.3l-0.6,1.1
		l0.2,0.3l0.6-1.1L51.9,62.6z"/>
	<path id="arrow6" fill="#333" d="M37.3,66.3l0.3,0l0-0.3l1.1,0.6v-0.3l-1.1-0.6l0-0.3l1.1,0.6v-0.3l-1.1-0.6v-0.3l1.1,0.6
		l0-0.3l-1.1-0.6c0,0,0,0,0,0l0-7.6c0.3,0.2,0.7,0.3,1.1,0.3c-0.5-0.4-1-0.9-1.2-1.5c-0.2,0.6-0.7,1.1-1.2,1.5
		c0.3,0,0.8-0.1,1.1-0.3l0,7.6c0,0,0,0,0,0l-1.1,0.6l0,0.3l1.1-0.6l0,0.3l-1.1,0.6l0,0.3l1.1-0.6v0.3l-1.1,0.6l0,0.3l1.1-0.6V66.3z"
		/>
	<path id="arrow7" fill="#333" d="M22.9,62.4l0.2,0.1l0.2-0.3l0.6,1.1l0.1-0.3L23.4,62l0.1-0.3l0.6,1.1l0.2-0.3l-0.6-1.1
		l0.2-0.3l0.6,1.1l0.2-0.3L24,61c0,0,0,0,0,0l3.8-6.6c0.2,0.3,0.5,0.6,0.8,0.8c-0.3-0.6-0.4-1.2-0.3-1.9c-0.5,0.4-1.1,0.6-1.8,0.7
		c0.3,0.1,0.7,0.3,1.1,0.3l-3.8,6.6c0,0,0,0,0,0l-1.3,0l-0.2,0.3l1.3,0l-0.2,0.3l-1.3,0l-0.2,0.3l1.3,0l-0.1,0.3l-1.3,0l-0.1,0.3
		l1.3,0L22.9,62.4z"/>
	<path id="arrow8" fill="#333" d="M12.4,51.8l0.1,0.2l0.3-0.2l0,1.3l0.3-0.1l0-1.3l0.3-0.2l0,1.3l0.3-0.2l0-1.3l0.3-0.1l0,1.3
		l0.3-0.2l0-1.3c0,0,0,0,0,0l6.6-3.8c0,0.4,0.1,0.8,0.3,1.1c0.1-0.6,0.3-1.3,0.7-1.8c-0.6,0.1-1.3-0.1-1.9-0.3
		c0.2,0.3,0.5,0.6,0.8,0.8L14,50.9c0,0,0,0,0,0l-1.1-0.6l-0.3,0.1l1.1,0.6l-0.3,0.1l-1.1-0.6l-0.3,0.1l1.1,0.6L13,51.5l-1.1-0.6
		L11.6,51l1.1,0.6L12.4,51.8z"/>
	<path id="arrow9" fill="#333" d="M8.7,37.3l0,0.3l0.3,0l-0.6,1.1h0.3l0.6-1.1l0.3,0L9,38.7l0.3,0l0.6-1.1l0.3,0l-0.6,1.1h0.3
		l0.6-1.1c0,0,0,0,0,0l7.6,0c-0.2,0.3-0.3,0.7-0.3,1.1c0.4-0.5,0.9-1,1.5-1.2c-0.6-0.2-1.1-0.7-1.5-1.2c0,0.3,0.1,0.8,0.3,1.1
		l-7.6,0c0,0,0,0,0,0l-0.6-1.1l-0.3,0l0.6,1.1l-0.3,0l-0.6-1.1l-0.3,0l0.6,1.1H9.3l-0.6-1.1l-0.3,0L9,37.3L8.7,37.3z"/>
	<path id="arrow10" fill="#333" d="M12.6,22.9l-0.1,0.2l0.3,0.2l-1.1,0.6l0.3,0.2l1.1-0.6l0.3,0.1l-1.1,0.6l0.3,0.2l1.1-0.6
		l0.3,0.2l-1.1,0.6l0.3,0.2L14,24c0,0,0,0,0,0l6.6,3.8c-0.3,0.2-0.6,0.5-0.8,0.8c0.6-0.2,1.2-0.4,1.9-0.3c-0.4-0.5-0.6-1.1-0.7-1.8
		c-0.1,0.3-0.3,0.7-0.3,1.1l-6.6-3.8c0,0,0,0,0,0l0-1.3l-0.3-0.2l0,1.3l-0.3-0.2l0-1.3L13.4,22l0,1.3l-0.3-0.1l0-1.3l-0.3-0.1l0,1.3
		L12.6,22.9z"/>
	<path id="arrow11" fill="#333" d="M23.2,12.4L23,12.5l0.2,0.3l-1.3,0l0.2,0.3l1.3,0l0.2,0.3l-1.3,0l0.2,0.3l1.3,0l0.1,0.3
		l-1.3,0l0.2,0.3l1.3,0c0,0,0,0,0,0l3.8,6.6c-0.4,0-0.8,0.1-1.1,0.3c0.6,0.1,1.3,0.3,1.8,0.7c-0.1-0.6,0.1-1.3,0.3-1.9
		c-0.3,0.2-0.6,0.5-0.8,0.8L24.1,14c0,0,0,0,0,0l0.6-1.1l-0.1-0.3l-0.6,1.1l-0.1-0.3l0.6-1.1l-0.1-0.3l-0.6,1.1l-0.1-0.3l0.6-1.1
		L24,11.6l-0.6,1.1L23.2,12.4z"/>
	<path id="arrow12" fill="#333" d="M23.2,12.4L23,12.5l0.2,0.3l-1.3,0l0.2,0.3l1.3,0l0.2,0.3l-1.3,0l0.2,0.3l1.3,0l0.1,0.3
		l-1.3,0l0.2,0.3l1.3,0c0,0,0,0,0,0l3.8,6.6c-0.4,0-0.8,0.1-1.1,0.3c0.6,0.1,1.3,0.3,1.8,0.7c-0.1-0.6,0.1-1.3,0.3-1.9
		c-0.3,0.2-0.6,0.5-0.8,0.8L24.1,14c0,0,0,0,0,0l0.6-1.1l-0.1-0.3l-0.6,1.1l-0.1-0.3l0.6-1.1l-0.1-0.3l-0.6,1.1l-0.1-0.3l0.6-1.1
		L24,11.6l-0.6,1.1L23.2,12.4z"/>
</g>
<path id="shadowLeft" opacity="0.3" fill="#7C7C7C" d="M37.5,53c-8.6,0-15.5-7-15.5-15.5c0-4.3,1.6-8.4,4.5-11.2
	c2.8-2.9,6.9-4.7,11.2-4.7L37.5,53z"/>
<g id="arrowMainAll">
	<path id="arrowMainShadow" opacity="0.3" fill="#7C7C7C" d="M57.3,31.4l-0.1-0.5l-0.6,0.2l0.5-2.4l-0.5,0.2l-0.5,2.4l-0.5,0.2
		l0.5-2.4l-0.5,0.2L55,31.6l-0.5,0.2l0.5-2.4l-0.5,0.2l-0.5,2.3c0,0,0,0,0,0l-13.7,4.3c0.2-0.6,0.1-1.5,0-2.1c-0.4,1.1-1,2.2-2,3
		c1.2,0.1,2.3,0.7,3.3,1.3c-0.2-0.6-0.6-1.3-1.1-1.7L54,32.4c0,0,0,0,0,0l1.8,1.6l0.5-0.2l-1.8-1.6l0.5-0.2l1.8,1.6l0.5-0.2
		l-1.8-1.6l0.5-0.2l1.8,1.6l0.5-0.2l-1.8-1.6L57.3,31.4z"/>
	<path id="arrowMain" fill="#F17046" d="M56.8,29.8l-0.2-0.5L56,29.6l0.3-2.4l-0.5,0.2l-0.3,2.4L55,30l0.3-2.4l-0.5,0.2l-0.3,2.4
		l-0.5,0.2l0.3-2.4l-0.5,0.2l-0.3,2.4c0,0,0,0,0,0L40.1,36c0.1-0.7,0-1.5-0.2-2.1c-0.3,1.2-0.8,2.3-1.7,3.2c1.2,0,2.4,0.5,3.4,1.1
		c-0.3-0.6-0.7-1.3-1.3-1.6l13.3-5.4c0,0,0,0,0,0l1.9,1.5l0.5-0.2l-1.9-1.5l0.5-0.2l1.9,1.5l0.5-0.2l-1.9-1.5l0.5-0.2l1.9,1.5
		l0.5-0.2L56.2,30L56.8,29.8z"/>
</g>

</svg>
