<svg xmlns="http://www.w3.org/2000/svg" xmlns:xlink="http://www.w3.org/1999/xlink" viewBox="0 0 236.7 71.19"><defs><style>.cls-1{fill:url(#未命名的渐变_37);}.cls-2{fill:url(#未命名的渐变_41);}.cls-3{fill:#fff;}</style><linearGradient id="未命名的渐变_37" x1="45.32" y1="55.3" x2="78.22" y2="54.15" gradientUnits="userSpaceOnUse"><stop offset="0" stop-color="#8f59fd"/><stop offset="0.22" stop-color="#7a84fd"/><stop offset="0.45" stop-color="#68a8fd"/><stop offset="0.66" stop-color="#5bc1fd"/><stop offset="0.85" stop-color="#54d1fd"/><stop offset="1" stop-color="#51d6fd"/></linearGradient><linearGradient id="未命名的渐变_41" x1="0.52" y1="28.69" x2="68.36" y2="40.66" gradientUnits="userSpaceOnUse"><stop offset="0" stop-color="#2af598"/><stop offset="0.07" stop-color="#26eda1"/><stop offset="0.61" stop-color="#0bb4e3"/><stop offset="0.86" stop-color="#009efd"/></linearGradient></defs><title>资源 2</title><g id="图层_2" data-name="图层 2"><g id="图层_1-2" data-name="图层 1"><circle class="cls-1" cx="61.77" cy="54.73" r="16.46"/><path class="cls-2" d="M44.66,68A21.65,21.65,0,0,1,69.45,34.48,34.72,34.72,0,1,0,44.66,68Z"/><path class="cls-3" d="M119.7,22.35l0,0a15.81,15.81,0,0,0-9-3h-1.11c-5.17,0-9.6,2.49-13.15,7.41l0,0A15.73,15.73,0,0,0,93.85,35v1.11c0,5,2.45,9.46,7.29,13.14l.07.05a17,17,0,0,0,8.37,2.54h1.11a15.63,15.63,0,0,0,11-4.77v13a.22.22,0,0,0,0,.08,2.29,2.29,0,0,0,2.36,2.29h.08a2.29,2.29,0,0,0,2.28-2.36V35.26C126.42,30.18,124.16,25.83,119.7,22.35Zm2,13.36c0,4-1.89,7.24-5.79,9.87a12.39,12.39,0,0,1-5.77,1.57c-4.4,0-7.77-2.1-10.3-6.42a12.07,12.07,0,0,1-1.25-5.25c0-4.12,2-7.38,6-10A12.15,12.15,0,0,1,110.25,24c4.33,0,7.66,2.1,10.19,6.42A12,12,0,0,1,121.69,35.71Z"/><path class="cls-3" d="M160.6,26.72c-3.56-4.92-8-7.41-13.15-7.41h-.89a15.76,15.76,0,0,0-11.22,4.76v-13a2.29,2.29,0,0,0-2.29-2.36H133A2.26,2.26,0,0,0,130.61,11a.22.22,0,0,0,0,.08V36.15a15.69,15.69,0,0,0,2.56,8.27l0,0c3.57,4.92,8,7.41,13.15,7.41h.78a16.6,16.6,0,0,0,8.48-2.43l.06,0c5-3.63,7.52-8.09,7.52-13.26V35a15.76,15.76,0,0,0-2.55-8.27Zm-2.15,8.87a12.39,12.39,0,0,1-1.57,5.77c-2.63,3.9-5.86,5.79-9.88,5.79a12.11,12.11,0,0,1-5.66-1.46c-4-2.6-6-5.86-6-10a12,12,0,0,1,1.25-5.25c2.52-4.32,5.86-6.42,10.19-6.42a11.66,11.66,0,0,1,11.67,11.55Z"/><path class="cls-3" d="M197.65,19.31h-.08a2.29,2.29,0,0,0-2.36,2.28v2.49a15.65,15.65,0,0,0-11-4.77h-.89a17,17,0,0,0-7.44,1.85l-.06,0c-5.61,3.55-8.46,8.28-8.46,14.06v.89a15.76,15.76,0,0,0,2.55,8.27l0,0c3.58,4.92,8,7.41,13.15,7.41h.78a16,16,0,0,0,11.34-4.76v2.29a2.29,2.29,0,0,0,2.28,2.36h.08a2.26,2.26,0,0,0,2.37-2.28V21.67A2.29,2.29,0,0,0,197.65,19.31Zm-2.44,16.28a12.39,12.39,0,0,1-1.57,5.77c-2.63,3.9-5.86,5.79-9.88,5.79a12.11,12.11,0,0,1-5.66-1.46c-4-2.6-6-5.86-6-10a12,12,0,0,1,1.26-5.25c2.52-4.32,5.86-6.42,10.19-6.42a11.66,11.66,0,0,1,11.67,11.55Z"/><path class="cls-3" d="M234.84,27.93s0,0,0,0c-3.41-5.7-8.18-8.58-14.19-8.58h-.78a17.07,17.07,0,0,0-7.67,2.08l-.07,0c-5.3,3.63-8,8.21-8,13.61v1.11a17.27,17.27,0,0,0,2.08,7.67l.05.08c3.63,5.3,8.2,8,13.6,8H221a17.51,17.51,0,0,0,7.66-2.07l.08-.05c5.3-3.63,8-8.21,8-13.61V35A15.78,15.78,0,0,0,234.84,27.93ZM232,35.48a11.68,11.68,0,0,1-1.57,5.77c-2.62,4-5.85,5.9-9.88,5.9a11.42,11.42,0,0,1-5.75-1.56c-4-2.58-5.92-5.85-5.92-10a12.34,12.34,0,0,1,1.05-4.71c2.54-4.6,6-6.84,10.51-6.84a11.59,11.59,0,0,1,6.16,1.87C230.2,28.53,232,31.66,232,35.48Z"/></g></g></svg>