<?xml version="1.0" encoding="UTF-8"?>
<svg width="26px" height="26px" viewBox="0 0 26 26" version="1.1" xmlns="http://www.w3.org/2000/svg" xmlns:xlink="http://www.w3.org/1999/xlink">
    <!-- Generator: Sketch 50.2 (55047) - http://www.bohemiancoding.com/sketch -->
    <title>Group</title>
    <desc>Created with Sketch.</desc>
    <defs></defs>
    <g id="Page-2" stroke="none" stroke-width="1" fill="none" fill-rule="evenodd">
        <g id="Group" fill-rule="nonzero">
            <circle id="Oval" fill="#F9A629" cx="13" cy="13" r="13"></circle>
            <path d="M16.9979094,13.5247151 C17.5287039,13.0895255 17.9091245,12.4990429 18.0854917,11.8365876 C18.5338302,10.1600029 17.6255832,8.4632184 16.0607374,8.04190795 L15.6066139,7.92070906 L16.2371803,5.57753044 C16.2719855,5.44211185 16.1905322,5.3040967 16.0549524,5.26876183 L15.2305881,5.04944955 C15.1657511,5.0308906 15.0961601,5.03907672 15.0374279,5.07217131 C14.9786957,5.10526591 14.9357398,5.16049814 14.9181974,5.22547651 L14.2876311,7.56865513 L12.9686482,7.2166012 L13.5963221,4.87053689 C13.6125854,4.80305665 13.6004557,4.73187604 13.5627538,4.67354858 C13.5250519,4.61522112 13.4650634,4.57482994 13.3967392,4.56176828 L12.5723749,4.342456 C12.4374487,4.30550236 12.2979216,4.38412353 12.2599842,4.51848296 L11.6294179,6.86454727 L8.9075695,6.13446822 C8.77264329,6.09751458 8.63311626,6.17613575 8.59517883,6.31049518 L8.37534836,7.12714487 C8.34142984,7.25394344 8.40878918,7.38585565 8.53154369,7.4330278 C9.43979065,7.76488191 9.77532137,8.5093894 9.57284593,9.25966827 L8.23361555,14.2721082 C8.1772804,14.6050114 7.98494278,14.8996419 7.70252643,15.085652 C7.42011008,15.2716621 7.07296396,15.3323561 6.74397485,15.2532422 C6.63243953,15.2331778 6.5208715,15.2882445 6.46918676,15.3888695 L6.09026844,16.1708909 C6.05863967,16.2380673 6.05880787,16.3158403 6.09072692,16.3828799 C6.12264598,16.4499195 6.18296514,16.4991882 6.2551413,16.5171735 L8.8583969,17.2126243 L8.23072305,19.5558029 C8.19591782,19.6912215 8.27737107,19.8292366 8.41295094,19.8645715 L9.23731521,20.0838838 C9.37224142,20.1208374 9.51176845,20.0422163 9.54970588,19.9078568 L10.1773797,17.5646782 L11.4992551,17.9167321 L10.8686887,20.2599108 C10.8338835,20.3953293 10.9153367,20.5333445 11.0509166,20.5686794 L11.8752809,20.7908773 C12.0102071,20.827831 12.1497341,20.7492098 12.1876716,20.6148504 L12.8182379,18.2687861 L13.9318528,18.5573549 C15.5562535,18.9462763 17.1895477,17.9495007 17.5821957,16.3296038 C17.8507837,15.3553006 17.633367,14.3115833 16.9979094,13.5247151 Z M12.4364271,9.1557835 L14.4611814,9.69540715 C14.9509488,9.81272367 15.3383182,10.1859676 15.4728712,10.6702056 C15.6074242,11.1544436 15.4679627,11.6733863 15.1086406,12.0255245 C14.7493186,12.3776627 14.2267453,12.5075187 13.7438399,12.3646685 L11.7190855,11.8250449 L12.4364271,9.1557835 Z M13.3591366,16.4219458 L10.6777833,15.7034095 L11.3951249,13.0283767 L14.0764781,13.7440274 C14.5662454,13.8613439 14.9536148,14.2345878 15.0881679,14.7188258 C15.2227209,15.2030638 15.0832594,15.7220065 14.7239373,16.0741447 C14.3646152,16.4262829 13.8420419,16.5561389 13.3591366,16.4132887 L13.3591366,16.4219458 Z" id="Shape" fill="#FFFFFF"></path>
        </g>
    </g>
</svg>