<svg xmlns="http://www.w3.org/2000/svg" viewBox="0 0 280.29 107.56"><defs><style>.cls-1{fill:#1083e0;}</style></defs><title>资源 1</title><g id="图层_2" data-name="图层 2"><g id="图层_1-2" data-name="图层 1"><path class="cls-1" d="M130.2,32.57h-5.7V18.86A2.85,2.85,0,0,1,127.35,16h22v5.7H130.2Z"/><rect class="cls-1" x="124.5" y="37.74" width="22.78" height="5.7"/><rect class="cls-1" x="124.5" y="53.53" width="22.78" height="5.7"/><rect class="cls-1" x="133.04" y="41.42" width="5.7" height="56.51"/><polygon class="cls-1" points="190.33 41.14 173.63 41.14 173.8 41.73 173.81 41.73 174.03 42.5 174.03 42.52 188.87 94.81 189.39 96.61 183.46 96.61 182.96 94.83 182.96 94.81 182.69 93.88 171.07 52.95 171.07 52.91 171.06 52.92 171.07 52.95 159.88 92.34 159.88 92.36 159.38 94.14 159.36 94.14 159.17 94.81 159.17 94.83 158.66 96.61 152.74 96.61 153.25 94.81 168.09 42.49 168.1 42.52 168.32 41.73 168.49 41.14 150.17 41.14 150.17 35.44 190.33 35.44 190.33 41.14"/><polygon class="cls-1" points="168.32 41.73 168.1 42.52 168.09 42.49 168.31 41.73 168.32 41.73"/><polygon class="cls-1" points="171.07 52.91 171.07 52.95 171.06 52.92 171.07 52.91"/><polygon class="cls-1" points="182.69 93.88 182.67 93.88 182.17 92.1 182.17 92.07 171.07 52.95 182.69 93.88"/><polygon class="cls-1" points="168.32 41.73 168.1 42.52 168.09 42.49 168.31 41.73 168.32 41.73"/><polygon class="cls-1" points="171.07 52.91 171.07 52.95 171.06 52.92 171.07 52.91"/><circle class="cls-1" cx="171.07" cy="92.62" r="3.99"/><rect class="cls-1" x="236.11" y="35.29" width="5.7" height="56.06"/><polygon class="cls-1" points="274.72 91.19 269.02 91.19 269.02 40.99 244.57 40.99 244.57 35.29 274.72 35.29 274.72 91.19"/><rect class="cls-1" x="229.56" y="90.81" width="50.73" height="5.7"/><rect class="cls-1" x="241.24" y="51.09" width="25.24" height="5.7"/><rect class="cls-1" x="241.24" y="63.49" width="25.24" height="5.7"/><rect class="cls-1" x="241.24" y="75.88" width="25.24" height="5.7"/><path class="cls-1" d="M228.33,16v5.7h-8.67v74.8H214V18.86A2.85,2.85,0,0,1,216.81,16Z"/><rect class="cls-1" x="252.07" y="16.01" width="5.7" height="16.56"/><rect class="cls-1" x="168.22" y="16.01" width="5.7" height="16.56"/><rect class="cls-1" x="236.59" y="20.29" width="36.67" height="5.7"/><g id="_编组_" data-name="&lt;编组&gt;"><path id="_路径_" data-name="&lt;路径&gt;" class="cls-1" d="M78.42,20.74A46,46,0,0,0,57.9,15.05V32.72A28.54,28.54,0,0,1,69.59,36Z"/><path id="_路径_2" data-name="&lt;路径&gt;" class="cls-1" d="M81.13,75.27a29,29,0,0,1-9.84,10.32,27.43,27.43,0,0,1-3.11,1.69A28.6,28.6,0,0,1,57.9,89.89v17.67a46,46,0,0,0,19.13-5c1-.53,2.09-1.1,3.09-1.71A46.6,46.6,0,0,0,94.56,87.1c.66-1,1.27-2,1.85-3a46,46,0,0,0,5.89-19.45H84.57A28.36,28.36,0,0,1,81.13,75.27Z"/><path id="_路径_3" data-name="&lt;路径&gt;" class="cls-1" d="M80.72,46.64a28.33,28.33,0,0,1,4,14.47h17.66a46.07,46.07,0,0,0-4.74-20.19c-.52-1.06-1.09-2.09-1.68-3.1A46.59,46.59,0,0,0,81.44,22.57L72.6,37.89A28.76,28.76,0,0,1,80.72,46.64Z"/><path id="_路径_4" data-name="&lt;路径&gt;" class="cls-1" d="M27.59,62.23V32.32h10V14.57h-10V0H9.84V14.57H0V32.32H9.84v29c0,.31,0,.61,0,.92h0a46.32,46.32,0,0,0,44.52,45.33V89.88A28.54,28.54,0,0,1,27.59,62.23Z"/></g></g></g></svg>