<svg xmlns="http://www.w3.org/2000/svg" viewBox="0 0 557.81 153.95"><defs><style>.cls-1{fill:#257ac0;}</style></defs><title>资源 1</title><g id="图层_2" data-name="图层 2"><g id="图层_1-2" data-name="图层 1"><g id="_编组_" data-name="&lt;编组&gt;"><g id="_编组_2" data-name="&lt;编组&gt;"><path id="_路径_" data-name="&lt;路径&gt;" class="cls-1" d="M112.25,29.69a65.83,65.83,0,0,0-29.38-8.14V46.84a40.87,40.87,0,0,1,16.74,4.73Z"/><path id="_路径_2" data-name="&lt;路径&gt;" class="cls-1" d="M116.12,107.73A41,41,0,0,1,102,122.51a40.7,40.7,0,0,1-19.17,6.15V154a65.75,65.75,0,0,0,27.38-7.1q2.27-1.14,4.43-2.44a66.93,66.93,0,0,0,20.67-19.74c.94-1.4,1.81-2.84,2.65-4.31a65.75,65.75,0,0,0,8.42-27.84H121.05A40.53,40.53,0,0,1,116.12,107.73Z"/><path id="_路径_3" data-name="&lt;路径&gt;" class="cls-1" d="M115.54,66.76a40.88,40.88,0,0,1,5.79,20.71H146.6a65.82,65.82,0,0,0-6.78-28.9c-.74-1.51-1.55-3-2.4-4.44A66.74,66.74,0,0,0,116.57,32.3L103.91,54.23A41.31,41.31,0,0,1,115.54,66.76Z"/><path id="_路径_4" data-name="&lt;路径&gt;" class="cls-1" d="M39.49,89.08V46.26H53.84V20.85H39.49V0H14.08V20.85H0V46.26H14.08V87.75c0,.44,0,.88,0,1.33h0A66.31,66.31,0,0,0,77.82,154v-25.3A40.86,40.86,0,0,1,39.49,89.08Z"/></g><g id="_编组_3" data-name="&lt;编组&gt;"><path id="_复合路径_" data-name="&lt;复合路径&gt;" class="cls-1" d="M238.34,65.05h-21.5v55.16h-10.6V65.05H184.42V55.7h53.92Z"/><path id="_复合路径_2" data-name="&lt;复合路径&gt;" class="cls-1" d="M246.13,55.7h10.29V67.23H246.13Zm0,16.83h10.29v47.68H246.13Z"/><path id="_复合路径_3" data-name="&lt;复合路径&gt;" class="cls-1" d="M266.39,84.37H311.9v7.79H266.39Z"/><path id="_复合路径_4" data-name="&lt;复合路径&gt;" class="cls-1" d="M317.82,55.7H329l19.32,48.62a18.83,18.83,0,0,1,.94,5.3h.31a22,22,0,0,1,1.25-5.61l18.7-48.31h11.53l-26.8,64.51h-9.67Z"/><path id="_复合路径_5" data-name="&lt;复合路径&gt;" class="cls-1" d="M432.2,120.21H421.92c-1.67-1.24-2.6-3.22-2.81-5.92q-5.3,6.85-16.83,6.86-16.51-.32-17.14-13.4.32-14,18.39-15.9,12.78-1.25,14.34-3.12.93-9-9.35-8.41-10.92-.61-12.16,8.1l-10-2.8q3.42-15,22.44-14.34Q428.47,71,428.15,90v18.08Q428.15,116.16,432.2,120.21Zm-14.33-19V96.84q-2.81,2.8-12.16,3.74-10.59.93-10,6.85-.32,5,8.1,5Q416.94,111.49,417.87,101.2Z"/><path id="_复合路径_6" data-name="&lt;复合路径&gt;" class="cls-1" d="M440,55.7h10.28v64.51H440Z"/><path id="_复合路径_7" data-name="&lt;复合路径&gt;" class="cls-1" d="M492.36,72.53h10v47.68h-10v-5q-4.37,5.61-13.4,5.92-18.09.3-17.46-17.77V72.53h10.29v29.92q-.32,10.9,8.72,10.6,10.92-.94,11.85-10.91Z"/><path id="_复合路径_8" data-name="&lt;复合路径&gt;" class="cls-1" d="M546.9,104.32l10.6,2.8q-4.37,14.66-22.13,14.34-22.75-.93-23.69-24.31.94-24.32,23.38-25.56,22.13.63,22.75,25.87v2.81H522.59q1.56,12.15,12.47,12.78Q544.72,113.35,546.9,104.32ZM535.06,80.94q-10.29.94-11.85,10.6h23.38Q545.35,81.25,535.06,80.94Z"/></g></g></g></g></svg>