<svg xmlns="http://www.w3.org/2000/svg" viewBox="0 0 64 44"><defs><style>.cls-1{fill:#f1361d;}.cls-2{fill:#ffdc42;}</style></defs><title>资源 2</title><g id="图层_2" data-name="图层 2"><g id="图层_1-2" data-name="图层 1"><path class="cls-1" d="M0,0H64V44H0Z"/><path class="cls-2" d="M36.24,16.16l-1.72,2,.08-2.68-2.48-1,2.56-.76.2-2.68,1.52,2.24,2.6-.64L37.36,14.8l1.4,2.28ZM29.6,8.56,27,9,28.8,7,27.6,4.6,30,5.72,32,3.84l-.32,2.68L34,7.76l-2.64.52L31,10.92ZM30.68,33,29,35.16V32.48l-2.52-.92,2.56-.84L29.2,28l1.6,2.16,2.6-.72L31.76,31.6l1.48,2.24Zm4.92-7.48-2.44,1.12,1.2-2.4-1.84-2,2.64.4,1.32-2.36L36.92,23l2.64.52L37.2,24.8l.32,2.68ZM17.08,23.64l-6.68,4.8,2.48-7.84L6.24,15.68l8.24-.08,2.6-7.8,2.64,7.8,8.24.08-6.64,4.88L23.8,28.4Z"/></g></g></svg>