<svg xmlns="http://www.w3.org/2000/svg" viewBox="0 0 64 44"><defs><style>.cls-1{fill:#fff;}.cls-2{fill:#d02f44;}.cls-3{fill:#46467f;}</style></defs><title>资源 2</title><g id="图层_2" data-name="图层 2"><g id="图层_1-2" data-name="图层 1"><path class="cls-1" d="M0,0H64V44H0Z"/><path class="cls-2" d="M0,0H64V2.92H0ZM0,5.88H64V8.8H0Zm0,5.84H64v2.92H0ZM0,17.6H64v2.92H0Zm0,5.88H64V26.4H0Zm0,5.84H64v2.92H0ZM0,35.2H64v2.92H0Zm0,5.88H64V44H0Z"/><path class="cls-3" d="M0,0H28V20.52H0Z"/><path class="cls-1" d="M4,4.12,3,4.88,3.4,3.64l-1-.8H3.64L4,1.6l.4,1.24H5.68l-1,.8L5,4.88Zm6.56,0-1,.76L10,3.64l-1-.8H10.2l.4-1.24L11,2.84h1.24l-1,.8.36,1.24Zm6.6,0-1,.76.36-1.24-1-.8H16.8l.4-1.24.4,1.24h1.24l-1,.8.36,1.24Zm6.56.12-1,.76.36-1.28-1-.8,1.24,0,.4-1.28.4,1.28,1.24,0-1,.8L24.76,5ZM6.6,7.56l-1,.76L6,7.08l-1-.8H6.2L6.6,5,7,6.28H8.24l-1,.8L7.6,8.32Zm7.4,0-1,.76.36-1.24-1-.8H13.6L14,5l.4,1.24h1.24l-1,.8L15,8.32Zm7.36,0-1,.76.36-1.24-1-.8H21L21.36,5l.4,1.24H23l-1,.8.36,1.24ZM4,11,3,11.8l.36-1.24-1-.8H3.64L4,8.52l.4,1.24H5.68l-1,.8L5,11.8Zm6.56,0-1,.72L10,10.52l-1-.8H10.2l.4-1.24L11,9.72h1.24l-1,.8.36,1.24Zm6.6,0-1,.76.36-1.24-1-.8H16.8l.4-1.24.4,1.24h1.24l-1,.8.36,1.24Zm6.56.08-1,.76.36-1.28-1-.8,1.24,0,.4-1.28.4,1.28,1.24,0-1,.8.36,1.28ZM4,17.92l-1,.76.36-1.24-1-.8H3.64L4,15.4l.4,1.24H5.68l-1,.8L5,18.68Zm6.56,0-1,.76L10,17.44l-1-.8H10.2l.4-1.24.4,1.24h1.24l-1,.8.36,1.24Zm6.6,0-1,.76.36-1.24-1-.8H16.8l.4-1.24.4,1.24h1.24l-1,.8.36,1.24Zm6.56.12-1,.76.36-1.28-1-.8,1.24,0,.4-1.28.4,1.28,1.24,0-1,.8.36,1.28ZM6.6,14.48l-1,.76L6,14l-1-.8H6.2L6.6,12,7,13.2H8.24l-1,.8.36,1.24Zm7.4,0-1,.76L13.36,14l-1-.8H13.6L14,12l.4,1.24h1.24l-1,.8L15,15.24Zm7.36,0-1,.76L20.72,14l-1-.8H21l.4-1.24.4,1.24H23L22,14l.36,1.24Z"/></g></g></svg>