<svg xmlns="http://www.w3.org/2000/svg" viewBox="0 0 64 44"><defs><style>.cls-1{fill:#f0371d;}.cls-2{fill:#fff;}</style></defs><title>资源 1</title><g id="图层_2" data-name="图层 2"><g id="图层_1-2" data-name="图层 1"><path class="cls-1" d="M0,0H64V44H0Z"/><path class="cls-2" d="M36.8,20.88c-2.88-1.8-3.6,1.48-3.6,0,0-3,3.24-5.44,7.2-5.44s7.2,2.44,7.2,5.44c-3.44,0-3.76,1.8-5.4,1.8C40.2,22.68,39.68,22.68,36.8,20.88Zm-2,6.44c.84-3.28-2.52-3-1.12-3.44,2.84-.92,6.16,1.4,7.4,5.2s-.08,7.6-3,8.56c-1-3.24-2.88-3-3.4-4.6C34.08,31.12,33.92,30.64,34.76,27.32Zm-6.68,0c3.4-.24,2-3.32,2.92-2.12,1.76,2.44.6,6.32-2.64,8.64s-7.28,2.28-9-.16c2.76-2,2-3.68,3.32-4.64C24.24,27.88,24.68,27.6,28.08,27.36ZM26,21c1.28,3.16,3.8.92,2.92,2.12-1.76,2.44-5.8,2.52-9,.16S15.44,17,17.2,14.6c2.76,2,4.12.76,5.44,1.72C24.28,17.48,24.68,17.8,26,21Zm5.4-4c-2.6,2.16.28,3.88-1.12,3.44-2.84-.92-4.16-4.76-3-8.56s4.56-6.12,7.4-5.2c-1,3.24.56,4.16,0,5.72C34.12,14.28,34,14.76,31.36,16.92Zm-.28-4.28.56.8,0-1,.92-.28-.92-.36v-1l-.56.72-.92-.32.52.8-.6.76Zm10.64,6.92.92-.28-.92-.36V18l-.6.76-.92-.32.52.8-.6.76,1-.24.56.8ZM38.2,31.4l.92-.28-.92-.36v-1l-.6.76-.92-.32.52.8-.6.76,1-.24.56.8Zm-12.28.2.92-.28L25.92,31V30l-.6.76-.92-.32.52.8-.6.76,1-.24.56.8ZM21.68,20l.92-.28-.92-.36v-1l-.6.76-.88-.36.52.8-.56.8,1-.24.56.8Z"/></g></g></svg>