<svg xmlns="http://www.w3.org/2000/svg" viewBox="0 0 64 44"><defs><style>.cls-1{fill:#eff0f4;}.cls-2{fill:#ce1126;}.cls-3{fill:#003f87;}</style></defs><title>资源 2</title><g id="图层_2" data-name="图层 2"><g id="图层_1-2" data-name="图层 1"><rect class="cls-1" width="64" height="44"/><path class="cls-2" d="M41.11,21.17a9.15,9.15,0,1,1-9.94-8.3A9.16,9.16,0,0,1,41.11,21.17Z"/><path class="cls-3" d="M24.17,17.26A4.57,4.57,0,1,0,32,22a4.57,4.57,0,1,1,7.81,4.74,9.14,9.14,0,1,1-15.62-9.49"/><path d="M12.56,14.62l1.18.8,5.13-7.64L17.69,7Zm1.83,1.23,1.18.8L20.71,9l-1.19-.8Zm1.83,1.24,1.19.8,5.13-7.63-1.19-.8Zm28,12.56,1.19.8,2.38-3.53-1.19-.81Zm-2.75,4.09,1.19.81L45,31l-1.19-.81Zm4.58-2.86,1.19.81,2.37-3.54-1.18-.8ZM43.29,35l1.19.8,2.38-3.53-1.19-.8Zm4.59-2.86,1.18.8,2.38-3.53-1.18-.81Zm-2.76,4.1,1.19.8,2.38-3.54-1.19-.8Zm3.31-19.57,1.18-.8L44.49,8.22l-1.2.8Zm-.92-5.33,1.18-.8L46.31,7l-1.18.8Zm2.75,4.1,1.18-.8-2.37-3.54-1.19.8Zm-6.42-1.63L45,13,42.66,9.45l-1.19.81Zm2.76,4.1,1.19-.8-2.38-3.54-1.18.8ZM21.35,34.55l1.19-.81-5.13-7.63-1.19.81ZM17.69,37l1.18-.8-5.13-7.64-1.18.81Zm-.92-5.33L18,30.88l-2.39-3.53-1.18.8Zm2.75,4.09,1.19-.8-2.38-3.53-1.19.8Z"/></g></g></svg>