<?xml version="1.0" encoding="utf-8"?>
<!-- Generator: Adobe Illustrator 22.0.0, SVG Export Plug-In . SVG Version: 6.00 Build 0)  -->
<svg version="1.1" id="图层_1" xmlns="http://www.w3.org/2000/svg" xmlns:xlink="http://www.w3.org/1999/xlink" x="0px" y="0px"
	 viewBox="0 0 88 88" style="enable-background:new 0 0 88 88;" xml:space="preserve">
<style type="text/css">
	.st0{fill:#D11925;}
	.st1{opacity:8.000000e-02;enable-background:new    ;}
	.st2{fill:#FFFFFF;}
	.st3{fill:#FFFFFF;enable-background:new    ;}
</style>
<title>BCD</title>
<circle class="st0" cx="44" cy="44" r="44"/>
<g class="st1">
	<path class="st2" d="M32.7,72.4h3.6v0.5l-3.1,4h3.3v0.5h-4v-0.5l3.1-4h-2.9L32.7,72.4z"/>
	<path class="st2" d="M37.2,72.4h2.2c0.5,0,0.8,0.1,1.1,0.3c0.3,0.2,0.4,0.5,0.4,0.9c0,0.3-0.1,0.5-0.2,0.7
		c-0.2,0.2-0.4,0.3-0.6,0.4c0.3,0.1,0.6,0.2,0.8,0.4s0.3,0.5,0.3,0.8c0,0.5-0.2,0.9-0.5,1.1s-0.7,0.3-1.2,0.3h-2.2L37.2,72.4
		L37.2,72.4z M37.8,72.9v1.7h1.5c0.3,0,0.6-0.1,0.8-0.2s0.3-0.4,0.3-0.7c0-0.3-0.1-0.5-0.3-0.6s-0.4-0.2-0.8-0.2
		C39.3,72.9,37.8,72.9,37.8,72.9z M37.8,75.1V77h1.6c0.3,0,0.6-0.1,0.8-0.2c0.2-0.2,0.4-0.4,0.4-0.7c0-0.3-0.1-0.6-0.3-0.7
		s-0.5-0.2-0.9-0.2h-1.6V75.1z"/>
	<path class="st2" d="M42.7,76.7c0.1,0.1,0.1,0.2,0.1,0.3s0,0.2-0.1,0.3c-0.1,0.1-0.2,0.1-0.3,0.1s-0.2,0-0.3-0.1S42,77.1,42,77
		s0-0.2,0.1-0.3c0.1-0.1,0.2-0.1,0.3-0.1C42.5,76.6,42.6,76.6,42.7,76.7z"/>
	<path class="st2" d="M47.4,72.7c0.4,0.3,0.6,0.7,0.7,1.2h-0.6c-0.1-0.4-0.2-0.6-0.5-0.8c-0.3-0.2-0.6-0.3-1-0.3
		c-0.6,0-1,0.2-1.3,0.6s-0.4,0.9-0.4,1.5s0.1,1.1,0.4,1.5C45,76.8,45.5,77,46,77c0.4,0,0.7-0.1,1-0.3c0.3-0.2,0.5-0.6,0.6-1h0.5
		c-0.1,0.6-0.4,1-0.8,1.4c-0.4,0.3-0.8,0.5-1.4,0.5c-0.8,0-1.4-0.3-1.8-0.8c-0.4-0.5-0.6-1.1-0.6-1.8c0-0.7,0.2-1.4,0.6-1.8
		c0.4-0.5,1-0.8,1.8-0.8C46.5,72.3,47,72.4,47.4,72.7z"/>
	<path class="st2" d="M52.9,73c0.4,0.5,0.6,1.1,0.6,1.9c0,0.7-0.2,1.4-0.6,1.8c-0.4,0.5-1,0.7-1.8,0.7c-0.7,0-1.3-0.2-1.8-0.7
		c-0.4-0.5-0.6-1.1-0.6-1.8c0-0.8,0.2-1.4,0.6-1.8c0.4-0.5,1-0.8,1.8-0.8C51.8,72.3,52.4,72.5,52.9,73z M49.7,73.4
		c-0.3,0.4-0.5,0.9-0.5,1.5s0.2,1.1,0.5,1.5s0.8,0.6,1.4,0.6c0.6,0,1-0.2,1.4-0.6c0.3-0.4,0.5-0.9,0.5-1.5s-0.2-1.1-0.5-1.5
		s-0.8-0.6-1.3-0.6C50.5,72.8,50.1,73,49.7,73.4z"/>
	<path class="st2" d="M54.3,72.4H55l1.9,4.3l0,0l1.9-4.3h0.7v5h-0.6v-4l0,0l-1.7,4h-0.5l-1.7-4l0,0v4h-0.6v-5H54.3z"/>
</g>
<path class="st3" d="M55.9,22.5c0-1.2-0.8-2.4-2.4-2.4c-1.7,0-20.7,19.8-21.1,20.3s-1,3.3,1.9,3.6c2.9,0.2,5.7,0,6.4,0
	s2.2-0.1,2.2,2.2s0,8.3,0,9.2c0,0.9-0.1,1.8,1,2.9c1.1,1.2,9.1,9.3,9.5,9.3c0.4,0.1,2,1.1,2-1C55.4,64.6,55.9,22.5,55.9,22.5z"/>
</svg>
