<svg id="图层_1" data-name="图层 1" xmlns="http://www.w3.org/2000/svg" viewBox="0 0 64 64"><defs><style>.cls-1{fill:#08856c;}.cls-2{fill:#fff;}</style></defs><title>ABC_CHAIN(2)</title><circle class="cls-1" cx="32" cy="32" r="32"/><path class="cls-2" d="M103,74.65a21.21,21.21,0,1,0,1,16.21A21.21,21.21,0,0,0,103,74.65ZM67.35,76.57c1.1-1.56,3.6-2.39,7-2.39a27,27,0,0,1,4.21.36,41.13,41.13,0,0,1,15,5.74,39.5,39.5,0,0,0-17.12-4.44h-.17c-4.58,0-7.7,1.16-8.59,3.19a3.1,3.1,0,0,0-.17,1.88c-.1-.2-.2-.4-.29-.6A3.82,3.82,0,0,1,67.35,76.57Zm33.13,14.71c-1.52,2.16-5.7,2.92-11.2,2a41.16,41.16,0,0,1-15-5.73A39.35,39.35,0,0,0,91.45,92h.16c4.58,0,7.71-1.16,8.6-3.19a3,3,0,0,0,.16-1.87c.11.19.2.39.3.59a3.86,3.86,0,0,1-.2,3.75Zm-29.72-8c.06-1.41,1.43-2.69,3.86-3.59a23.2,23.2,0,0,1,7.9-1.23,28.34,28.34,0,0,1,9.35,1.5,24.29,24.29,0,0,1,2.68,1.27l0,0c1.65,1,2.53,2.19,2.47,3.38,0,1.41-1.42,2.69-3.85,3.59-4.72,1.77-12.12,1.59-17.27-.28a23.85,23.85,0,0,1-2.66-1.25l0,0C71.59,85.62,70.72,84.45,70.76,83.25ZM85.3,89.57a23.56,23.56,0,0,0,8-1.23c2.5-.93,3.91-2.27,4-3.75a3.23,3.23,0,0,0-1-2.32c.25.2.52.39.76.59,1.36,1.22,2,2.47,1.71,3.6-.37,1.66-2.56,2.92-6,3.49a33.93,33.93,0,0,1-13.43-1,32.11,32.11,0,0,0,6,.6ZM74.55,79.48c-2.49.93-3.9,2.28-4,3.75a3.23,3.23,0,0,0,1,2.32c-.25-.2-.52-.39-.76-.59-1.37-1.22-2-2.47-1.72-3.6.38-1.66,2.56-2.92,6-3.49a33.79,33.79,0,0,1,13.44,1c-4.71-.92-10.21-.75-14,.66Zm14.09,11a25.63,25.63,0,0,0,4.1-.3c3.53-.57,5.78-1.91,6.18-3.66a3,3,0,0,0-.39-2.15c.21.23.42.47.61.7a3.62,3.62,0,0,1,.75,3.63c-.82,1.89-3.92,3-8.32,3h-.15A38.91,38.91,0,0,1,77,88.54a36.72,36.72,0,0,0,11.66,2ZM75.07,77.66c-3.53.58-5.79,1.91-6.18,3.67a3,3,0,0,0,.39,2.15c-.22-.24-.42-.47-.61-.71-1-1.32-1.23-2.56-.76-3.62.82-1.89,3.93-3,8.33-3h.15A38.78,38.78,0,0,1,90.8,79.3,34.76,34.76,0,0,0,75.07,77.66Zm14.13,16a26.19,26.19,0,0,0,4.24.36c3.54,0,6.15-.88,7.31-2.54a3.48,3.48,0,0,0,.61-1.58l.09.58A4.36,4.36,0,0,1,100,94.19c-2.47,2.2-7.79,2.36-13.89.4A39.26,39.26,0,0,1,71.4,85.93,40.57,40.57,0,0,0,89.2,93.66ZM78.6,74.19c-5.64-.91-9.95-.09-11.54,2.18A3.52,3.52,0,0,0,66.45,78c0-.2-.07-.39-.09-.59a4.37,4.37,0,0,1,1.42-3.71c1.32-1.17,3.44-1.77,6.07-1.77a26.11,26.11,0,0,1,7.84,1.37,39.16,39.16,0,0,1,14.73,8.66,40.67,40.67,0,0,0-17.81-7.73ZM86,95a26.77,26.77,0,0,0,8,1.42c2.72,0,4.91-.63,6.32-1.89a4.59,4.59,0,0,0,1-1.3l-.12.52a6,6,0,0,1-3.14,3.66c-3.7,1.88-9.84,1.1-16-2A34.07,34.07,0,0,1,68.7,83.53C72.29,88.16,78.93,92.71,86,95ZM81.8,72.88c-6.34-2-11.68-1.85-14.29.48a4.94,4.94,0,0,0-1,1.31c0-.18.07-.35.12-.52a5.92,5.92,0,0,1,3.14-3.66,10.73,10.73,0,0,1,4.86-1,25.43,25.43,0,0,1,11.13,3A34.09,34.09,0,0,1,99.13,84.34C95.52,79.69,88.89,75.16,81.8,72.88Zm.06,22.91a26,26,0,0,0,11.31,3.1,11.22,11.22,0,0,0,5.11-1.09,6.93,6.93,0,0,0,1.56-1.06c-.09.13-.18.25-.26.39a9.31,9.31,0,0,1-5.74,3.39c-5,1-11.2-.91-16.69-5.06s-9.23-9.75-10.44-14.94c2.09,5.53,7.88,11.58,15.16,15.26ZM86,72.08c-6.39-3.23-12.53-4-16.42-2A7.07,7.07,0,0,0,68,71.14c.08-.12.15-.25.24-.36A9.32,9.32,0,0,1,74,67.34a14.35,14.35,0,0,1,2.7-.25c4.4,0,9.45,1.89,14,5.31,5.5,4.15,9.23,9.76,10.44,14.95C99,81.81,93.23,75.75,86,72.07Zm-20.21,5c.06,6.17,4.21,13.6,11.06,18.77,4.64,3.49,9.8,5.41,14.33,5.41a14.45,14.45,0,0,0,2.78-.25,11.48,11.48,0,0,0,2.74-.92c-6.93,5.17-18,2.87-25.18-5.42A23.37,23.37,0,0,1,65.57,80.5a19.22,19.22,0,0,1,.18-3.39ZM102.06,90.7C102,84.54,97.85,77.14,91,72c-5.63-4.25-12-6.19-17.12-5.18a11.56,11.56,0,0,0-2.73.92A14.35,14.35,0,0,1,79.83,65c5.69,0,11.89,2.86,16.51,8.17s6.55,11.91,5.72,17.54Zm-24.9,12.72A20.61,20.61,0,0,1,64.42,77.19h0a21.13,21.13,0,0,1,1.66-3.62,17.33,17.33,0,0,0-1.09,7A24,24,0,0,0,71,95.08c4.72,5.45,11.1,8.37,16.94,8.37a16.69,16.69,0,0,0,3.66-.41,20.47,20.47,0,0,1-14.48.38ZM103.4,90.68a20.75,20.75,0,0,1-1.69,3.68c2.5-6.44.81-15-4.93-21.57s-13.88-9.52-20.59-8A20.62,20.62,0,0,1,103.4,90.67Z" transform="translate(-51.92 -51.92)"/><circle class="cls-2" cx="21.89" cy="35.17" r="1.66"/><path class="cls-2" d="M94,79.1a1.67,1.67,0,1,1-1.67,1.67h0A1.67,1.67,0,0,1,94,79.1Z" transform="translate(-51.92 -51.92)"/></svg>