<?xml version="1.0" encoding="utf-8"?>
<!-- Generator: Adobe Illustrator 22.1.0, SVG Export Plug-In . SVG Version: 6.00 Build 0)  -->
<svg version="1.1" id="图层_1" xmlns="http://www.w3.org/2000/svg" xmlns:xlink="http://www.w3.org/1999/xlink" x="0px" y="0px"
	 viewBox="0 0 88 88" style="enable-background:new 0 0 88 88;" xml:space="preserve">
<style type="text/css">
	.st0{fill:#6AC3CA;}
	.st1{fill:#FFFFFF;}
	.st2{opacity:0.1;enable-background:new    ;}
</style>
<title>ABT</title>
<g id="图层_2_1_">
	<g id="图层_1-2">
		<path class="st0" d="M0,44c0,24.3,19.7,44,44,44s44-19.7,44-44S68.3,0,44,0S0,19.7,0,44z"/>
		<path class="st1" d="M44.1,12.6l-28,15.6v32.4l28,14.9L71.9,60V28.2L44.1,12.6z M43.1,42.4l-4.9-2.8l4.9-8V42.4z M42.2,44.2
			l-10.7,6.2l5.6-9.1L42.2,44.2z M43.1,46.1v14.5l-12.5-7.3L43.1,46.1z M45.1,45.9l13.1,7.5l-13.1,7.3L45.1,45.9z M46.3,44.2l5-2.9
			l5.9,9.1L46.3,44.2z M45.1,42.6V31.7l5.1,7.9L45.1,42.6z M45.1,28V15.4l23.8,13.4l-17,9.8L45.1,28z M43.1,27.8l-6.7,10.8L19,28.8
			l24-13.4L43.1,27.8z M35.4,40.4l-7.5,12.2l-9.8,5.7V30.5L35.4,40.4z M28.6,54.4l14.5,8.5v9.7L19.1,59.9L28.6,54.4z M45.1,62.9
			l15.2-8.4l8.6,4.9L45.1,72.6V62.9z M61,52.6l-8-12.2l16.9-9.8v27.1L61,52.6z"/>
	</g>
</g>
<g class="st2">
	<path class="st1" d="M31.2,71.8h3.6v0.5l-3.1,4H35v0.5h-4v-0.5l3.1-4h-2.9C31.2,72.2,31.2,71.8,31.2,71.8z"/>
	<path class="st1" d="M35.7,71.8h2.2c0.5,0,0.8,0.1,1.1,0.3c0.3,0.2,0.4,0.5,0.4,0.9c0,0.3-0.1,0.5-0.2,0.7
		c-0.2,0.2-0.4,0.3-0.6,0.4c0.3,0.1,0.6,0.2,0.8,0.4s0.3,0.5,0.3,0.8c0,0.5-0.2,0.9-0.5,1.1s-0.7,0.3-1.2,0.3h-2.2L35.7,71.8
		L35.7,71.8z M36.3,72.2v1.7h1.5c0.3,0,0.6-0.1,0.8-0.2s0.3-0.4,0.3-0.7c0-0.3-0.1-0.5-0.3-0.6s-0.4-0.2-0.8-0.2
		C37.8,72.2,36.3,72.2,36.3,72.2z M36.3,74.5v1.9h1.6c0.3,0,0.6-0.1,0.8-0.2c0.2-0.2,0.4-0.4,0.4-0.7c0-0.3-0.1-0.6-0.3-0.7
		s-0.5-0.2-0.9-0.2h-1.6V74.5z"/>
	<path class="st1" d="M41.2,76.1c0.1,0.1,0.1,0.2,0.1,0.3s0,0.2-0.1,0.3c-0.1,0.1-0.2,0.1-0.3,0.1s-0.2,0-0.3-0.1s-0.1-0.2-0.1-0.3
		c0-0.1,0-0.2,0.1-0.3c0.1-0.1,0.2-0.1,0.3-0.1C41,76,41.1,76,41.2,76.1z"/>
	<path class="st1" d="M45.9,72.1c0.4,0.3,0.6,0.7,0.7,1.2H46c-0.1-0.4-0.2-0.6-0.5-0.8c-0.3-0.2-0.6-0.3-1-0.3c-0.6,0-1,0.2-1.3,0.6
		s-0.4,0.9-0.4,1.5s0.1,1.1,0.4,1.5c0.3,0.4,0.8,0.6,1.3,0.6c0.4,0,0.7-0.1,1-0.3c0.3-0.2,0.5-0.6,0.6-1h0.5c-0.1,0.6-0.4,1-0.8,1.4
		c-0.4,0.3-0.8,0.5-1.4,0.5c-0.8,0-1.4-0.3-1.8-0.8C42.2,75.6,42,75,42,74.3c0-0.7,0.2-1.4,0.6-1.8c0.4-0.5,1-0.8,1.8-0.8
		C45,71.7,45.5,71.8,45.9,72.1z"/>
	<path class="st1" d="M51.4,72.3c0.4,0.5,0.6,1.1,0.6,1.9c0,0.7-0.2,1.4-0.6,1.8c-0.4,0.5-1,0.7-1.8,0.7c-0.7,0-1.3-0.2-1.8-0.7
		c-0.4-0.5-0.6-1.1-0.6-1.8c0-0.8,0.2-1.4,0.6-1.8c0.4-0.5,1-0.8,1.8-0.8C50.3,71.7,50.9,71.8,51.4,72.3z M48.2,72.8
		c-0.3,0.4-0.5,0.9-0.5,1.5s0.2,1.1,0.5,1.5s0.8,0.6,1.4,0.6c0.6,0,1-0.2,1.4-0.6c0.3-0.4,0.5-0.9,0.5-1.5s-0.2-1.1-0.5-1.5
		s-0.8-0.6-1.3-0.6C49,72.2,48.6,72.3,48.2,72.8z"/>
	<path class="st1" d="M52.8,71.8h0.7l1.9,4.3l0,0l1.9-4.3H58v5h-0.6v-4l0,0l-1.7,4h-0.5l-1.7-4l0,0v4h-0.6v-5H52.8z"/>
</g>
</svg>
