<?xml version="1.0" encoding="utf-8"?>
<!-- Generator: Adobe Illustrator 22.1.0, SVG Export Plug-In . SVG Version: 6.00 Build 0)  -->
<svg version="1.1" id="图层_1" xmlns="http://www.w3.org/2000/svg" xmlns:xlink="http://www.w3.org/1999/xlink" x="0px" y="0px"
	 viewBox="0 0 64 64" style="enable-background:new 0 0 64 64;" xml:space="preserve">
<style type="text/css">
	.st0{fill:url(#SVGID_1_);}
	.st1{fill:#FFFFFF;}
</style>
<linearGradient id="SVGID_1_" gradientUnits="userSpaceOnUse" x1="0" y1="32" x2="64" y2="32">
	<stop  offset="0" style="stop-color:#E02737"/>
	<stop  offset="1" style="stop-color:#F5BF00"/>
</linearGradient>
<circle class="st0" cx="32" cy="32" r="32"/>
<g>
	<g>
		<g>
			<g>
				<path class="st1" d="M37.5,42.9H26.6v2.7h13.5L37.5,42.9z M37.5,42.9H26.6v2.7h13.5L37.5,42.9z M37.5,42.9H26.6v2.7h13.5
					L37.5,42.9z M20.5,42.9l-2.7,2.7h5.6v-2.7H20.5z M17.5,21.1v24.4l2.7-2.7V22.7L17.5,21.1z M17.7,20.9l2.7,1.6l17-6.2l2.7-3.8
					L17.7,20.9z M37.5,42.9H26.6v2.7h13.5L37.5,42.9z M37.5,42.9H26.6v2.7h13.5L37.5,42.9z"/>
			</g>
			<g>
				<polygon class="st1" points="40.4,12.7 40.4,45.5 37.7,42.7 37.7,16.5 				"/>
			</g>
		</g>
	</g>
	<g>
		<g>
			<g>
				<path class="st1" d="M40.7,23.3V26h2.9l2.7-2.7H40.7z M23.8,23.3l2.7,2.7h10.8v-2.7H23.8z M43.5,48.8h-17l-2.7,2.7h22.4
					L43.5,48.8z M43.8,26.2v22.4l2.7,2.7V23.5L43.8,26.2z"/>
				<polygon class="st1" points="26.3,26.2 26.3,48.6 23.6,51.3 23.6,23.5 				"/>
			</g>
		</g>
	</g>
</g>
</svg>
