<?xml version="1.0" encoding="utf-8"?>
<!-- Generator: Adobe Illustrator 22.1.0, SVG Export Plug-In . SVG Version: 6.00 Build 0)  -->
<svg version="1.1" id="图层_1" xmlns="http://www.w3.org/2000/svg" xmlns:xlink="http://www.w3.org/1999/xlink" x="0px" y="0px"
	 viewBox="0 0 227 227" style="enable-background:new 0 0 227 227;" xml:space="preserve">
<style type="text/css">
	.st0{fill:#0F00B8;}
	.st1{fill:#FFFFFF;}
	.st2{font-family:'PingFangHK-Medium-B5pc-H';}
	.st3{font-size:160px;}
	.st4{opacity:0.1;enable-background:new    ;}
</style>
<title>Group 2</title>
<desc>Created with Sketch.</desc>
<g id="Page-1">
	<g id="Group-2">
		<circle id="Oval-2" class="st0" cx="113" cy="113" r="113"/>
		<text transform="matrix(1 0 0 1 59 170)" class="st1 st2 st3">A</text>
	</g>
</g>
<g class="st4">
	<path class="st1" d="M85.5,184.2h7.6v1.1l-6.5,8.4h7v1.1h-8.4v-1.1l6.5-8.4h-6.1L85.5,184.2z"/>
	<path class="st1" d="M95,184.2h4.6c1.1,0,1.7,0.2,2.3,0.6c0.6,0.4,0.8,1.1,0.8,1.9c0,0.6-0.2,1.1-0.4,1.5c-0.4,0.4-0.8,0.6-1.3,0.8
		c0.6,0.2,1.3,0.4,1.7,0.8c0.4,0.4,0.6,1.1,0.6,1.7c0,1.1-0.4,1.9-1.1,2.3c-0.6,0.4-1.5,0.6-2.5,0.6h-4.6L95,184.2L95,184.2z
		 M96.2,185.2v3.6h3.2c0.6,0,1.3-0.2,1.7-0.4c0.4-0.2,0.6-0.8,0.6-1.5c0-0.6-0.2-1.1-0.6-1.3c-0.4-0.2-0.8-0.4-1.7-0.4
		C99.4,185.2,96.2,185.2,96.2,185.2z M96.2,189.9v4h3.4c0.6,0,1.3-0.2,1.7-0.4c0.4-0.4,0.8-0.8,0.8-1.5c0-0.6-0.2-1.3-0.6-1.5
		s-1.1-0.4-1.9-0.4h-3.4V189.9z"/>
	<path class="st1" d="M106.5,193.3c0.2,0.2,0.2,0.4,0.2,0.6c0,0.2,0,0.4-0.2,0.6c-0.2,0.2-0.4,0.2-0.6,0.2s-0.4,0-0.6-0.2
		c-0.2-0.2-0.2-0.4-0.2-0.6c0-0.2,0-0.4,0.2-0.6c0.2-0.2,0.4-0.2,0.6-0.2C106.1,193,106.3,193,106.5,193.3z"/>
	<path class="st1" d="M116.4,184.8c0.8,0.6,1.3,1.5,1.5,2.5h-1.3c-0.2-0.8-0.4-1.3-1.1-1.7s-1.3-0.6-2.1-0.6c-1.3,0-2.1,0.4-2.7,1.3
		c-0.6,0.8-0.8,1.9-0.8,3.2c0,1.3,0.2,2.3,0.8,3.2c0.6,0.8,1.7,1.3,2.7,1.3c0.8,0,1.5-0.2,2.1-0.6c0.6-0.4,1.1-1.3,1.3-2.1h1.1
		c-0.2,1.3-0.8,2.1-1.7,2.9c-0.8,0.6-1.7,1.1-2.9,1.1c-1.7,0-2.9-0.6-3.8-1.7c-0.8-1.1-1.3-2.3-1.3-3.8c0-1.5,0.4-2.9,1.3-3.8
		c0.8-1.1,2.1-1.7,3.8-1.7C114.6,184,115.6,184.2,116.4,184.8z"/>
	<path class="st1" d="M128,185.5c0.8,1.1,1.3,2.3,1.3,4c0,1.5-0.4,2.9-1.3,3.8c-0.8,1.1-2.1,1.5-3.8,1.5c-1.5,0-2.7-0.4-3.8-1.5
		c-0.8-1.1-1.3-2.3-1.3-3.8c0-1.7,0.4-2.9,1.3-3.8c0.8-1.1,2.1-1.7,3.8-1.7C125.7,184,127,184.4,128,185.5z M121.3,186.3
		c-0.6,0.8-1.1,1.9-1.1,3.2c0,1.3,0.4,2.3,1.1,3.2c0.6,0.8,1.7,1.3,2.9,1.3c1.3,0,2.1-0.4,2.9-1.3c0.6-0.8,1.1-1.9,1.1-3.2
		c0-1.3-0.4-2.3-1.1-3.2c-0.6-0.8-1.7-1.3-2.7-1.3C123,185,122.1,185.5,121.3,186.3z"/>
	<path class="st1" d="M131,184.2h1.5l4,9.1l0,0l4-9.1h1.5v10.5h-1.3v-8.4l0,0l-3.6,8.4H136l-3.6-8.4l0,0v8.4h-1.3v-10.5H131z"/>
</g>
</svg>
