<?xml version="1.0" encoding="utf-8"?>
<!-- Generator: Adobe Illustrator 22.0.0, SVG Export Plug-In . SVG Version: 6.00 Build 0)  -->
<svg version="1.1" id="图层_1" xmlns="http://www.w3.org/2000/svg" xmlns:xlink="http://www.w3.org/1999/xlink" x="0px" y="0px"
	 viewBox="0 0 88 88" style="enable-background:new 0 0 88 88;" xml:space="preserve">
<style type="text/css">
	.st0{fill:#F7296E;}
	.st1{opacity:0.1;enable-background:new    ;}
	.st2{fill:#FFFFFF;}
</style>
<title>BCD</title>
<circle class="st0" cx="43.9" cy="44" r="44"/>
<g class="st1">
	<path class="st2" d="M30.7,69.8h3.6v0.5l-3.1,4h3.3v0.5h-4v-0.5l3.1-4h-2.9C30.7,70.3,30.7,69.8,30.7,69.8z"/>
	<path class="st2" d="M35.2,69.8h2.2c0.5,0,0.8,0.1,1.1,0.3c0.3,0.2,0.4,0.5,0.4,0.9c0,0.3-0.1,0.5-0.2,0.7
		c-0.2,0.2-0.4,0.3-0.6,0.4c0.3,0.1,0.6,0.2,0.8,0.4s0.3,0.5,0.3,0.8c0,0.5-0.2,0.9-0.5,1.1s-0.7,0.3-1.2,0.3h-2.2L35.2,69.8
		L35.2,69.8z M35.8,70.3V72h1.5c0.3,0,0.6-0.1,0.8-0.2s0.3-0.4,0.3-0.7c0-0.3-0.1-0.5-0.3-0.6s-0.4-0.2-0.8-0.2
		C37.3,70.3,35.8,70.3,35.8,70.3z M35.8,72.5v1.9h1.6c0.3,0,0.6-0.1,0.8-0.2c0.2-0.2,0.4-0.4,0.4-0.7c0-0.3-0.1-0.6-0.3-0.7
		s-0.5-0.2-0.9-0.2h-1.6V72.5z"/>
	<path class="st2" d="M40.7,74.1c0.1,0.1,0.1,0.2,0.1,0.3s0,0.2-0.1,0.3c-0.1,0.1-0.2,0.1-0.3,0.1s-0.2,0-0.3-0.1S40,74.5,40,74.4
		s0-0.2,0.1-0.3c0.1-0.1,0.2-0.1,0.3-0.1C40.5,74,40.6,74,40.7,74.1z"/>
	<path class="st2" d="M45.4,70.1c0.4,0.3,0.6,0.7,0.7,1.2h-0.6c-0.1-0.4-0.2-0.6-0.5-0.8c-0.3-0.2-0.6-0.3-1-0.3
		c-0.6,0-1,0.2-1.3,0.6s-0.4,0.9-0.4,1.5s0.1,1.1,0.4,1.5c0.3,0.4,0.8,0.6,1.3,0.6c0.4,0,0.7-0.1,1-0.3c0.3-0.2,0.5-0.6,0.6-1h0.5
		c-0.1,0.6-0.4,1-0.8,1.4c-0.4,0.3-0.8,0.5-1.4,0.5c-0.8,0-1.4-0.3-1.8-0.8c-0.4-0.5-0.6-1.1-0.6-1.8c0-0.7,0.2-1.4,0.6-1.8
		c0.4-0.5,1-0.8,1.8-0.8C44.5,69.7,45,69.8,45.4,70.1z"/>
	<path class="st2" d="M50.9,70.4c0.4,0.5,0.6,1.1,0.6,1.9c0,0.7-0.2,1.4-0.6,1.8c-0.4,0.5-1,0.7-1.8,0.7c-0.7,0-1.3-0.2-1.8-0.7
		c-0.4-0.5-0.6-1.1-0.6-1.8c0-0.8,0.2-1.4,0.6-1.8c0.4-0.5,1-0.8,1.8-0.8C49.8,69.7,50.4,69.9,50.9,70.4z M47.7,70.8
		c-0.3,0.4-0.5,0.9-0.5,1.5s0.2,1.1,0.5,1.5s0.8,0.6,1.4,0.6c0.6,0,1-0.2,1.4-0.6c0.3-0.4,0.5-0.9,0.5-1.5s-0.2-1.1-0.5-1.5
		s-0.8-0.6-1.3-0.6C48.5,70.2,48.1,70.4,47.7,70.8z"/>
	<path class="st2" d="M52.3,69.8H53l1.9,4.3l0,0l1.9-4.3h0.7v5h-0.6v-4l0,0l-1.7,4h-0.5l-1.7-4l0,0v4h-0.6v-5H52.3z"/>
</g>
<g>
	<path class="st2" d="M72.5,48.9c-0.2,0-0.4,0.2-0.5,0.4c-0.8,1.4-1.7,2.7-3,3.7c-3.1,2.4-6.6,3.2-10.4,2.2c-2.4-0.6-4.3-2-6-3.7
		c-1.7-1.7-3.3-3.6-4.7-5.5c-2.6-3.5-5.1-7.1-7.7-10.6c-1.7-2.2-3.8-3.9-6.2-5.2c-2.5-1.3-5.1-1.9-7.9-1.8c-2.3,0-4.4,0.5-6.4,1.5
		c-3.7,1.8-6.4,4.7-7.9,8.5c-1.2,3.1-1.4,6.4-0.6,9.6c0.8,3.4,2.7,6.1,5.4,8.3c2.3,1.9,5,3.1,7.9,3.4c3.2,0.3,6.3,0,9.2-1.7
		c1.6-0.9,3.1-1.9,4.5-3.1c1.5-1.3,2.8-2.7,4.1-4.1c-1-1.5-1.9-2.7-2.8-4c-0.9,1.2-1.7,2.4-2.6,3.4c-1,1.1-2.1,2-3.2,2.9
		c-3.8,3-9,3.5-13.3,0.9c-4.9-2.9-6.6-8.3-5.2-13.5c0.7-2.3,2-4.2,4-5.7c2.9-2.1,6.1-3,9.7-2.2c3.2,0.7,5.5,2.7,7.4,5
		c2.4,2.9,4.6,6,6.8,9.2c2.1,3,4.1,6.1,7,8.4c1.3,1.1,2.7,2,4.2,2.8c2.5,1.3,5.2,1.7,8.1,1.6c2-0.1,3.8-0.5,5.6-1.3
		c2.4-1.1,4.4-2.6,6-4.7c1.1-1.4,1.9-3,2.5-4.8C75.1,48.8,73.8,48.8,72.5,48.9z"/>
	<path class="st2" d="M77,41.1c-0.7-4-2.8-7.2-6.1-9.6c-4.1-3.1-8.7-3.9-13.7-2.5c-2.5,0.7-4.7,1.9-6.6,3.7c-1.5,1.4-3,2.9-4.4,4.4
		c-0.2,0.2-0.2,0.6-0.1,0.8c0.7,1.2,1.5,2.3,2.3,3.4c1.3-1.9,2.6-3.6,4.2-5c3.3-2.8,6.9-4.3,11.2-3.5c3,0.6,5.4,2,7.2,4.5
		c1.2,1.7,1.9,3.7,2.1,5.9H58.5v3.5c0.2,0,0.3,0,0.5,0c5.8,0,11.7,0,17.5,0c0.1,0,0.2,0,0.3,0c0.2-0.1,0.4-0.3,0.4-0.4
		C77.1,44.6,77.3,42.8,77,41.1z"/>
</g>
</svg>
