<?xml version="1.0" encoding="utf-8"?>
<!-- Generator: Adobe Illustrator 22.1.0, SVG Export Plug-In . SVG Version: 6.00 Build 0)  -->
<svg version="1.1" id="图层_1" xmlns="http://www.w3.org/2000/svg" xmlns:xlink="http://www.w3.org/1999/xlink" x="0px" y="0px"
	 viewBox="0 0 64 64" style="enable-background:new 0 0 64 64;" xml:space="preserve">
<style type="text/css">
	.st0{fill-rule:evenodd;clip-rule:evenodd;fill:url(#SVGID_1_);}
	.st1{fill-rule:evenodd;clip-rule:evenodd;fill:#FFFFFF;}
</style>
<linearGradient id="SVGID_1_" gradientUnits="userSpaceOnUse" x1="0" y1="32" x2="64" y2="32">
	<stop  offset="0" style="stop-color:#0093D3"/>
	<stop  offset="1" style="stop-color:#7DC7AB"/>
</linearGradient>
<circle class="st0" cx="32" cy="32" r="32"/>
<g>
	<path class="st1" d="M32,9.6c5,0,9,4,9,9c0,5-4,9-9,9c-5,0-9-4-9-9C23,13.6,27,9.6,32,9.6L32,9.6z M32,11.8c-3.7,0-6.7,3-6.7,6.7
		c0,3.7,3,6.7,6.7,6.7c3.7,0,6.7-3,6.7-6.7C38.7,14.8,35.7,11.8,32,11.8z"/>
	<path class="st1" d="M18.6,23c5,0,9,4,9,9c0,5-4,9-9,9c-5,0-9-4-9-9C9.6,27,13.6,23,18.6,23L18.6,23z M18.6,25.2
		c-3.7,0-6.7,3-6.7,6.7c0,3.7,3,6.7,6.7,6.7c3.7,0,6.7-3,6.7-6.7C25.3,28.2,22.3,25.2,18.6,25.2z"/>
	<path class="st1" d="M45.4,23c5,0,9,4,9,9c0,5-4,9-9,9c-5,0-9-4-9-9C36.5,27,40.5,23,45.4,23L45.4,23z M45.4,25.2
		c-3.7,0-6.7,3-6.7,6.7c0,3.7,3,6.7,6.7,6.7c3.7,0,6.7-3,6.7-6.7C52.2,28.2,49.1,25.2,45.4,25.2z"/>
	<path class="st1" d="M32,36.5c5,0,9,4,9,9c0,5-4,9-9,9c-5,0-9-4-9-9C23,40.5,27,36.5,32,36.5L32,36.5z M32,38.8
		c-3.7,0-6.7,3-6.7,6.7c0,3.7,3,6.7,6.7,6.7c3.7,0,6.7-3,6.7-6.7C38.7,41.8,35.7,38.8,32,38.8z"/>
	<ellipse transform="matrix(0.9732 -0.2298 0.2298 0.9732 -3.8002 4.8263)" class="st1" cx="18.8" cy="18.7" rx="2.2" ry="2.2"/>
	<circle class="st1" cx="45.4" cy="18.7" r="2.2"/>
	<path class="st1" d="M18.8,47.4c1.2,0,2.2-1,2.2-2.2c0-1.2-1-2.2-2.2-2.2c-1.2,0-2.2,1-2.2,2.2C16.6,46.5,17.6,47.4,18.8,47.4z"/>
	<path class="st1" d="M45.4,47.4c1.2,0,2.2-1,2.2-2.2c0-1.2-1-2.2-2.2-2.2c-1.2,0-2.2,1-2.2,2.2C43.2,46.5,44.2,47.4,45.4,47.4z"/>
	<path class="st1" d="M32,34.1c1.2,0,2.2-1,2.2-2.2c0-1.2-1-2.2-2.2-2.2c-1.2,0-2.2,1-2.2,2.2C29.8,33.1,30.8,34.1,32,34.1z"/>
</g>
</svg>
