<?xml version="1.0" encoding="utf-8"?>
<!-- Generator: Adobe Illustrator 22.1.0, SVG Export Plug-In . SVG Version: 6.00 Build 0)  -->
<svg version="1.1" id="图层_1" xmlns="http://www.w3.org/2000/svg" xmlns:xlink="http://www.w3.org/1999/xlink" x="0px" y="0px"
	 viewBox="0 0 64 64" style="enable-background:new 0 0 64 64;" xml:space="preserve">
<style type="text/css">
	.st0{fill:url(#SVGID_1_);}
	.st1{fill:#FFFFFF;}
	.st2{opacity:5.000000e-02;fill:#FFFFFF;}
	.st3{font-family:'MyriadPro-Regular';}
	.st4{font-size:5.7427px;}
</style>
<linearGradient id="SVGID_1_" gradientUnits="userSpaceOnUse" x1="0" y1="32" x2="64" y2="32">
	<stop  offset="0" style="stop-color:#00FFFF"/>
	<stop  offset="0.2874" style="stop-color:#5B9FCE"/>
	<stop  offset="0.519" style="stop-color:#9D59AB"/>
	<stop  offset="0.6847" style="stop-color:#C62E94"/>
	<stop  offset="0.7688" style="stop-color:#D61D8C"/>
	<stop  offset="1" style="stop-color:#93278F"/>
</linearGradient>
<circle class="st0" cx="32" cy="32" r="32"/>
<g>
	<path class="st1" d="M32,52c-8.1,0-15.4-4.1-20-10.5c3.7,7.3,11.3,12.3,20,12.3s16.3-5,20-12.3C47.4,47.9,40.1,52,32,52z"/>
	<path class="st1" d="M48.7,34.9c-5.1,2.3-7.2-2-7.2-2L31.6,9.5L22.9,33c-1.7,4.2-7.6,2-7.6,2c2,3.8,0.4,7.4,0.4,7.4
		c3.4-0.4,5.1,2.7,5.1,2.7c2.1,3.2,7.8,3.7,7.8,3.7c-5.4-1.8-6.5-6.2-6.5-6.2l6.6-17.6C29.5,25,31,25,31.8,25c0.8,0,2,0.1,2.8,0
		L42,42.5c-0.8,4.1-5.9,6.2-5.9,6.2c5.8-0.7,7.2-3.8,7.2-3.8c1.8-3,5.3-2.6,5.3-2.6C47.4,38.8,48.7,34.9,48.7,34.9z M31.7,22.8
		c-0.6,0-1.7,0-2.2-0.1l2.1-5.7l2.4,5.7C33.5,22.8,32.3,22.8,31.7,22.8z"/>
</g>
<text transform="matrix(1 0 0 1 27.0007 61.5415)" class="st2 st3 st4">XT</text>
</svg>
