<?xml version="1.0" encoding="utf-8"?>
<!-- Generator: Adobe Illustrator 22.1.0, SVG Export Plug-In . SVG Version: 6.00 Build 0)  -->
<svg version="1.1" id="图层_1" xmlns="http://www.w3.org/2000/svg" xmlns:xlink="http://www.w3.org/1999/xlink" x="0px" y="0px"
	 viewBox="0 0 88 88" style="enable-background:new 0 0 88 88;" xml:space="preserve">
<style type="text/css">
	.st0{fill:#FFC100;}
	.st1{clip-path:url(#SVGID_2_);}
	.st2{fill:#FFFFFF;}
	.st3{opacity:0.17;enable-background:new    ;}
</style>
<title>BCD</title>
<g id="图层_2_1_">
	<g id="图层_1-2">
		<circle class="st0" cx="44" cy="44" r="44"/>
		<g>
			<defs>
				<rect id="SVGID_1_" x="9.4" y="17.6" width="68.8" height="58"/>
			</defs>
			<clipPath id="SVGID_2_">
				<use xlink:href="#SVGID_1_"  style="overflow:visible;"/>
			</clipPath>
			<g class="st1">
				<path class="st2" d="M78.2,37l-0.3-0.3L67.6,22.8l-0.1,0.1l0.1-0.1l-10.3-5v-0.2h-26l0,0l-11.1,5.2l0,0.1l-10.8,14l0.2,0.2
					l33.8,38.1l0.3,0.3H44l33.7-38l0.2-0.1v-0.1L78.2,37z M31.2,18.7L31.2,18.7h25.6l9.3,4.5l-9.9,4.7H31.9l-10.6-4.5L31.2,18.7z
					 M20.5,24.1l10.7,4.6V29l0,0l-4.6,15.5L11,36.6L20.5,24.1z M12.1,38.3l14.4,7.2l14.8,25.6L12.1,38.3z M43.9,73.7L27.5,45.3
					L32.3,29h23.2l4.4,16.2L43.9,73.7z M46.4,71.2L61,45.4l0,0l0,0v-0.1l14.4-6.8L46.4,71.2z M60.7,44.4l-4.2-15.5l10.6-5l9.7,13
					L60.7,44.4z"/>
			</g>
		</g>
		<path class="st2" d="M50.6,45c1.4-0.7,2.2-2.1,2.2-3.6c0,0,0-4.6-4.4-4.9h-1.9v-3.6h-2.6l-0.2,3.6H42v-3.6h-2.7v3.6h-4.7v2.9H37
			c0,0,0.7-0.1,0.7,0.9v11.3c0,0.5-0.4,0.9-0.9,0.9c0,0-0.1,0-0.1,0h-2.5v1.9c0,0-0.1,0.9-0.6,1h5.6V59h2.6v-3.9h1.9V59h2.9v-3.9
			h3.9c0,0,3.6-0.6,3.6-5.5S49.2,45,50.6,45z M42.1,39.5c0,0,5.5-0.6,5.5,2.4c0,0,0.4,2.7-5.5,2.3V39.5z M44.7,52.3H42v-5
			c0,0,3.3-0.6,5,0c0,0,2,0.6,2,2.3C49,49.6,49.2,52.3,44.7,52.3L44.7,52.3z"/>
	</g>
</g>
<g class="st3">
	<path class="st2" d="M30.7,71.3h3.6v0.5l-3.1,4h3.3v0.5h-4v-0.5l3.1-4h-2.9C30.7,71.8,30.7,71.3,30.7,71.3z"/>
	<path class="st2" d="M35.2,71.3h2.2c0.5,0,0.8,0.1,1.1,0.3c0.3,0.2,0.4,0.5,0.4,0.9c0,0.3-0.1,0.5-0.2,0.7
		c-0.2,0.2-0.4,0.3-0.6,0.4c0.3,0.1,0.6,0.2,0.8,0.4s0.3,0.5,0.3,0.8c0,0.5-0.2,0.9-0.5,1.1s-0.7,0.3-1.2,0.3h-2.2L35.2,71.3
		L35.2,71.3z M35.8,71.8v1.7h1.5c0.3,0,0.6-0.1,0.8-0.2s0.3-0.4,0.3-0.7c0-0.3-0.1-0.5-0.3-0.6s-0.4-0.2-0.8-0.2
		C37.3,71.8,35.8,71.8,35.8,71.8z M35.8,74v1.9h1.6c0.3,0,0.6-0.1,0.8-0.2c0.2-0.2,0.4-0.4,0.4-0.7c0-0.3-0.1-0.6-0.3-0.7
		s-0.5-0.2-0.9-0.2h-1.6V74z"/>
	<path class="st2" d="M40.7,75.6c0.1,0.1,0.1,0.2,0.1,0.3s0,0.2-0.1,0.3c-0.1,0.1-0.2,0.1-0.3,0.1s-0.2,0-0.3-0.1S40,76,40,75.9
		c0-0.1,0-0.2,0.1-0.3c0.1-0.1,0.2-0.1,0.3-0.1C40.5,75.5,40.6,75.5,40.7,75.6z"/>
	<path class="st2" d="M45.4,71.6c0.4,0.3,0.6,0.7,0.7,1.2h-0.6c-0.1-0.4-0.2-0.6-0.5-0.8c-0.3-0.2-0.6-0.3-1-0.3
		c-0.6,0-1,0.2-1.3,0.6s-0.4,0.9-0.4,1.5s0.1,1.1,0.4,1.5c0.3,0.4,0.8,0.6,1.3,0.6c0.4,0,0.7-0.1,1-0.3c0.3-0.2,0.5-0.6,0.6-1h0.5
		c-0.1,0.6-0.4,1-0.8,1.4c-0.4,0.3-0.8,0.5-1.4,0.5c-0.8,0-1.4-0.3-1.8-0.8c-0.4-0.5-0.6-1.1-0.6-1.8c0-0.7,0.2-1.4,0.6-1.8
		c0.4-0.5,1-0.8,1.8-0.8C44.5,71.2,45,71.3,45.4,71.6z"/>
	<path class="st2" d="M50.9,71.9c0.4,0.5,0.6,1.1,0.6,1.9c0,0.7-0.2,1.4-0.6,1.8c-0.4,0.5-1,0.7-1.8,0.7c-0.7,0-1.3-0.2-1.8-0.7
		c-0.4-0.5-0.6-1.1-0.6-1.8c0-0.8,0.2-1.4,0.6-1.8c0.4-0.5,1-0.8,1.8-0.8C49.8,71.2,50.4,71.4,50.9,71.9z M47.7,72.3
		c-0.3,0.4-0.5,0.9-0.5,1.5s0.2,1.1,0.5,1.5s0.8,0.6,1.4,0.6c0.6,0,1-0.2,1.4-0.6c0.3-0.4,0.5-0.9,0.5-1.5s-0.2-1.1-0.5-1.5
		s-0.8-0.6-1.3-0.6C48.5,71.7,48.1,71.9,47.7,72.3z"/>
	<path class="st2" d="M52.3,71.3H53l1.9,4.3l0,0l1.9-4.3h0.7v5h-0.6v-4l0,0l-1.7,4h-0.5l-1.7-4l0,0v4h-0.6v-5H52.3z"/>
</g>
</svg>
