<?xml version="1.0" encoding="UTF-8"?>
<svg width="366px" height="228px" viewBox="0 0 366 228" version="1.1" xmlns="http://www.w3.org/2000/svg" xmlns:xlink="http://www.w3.org/1999/xlink">
    <!-- Generator: Sketch 50.2 (55047) - http://www.bohemiancoding.com/sketch -->
    <title>Group 9</title>
    <desc>Created with Sketch.</desc>
    <defs></defs>
    <g id="Page-1" stroke="none" stroke-width="1" fill="none" fill-rule="evenodd">
        <g id="Group-9">
            <path d="M103.448451,-3.30260264e-11 C67.5070476,25.1272244 44,66.8181218 44,114 C44,161.181878 67.5070476,202.872776 103.448451,228 L0,228 L0,0 L103.448451,0 Z M262.551549,0 L366,0 L366,228 L262.551549,228 C298.492952,202.872776 322,161.181878 322,114 C322,66.8181218 298.492952,25.1272244 262.551549,-3.30331318e-11 Z" id="Combined-Shape" fill="#F7931A"></path>
            <g id="BTC-Copy" transform="translate(70.000000, 1.000000)">
                <path d="M226,113 C226,175.40877 175.40877,226 113,226 C50.59123,226 0,175.40877 0,113 C0,50.59123 50.59123,0 113,0 C175.40877,0 226,50.59123 226,113" id="Fill-504" fill="#F7931A"></path>
                <path d="M140.597157,146.449291 C139.652521,149.637511 137.527372,152.264705 134.613333,153.846914 C131.699295,155.431391 128.34736,155.780474 125.172616,154.830695 L93.3901829,145.32497 L100.471003,121.452417 L132.251179,130.959276 L132.252307,130.959276 C138.804944,132.918904 142.549631,139.867706 140.597157,146.449291 M151.316576,97.5265955 C152.892098,100.453003 153.239706,103.819166 152.29507,107.00852 C150.342596,113.587838 143.419779,117.346152 136.870528,115.389925 L136.8694,115.389925 L105.088095,105.884199 L112.166659,82.0116465 L143.949091,91.5173721 C147.123836,92.4671513 149.739925,94.6001876 151.316576,97.5265955 M165.543675,89.796889 C161.91072,83.0543635 155.880624,78.1354594 148.566184,75.9480205 L144.36103,74.6910931 L150.247794,54.8409348 L135.143774,50.3232501 L129.25701,70.1734084 L116.361655,66.3164888 L122.249548,46.4663306 L118.631265,45.383945 L103.973041,41 L98.2984532,60.133857 L80.4350128,54.7910658 L75.3935679,71.7918865 L93.2570084,77.1358112 L74.9048853,139.016532 L57.0414448,133.673741 L52,150.675695 L69.8623118,156.017353 L65.0736729,172.166999 L68.6908277,173.249384 L83.3490514,177.633329 L88.3509953,160.767382 L101.276822,164.633369 L96.274878,181.500449 L111.317953,186 L116.319897,169.132919 L120.554395,170.398914 C123.254,171.205886 126.011164,171.605972 128.751398,171.605972 C133.435078,171.605972 138.074742,170.437449 142.310368,168.135538 C149.024394,164.487161 153.921379,158.432602 156.1007,151.084848 C158.391753,143.356275 157.260898,135.416891 153.616657,128.881776 C160.232495,125.414742 165.504174,119.377184 167.797484,111.64521 C169.976806,104.297456 169.175502,96.5382812 165.543675,89.796889" id="Fill-505" fill="#FFFFFF"></path>
            </g>
        </g>
    </g>
</svg>