<?xml version="1.0" encoding="utf-8"?>
<!-- Generator: Adobe Illustrator 22.1.0, SVG Export Plug-In . SVG Version: 6.00 Build 0)  -->
<svg version="1.1" id="图层_1" xmlns="http://www.w3.org/2000/svg" xmlns:xlink="http://www.w3.org/1999/xlink" x="0px" y="0px"
	 viewBox="0 0 88 88" style="enable-background:new 0 0 88 88;" xml:space="preserve">
<style type="text/css">
	.st0{fill:#FF8E00;}
	.st1{fill:#FFFFFF;}
	.st2{opacity:0.1;enable-background:new    ;}
</style>
<title>BCC</title>
<g id="图层_2_1_">
	<g id="图层_1-2">
		<circle class="st0" cx="44" cy="44" r="44"/>
		<g id="比特币">
			<path id="Shape" class="st1" d="M59.1,37.3c0.6-2.3,0.6-4.8-0.3-7c-2.1-5.6-8-8.7-13.3-6.7L44,24.1l-2.9-7.9
				c-0.2-0.4-0.7-0.7-1.1-0.5l-2.8,1c-0.5,0.2-0.7,0.6-0.5,1.1c0,0,0,0,0,0l2.9,7.9l-4.4,1.6l-2.9-7.9c-0.2-0.4-0.7-0.6-1.1-0.4
				l-2.8,1c-0.5,0.2-0.7,0.7-0.5,1.1l2.9,7.9l-9.2,3.3c-0.5,0.2-0.7,0.6-0.5,1.1l1,2.8c0.2,0.4,0.6,0.6,1,0.5
				c3.2-0.9,5.6,0.6,6.6,3.1l6.2,16.9c0.8,2.3,0.3,4.5-2.2,5.7c-0.4,0.2-0.6,0.5-0.5,0.9l0.5,3c0.1,0.5,0.5,0.8,1,0.7
				c0.1,0,0.1,0,0.1,0l8.7-3.2l2.9,7.9c0.2,0.5,0.7,0.7,1.1,0.5l2.8-1c0.5-0.2,0.7-0.7,0.5-1.1l-2.9-7.9l4.4-1.6l2.9,7.9
				c0.2,0.5,0.7,0.7,1.1,0.5c0,0,0,0,0,0l2.8-1c0.5-0.2,0.7-0.7,0.5-1.1l-2.8-8l3.8-1.4c5.4-2.1,8-8.2,5.9-13.6
				C65.2,40.8,62.5,38.2,59.1,37.3z M37.5,33.9l6.8-2.5c2.5-1,5.2,0.2,6.2,2.7s-0.2,5.2-2.7,6.2c-0.1,0-0.2,0.1-0.3,0.1l-6.8,2.5
				L37.5,33.9z M54.5,52.7l-9,3.3l-3.3-9l9-3.3c2.5-0.9,5.2,0.4,6.1,2.9C58.3,49.1,57,51.8,54.5,52.7z"/>
		</g>
	</g>
</g>
<g class="st2">
	<path class="st1" d="M30.7,71.6h3.6v0.5l-3.1,4h3.3v0.5h-4v-0.5l3.1-4h-2.9C30.7,72.1,30.7,71.6,30.7,71.6z"/>
	<path class="st1" d="M35.2,71.6h2.2c0.5,0,0.8,0.1,1.1,0.3c0.3,0.2,0.4,0.5,0.4,0.9c0,0.3-0.1,0.5-0.2,0.7
		c-0.2,0.2-0.4,0.3-0.6,0.4c0.3,0.1,0.6,0.2,0.8,0.4s0.3,0.5,0.3,0.8c0,0.5-0.2,0.9-0.5,1.1s-0.7,0.3-1.2,0.3h-2.2L35.2,71.6
		L35.2,71.6z M35.8,72.1v1.7h1.5c0.3,0,0.6-0.1,0.8-0.2s0.3-0.4,0.3-0.7c0-0.3-0.1-0.5-0.3-0.6s-0.4-0.2-0.8-0.2
		C37.3,72.1,35.8,72.1,35.8,72.1z M35.8,74.3v1.9h1.6c0.3,0,0.6-0.1,0.8-0.2c0.2-0.2,0.4-0.4,0.4-0.7c0-0.3-0.1-0.6-0.3-0.7
		s-0.5-0.2-0.9-0.2h-1.6V74.3z"/>
	<path class="st1" d="M40.7,75.9c0.1,0.1,0.1,0.2,0.1,0.3s0,0.2-0.1,0.3c-0.1,0.1-0.2,0.1-0.3,0.1s-0.2,0-0.3-0.1S40,76.3,40,76.2
		c0-0.1,0-0.2,0.1-0.3c0.1-0.1,0.2-0.1,0.3-0.1C40.5,75.8,40.6,75.8,40.7,75.9z"/>
	<path class="st1" d="M45.4,71.9c0.4,0.3,0.6,0.7,0.7,1.2h-0.6c-0.1-0.4-0.2-0.6-0.5-0.8c-0.3-0.2-0.6-0.3-1-0.3
		c-0.6,0-1,0.2-1.3,0.6s-0.4,0.9-0.4,1.5s0.1,1.1,0.4,1.5c0.3,0.4,0.8,0.6,1.3,0.6c0.4,0,0.7-0.1,1-0.3c0.3-0.2,0.5-0.6,0.6-1h0.5
		c-0.1,0.6-0.4,1-0.8,1.4c-0.4,0.3-0.8,0.5-1.4,0.5c-0.8,0-1.4-0.3-1.8-0.8c-0.4-0.5-0.6-1.1-0.6-1.8c0-0.7,0.2-1.4,0.6-1.8
		c0.4-0.5,1-0.8,1.8-0.8C44.5,71.5,45,71.6,45.4,71.9z"/>
	<path class="st1" d="M50.9,72.2c0.4,0.5,0.6,1.1,0.6,1.9c0,0.7-0.2,1.4-0.6,1.8c-0.4,0.5-1,0.7-1.8,0.7c-0.7,0-1.3-0.2-1.8-0.7
		c-0.4-0.5-0.6-1.1-0.6-1.8c0-0.8,0.2-1.4,0.6-1.8c0.4-0.5,1-0.8,1.8-0.8C49.8,71.5,50.4,71.7,50.9,72.2z M47.7,72.6
		c-0.3,0.4-0.5,0.9-0.5,1.5s0.2,1.1,0.5,1.5s0.8,0.6,1.4,0.6c0.6,0,1-0.2,1.4-0.6c0.3-0.4,0.5-0.9,0.5-1.5s-0.2-1.1-0.5-1.5
		S49.7,72,49.2,72C48.5,72,48.1,72.2,47.7,72.6z"/>
	<path class="st1" d="M52.3,71.6H53l1.9,4.3l0,0l1.9-4.3h0.7v5h-0.6v-4l0,0l-1.7,4h-0.5l-1.7-4l0,0v4h-0.6v-5H52.3z"/>
</g>
</svg>
