<?xml version="1.0" encoding="UTF-8"?>
<svg width="879px" height="879px" viewBox="0 0 879 879" version="1.1" xmlns="http://www.w3.org/2000/svg" xmlns:xlink="http://www.w3.org/1999/xlink">
    <!-- Generator: Sketch 50.2 (55047) - http://www.bohemiancoding.com/sketch -->
    <title>Group 2</title>
    <desc>Created with Sketch.</desc>
    <defs>
        <polygon id="path-1" points="0.327561152 0.4176875 220.034278 0.4176875 220.034278 245.998628 0.327561152 245.998628"></polygon>
        <polygon id="path-3" points="0.0322391893 0.997784577 218.959678 0.997784577 218.959678 178.469522 0.0322391893 178.469522"></polygon>
    </defs>
    <g id="Page-1" stroke="none" stroke-width="1" fill="none" fill-rule="evenodd">
        <g id="画板" transform="translate(-24.000000, -24.000000)">
            <g id="Group-2" transform="translate(24.000000, 24.000000)">
                <circle id="Oval" fill="#FFFFFF" cx="439.5" cy="439.5" r="439.5"></circle>
                <g id="Group" transform="translate(99.000000, 316.000000)">
                    <g id="Group-6-Copy" transform="translate(240.000000, 0.000000)">
                        <mask id="mask-2" fill="white">
                            <use xlink:href="#path-1"></use>
                        </mask>
                        <g id="Clip-5"></g>
                        <path d="M191.267268,131.714294 C210.147934,145.784981 214.336233,161.239419 204.267911,181.670231 C191.43644,207.700106 168.587911,219.026356 140.96667,222.114169 C132.731049,223.036669 124.323693,222.818856 116.013739,222.536981 C110.48744,222.352481 107.570498,224.000169 107.296233,229.829856 C107.165509,232.666544 105.822383,235.441731 105.66859,238.278419 C105.361003,243.923606 102.782406,246.442544 97.1074402,245.630231 C96.4820149,245.537981 95.8283943,245.612294 95.1875897,245.617419 C78.3933828,245.748106 78.1960149,245.717356 80.543923,229.681231 C81.3820954,223.954044 79.5493943,221.970669 74.0615437,222.626669 C72.797877,222.777856 71.5008885,222.647169 70.2218425,222.644606 C54.8861069,222.621544 54.6656701,222.577981 51.8410034,237.745419 C50.7977736,243.339356 49.0009575,246.798731 42.6493023,245.632794 C42.0264402,245.520044 41.3702563,245.640481 40.7294517,245.614856 C35.3236241,245.404731 28.1184172,247.208731 24.993854,244.430981 C21.5617046,241.376481 25.4424172,234.532044 26.5112793,229.412169 C27.5314402,224.517794 26.2293253,222.634356 20.838877,222.478044 C14.0463483,222.278169 4.65984253,226.006606 1.19180805,220.535669 C-1.4483069,216.371606 2.67847471,207.812856 4.01391149,201.257981 C13.8976816,152.731919 23.9531874,104.239169 33.6037046,55.6669813 C34.8007276,49.6527938 36.553969,47.1876688 43.2003943,47.2030438 C63.3677966,47.2466063 63.3703598,46.9160438 67.4304977,26.6107938 C68.1200034,23.1642313 68.7966931,19.7125438 69.5092678,16.2685438 C72.7081644,0.85766875 72.7337966,1.33941875 88.794923,0.68854375 C97.6585322,0.32979375 100.557532,2.24141875 97.8943483,11.4766688 C95.0722448,21.2679813 93.9187966,31.5282313 91.5811414,41.4784188 C90.555854,45.8449188 91.5401299,47.5079813 95.9693713,47.0441688 C96.6050494,46.9801063 97.2509805,47.0134188 97.8917851,47.0262313 C117.349176,47.3772938 117.33636,47.3747313 121.122233,28.2021063 C121.927084,24.1302938 122.52944,19.9713563 123.821302,16.0456063 C125.459199,11.0641063 123.388118,3.16391875 128.829831,1.55466875 C135.604417,-0.44920625 143.42736,0.72698125 150.765854,1.10879375 C155.161774,1.33941875 152.975348,4.77060625 152.549854,6.94873125 C150.645383,16.6682938 149.122831,26.5031688 146.47759,36.0254188 C144.101486,44.5944188 146.985107,46.7546063 155.118199,46.0755438 C163.399957,45.3836688 171.712475,45.9679188 180.014739,47.0928563 C201.092084,49.9423563 215.258992,59.8438563 218.878256,74.7524813 C223.289555,92.9282938 214.728406,115.432169 199.120969,126.558544 C196.819199,128.201106 194.394394,129.669419 191.267268,131.714294" id="Fill-4" fill="#F19E10" mask="url(#mask-2)"></path>
                    </g>
                    <path d="M141.745512,90.1522708 C122.355416,119.483552 104.060501,147.163778 85.8245772,174.746429 C86.8992399,175.693924 87.3070475,176.376943 87.7430682,176.394917 C105.473721,177.080503 105.494239,177.075368 102.144575,194.289489 C101.226366,199.00129 99.4438113,203.656601 99.2899217,208.378673 C98.9154568,220.213381 92.816297,222.303521 82.0286325,221.967147 C54.8414608,221.119793 27.6106871,221.687264 0.528673307,221.687264 C-1.14102941,218.200274 1.56742845,216.551786 2.8113698,214.672201 C38.5727599,160.734278 74.5034285,106.911903 110.154531,52.9020826 C113.5914,47.6921404 117.266798,45.8433684 123.414689,46.0102714 C139.742381,46.4493548 156.095722,46.3594839 172.428543,46.0462198 C177.914709,45.9409425 180.038386,47.7075469 181.436217,53.1768307 C195.142656,106.809193 209.095317,160.382497 223.327545,213.881337 C225.138313,220.685845 223.376277,221.869573 217.015505,221.800244 C192.02639,221.52036 167.027016,221.474141 142.040467,221.825921 C135.259063,221.923495 133.730426,219.73835 135.22059,213.506447 C137.37761,204.483413 139.562843,195.409024 140.72984,186.229357 C141.760901,178.138412 145.449122,175.134157 153.282106,176.546414 C161.951223,178.107599 164.110807,175.239435 161.638314,166.429522 C154.723539,141.794635 148.657722,116.920949 141.745512,90.1522708" id="Fill-7-Copy" fill="#F19E10"></path>
                    <g id="Group-11-Copy" transform="translate(462.000000, 45.000000)">
                        <mask id="mask-4" fill="white">
                            <use xlink:href="#path-3"></use>
                        </mask>
                        <g id="Clip-10"></g>
                        <path d="M119.681103,178.129527 C103.091954,177.257977 82.763069,180.318654 62.8314828,176.483837 C12.8999885,166.878851 -10.5714023,126.951639 4.5925977,78.3832732 C17.1216092,38.2484282 56.3157816,6.90854085 99.9776437,2.83789296 C137.672333,-0.676501408 175.495184,2.08169577 213.251391,1.24090704 C217.87031,1.13837183 219.705575,2.63025915 218.687977,7.41352676 C216.224724,18.9769352 213.692264,30.5403437 211.736529,42.1960338 C210.800954,47.7662592 207.31754,47.3227944 203.413759,47.3176676 C172.032276,47.2843437 140.64823,47.0869634 109.26931,47.3843155 C81.3507356,47.6483437 58.6611264,64.7768507 52.8503103,89.2827662 C47.752069,110.79209 58.5662874,127.620682 80.3382644,131.599048 C85.6543793,132.570569 91.1396667,132.98071 96.5531839,133.00378 C126.332655,133.137076 156.11469,133.175527 185.894161,132.975583 C191.256414,132.937132 193.335184,133.87533 191.904908,139.842879 C189.372448,150.404006 187.426966,161.111245 185.578885,171.815921 C184.679195,177.011893 181.98269,178.303837 177.017736,178.232062 C159.088023,177.970597 141.153184,178.129527 119.681103,178.129527" id="Fill-9" fill="#F19E10" mask="url(#mask-4)"></path>
                    </g>
                    <path d="M348.289123,151.035323 C359.18833,151.043094 370.092683,150.921346 380.989318,151.08972 C387.173339,151.190745 392.986935,153.128341 393.892416,160.13788 C394.731014,166.642297 390.568891,171.196165 384.832466,173.540449 C381.354597,174.954791 377.387975,175.72154 373.629716,175.760396 C353.433899,175.972806 333.230364,175.659371 313.039691,175.996119 C306.860815,176.097144 305.273652,174.24503 306.279455,168.170614 C309.109082,151.061226 308.913581,151.030142 326.166587,151.030142 C333.541623,151.030142 340.916659,151.030142 348.289123,151.035323" id="Fill-32-Copy" fill="#FEFDFD"></path>
                    <path d="M355.541868,114.937415 C344.983877,114.937415 334.418185,114.816086 323.862762,114.993024 C319.142084,115.07391 317.16551,114.538041 318.323218,108.734477 C321.655158,92.0871457 321.290647,92.0163705 338.091534,92.0188982 C355.372447,92.0188982 372.650793,91.9582337 389.929138,92.0542858 C396.883089,92.0947287 404.029562,92.6508193 404.953675,101.548269 C405.636492,108.107611 398.679975,114.378796 390.095992,114.699812 C378.590786,115.129519 367.059909,114.805975 355.541868,114.805975 L355.541868,114.937415 Z" id="Fill-34-Copy" fill="#FEFEFD"></path>
                </g>
            </g>
        </g>
    </g>
</svg>