<?xml version="1.0" encoding="utf-8"?>
<!-- Generator: Adobe Illustrator 22.1.0, SVG Export Plug-In . SVG Version: 6.00 Build 0)  -->
<svg version="1.1" id="图层_1" xmlns="http://www.w3.org/2000/svg" xmlns:xlink="http://www.w3.org/1999/xlink" x="0px" y="0px"
	 viewBox="0 0 88 88" style="enable-background:new 0 0 88 88;" xml:space="preserve">
<style type="text/css">
	.st0{fill:#FB8B00;}
	.st1{fill:#FFFFFF;}
	.st2{fill:none;stroke:#FFFFFF;stroke-width:4;stroke-miterlimit:10;}
	.st3{opacity:0.1;enable-background:new    ;}
</style>
<title>BCK</title>
<g id="图层_2_1_">
	<g id="图层_1-2">
		<circle class="st0" cx="44" cy="44" r="44"/>
		<g id="比特币">
			<path id="Shape" class="st1" d="M51.5,46c0.7-1,1.1-2.2,1.1-3.5c0.1-3-2.3-5.6-5.3-5.7h-0.8v-4.4c0-0.3-0.2-0.5-0.5-0.5h-1.5
				c-0.3,0-0.5,0.2-0.5,0.5v4.4h-2.5v-4.4c0-0.3-0.2-0.5-0.5-0.5h-1.5c-0.3,0-0.5,0.2-0.5,0.5v4.4H34c-0.3,0-0.5,0.2-0.5,0.5v1.5
				c0,0.2,0.2,0.4,0.4,0.5c1.5,0,2.7,1.3,2.6,2.7c0,0,0,0,0,0v9.4c0.1,1.2-0.8,2.3-2,2.4c0,0-0.1,0-0.1,0c-0.2,0-0.4,0.2-0.4,0.4
				l-0.3,1.5c0,0.2,0.1,0.5,0.4,0.5c0,0,0.1,0,0.1,0H39v4.4c0,0.3,0.2,0.5,0.5,0.5H41c0.3,0,0.5-0.2,0.5-0.5v-4.4h2.5v4.4
				c0,0.2,0.2,0.5,0.4,0.5c0,0,0,0,0,0h1.5c0.3,0,0.5-0.2,0.5-0.5v-4.4h2.1c3-0.1,5.4-2.6,5.4-5.6c0,0,0,0,0,0
				C53.9,48.8,53,47.1,51.5,46z M41.5,40.4h3.8c1.4-0.1,2.6,0.9,2.7,2.3c0.1,1.4-0.9,2.6-2.3,2.7c-0.1,0-0.3,0-0.4,0h-3.8V40.4z
				 M46.5,52.8h-5v-5h5c1.4-0.1,2.6,0.9,2.7,2.3c0.1,1.4-0.9,2.6-2.3,2.7C46.8,52.8,46.7,52.8,46.5,52.8z"/>
		</g>
		<polygon class="st2" points="43.7,74.4 18,46.5 34.2,29 43.7,28.9 52.7,28.5 69.3,46.5 		"/>
		<path class="st1" d="M52.6,23.4c-1.9,1.1-4.3,0.5-5.4-1.3c-0.1-0.1-0.1-0.2-0.2-0.3l-3.3-6.8l-3.3,6.8c-0.9,2-3.3,2.8-5.3,1.8
			c-0.1-0.1-0.2-0.1-0.3-0.2l-6.2-3.8l3.4,10.9h23.3l3.4-10.9L52.6,23.4z"/>
		<circle class="st1" cx="43.8" cy="14.9" r="2.6"/>
		<circle class="st1" cx="58.7" cy="19.6" r="2.6"/>
		<circle class="st1" cx="28.7" cy="19.6" r="2.6"/>
	</g>
</g>
<g class="st3">
	<path class="st1" d="M30.7,71h3.6v0.5l-3.1,4h3.3V76h-4v-0.5l3.1-4h-2.9C30.7,71.5,30.7,71,30.7,71z"/>
	<path class="st1" d="M35.2,71h2.2c0.5,0,0.8,0.1,1.1,0.3c0.3,0.2,0.4,0.5,0.4,0.9c0,0.3-0.1,0.5-0.2,0.7c-0.2,0.2-0.4,0.3-0.6,0.4
		c0.3,0.1,0.6,0.2,0.8,0.4s0.3,0.5,0.3,0.8c0,0.5-0.2,0.9-0.5,1.1s-0.7,0.3-1.2,0.3h-2.2L35.2,71L35.2,71z M35.8,71.5v1.7h1.5
		c0.3,0,0.6-0.1,0.8-0.2s0.3-0.4,0.3-0.7c0-0.3-0.1-0.5-0.3-0.6s-0.4-0.2-0.8-0.2C37.3,71.5,35.8,71.5,35.8,71.5z M35.8,73.7v1.9
		h1.6c0.3,0,0.6-0.1,0.8-0.2c0.2-0.2,0.4-0.4,0.4-0.7c0-0.3-0.1-0.6-0.3-0.7s-0.5-0.2-0.9-0.2h-1.6V73.7z"/>
	<path class="st1" d="M40.7,75.3c0.1,0.1,0.1,0.2,0.1,0.3s0,0.2-0.1,0.3C40.6,76,40.5,76,40.4,76s-0.2,0-0.3-0.1S40,75.7,40,75.6
		c0-0.1,0-0.2,0.1-0.3c0.1-0.1,0.2-0.1,0.3-0.1C40.5,75.2,40.6,75.2,40.7,75.3z"/>
	<path class="st1" d="M45.4,71.3c0.4,0.3,0.6,0.7,0.7,1.2h-0.6c-0.1-0.4-0.2-0.6-0.5-0.8c-0.3-0.2-0.6-0.3-1-0.3
		c-0.6,0-1,0.2-1.3,0.6s-0.4,0.9-0.4,1.5s0.1,1.1,0.4,1.5c0.3,0.4,0.8,0.6,1.3,0.6c0.4,0,0.7-0.1,1-0.3c0.3-0.2,0.5-0.6,0.6-1h0.5
		c-0.1,0.6-0.4,1-0.8,1.4c-0.4,0.3-0.8,0.5-1.4,0.5c-0.8,0-1.4-0.3-1.8-0.8c-0.4-0.5-0.6-1.1-0.6-1.8c0-0.7,0.2-1.4,0.6-1.8
		c0.4-0.5,1-0.8,1.8-0.8C44.5,70.9,45,71,45.4,71.3z"/>
	<path class="st1" d="M50.9,71.6c0.4,0.5,0.6,1.1,0.6,1.9c0,0.7-0.2,1.4-0.6,1.8c-0.4,0.5-1,0.7-1.8,0.7c-0.7,0-1.3-0.2-1.8-0.7
		c-0.4-0.5-0.6-1.1-0.6-1.8c0-0.8,0.2-1.4,0.6-1.8c0.4-0.5,1-0.8,1.8-0.8C49.8,70.9,50.4,71.1,50.9,71.6z M47.7,72
		c-0.3,0.4-0.5,0.9-0.5,1.5s0.2,1.1,0.5,1.5s0.8,0.6,1.4,0.6c0.6,0,1-0.2,1.4-0.6c0.3-0.4,0.5-0.9,0.5-1.5s-0.2-1.1-0.5-1.5
		s-0.8-0.6-1.3-0.6C48.5,71.4,48.1,71.6,47.7,72z"/>
	<path class="st1" d="M52.3,71H53l1.9,4.3l0,0l1.9-4.3h0.7v5h-0.6v-4l0,0l-1.7,4h-0.5L53,72l0,0v4h-0.6v-5H52.3z"/>
</g>
</svg>
