<?xml version="1.0" encoding="utf-8"?>
<!-- Generator: Adobe Illustrator 22.1.0, SVG Export Plug-In . SVG Version: 6.00 Build 0)  -->
<svg version="1.1" id="Layer_1" xmlns="http://www.w3.org/2000/svg" xmlns:xlink="http://www.w3.org/1999/xlink" x="0px" y="0px"
	 viewBox="0 0 150 150" style="enable-background:new 0 0 150 150;" xml:space="preserve">
<style type="text/css">
	.st0{fill:#00AEEF;}
	.st1{fill:#221E1F;}
	.st2{opacity:5.000000e-02;enable-background:new    ;}
	.st3{fill:#FFFFFF;}
</style>
<title>150X150SVG</title>
<path class="st0" d="M51.5,79.3h0.5c1.2,0,2.4-0.3,3.5-0.7c5.8-2.7,8.7-6.6,8.8-11.9c0-3.3-1.6-6.5-4.7-9.7
	c-5.8-3.1-8.7-6.1-8.8-9.3v-0.9c-0.1-2.7,0.3-5.4,1.2-8c3.9-8.9,11.5-13.3,22.8-13.3c5.6-0.1,11.1,1.3,16,4.1
	c4.2,2.1,7.3,6,9.3,11.7c0.4,5.7,1,9.3,1.9,10.8c2.9,4.8,6.7,7.2,11.5,7.2c0.8-0.3,1.7-0.5,2.6-0.5c6.6-2.5,9.9-6.7,9.9-12.6
	c0-11.6-4.4-22-13.2-31.2C101.6,5.2,89.5,0.3,76.4,0.3h-2.8c-9,0-17.9,2.5-26.8,7.6C32.6,17.5,25.5,30.5,25.5,47
	c0,6.5,2,12.9,6.1,19.3C39.7,74.9,46.3,79.3,51.5,79.3"/>
<path class="st1" d="M107.6,76c-1.2,0.1-2.4,0.4-3.5,0.7c-6.2,2.4-9.3,6.3-9.3,11.9c0.1,2.1,0.6,4.2,1.7,6.1
	c2.8,3.5,4.3,5.9,4.3,7.4v1.2c0,2.3-0.3,4.5-0.9,6.7c-4.2,9.7-12.2,14.5-24,14.5c-10.8,0-18.6-4.2-23.2-12.6c-1-2-1.7-6-2.2-12.1
	C48,93.2,43.9,90,38.1,90c-1.4,0.2-2.7,0.5-4.1,0.9c-5.7,2.7-8.5,6.7-8.5,12.1c0,9.4,3,18.5,8.3,26.2c10.6,13.5,24.4,20.2,41.5,20.2
	h0.9c11.1,0,21.9-3.4,31-9.7c12.5-9.6,18.8-21.9,18.8-37c-0.1-4.3-1-8.6-2.6-12.6C118.8,80.7,113.5,76,107.6,76"/>
<path class="st1" d="M92.9,76c0,7.2-5.9,13-13.1,13c-7.2,0-13-5.9-13-13.1c0-7.2,5.9-13,13.1-13c7.2,0,13,5.8,13.1,12.9
	C92.9,75.9,92.9,75.9,92.9,76"/>
<g class="st2">
	<path class="st3" d="M64,132.2h3.6v0.5l-3.1,4h3.3v0.5h-4v-0.5l3.1-4h-2.9C64,132.8,64,132.2,64,132.2z"/>
	<path class="st3" d="M68.4,132.2h2.2c0.5,0,0.8,0.1,1.1,0.3s0.4,0.5,0.4,0.9c0,0.3-0.1,0.5-0.2,0.7c-0.2,0.2-0.4,0.3-0.6,0.4
		c0.3,0.1,0.6,0.2,0.8,0.4c0.2,0.2,0.3,0.5,0.3,0.8c0,0.5-0.2,0.9-0.5,1.1c-0.3,0.2-0.7,0.3-1.2,0.3h-2.2L68.4,132.2L68.4,132.2z
		 M69.1,132.8v1.7h1.5c0.3,0,0.6-0.1,0.8-0.2c0.2-0.1,0.3-0.4,0.3-0.7s-0.1-0.5-0.3-0.6c-0.2-0.1-0.4-0.2-0.8-0.2
		C70.6,132.8,69.1,132.8,69.1,132.8z M69.1,135v1.9h1.6c0.3,0,0.6-0.1,0.8-0.2c0.2-0.2,0.4-0.4,0.4-0.7c0-0.3-0.1-0.6-0.3-0.7
		s-0.5-0.2-0.9-0.2h-1.6V135z"/>
	<path class="st3" d="M73.9,136.6c0.1,0.1,0.1,0.2,0.1,0.3s0,0.2-0.1,0.3c-0.1,0.1-0.2,0.1-0.3,0.1s-0.2,0-0.3-0.1
		c-0.1-0.1-0.1-0.2-0.1-0.3s0-0.2,0.1-0.3c0.1-0.1,0.2-0.1,0.3-0.1S73.9,136.5,73.9,136.6z"/>
	<path class="st3" d="M78.7,132.6c0.4,0.3,0.6,0.7,0.7,1.2h-0.6c-0.1-0.4-0.2-0.6-0.5-0.8c-0.3-0.2-0.6-0.3-1-0.3
		c-0.6,0-1,0.2-1.3,0.6c-0.3,0.4-0.4,0.9-0.4,1.5c0,0.6,0.1,1.1,0.4,1.5c0.3,0.4,0.8,0.6,1.3,0.6c0.4,0,0.7-0.1,1-0.3
		c0.3-0.2,0.5-0.6,0.6-1h0.5c-0.1,0.6-0.4,1-0.8,1.4c-0.4,0.3-0.8,0.5-1.4,0.5c-0.8,0-1.4-0.3-1.8-0.8c-0.4-0.5-0.6-1.1-0.6-1.8
		c0-0.7,0.2-1.4,0.6-1.8c0.4-0.5,1-0.8,1.8-0.8C77.8,132.1,78.2,132.2,78.7,132.6z"/>
	<path class="st3" d="M84.2,132.9c0.4,0.5,0.6,1.1,0.6,1.9c0,0.7-0.2,1.4-0.6,1.8c-0.4,0.5-1,0.7-1.8,0.7c-0.7,0-1.3-0.2-1.8-0.7
		c-0.4-0.5-0.6-1.1-0.6-1.8c0-0.8,0.2-1.4,0.6-1.8c0.4-0.5,1-0.8,1.8-0.8C83.1,132.1,83.7,132.4,84.2,132.9z M80.9,133.2
		c-0.3,0.4-0.5,0.9-0.5,1.5s0.2,1.1,0.5,1.5c0.3,0.4,0.8,0.6,1.4,0.6c0.6,0,1-0.2,1.4-0.6c0.3-0.4,0.5-0.9,0.5-1.5s-0.2-1.1-0.5-1.5
		c-0.3-0.4-0.8-0.6-1.3-0.6C81.8,132.6,81.4,132.9,80.9,133.2z"/>
	<path class="st3" d="M85.6,132.2h0.7l1.9,4.3l0,0l1.9-4.3h0.7v5h-0.6v-4l0,0l-1.7,4H88l-1.7-4l0,0v4h-0.6v-5H85.6z"/>
</g>
</svg>
