<?xml version="1.0" encoding="utf-8"?>
<!-- Generator: Adobe Illustrator 22.1.0, SVG Export Plug-In . SVG Version: 6.00 Build 0)  -->
<svg version="1.1" id="图层_1" xmlns="http://www.w3.org/2000/svg" xmlns:xlink="http://www.w3.org/1999/xlink" x="0px" y="0px"
	 viewBox="0 0 88.1 88" style="enable-background:new 0 0 88.1 88;" xml:space="preserve">
<style type="text/css">
	.st0{fill:#6BCAE7;}
	.st1{fill:#FFFFFF;}
	.st2{opacity:0.1;enable-background:new    ;}
</style>
<title>BCC</title>
<circle class="st0" cx="44.1" cy="44" r="44"/>
<g>
	<polygon class="st1" points="44,10.3 8.8,60.1 23,55.4 	"/>
	<polygon class="st1" points="44.1,10.3 79.3,60.1 65.1,55.4 	"/>
	<path class="st1" d="M52.2,41.8v-0.3c0,0,2.7-1.1,1.7-4.9c-1.1-3.8-5.9-3.5-5.9-3.5v-4.2h-3.1V33h-1.7v-4.2h-2.9V33h-5.6v3.1
		c0,0,2.2,0,2.6,0s1,0.6,1,1s0,10.5,0,11.3s-0.4,0.7-0.7,0.7s-2.9,0-2.9,0v3.4h5.6v4.1h2.9v-4.1H45v4.1h2.5v-4.1
		c2.2,0,7.9-0.6,7.9-5.4S52.2,41.8,52.2,41.8z M43.4,35.9c0,0,5.7-0.3,5.7,2.5c0,2.9-5.2,2.5-5.7,2.5V35.9z M43.4,49.2v-5.6
		c0,0,7-0.6,7.1,2.9S43.4,49.2,43.4,49.2z"/>
	<polygon class="st1" points="35.4,60.1 52.2,60.1 71.9,69.7 16.1,69.7 	"/>
</g>
<g class="st2">
	<path class="st1" d="M31.8,72h3.6v0.5l-3.1,4h3.3V77h-4v-0.5l3.1-4h-2.9C31.8,72.5,31.8,72,31.8,72z"/>
	<path class="st1" d="M36.3,72h2.2c0.5,0,0.8,0.1,1.1,0.3c0.3,0.2,0.4,0.5,0.4,0.9c0,0.3-0.1,0.5-0.2,0.7c-0.2,0.2-0.4,0.3-0.6,0.4
		c0.3,0.1,0.6,0.2,0.8,0.4s0.3,0.5,0.3,0.8c0,0.5-0.2,0.9-0.5,1.1s-0.7,0.3-1.2,0.3h-2.2L36.3,72L36.3,72z M36.9,72.5v1.7h1.5
		c0.3,0,0.6-0.1,0.8-0.2s0.3-0.4,0.3-0.7c0-0.3-0.1-0.5-0.3-0.6s-0.4-0.2-0.8-0.2C38.4,72.5,36.9,72.5,36.9,72.5z M36.9,74.7v1.9
		h1.6c0.3,0,0.6-0.1,0.8-0.2c0.2-0.2,0.4-0.4,0.4-0.7c0-0.3-0.1-0.6-0.3-0.7s-0.5-0.2-0.9-0.2h-1.6V74.7z"/>
	<path class="st1" d="M41.8,76.3c0.1,0.1,0.1,0.2,0.1,0.3s0,0.2-0.1,0.3C41.7,77,41.6,77,41.5,77s-0.2,0-0.3-0.1s-0.1-0.2-0.1-0.3
		c0-0.1,0-0.2,0.1-0.3c0.1-0.1,0.2-0.1,0.3-0.1C41.6,76.2,41.7,76.2,41.8,76.3z"/>
	<path class="st1" d="M46.5,72.3c0.4,0.3,0.6,0.7,0.7,1.2h-0.6c-0.1-0.4-0.2-0.6-0.5-0.8c-0.3-0.2-0.6-0.3-1-0.3
		c-0.6,0-1,0.2-1.3,0.6s-0.4,0.9-0.4,1.5s0.1,1.1,0.4,1.5c0.3,0.4,0.8,0.6,1.3,0.6c0.4,0,0.7-0.1,1-0.3c0.3-0.2,0.5-0.6,0.6-1h0.5
		c-0.1,0.6-0.4,1-0.8,1.4C46,77,45.6,77.2,45,77.2c-0.8,0-1.4-0.3-1.8-0.8c-0.4-0.5-0.6-1.1-0.6-1.8c0-0.7,0.2-1.4,0.6-1.8
		c0.4-0.5,1-0.8,1.8-0.8C45.6,71.9,46.1,72,46.5,72.3z"/>
	<path class="st1" d="M52,72.6c0.4,0.5,0.6,1.1,0.6,1.9c0,0.7-0.2,1.4-0.6,1.8c-0.4,0.5-1,0.7-1.8,0.7c-0.7,0-1.3-0.2-1.8-0.7
		c-0.4-0.5-0.6-1.1-0.6-1.8c0-0.8,0.2-1.4,0.6-1.8c0.4-0.5,1-0.8,1.8-0.8C50.9,71.9,51.5,72.1,52,72.6z M48.8,73
		c-0.3,0.4-0.5,0.9-0.5,1.5s0.2,1.1,0.5,1.5s0.8,0.6,1.4,0.6c0.6,0,1-0.2,1.4-0.6c0.3-0.4,0.5-0.9,0.5-1.5s-0.2-1.1-0.5-1.5
		s-0.8-0.6-1.3-0.6C49.6,72.4,49.2,72.6,48.8,73z"/>
	<path class="st1" d="M53.4,72h0.7l1.9,4.3l0,0L58,72h0.7v5h-0.6v-4l0,0l-1.7,4h-0.5l-1.7-4l0,0v4h-0.6v-5H53.4z"/>
</g>
</svg>
