<?xml version="1.0" encoding="utf-8"?>
<!-- Generator: Adobe Illustrator 22.1.0, SVG Export Plug-In . SVG Version: 6.00 Build 0)  -->
<svg version="1.1" id="图层_1" xmlns="http://www.w3.org/2000/svg" xmlns:xlink="http://www.w3.org/1999/xlink" x="0px" y="0px"
	 viewBox="0 0 35.9 36" style="enable-background:new 0 0 35.9 36;" xml:space="preserve">
<style type="text/css">
	.st0{fill:#F2C81F;}
	.st1{fill:#FEFEFE;}
	.st2{opacity:0.1;enable-background:new    ;}
	.st3{fill:#FFFFFF;}
</style>
<g>
	<title>Group</title>
	<desc>Created with Sketch.</desc>
	<path id="Fill-1" class="st0" d="M35.8,18c0,9.9-8,18-17.9,18S0,27.9,0,18S8,0,17.9,0S35.8,8.1,35.8,18z"/>
	<polyline id="Fill-3" class="st1" points="11,30.7 14,30.7 23.9,5.3 20.7,5.4 	"/>
	<polyline id="Fill-5" class="st1" points="24.7,30.7 21.7,30.7 11.8,5.3 15,5.4 	"/>
	<polygon id="Fill-7" class="st0" points="15.2,25.6 23.9,25.6 23.9,10.4 15.2,10.4 	"/>
	<path id="Fill-9" class="st1" d="M23.2,23c-0.1,0.3-0.3,0.5-0.4,0.7c-0.2,0.2-0.4,0.4-0.7,0.5c-0.3,0.2-0.6,0.3-0.8,0.4
		s-0.6,0.2-1,0.2c-0.4,0.1-0.7,0.1-1,0.2c-0.3,0-0.6,0.1-1,0.1s-0.7,0-0.9,0c-0.2,0-0.5,0-0.8,0s-0.6,0-0.7,0v-6c0.1,0,0.4,0,0.8,0
		c0.5,0,0.8,0,1.1,0c0.3,0,0.7,0,1.2,0.1c0.5,0,1,0.1,1.3,0.2c0.4,0.1,0.7,0.2,1.2,0.3c0.4,0.1,0.8,0.3,1,0.5
		c0.3,0.2,0.5,0.5,0.7,0.8s0.3,0.7,0.3,1.1C23.4,22.4,23.3,22.7,23.2,23L23.2,23z M15.8,10.9c0.1,0,0.3,0,0.7,0s0.7,0,1,0s0.6,0,1,0
		s0.8,0.1,1.1,0.1c0.3,0.1,0.6,0.2,1,0.3s0.6,0.3,0.8,0.5c0.2,0.2,0.4,0.4,0.5,0.7s0.2,0.6,0.2,1c0,0.3-0.1,0.6-0.2,0.9
		c-0.1,0.3-0.3,0.5-0.5,0.7s-0.4,0.3-0.7,0.5c-0.2,0.1-0.5,0.2-0.9,0.3c-0.3,0.1-0.6,0.1-0.9,0.2c-0.3,0-0.6,0.1-1,0.1s-0.7,0-0.9,0
		c-0.2,0-0.5,0-0.8,0c-0.3,0-0.5,0-0.6,0L15.8,10.9L15.8,10.9z M13,7.8c-0.4,0-1,0-1.7,0H7.6v2.9h2c0.9,0,1.4,0.4,1.6,1.2V17
		c0.1,0,0.2,0,0.3,0h-0.3v7.1c-0.1,0.6-0.4,0.9-1,0.9h-2l-0.5,3.2h3.5c0.2,0,0.5,0,1,0c0.4,0,0.7,0,1,0l2.7,0.1c0.5,0,1.2,0,2.1,0
		l2.7-0.1c1,0,1.8-0.1,2.6-0.3c0.7-0.1,1.5-0.3,2.1-0.6c0.7-0.3,1.2-0.6,1.7-1s0.8-0.9,1.1-1.6c0.3-0.6,0.5-1.4,0.6-2.2
		c0.2-1.6-0.1-2.9-0.8-3.8c-0.7-0.9-1.7-1.5-3.1-1.8c1.7-0.9,2.5-2.4,2.3-4.6c-0.1-0.8-0.3-1.5-0.6-2c-0.4-0.6-0.8-1-1.5-1.4
		c-0.6-0.3-1.3-0.6-2-0.8s-1.5-0.3-2.5-0.4L13,7.8L13,7.8z"/>
</g>
<g class="st2">
	<path class="st3" d="M13.1,31.5h1.3v0.2l-1.1,1.5h1.2v0.2H13v-0.2l1.1-1.5h-1.1C13.1,31.7,13.1,31.5,13.1,31.5z"/>
	<path class="st3" d="M14.7,31.5h0.8c0.2,0,0.3,0,0.4,0.1c0.1,0.1,0.1,0.2,0.1,0.3c0,0.1,0,0.2-0.1,0.3c-0.1,0.1-0.1,0.1-0.2,0.1
		c0.1,0,0.2,0.1,0.3,0.1c0.1,0.1,0.1,0.2,0.1,0.3c0,0.2-0.1,0.3-0.2,0.4c-0.1,0.1-0.3,0.1-0.4,0.1h-0.8L14.7,31.5L14.7,31.5z
		 M14.9,31.7v0.6h0.6c0.1,0,0.2,0,0.3-0.1c0.1,0,0.1-0.1,0.1-0.3s0-0.2-0.1-0.2s-0.1-0.1-0.3-0.1C15.5,31.7,14.9,31.7,14.9,31.7z
		 M14.9,32.5v0.7h0.6c0.1,0,0.2,0,0.3-0.1C15.9,33,16,33,16,32.9c0-0.1,0-0.2-0.1-0.3c-0.1,0-0.2-0.1-0.3-0.1L14.9,32.5L14.9,32.5z"
		/>
	<path class="st3" d="M16.7,33.1c0,0,0,0.1,0,0.1c0,0,0,0.1,0,0.1c0,0-0.1,0-0.1,0s-0.1,0-0.1,0c0,0,0-0.1,0-0.1c0,0,0-0.1,0-0.1
		c0,0,0.1,0,0.1,0C16.7,33,16.7,33,16.7,33.1z"/>
	<path class="st3" d="M18.5,31.6c0.1,0.1,0.2,0.3,0.3,0.4h-0.2c0-0.1-0.1-0.2-0.2-0.3c-0.1-0.1-0.2-0.1-0.4-0.1
		c-0.2,0-0.4,0.1-0.5,0.2c-0.1,0.1-0.1,0.3-0.1,0.6s0,0.4,0.1,0.6c0.1,0.1,0.3,0.2,0.5,0.2c0.1,0,0.3,0,0.4-0.1s0.2-0.2,0.2-0.4h0.2
		c0,0.2-0.1,0.4-0.3,0.5c-0.1,0.1-0.3,0.2-0.5,0.2c-0.3,0-0.5-0.1-0.7-0.3c-0.1-0.2-0.2-0.4-0.2-0.7c0-0.3,0.1-0.5,0.2-0.7
		c0.1-0.2,0.4-0.3,0.7-0.3C18.1,31.5,18.3,31.5,18.5,31.6z"/>
	<path class="st3" d="M20.5,31.7c0.1,0.2,0.2,0.4,0.2,0.7c0,0.3-0.1,0.5-0.2,0.7c-0.1,0.2-0.4,0.3-0.7,0.3c-0.3,0-0.5-0.1-0.7-0.3
		c-0.1-0.2-0.2-0.4-0.2-0.7c0-0.3,0.1-0.5,0.2-0.7c0.1-0.2,0.4-0.3,0.7-0.3C20.1,31.5,20.3,31.5,20.5,31.7z M19.3,31.9
		c-0.1,0.1-0.2,0.3-0.2,0.6s0.1,0.4,0.2,0.6c0.1,0.1,0.3,0.2,0.5,0.2s0.4-0.1,0.5-0.2c0.1-0.1,0.2-0.3,0.2-0.6s-0.1-0.4-0.2-0.6
		s-0.3-0.2-0.5-0.2C19.6,31.7,19.5,31.7,19.3,31.9z"/>
	<path class="st3" d="M21,31.5h0.3l0.7,1.6l0,0l0.7-1.6h0.3v1.8h-0.2v-1.5l0,0l-0.6,1.5h-0.2l-0.6-1.5l0,0v1.5H21L21,31.5L21,31.5z"
		/>
</g>
</svg>
