<?xml version="1.0" encoding="utf-8"?>
<!-- Generator: Adobe Illustrator 22.1.0, SVG Export Plug-In . SVG Version: 6.00 Build 0)  -->
<svg version="1.1" id="图层_1" xmlns="http://www.w3.org/2000/svg" xmlns:xlink="http://www.w3.org/1999/xlink" x="0px" y="0px"
	 viewBox="0 0 88 88" style="enable-background:new 0 0 88 88;" xml:space="preserve">
<style type="text/css">
	.st0{fill:#DCBA29;}
	.st1{fill:#FFFFFF;}
	.st2{opacity:7.000000e-02;enable-background:new    ;}
</style>
<title>ETH</title>
<circle class="st0" cx="44" cy="44" r="44"/>
<path class="st1" d="M63,43.8l2.2-1.8c0.1-0.1,0.3-0.4,0.4-0.5c1-0.8,7.6-4.8,6.1-14.7c-1.5-5.4-7.6-13-23.5-13
	c-15.8,0-30.8,7.6-32,31.5c-1.3,23.9,24.8,29,24.8,29l6.8-27.6c0,0,13.1-0.8,13.8,6.8c0.6,7.6-1.6,15.7-18.7,15.7V74
	c0,0,19.4,3.3,27.7-11.4C75.5,50.7,65.1,44.2,63,43.8z M49.1,41.4l4.8-18.7l-16.2,5.9v2.9h4l-9.3,27.1c0,0-9.3-1.9-8.2-18.8
	c3.9-19.1,23.1-20,26.5-20.1s17.6,2.6,13.1,13.9C59.4,44.9,49.1,41.4,49.1,41.4z"/>
<g class="st2">
	<path class="st1" d="M30.7,76.8h3.6v0.5l-3.1,4h3.3v0.5h-4v-0.5l3.1-4h-2.9C30.7,77.3,30.7,76.8,30.7,76.8z"/>
	<path class="st1" d="M35.2,76.8h2.2c0.5,0,0.8,0.1,1.1,0.3c0.3,0.2,0.4,0.5,0.4,0.9c0,0.3-0.1,0.5-0.2,0.7
		c-0.2,0.2-0.4,0.3-0.6,0.4c0.3,0.1,0.6,0.2,0.8,0.4s0.3,0.5,0.3,0.8c0,0.5-0.2,0.9-0.5,1.1s-0.7,0.3-1.2,0.3h-2.2L35.2,76.8
		L35.2,76.8z M35.8,77.3V79h1.5c0.3,0,0.6-0.1,0.8-0.2s0.3-0.4,0.3-0.7c0-0.3-0.1-0.5-0.3-0.6s-0.4-0.2-0.8-0.2
		C37.3,77.3,35.8,77.3,35.8,77.3z M35.8,79.5v1.9h1.6c0.3,0,0.6-0.1,0.8-0.2c0.2-0.2,0.4-0.4,0.4-0.7c0-0.3-0.1-0.6-0.3-0.7
		s-0.5-0.2-0.9-0.2h-1.6V79.5z"/>
	<path class="st1" d="M40.7,81.1c0.1,0.1,0.1,0.2,0.1,0.3s0,0.2-0.1,0.3c-0.1,0.1-0.2,0.1-0.3,0.1s-0.2,0-0.3-0.1S40,81.5,40,81.4
		c0-0.1,0-0.2,0.1-0.3c0.1-0.1,0.2-0.1,0.3-0.1C40.5,81,40.6,81,40.7,81.1z"/>
	<path class="st1" d="M45.4,77.1c0.4,0.3,0.6,0.7,0.7,1.2h-0.6c-0.1-0.4-0.2-0.6-0.5-0.8c-0.3-0.2-0.6-0.3-1-0.3
		c-0.6,0-1,0.2-1.3,0.6s-0.4,0.9-0.4,1.5s0.1,1.1,0.4,1.5c0.3,0.4,0.8,0.6,1.3,0.6c0.4,0,0.7-0.1,1-0.3c0.3-0.2,0.5-0.6,0.6-1h0.5
		c-0.1,0.6-0.4,1-0.8,1.4c-0.4,0.3-0.8,0.5-1.4,0.5c-0.8,0-1.4-0.3-1.8-0.8c-0.4-0.5-0.6-1.1-0.6-1.8c0-0.7,0.2-1.4,0.6-1.8
		c0.4-0.5,1-0.8,1.8-0.8C44.5,76.7,45,76.8,45.4,77.1z"/>
	<path class="st1" d="M50.9,77.4c0.4,0.5,0.6,1.1,0.6,1.9c0,0.7-0.2,1.4-0.6,1.8c-0.4,0.5-1,0.7-1.8,0.7c-0.7,0-1.3-0.2-1.8-0.7
		c-0.4-0.5-0.6-1.1-0.6-1.8c0-0.8,0.2-1.4,0.6-1.8c0.4-0.5,1-0.8,1.8-0.8C49.8,76.7,50.4,76.9,50.9,77.4z M47.7,77.8
		c-0.3,0.4-0.5,0.9-0.5,1.5s0.2,1.1,0.5,1.5s0.8,0.6,1.4,0.6c0.6,0,1-0.2,1.4-0.6c0.3-0.4,0.5-0.9,0.5-1.5s-0.2-1.1-0.5-1.5
		s-0.8-0.6-1.3-0.6C48.5,77.2,48.1,77.4,47.7,77.8z"/>
	<path class="st1" d="M52.3,76.8H53l1.9,4.3l0,0l1.9-4.3h0.7v5h-0.6v-4l0,0l-1.7,4h-0.5l-1.7-4l0,0v4h-0.6v-5H52.3z"/>
</g>
</svg>
