<?xml version="1.0" encoding="utf-8"?>
<!-- Generator: Adobe Illustrator 22.1.0, SVG Export Plug-In . SVG Version: 6.00 Build 0)  -->
<svg version="1.1" id="图层_1" xmlns="http://www.w3.org/2000/svg" xmlns:xlink="http://www.w3.org/1999/xlink" x="0px" y="0px"
	 viewBox="0 0 88 88" style="enable-background:new 0 0 88 88;" xml:space="preserve">
<style type="text/css">
	.st0{fill:#0086D9;}
	.st1{fill:#FFFFFF;}
	.st2{opacity:7.000000e-02;enable-background:new    ;}
</style>
<title>BDS</title>
<g id="图层_2_1_">
	<g id="图层_1-2">
		<circle class="st0" cx="44" cy="44" r="44"/>
		<path class="st1" d="M26.7,21.5c1.6,1,3.2,2,4.9,2.8c6.1-7.8,15.4-12.4,25.3-12.4c0.8,0,1.7,0,2.5,0.1C47.6,8.9,35,12.5,26.7,21.5
			z"/>
		<path class="st1" d="M25,43c0.2-6,2-11.9,5.4-16.9c-1.8-0.8-3.6-1.7-5.2-2.7c-3.7,4.6-6,10.1-6.8,16C20.4,40.8,22.7,42,25,43z"/>
		<path class="st1" d="M30.1,18.4c-1.2,1-2.3,2-3.4,3.2c0.6,0.4,1.1,0.7,1.7,1l0,0c7.6,4.5,16.2,6.9,25,6.9c1.1,0,2.2,0,3.3-0.1
			C46.9,28.6,37.6,24.8,30.1,18.4z"/>
		<path class="st1" d="M58.4,44.4c-13.7,0-27.1-3.6-38.9-10.5c-0.6,1.8-1,3.6-1.3,5.5c0.8,0.5,1.5,0.9,2.4,1.4l0,0
			c7.7,4.3,16.5,6.6,25.4,6.6c6.1,0,12.2-1.1,18-3.2C62.1,44.3,60.3,44.4,58.4,44.4z"/>
		<path class="st1" d="M29.3,60c-2.5-4.3-4-9.2-4.3-14.2c-2.4-1-4.8-2.1-7-3.4c0,0.5,0,1,0,1.5c0,4.4,0.8,8.7,2.5,12.8
			C23.3,58,26.3,59.1,29.3,60z"/>
		<path class="st1" d="M31.8,63.8c-3.2-0.8-6.4-1.9-9.4-3.2c7.5,12.8,22.6,19.1,37,15.2c-0.8,0.1-1.7,0.1-2.5,0.1
			C47.2,75.9,37.9,71.4,31.8,63.8z"/>
		<path class="st1" d="M53.2,59.4c-12.3,0-24.4-3.5-34.8-10.2c0.4,2.6,1.1,5.1,2.1,7.5c8,3.8,16.8,5.7,25.7,5.7c9,0,17.8-2,25.9-5.8
			C65.9,58.5,59.6,59.4,53.2,59.4z"/>
		<path class="st1" d="M45.1,28.7c1.8-3.5,4.1-6.6,6.8-9.4c-3.8,2.2-7,5.3-9.5,8.9C43.3,28.4,44.2,28.5,45.1,28.7z"/>
		<path class="st1" d="M41,47.1c0-0.4,0-0.8,0-1.2c0-5.2,1.1-10.3,3.1-15.1c-1.1,0-2.1-0.1-3.2-0.3c-2.6,4.6-3.9,9.7-3.9,14.9
			c0,0.4,0,0.8,0,1.1C38.3,46.8,39.6,47,41,47.1z"/>
		<path class="st1" d="M44.7,62.4c-2-4.1-3.2-8.5-3.6-13h-0.7c-1.1,0-2.2-0.1-3.3-0.2c0.6,4.6,2.2,9.1,4.8,13
			C42.9,62.3,43.8,62.4,44.7,62.4z"/>
		<path class="st1" d="M45.9,64.7c-0.2,0-0.5,0-0.7,0c-0.5,0-1,0-1.4-0.1c1.7,2.1,3.7,3.9,5.9,5.5C48.3,68.5,47,66.6,45.9,64.7z"/>
	</g>
</g>
<g class="st2">
	<path class="st1" d="M33,78.2h3v0.4l-2.6,3.3h2.7v0.4h-3.3v-0.4l2.6-3.3H33C33,78.6,33,78.2,33,78.2z"/>
	<path class="st1" d="M36.7,78.2h1.8c0.4,0,0.7,0.1,0.9,0.2c0.2,0.2,0.3,0.4,0.3,0.7c0,0.2-0.1,0.4-0.2,0.6
		c-0.2,0.2-0.3,0.2-0.5,0.3c0.2,0.1,0.5,0.2,0.7,0.3c0.2,0.2,0.2,0.4,0.2,0.7c0,0.4-0.2,0.7-0.4,0.9c-0.2,0.2-0.6,0.2-1,0.2h-1.8
		L36.7,78.2L36.7,78.2z M37.2,78.6V80h1.2c0.2,0,0.5-0.1,0.7-0.2c0.2-0.1,0.2-0.3,0.2-0.6s-0.1-0.4-0.2-0.5
		c-0.2-0.1-0.3-0.2-0.7-0.2C38.5,78.6,37.2,78.6,37.2,78.6z M37.2,80.4V82h1.3c0.2,0,0.5-0.1,0.7-0.2c0.2-0.2,0.3-0.3,0.3-0.6
		s-0.1-0.5-0.2-0.6s-0.4-0.2-0.7-0.2L37.2,80.4L37.2,80.4z"/>
	<path class="st1" d="M41.3,81.8c0.1,0.1,0.1,0.2,0.1,0.2c0,0.1,0,0.2-0.1,0.2c-0.1,0.1-0.2,0.1-0.2,0.1s-0.2,0-0.2-0.1
		s-0.1-0.2-0.1-0.2s0-0.2,0.1-0.2c0.1-0.1,0.2-0.1,0.2-0.1C41.1,81.7,41.2,81.7,41.3,81.8z"/>
	<path class="st1" d="M45.2,78.5c0.3,0.2,0.5,0.6,0.6,1h-0.5c-0.1-0.3-0.2-0.5-0.4-0.7c-0.2-0.2-0.5-0.2-0.8-0.2
		c-0.5,0-0.8,0.2-1.1,0.5s-0.3,0.7-0.3,1.2s0.1,0.9,0.3,1.2c0.2,0.3,0.7,0.5,1.1,0.5c0.3,0,0.6-0.1,0.8-0.2s0.4-0.5,0.5-0.8h0.4
		c-0.1,0.5-0.3,0.8-0.7,1.2c-0.3,0.2-0.7,0.4-1.2,0.4c-0.7,0-1.2-0.2-1.5-0.7c-0.3-0.4-0.5-0.9-0.5-1.5c0-0.6,0.2-1.2,0.5-1.5
		c0.3-0.4,0.8-0.7,1.5-0.7C44.4,78.1,44.8,78.2,45.2,78.5z"/>
	<path class="st1" d="M49.7,78.7c0.3,0.4,0.5,0.9,0.5,1.6c0,0.6-0.2,1.2-0.5,1.5c-0.3,0.4-0.8,0.6-1.5,0.6c-0.6,0-1.1-0.2-1.5-0.6
		c-0.3-0.4-0.5-0.9-0.5-1.5c0-0.7,0.2-1.2,0.5-1.5c0.3-0.4,0.8-0.7,1.5-0.7C48.8,78.1,49.3,78.3,49.7,78.7z M47,79
		c-0.2,0.3-0.4,0.7-0.4,1.2s0.2,0.9,0.4,1.2c0.2,0.3,0.7,0.5,1.2,0.5c0.5,0,0.8-0.2,1.2-0.5c0.2-0.3,0.4-0.7,0.4-1.2
		s-0.2-0.9-0.4-1.2c-0.2-0.3-0.7-0.5-1.1-0.5C47.7,78.5,47.4,78.7,47,79z"/>
	<path class="st1" d="M50.8,78.2h0.6l1.6,3.5l0,0l1.6-3.5h0.6v4.1h-0.5V79l0,0l-1.4,3.3h-0.4L51.4,79l0,0v3.3h-0.5L50.8,78.2
		L50.8,78.2z"/>
</g>
</svg>
