<?xml version="1.0" encoding="utf-8"?>
<!-- Generator: Adobe Illustrator 22.1.0, SVG Export Plug-In . SVG Version: 6.00 Build 0)  -->
<svg version="1.1" id="图层_1" xmlns="http://www.w3.org/2000/svg" xmlns:xlink="http://www.w3.org/1999/xlink" x="0px" y="0px"
	 viewBox="0 0 88 88" style="enable-background:new 0 0 88 88;" xml:space="preserve">
<style type="text/css">
	.st0{fill:#F5BC00;}
	.st1{fill:#FFFFFF;}
	.st2{opacity:0.1;enable-background:new    ;}
</style>
<title>BTC</title>
<circle class="st0" cx="44" cy="44" r="44"/>
<g>
	<polygon class="st1" points="44,27 56,39.1 63,32.1 44,13.1 25,32.1 32,39.1 	"/>
	
		<rect x="15.1" y="39.1" transform="matrix(0.7071 -0.7071 0.7071 0.7071 -25.2571 27.1026)" class="st1" width="9.9" height="9.9"/>
	<polygon class="st1" points="44,61 32,48.9 25,55.9 25,55.9 44,74.9 63,55.9 63,55.9 56,48.9 	"/>
	<rect x="63" y="39.1" transform="matrix(0.7071 -0.7071 0.7071 0.7071 -11.2258 60.9679)" class="st1" width="9.9" height="9.9"/>
	<polygon class="st1" points="44,36.9 38.8,42.1 38.8,42.1 38.2,42.7 36.9,44 36.9,44 36.9,44 44,51.1 51.1,44 51.1,44 51.1,44 
		51.1,44 	"/>
</g>
<g class="st2">
	<path class="st1" d="M30.7,77h3.6v0.5l-3.1,4h3.3V82h-4v-0.5l3.1-4h-2.9C30.7,77.5,30.7,77,30.7,77z"/>
	<path class="st1" d="M35.2,77h2.2c0.5,0,0.8,0.1,1.1,0.3c0.3,0.2,0.4,0.5,0.4,0.9c0,0.3-0.1,0.5-0.2,0.7c-0.2,0.2-0.4,0.3-0.6,0.4
		c0.3,0.1,0.6,0.2,0.8,0.4s0.3,0.5,0.3,0.8c0,0.5-0.2,0.9-0.5,1.1s-0.7,0.3-1.2,0.3h-2.2L35.2,77L35.2,77z M35.8,77.5v1.7h1.5
		c0.3,0,0.6-0.1,0.8-0.2s0.3-0.4,0.3-0.7c0-0.3-0.1-0.5-0.3-0.6s-0.4-0.2-0.8-0.2C37.3,77.5,35.8,77.5,35.8,77.5z M35.8,79.7v1.9
		h1.6c0.3,0,0.6-0.1,0.8-0.2c0.2-0.2,0.4-0.4,0.4-0.7c0-0.3-0.1-0.6-0.3-0.7s-0.5-0.2-0.9-0.2h-1.6V79.7z"/>
	<path class="st1" d="M40.7,81.3c0.1,0.1,0.1,0.2,0.1,0.3s0,0.2-0.1,0.3C40.6,82,40.5,82,40.4,82s-0.2,0-0.3-0.1S40,81.7,40,81.6
		c0-0.1,0-0.2,0.1-0.3c0.1-0.1,0.2-0.1,0.3-0.1C40.5,81.2,40.6,81.2,40.7,81.3z"/>
	<path class="st1" d="M45.4,77.3c0.4,0.3,0.6,0.7,0.7,1.2h-0.6c-0.1-0.4-0.2-0.6-0.5-0.8c-0.3-0.2-0.6-0.3-1-0.3
		c-0.6,0-1,0.2-1.3,0.6s-0.4,0.9-0.4,1.5s0.1,1.1,0.4,1.5c0.3,0.4,0.8,0.6,1.3,0.6c0.4,0,0.7-0.1,1-0.3c0.3-0.2,0.5-0.6,0.6-1h0.5
		c-0.1,0.6-0.4,1-0.8,1.4c-0.4,0.3-0.8,0.5-1.4,0.5c-0.8,0-1.4-0.3-1.8-0.8c-0.4-0.5-0.6-1.1-0.6-1.8c0-0.7,0.2-1.4,0.6-1.8
		c0.4-0.5,1-0.8,1.8-0.8C44.5,76.9,45,77,45.4,77.3z"/>
	<path class="st1" d="M50.9,77.6c0.4,0.5,0.6,1.1,0.6,1.9c0,0.7-0.2,1.4-0.6,1.8c-0.4,0.5-1,0.7-1.8,0.7c-0.7,0-1.3-0.2-1.8-0.7
		c-0.4-0.5-0.6-1.1-0.6-1.8c0-0.8,0.2-1.4,0.6-1.8c0.4-0.5,1-0.8,1.8-0.8C49.8,76.9,50.4,77.1,50.9,77.6z M47.7,78
		c-0.3,0.4-0.5,0.9-0.5,1.5s0.2,1.1,0.5,1.5s0.8,0.6,1.4,0.6c0.6,0,1-0.2,1.4-0.6c0.3-0.4,0.5-0.9,0.5-1.5s-0.2-1.1-0.5-1.5
		s-0.8-0.6-1.3-0.6C48.5,77.4,48.1,77.6,47.7,78z"/>
	<path class="st1" d="M52.3,77H53l1.9,4.3l0,0l1.9-4.3h0.7v5h-0.6v-4l0,0l-1.7,4h-0.5L53,78l0,0v4h-0.6v-5H52.3z"/>
</g>
</svg>
