<?xml version="1.0" encoding="utf-8"?>
<!-- Generator: Adobe Illustrator 22.1.0, SVG Export Plug-In . SVG Version: 6.00 Build 0)  -->
<svg version="1.1" id="图层_1" xmlns="http://www.w3.org/2000/svg" xmlns:xlink="http://www.w3.org/1999/xlink" x="0px" y="0px"
	 viewBox="0 0 88 88" style="enable-background:new 0 0 88 88;" xml:space="preserve">
<style type="text/css">
	.st0{fill:#5563FA;}
	.st1{fill:#FFFFFF;}
	.st2{clip-path:url(#SVGID_2_);}
	.st3{opacity:6.000000e-02;enable-background:new    ;}
</style>
<title>BOT</title>
<g id="图层_2_1_">
	<g id="图层_1-2">
		<circle class="st0" cx="44" cy="44" r="44"/>
		<path class="st1" d="M57.1,67.8v-1.5c-6.2-0.1-11.6-4.4-12.9-10.5c0-0.1-0.1-0.2-0.1,0c-1.4,6-6.7,10.3-12.9,10.5v1.5H57.1z
			 M57.7,40.2c0.9-0.6,1.8-1.3,2.4-2.2c-0.2-0.6-0.5-1.1-0.9-1.6c-0.9,2.9-3.7,4.1-6.4,5.3c-2.1,0.9-4.1,1.8-5.2,3.4
			c-0.1,0.2-0.4,0.2-0.6,0.1c-0.2,0-0.3-0.2-0.2-0.4c0,0,0,0,0,0c1.2-2.7,4.8-7.3,10.2-8.2c-0.1-0.4-0.2-0.7-0.3-1.1
			c-2.3,0.4-4.4,1.4-6.3,2.8l-0.7,0.6c-3.2,2.7-4.6,5.5-4.9,10.4c3-5.2,10.1-7.6,14.4-7.8c0.2,0,0.4,0.1,0.5,0.3
			c0,0.2-0.2,0.3-0.4,0.4c-4.4,0.2-11,2.7-13.7,7.6c1.7-1.2,3.7-1.9,5.8-2.1c3.5-0.3,7.2,0.5,9.1,2.2c0.9-0.8,1.5-1.9,1.9-3
			c-1,0.6-2.2,0.9-3.4,1l0,0c-0.2,0-0.4-0.1-0.4-0.3c0-0.2,0.1-0.4,0.3-0.4c0,0,0,0,0,0c1.4-0.1,2.7-0.6,3.7-1.6
			c0.1-0.5,0.1-1,0-1.5c-2.9,3.1-8.3,3.3-12.1,2.5c-0.2,0-0.4-0.2-0.3-0.4c0.1-0.2,0.3-0.3,0.5-0.2c1.1,0.2,5.6,1,9.1-0.7
			c0.3-0.5,0.5-1.1,0.7-1.6c-1.3,0.9-3.7,1.5-7.1,1.7l0,0c-0.2,0-0.4-0.1-0.4-0.3c0-0.2,0.2-0.4,0.4-0.4c4.5-0.4,7.1-1.2,7.5-2.6
			c0-1-0.1-2.1-0.5-3c-0.7,0.7-1.4,1.3-2.2,1.8c-0.1,0.1-0.2,0.1-0.3,0.1c-0.1,0-0.2,0-0.3-0.1c-0.1-0.1-0.1-0.3,0-0.4
			C57.6,40.3,57.6,40.3,57.7,40.2"/>
		<path class="st1" d="M32.3,34.9c1.4,0.3,2.7,0.7,4,1.3c-0.8-0.9-1.3-1.9-1.6-3.1c0-0.2,0.1-0.4,0.3-0.4c0,0,0,0,0,0
			c0.2-0.1,0.4,0.1,0.5,0.3c0.7,1.9,1.9,3.6,3.4,4.8l0.6,0.5c2,1.6,3.5,3.7,4.3,6.1v-4.9c0-2.7,0-7.2-2.1-9.8
			c-0.1-0.1-0.1-0.3,0-0.4c0,0,0.1,0,0.1,0c0.2-0.1,0.4-0.1,0.6,0.1c0.6,0.8,1,1.7,1.3,2.6v-4.8c0-0.2,0.2-0.4,0.4-0.3
			c0.2,0,0.4,0.1,0.4,0.3V32c0.3-0.9,0.8-1.8,1.4-2.6c0.2-0.2,0.4-0.2,0.6-0.1c0.2,0.1,0.2,0.2,0.2,0.4c0,0,0,0.1,0,0.1
			c-2.1,2.6-2.1,7.1-2.1,9.8v4.9c0.8-2.4,2.3-4.6,4.3-6.1c0.2-0.2,0.4-0.4,0.6-0.5c1.6-1.2,2.8-2.9,3.5-4.8c0.1-0.2,0.3-0.3,0.5-0.3
			c0.2,0,0.3,0.2,0.3,0.3c0,0,0,0,0,0.1c-0.3,1.1-0.9,2.2-1.6,3.1c1.3-0.6,2.6-1,4-1.3c-0.9-1.8-2.4-3.4-4.2-4.4
			c0.6,4-3.3,7.3-5.4,8.2c-0.1,0-0.1,0-0.2,0c-0.1,0-0.3-0.1-0.4-0.2c-0.1-0.1-0.1-0.3,0.1-0.4c0,0,0.1,0,0.1,0
			c2.3-1.1,4.1-3.1,4.8-5.6v-0.1c-0.4-0.8-0.9-1.5-1.6-2c-1.5,1-2.4,2.8-2.3,4.6c0.8-0.7,1.4-1.7,1.7-2.7c0.1-0.2,0.3-0.3,0.5-0.3
			c0.2,0,0.4,0.2,0.3,0.4s-1,3.1-2.9,3.5h-0.1c-0.1,0-0.2,0-0.3-0.1c-0.1,0-0.2-0.1-0.2-0.2c-0.3-2.2,0.7-4.4,2.5-5.7l-0.4-0.4
			c-1.8-1.3-3.3-3.1-4.2-5.2c-0.9,2.1-2.3,3.9-4.2,5.2l-0.4,0.4c1.8,1.3,2.8,3.5,2.5,5.7c0,0.1-0.1,0.2-0.2,0.2
			c-0.1,0-0.2,0.1-0.2,0.1h-0.1c-1.9-0.4-2.9-3.5-2.9-3.5s0.1-0.4,0.3-0.4c0.2-0.1,0.4,0.1,0.5,0.3c0.3,1.1,0.9,2,1.7,2.7
			c0.1-1.8-0.8-3.5-2.3-4.6c-0.7,0.5-1.2,1.2-1.6,2v0.1c0.8,2.5,2.5,4.5,4.8,5.6c0.2,0.1,0.3,0.2,0.2,0.4c0,0,0,0.1,0,0.1
			c-0.1,0.1-0.2,0.2-0.4,0.2c-0.1,0-0.1,0-0.2,0c-2-0.9-5.9-4.2-5.4-8.2C34.8,31.5,33.3,33.1,32.3,34.9"/>
		<g>
			<defs>
				<rect id="SVGID_1_" x="17.3" y="13.8" width="54" height="54.1"/>
			</defs>
			<clipPath id="SVGID_2_">
				<use xlink:href="#SVGID_1_"  style="overflow:visible;"/>
			</clipPath>
			<g class="st2">
				<path class="st1" d="M37.3,47.7c2.1,0.1,4.1,0.8,5.7,2.1c-2.7-4.8-9.3-7.3-13.7-7.6c-0.2,0-0.4-0.2-0.4-0.4
					c0-0.2,0.3-0.4,0.5-0.3c4.3,0.2,11.4,2.6,14.4,7.8c-0.3-4.8-1.7-7.7-4.9-10.3c-0.2-0.2-0.4-0.4-0.6-0.6c-1.9-1.4-4-2.4-6.3-2.8
					c-0.1,0.3-0.2,0.7-0.3,1.1c5.4,0.9,9,5.5,10.2,8.2c0.1,0.2,0,0.4-0.2,0.4c0,0,0,0,0,0c-0.2,0.1-0.4,0-0.6-0.1
					c-1.1-1.6-3.1-2.5-5.2-3.4c-2.7-1.2-5.5-2.4-6.4-5.3c-0.4,0.5-0.7,1-0.9,1.6c0.7,0.9,1.5,1.6,2.4,2.2c0.1,0.1,0.2,0.3,0.1,0.4
					c0,0,0,0.1-0.1,0.1c-0.1,0.1-0.2,0.1-0.4,0.1c-0.1,0-0.2,0-0.3-0.1c-0.8-0.5-1.5-1.1-2.2-1.8c-0.3,1-0.4,2-0.3,3.1
					c0.4,1.3,3,2.2,7.5,2.6c0.2,0,0.4,0.2,0.4,0.4c0,0,0,0,0,0c0,0.2-0.2,0.3-0.4,0.3h0c-3.5-0.3-5.8-0.8-7.1-1.7
					c0.2,0.6,0.4,1.1,0.7,1.6c3.5,1.7,8,0.9,9.1,0.7c0.2-0.1,0.4,0,0.5,0.2c0,0.2-0.1,0.4-0.3,0.4c0,0,0,0,0,0
					c-3.9,0.8-9.2,0.6-12.1-2.5c-0.1,0.5-0.1,1,0,1.5c1,1,2.3,1.5,3.7,1.6c0.2,0,0.4,0.2,0.4,0.4c0,0,0,0,0,0
					c-0.1,0.2-0.2,0.3-0.4,0.3h0c-1.2-0.1-2.3-0.5-3.4-1c0.4,1.1,1,2.2,1.9,3C30.2,48.2,33.8,47.3,37.3,47.7"/>
				<path class="st1" d="M70.7,45.5c-4.3-14.1-21.5-27-26.4-31.7c-4.9,4.7-22.2,17.6-26.4,31.7c-0.5,1.7-0.7,3.5-0.4,5.2
					c0.8,6.8,6.6,11.8,13.5,11.7c6.3,0,11.8-4.3,13.3-10.4l0,0h-0.3l0,0l0,0c-1-0.7-2.2-1.1-3.4-1c-1.9,0-3.5,1.1-4.4,2.7
					c-0.1,0.1-0.2,0.2-0.4,0.2c-0.1,0-0.1,0-0.2,0c-0.2,0-0.3-0.2-0.3-0.4c0,0,0-0.1,0-0.1c1-1.9,3-3.1,5.1-3.1c0.8,0,1.6,0,2.4,0.2
					c-1.6-1.3-3.6-2.1-5.6-2.2c-3.2-0.3-6.6,0.5-8.4,2c0.4,0.3,0.8,0.5,1.2,0.7h0.1c2.5,0.1,5.4-0.4,6.8-1.4c-1.7-0.2-3.4,0-4.9,0.8
					c-0.2,0.1-0.5,0-0.6-0.1c-0.1-0.1-0.1-0.3,0.1-0.4c0,0,0.1,0,0.1,0c2-0.9,4.2-1.2,6.3-0.7c0.1,0,0.2,0.1,0.3,0.2
					c0,0.1,0,0.2-0.1,0.3c-1.9,2-7.6,2.6-10.9,1.8c0.5,0.6,1,1.1,1.7,1.6c1.1,0.6,3.4,0,4.7-0.6c0.2-0.1,0.4,0,0.6,0.1
					c0.1,0.1,0.1,0.3-0.1,0.4c0,0-0.1,0-0.1,0c-1.1,0.5-2.3,0.8-3.5,0.9c1.8,0.7,3.6,1.1,5.6,1c0.2,0,0.4,0.1,0.5,0.3
					c0,0.2-0.2,0.4-0.4,0.4c0,0,0,0,0,0h-0.5c-2.5,0.1-5.1-0.6-7.2-2l-0.1,0c0,0-0.1-0.1-0.1-0.1c-1-0.7-1.8-1.6-2.3-2.6
					c-0.1-0.1,0-0.3,0.1-0.4c0.2-0.1,0.3-0.1,0.5,0c0.6,0.2,1.2,0.4,1.8,0.5c-1.7-1.2-2.9-3.1-3.2-5.2c0,0,0-0.1,0-0.1
					c-0.1-0.9,0-1.7,0.3-2.5c0.1-0.1,0.2-0.2,0.4-0.2c0.2,0,0.3,0,0.4,0.2c0.4,0.5,0.8,0.9,1.3,1.3c-0.3-0.8-0.5-1.6-0.5-2.4
					c0,0,0,0,0-0.1c0,0,0-0.1,0-0.1c-0.2-2.4,0.7-4.7,2.3-6.5c0.1-0.1,0.3-0.2,0.5-0.1c0.2,0,0.3,0.1,0.3,0.3
					c0.1,0.6,0.3,1.2,0.6,1.8c0-0.1,0-0.3,0-0.4l0,0c0.1-0.6,0.2-1.2,0.5-1.8l0,0c0,0,0,0,0-0.1c1.1-2.4,3.1-4.4,5.6-5.5
					c0.2-0.1,0.3-0.1,0.5,0c0.1,0.1,0.2,0.2,0.2,0.4c-0.1,0.4-0.2,0.9-0.2,1.3c0.6-0.8,1.4-1.5,2.1-2.1c1.8-1.6,3.8-3.3,4.4-6.5
					v-0.1l0,0l0,0l0,0l0,0c0.1-0.1,0.2-0.2,0.3-0.2h0.2c0.1,0,0.2,0.1,0.2,0.1l0,0l0,0l0,0l0,0l0,0l0,0l0,0l0,0l0,0
					c0.6,3.1,2.6,4.9,4.4,6.5c0.8,0.6,1.5,1.3,2.1,2.1c0-0.4-0.1-0.9-0.2-1.3c0-0.1,0-0.3,0.2-0.4c0.2-0.1,0.3-0.1,0.5,0
					c2.5,1.1,4.6,3.1,5.8,5.5c0,0,0,0,0,0.1l0,0c0.2,0.6,0.4,1.1,0.5,1.7l0,0c0,0.1,0,0.3,0,0.4c0.3-0.5,0.5-1.1,0.6-1.8
					c0-0.2,0.2-0.3,0.3-0.3c0.2,0,0.3,0,0.5,0.1c1.6,1.7,2.5,4.1,2.3,6.5c0,0,0,0.1,0,0.1c0,0,0,0,0,0.1c-0.1,0.8-0.2,1.6-0.5,2.3
					c0.5-0.4,1-0.8,1.4-1.2c0.1-0.1,0.3-0.2,0.4-0.2c0.2,0,0.3,0.1,0.4,0.2c0.3,0.8,0.4,1.7,0.3,2.5c0,0,0,0.1,0,0.1
					c-0.3,2.1-1.5,4-3.2,5.2c0.6-0.1,1.2-0.2,1.8-0.5c0.2-0.1,0.3-0.1,0.5,0c0.1,0.1,0.2,0.2,0.1,0.4c-0.5,1-1.3,1.9-2.2,2.5
					c0,0-0.1,0.1-0.1,0.1h-0.1c-2.1,1.4-4.6,2.1-7.2,2h-0.5c-0.2,0-0.4-0.1-0.4-0.4c0,0,0,0,0,0c0-0.2,0.2-0.4,0.5-0.3
					c1.9,0.1,3.8-0.3,5.5-1c-1.2-0.1-2.4-0.4-3.5-0.9c-0.2-0.1-0.3-0.2-0.2-0.4c0,0,0-0.1,0-0.1c0.2-0.2,0.4-0.2,0.6-0.1
					c1.3,0.6,3.5,1.2,4.7,0.6c0.6-0.4,1.2-1,1.6-1.6c-3.3,0.8-9,0.2-10.9-1.8c-0.1-0.1-0.1-0.2-0.1-0.3c0.1-0.1,0.2-0.2,0.3-0.2
					c2.1-0.5,4.3-0.2,6.3,0.7c0.2,0.1,0.3,0.2,0.2,0.4c0,0,0,0.1,0,0.1c-0.1,0.2-0.4,0.2-0.6,0.1c-1.5-0.7-3.2-1-4.9-0.8
					c1.5,1,4.3,1.5,6.8,1.4l0.1-0.1c0.4-0.2,0.8-0.4,1.2-0.7c-1.7-1.4-5.2-2.3-8.4-2c-2.1,0.1-4,0.9-5.6,2.2
					c0.8-0.2,1.6-0.3,2.4-0.2c2.1,0.1,4.1,1.3,5.1,3.2c0.1,0.2,0,0.4-0.2,0.4c0,0,0,0-0.1,0h-0.2c-0.2,0-0.3-0.1-0.4-0.2
					c-0.8-1.6-2.5-2.7-4.4-2.7c-1.2-0.1-2.4,0.2-3.4,0.8l0,0l0,0l0,0h-0.3l0,0c1.8,7.3,9.2,11.8,16.5,10.1c4.4-1.1,8-4.3,9.6-8.6
					c1-2.6,1.1-5.4,0.2-8"/>
			</g>
		</g>
		<path class="st1" d="M36.2,41.2c1.2,0.5,2.3,1,3.4,1.7c-1.9-2.8-4.8-4.7-8.1-5.4c0,0.4,0,0.7,0.1,1.1v0.1
			C32.9,39.7,34.5,40.6,36.2,41.2 M56.8,38.5c0.1-0.4,0.1-0.7,0.1-1.1c-3.3,0.7-6.2,2.6-8.1,5.4c1.1-0.6,2.2-1.2,3.4-1.7
			C53.8,40.6,55.4,39.7,56.8,38.5L56.8,38.5"/>
	</g>
</g>
<g class="st3">
	<path class="st1" d="M30.7,73.2h3.6v0.5l-3.1,4h3.3v0.5h-4v-0.5l3.1-4h-2.9C30.7,73.8,30.7,73.2,30.7,73.2z"/>
	<path class="st1" d="M35.2,73.2h2.2c0.5,0,0.8,0.1,1.1,0.3c0.3,0.2,0.4,0.5,0.4,0.9c0,0.3-0.1,0.5-0.2,0.7
		c-0.2,0.2-0.4,0.3-0.6,0.4c0.3,0.1,0.6,0.2,0.8,0.4s0.3,0.5,0.3,0.8c0,0.5-0.2,0.9-0.5,1.1s-0.7,0.3-1.2,0.3h-2.2L35.2,73.2
		L35.2,73.2z M35.8,73.8v1.7h1.5c0.3,0,0.6-0.1,0.8-0.2s0.3-0.4,0.3-0.7c0-0.3-0.1-0.5-0.3-0.6s-0.4-0.2-0.8-0.2
		C37.3,73.8,35.8,73.8,35.8,73.8z M35.8,76v1.9h1.6c0.3,0,0.6-0.1,0.8-0.2c0.2-0.2,0.4-0.4,0.4-0.7c0-0.3-0.1-0.6-0.3-0.7
		s-0.5-0.2-0.9-0.2h-1.6V76z"/>
	<path class="st1" d="M40.7,77.6c0.1,0.1,0.1,0.2,0.1,0.3s0,0.2-0.1,0.3c-0.1,0.1-0.2,0.1-0.3,0.1s-0.2,0-0.3-0.1S40,78,40,77.9
		c0-0.1,0-0.2,0.1-0.3c0.1-0.1,0.2-0.1,0.3-0.1C40.5,77.5,40.6,77.5,40.7,77.6z"/>
	<path class="st1" d="M45.4,73.6c0.4,0.3,0.6,0.7,0.7,1.2h-0.6c-0.1-0.4-0.2-0.6-0.5-0.8c-0.3-0.2-0.6-0.3-1-0.3
		c-0.6,0-1,0.2-1.3,0.6s-0.4,0.9-0.4,1.5s0.1,1.1,0.4,1.5c0.3,0.4,0.8,0.6,1.3,0.6c0.4,0,0.7-0.1,1-0.3c0.3-0.2,0.5-0.6,0.6-1h0.5
		c-0.1,0.6-0.4,1-0.8,1.4c-0.4,0.3-0.8,0.5-1.4,0.5c-0.8,0-1.4-0.3-1.8-0.8c-0.4-0.5-0.6-1.1-0.6-1.8c0-0.7,0.2-1.4,0.6-1.8
		c0.4-0.5,1-0.8,1.8-0.8C44.5,73.2,45,73.2,45.4,73.6z"/>
	<path class="st1" d="M50.9,73.8c0.4,0.5,0.6,1.1,0.6,1.9c0,0.7-0.2,1.4-0.6,1.8c-0.4,0.5-1,0.7-1.8,0.7c-0.7,0-1.3-0.2-1.8-0.7
		c-0.4-0.5-0.6-1.1-0.6-1.8c0-0.8,0.2-1.4,0.6-1.8c0.4-0.5,1-0.8,1.8-0.8C49.8,73.2,50.4,73.3,50.9,73.8z M47.7,74.2
		c-0.3,0.4-0.5,0.9-0.5,1.5s0.2,1.1,0.5,1.5s0.8,0.6,1.4,0.6c0.6,0,1-0.2,1.4-0.6c0.3-0.4,0.5-0.9,0.5-1.5s-0.2-1.1-0.5-1.5
		s-0.8-0.6-1.3-0.6C48.5,73.7,48.1,73.8,47.7,74.2z"/>
	<path class="st1" d="M52.3,73.2H53l1.9,4.3l0,0l1.9-4.3h0.7v5h-0.6v-4l0,0l-1.7,4h-0.5l-1.7-4l0,0v4h-0.6v-5H52.3z"/>
</g>
</svg>
