<?xml version="1.0" encoding="utf-8"?>
<!-- Generator: Adobe Illustrator 22.1.0, SVG Export Plug-In . SVG Version: 6.00 Build 0)  -->
<svg version="1.1" id="图层_1" xmlns="http://www.w3.org/2000/svg" xmlns:xlink="http://www.w3.org/1999/xlink" x="0px" y="0px"
	 viewBox="0 0 64 64" style="enable-background:new 0 0 64 64;" xml:space="preserve">
<style type="text/css">
	.st0{opacity:6.000000e-02;fill:#F2F2F2;}
	.st1{font-family:'ArialMT';}
	.st2{font-size:6.2572px;}
</style>
<g>
	<path d="M56.7,35.7v4.7c0,1.7-1.4,3.1-3.1,3.1c-1.7,0-3.1-1.4-3.1-3.1v-4.7l-4.1,0c-0.7,2.6-1.9,5-3.8,6.9C39.8,45.5,36,47,32,47.1
		c-4,0-7.7-1.5-10.5-4.4c-2.8-2.8-4.4-6.6-4.4-10.6c0-4,1.5-7.8,4.3-10.7C24.3,18.5,28,17,32,16.9c4,0,7.7,1.5,10.5,4.4
		c1.9,1.9,3.2,4.3,3.8,6.9L64,28.1C62,12.3,48.5,0,32.1,0C14.4,0,0,14.3,0,32c0,17.7,14.4,32,32.1,32C48.6,64,62.2,51.6,64,35.7l0,0
		L56.7,35.7z"/>
	<ellipse cx="32.1" cy="32" rx="5.5" ry="5.5"/>
</g>
<text transform="matrix(1 0 0 1 25.5688 60.9678)" class="st0 st1 st2">XT</text>
</svg>
