<?xml version="1.0" encoding="UTF-8"?>
<svg width="879px" height="879px" viewBox="0 0 879 879" version="1.1" xmlns="http://www.w3.org/2000/svg" xmlns:xlink="http://www.w3.org/1999/xlink">
    <!-- Generator: Sketch 50.2 (55047) - http://www.bohemiancoding.com/sketch -->
    <title>Group</title>
    <desc>Created with Sketch.</desc>
    <defs></defs>
    <g id="Page-1" stroke="none" stroke-width="1" fill="none" fill-rule="evenodd">
        <g id="画板-copy" transform="translate(-24.000000, -24.000000)">
            <g id="Group" transform="translate(24.000000, 24.000000)">
                <circle id="Oval-Copy" fill="#FFFFFF" cx="439.5" cy="439.5" r="439.5"></circle>
                <g id="Group-2" transform="translate(123.000000, 171.000000)">
                    <path d="M607.589765,189.050167 C625.200344,184.686353 628.783303,195.482835 634,205.092269 C622.011736,208.031625 609.674191,202.921668 598.418293,211.626684 C607.499628,216.476622 614.214858,223.067563 617.820351,232.597861 C619.161144,236.147699 620.918821,239.35838 618.214702,242.614283 C614.417667,247.192895 613.797973,240.127135 610.958647,240.364545 C599.623879,241.302877 598.519697,228.177521 590.215796,225.034671 C585.968075,223.440635 579.59086,217.132325 577.878251,221.405696 C575.53468,227.284409 562.746448,231.625612 573.889674,241.121994 C561.326785,238.442658 552.369389,226.696538 557.642422,218.262846 C567.050505,203.226908 556.853721,204.006968 546.532997,202.446848 C549.090644,227.680092 548.944171,252.302853 544.392236,276.903004 C528.663273,361.997369 452.576107,433.536779 366.709042,442.840972 C356.884074,443.903662 351.408232,446.684745 348.704112,457.006408 C346.112664,466.977609 337.313008,472.78849 327.240163,478.079331 C326.248652,473.28592 329.414726,466.310601 322.586824,465.078332 C315.094159,463.721707 314.418129,470.143069 312.716787,475.275638 C311.11685,480.102965 307.984578,483.924128 302.677743,486.863485 C296.796283,468.36815 288.436046,482.669249 280.143413,484.670273 C303.410109,502.724703 308.525402,523.808932 292.526027,541.671174 C297.100496,519.637307 274.092945,523.051483 267.918539,511.14709 C259.411829,517.353653 247.705244,519.026826 241.913921,528.930195 C239.221069,533.542723 237.50846,538.777039 235.705713,543.853081 C233.148067,551.099725 231.852343,559.284701 221.069666,558.052433 C214.027688,557.249762 220.404903,564.089418 216.078312,566 C203.132339,543.536535 212.472819,526.850035 233.328342,512.401969 C222.252718,510.841849 215.222007,510.039178 208.281434,508.818215 C201.892951,507.687693 196.777658,509.372171 192.620074,514.357771 C190.310305,517.138854 187.685056,520.666082 183.85422,519.818191 C172.215238,517.251907 173.172947,525.436883 172.541986,534.232342 C166.480251,524.622908 162.15366,513.826426 167.099945,506.715445 C177.76995,491.396876 195.211522,488.966255 213.655871,489.791536 C200.540891,478.802865 185.273882,472.257145 170.367423,465.168774 C174.310931,458.091709 191.279281,450.901591 201.430997,453.727895 C214.320634,457.311649 218.15147,471.850157 229.565108,478.24891 C229.869322,461.031065 215.526221,439.754648 201.746478,436.329167 C212.393949,425.623127 223.492107,435.062983 232.97906,437.109227 C244.595507,439.618985 243.265981,456.07938 252.978278,464.569598 C256.448564,455.434983 259.456898,446.334284 263.366604,437.663183 C265.84538,432.146237 262.014544,431.320956 258.938608,430.190434 C238.545039,422.695076 219.537332,412.610823 201.397196,400.683819 C198.366328,398.694101 194.163676,394.477256 190.659587,398.479302 C186.997759,402.639622 194.062271,404.550203 195.211522,408.167873 C180.868421,409.558414 172.192704,402.503959 168.699883,382.855493 C166.187305,368.712667 157.883404,360.052871 148.554191,350.850425 C144.30647,356.830885 152.024478,361.499939 147.731688,368.418732 C127.540928,349.505104 136.949011,320.755939 123.158001,301.096167 C120.397546,303.922472 123.845298,308.263675 122.470704,312.95534 C115.473795,309.778574 114.718895,303.718978 114.414681,298.37161 C113.94146,290.310991 113.524575,281.888605 115.248451,274.09931 C120.93837,248.334722 116.352634,219.822966 135.540616,197.472553 C139.055971,193.36876 133.658999,187.060449 139.02217,180.955632 C159.765021,157.339035 164.170482,155.756304 200.022602,167.615476 C194.174943,180.039909 193.127097,194.71408 181.330375,204.266988 C176.800974,207.918573 176.767173,212.271082 181.792328,216.533148 C188.394887,222.117925 192.259525,228.007943 189.476535,238.284385 C187.425911,245.824964 190.197634,253.512511 199.740922,259.029457 C207.492732,263.495017 211.379904,274.494993 217.182494,282.453865 C228.675002,298.235948 237.238048,302.916307 255.851405,296.698438 C263.524344,294.132154 264.425717,296.370587 265.935517,303.07458 C270.960673,325.424993 282.926402,343.807275 300.987668,357.769218 C323.499464,375.179251 348.35483,370.272787 362.912008,345.650026 C371.891938,330.478425 380.026831,314.775479 395.383977,304.781668 C397.55854,303.368516 400.026049,302.384962 403.462535,300.643959 C405.107541,308.308896 399.564096,316.606924 406.346929,321.558609 C421.332259,315.906001 426.188407,304.532953 427.224986,289.790951 C427.84468,280.950272 432.621958,272.991399 439.810409,263.709817 C440.768118,270.786882 441.387813,275.320274 442.041308,280.170212 C454.423923,277.230855 459.009659,270.447726 457.420988,257.842409 C456.192867,248.19906 456.215402,237.877397 463.617929,229.681115 C468.868428,230.291597 463.201044,240.228882 470.378228,238.024365 C476.101948,236.260751 480.518677,232.224789 479.741243,224.96684 C478.569457,213.785981 477.465275,202.559901 481.42005,191.83125 C486.783221,191.356431 483.718552,200.287552 488.225418,197.800404 C493.205505,195.075847 497.543363,190.090247 495.751884,183.329727 C493.419581,174.534269 491.177415,165.750116 492.552009,156.638111 C493.02523,153.461345 489.814088,146.587774 499.639056,150.521989 C505.06983,152.692591 503.976915,143.444924 503.176946,139.160247 C501.036185,127.583705 498.602477,116.165436 506.489492,102 C514.117363,142.088298 547.986462,157.406866 574.013613,183.476695 C572.920698,167.886802 572.864362,153.280462 592.390359,150.533294 C590.136926,163.534293 594.97054,168.644251 608.581276,167.106742 C619.510426,165.863168 619.972379,167.773749 614.665545,177.564067 C613.854309,179.090271 613.933179,181.1026 613.121943,182.628804 C612.321974,184.121093 610.902312,185.28553 607.589765,189.050167" id="Fill-10-Copy-2" fill="#E9B200"></path>
                    <path d="M165.818878,52.3904431 C170.19605,41.306449 179.624685,36.0262348 190.493329,38.8557167 C203.110556,42.141926 210.790608,35.5360883 219.99067,31.2250273 C218.139229,24.6191896 212.904908,28.1838912 209.030596,26.345842 C217.03065,13.4683574 229.133588,14.170158 240.242234,18.1693077 C247.362281,20.7314369 253.168035,21.2772819 259.499506,18.2695649 C261.945236,17.0998972 267.202414,18.5257778 266.185265,13.6800116 C265.408117,9.92593519 260.31094,12.866814 257.625207,9.98163365 C265.750976,1.2592544 276.219618,1.88307719 284.90539,6.36123358 C294.025451,11.0510441 302.848367,13.1787254 312.711291,12.8111156 C314.688447,7.06303421 308.596977,6.79568159 306.059817,3.69884707 C307.282683,2.72969382 308.116974,1.5711658 309.202696,1.28153379 C318.12847,-1.06894133 327.534247,-0.589934555 333.477144,6.14957942 C340.78005,14.45979 349.728681,15.4846418 359.363032,16.3535378 C360.083036,10.9619266 355.191575,10.0373321 352.27727,7.54204099 C362.597339,2.4512015 376.437432,5.44777879 382.048898,16.4315156 C386.688929,25.4992253 393.820405,28.7185965 402.380463,31.6037768 C406.449061,25.2318727 399.054726,23.4049631 396.814711,17.8128375 C410.711947,16.164163 420.163439,21.778568 425.546332,32.7177461 C429.580645,40.9499789 436.117831,45.1719223 443.626453,49.4495643 C447.957911,41.5292429 440.289288,39.0228121 437.283553,33.9765314 C458.197979,32.5172316 458.437981,54.9525724 471.203781,62.2713504 C475.900955,57.2250697 468.266618,53.7606253 470.769492,49.4495643 C490.632482,59.0742586 500.209689,82.0554443 497.569671,102.619317 C494.62108,125.734179 480.586701,146.487426 483.535292,170.60486 C484.266725,176.575735 476.289529,177.589447 475.558095,182.268118 C472.64379,200.826846 462.369436,215.5201 450.826501,229.734348 C449.009346,231.973426 448.689344,235.348753 445.043605,238 C445.717896,231.984566 446.643616,225.991411 447.03219,219.964838 C448.037911,204.6589 441.775012,189.932227 441.295009,175.394928 C440.837863,162.027297 451.969366,148.826761 450.152211,133.765897 C449.99221,132.440274 450.106496,131.081231 450.015067,129.755608 C449.043632,115.429963 442.540731,106.050342 432.632094,106.228577 C418.986288,106.47365 413.946254,115.407684 412.46053,127.226898 C412.243386,128.831013 411.78624,130.41285 411.169093,133.30917 C392.106108,118.693893 371.96883,109.136037 348.437244,107.231149 C330.345694,105.76071 313.065579,108.200303 296.322609,114.973236 C291.911151,116.755587 287.991125,119.796723 282.436802,116.287719 C259.076646,101.561046 232.173608,98.4307923 205.442001,95.0666052 C191.739052,93.3288131 178.756108,89.5858765 166.264595,83.8266554 C158.001683,80.0057409 154.047371,76.162547 163.464577,69.3004964 C166.001736,67.4513074 168.207466,65.0896926 170.264622,62.7057984 C172.401779,60.2327866 177.510385,59.2524937 175.544658,54.5069847 C173.49893,49.5832406 168.836041,56.0999607 165.818878,52.3904431" id="Fill-21-Copy-2" fill="#E9B200"></path>
                    <path d="M390.442615,221.222242 C382.230372,214.754868 375.592143,208.556502 370.607768,221.132573 C369.227655,224.584828 365.669016,222.443981 364.026568,220.314344 C360.513553,215.79727 357.126003,220.291927 354.822013,220.011711 C343.975009,218.700303 339.595146,227.577529 333.116599,231.937682 C327.584741,228.888938 334.873107,224.898669 330.44762,222.040471 C329.706237,222.37673 328.177848,222.567276 327.664583,223.374297 C319.543587,236.465965 323.980479,249.299834 328.862201,261.9992 C335.101224,278.262907 344.579521,293.293666 347.716142,310.779112 C349.176096,318.882944 349.41562,326.785021 346.461493,334.575012 C341.408683,347.846017 327.356623,353.539996 314.125788,347.733931 C298.077697,340.694918 282.006795,319.364915 279.018451,300.960362 C284.88108,300.657729 286.15854,305.623147 288.348471,309.030568 C292.751146,315.901452 297.507403,322.447285 303.700802,327.816214 C310.624179,333.824034 318.642522,337.634965 327.288188,332.288453 C335.671519,327.087654 336.686644,318.580312 334.245783,309.590999 C331.519774,299.559284 326.455558,290.536345 321.414153,281.535824 C313.464246,267.345712 306.198693,252.886592 305.183568,236.387504 C304.852797,230.917698 302.480372,230.469353 297.553026,230.0098 C287.972077,229.124319 276.839925,230.514188 272.323192,218.139872 C271.501968,215.886939 267.988953,212.815777 264.544373,215.685184 C261.464782,218.240749 260.130293,222.825075 263.141449,225.223719 C270.509655,231.108244 272.813645,247.831505 288.519559,237.698913 C289.48906,237.082439 292.967857,238.023963 293.241599,238.864609 C296.332596,248.537648 302.605837,258.59178 299.45781,268.287236 C296.32119,277.971483 286.648993,282.723938 275.665119,282.410096 C274.307817,279.977826 275.893236,278.913007 277.090855,277.814562 C280.79777,274.429559 286.204163,269.934903 282.46303,265.686836 C279.223757,262.021617 272.266163,263.187314 267.373035,266.572317 C263.643308,269.150299 260.187322,272.131792 256.332131,274.496811 C244.219073,281.928126 232.17445,279.406186 224.829056,267.390546 C221.190576,261.42756 212.111485,257.986514 218.23645,246.923607 C220.563252,242.709166 211.313073,234.044903 201.344323,240.019097 C199.211421,231.074619 205.701374,227.667198 211.928991,223.239793 C209.374071,221.816299 207.754434,221.244659 206.579627,220.202258 C201.811964,215.920565 191.774779,213.891805 194.010334,206.471699 C196.166048,199.286973 205.051238,196.339106 212.852868,194.781108 C222.479442,192.853226 230.714496,195.599338 248.051453,206.325987 C239.177668,187.013535 220.882617,187.484297 205.245138,182.283498 C212.761621,171.556849 227.999894,177.284453 236.588531,167.555371 C217.951302,154.889631 196.747748,150.260471 175.601223,145.530434 C148.626288,139.488988 122.84897,131.228235 103.687071,109.965484 C97.3910184,102.971305 91.3915189,95.8426233 90,85.2953122 C95.8968464,85.1720174 98.6684783,88.9044877 101.588387,91.8523547 C121.639946,112.207208 146.721504,121.510362 174.779999,124.088345 C200.591534,126.464572 226.699622,127.125881 250.321225,139.814038 C254.952018,142.302351 259.83374,141.125446 264.840927,136.978257 C249.340319,125.657551 231.809462,121.93629 213.95924,118.988423 C196.918837,116.175059 179.445009,116.08539 162.735377,111.097555 C147.143522,106.457186 133.205521,99.1827919 123.008653,86.3825483 C118.902532,81.2377919 114.385798,75.7343597 117.237271,68.3142536 C119.358767,67.7538226 121.092463,67.8322829 122.381329,69.4687414 C143.755971,96.6272266 173.616598,106.905531 206.830557,110.525915 C232.893022,113.350487 258.191291,118.338323 279.508904,134.871037 C280.866205,135.913438 282.588495,136.922214 284.24235,137.090343 C304.020167,139.119103 307.578806,141.887633 305.046698,159.373079 C303.176131,172.19574 304.647491,178.595862 319.714675,175.19965 C322.931137,174.482298 326.946011,175.84975 330.242314,177.105115 C341.591177,181.45406 353.111129,178.820034 358.848293,168.048551 C365.90854,154.856005 376.253685,152.30044 389.701232,154.934466 C394.138124,155.819947 398.734699,156.436421 403.240026,156.414004 C416.493674,156.35796 421.94569,150.731233 422.744103,137.52748 C423.074873,132.169759 420.793695,126.184356 426.793194,119.694566 C431.652105,133.559628 430.659792,145.597686 426.029,157.243441 C423.371427,163.923779 416.539297,165.022223 409.878256,165.011015 C402.122249,165.011015 394.34343,164.372123 386.655859,164.954972 C380.884477,165.403316 375.854478,168.94524 375.10169,174.751305 C374.519989,179.324422 377.428492,183.168978 383.09722,183.729409 C386.576017,184.076877 388.994067,186.251349 389.963567,189.49064 C392.598329,198.278198 398.529393,202.952192 409.456238,202.526264 C403.000503,210.719765 386.427741,203.411745 390.442615,221.222242" id="Fill-23-Copy-2" fill="#E9B200"></path>
                    <path d="M148,146.469119 C120.143658,174.933481 105.363451,209.796461 93.3538089,246.055301 C89.9804441,256.250657 86.3868253,266.356677 80.1037885,275.323677 C69.1142702,291.013135 48.1901347,297.981264 29.8974555,291.705481 C21.2843626,288.768593 14.9549565,283.56483 14.0739403,272.308621 C25.0634586,278.930577 35.3806223,282.861317 50.0796826,273.950152 C25.4228204,275.569348 8.88058145,268.545385 2.18022115,248.433845 C-2.57262958,234.117912 -0.0686887087,220.404991 14.8158487,207.976261 C14.1666788,230.008503 20.716339,246.825815 43.0083681,251.917909 C58.0667903,255.34614 71.2704415,250.432715 82.6772833,236.295453 C71.5138802,240.427196 63.0398951,246.546643 52.5140696,243.989429 C42.8344834,241.644385 33.5954052,238.338991 28.7614083,229.327324 C22.9768412,218.584791 25.1909741,208.858444 35.3806223,200.103615 C41.4897744,212.532345 51.7257919,216.597087 64.778743,215.145394 C78.921372,213.582031 88.4966273,206.602735 93.9334249,193.716163 C100.714931,177.658198 105.943067,161.030723 114.498199,145.620437 C119.471303,136.675771 124.108231,132.387691 134.008071,139.746661 C137.937867,142.683549 143.038488,144.146409 148,146.469119" id="Fill-25-Copy-2" fill="#E9B201"></path>
                    <path d="M382.457941,268.035466 C380.148565,273.690876 383.939893,280.014084 376.023797,284 C371.787882,275.74644 365.180844,271.729221 354.436688,276.779439 C351.843271,278.010691 349.817936,276.268157 348.829967,274.18129 C345.433826,267.033769 340.802724,260.209714 340,250.870983 C346.829331,255.545565 353.43637,257.089847 359.796416,254.168233 C367.095032,250.818811 360.710287,245.382522 361.043726,240.864454 C366.205861,239.821021 368.305294,243.21218 370.701117,245.382522 C373.825567,248.220661 376.431334,246.12336 379.518735,246.112926 C387.138441,246.092057 380.037418,235.042095 386.064025,238.767153 C393.560235,243.399998 402.78539,247.782419 406.490271,255.900333 C407.626435,258.37327 410.763234,263.49653 402.242007,261.086198 C399.932631,260.439269 398.425979,261.493137 398.524776,263.527833 C399.166956,276.935954 390.127045,270.195373 382.457941,268.035466" id="Fill-55-Copy-2" fill="#E9B304"></path>
                    <path d="M67.9331652,206.671614 C68.1855167,212.096814 68.059341,215.096631 61.2802621,213.628636 C54.7764758,212.213828 47.7565159,212.958464 41.0462602,212.150003 C36.3204049,211.57557 34.083653,207.873668 34.0033593,203.863274 C33.8542425,196.172255 38.7062736,202.139975 41.2297886,201.969773 C43.3862468,201.820846 44.6365338,201.023022 45.1412368,199.22526 C46.8732857,193.151163 51.0370854,190.715141 57.4720486,192.651193 C65.2261219,194.991476 66.7631719,201.352789 67.9331652,206.671614" id="Fill-57-Copy-2" fill="#EAB509"></path>
                    <path d="M260,186.913444 C268.209105,186.255569 275.004966,185.440376 281.174084,181.564637 C286.69188,178.089342 290.784144,180.706539 293.278827,186.427188 C295.933268,192.562584 290.612097,194.10716 287.797897,196.452626 C276.516523,205.848792 269.917287,203.71785 260,186.913444" id="Fill-63-Copy-2" fill="#FDF9EE"></path>
                    <path d="M350,194.782587 C361.490117,191.167287 368.632956,191.48967 375.689587,193.400943 C379.334898,194.379607 384.618135,195.496436 383.940797,199.698934 C383.066415,205.213993 376.674806,204.154733 373.103387,203.337261 C366.366952,201.782912 360.049234,198.62816 350,194.782587" id="Fill-65-Copy-2" fill="#FCF7E7"></path>
                </g>
            </g>
        </g>
    </g>
</svg>