<?xml version="1.0" encoding="utf-8"?>
<!-- Generator: Adobe Illustrator 22.1.0, SVG Export Plug-In . SVG Version: 6.00 Build 0)  -->
<svg version="1.1" id="图层_1" xmlns="http://www.w3.org/2000/svg" xmlns:xlink="http://www.w3.org/1999/xlink" x="0px" y="0px"
	 viewBox="0 0 88 88" style="enable-background:new 0 0 88 88;" xml:space="preserve">
<style type="text/css">
	.st0{fill:#F9A629;}
	.st1{fill:#FFFFFF;}
	.st2{opacity:0.1;enable-background:new    ;}
</style>
<title>BTC</title>
<g id="图层_2_1_">
	<g id="图层_1-2">
		<circle class="st0" cx="44" cy="44" r="44"/>
		<g id="比特币">
			<path id="Shape" class="st1" d="M58.5,47.7c1.8-1.5,3.2-3.6,3.8-5.8c1.5-5.8-1.6-11.7-7-13.1l-1.6-0.4l2.2-8.1
				c0.1-0.5-0.2-0.9-0.6-1.1l-2.8-0.8c-0.5-0.1-0.9,0.1-1.1,0.6c0,0,0,0,0,0l-2.2,8.1l-4.6-1.2l2.2-8.1c0.1-0.5-0.2-0.9-0.6-1.1
				c0,0,0,0,0,0l-2.8-0.8c-0.5-0.1-0.9,0.1-1.1,0.6l-2.2,8.1l-9.4-2.5c-0.5-0.1-0.9,0.1-1.1,0.6l-0.8,2.8c-0.1,0.4,0.1,0.9,0.5,1.1
				c3.1,1.1,4.3,3.7,3.6,6.3l-4.6,17.4c-0.4,2.3-2.6,3.8-4.9,3.5c-0.1,0-0.2,0-0.3-0.1c-0.4-0.1-0.8,0.1-1,0.5l-1.3,2.7
				c-0.2,0.4,0,0.9,0.4,1.1c0.1,0,0.1,0,0.2,0.1l9,2.4l-2.2,8.1c-0.1,0.5,0.2,0.9,0.6,1.1l2.9,0.8c0.5,0.1,0.9-0.1,1.1-0.6l2.2-8.1
				l4.6,1.2l-2.2,8.1c-0.1,0.5,0.2,0.9,0.6,1.1l2.8,0.8c0.5,0.1,0.9-0.1,1.1-0.6l2.2-8.1l3.8,1c5.6,1.3,11.3-2.1,12.6-7.7
				C61.4,54.1,60.6,50.4,58.5,47.7z M42.7,32.6l7,1.9c2.6,0.6,4.2,3.2,3.5,5.8c-0.6,2.6-3.2,4.2-5.8,3.5c-0.1,0-0.2,0-0.2-0.1
				l-7-1.9L42.7,32.6z M45.9,57.8l-9.3-2.5l2.5-9.3l9.3,2.5c2.6,0.6,4.2,3.2,3.5,5.8c-0.6,2.6-3.2,4.2-5.8,3.5
				C46,57.8,46,57.8,45.9,57.8L45.9,57.8z"/>
		</g>
	</g>
</g>
<g class="st2">
	<path class="st1" d="M30.7,74.5h3.6V75l-3.1,4h3.3v0.5h-4V79l3.1-4h-2.9C30.7,75,30.7,74.5,30.7,74.5z"/>
	<path class="st1" d="M35.2,74.5h2.2c0.5,0,0.8,0.1,1.1,0.3c0.3,0.2,0.4,0.5,0.4,0.9c0,0.3-0.1,0.5-0.2,0.7
		c-0.2,0.2-0.4,0.3-0.6,0.4c0.3,0.1,0.6,0.2,0.8,0.4s0.3,0.5,0.3,0.8c0,0.5-0.2,0.9-0.5,1.1s-0.7,0.3-1.2,0.3h-2.2L35.2,74.5
		L35.2,74.5z M35.8,75v1.7h1.5c0.3,0,0.6-0.1,0.8-0.2s0.3-0.4,0.3-0.7c0-0.3-0.1-0.5-0.3-0.6S37.7,75,37.3,75
		C37.3,75,35.8,75,35.8,75z M35.8,77.2v1.9h1.6c0.3,0,0.6-0.1,0.8-0.2c0.2-0.2,0.4-0.4,0.4-0.7c0-0.3-0.1-0.6-0.3-0.7
		s-0.5-0.2-0.9-0.2h-1.6V77.2z"/>
	<path class="st1" d="M40.7,78.8c0.1,0.1,0.1,0.2,0.1,0.3s0,0.2-0.1,0.3c-0.1,0.1-0.2,0.1-0.3,0.1s-0.2,0-0.3-0.1S40,79.2,40,79.1
		c0-0.1,0-0.2,0.1-0.3c0.1-0.1,0.2-0.1,0.3-0.1C40.5,78.7,40.6,78.7,40.7,78.8z"/>
	<path class="st1" d="M45.4,74.8c0.4,0.3,0.6,0.7,0.7,1.2h-0.6c-0.1-0.4-0.2-0.6-0.5-0.8c-0.3-0.2-0.6-0.3-1-0.3
		c-0.6,0-1,0.2-1.3,0.6s-0.4,0.9-0.4,1.5s0.1,1.1,0.4,1.5c0.3,0.4,0.8,0.6,1.3,0.6c0.4,0,0.7-0.1,1-0.3c0.3-0.2,0.5-0.6,0.6-1h0.5
		c-0.1,0.6-0.4,1-0.8,1.4c-0.4,0.3-0.8,0.5-1.4,0.5c-0.8,0-1.4-0.3-1.8-0.8c-0.4-0.5-0.6-1.1-0.6-1.8c0-0.7,0.2-1.4,0.6-1.8
		c0.4-0.5,1-0.8,1.8-0.8C44.5,74.4,45,74.5,45.4,74.8z"/>
	<path class="st1" d="M50.9,75.1c0.4,0.5,0.6,1.1,0.6,1.9c0,0.7-0.2,1.4-0.6,1.8c-0.4,0.5-1,0.7-1.8,0.7c-0.7,0-1.3-0.2-1.8-0.7
		c-0.4-0.5-0.6-1.1-0.6-1.8c0-0.8,0.2-1.4,0.6-1.8c0.4-0.5,1-0.8,1.8-0.8C49.8,74.4,50.4,74.6,50.9,75.1z M47.7,75.5
		c-0.3,0.4-0.5,0.9-0.5,1.5s0.2,1.1,0.5,1.5s0.8,0.6,1.4,0.6c0.6,0,1-0.2,1.4-0.6c0.3-0.4,0.5-0.9,0.5-1.5s-0.2-1.1-0.5-1.5
		s-0.8-0.6-1.3-0.6C48.5,74.9,48.1,75.1,47.7,75.5z"/>
	<path class="st1" d="M52.3,74.5H53l1.9,4.3l0,0l1.9-4.3h0.7v5h-0.6v-4l0,0l-1.7,4h-0.5l-1.7-4l0,0v4h-0.6v-5H52.3z"/>
</g>
</svg>
