<?xml version="1.0" encoding="utf-8"?>
<!-- Generator: Adobe Illustrator 22.1.0, SVG Export Plug-In . SVG Version: 6.00 Build 0)  -->
<svg version="1.1" id="图层_1" xmlns="http://www.w3.org/2000/svg" xmlns:xlink="http://www.w3.org/1999/xlink" x="0px" y="0px"
	 viewBox="0 0 88.1 88" style="enable-background:new 0 0 88.1 88;" xml:space="preserve">
<style type="text/css">
	.st0{fill:#F9CF00;}
	.st1{fill:#FFFFFF;}
	.st2{font-family:'ArialMT';}
	.st3{font-size:12px;}
	.st4{fill:#10246D;}
	.st5{opacity:0.18;enable-background:new    ;}
</style>
<title>BCC</title>
<circle class="st0" cx="44" cy="44" r="44"/>
<circle class="st1" cx="44" cy="44" r="33.5"/>
<text class="st2 st3"> </text>
<text transform="matrix(1 0 0 1 4.7883 45.0311)" class="st2 st3"> </text>
<text class="st2 st3"> </text>
<text class="st2 st3"> </text>
<g>
	<path class="st4" d="M44,73.6c-16.3,0-29.6-13.3-29.6-29.6S27.7,14.4,44,14.4S73.7,27.7,73.7,44S60.4,73.6,44,73.6z M44,16.5
		c-15.1,0-27.5,12.3-27.5,27.5c0,15.1,12.3,27.5,27.5,27.5S71.5,59.1,71.5,44S59.2,16.5,44,16.5z"/>
	<path class="st4" d="M56.1,43.1c0,0,1.9-2.3,2.2-6.3c0-7.1-8.9-9-8.9-9v-4.9h-4v4.9H42v-4.9h-4v4.9H27.6l2.6,5.4h3.4v22.3h-3.3
		l-2.7,5.3h10.7v4.4h3.8v-4.3h3.2v4.3h4.3v-4.3c1.2,0,10.7-0.6,10.7-8.4S56.1,43.1,56.1,43.1z M38.4,33.1c0,0,10.4,0,11,0
		s3.7,0.7,3.7,4.1s-2.5,4.1-3.6,4.1s-11.1,0-11.1,0V33.1z M51.3,55.4c-1.1,0-12.9,0-12.9,0v-8.1c0,0,12.2,0,12.8,0s3.7,0.7,3.7,4.1
		C54.9,54.7,52.4,55.4,51.3,55.4z"/>
</g>
<g class="st5">
	<path class="st1" d="M33.1,80.8h3v0.4l-2.6,3.3h2.7v0.4h-3.3v-0.4l2.6-3.3h-2.4C33.1,81.2,33.1,80.8,33.1,80.8z"/>
	<path class="st1" d="M36.8,80.8h1.8c0.4,0,0.7,0.1,0.9,0.2c0.2,0.2,0.3,0.4,0.3,0.7c0,0.2-0.1,0.4-0.2,0.6
		c-0.2,0.2-0.3,0.2-0.5,0.3c0.2,0.1,0.5,0.2,0.7,0.3s0.2,0.4,0.2,0.7c0,0.4-0.2,0.7-0.4,0.9c-0.2,0.2-0.6,0.2-1,0.2h-1.8L36.8,80.8
		L36.8,80.8z M37.3,81.2v1.4h1.2c0.2,0,0.5-0.1,0.7-0.2c0.2-0.1,0.2-0.3,0.2-0.6c0-0.2-0.1-0.4-0.2-0.5c-0.2-0.1-0.3-0.2-0.7-0.2
		C38.5,81.2,37.3,81.2,37.3,81.2z M37.3,83v1.6h1.3c0.2,0,0.5-0.1,0.7-0.2c0.2-0.2,0.3-0.3,0.3-0.6s-0.1-0.5-0.2-0.6
		c-0.2-0.1-0.4-0.2-0.7-0.2L37.3,83L37.3,83z"/>
	<path class="st1" d="M41.3,84.4c0.1,0.1,0.1,0.2,0.1,0.2c0,0.1,0,0.2-0.1,0.2c-0.1,0.1-0.2,0.1-0.2,0.1s-0.2,0-0.2-0.1
		c-0.1-0.1-0.1-0.2-0.1-0.2c0-0.1,0-0.2,0.1-0.2c0.1-0.1,0.2-0.1,0.2-0.1S41.2,84.3,41.3,84.4z"/>
	<path class="st1" d="M45.2,81.1c0.3,0.2,0.5,0.6,0.6,1h-0.5c-0.1-0.3-0.2-0.5-0.4-0.7c-0.2-0.2-0.5-0.2-0.8-0.2
		c-0.5,0-0.8,0.2-1.1,0.5c-0.2,0.3-0.3,0.7-0.3,1.2s0.1,0.9,0.3,1.2s0.7,0.5,1.1,0.5c0.3,0,0.6-0.1,0.8-0.2c0.2-0.2,0.4-0.5,0.5-0.8
		h0.4c-0.1,0.5-0.3,0.8-0.7,1.2c-0.3,0.2-0.7,0.4-1.2,0.4c-0.7,0-1.2-0.2-1.5-0.7C42.2,84,42,83.5,42,83c0-0.6,0.2-1.2,0.5-1.5
		c0.3-0.4,0.8-0.7,1.5-0.7C44.5,80.7,44.9,80.8,45.2,81.1z"/>
	<path class="st1" d="M49.7,81.3c0.3,0.4,0.5,0.9,0.5,1.6c0,0.6-0.2,1.2-0.5,1.5c-0.3,0.4-0.8,0.6-1.5,0.6c-0.6,0-1.1-0.2-1.5-0.6
		c-0.3-0.4-0.5-0.9-0.5-1.5c0-0.7,0.2-1.2,0.5-1.5c0.3-0.4,0.8-0.7,1.5-0.7C48.8,80.7,49.3,80.9,49.7,81.3z M47.1,81.6
		c-0.2,0.3-0.4,0.7-0.4,1.2s0.2,0.9,0.4,1.2c0.2,0.3,0.7,0.5,1.2,0.5s0.8-0.2,1.2-0.5c0.2-0.3,0.4-0.7,0.4-1.2s-0.2-0.9-0.4-1.2
		c-0.2-0.3-0.7-0.5-1.1-0.5C47.8,81.1,47.4,81.3,47.1,81.6z"/>
	<path class="st1" d="M50.9,80.8h0.6l1.6,3.5l0,0l1.6-3.5h0.6v4.1h-0.5v-3.3l0,0l-1.4,3.3h-0.4l-1.4-3.3l0,0v3.3H51L50.9,80.8
		L50.9,80.8z"/>
</g>
</svg>
