<?xml version="1.0" encoding="utf-8"?>
<!-- Generator: Adobe Illustrator 22.1.0, SVG Export Plug-In . SVG Version: 6.00 Build 0)  -->
<svg version="1.1" id="图层_1" xmlns="http://www.w3.org/2000/svg" xmlns:xlink="http://www.w3.org/1999/xlink" x="0px" y="0px"
	 viewBox="0 0 88 88" style="enable-background:new 0 0 88 88;" xml:space="preserve">
<style type="text/css">
	.st0{fill:#070202;}
	.st1{fill:#FFFFFF;}
	.st2{opacity:8.000000e-02;enable-background:new    ;}
</style>
<title>BTM</title>
<g id="图层_2_1_">
	<g id="图层_1-2">
		<circle class="st0" cx="44" cy="44" r="44"/>
		<path class="st1" d="M34,60.8c-0.1-0.1-0.2-0.1-0.3-0.2L29,59.3c-0.1,0-0.3-0.1-0.3-0.3c-0.6-2.3-1.2-4.7-1.9-7
			c-0.1-0.2,0-0.5,0.2-0.6c4.4-4.4,8.8-8.7,13.1-13.1l0.2-0.2l-4.9-4.9c-0.1,0.1-0.1,0.2-0.2,0.2l-3.9,3.9l-12,12
			c-0.2,0.1-0.2,0.3-0.2,0.5c1.3,4.9,2.7,9.8,4,14.8c0,0.2,0.2,0.3,0.3,0.3l14.8,4c0.1,0.1,0.3,0,0.4-0.1l1.6-1.6
			c0.1-0.1,0.1-0.1,0.2-0.2V67L34,60.8z"/>
		<path class="st1" d="M68.7,49.2c-0.6-0.5-1.1-1-1.6-1.6L67,47.8c-2,2.1-4.1,4.1-6.2,6.2c-0.1,0.1-0.2,0.2-0.2,0.4L59.4,59
			c0,0.2-0.1,0.3-0.3,0.3c-2.4,0.6-4.7,1.2-7.1,1.9c-0.2,0.1-0.4,0-0.5-0.1L38.3,47.9c-0.1-0.1-0.2-0.2-0.2-0.3l-4.9,4.9l0.2,0.2
			l16.1,16.1c0.1,0.1,0.2,0.2,0.4,0.1l14.8-4c0.2,0,0.3-0.1,0.3-0.3L68.9,50C69,49.8,69,49.4,68.7,49.2z"/>
		<path class="st1" d="M19.6,39c0.5,0.4,0.9,0.9,1.3,1.3h0.1l6.2-6.3c0.1-0.1,0.2-0.2,0.2-0.4c0.4-1.5,0.8-3.1,1.2-4.6
			c0-0.2,0.2-0.3,0.4-0.4l7-1.9c0.2-0.1,0.4,0,0.5,0.1L49.6,40l0.3,0.3l5-5c-0.1-0.1-0.2-0.1-0.3-0.2L38.8,19.3
			c-0.2-0.3-0.6-0.4-0.9-0.2c-4.8,1.3-9.7,2.6-14.5,3.9c-0.2,0-0.3,0.2-0.3,0.4c-1.2,4.8-2.5,9.5-3.8,14.3
			C18.9,38.1,19.1,38.7,19.6,39L19.6,39z"/>
		<path class="st1" d="M53.9,27.1c0.1,0.1,0.3,0.2,0.5,0.3c1.5,0.4,3.1,0.8,4.6,1.2c0.2,0,0.3,0.2,0.4,0.4l1.9,7
			c0.1,0.2,0,0.4-0.2,0.5L48,49.6c-0.1,0.1-0.2,0.1-0.3,0.2l4.9,4.9l0.2-0.2l16.1-16.1c0.1-0.1,0.1-0.2,0.1-0.3
			c-1.3-5-2.7-9.9-4-14.9c0-0.1-0.1-0.2-0.3-0.3l-6.6-1.8L49.8,19c-0.1,0-0.2,0-0.3,0c-0.6,0.6-1.2,1.2-1.9,1.8l0.3,0.2L53.9,27.1
			L53.9,27.1z"/>
	</g>
</g>
<g class="st2">
	<path class="st1" d="M30.7,74.2h3.6v0.5l-3.1,4h3.3v0.5h-4v-0.5l3.1-4h-2.9C30.7,74.8,30.7,74.2,30.7,74.2z"/>
	<path class="st1" d="M35.2,74.2h2.2c0.5,0,0.8,0.1,1.1,0.3c0.3,0.2,0.4,0.5,0.4,0.9c0,0.3-0.1,0.5-0.2,0.7
		c-0.2,0.2-0.4,0.3-0.6,0.4c0.3,0.1,0.6,0.2,0.8,0.4s0.3,0.5,0.3,0.8c0,0.5-0.2,0.9-0.5,1.1s-0.7,0.3-1.2,0.3h-2.2L35.2,74.2
		L35.2,74.2z M35.8,74.8v1.7h1.5c0.3,0,0.6-0.1,0.8-0.2s0.3-0.4,0.3-0.7c0-0.3-0.1-0.5-0.3-0.6s-0.4-0.2-0.8-0.2
		C37.3,74.8,35.8,74.8,35.8,74.8z M35.8,77v1.9h1.6c0.3,0,0.6-0.1,0.8-0.2c0.2-0.2,0.4-0.4,0.4-0.7c0-0.3-0.1-0.6-0.3-0.7
		s-0.5-0.2-0.9-0.2h-1.6V77z"/>
	<path class="st1" d="M40.7,78.6c0.1,0.1,0.1,0.2,0.1,0.3s0,0.2-0.1,0.3c-0.1,0.1-0.2,0.1-0.3,0.1s-0.2,0-0.3-0.1S40,79,40,78.9
		c0-0.1,0-0.2,0.1-0.3c0.1-0.1,0.2-0.1,0.3-0.1C40.5,78.5,40.6,78.5,40.7,78.6z"/>
	<path class="st1" d="M45.4,74.6c0.4,0.3,0.6,0.7,0.7,1.2h-0.6c-0.1-0.4-0.2-0.6-0.5-0.8c-0.3-0.2-0.6-0.3-1-0.3
		c-0.6,0-1,0.2-1.3,0.6s-0.4,0.9-0.4,1.5s0.1,1.1,0.4,1.5c0.3,0.4,0.8,0.6,1.3,0.6c0.4,0,0.7-0.1,1-0.3c0.3-0.2,0.5-0.6,0.6-1h0.5
		c-0.1,0.6-0.4,1-0.8,1.4c-0.4,0.3-0.8,0.5-1.4,0.5c-0.8,0-1.4-0.3-1.8-0.8c-0.4-0.5-0.6-1.1-0.6-1.8c0-0.7,0.2-1.4,0.6-1.8
		c0.4-0.5,1-0.8,1.8-0.8C44.5,74.2,45,74.2,45.4,74.6z"/>
	<path class="st1" d="M50.9,74.8c0.4,0.5,0.6,1.1,0.6,1.9c0,0.7-0.2,1.4-0.6,1.8c-0.4,0.5-1,0.7-1.8,0.7c-0.7,0-1.3-0.2-1.8-0.7
		c-0.4-0.5-0.6-1.1-0.6-1.8c0-0.8,0.2-1.4,0.6-1.8c0.4-0.5,1-0.8,1.8-0.8C49.8,74.2,50.4,74.3,50.9,74.8z M47.7,75.2
		c-0.3,0.4-0.5,0.9-0.5,1.5s0.2,1.1,0.5,1.5s0.8,0.6,1.4,0.6c0.6,0,1-0.2,1.4-0.6c0.3-0.4,0.5-0.9,0.5-1.5s-0.2-1.1-0.5-1.5
		s-0.8-0.6-1.3-0.6C48.5,74.7,48.1,74.8,47.7,75.2z"/>
	<path class="st1" d="M52.3,74.2H53l1.9,4.3l0,0l1.9-4.3h0.7v5h-0.6v-4l0,0l-1.7,4h-0.5l-1.7-4l0,0v4h-0.6v-5H52.3z"/>
</g>
</svg>
