<?xml version="1.0" encoding="utf-8"?>
<!-- Generator: Adobe Illustrator 22.1.0, SVG Export Plug-In . SVG Version: 6.00 Build 0)  -->
<svg version="1.1" id="图层_1" xmlns="http://www.w3.org/2000/svg" xmlns:xlink="http://www.w3.org/1999/xlink" x="0px" y="0px"
	 viewBox="0 0 88 88" style="enable-background:new 0 0 88 88;" xml:space="preserve">
<style type="text/css">
	.st0{fill:#FA0000;}
	.st1{fill:#FFFFFF;}
	.st2{opacity:0.2;enable-background:new    ;}
</style>
<title>BTP</title>
<g id="图层_2_1_">
	<g id="图层_1-2">
		<circle class="st0" cx="44" cy="44" r="44"/>
		<path class="st1" d="M50.8,21.9H27.9v20.7h4.6V24.1h1.4v18.4h17c5.6,0,10.2-4.6,10.2-10.2v-0.3C61.1,26.4,56.5,21.9,50.8,21.9z
			 M38.3,29.1h7.9c3,0,5.4,2.4,5.4,5.4c0,3-2.4,5.4-5.4,5.4h-7.9V29.1z"/>
		<path class="st1" d="M56.2,41c-0.7-0.1-1.3-0.2-2-0.2H33.8v23.8h-1.4V40.8h-4.6v23.9h26.3c5.7,0,10.2-4.6,10.2-10.3v-3.4
			C64.4,46.2,61,42,56.2,41z M50,55.5c-1,1-2.4,1.6-3.8,1.6h-7.9V46.3h7.9c3,0,5.4,2.5,5.4,5.5C51.6,53.2,51,54.5,50,55.5z"/>
		<rect x="40.9" y="17.5" class="st1" width="3.6" height="4.4"/>
		<rect x="48" y="17.5" class="st1" width="3.6" height="4.4"/>
		<rect x="40.9" y="64.8" class="st1" width="3.6" height="4.4"/>
		<rect x="48" y="64.8" class="st1" width="3.6" height="4.4"/>
		<rect x="27.9" y="64.6" class="st1" width="10.4" height="4.9"/>
		<rect x="24.9" y="68" class="st1" width="3" height="1.5"/>
		<rect x="24.9" y="21.9" class="st1" width="3" height="1.5"/>
	</g>
</g>
<g class="st2">
	<path class="st1" d="M30.7,74.6h3.6v0.5l-3.1,4h3.3v0.5h-4v-0.5l3.1-4h-2.9C30.7,75.1,30.7,74.6,30.7,74.6z"/>
	<path class="st1" d="M35.2,74.6h2.2c0.5,0,0.8,0.1,1.1,0.3c0.3,0.2,0.4,0.5,0.4,0.9c0,0.3-0.1,0.5-0.2,0.7
		c-0.2,0.2-0.4,0.3-0.6,0.4c0.3,0.1,0.6,0.2,0.8,0.4s0.3,0.5,0.3,0.8c0,0.5-0.2,0.9-0.5,1.1s-0.7,0.3-1.2,0.3h-2.2L35.2,74.6
		L35.2,74.6z M35.8,75.1v1.7h1.5c0.3,0,0.6-0.1,0.8-0.2s0.3-0.4,0.3-0.7c0-0.3-0.1-0.5-0.3-0.6s-0.4-0.2-0.8-0.2
		C37.3,75.1,35.8,75.1,35.8,75.1z M35.8,77.3v1.9h1.6c0.3,0,0.6-0.1,0.8-0.2c0.2-0.2,0.4-0.4,0.4-0.7c0-0.3-0.1-0.6-0.3-0.7
		s-0.5-0.2-0.9-0.2h-1.6V77.3z"/>
	<path class="st1" d="M40.7,78.9c0.1,0.1,0.1,0.2,0.1,0.3s0,0.2-0.1,0.3c-0.1,0.1-0.2,0.1-0.3,0.1s-0.2,0-0.3-0.1S40,79.3,40,79.2
		c0-0.1,0-0.2,0.1-0.3c0.1-0.1,0.2-0.1,0.3-0.1C40.5,78.8,40.6,78.8,40.7,78.9z"/>
	<path class="st1" d="M45.4,74.9c0.4,0.3,0.6,0.7,0.7,1.2h-0.6c-0.1-0.4-0.2-0.6-0.5-0.8c-0.3-0.2-0.6-0.3-1-0.3
		c-0.6,0-1,0.2-1.3,0.6s-0.4,0.9-0.4,1.5s0.1,1.1,0.4,1.5c0.3,0.4,0.8,0.6,1.3,0.6c0.4,0,0.7-0.1,1-0.3c0.3-0.2,0.5-0.6,0.6-1h0.5
		c-0.1,0.6-0.4,1-0.8,1.4c-0.4,0.3-0.8,0.5-1.4,0.5c-0.8,0-1.4-0.3-1.8-0.8c-0.4-0.5-0.6-1.1-0.6-1.8c0-0.7,0.2-1.4,0.6-1.8
		c0.4-0.5,1-0.8,1.8-0.8C44.5,74.5,45,74.6,45.4,74.9z"/>
	<path class="st1" d="M50.9,75.2c0.4,0.5,0.6,1.1,0.6,1.9c0,0.7-0.2,1.4-0.6,1.8c-0.4,0.5-1,0.7-1.8,0.7c-0.7,0-1.3-0.2-1.8-0.7
		c-0.4-0.5-0.6-1.1-0.6-1.8c0-0.8,0.2-1.4,0.6-1.8c0.4-0.5,1-0.8,1.8-0.8C49.8,74.5,50.4,74.7,50.9,75.2z M47.7,75.6
		c-0.3,0.4-0.5,0.9-0.5,1.5s0.2,1.1,0.5,1.5s0.8,0.6,1.4,0.6c0.6,0,1-0.2,1.4-0.6c0.3-0.4,0.5-0.9,0.5-1.5s-0.2-1.1-0.5-1.5
		S49.7,75,49.2,75C48.5,75,48.1,75.2,47.7,75.6z"/>
	<path class="st1" d="M52.3,74.6H53l1.9,4.3l0,0l1.9-4.3h0.7v5h-0.6v-4l0,0l-1.7,4h-0.5l-1.7-4l0,0v4h-0.6v-5H52.3z"/>
</g>
</svg>
