<?xml version="1.0" encoding="utf-8"?>
<!-- Generator: Adobe Illustrator 22.1.0, SVG Export Plug-In . SVG Version: 6.00 Build 0)  -->
<svg version="1.1" id="图层_1" xmlns="http://www.w3.org/2000/svg" xmlns:xlink="http://www.w3.org/1999/xlink" x="0px" y="0px"
	 viewBox="0 0 88 88" style="enable-background:new 0 0 88 88;" xml:space="preserve">
<style type="text/css">
	.st0{fill:#00BDF0;}
	.st1{fill:#FFFFFF;}
	.st2{opacity:0.1;enable-background:new    ;}
</style>
<title>ETH</title>
<circle class="st0" cx="44" cy="44" r="44"/>
<g>
	<path class="st1" d="M45.3,76.1c0-1.6,0-3.2,0-4.8c0-2.5,0-5,0-7.4c0-0.3,0.1-0.5,0.4-0.6c0.7-0.1,1.4-0.5,2.1-0.9
		c0.2-0.1,0.3-0.1,0.5,0.1c2.9,2.9,5.7,5.7,8.6,8.6c0.2,0.2,0.1,0.3,0,0.5c-2.6,2.2-5.6,3.6-9,4.3c-0.6,0.1-1.2,0.1-1.7,0.3
		C45.9,76.1,45.6,76.1,45.3,76.1z"/>
	<path class="st1" d="M41.8,76.1c-0.5-0.2-1.1-0.2-1.6-0.3c-3.3-0.7-6.3-2.1-8.9-4.3c-0.2-0.2-0.3-0.3,0-0.5
		c2.8-2.8,5.6-5.6,8.4-8.4c0.3-0.3,0.4-0.3,0.7-0.1c0.6,0.4,1.3,0.7,1.9,0.8c0.3,0.1,0.4,0.2,0.4,0.5c0,4,0,7.9,0,11.9
		c0,0.2,0,0.3,0,0.5C42.4,76.1,42.1,76.1,41.8,76.1z"/>
	<path class="st1" d="M63.9,54.9c-1.4,0-2.8,0-4.2,0c-2.7,0-5.5,0-8.2,0c-0.3,0-0.4,0-0.5-0.4c-0.2-0.8-0.5-1.5-0.9-2.1
		C50,52.2,50,52.1,50.2,52c2.8-2.8,5.7-5.7,8.5-8.5c0.2-0.2,0.4-0.2,0.6,0c2.2,2.6,3.6,5.6,4.3,8.9c0.1,0.6,0.1,1.2,0.3,1.7
		C63.9,54.4,63.9,54.7,63.9,54.9z"/>
	<path class="st1" d="M63.9,58.5c-0.2,0.5-0.2,1.1-0.3,1.7c-0.7,3.3-2.1,6.2-4.2,8.8c-0.2,0.2-0.3,0.3-0.5,0
		c-2.8-2.9-5.7-5.7-8.6-8.6c-0.2-0.2-0.2-0.3-0.1-0.5c0.4-0.6,0.6-1.3,0.8-2c0.1-0.2,0.2-0.3,0.4-0.3c4.2,0,8.3,0,12.5,0
		C63.9,57.9,63.9,58.2,63.9,58.5z"/>
	<path class="st1" d="M24.1,11.9c1.4,1.3,2.8,2.4,4.1,3.6c2.6,2.3,5.2,4.6,7.8,7c2.1,1.9,4.2,3.8,6.4,5.7c0.2,0.2,0.2,0.3,0.2,0.6
		c0,6.7,0,13.4,0,20.1c0,0.3-0.1,0.4-0.4,0.5c-0.7,0.1-1.3,0.4-1.9,0.8c-0.2,0.1-0.3,0.1-0.5-0.1c-1-1-1.9-1.9-2.9-2.9
		c-4.2-4.2-8.4-8.4-12.6-12.6C24.1,34.4,24,34.3,24,34c0-7.2,0-14.5,0-21.7C24.1,12.1,24.1,12,24.1,11.9z"/>
	<path class="st1" d="M24.2,38.4c1.7,1.8,3.5,3.5,5.2,5.3c2.8,2.8,5.5,5.5,8.3,8.3c0.2,0.2,0.3,0.4,0.1,0.6
		c-0.4,0.6-0.7,1.3-0.9,2.1c0,0.2-0.1,0.3-0.4,0.3c-4.1,0-8.1,0-12.2,0C24,55,24,54.8,24,54.6c0-3.7,0-7.5,0-11.2c0-1.6,0-3.3,0-4.9
		C24.2,38.4,24.2,38.4,24.2,38.4z"/>
	<path class="st1" d="M45.4,42.8c0-2,0-4,0-6c0-0.3,0.1-0.4,0.4-0.4c3.5,0.3,6.7,1.5,9.5,3.4c0.5,0.4,1.1,0.8,1.6,1.2
		c0.2,0.1,0.2,0.2,0,0.4c-2.9,2.9-5.7,5.7-8.6,8.6c-0.2,0.2-0.3,0.2-0.5,0c-0.6-0.4-1.3-0.7-2.1-0.9c-0.3-0.1-0.4-0.2-0.4-0.5
		C45.4,46.8,45.4,44.8,45.4,42.8z"/>
	<path class="st1" d="M30.5,57.6c2,0,3.9,0,5.9,0c0.3,0,0.5,0,0.6,0.4c0.1,0.7,0.5,1.4,0.9,2.1c0.1,0.2,0.1,0.3,0,0.5
		c-2.9,2.9-5.8,5.7-8.6,8.6c-0.2,0.2-0.3,0.1-0.4-0.1c-2.1-2.5-3.5-5.3-4.2-8.5c-0.2-0.9-0.3-1.7-0.4-2.6c0-0.3,0.1-0.3,0.3-0.3
		C26.5,57.7,28.5,57.6,30.5,57.6z"/>
</g>
<g class="st2">
	<path class="st1" d="M30.7,78.2h3.6v0.5l-3.1,4h3.3v0.5h-4v-0.5l3.1-4h-2.9C30.7,78.7,30.7,78.2,30.7,78.2z"/>
	<path class="st1" d="M35.2,78.2h2.2c0.5,0,0.8,0.1,1.1,0.3c0.3,0.2,0.4,0.5,0.4,0.9c0,0.3-0.1,0.5-0.2,0.7
		c-0.2,0.2-0.4,0.3-0.6,0.4c0.3,0.1,0.6,0.2,0.8,0.4s0.3,0.5,0.3,0.8c0,0.5-0.2,0.9-0.5,1.1s-0.7,0.3-1.2,0.3h-2.2L35.2,78.2
		L35.2,78.2z M35.8,78.7v1.7h1.5c0.3,0,0.6-0.1,0.8-0.2s0.3-0.4,0.3-0.7c0-0.3-0.1-0.5-0.3-0.6s-0.4-0.2-0.8-0.2
		C37.3,78.7,35.8,78.7,35.8,78.7z M35.8,80.9v1.9h1.6c0.3,0,0.6-0.1,0.8-0.2c0.2-0.2,0.4-0.4,0.4-0.7c0-0.3-0.1-0.6-0.3-0.7
		S37.8,81,37.4,81h-1.6V80.9z"/>
	<path class="st1" d="M40.7,82.5c0.1,0.1,0.1,0.2,0.1,0.3s0,0.2-0.1,0.3c-0.1,0.1-0.2,0.1-0.3,0.1s-0.2,0-0.3-0.1S40,82.9,40,82.8
		c0-0.1,0-0.2,0.1-0.3c0.1-0.1,0.2-0.1,0.3-0.1C40.5,82.4,40.6,82.4,40.7,82.5z"/>
	<path class="st1" d="M45.4,78.5c0.4,0.3,0.6,0.7,0.7,1.2h-0.6c-0.1-0.4-0.2-0.6-0.5-0.8c-0.3-0.2-0.6-0.3-1-0.3
		c-0.6,0-1,0.2-1.3,0.6s-0.4,0.9-0.4,1.5s0.1,1.1,0.4,1.5c0.3,0.4,0.8,0.6,1.3,0.6c0.4,0,0.7-0.1,1-0.3c0.3-0.2,0.5-0.6,0.6-1h0.5
		c-0.1,0.6-0.4,1-0.8,1.4c-0.4,0.3-0.8,0.5-1.4,0.5c-0.8,0-1.4-0.3-1.8-0.8c-0.4-0.5-0.6-1.1-0.6-1.8c0-0.7,0.2-1.4,0.6-1.8
		c0.4-0.5,1-0.8,1.8-0.8C44.5,78.1,45,78.2,45.4,78.5z"/>
	<path class="st1" d="M50.9,78.8c0.4,0.5,0.6,1.1,0.6,1.9c0,0.7-0.2,1.4-0.6,1.8c-0.4,0.5-1,0.7-1.8,0.7c-0.7,0-1.3-0.2-1.8-0.7
		c-0.4-0.5-0.6-1.1-0.6-1.8c0-0.8,0.2-1.4,0.6-1.8c0.4-0.5,1-0.8,1.8-0.8C49.8,78.1,50.4,78.3,50.9,78.8z M47.7,79.2
		c-0.3,0.4-0.5,0.9-0.5,1.5s0.2,1.1,0.5,1.5s0.8,0.6,1.4,0.6c0.6,0,1-0.2,1.4-0.6c0.3-0.4,0.5-0.9,0.5-1.5s-0.2-1.1-0.5-1.5
		s-0.8-0.6-1.3-0.6C48.5,78.6,48.1,78.8,47.7,79.2z"/>
	<path class="st1" d="M52.3,78.2H53l1.9,4.3l0,0l1.9-4.3h0.7v5h-0.6v-4l0,0l-1.7,4h-0.5l-1.7-4l0,0v4h-0.6v-5H52.3z"/>
</g>
</svg>
