<?xml version="1.0" encoding="utf-8"?>
<!-- Generator: Adobe Illustrator 22.0.0, SVG Export Plug-In . SVG Version: 6.00 Build 0)  -->
<svg version="1.1" id="图层_1" xmlns="http://www.w3.org/2000/svg" xmlns:xlink="http://www.w3.org/1999/xlink" x="0px" y="0px"
	 viewBox="0 0 88 88" style="enable-background:new 0 0 88 88;" xml:space="preserve">
<style type="text/css">
	.st0{fill:#F4DF8D;}
	.st1{fill:#FFFFFF;}
	.st2{opacity:0.1;enable-background:new    ;}
</style>
<title>BCC</title>
<g id="fBDIUA.tif">
</g>
<circle class="st0" cx="44" cy="44" r="42.5"/>
<g>
	<path class="st1" d="M44,75.7c-17.5,0-31.7-14.2-31.7-31.7S26.5,12.3,44,12.3S75.7,26.5,75.7,44S61.5,75.7,44,75.7L44,75.7z
		 M44,73.5c16.3,0,29.5-13.2,29.5-29.5S60.3,14.5,44,14.5S14.5,27.7,14.5,44S27.7,73.5,44,73.5L44,73.5z"/>
	<path class="st1" d="M32.5,27.7h15.2c3.3,0,5.9,0.8,7.8,2.4c1.7,1.5,2.6,3.5,2.6,6c0,1.9-0.5,3.4-1.3,4.7c-0.9,1.2-2.1,2.1-3.8,2.7
		c2.2,0.4,3.8,1.3,4.9,2.6c1.1,1.3,1.6,3.1,1.6,5.3c0,3.3-1.2,5.8-3.4,7.4c-1.9,1.3-4.7,1.9-8.3,1.9H30.3v-4.2h2.2V32.4h-2.2v-4.7
		H32.5z M37.9,32.2v9.5h8.3c2.3,0,3.9-0.4,4.9-1.2c0.9-0.8,1.4-2,1.4-3.8c0-1.6-0.5-2.7-1.4-3.4c-1-0.7-2.6-1.1-4.8-1.1H37.9z
		 M37.9,46.1v10.3h9c2,0,3.7-0.3,4.8-1c1.5-0.8,2.2-2.1,2.2-4s-0.6-3.3-1.6-4.1C51.2,46.5,49.4,46,47,46L37.9,46.1z"/>
	<rect x="39.8" y="22.9" class="st1" width="2.1" height="6.3"/>
	<rect x="44" y="22.9" class="st1" width="2.1" height="6.3"/>
	<path class="st1" d="M25,29.2c7.4-14.8,29.5-13.7,35.9-2.1C46.8,21.5,34.9,22.2,25,29.2L25,29.2z M31.3,23.9
		c7.7-3.5,15.8-3.5,24.3,0C51.4,18.7,37.7,17.6,31.3,23.9L31.3,23.9z"/>
	<path class="st1" d="M25,48.2h-5.3l9.5,20h8.4l6.3-7.4l6.3,7.4h8.4l9.5-20H63L56.7,64h-4.2l-5.3-6.3h-6.3L35.6,64h-4.2L25,48.2z"/>
</g>
<g class="st2">
	<path class="st1" d="M34.1,76.9h3.6v0.5l-3.1,4h3.3v0.5h-4v-0.5l3.1-4h-2.9C34.1,77.4,34.1,76.9,34.1,76.9z"/>
	<path class="st1" d="M38.6,76.9h2.2c0.5,0,0.8,0.1,1.1,0.3c0.3,0.2,0.4,0.5,0.4,0.9c0,0.3-0.1,0.5-0.2,0.7
		c-0.2,0.2-0.4,0.3-0.6,0.4c0.3,0.1,0.6,0.2,0.8,0.4s0.3,0.5,0.3,0.8c0,0.5-0.2,0.9-0.5,1.1s-0.7,0.3-1.2,0.3h-2.2L38.6,76.9
		L38.6,76.9z M39.2,77.4v1.7h1.5c0.3,0,0.6-0.1,0.8-0.2s0.3-0.4,0.3-0.7c0-0.3-0.1-0.5-0.3-0.6s-0.4-0.2-0.8-0.2
		C40.7,77.4,39.2,77.4,39.2,77.4z M39.2,79.6v1.9h1.6c0.3,0,0.6-0.1,0.8-0.2c0.2-0.2,0.4-0.4,0.4-0.7c0-0.3-0.1-0.6-0.3-0.7
		s-0.5-0.2-0.9-0.2h-1.6V79.6z"/>
	<path class="st1" d="M44.1,81.2c0.1,0.1,0.1,0.2,0.1,0.3s0,0.2-0.1,0.3c-0.1,0.1-0.2,0.1-0.3,0.1s-0.2,0-0.3-0.1s-0.1-0.2-0.1-0.3
		s0-0.2,0.1-0.3c0.1-0.1,0.2-0.1,0.3-0.1C43.9,81.1,44,81.1,44.1,81.2z"/>
	<path class="st1" d="M48.8,77.2c0.4,0.3,0.6,0.7,0.7,1.2h-0.6c-0.1-0.4-0.2-0.6-0.5-0.8c-0.3-0.2-0.6-0.3-1-0.3
		c-0.6,0-1,0.2-1.3,0.6s-0.4,0.9-0.4,1.5s0.1,1.1,0.4,1.5c0.3,0.4,0.8,0.6,1.3,0.6c0.4,0,0.7-0.1,1-0.3c0.3-0.2,0.5-0.6,0.6-1h0.5
		c-0.1,0.6-0.4,1-0.8,1.4c-0.4,0.3-0.8,0.5-1.4,0.5c-0.8,0-1.4-0.3-1.8-0.8c-0.4-0.5-0.6-1.1-0.6-1.8c0-0.7,0.2-1.4,0.6-1.8
		c0.4-0.5,1-0.8,1.8-0.8C47.9,76.8,48.4,76.9,48.8,77.2z"/>
	<path class="st1" d="M54.3,77.5c0.4,0.5,0.6,1.1,0.6,1.9c0,0.7-0.2,1.4-0.6,1.8c-0.4,0.5-1,0.7-1.8,0.7c-0.7,0-1.3-0.2-1.8-0.7
		c-0.4-0.5-0.6-1.1-0.6-1.8c0-0.8,0.2-1.4,0.6-1.8c0.4-0.5,1-0.8,1.8-0.8C53.2,76.8,53.8,77,54.3,77.5z M51.1,77.9
		c-0.3,0.4-0.5,0.9-0.5,1.5s0.2,1.1,0.5,1.5s0.8,0.6,1.4,0.6c0.6,0,1-0.2,1.4-0.6c0.3-0.4,0.5-0.9,0.5-1.5s-0.2-1.1-0.5-1.5
		s-0.8-0.6-1.3-0.6C51.9,77.3,51.5,77.5,51.1,77.9z"/>
	<path class="st1" d="M55.7,76.9h0.7l1.9,4.3l0,0l1.9-4.3h0.7v5h-0.6v-4l0,0l-1.7,4h-0.5l-1.7-4l0,0v4h-0.6v-5H55.7z"/>
</g>
</svg>
