<?xml version="1.0" encoding="utf-8"?>
<!-- Generator: Adobe Illustrator 22.1.0, SVG Export Plug-In . SVG Version: 6.00 Build 0)  -->
<svg version="1.1" id="图层_1" xmlns="http://www.w3.org/2000/svg" xmlns:xlink="http://www.w3.org/1999/xlink" x="0px" y="0px"
	 viewBox="0 0 88 88" style="enable-background:new 0 0 88 88;" xml:space="preserve">
<style type="text/css">
	.st0{fill:#A06C31;}
	.st1{opacity:0.6;}
	.st2{fill:#FFFFFF;}
	.st3{opacity:6.000000e-02;enable-background:new    ;}
</style>
<title>CAN</title>
<g id="图层_2_1_">
	<g id="图层_1-2">
		<circle class="st0" cx="44" cy="44" r="44"/>
		<g class="st1">
			<path class="st2" d="M54.9,62.1c-10.1,6.1-23.1,2.8-29.2-7.3s-2.8-23.1,7.3-29.2c6.7-4.1,15.2-4.1,21.9,0c1.7-2.1,3.7-4,6-5.6
				c-13.2-9.1-31.2-5.8-40.3,7.4s-5.8,31.2,7.4,40.3c9.9,6.9,23.1,6.9,33,0C58.6,66.2,56.6,64.3,54.9,62.1z"/>
		</g>
		<polygon class="st2" points="21.7,73 29.5,70.2 43.5,42.6 58,70.4 64.5,70.3 76.5,42.6 74.2,32.6 61.4,62.6 44.5,28.3 		"/>
	</g>
</g>
<g class="st3">
	<path class="st2" d="M30.7,76.5h3.6V77l-3.1,4h3.3v0.5h-4V81l3.1-4h-2.9C30.7,77,30.7,76.5,30.7,76.5z"/>
	<path class="st2" d="M35.2,76.5h2.2c0.5,0,0.8,0.1,1.1,0.3c0.3,0.2,0.4,0.5,0.4,0.9c0,0.3-0.1,0.5-0.2,0.7
		c-0.2,0.2-0.4,0.3-0.6,0.4c0.3,0.1,0.6,0.2,0.8,0.4s0.3,0.5,0.3,0.8c0,0.5-0.2,0.9-0.5,1.1s-0.7,0.3-1.2,0.3h-2.2L35.2,76.5
		L35.2,76.5z M35.8,77v1.7h1.5c0.3,0,0.6-0.1,0.8-0.2s0.3-0.4,0.3-0.7c0-0.3-0.1-0.5-0.3-0.6S37.7,77,37.3,77
		C37.3,77,35.8,77,35.8,77z M35.8,79.2v1.9h1.6c0.3,0,0.6-0.1,0.8-0.2c0.2-0.2,0.4-0.4,0.4-0.7c0-0.3-0.1-0.6-0.3-0.7
		s-0.5-0.2-0.9-0.2h-1.6V79.2z"/>
	<path class="st2" d="M40.7,80.8c0.1,0.1,0.1,0.2,0.1,0.3s0,0.2-0.1,0.3c-0.1,0.1-0.2,0.1-0.3,0.1s-0.2,0-0.3-0.1S40,81.2,40,81.1
		c0-0.1,0-0.2,0.1-0.3c0.1-0.1,0.2-0.1,0.3-0.1C40.5,80.7,40.6,80.7,40.7,80.8z"/>
	<path class="st2" d="M45.4,76.8c0.4,0.3,0.6,0.7,0.7,1.2h-0.6c-0.1-0.4-0.2-0.6-0.5-0.8c-0.3-0.2-0.6-0.3-1-0.3
		c-0.6,0-1,0.2-1.3,0.6s-0.4,0.9-0.4,1.5s0.1,1.1,0.4,1.5c0.3,0.4,0.8,0.6,1.3,0.6c0.4,0,0.7-0.1,1-0.3c0.3-0.2,0.5-0.6,0.6-1h0.5
		c-0.1,0.6-0.4,1-0.8,1.4c-0.4,0.3-0.8,0.5-1.4,0.5c-0.8,0-1.4-0.3-1.8-0.8c-0.4-0.5-0.6-1.1-0.6-1.8c0-0.7,0.2-1.4,0.6-1.8
		c0.4-0.5,1-0.8,1.8-0.8C44.5,76.4,45,76.5,45.4,76.8z"/>
	<path class="st2" d="M50.9,77.1c0.4,0.5,0.6,1.1,0.6,1.9c0,0.7-0.2,1.4-0.6,1.8c-0.4,0.5-1,0.7-1.8,0.7c-0.7,0-1.3-0.2-1.8-0.7
		c-0.4-0.5-0.6-1.1-0.6-1.8c0-0.8,0.2-1.4,0.6-1.8c0.4-0.5,1-0.8,1.8-0.8C49.8,76.4,50.4,76.6,50.9,77.1z M47.7,77.5
		c-0.3,0.4-0.5,0.9-0.5,1.5s0.2,1.1,0.5,1.5s0.8,0.6,1.4,0.6c0.6,0,1-0.2,1.4-0.6c0.3-0.4,0.5-0.9,0.5-1.5s-0.2-1.1-0.5-1.5
		s-0.8-0.6-1.3-0.6C48.5,76.9,48.1,77.1,47.7,77.5z"/>
	<path class="st2" d="M52.3,76.5H53l1.9,4.3l0,0l1.9-4.3h0.7v5h-0.6v-4l0,0l-1.7,4h-0.5l-1.7-4l0,0v4h-0.6v-5H52.3z"/>
</g>
</svg>
