<?xml version="1.0" encoding="utf-8"?>
<!-- Generator: Adobe Illustrator 22.1.0, SVG Export Plug-In . SVG Version: 6.00 Build 0)  -->
<svg version="1.1" id="图层_1" xmlns="http://www.w3.org/2000/svg" xmlns:xlink="http://www.w3.org/1999/xlink" x="0px" y="0px"
	 viewBox="0 0 386.7 441.5" style="enable-background:new 0 0 386.7 441.5;" xml:space="preserve">
<style type="text/css">
	.st0{fill:#FF5A2E;}
	.st1{opacity:0.1;enable-background:new    ;}
	.st2{fill:#FFFFFF;}
</style>
<title>ccc_logo</title>
<path class="st0" d="M231,441.5c-66.5,0.1-132.3-13.7-193.2-40.3l-13.9-6.1l20.5-197.8l14.8-3.1c97.8-20.3,199.5-9.8,291,30.2
	l13.9,6.1l-20.5,197.8l-14.8,3.1C296.6,438.1,263.8,441.5,231,441.5z M68.4,368.9c75.2,29.8,157.2,38.3,237,24.6l14.2-136.9
	c-75.2-29.8-157.2-38.3-237-24.6L68.4,368.9z"/>
<path class="st0" d="M8,264.9l36.6,3.8l0,0l-7,67.7l0,0l-36.6-3.8c-0.5-0.1-0.9-0.5-0.9-1.1l6.8-65.7C6.9,265.2,7.4,264.9,8,264.9z"
	/>
<path class="st0" d="M378.8,371.9l-36.6-3.8l0,0l7-67.7l0,0l36.6,3.8c0.5,0.1,0.9,0.5,0.9,1.1l-6.8,65.7
	C379.8,371.6,379.3,372,378.8,371.9z"/>
<path class="st0" d="M154.2,156.5L265,168c0.5,0.1,0.9,0.5,0.9,1.1l-3.8,36.6l0,0L149.3,194l0,0l3.8-36.6
	C153.1,156.8,153.6,156.4,154.2,156.5z"/>
<polygon class="st0" points="221.8,0 151.1,124.7 204.9,118.9 182.1,170.9 227.2,175.5 254.3,82.2 205.1,80.9 "/>
<polyline class="st0" points="160.1,309.2 142.9,292.2 122.5,305.3 "/>
<path class="st0" d="M160,324.4c-4,0-7.8-1.6-10.6-4.4l-8.6-8.5l-10.2,6.5c-7.1,4.4-16.4,2.2-20.8-4.9c-4.3-6.9-2.3-16,4.5-20.5
	l20.4-13.1c6-3.8,13.8-3,18.8,2l17.2,17c6,5.9,6,15.4,0.2,21.4C168,322.8,164.1,324.4,160,324.4z"/>
<polyline class="st0" points="227.8,316.3 248.2,303.2 265.4,320.2 "/>
<path class="st0" d="M265.4,335.3c-4,0-7.8-1.6-10.6-4.4l-8.6-8.5L236,329c-7.1,4.4-16.4,2.2-20.8-4.9c-4.3-6.9-2.3-16,4.5-20.5
	l20.4-13.1c6-3.8,13.8-3,18.8,2l17.2,17c5.9,5.9,6,15.4,0.1,21.4C273.3,333.7,269.5,335.3,265.4,335.3z"/>
<g class="st1">
	<path class="st2" d="M152.1,412.1h11.2v1.6l-9.6,12.4h10.3v1.6h-12.4V426l9.6-12.4h-9C152.1,413.6,152.1,412.1,152.1,412.1z"/>
	<path class="st2" d="M166,412.1h6.8c1.6,0,2.5,0.3,3.4,0.9c0.9,0.6,1.2,1.6,1.2,2.8c0,0.9-0.3,1.6-0.6,2.2
		c-0.6,0.6-1.2,0.9-1.9,1.2c0.9,0.3,1.9,0.6,2.5,1.2c0.6,0.6,0.9,1.6,0.9,2.5c0,1.6-0.6,2.8-1.6,3.4c-0.9,0.6-2.2,0.9-3.7,0.9h-6.8
		L166,412.1L166,412.1z M167.9,413.6v5.3h4.7c0.9,0,1.9-0.3,2.5-0.6c0.6-0.3,0.9-1.2,0.9-2.2c0-0.9-0.3-1.6-0.9-1.9
		c-0.6-0.3-1.2-0.6-2.5-0.6C172.6,413.6,167.9,413.6,167.9,413.6z M167.9,420.4v5.9h5c0.9,0,1.9-0.3,2.5-0.6
		c0.6-0.6,1.2-1.2,1.2-2.2s-0.3-1.9-0.9-2.2c-0.6-0.3-1.6-0.6-2.8-0.6h-5V420.4z"/>
	<path class="st2" d="M183.1,425.4c0.3,0.3,0.3,0.6,0.3,0.9s0,0.6-0.3,0.9c-0.3,0.3-0.6,0.3-0.9,0.3c-0.3,0-0.6,0-0.9-0.3
		c-0.3-0.3-0.3-0.6-0.3-0.9c0-0.3,0-0.6,0.3-0.9c0.3-0.3,0.6-0.3,0.9-0.3S182.8,425.1,183.1,425.4z"/>
	<path class="st2" d="M197.7,413c1.2,0.9,1.9,2.2,2.2,3.7H198c-0.3-1.2-0.6-1.9-1.6-2.5c-0.9-0.6-1.9-0.9-3.1-0.9
		c-1.9,0-3.1,0.6-4,1.9c-0.9,1.2-1.2,2.8-1.2,4.7c0,1.9,0.3,3.4,1.2,4.7s2.5,1.9,4,1.9c1.2,0,2.2-0.3,3.1-0.9
		c0.9-0.6,1.6-1.9,1.9-3.1h1.6c-0.3,1.9-1.2,3.1-2.5,4.3c-1.2,0.9-2.5,1.6-4.3,1.6c-2.5,0-4.3-0.9-5.6-2.5c-1.2-1.6-1.9-3.4-1.9-5.6
		s0.6-4.3,1.9-5.6c1.2-1.6,3.1-2.5,5.6-2.5C194.9,411.8,196.5,412.1,197.7,413z"/>
	<path class="st2" d="M214.8,413.9c1.2,1.6,1.9,3.4,1.9,5.9c0,2.2-0.6,4.3-1.9,5.6c-1.2,1.6-3.1,2.2-5.6,2.2c-2.2,0-4-0.6-5.6-2.2
		c-1.2-1.6-1.9-3.4-1.9-5.6c0-2.5,0.6-4.3,1.9-5.6c1.2-1.6,3.1-2.5,5.6-2.5C211.4,411.8,213.2,412.4,214.8,413.9z M204.9,415.2
		c-0.9,1.2-1.6,2.8-1.6,4.7c0,1.9,0.6,3.4,1.6,4.7c0.9,1.2,2.5,1.9,4.3,1.9c1.9,0,3.1-0.6,4.3-1.9c0.9-1.2,1.6-2.8,1.6-4.7
		c0-1.9-0.6-3.4-1.6-4.7c-0.9-1.2-2.5-1.9-4-1.9C207.3,413.3,206.1,413.9,204.9,415.2z"/>
	<path class="st2" d="M219.1,412.1h2.2l5.9,13.4l0,0l5.9-13.4h2.2v15.5h-1.9v-12.4l0,0l-5.3,12.4h-1.6l-5.3-12.4l0,0v12.4h-1.9
		v-15.5H219.1z"/>
</g>
</svg>
