<?xml version="1.0" encoding="utf-8"?>
<!-- Generator: Adobe Illustrator 22.1.0, SVG Export Plug-In . SVG Version: 6.00 Build 0)  -->
<svg version="1.1" id="图层_1" xmlns="http://www.w3.org/2000/svg" xmlns:xlink="http://www.w3.org/1999/xlink" x="0px" y="0px"
	 viewBox="0 0 88 88" style="enable-background:new 0 0 88 88;" xml:space="preserve">
<style type="text/css">
	.st0{fill:#F5F5F5;}
	.st1{clip-path:url(#SVGID_2_);fill:#49A5DF;}
	.st2{clip-path:url(#SVGID_4_);fill:#4C4D4D;}
	.st3{clip-path:url(#SVGID_6_);fill:#3AB9B3;}
	.st4{opacity:0.6;enable-background:new    ;}
	.st5{fill:#FFFFFF;}
</style>
<title>BCD</title>
<circle class="st0" cx="44" cy="44" r="44"/>
<g>
	<g>
		<g>
			<g>
				<defs>
					<rect id="SVGID_1_" x="20" y="20" width="48" height="48.1"/>
				</defs>
				<clipPath id="SVGID_2_">
					<use xlink:href="#SVGID_1_"  style="overflow:visible;"/>
				</clipPath>
				<path class="st1" d="M55.5,32.5V43H68V30.8c0-6-4.8-10.8-10.9-10.8H44.9v12.5H55.5z"/>
			</g>
		</g>
		<g>
			<g>
				<defs>
					<rect id="SVGID_3_" x="20" y="20" width="48" height="48.1"/>
				</defs>
				<clipPath id="SVGID_4_">
					<use xlink:href="#SVGID_3_"  style="overflow:visible;"/>
				</clipPath>
				<path class="st2" d="M32.7,32.5h12.2V20H20v24.7h12.7V32.5z M68,43H55.5v12.2H43.3V68H68V43z"/>
			</g>
		</g>
		<g>
			<g>
				<defs>
					<rect id="SVGID_5_" x="20" y="20" width="48" height="48.1"/>
				</defs>
				<clipPath id="SVGID_6_">
					<use xlink:href="#SVGID_5_"  style="overflow:visible;"/>
				</clipPath>
				<path class="st3" d="M32.7,55.3V44.7H20v12.2C20,63,25,68,31.1,68h12.2V55.3H32.7z"/>
			</g>
		</g>
	</g>
</g>
<g class="st4">
	<path class="st5" d="M33,74.7h3v0.4l-2.6,3.3h2.7v0.4h-3.3v-0.4l2.6-3.3H33C33,75.1,33,74.7,33,74.7z"/>
	<path class="st5" d="M36.7,74.7h1.8c0.4,0,0.7,0.1,0.9,0.2c0.2,0.2,0.3,0.4,0.3,0.7c0,0.2-0.1,0.4-0.2,0.6
		c-0.2,0.2-0.3,0.2-0.5,0.3c0.2,0.1,0.5,0.2,0.7,0.3c0.2,0.2,0.2,0.4,0.2,0.7c0,0.4-0.2,0.7-0.4,0.9c-0.2,0.2-0.6,0.2-1,0.2h-1.8
		L36.7,74.7L36.7,74.7z M37.2,75.1v1.4h1.2c0.2,0,0.5-0.1,0.7-0.2c0.2-0.1,0.2-0.3,0.2-0.6s-0.1-0.4-0.2-0.5
		c-0.2-0.1-0.3-0.2-0.7-0.2C38.5,75.1,37.2,75.1,37.2,75.1z M37.2,76.9v1.6h1.3c0.2,0,0.5-0.1,0.7-0.2c0.2-0.2,0.3-0.3,0.3-0.6
		c0-0.2-0.1-0.5-0.2-0.6c-0.2-0.1-0.4-0.2-0.7-0.2L37.2,76.9L37.2,76.9z"/>
	<path class="st5" d="M41.3,78.3c0.1,0.1,0.1,0.2,0.1,0.2s0,0.2-0.1,0.2s-0.2,0.1-0.2,0.1s-0.2,0-0.2-0.1c-0.1-0.1-0.1-0.2-0.1-0.2
		s0-0.2,0.1-0.2s0.2-0.1,0.2-0.1S41.2,78.2,41.3,78.3z"/>
	<path class="st5" d="M45.2,75c0.3,0.2,0.5,0.6,0.6,1h-0.5c-0.1-0.3-0.2-0.5-0.4-0.7S44.3,75,44,75c-0.5,0-0.8,0.2-1.1,0.5
		c-0.2,0.3-0.3,0.7-0.3,1.2c0,0.5,0.1,0.9,0.3,1.2c0.2,0.3,0.7,0.5,1.1,0.5c0.3,0,0.6-0.1,0.8-0.2c0.2-0.2,0.4-0.5,0.5-0.8h0.4
		c-0.1,0.5-0.3,0.8-0.7,1.2c-0.3,0.2-0.7,0.4-1.2,0.4c-0.7,0-1.2-0.2-1.5-0.7c-0.3-0.4-0.5-0.9-0.5-1.5c0-0.6,0.2-1.2,0.5-1.5
		c0.3-0.4,0.8-0.7,1.5-0.7C44.4,74.6,44.8,74.7,45.2,75z"/>
	<path class="st5" d="M49.7,75.2c0.3,0.4,0.5,0.9,0.5,1.6c0,0.6-0.2,1.2-0.5,1.5c-0.3,0.4-0.8,0.6-1.5,0.6c-0.6,0-1.1-0.2-1.5-0.6
		c-0.3-0.4-0.5-0.9-0.5-1.5c0-0.7,0.2-1.2,0.5-1.5c0.3-0.4,0.8-0.7,1.5-0.7C48.8,74.6,49.3,74.8,49.7,75.2z M47.1,75.5
		c-0.2,0.3-0.4,0.7-0.4,1.2c0,0.5,0.2,0.9,0.4,1.2c0.2,0.3,0.7,0.5,1.2,0.5s0.8-0.2,1.2-0.5c0.2-0.3,0.4-0.7,0.4-1.2
		c0-0.5-0.2-0.9-0.4-1.2c-0.2-0.3-0.7-0.5-1.1-0.5C47.7,75,47.4,75.2,47.1,75.5z"/>
	<path class="st5" d="M50.9,74.7h0.6l1.6,3.5l0,0l1.6-3.5h0.6v4.1h-0.5v-3.3l0,0l-1.4,3.3h-0.4l-1.4-3.3l0,0v3.3h-0.5L50.9,74.7
		L50.9,74.7z"/>
</g>
</svg>
