<?xml version="1.0" encoding="utf-8"?>
<!-- Generator: Adobe Illustrator 22.1.0, SVG Export Plug-In . SVG Version: 6.00 Build 0)  -->
<svg version="1.1" id="图层_1" xmlns="http://www.w3.org/2000/svg" xmlns:xlink="http://www.w3.org/1999/xlink" x="0px" y="0px"
	 viewBox="0 0 88 88" style="enable-background:new 0 0 88 88;" xml:space="preserve">
<style type="text/css">
	.st0{fill:#68298C;}
	.st1{fill:none;stroke:#FFFFFF;stroke-miterlimit:10;}
	.st2{fill:none;stroke:#FFFFFF;stroke-linecap:round;stroke-linejoin:round;}
	.st3{opacity:7.000000e-02;enable-background:new    ;}
	.st4{fill:#FFFFFF;}
</style>
<title>CFUN</title>
<g id="图层_2_1_">
	<g id="图层_1-2">
		<circle class="st0" cx="44" cy="44" r="44"/>
		<polygon class="st1" points="29.9,17.8 49.3,14.5 57.7,15.4 67.9,22.4 73,34.8 59.3,35.4 55,28.4 46.7,26.2 37.4,29.5 30.7,39.7 
			31.4,51.2 38.8,58.7 49.4,59.1 58.7,50.5 73.7,50.8 72.2,56.9 69.5,63.3 63.8,68.2 58.8,71.8 51.8,72.4 45.9,73.5 32.7,71.7 
			25.2,65.7 20.7,61.4 16.3,54.3 15.7,41.1 17.1,33.4 21.4,23.8 		"/>
		<polyline class="st2" points="72.5,34.5 65.5,29.9 60,35.1 		"/>
		<polygon class="st2" points="55.3,28.4 65.5,29.9 67.9,22.4 		"/>
		<polygon class="st2" points="57.7,15.4 55,28.4 52.7,18.2 		"/>
		<polygon class="st2" points="49.3,14.5 52.7,18.2 46.7,26.2 		"/>
		<polyline class="st2" points="49.3,14.5 38.7,18.6 29.9,17.8 		"/>
		<polyline class="st2" points="37.4,29.5 38.7,18.6 46.7,26.2 		"/>
		<polygon class="st2" points="25.5,26.5 29.9,17.9 37.2,29.5 		"/>
		<polyline class="st2" points="21.4,23.8 25.5,26.5 17.4,32.7 		"/>
		<polygon class="st2" points="25.5,26.7 30.7,39.7 20.6,39.3 		"/>
		<polyline class="st2" points="15.7,42.2 20.6,39.3 17.2,33 		"/>
		<polyline class="st2" points="20.6,39.6 25.4,44.8 30.7,39.7 		"/>
		<polyline class="st2" points="20.4,39.8 20.3,49.5 15.7,42.4 		"/>
		<polygon class="st2" points="20.4,49.6 25.4,45.2 32.1,52 		"/>
		<polygon class="st2" points="16.3,54.1 20.3,49.9 24.7,58.7 		"/>
		<polygon class="st2" points="25.3,59 31.7,52.5 30.2,59.3 		"/>
		<polyline class="st2" points="21.2,62 24.9,59.5 25.6,66 		"/>
		<polygon class="st2" points="26,66.3 30.2,59.3 35,66.7 		"/>
		<polygon class="st2" points="30.2,59.3 38.8,58.7 35.3,66.7 		"/>
		<polyline class="st2" points="31.5,70.8 35.5,67.2 39,69.2 34.5,71.9 		"/>
		<polyline class="st2" points="38.4,58.7 39.2,69.1 37.9,69.9 		"/>
		<polyline class="st2" points="39.2,69.7 47.7,64.6 38.3,58.3 		"/>
		<polyline class="st2" points="38.8,69.4 45.9,73.5 48,64.7 		"/>
		<polyline class="st2" points="48,64.7 49.1,59.1 55.3,65.1 		"/>
		<polyline class="st2" points="48,64.7 51.8,72.4 55.3,65.5 58.8,71.8 		"/>
		<polyline class="st2" points="50.6,58 55.5,58 55.3,65.1 62.6,58.9 63.4,68.5 55.5,65.2 		"/>
		<polygon class="st2" points="57.6,51.5 55.8,58 62.5,58.2 		"/>
		<polygon class="st2" points="62.8,58.2 64.6,50.6 72.3,56.6 		"/>
		<line class="st1" x1="63" y1="58.7" x2="69.5" y2="63.3"/>
	</g>
</g>
<g class="st3">
	<path class="st4" d="M34.2,78.3h2.6v0.4l-2.3,2.9H37V82h-2.9v-0.4l2.3-2.9h-2.1C34.2,78.7,34.2,78.3,34.2,78.3z"/>
	<path class="st4" d="M37.5,78.3h1.6c0.4,0,0.6,0.1,0.8,0.2c0.2,0.1,0.3,0.4,0.3,0.7c0,0.2-0.1,0.4-0.1,0.5
		c-0.1,0.1-0.3,0.2-0.4,0.3c0.2,0.1,0.4,0.1,0.6,0.3c0.1,0.1,0.2,0.4,0.2,0.6c0,0.4-0.1,0.7-0.4,0.8c-0.2,0.1-0.5,0.2-0.9,0.2h-1.6
		L37.5,78.3L37.5,78.3z M38,78.7v1.3h1.1c0.2,0,0.4-0.1,0.6-0.1c0.1-0.1,0.2-0.3,0.2-0.5c0-0.2-0.1-0.4-0.2-0.4
		c-0.1-0.1-0.3-0.1-0.6-0.1C39.1,78.7,38,78.7,38,78.7z M38,80.3v1.4h1.2c0.2,0,0.4-0.1,0.6-0.1c0.1-0.1,0.3-0.3,0.3-0.5
		s-0.1-0.4-0.2-0.5c-0.1-0.1-0.4-0.1-0.7-0.1L38,80.3L38,80.3z"/>
	<path class="st4" d="M41.6,81.5c0.1,0.1,0.1,0.1,0.1,0.2c0,0.1,0,0.1-0.1,0.2C41.5,82,41.4,82,41.4,82c-0.1,0-0.1,0-0.2-0.1
		c-0.1-0.1-0.1-0.1-0.1-0.2c0-0.1,0-0.1,0.1-0.2c0.1-0.1,0.1-0.1,0.2-0.1S41.5,81.4,41.6,81.5z"/>
	<path class="st4" d="M45,78.5c0.3,0.2,0.4,0.5,0.5,0.9h-0.4C45,79.1,45,79,44.7,78.8c-0.2-0.1-0.4-0.2-0.7-0.2
		c-0.4,0-0.7,0.1-1,0.4c-0.2,0.3-0.3,0.7-0.3,1.1c0,0.4,0.1,0.8,0.3,1.1s0.6,0.4,1,0.4c0.3,0,0.5-0.1,0.7-0.2
		c0.2-0.1,0.4-0.4,0.4-0.7h0.4c-0.1,0.4-0.3,0.7-0.6,1c-0.3,0.2-0.6,0.4-1,0.4c-0.6,0-1-0.2-1.3-0.6c-0.3-0.4-0.4-0.8-0.4-1.3
		c0-0.5,0.1-1,0.4-1.3c0.3-0.4,0.7-0.6,1.3-0.6C44.4,78.2,44.7,78.3,45,78.5z"/>
	<path class="st4" d="M49.1,78.7c0.3,0.4,0.4,0.8,0.4,1.4c0,0.5-0.1,1-0.4,1.3c-0.3,0.4-0.7,0.5-1.3,0.5c-0.5,0-1-0.1-1.3-0.5
		c-0.3-0.4-0.4-0.8-0.4-1.3c0-0.6,0.1-1,0.4-1.3c0.3-0.4,0.7-0.6,1.3-0.6C48.3,78.2,48.7,78.4,49.1,78.7z M46.7,79
		c-0.2,0.3-0.4,0.7-0.4,1.1c0,0.4,0.1,0.8,0.4,1.1s0.6,0.4,1,0.4s0.7-0.1,1-0.4c0.2-0.3,0.4-0.7,0.4-1.1c0-0.4-0.1-0.8-0.4-1.1
		c-0.2-0.3-0.6-0.4-1-0.4C47.3,78.6,47,78.7,46.7,79z"/>
	<path class="st4" d="M50.1,78.3h0.5l1.4,3.2l0,0l1.4-3.2h0.5V82h-0.4V79l0,0L52.2,82h-0.4L50.6,79l0,0V82h-0.4L50.1,78.3L50.1,78.3
		z"/>
</g>
</svg>
