<?xml version="1.0" encoding="utf-8"?>
<!-- Generator: Adobe Illustrator 22.1.0, SVG Export Plug-In . SVG Version: 6.00 Build 0)  -->
<svg version="1.1" id="图层_1" xmlns="http://www.w3.org/2000/svg" xmlns:xlink="http://www.w3.org/1999/xlink" x="0px" y="0px"
	 viewBox="0 0 88 88" style="enable-background:new 0 0 88 88;" xml:space="preserve">
<style type="text/css">
	.st0{fill:#006DFB;}
	.st1{fill:#FFFFFF;}
	.st2{opacity:7.000000e-02;enable-background:new    ;}
</style>
<title>CHAT</title>
<g id="图层_2_1_">
	<g id="图层_1-2">
		<circle class="st0" cx="44" cy="44" r="44"/>
		<path class="st1" d="M68.5,38.7c0-12.5-11.8-22.6-26.3-22.6S16,26.2,16,38.7c0,7.5,4.2,14.4,11.4,18.6v7.3c0,0.4,0.2,0.8,0.6,1.1
			c0.2,0.1,0.4,0.1,0.6,0.1c0.2,0,0.5-0.1,0.7-0.2l3.3-2.2c0.1,0,0.1-0.1,0.2-0.1l3.8-2.5c1.9,0.4,3.7,0.5,5.6,0.5
			C56.7,61.3,68.5,51.2,68.5,38.7L68.5,38.7z M42.3,58.9c-1.9,0-3.8-0.2-5.6-0.6c-0.3-0.1-0.7,0-0.9,0.2l-4.4,2.9l-0.1,0.1l-1.3,0.8
			v-5.7c0-0.4-0.2-0.8-0.6-1c-6.7-3.8-10.8-10.1-10.8-16.9c0-11.1,10.7-20.2,23.8-20.2s23.8,9.1,23.8,20.2S55.4,58.9,42.3,58.9z"/>
		<path class="st1" d="M69.4,45.3l-0.9,2.4l0,0l0.1,0.2c0.9,1.6,1.3,3.3,1.3,5.1c0,4.1-2.4,7.9-6.5,10.1C63.2,63.3,63,63.6,63,64v3
			l-0.3-0.2l-0.1-0.1l-2.7-1.8c-0.2-0.1-0.5-0.2-0.8-0.2c-3.8,0.8-7.8,0.3-11.2-1.6l-2.9,0.5c4.1,2.9,9.1,4.1,14.1,3.1l2.2,1.5
			l0.1,0.1l2.1,1.3c0.2,0.1,0.4,0.2,0.6,0.2c0.2,0,0.3,0,0.5-0.1c0.3-0.2,0.5-0.5,0.5-0.9v-4.3c4.2-2.4,6.9-6.8,7-11.6
			C72,50.2,71.1,47.5,69.4,45.3z"/>
		<circle class="st1" cx="28.8" cy="39.7" r="3.1"/>
		<circle class="st1" cx="42.3" cy="39.7" r="3.1"/>
		<circle class="st1" cx="55.7" cy="39.7" r="3.1"/>
	</g>
</g>
<g class="st2">
	<path class="st1" d="M30.7,75.5h3.6V76l-3.1,4h3.3v0.5h-4V80l3.1-4h-2.9C30.7,76,30.7,75.5,30.7,75.5z"/>
	<path class="st1" d="M35.2,75.5h2.2c0.5,0,0.8,0.1,1.1,0.3c0.3,0.2,0.4,0.5,0.4,0.9c0,0.3-0.1,0.5-0.2,0.7
		c-0.2,0.2-0.4,0.3-0.6,0.4c0.3,0.1,0.6,0.2,0.8,0.4s0.3,0.5,0.3,0.8c0,0.5-0.2,0.9-0.5,1.1s-0.7,0.3-1.2,0.3h-2.2L35.2,75.5
		L35.2,75.5z M35.8,76v1.7h1.5c0.3,0,0.6-0.1,0.8-0.2s0.3-0.4,0.3-0.7c0-0.3-0.1-0.5-0.3-0.6S37.7,76,37.3,76
		C37.3,76,35.8,76,35.8,76z M35.8,78.2v1.9h1.6c0.3,0,0.6-0.1,0.8-0.2c0.2-0.2,0.4-0.4,0.4-0.7c0-0.3-0.1-0.6-0.3-0.7
		s-0.5-0.2-0.9-0.2h-1.6V78.2z"/>
	<path class="st1" d="M40.7,79.8c0.1,0.1,0.1,0.2,0.1,0.3s0,0.2-0.1,0.3c-0.1,0.1-0.2,0.1-0.3,0.1s-0.2,0-0.3-0.1S40,80.2,40,80.1
		c0-0.1,0-0.2,0.1-0.3c0.1-0.1,0.2-0.1,0.3-0.1C40.5,79.7,40.6,79.7,40.7,79.8z"/>
	<path class="st1" d="M45.4,75.8c0.4,0.3,0.6,0.7,0.7,1.2h-0.6c-0.1-0.4-0.2-0.6-0.5-0.8c-0.3-0.2-0.6-0.3-1-0.3
		c-0.6,0-1,0.2-1.3,0.6s-0.4,0.9-0.4,1.5s0.1,1.1,0.4,1.5c0.3,0.4,0.8,0.6,1.3,0.6c0.4,0,0.7-0.1,1-0.3c0.3-0.2,0.5-0.6,0.6-1h0.5
		c-0.1,0.6-0.4,1-0.8,1.4c-0.4,0.3-0.8,0.5-1.4,0.5c-0.8,0-1.4-0.3-1.8-0.8c-0.4-0.5-0.6-1.1-0.6-1.8c0-0.7,0.2-1.4,0.6-1.8
		c0.4-0.5,1-0.8,1.8-0.8C44.5,75.4,45,75.5,45.4,75.8z"/>
	<path class="st1" d="M50.9,76.1c0.4,0.5,0.6,1.1,0.6,1.9c0,0.7-0.2,1.4-0.6,1.8c-0.4,0.5-1,0.7-1.8,0.7c-0.7,0-1.3-0.2-1.8-0.7
		c-0.4-0.5-0.6-1.1-0.6-1.8c0-0.8,0.2-1.4,0.6-1.8c0.4-0.5,1-0.8,1.8-0.8C49.8,75.4,50.4,75.6,50.9,76.1z M47.7,76.5
		c-0.3,0.4-0.5,0.9-0.5,1.5s0.2,1.1,0.5,1.5s0.8,0.6,1.4,0.6c0.6,0,1-0.2,1.4-0.6c0.3-0.4,0.5-0.9,0.5-1.5s-0.2-1.1-0.5-1.5
		s-0.8-0.6-1.3-0.6C48.5,75.9,48.1,76.1,47.7,76.5z"/>
	<path class="st1" d="M52.3,75.5H53l1.9,4.3l0,0l1.9-4.3h0.7v5h-0.6v-4l0,0l-1.7,4h-0.5l-1.7-4l0,0v4h-0.6v-5H52.3z"/>
</g>
</svg>
