<?xml version="1.0" encoding="utf-8"?>
<!-- Generator: Adobe Illustrator 22.1.0, SVG Export Plug-In . SVG Version: 6.00 Build 0)  -->
<svg version="1.1" id="图层_1" xmlns="http://www.w3.org/2000/svg" xmlns:xlink="http://www.w3.org/1999/xlink" x="0px" y="0px"
	 viewBox="0 0 88 88" style="enable-background:new 0 0 88 88;" xml:space="preserve">
<style type="text/css">
	.st0{fill:#00BEF7;}
	.st1{fill:#FFFFFF;}
	.st2{opacity:0.1;enable-background:new    ;}
</style>
<title>CNMC</title>
<g id="图层_2_1_">
	<g id="图层_1-2">
		<circle class="st0" cx="44" cy="44" r="44"/>
		<path class="st1" d="M52.3,63.2c-13.1,0-23.7-10.6-23.7-23.6c0-13.1,10.6-23.7,23.6-23.7c3.9,0,7.7,1,11.1,2.8
			c-11.5-8.3-27.6-5.7-35.9,5.8s-5.7,27.6,5.8,35.9c9,6.5,21.1,6.5,30.1,0C60,62.2,56.2,63.2,52.3,63.2z"/>
		<path class="st1" d="M36.5,42c0.2-10.5,8.8-18.9,19.3-18.7c8.5,0.1,15.8,5.8,18,14c-1.2-11.5-11.5-19.9-23.1-18.7
			S30.9,30.1,32.1,41.7c1.1,10,9.1,17.9,19.2,18.7C42.6,58.5,36.5,50.8,36.5,42z"/>
		<path class="st1" d="M48,67.5c-15.4,0-27.8-12.5-27.8-27.9c0-12,7.7-22.6,19-26.4c-16.6,2.9-27.8,18.7-25,35.3s18.7,27.8,35.3,25
			C62.5,71.3,72.6,61,74.6,48C71,59.6,60.2,67.5,48,67.5z"/>
		<path class="st1" d="M59,41.6c3.2,0,10.6-0.8,11.7,7C66.1,48.6,60.7,47.5,59,41.6z"/>
		<path class="st1" d="M57.3,42.1c0.1,13.6-9.5,8.7-13,12.5C44.3,52.6,42.3,42.1,57.3,42.1z"/>
		<path class="st1" d="M57.3,40.3c-10.8,1-10-3.8-15.4-6.6C43.6,33.2,57,28.1,57.3,40.3z"/>
		<path class="st1" d="M58.8,40.1c5.8,0.2,6.9-4.6,5.5-6.9C60,32.3,57.3,34.9,58.8,40.1z"/>
	</g>
</g>
<g class="st2">
	<path class="st1" d="M31.7,77.5h3.6V78l-3.1,4h3.3v0.5h-4V82l3.1-4h-2.9C31.7,78,31.7,77.5,31.7,77.5z"/>
	<path class="st1" d="M36.2,77.5h2.2c0.5,0,0.8,0.1,1.1,0.3c0.3,0.2,0.4,0.5,0.4,0.9c0,0.3-0.1,0.5-0.2,0.7
		c-0.2,0.2-0.4,0.3-0.6,0.4c0.3,0.1,0.6,0.2,0.8,0.4s0.3,0.5,0.3,0.8c0,0.5-0.2,0.9-0.5,1.1s-0.7,0.3-1.2,0.3h-2.2L36.2,77.5
		L36.2,77.5z M36.8,78v1.7h1.5c0.3,0,0.6-0.1,0.8-0.2s0.3-0.4,0.3-0.7c0-0.3-0.1-0.5-0.3-0.6S38.7,78,38.3,78
		C38.3,78,36.8,78,36.8,78z M36.8,80.2v1.9h1.6c0.3,0,0.6-0.1,0.8-0.2c0.2-0.2,0.4-0.4,0.4-0.7c0-0.3-0.1-0.6-0.3-0.7
		s-0.5-0.2-0.9-0.2h-1.6V80.2z"/>
	<path class="st1" d="M41.7,81.8c0.1,0.1,0.1,0.2,0.1,0.3s0,0.2-0.1,0.3c-0.1,0.1-0.2,0.1-0.3,0.1s-0.2,0-0.3-0.1S41,82.2,41,82.1
		c0-0.1,0-0.2,0.1-0.3c0.1-0.1,0.2-0.1,0.3-0.1C41.5,81.7,41.6,81.7,41.7,81.8z"/>
	<path class="st1" d="M46.4,77.8c0.4,0.3,0.6,0.7,0.7,1.2h-0.6c-0.1-0.4-0.2-0.6-0.5-0.8c-0.3-0.2-0.6-0.3-1-0.3
		c-0.6,0-1,0.2-1.3,0.6s-0.4,0.9-0.4,1.5s0.1,1.1,0.4,1.5c0.3,0.4,0.8,0.6,1.3,0.6c0.4,0,0.7-0.1,1-0.3c0.3-0.2,0.5-0.6,0.6-1h0.5
		c-0.1,0.6-0.4,1-0.8,1.4c-0.4,0.3-0.8,0.5-1.4,0.5c-0.8,0-1.4-0.3-1.8-0.8c-0.4-0.5-0.6-1.1-0.6-1.8c0-0.7,0.2-1.4,0.6-1.8
		c0.4-0.5,1-0.8,1.8-0.8C45.5,77.4,46,77.5,46.4,77.8z"/>
	<path class="st1" d="M51.9,78.1c0.4,0.5,0.6,1.1,0.6,1.9c0,0.7-0.2,1.4-0.6,1.8c-0.4,0.5-1,0.7-1.8,0.7c-0.7,0-1.3-0.2-1.8-0.7
		c-0.4-0.5-0.6-1.1-0.6-1.8c0-0.8,0.2-1.4,0.6-1.8c0.4-0.5,1-0.8,1.8-0.8C50.8,77.4,51.4,77.6,51.9,78.1z M48.7,78.5
		c-0.3,0.4-0.5,0.9-0.5,1.5s0.2,1.1,0.5,1.5s0.8,0.6,1.4,0.6c0.6,0,1-0.2,1.4-0.6c0.3-0.4,0.5-0.9,0.5-1.5s-0.2-1.1-0.5-1.5
		s-0.8-0.6-1.3-0.6C49.5,77.9,49.1,78.1,48.7,78.5z"/>
	<path class="st1" d="M53.3,77.5H54l1.9,4.3l0,0l1.9-4.3h0.7v5h-0.6v-4l0,0l-1.7,4h-0.5l-1.7-4l0,0v4h-0.6v-5H53.3z"/>
</g>
</svg>
