<?xml version="1.0" encoding="utf-8"?>
<!-- Generator: Adobe Illustrator 22.1.0, SVG Export Plug-In . SVG Version: 6.00 Build 0)  -->
<svg version="1.1" id="图层_1" xmlns="http://www.w3.org/2000/svg" xmlns:xlink="http://www.w3.org/1999/xlink" x="0px" y="0px"
	 viewBox="0 0 88 88" style="enable-background:new 0 0 88 88;" xml:space="preserve">
<style type="text/css">
	.st0{fill:#FF4200;}
	.st1{fill:#FFFFFF;}
	.st2{opacity:8.000000e-02;enable-background:new    ;}
</style>
<title>twitter资源 1</title>
<g id="图层_2_1_">
	<g id="图层_1-2">
		<circle class="st0" cx="44" cy="44" r="44"/>
		<path class="st1" d="M44,39.8c-12.6,0-22.9,2.3-22.9,5.1S31.4,50,44,50s22.9-2.3,22.9-5.1S56.6,39.8,44,39.8z M44,48.5
			c-11.4,0-20.7-1.8-20.7-4s9.3-4.1,20.7-4.1s20.7,1.8,20.7,4S55.4,48.5,44,48.5z"/>
		<path class="st1" d="M40,47c1.3,0,2.6,0.1,4,0.1s2.7,0,4-0.1v-9.9l15.8-15.8l-5.7-5.6L44,29.8L29.9,15.6l-5.7,5.7L40,37.1V47z"/>
		<path class="st1" d="M44,63.9c-1.4,0-2.7,0-4-0.1v13.9h8V63.9C46.7,63.9,45.4,63.9,44,63.9z"/>
		<path class="st1" d="M44,62.4c1.4,0,2.7,0,4-0.1V48.4c-1.3,0-2.6,0.1-4,0.1s-2.7,0-4-0.1v13.9C41.3,62.3,42.6,62.4,44,62.4z"/>
		<path class="st1" d="M44,54.4c-13.8,0-25,2.5-25,5.6s11.2,5.6,25,5.6s25-2.5,25-5.6S57.8,54.4,44,54.4z M44,63.9
			c-12.5,0-22.6-2-22.6-4.4s10.1-4.4,22.6-4.4s22.6,2,22.6,4.4S56.5,63.9,44,63.9z"/>
	</g>
</g>
<g class="st2">
	<path class="st1" d="M30.7,74.2h3.6v0.5l-3.1,4h3.3v0.5h-4v-0.5l3.1-4h-2.9C30.7,74.7,30.7,74.2,30.7,74.2z"/>
	<path class="st1" d="M35.2,74.2h2.2c0.5,0,0.8,0.1,1.1,0.3c0.3,0.2,0.4,0.5,0.4,0.9c0,0.3-0.1,0.5-0.2,0.7
		c-0.2,0.2-0.4,0.3-0.6,0.4c0.3,0.1,0.6,0.2,0.8,0.4s0.3,0.5,0.3,0.8c0,0.5-0.2,0.9-0.5,1.1s-0.7,0.3-1.2,0.3h-2.2L35.2,74.2
		L35.2,74.2z M35.8,74.7v1.7h1.5c0.3,0,0.6-0.1,0.8-0.2s0.3-0.4,0.3-0.7c0-0.3-0.1-0.5-0.3-0.6s-0.4-0.2-0.8-0.2
		C37.3,74.7,35.8,74.7,35.8,74.7z M35.8,76.9v1.9h1.6c0.3,0,0.6-0.1,0.8-0.2c0.2-0.2,0.4-0.4,0.4-0.7c0-0.3-0.1-0.6-0.3-0.7
		S37.8,77,37.4,77h-1.6V76.9z"/>
	<path class="st1" d="M40.7,78.5c0.1,0.1,0.1,0.2,0.1,0.3s0,0.2-0.1,0.3c-0.1,0.1-0.2,0.1-0.3,0.1s-0.2,0-0.3-0.1S40,78.9,40,78.8
		c0-0.1,0-0.2,0.1-0.3c0.1-0.1,0.2-0.1,0.3-0.1C40.5,78.4,40.6,78.4,40.7,78.5z"/>
	<path class="st1" d="M45.4,74.5c0.4,0.3,0.6,0.7,0.7,1.2h-0.6c-0.1-0.4-0.2-0.6-0.5-0.8c-0.3-0.2-0.6-0.3-1-0.3
		c-0.6,0-1,0.2-1.3,0.6s-0.4,0.9-0.4,1.5s0.1,1.1,0.4,1.5c0.3,0.4,0.8,0.6,1.3,0.6c0.4,0,0.7-0.1,1-0.3c0.3-0.2,0.5-0.6,0.6-1h0.5
		c-0.1,0.6-0.4,1-0.8,1.4c-0.4,0.3-0.8,0.5-1.4,0.5c-0.8,0-1.4-0.3-1.8-0.8c-0.4-0.5-0.6-1.1-0.6-1.8c0-0.7,0.2-1.4,0.6-1.8
		c0.4-0.5,1-0.8,1.8-0.8C44.5,74.1,45,74.2,45.4,74.5z"/>
	<path class="st1" d="M50.9,74.8c0.4,0.5,0.6,1.1,0.6,1.9c0,0.7-0.2,1.4-0.6,1.8c-0.4,0.5-1,0.7-1.8,0.7c-0.7,0-1.3-0.2-1.8-0.7
		c-0.4-0.5-0.6-1.1-0.6-1.8c0-0.8,0.2-1.4,0.6-1.8c0.4-0.5,1-0.8,1.8-0.8C49.8,74.1,50.4,74.3,50.9,74.8z M47.7,75.2
		c-0.3,0.4-0.5,0.9-0.5,1.5s0.2,1.1,0.5,1.5s0.8,0.6,1.4,0.6c0.6,0,1-0.2,1.4-0.6c0.3-0.4,0.5-0.9,0.5-1.5s-0.2-1.1-0.5-1.5
		s-0.8-0.6-1.3-0.6C48.5,74.6,48.1,74.8,47.7,75.2z"/>
	<path class="st1" d="M52.3,74.2H53l1.9,4.3l0,0l1.9-4.3h0.7v5h-0.6v-4l0,0l-1.7,4h-0.5l-1.7-4l0,0v4h-0.6v-5H52.3z"/>
</g>
</svg>
