<?xml version="1.0" encoding="utf-8"?>
<!-- Generator: Adobe Illustrator 22.1.0, SVG Export Plug-In . SVG Version: 6.00 Build 0)  -->
<svg version="1.1" id="图层_1" xmlns="http://www.w3.org/2000/svg" xmlns:xlink="http://www.w3.org/1999/xlink" x="0px" y="0px"
	 viewBox="0 0 64 64" style="enable-background:new 0 0 64 64;" xml:space="preserve">
<style type="text/css">
	.st0{fill:url(#SVGID_1_);}
	.st1{fill:#FFFFFF;}
	.st2{opacity:5.000000e-02;fill:#FFFFFF;}
	.st3{font-family:'MyriadPro-Regular';}
	.st4{font-size:5.7427px;}
</style>
<radialGradient id="SVGID_1_" cx="30.3488" cy="21.5167" r="43.3024" fx="-10.0355" fy="37.1437" gradientTransform="matrix(0.9204 0 0 0.9204 2.5767 2.3275)" gradientUnits="userSpaceOnUse">
	<stop  offset="0" style="stop-color:#009FE8"/>
	<stop  offset="1" style="stop-color:#910782"/>
</radialGradient>
<circle class="st0" cx="32" cy="32" r="32"/>
<g>
	<path class="st1" d="M22,22.4c-5.7,5.7-5.7,15,0,20.7c5.7,5.7,15,5.7,20.7,0c5.7-5.7,5.7-15,0-20.7C37,16.7,27.8,16.7,22,22.4z"/>
	<circle class="st1" cx="49.9" cy="18.2" r="4.9"/>
	<path class="st1" d="M50,23.9l3.2,10.4l-7.5,14.1l-15.3,4.7l-14.1-7.5l-4.7-15.3l7.5-14.1l15.3-4.7l9.9,5.3c0.1-0.5,0.3-1,0.6-1.5
		L34.6,9.9L18,14.9L9.9,30.2l5.1,16.5l15.3,8.1l16.5-5.1l8.1-15.3l-3.3-10.8C51.1,23.8,50.6,23.9,50,23.9z"/>
	<g>
		<circle class="st1" cx="34.3" cy="10.2" r="2.8"/>
		<circle class="st1" cx="18.8" cy="15.7" r="2.8"/>
		<circle class="st1" cx="9.9" cy="30" r="2.8"/>
		<circle class="st1" cx="15.4" cy="46.4" r="2.8"/>
		<circle class="st1" cx="30.7" cy="53.8" r="2.8"/>
		<circle class="st1" cx="45.4" cy="49.9" r="2.8"/>
		<circle class="st1" cx="54.1" cy="35.1" r="2.8"/>
	</g>
	<g>
		<circle class="st1" cx="34.3" cy="10.2" r="2.8"/>
		<circle class="st1" cx="18.8" cy="15.7" r="2.8"/>
		<circle class="st1" cx="9.9" cy="30" r="2.8"/>
		<circle class="st1" cx="15.4" cy="46.4" r="2.8"/>
		<circle class="st1" cx="30.7" cy="53.8" r="2.8"/>
		<circle class="st1" cx="45.4" cy="49.9" r="2.8"/>
		<circle class="st1" cx="54.1" cy="35.1" r="2.8"/>
	</g>
	<g>
		<path d="M23.2,30c1.2,0,1.9,0.7,2.2,1.5l-1,0.2c-0.3-0.5-0.6-0.7-1.2-0.7c-0.8,0-1.4,0.7-1.4,1.8c0,1.1,0.5,1.8,1.4,1.8
			c0.6,0,1-0.3,1.2-0.8l1,0.1c-0.3,0.8-1,1.5-2.2,1.5c-1.6,0-2.4-1.3-2.4-2.7C20.8,31.3,21.5,30,23.2,30z"/>
		<path d="M28.6,30c1.7,0,2.4,1.3,2.4,2.7c0,1.4-0.7,2.7-2.4,2.7c-1.7,0-2.4-1.3-2.4-2.7C26.2,31.3,26.9,30,28.6,30z M28.6,34.5
			c1,0,1.4-0.8,1.4-1.8c0-1-0.5-1.8-1.4-1.8s-1.4,0.8-1.4,1.8C27.2,33.6,27.7,34.5,28.6,34.5z"/>
		<path d="M33.5,30.1l1.5,3.8h0l1.5-3.8H38v5.1h-1v-3.7h0l-1.5,3.7h-1l-1.5-3.7h0v3.7h-1v-5.1H33.5z"/>
		<path d="M41.5,30c1.2,0,1.9,0.7,2.2,1.5l-1,0.2c-0.3-0.5-0.6-0.7-1.2-0.7c-0.8,0-1.4,0.7-1.4,1.8c0,1.1,0.5,1.8,1.4,1.8
			c0.6,0,1-0.3,1.2-0.8l1,0.1c-0.3,0.8-1,1.5-2.2,1.5c-1.6,0-2.4-1.3-2.4-2.7C39.1,31.3,39.8,30,41.5,30z"/>
	</g>
</g>
<text transform="matrix(1 0 0 1 27.0007 62.5415)" class="st2 st3 st4">ZBG</text>
</svg>
