<?xml version="1.0" encoding="utf-8"?>
<!-- Generator: Adobe Illustrator 22.0.0, SVG Export Plug-In . SVG Version: 6.00 Build 0)  -->
<svg version="1.1" id="图层_1" xmlns="http://www.w3.org/2000/svg" xmlns:xlink="http://www.w3.org/1999/xlink" x="0px" y="0px"
	 viewBox="0 0 88 88" style="enable-background:new 0 0 88 88;" xml:space="preserve">
<style type="text/css">
	.st0{fill:#0F6698;}
	.st1{opacity:7.000000e-02;enable-background:new    ;}
	.st2{fill:#FFFFFF;}
	.st3{enable-background:new    ;}
</style>
<title>CPY</title>
<path class="st0" d="M0,44c0,24.3,19.7,44,44,44s44-19.7,44-44S68.3,0,44,0S0,19.7,0,44z"/>
<g class="st1">
	<path class="st2" d="M30.7,75.3h3.6v0.5l-3.1,4h3.3v0.5h-4v-0.5l3.1-4h-2.9C30.7,75.8,30.7,75.3,30.7,75.3z"/>
	<path class="st2" d="M35.2,75.3h2.2c0.5,0,0.8,0.1,1.1,0.3c0.3,0.2,0.4,0.5,0.4,0.9c0,0.3-0.1,0.5-0.2,0.7
		c-0.2,0.2-0.4,0.3-0.6,0.4c0.3,0.1,0.6,0.2,0.8,0.4s0.3,0.5,0.3,0.8c0,0.5-0.2,0.9-0.5,1.1s-0.7,0.3-1.2,0.3h-2.2L35.2,75.3
		L35.2,75.3z M35.8,75.8v1.7h1.5c0.3,0,0.6-0.1,0.8-0.2s0.3-0.4,0.3-0.7c0-0.3-0.1-0.5-0.3-0.6s-0.4-0.2-0.8-0.2
		C37.3,75.8,35.8,75.8,35.8,75.8z M35.8,78v1.9h1.6c0.3,0,0.6-0.1,0.8-0.2c0.2-0.2,0.4-0.4,0.4-0.7c0-0.3-0.1-0.6-0.3-0.7
		s-0.5-0.2-0.9-0.2h-1.6V78z"/>
	<path class="st2" d="M40.7,79.6c0.1,0.1,0.1,0.2,0.1,0.3s0,0.2-0.1,0.3c-0.1,0.1-0.2,0.1-0.3,0.1s-0.2,0-0.3-0.1S40,80,40,79.9
		s0-0.2,0.1-0.3c0.1-0.1,0.2-0.1,0.3-0.1C40.5,79.5,40.6,79.5,40.7,79.6z"/>
	<path class="st2" d="M45.4,75.6c0.4,0.3,0.6,0.7,0.7,1.2h-0.6c-0.1-0.4-0.2-0.6-0.5-0.8c-0.3-0.2-0.6-0.3-1-0.3
		c-0.6,0-1,0.2-1.3,0.6s-0.4,0.9-0.4,1.5s0.1,1.1,0.4,1.5c0.3,0.4,0.8,0.6,1.3,0.6c0.4,0,0.7-0.1,1-0.3c0.3-0.2,0.5-0.6,0.6-1h0.5
		c-0.1,0.6-0.4,1-0.8,1.4c-0.4,0.3-0.8,0.5-1.4,0.5c-0.8,0-1.4-0.3-1.8-0.8c-0.4-0.5-0.6-1.1-0.6-1.8c0-0.7,0.2-1.4,0.6-1.8
		c0.4-0.5,1-0.8,1.8-0.8C44.5,75.2,45,75.3,45.4,75.6z"/>
	<path class="st2" d="M50.9,75.9c0.4,0.5,0.6,1.1,0.6,1.9c0,0.7-0.2,1.4-0.6,1.8c-0.4,0.5-1,0.7-1.8,0.7c-0.7,0-1.3-0.2-1.8-0.7
		c-0.4-0.5-0.6-1.1-0.6-1.8c0-0.8,0.2-1.4,0.6-1.8c0.4-0.5,1-0.8,1.8-0.8C49.8,75.2,50.4,75.4,50.9,75.9z M47.7,76.3
		c-0.3,0.4-0.5,0.9-0.5,1.5s0.2,1.1,0.5,1.5s0.8,0.6,1.4,0.6c0.6,0,1-0.2,1.4-0.6c0.3-0.4,0.5-0.9,0.5-1.5s-0.2-1.1-0.5-1.5
		s-0.8-0.6-1.3-0.6C48.5,75.7,48.1,75.9,47.7,76.3z"/>
	<path class="st2" d="M52.3,75.3H53l1.9,4.3l0,0l1.9-4.3h0.7v5h-0.6v-4l0,0l-1.7,4h-0.5l-1.7-4l0,0v4h-0.6v-5H52.3z"/>
</g>
<g class="st3">
	<path class="st2" d="M36,17.4c0,0-10.5,2.3-10.9,7.7c-0.4,5.3,17.6,8.5,33.9-3c0,0-14.8,4.2-22.5,3.2S29.6,20.7,36,17.4z"/>
	<path class="st2" d="M21.2,27c0,0-3.8,13.6,12.3,11.5C49.6,36.4,68.9,27,68.9,27S49.5,44.6,32.3,45.4S16.1,35.5,21.2,27z"/>
	<path class="st2" d="M71.7,37.7c0,0-22.2,16.2-37.7,15.8c-15.4-0.4-17.7-7.9-17.7-7.9s-0.5,16.5,18.1,15.2S71.7,37.7,71.7,37.7z"/>
	<path class="st2" d="M66.4,53.6c0,0-17.7,19.3-39.2,11.1c0,0,10.4,8,21,5.3C58.8,67.4,67.2,56.9,66.4,53.6z"/>
</g>
</svg>
