<?xml version="1.0" encoding="UTF-8"?>
<svg width="232px" height="232px" viewBox="0 0 232 232" version="1.1" xmlns="http://www.w3.org/2000/svg" xmlns:xlink="http://www.w3.org/1999/xlink">
    <!-- Generator: Sketch 50.2 (55047) - http://www.bohemiancoding.com/sketch -->
    <title>Group 14</title>
    <desc>Created with Sketch.</desc>
    <defs></defs>
    <g id="Page-1" stroke="none" stroke-width="1" fill="none" fill-rule="evenodd">
        <g id="Group-13">
            <g id="Group-14">
                <circle id="Oval-2" fill="#FFFFFF" cx="116" cy="116" r="116"></circle>
                <g id="DCR" transform="translate(49.000000, 66.000000)">
                    <path d="M63.2395,91.4637 L71.7715,98.9007 L40.1165,98.9007 C18.2175,98.9007 0.4665,81.1497 0.4665,59.2507 C0.4665,52.5637 2.1205,46.2637 5.0465,40.7367 C7.7205,35.6777 11.4615,31.2677 15.9675,27.8027 C16.2275,27.6017 16.4905,27.4037 16.7565,27.2097 C19.4205,25.2637 22.3355,23.6427 25.4435,22.4037 L22.2295,19.6017 L21.9855,19.3897 L0.2795,0.4687 L28.9175,0.4687 L50.6235,19.3897 L53.1395,21.5837 C53.1105,21.6427 53.0785,21.7017 53.0485,21.7587 C53.2145,21.8147 53.3775,21.8737 53.5405,21.9337 L71.9885,38.0137 L40.1165,38.0137 C36.9835,38.0137 34.0075,38.6927 31.3275,39.9117 C25.6915,42.4767 21.3745,47.4347 19.6705,53.4867 C19.1555,55.3197 18.8795,57.2527 18.8795,59.2507 C18.8795,60.1347 18.9345,61.0067 19.0385,61.8637 C20.3265,72.3607 29.2725,80.4897 40.1165,80.4897 L50.6495,80.4897 L63.2395,91.4637 Z" id="Fill-99" fill="#226DFF"></path>
                    <path d="M141.8391,98.9012 L113.2021,98.9012 L92.0801,80.4892 L91.1311,79.6622 L78.6201,68.7562 L70.7131,61.8642 L88.0431,61.8642 C91.2631,61.8642 94.3181,61.1472 97.0521,59.8612 C102.7381,57.1942 107.0481,52.0822 108.6271,45.8772 C109.0531,44.1972 109.2801,42.4382 109.2801,40.6272 C109.2801,39.7422 109.2251,38.8702 109.1211,38.0132 C107.8331,27.5172 98.8871,19.3892 88.0431,19.3892 L78.2381,19.3892 L65.0701,7.9112 L56.5321,0.4692 L88.2021,0.4692 C110.0991,0.4692 127.8511,18.2212 127.8511,40.1172 C127.8511,46.8082 126.1941,53.1112 123.2661,58.6392 C120.5591,63.7562 116.7661,68.2072 112.1931,71.6882 C111.9131,71.9022 111.6291,72.1122 111.3421,72.3182 L112.1931,73.0582 L141.8391,98.9012 Z" id="Fill-101" fill="#1BD9A2"></path>
                </g>
            </g>
        </g>
    </g>
</svg>