<?xml version="1.0" encoding="utf-8"?>
<!-- Generator: Adobe Illustrator 22.1.0, SVG Export Plug-In . SVG Version: 6.00 Build 0)  -->
<svg version="1.1" id="图层_1" xmlns="http://www.w3.org/2000/svg" xmlns:xlink="http://www.w3.org/1999/xlink" x="0px" y="0px"
	 viewBox="0 0 88 88" style="enable-background:new 0 0 88 88;" xml:space="preserve">
<style type="text/css">
	.st0{fill:#F5F5F5;}
	.st1{fill:#FFC50E;}
	.st2{fill:#16A2EE;}
	.st3{fill:#FFA22B;}
	.st4{fill:#FF5500;}
	.st5{fill:#E33398;}
	.st6{fill:#5E0463;}
	.st7{fill:#8E1E90;}
	.st8{fill:#FFFFFF;}
	.st9{opacity:0.6;enable-background:new    ;}
</style>
<title>DDM</title>
<g id="图层_2_1_">
	<g id="图层_1-2">
		<path class="st0" d="M88,44c0,24.3-19.7,44-44,44S0,68.3,0,44S19.7,0,44,0S88,19.7,88,44"/>
		<path class="st1" d="M58.7,23.1c3.5,0.2,6.9,1.6,9.5,3.9c2.6,2.3,4.4,5.4,5.2,8.7C72,28,65.8,20.1,56.5,15.5
			C42.9,9,28,11.9,23.1,22c-1,2.1-1.5,4.4-1.5,6.7c5.1-4,12.6-6.8,21.1-7.4C48,20.8,53.5,21.5,58.7,23.1L58.7,23.1z"/>
		<path class="st2" d="M21.5,28.6c-4.9,3.8-7.8,8.7-7.4,13.9s3.9,9.7,9.3,12.8c0.5-4.2,1.8-8.3,3.8-12
			C23.5,38.7,21.4,33.5,21.5,28.6L21.5,28.6z"/>
		<path class="st3" d="M32.5,35.5c7.6-8.7,17.7-13.2,26.1-12.4c-5.2-1.7-10.7-2.3-16.1-1.9c-8.5,0.6-15.9,3.4-21.1,7.4
			c-0.1,4.9,2,10.1,5.7,14.7C28.6,40.5,30.5,37.9,32.5,35.5z"/>
		<path class="st4" d="M32.5,35.5c7.6-8.7,17.7-13.2,26.1-12.4c-5.2-1.7-10.7-2.3-16.1-1.9c-8.5,0.6-15.9,3.4-21.1,7.4
			c-0.1,4.9,2,10.1,5.7,14.7C28.6,40.5,30.5,37.9,32.5,35.5z"/>
		<path class="st5" d="M73.3,35.7c0.1,0.7,0.2,1.4,0.2,2.1c0,0.2,0,0.4,0.1,0.6c0.1,2.2-0.3,4.5-1.3,6.5c-0.1,0.3-0.2,0.6-0.3,0.9
			c-1.2,2.5-3,4.6-5.3,6.1c-5.2,4.2-12.8,7.2-21.5,7.8c-8.4,0.6-16.1-1.1-21.8-4.4C22.7,62,24.5,68.1,29,72
			c8.9,7.8,24.9,3.9,35.7-8.5C72.3,54.7,75.4,44,73.3,35.7z"/>
		<path class="st3" d="M66.7,51.9c2.3-1.5,4.1-3.7,5.3-6.1c0.1-0.3,0.2-0.6,0.3-0.9C71,47.6,69.1,50,66.7,51.9L66.7,51.9z"/>
		<path class="st3" d="M66.7,51.9c2.3-1.5,4.1-3.7,5.3-6.1c0.1-0.3,0.2-0.6,0.3-0.9C71,47.6,69.1,50,66.7,51.9L66.7,51.9z
			 M58.7,23.1c8.3,2.8,14.1,8.1,14.9,14.7c0-0.7-0.1-1.4-0.2-2.1c-0.7-3.4-2.5-6.4-5.2-8.7C65.5,24.7,62.2,23.3,58.7,23.1L58.7,23.1
			z"/>
		<path class="st3" d="M58.7,23.1c8.3,2.8,14.1,8.1,14.9,14.7c0-0.7-0.1-1.4-0.2-2.1c-0.7-3.4-2.5-6.4-5.2-8.7
			C65.5,24.7,62.2,23.3,58.7,23.1L58.7,23.1z"/>
		<path class="st3" d="M72.4,44.9c1-2,1.4-4.3,1.3-6.5c0-0.2,0-0.4-0.1-0.6C73.7,40.2,73.3,42.6,72.4,44.9z"/>
		<path class="st3" d="M72.4,44.9c1-2,1.4-4.3,1.3-6.5c0-0.2,0-0.4-0.1-0.6C73.7,40.2,73.3,42.6,72.4,44.9z M45.2,59.7
			c8.7-0.6,16.3-3.6,21.5-7.8c-6.9,4.8-17.9,5.2-28.1,0.3c-4.4-2.1-8.3-5.1-11.4-8.9c-2,3.7-3.3,7.8-3.8,12
			C29.1,58.6,36.8,60.3,45.2,59.7L45.2,59.7z"/>
		<path class="st6" d="M45.2,59.7c8.7-0.6,16.3-3.6,21.5-7.8c-6.9,4.8-17.9,5.2-28.1,0.3c-4.4-2.1-8.3-5.1-11.4-8.9
			c-2,3.7-3.3,7.8-3.8,12C29.1,58.6,36.8,60.3,45.2,59.7L45.2,59.7z"/>
		<path class="st3" d="M58.7,23.1c-8.5-0.8-18.5,3.7-26.1,12.4c-2.1,2.4-3.9,5-5.3,7.8c3.1,3.7,7,6.8,11.4,8.9
			c10.2,4.9,21.2,4.5,28-0.3c2.4-1.9,4.3-4.3,5.7-7c0.9-2.2,1.3-4.7,1.2-7.1C72.8,31.2,67,25.9,58.7,23.1L58.7,23.1z"/>
		<path class="st3" d="M58.7,23.1c-8.5-0.8-18.5,3.7-26.1,12.4c-2.1,2.4-3.9,5-5.3,7.8c3.1,3.7,7,6.8,11.4,8.9
			c10.2,4.9,21.2,4.5,28-0.3c2.4-1.9,4.3-4.3,5.7-7c0.9-2.2,1.3-4.7,1.2-7.1C72.8,31.2,67,25.9,58.7,23.1L58.7,23.1z"/>
		<path class="st7" d="M58.7,23.1c-8.5-0.8-18.5,3.7-26.1,12.4c-2.1,2.4-3.9,5-5.3,7.8c3.1,3.7,7,6.8,11.4,8.9
			c10.2,4.9,21.2,4.5,28-0.3c2.4-1.9,4.3-4.3,5.7-7c0.9-2.2,1.3-4.7,1.2-7.1C72.8,31.2,67,25.9,58.7,23.1L58.7,23.1z"/>
		<path class="st8" d="M69.5,29.8c0,0,0-0.2-0.1-0.2c-0.8-2.2-2-4.1-3.6-5.7c-1.6-1.6-3.6-2.8-5.8-3.4c-2.4-0.6-4.9-0.8-7.4-0.7
			h-4.3l-9.8,6.8V52c0,0,0.1,0,0.2,0.1c9.8,4.8,20.3,4.5,27.2,0.2c1.7-1.7,2.9-3.8,3.7-6.1c0.9-2.5,1.3-5.2,1.2-7.8
			C70.9,35.4,70.5,32.5,69.5,29.8L69.5,29.8z M59.9,43c-0.2,1-0.7,1.8-1.5,2.5c-0.7,0.6-1.4,0.9-2.3,1.1c-1.1,0.2-2.3,0.3-3.4,0.3
			h-4.2V29.3h2.5c1.5,0,3.1,0,4.6,0.3c1,0.2,1.8,0.6,2.6,1.2c0.7,0.7,1.3,1.6,1.6,2.6c0.4,1.5,0.6,3.1,0.5,4.7
			C60.5,39.8,60.3,41.4,59.9,43z"/>
	</g>
</g>
<g class="st9">
	<path class="st8" d="M30.7,77h3.6v0.5l-3.1,4h3.3V82h-4v-0.5l3.1-4h-2.9C30.7,77.5,30.7,77,30.7,77z"/>
	<path class="st8" d="M35.2,77h2.2c0.5,0,0.8,0.1,1.1,0.3c0.3,0.2,0.4,0.5,0.4,0.9c0,0.3-0.1,0.5-0.2,0.7c-0.2,0.2-0.4,0.3-0.6,0.4
		c0.3,0.1,0.6,0.2,0.8,0.4s0.3,0.5,0.3,0.8c0,0.5-0.2,0.9-0.5,1.1s-0.7,0.3-1.2,0.3h-2.2L35.2,77L35.2,77z M35.8,77.5v1.7h1.5
		c0.3,0,0.6-0.1,0.8-0.2s0.3-0.4,0.3-0.7c0-0.3-0.1-0.5-0.3-0.6s-0.4-0.2-0.8-0.2C37.3,77.5,35.8,77.5,35.8,77.5z M35.8,79.7v1.9
		h1.6c0.3,0,0.6-0.1,0.8-0.2c0.2-0.2,0.4-0.4,0.4-0.7c0-0.3-0.1-0.6-0.3-0.7s-0.5-0.2-0.9-0.2h-1.6V79.7z"/>
	<path class="st8" d="M40.7,81.3c0.1,0.1,0.1,0.2,0.1,0.3s0,0.2-0.1,0.3C40.6,82,40.5,82,40.4,82s-0.2,0-0.3-0.1S40,81.7,40,81.6
		c0-0.1,0-0.2,0.1-0.3c0.1-0.1,0.2-0.1,0.3-0.1C40.5,81.2,40.6,81.2,40.7,81.3z"/>
	<path class="st8" d="M45.4,77.3c0.4,0.3,0.6,0.7,0.7,1.2h-0.6c-0.1-0.4-0.2-0.6-0.5-0.8c-0.3-0.2-0.6-0.3-1-0.3
		c-0.6,0-1,0.2-1.3,0.6s-0.4,0.9-0.4,1.5s0.1,1.1,0.4,1.5c0.3,0.4,0.8,0.6,1.3,0.6c0.4,0,0.7-0.1,1-0.3c0.3-0.2,0.5-0.6,0.6-1h0.5
		c-0.1,0.6-0.4,1-0.8,1.4c-0.4,0.3-0.8,0.5-1.4,0.5c-0.8,0-1.4-0.3-1.8-0.8c-0.4-0.5-0.6-1.1-0.6-1.8c0-0.7,0.2-1.4,0.6-1.8
		c0.4-0.5,1-0.8,1.8-0.8C44.5,76.9,45,77,45.4,77.3z"/>
	<path class="st8" d="M50.9,77.6c0.4,0.5,0.6,1.1,0.6,1.9c0,0.7-0.2,1.4-0.6,1.8c-0.4,0.5-1,0.7-1.8,0.7c-0.7,0-1.3-0.2-1.8-0.7
		c-0.4-0.5-0.6-1.1-0.6-1.8c0-0.8,0.2-1.4,0.6-1.8c0.4-0.5,1-0.8,1.8-0.8C49.8,76.9,50.4,77.1,50.9,77.6z M47.7,78
		c-0.3,0.4-0.5,0.9-0.5,1.5s0.2,1.1,0.5,1.5s0.8,0.6,1.4,0.6c0.6,0,1-0.2,1.4-0.6c0.3-0.4,0.5-0.9,0.5-1.5s-0.2-1.1-0.5-1.5
		s-0.8-0.6-1.3-0.6C48.5,77.4,48.1,77.6,47.7,78z"/>
	<path class="st8" d="M52.3,77H53l1.9,4.3l0,0l1.9-4.3h0.7v5h-0.6v-4l0,0l-1.7,4h-0.5L53,78l0,0v4h-0.6v-5H52.3z"/>
</g>
</svg>
