<?xml version="1.0" encoding="utf-8"?>
<!-- Generator: Adobe Illustrator 22.1.0, SVG Export Plug-In . SVG Version: 6.00 Build 0)  -->
<svg version="1.1" id="图层_1" xmlns="http://www.w3.org/2000/svg" xmlns:xlink="http://www.w3.org/1999/xlink" x="0px" y="0px"
	 viewBox="0 0 88 88" style="enable-background:new 0 0 88 88;" xml:space="preserve">
<style type="text/css">
	.st0{fill:#EFCA0C;}
	.st1{fill:#FFFFFF;}
	.st2{opacity:0.1;enable-background:new    ;}
</style>
<title>BCD</title>
<circle class="st0" cx="44" cy="44" r="44"/>
<g>
	<path class="st1" d="M12.4,37v-6.7c0-0.5,0.4-0.9,0.9-0.9h20c0.5,0,0.9,0.4,0.9,0.9V37c0,0.5-0.4,0.9-0.9,0.9h-20
		C12.8,38,12.4,37.5,12.4,37"/>
	<path class="st1" d="M19.3,51.1v-3.6c0-0.4,0.3-0.7,0.7-0.7h15.3c0.4,0,0.7,0.3,0.7,0.7v3.6c0,0.4-0.3,0.7-0.7,0.7H20
		C19.6,51.8,19.3,51.5,19.3,51.1 M36,30v9.3c0,0.4-0.3,0.6-0.6,0.6H13c-0.4,0-0.6,0.3-0.6,0.6V58c0,0.4,0.3,0.6,0.6,0.6h29.2
		c0.4,0,0.6-0.3,0.6-0.6V29.9c0-0.4-0.3-0.6-0.6-0.6h-5.7C36.2,29.4,36,29.6,36,30 M52,51.1V36.9c0-0.4,0.3-0.7,0.7-0.7H75
		c0.4,0,0.7-0.3,0.7-0.7V30c0-0.4-0.3-0.7-0.7-0.7H45.7c-0.4,0-0.7,0.3-0.7,0.7v28.1c0,0.4,0.3,0.7,0.7,0.7h29.2
		c0.4,0,0.7-0.3,0.7-0.7V40.6c0-0.4-0.3-0.7-0.7-0.7H57.5c-0.4,0-0.7,0.3-0.7,0.7v5.6c0,0.4,0.3,0.7,0.7,0.7H68
		c0.4,0,0.7,0.3,0.7,0.7v3.7c0,0.4-0.3,0.7-0.7,0.7H52.6C52.3,51.8,52,51.5,52,51.1"/>
</g>
<g class="st2">
	<path class="st1" d="M30.7,74h3.6v0.5l-3.1,4h3.3V79h-4v-0.5l3.1-4h-2.9C30.7,74.5,30.7,74,30.7,74z"/>
	<path class="st1" d="M35.2,74h2.2c0.5,0,0.8,0.1,1.1,0.3c0.3,0.2,0.4,0.5,0.4,0.9c0,0.3-0.1,0.5-0.2,0.7c-0.2,0.2-0.4,0.3-0.6,0.4
		c0.3,0.1,0.6,0.2,0.8,0.4s0.3,0.5,0.3,0.8c0,0.5-0.2,0.9-0.5,1.1s-0.7,0.3-1.2,0.3h-2.2L35.2,74L35.2,74z M35.8,74.5v1.7h1.5
		c0.3,0,0.6-0.1,0.8-0.2s0.3-0.4,0.3-0.7c0-0.3-0.1-0.5-0.3-0.6s-0.4-0.2-0.8-0.2C37.3,74.5,35.8,74.5,35.8,74.5z M35.8,76.7v1.9
		h1.6c0.3,0,0.6-0.1,0.8-0.2c0.2-0.2,0.4-0.4,0.4-0.7c0-0.3-0.1-0.6-0.3-0.7s-0.5-0.2-0.9-0.2h-1.6V76.7z"/>
	<path class="st1" d="M40.7,78.3c0.1,0.1,0.1,0.2,0.1,0.3s0,0.2-0.1,0.3C40.6,79,40.5,79,40.4,79s-0.2,0-0.3-0.1S40,78.7,40,78.6
		c0-0.1,0-0.2,0.1-0.3c0.1-0.1,0.2-0.1,0.3-0.1C40.5,78.2,40.6,78.2,40.7,78.3z"/>
	<path class="st1" d="M45.4,74.3c0.4,0.3,0.6,0.7,0.7,1.2h-0.6c-0.1-0.4-0.2-0.6-0.5-0.8c-0.3-0.2-0.6-0.3-1-0.3
		c-0.6,0-1,0.2-1.3,0.6s-0.4,0.9-0.4,1.5s0.1,1.1,0.4,1.5c0.3,0.4,0.8,0.6,1.3,0.6c0.4,0,0.7-0.1,1-0.3c0.3-0.2,0.5-0.6,0.6-1h0.5
		c-0.1,0.6-0.4,1-0.8,1.4c-0.4,0.3-0.8,0.5-1.4,0.5c-0.8,0-1.4-0.3-1.8-0.8c-0.4-0.5-0.6-1.1-0.6-1.8c0-0.7,0.2-1.4,0.6-1.8
		c0.4-0.5,1-0.8,1.8-0.8C44.5,73.9,45,74,45.4,74.3z"/>
	<path class="st1" d="M50.9,74.6c0.4,0.5,0.6,1.1,0.6,1.9c0,0.7-0.2,1.4-0.6,1.8c-0.4,0.5-1,0.7-1.8,0.7c-0.7,0-1.3-0.2-1.8-0.7
		c-0.4-0.5-0.6-1.1-0.6-1.8c0-0.8,0.2-1.4,0.6-1.8c0.4-0.5,1-0.8,1.8-0.8C49.8,73.9,50.4,74.1,50.9,74.6z M47.7,75
		c-0.3,0.4-0.5,0.9-0.5,1.5s0.2,1.1,0.5,1.5s0.8,0.6,1.4,0.6c0.6,0,1-0.2,1.4-0.6c0.3-0.4,0.5-0.9,0.5-1.5s-0.2-1.1-0.5-1.5
		s-0.8-0.6-1.3-0.6C48.5,74.4,48.1,74.6,47.7,75z"/>
	<path class="st1" d="M52.3,74H53l1.9,4.3l0,0l1.9-4.3h0.7v5h-0.6v-4l0,0l-1.7,4h-0.5L53,75l0,0v4h-0.6v-5H52.3z"/>
</g>
</svg>
