<?xml version="1.0" encoding="utf-8"?>
<!-- Generator: Adobe Illustrator 21.1.0, SVG Export Plug-In . SVG Version: 6.00 Build 0)  -->
<svg version="1.1" id="图层_1" xmlns="http://www.w3.org/2000/svg" xmlns:xlink="http://www.w3.org/1999/xlink" x="0px" y="0px"
	 viewBox="0 0 293 292" style="enable-background:new 0 0 293 292;" xml:space="preserve">
<style type="text/css">
	.st0{fill:#9C8416;}
	.st1{fill:#977E00;}
	.st2{fill:#7D6A19;}
	.st3{fill:#BF9D00;}
	.st4{fill:#E3CC75;}
	.st5{fill:#EACA6C;}
	.st6{fill:#C18D2B;}
	.st7{fill:#D3AE3D;}
	.st8{fill:#D6B95C;}
	.st9{fill:#C5A200;}
	.st10{fill:#776510;}
	.st11{fill:#D2A62D;}
	.st12{fill:#A77B20;}
	.st13{fill:#F6E092;}
	.st14{fill:#DAA618;}
	.st15{fill:#F5EBAC;}
	.st16{fill:#BD8419;}
	.st17{fill:#EDE6D2;}
	.st18{fill:#B47F19;}
	.st19{fill:#D19C1D;}
	.st20{fill:#EBE5D3;}
	.st21{fill:#AD8E15;}
	.st22{fill:#C49A2E;}
	.st23{fill:#F4E4BE;}
	.st24{fill:#AC8E14;}
	.st25{fill:#D1A735;}
	.st26{fill:#AD8E14;}
	.st27{fill:#B29217;}
	.st28{fill:#AD8F13;}
	.st29{fill:#B29112;}
	.st30{fill:#E9C059;}
	.st31{fill:#C3A535;}
	.st32{fill:#DAB559;}
	.st33{fill:#B49216;}
	.st34{fill:#C4A73C;}
	.st35{fill:#E5BE57;}
	.st36{fill:#AA8D12;}
	.st37{fill:#C3A638;}
	.st38{fill:#F8EEB6;}
	.st39{fill:#AE8E14;}
	.st40{fill:#F4E8A8;}
	.st41{fill:#F2E4A1;}
	.st42{fill:#AF9012;}
	.st43{fill:#B0930A;}
	.st44{fill:#BA9700;}
	.st45{fill:#F8EEB5;}
	.st46{fill:#C09F13;}
	.st47{fill:#C5A73D;}
	.st48{fill:#E6D691;}
	.st49{fill:#B19116;}
	.st50{fill:#C0A015;}
	.st51{fill:#C0A013;}
	.st52{fill:#C2A32A;}
	.st53{fill:#F1EBDC;}
	.st54{fill:#C5A841;}
	.st55{fill:#C1A327;}
	.st56{fill:#C1A11F;}
	.st57{fill:#C2A42A;}
	.st58{fill:#C4A73F;}
	.st59{fill:#C3A52E;}
	.st60{fill:#DCC066;}
	.st61{fill:#E7D17A;}
	.st62{fill:#C7A239;}
	.st63{fill:#F9F2DE;}
	.st64{fill:#D8AF46;}
	.st65{fill:#DCC065;}
	.st66{fill:#F5ECDA;}
	.st67{fill:#DBBE62;}
	.st68{fill:#F1E7D6;}
	.st69{fill:#F4EAD8;}
	.st70{fill:#C8981C;}
	.st71{fill:#F4EAD7;}
	.st72{fill:#98702E;}
	.st73{fill:#D09C17;}
	.st74{fill:#BB9433;}
	.st75{fill:#F2D77F;}
	.st76{fill:#70633D;}
	.st77{fill:#F5DF92;}
	.st78{fill:#645735;}
	.st79{fill:#A89A65;}
	.st80{fill:#6C613C;}
	.st81{fill:#EEE19E;}
	.st82{fill:#FEED9C;}
	.st83{fill:#E2B843;}
	.st84{fill:#CA9313;}
	.st85{fill:#D8A300;}
	.st86{fill:#D8A92A;}
	.st87{fill:#D9AD37;}
	.st88{fill:#B17906;}
	.st89{fill:#D09C0B;}
	.st90{fill:#D2A01C;}
	.st91{fill:#F1CA62;}
	.st92{fill:#F4EEC2;}
	.st93{fill:#F5EDBA;}
	.st94{fill:#F1CA63;}
	.st95{fill:#F5E094;}
	.st96{fill:#F0E5A5;}
	.st97{fill:#E7D793;}
	.st98{fill:#EDE19F;}
	.st99{fill:#FAF0DC;}
	.st100{fill:#F8EEDA;}
	.st101{fill:#FBFAEE;}
	.st102{fill:#EFC75C;}
	.st103{fill:#F3E9D7;}
	.st104{fill:#BC9633;}
	.st105{fill:#956219;}
	.st106{fill:#ECE3D4;}
	.st107{fill:#EAC35C;}
	.st108{fill:#F5EBD8;}
	.st109{fill:#FBF2DF;}
	.st110{fill:#E3BC52;}
	.st111{fill:#A88A0A;}
	.st112{fill:#F6EFDE;}
	.st113{fill:#F7F1E3;}
	.st114{fill:#FAF4E4;}
	.st115{fill:#F5ECDB;}
	.st116{fill:#FBF4E1;}
	.st117{fill:#855E27;}
	.st118{fill:#996F29;}
	.st119{fill:#E6E0D7;}
	.st120{fill:#EFE6D7;}
	.st121{fill:#F7F0DF;}
	.st122{fill:#F1EADA;}
	.st123{fill:#E3C56A;}
	.st124{fill:#E3C363;}
	.st125{fill:#EBCD71;}
	.st126{fill:#26220F;}
	.st127{fill:#C3BEB2;}
	.st128{fill:#947B3F;}
	.st129{fill:#221E08;}
	.st130{fill:#6C5D36;}
	.st131{fill:#26220E;}
	.st132{fill:#E6D993;}
	.st133{fill:#3B331C;}
	.st134{fill:#6A5C36;}
	.st135{fill:#39321B;}
	.st136{fill:#26230F;}
	.st137{fill:#332C17;}
	.st138{fill:#605937;}
	.st139{fill:#766841;}
	.st140{fill:#EAC45A;}
	.st141{fill:#E3C26E;}
	.st142{fill:#867546;}
	.st143{fill:#DEDCD7;}
	.st144{fill:#F6EDDA;}
	.st145{fill:#EEE6D8;}
	.st146{fill:#E7DDD5;}
	.st147{fill:#E6DDD3;}
	.st148{fill:#583D22;}
	.st149{fill:#D0AC40;}
	.st150{fill:#F5EEDC;}
	.st151{fill:#F2E7D6;}
	.st152{fill:#DBDAD5;}
	.st153{fill:#DBB345;}
	.st154{fill:#DFAF30;}
	.st155{fill:#D5AC43;}
	.st156{fill:#F6EDDE;}
	.st157{fill:#2E2913;}
	.st158{fill:#DAAD35;}
	.st159{fill:#F4EDDD;}
	.st160{fill:#D6D6D4;}
	.st161{fill:#E2CC7E;}
	.st162{fill:#E6CB7A;}
	.st163{fill:#F0D488;}
	.st164{fill:#FAF4E3;}
	.st165{fill:#E7CD7F;}
	.st166{fill:#F0E4BE;}
	.st167{fill:#F8F4E7;}
	.st168{fill:#FBF5E7;}
	.st169{fill:#DBD9D6;}
	.st170{fill:#F7F2E2;}
	.st171{fill:#E7E2D9;}
	.st172{fill:#D9D8D6;}
	.st173{fill:#C8A548;}
	.st174{fill:#F9F0DE;}
	.st175{fill:#DAD9D4;}
	.st176{fill:#6F623D;}
	.st177{fill:#1D1A05;}
	.st178{fill:#F4D178;}
	.st179{fill:#120F03;}
	.st180{fill:#332C15;}
	.st181{fill:#EBB94E;}
	.st182{fill:#5B5030;}
	.st183{fill:#897943;}
	.st184{fill:#EDB947;}
	.st185{fill:#F4EFE0;}
	.st186{fill:#37301D;}
	.st187{fill:#F9F5E8;}
	.st188{fill:#B68E2F;}
	.st189{fill:#FAEFDB;}
	.st190{fill:#F0E9D9;}
	.st191{fill:#EFE5D6;}
	.st192{fill:#F3ECDB;}
	.st193{fill:#1F1E0E;}
	.st194{fill:#615736;}
	.st195{fill:#FDFBEE;}
	.st196{fill:#E0DBD6;}
	.st197{fill:#F5F0DB;}
	.st198{fill:#FEFEFA;}
	.st199{fill:#E1CB7F;}
	.st200{fill:#D8B043;}
	.st201{fill:#F4F4F2;}
	.st202{fill:#DBDCDA;}
	.st203{fill:#BCBCB9;}
	.st204{fill:#1D1A09;}
	.st205{fill:#E4CA77;}
	.st206{fill:#DFC36F;}
	.st207{fill:#D6AD3A;}
	.st208{fill:#D0B24F;}
	.st209{fill:#F4EBDA;}
	.st210{fill:#DFDED8;}
	.st211{fill:#D7D6D4;}
	.st212{fill:#ECE8DE;}
	.st213{fill:#0F0B01;}
</style>
<title>Group 15</title>
<desc>Created with Sketch.</desc>
<path id="Fill-4" class="st0" d="M291.9,157c-0.9,20.6-6.6,40-16.6,58c-24.8,44.7-62.9,70.2-113.5,76.9c-1.6,0.2-3.3,0.1-5,0.1
	c-7.3-0.7-14.6-0.6-21.9,0c-19.3-0.9-37.6-5.9-54.5-15C25.2,247-2.4,200.2,0.2,137.6C3.1,66.1,59.8,8.1,131.4,0.8
	c78.5-8,149.1,47.6,159.7,125.9c0.4,2.8,1.1,5.6,0.7,8.4C291.3,142.4,291.2,149.7,291.9,157"/>
<path id="Fill-6" class="st1" d="M135,291.7c7.3-0.9,14.7-1,22,0C149.7,292.1,142.3,292.1,135,291.7"/>
<path id="Fill-8" class="st1" d="M292.4,157c-1.9-7.3-1.9-14.7,0-22C293.2,142.3,293.2,149.7,292.4,157"/>
<path id="Fill-10" class="st2" d="M146.9,5C223.7,3.7,288.6,68.4,288,147.7c-0.6,76.4-63.5,141.2-143.5,140.3
	C68.9,287.1,3.5,224.2,5,142.9C6.4,69.1,69.1,3.3,146.9,5"/>
<path id="Fill-12" class="st3" d="M45.9,242c-10.7-10.8-19.1-23.3-25.5-37.1C13.2,189.4,8.7,173.2,8,156c0.8-6.3,0.8-12.6,0-18.9
	c0.4-15.3,4.1-29.9,10-43.9C29.5,65.8,47.9,44,73.2,28.3C89.9,18,108,11.1,127.6,8.9c2.8-0.3,5.5-1.2,8.4-0.8
	c6.6,0.7,13.3,0.7,19.9,0c21.3,1.1,41,7.4,59.5,17.9c23.7,13.6,41.8,32.7,54.3,56.9c7.8,15,12.4,31,14.4,47.9
	c2.2,19.3,0.6,38.1-5.2,56.5c-6.4,20.4-16.4,38.8-31.9,53.9c-2.5-2.7-2.5-6.1-2.5-9.4c0.1-10.3-0.2-20.6-1.9-30.8
	c0.4-5,0.6-10.1,0-15.1c-0.1-2.9,0.3-5.8-0.5-8.6c-0.4-2.5-0.9-5.1-1.5-7.6c-1.1-4.1-2.6-8.1-3.9-12.1c-1.2-3.3-1.8-6.8-3.5-9.9
	c-0.8-2.5-0.2-5.2-1.1-7.7c-0.6-4.2-1-8.3-1.9-12.5c-0.2-0.5-0.3-1-0.4-1.5c-0.4-6.3-3.7-11.8-5-17.8c0.1-4.9-1.5-9.4-3.6-13.8
	c-2.1-5.2-4.1-10.4-6-15.7c-0.4-2.9,0.6-5.6,1.1-8.3c2.1-11.2,0.7-22.1-2.8-32.8c-2.5-7.8-8.4-9.4-15.1-4.7c-0.5,0.5-1,1-1.5,1.6
	c-1.8,3.1-5,4.8-7.4,7.3c-4.7,4.4-8.3,10.1-14.2,13.3c-3.9,1.9-7.8-0.4-11.8-0.1c-7.3,0.5-14.5,1.6-21.6,2.7
	c-6.4-0.7-12.8-1.1-18.9-3.5c-2.3-4.5-6.7-7.7-7.8-13c-1-3-1.7-6.1-3.8-8.6c-2.3-3.4-4.8-6.7-8.7-8.5c-1.3-0.5-2.5-0.8-3.5,0.4
	c-0.2,0.4-0.4,0.7-0.6,1.1c-0.4,1-0.7,2.2-0.9,3.3c-0.5,2.8-0.2,5.6-0.3,8.4c-0.2,7.8-1.2,15.4-3.2,23c-1.1,1.8-0.9,4.3-3,5.5
	c-4.2,1-8.4,0.3-12.7,0.5c-1.9,0.1-3.9-0.4-5.7,0.9c-2.2,2.2-1,5.3-2.1,7.7c-10.4,12-14.9,26.4-16.5,41.9c-0.9,4.2-3.3,7.9-4.4,12.1
	c-0.4,1-1,1.8-2,2.3c-2.9-1.2-6.1-0.5-9.1-1.5c-1.5-0.6-3-0.2-4.5-0.4c-2.4-0.7-4.7-1.1-7.2-0.9c-0.6-0.1,0.2,0.1-0.4,0
	c-0.3-0.1-0.6-0.1-0.9-0.2c0.1,0.3,0.4,0.1,0.5,0.3c2.7-0.1,5.3,0.1,7.8,1c1.3,0.1,2.6,0,3.9,0.2c3.2,1.4,6.9,0.1,9.9,2.1
	c0.9,0.7,1,1.7,0.7,2.7c-1.9,1.1-1.2,3.5-2.6,4.9c-3.6,1.5-7.4,2.3-11.2,3.3c-1.1,0.4-2.2,0.9-3.4,0.9c-1.2,0.2-2.1,1.7-2.7,1.3
	c0.5,0.4,1.5-0.8,2.6-1.2c1.5,0,2.8-0.7,4.1-1c3.9-0.7,7.6-2.7,11.7-2.7c0.9,1,1,2.3,1.1,3.6c0,1.5,0,3-0.3,4.4
	c-0.1,0.4-0.3,0.8-0.5,1.2c-1.8,0.6-0.1,0.9,0.2,1.3c0.2,0.4,0.4,0.8,0.5,1.2c0.3,1.8,0.2,3.7,0.8,5.4c0.2,0.9,0.3,1.9,0.4,2.8
	c0,1.4,0.1,2.8,0.6,4.1c0.4,1.3,0.8,2.6,1.1,4c0.2,2.6,1.2,4.8,2.6,6.9c0.3,0.6,0.5,1.3,0.6,2c0.5,2.5,1.3,4.9,2.7,7
	c0.5,0.9,0.9,1.8,1.1,2.8c0.2,3-0.5,6-1.4,8.8c-1.2,3.7-2.8,7.1-0.8,11c0.1,0.3,0.2,0.7,0,1c-4,9.6-1.4,20.6-6.6,29.9
	C48.3,239,48.1,241.3,45.9,242"/>
<path id="Fill-14" class="st4" d="M159.3,284c-8.4,1.5-16.8,1.1-25.2,0.2c-2-0.2-4-0.2-5.9-0.2c-0.6,0.5-1.2,0.6-1.7-0.2
	c-6.1-1.8-12.7-1.7-18.5-4.7c0-3.9,2.1-6.4,5.2-8.2c5.1,1.9,9.3,0.1,14.3-1.8c5.4-2,9.4-5.2,13.1-8.8c4.3-4.2,9-6.8,14.6-9
	c5.2-2.1,11.2-3,15.7-7c0.9-0.8,2-1.3,3.2-1.4c9.4-0.8,14.7-7.6,20-14.1c2-2.5,3.8-5,7.2-5.7c2.5-0.5,4.5-2.2,6.5-3.6
	c3.5-2.3,7.2-2.9,11.4-2.2c3.5,0.6,5.5,2.1,6.1,5.4c0.7,4.2,1.2,8.4-0.6,12.6c-2.2,5.2-5.1,10.1-6.8,15.5c0.5,0.9-2.4,1.4-0.2,2.5
	c-3.8,4.6-8.8,8-11.5,13.4c-5,5.6-12.2,7.5-18.8,9.2c-2.8,0.7-6.8-0.8-10.3,0.2c-1.4,0.4-3.1,0.5-4.2,1.5
	C169,281.1,164.4,283,159.3,284"/>
<path id="Fill-16" class="st5" d="M46,242.3c3.9-8.4,6.9-16.9,6.1-26.4c-0.2-1.9,0.9-3.5,1.6-5.2c0.5-1.1,1.5-2.6,1.1-3.2
	c-4.4-6.5,1.9-11.7,1.8-17.6c0-1.3,0.3-2.6,0.4-4c3.1,0.7,3.2,3.5,4.2,5.8c1.8,7.7,5.7,14.4,9.8,21c1.2,4.6-0.3,9.5,1,14.1
	c0.4,0.6,0.9,1.1,1.6,1.5c5.1,1.3,10.4-0.2,15.5,0.9c2.2,7.3,2.6,14.8,3.8,22.3c0.2,1.1-1,2-2,2.7c-3.6,2.5-8.1,3.8-10.3,8.1
	c-1.3,2-2.2,4.7-5.5,3.3c-9.2-5.7-18.4-11.4-25.4-20.1C48.7,244.3,47.3,243.3,46,242.3"/>
<path id="Fill-18" class="st6" d="M205,266.2c3-5.4,7.1-9.7,12.2-13.2c0.5-1.1,1-2.2,1.6-3.2c3.4-5.3,8.4-9.3,12-14.5
	c1.9-2.7,2.7-5.4,3.1-8.7c0.8-7,0.5-14.2,3.6-20.9c1.3-1.6,1.3-3.7,2-5.5c0.5-1.3,0.4-3.3,2.4-3.3c1.7,0,1.4,1.9,2.2,2.9
	c3.2,13.6,1,27.5,3.1,41.2c-9.3,10.7-20.1,19.4-32.7,25.9C211.3,265.4,208,267.8,205,266.2"/>
<path id="Fill-20" class="st7" d="M75,265.7c3.4,0.7,2.9-3.5,5.1-4.2c2-1.2,4.4-0.7,6.6-1.3c0.9,1,1.8-0.2,2.7-0.1
	c1.4,0.2,2.8,0.3,4.2,0.7c0.5,0.2,0.9,0.4,1.3,0.7c3.2,3.5,7,5.4,12,4.7c1.8-0.2,3.7,0,5.4,0.6c3.1,1.1,3.4,2.8,1.1,5.9
	c-2.9,1.6-3,5.2-5.3,7.4C96.3,277.3,85.3,272.2,75,265.7"/>
<path id="Fill-22" class="st8" d="M204.7,266.4c3.1,0.2,6.6-3.8,9.3,0.8c-17.2,9.3-34.9,16.7-55,16.8c0.7-1.6,2-2.1,3.6-2
	c1.7,0,3.5-0.5,4.5-1.8c4.2-5,10.4-5.1,16-6.7c0.3-0.1,0.8-0.4,0.9-0.3c4,4.6,6.9-0.6,10.2-1.1C198.4,271.5,201.8,269.3,204.7,266.4
	"/>
<path id="Fill-24" class="st9" d="M156,8c-6.7,1.3-13.3,1.3-20,0C142.7,8,149.3,8,156,8"/>
<path id="Fill-26" class="st9" d="M8,137c1.3,6.3,1.3,12.7,0,19C8,149.7,8,143.3,8,137"/>
<path id="Fill-28" class="st10" d="M126.2,284c0.6,0,1.2,0.1,1.8,0.1c-1.1,1.4-2.5,0.8-4,0.4L126.2,284z"/>
<path id="Fill-30" class="st11" d="M243.6,199.8c-0.6-0.7-1.3-1.4-2-2.2c-2.9,2,0.1,6.9-4,8.3c-4.9-3.6-9-2.7-13.4,1.4
	c-2.8,2.7-6.5,3.7-10.5,2c-1-1-0.9-2.2-0.1-3.1c2.6-3.1,4.2-6.9,7.3-9.5c4.9-1.8,10-3.3,12.4-8.7c1.9-4.3,1.4-5.6-2.9-8.1
	c-0.9-0.5-1.3-1.4-1.6-2.4c-0.5-2.3,0.4-4.5,0.6-6.8c1.1-4.4,1.5-8.8,2.3-13.3c0.8-2,0.3-4.3,1.7-6.1c1.5-0.6,1.6,0.4,1.8,1.4
	c0.4,1.6,0.6,3.2,1.8,4.5c1.1,5.8,3.9,11.2,4.4,17.1c0.4,1.5,0.9,2.9,1.7,4.2c0.4,2.5-0.6,5.1,0.5,7.5
	C243.6,190.5,244.5,195.2,243.6,199.8"/>
<path id="Fill-32" class="st12" d="M197,33.3c4.2-5.9,13.1-5.7,16.5,0.6c3.2,5.9,3.9,12.4,5,18.9c1.4,9-0.3,17.6-2.1,26.2
	c0.4,0.4,0.5,0.9,0.2,1.4c-0.6,2.1-1.2,4.4-3.8,4.6c-2,0.1-2.6-1.8-3.3-3.3c-0.6-2.2-1.4-4.4-1.2-6.7c0.7-3.7,1.6-7.4,2.7-11
	c2.2-7.1,0.3-12.9-5.1-17.9C203.9,41.2,199.7,37.8,197,33.3"/>
<path id="Fill-34" class="st13" d="M60,191.8c-1-2-2-3.9-3-5.9c-0.3-0.6-0.7-1.3-1-1.9c-1-2.3-1-5.1-2.8-7.1
	c-0.1-0.6-0.1-1.3-0.2-1.9c-1.1-2.1-2-4.3-2.4-6.7c-0.4-1.5-0.2-3.2-1.7-4.3c-1.1-1.3-0.9-2.7-0.8-4.2c1.2-1.8-0.6-3.9,0.4-5.7
	c0.3-0.4,0.8-0.6,1.3-0.5c2.2,1.5,2.4,3.9,2.8,6.2c0.5,2.8,1.9,3.8,4.6,2.9c3.4-1.2,0.1-2.9,0.3-4.4c-0.1-0.5,0-1,0.1-1.4
	c1.5-2.3,3.1-4.3,6-4.8c0.5,0,0.9,0.1,1.3,0.3c0.4,0.2,0.7,0.6,0.9,0.9c0.6,1.1,1.3,2.1,2.1,3.1c0.7,1.1,1.3,2.2,1.6,3.5
	c0.1,0.4,0.1,0.9,0,1.3c0.5,1.2-2,2.8,0.6,3.7c0.9,0.9,1,2,0.9,3.2c-0.7,3.5-0.5,7.2-4.2,9.8c-2.1,1.4-2.9,4.6-1.5,7.7
	c1.2,2.9,1.4,6.1,2.3,9.1c-0.7,2.6-1.9,3.3-4.1,1.3C62.1,194.6,61.2,193.1,60,191.8"/>
<path id="Fill-36" class="st14" d="M123,53.1c6.1,2.3,12.8,1.9,19,3.8c7.8-1.2,15.7-1.5,23.7-1.4c1.8,0,3.6,0.1,5.3,1
	c3,3.5-1.1,5-2.1,7.4c-0.5,0.6-1.1,1-1.8,1.4c-0.7,0.3-1.4,0.3-2.1,0.2c-1.1-0.2-2.2-0.6-3.3-0.9c-1.3-0.4-2.6-0.5-4-0.5
	c-0.5,0-0.9,0-1.4,0c-3.8-0.7-7.6,0.2-11.5,0.2c-1.3,0.2-2.2,1.1-3.5,1.4c-1.3,0.4-2.7,0.3-4,0c-5.8-1.2-11.7,0.3-17.5-0.9
	c-3.1-3.2-5.9-6.7-10.7-7.6c-0.6-2.4,1.9-2.7,2.8-4.1C115.5,50.9,119.2,49.8,123,53.1"/>
<path id="Fill-38" class="st15" d="M47.5,143.5c-0.1-1.3-0.1-2.6-0.2-3.9c-0.1-0.2-0.2-0.4-0.3-0.6c0.1-0.2,0.2-0.4,0.3-0.6
	c0.8-0.3,1.6,0,2.3,0.1c-0.4-0.6-1.5-0.4-1.8-1.2c-0.4-1-0.3-1.9,0.3-2.7c0.1-1,0.1-2,0.2-3c0.2-0.1,0.4-0.3,0.6-0.4
	c1.4-0.1,2.7-0.1,4.1,0c0.3,0.1,0.5,0.4,0.8,0.4c0.5,0.1,0.6,0.1,0.2,0c-0.6-0.2-1.2-0.6-1.9-0.5c-1.6-0.1-3.8,0.5-2.9-2.5
	c0.4-4.2,2.5-7.8,4.1-11.6c0.2-0.4,0.4-0.8,0.7-1.2c1.1-1.7,1.7-3.9,4.5-3c0.5,0.7,0.6,1.5,0.6,3c2.3-2,3.8-4.4,6-5.7
	c1.7-1,3.2-3,5.5-1.1c0.9,2.3,1.6,4.6,1.1,7.1c-4.7,1.5-5.5,6.4-8.1,9.6c-0.3,0.5-1-0.1-1.4,0.4c0.5,0.1,0.9,0.2,1.4,0.2
	c1.5,3-2.2,2.7-2.7,4.4c-3.1,3-2.6,8.1-6.1,11C52.7,142.8,50.6,145,47.5,143.5"/>
<path id="Fill-40" class="st16" d="M122.8,53.5c-3.8-1.2-7.5-1.2-11,1c-0.7,0.6-1.5,0.7-2.4,0.4c-4.2-2.6-5.6-6.9-4.7-11.3
	c1-5.4-0.1-10.3-1.8-15.2c-0.6-1.7-1.5-3.5-0.2-5.2c4.1,1.9,7.1,5,9,9.1c2.1,2.7,2.5,6.2,4,9.2c2.1,3.6,3.4,7.9,7.2,10.4
	C123.2,51.8,122.8,52.9,122.8,53.5"/>
<path id="Fill-42" class="st17" d="M70.4,74.7c0.7-3-0.8-6.2,1.2-9c7-0.7,13.9-1.1,20.9,0.3c0.8,0.8,0.6,1.5,0,2.2
	c-4.6,2.8-9.5,4.9-14.5,6.8c-3.6,1.4-5.2,3.6-5.2,7.5c0.1,4.1,0.5,8.3-0.5,12.4c-0.2,0.5-0.6,0.9-1.1,1.2c-0.6,0-1.1-0.2-1.4-0.7
	c-0.6-1.3-0.7-2.7-0.7-4c0-2.5,0-5-0.1-7.4c0-1.4,0.1-2.8,0-4.2C69,77.8,69.5,76.2,70.4,74.7"/>
<path id="Fill-44" class="st18" d="M168,64l4.1-6c0.4-2.3,2.4-2.9,3.9-4c4.3-4.3,8.6-8.7,13-13c0.4,4.4-2.3,8.3-2.4,12.6
	c-0.3,0.5-0.7,0.7-1.2,0.7c-1.2-0.8-1.2-1.7-0.6-2.6c-1.8,5.3-4.9,10.1-8.5,14.6c-0.8,0.6-1.8,0.7-2.8,0.6c-0.5-0.1-0.9-0.3-1.3-0.5
	c-0.3-0.3-0.5-0.7-0.5-1.1c-0.1-0.2,0.8-0.7-0.1-0.6C170.3,65,169,65.2,168,64"/>
<path id="Fill-46" class="st15" d="M58.6,157.6c0.4,1.7,3.8,2.5,1.9,4.9c-1.5,1.8-4.1,1.4-6,1.5c-2.2,0.1-2-2.5-2.4-4.2
	c-0.5-2-1-4-1.5-6.1c-1-0.9-2.4-1.5-2.9-2.9c-0.1-0.3-0.3-0.6-0.4-0.9c-0.3-0.4-0.3-0.8,0-1.2l0.3,0.1c2.2-2.6,4.7-4.6,8.5-3.6
	c2.5,2.6,1.2,6.1,2.2,9.1c0.1,0.6,0.1,1.3-0.2,1.9C57.4,157,57.5,157.5,58.6,157.6"/>
<path id="Fill-48" class="st19" d="M103,22.9c1.2,3.9,2.2,7.9,3.5,11.8c0.6,1.8,0.8,3.6,0.2,5.3c-1.8,5.3-0.2,9.6,3.3,13.6
	c-3.6,0.6-7,2.5-10.8,2.3c-1.3-1.8,0.6-3.1,0.7-4.7c0.1-0.5,0.3-0.9,0.4-1.4c1.1-3.5,1.7-7,2.2-10.6c0.6-4.2-0.1-8.2-2.9-11.6
	c-1.2-1.1-0.9-2.7-1.6-4C99.2,21.3,101,21.8,103,22.9"/>
<path id="Fill-50" class="st20" d="M226.3,108.4c1.9,5.8,4.8,11.4,5.2,17.6c-0.2,0.6-0.1-0.3-0.3,0.4c-0.3,0.7-0.1,1.5-0.3,2.2
	c0.3-0.6-0.1-1.5,0.8-1.9c1.6,4.2,1.7,8.7,2,13.1c0.4,1.1,0.5,2.1-0.1,3.1c-2.2,0-2.6-1.9-3.2-3.3c-3.3-8.5-6-17.2-7.4-26.3
	c0.1-1.9,0.1-3.9,1.8-5.3C225.4,107.9,225.9,107.9,226.3,108.4"/>
<path id="Fill-52" class="st21" d="M70,75c0,1.6,0,3.2-0.1,4.8c-6,9.2-10.2,19.2-12.6,29.9c-0.6,2.6-2.7,4.5-3.6,6.9
	c-0.2,0.2-0.5,0.3-0.7,0.4C54.4,101.3,58,86.5,70,75"/>
<path id="Fill-54" class="st22" d="M197.4,33c4.3,3.1,7.8,6.8,9.2,12c1.2,1.9,0,2.7-1.6,3.4c-1.5,0.1-3,0.3-4.4,0.5
	c-5.4,0.7-7.4-1.5-6.2-6.8c0.1-0.6,0.3-1.3,0.3-1.9c0-2.2,2-3.9,1.7-6.1L197.4,33z"/>
<path id="Fill-56" class="st23" d="M171.6,64.7c0.1,0.2,0.3,0.5,0.4,0.7c-1.4,1.8-3.5,1.4-5.4,1.6c-8.8,0-17.7,0-26.5,0
	c-2.5,0-5,0-7.5,0c-11.8-0.1-23.7,0.1-35.5,0c-1.8,0-3.5,0.2-5.2-0.4c-6.9-2.1-13.9-0.5-20.8-1c4.4-2.1,9-0.4,13.4-0.9
	c2.4-0.2,4.9-0.2,7.4-0.3c0.4-0.4,0.8-0.6,1.4-0.8c1.1-0.3,2.2-0.3,3.2-0.4c0.9-0.1,1.7-0.1,2.6,0c6.7,0.2,13.4-1.1,19.9,0.8
	c6.3,0.4,12.5-0.4,18.8,0.4c1.4,0,2.7,0,4.1,0c5-1.7,10.1-0.7,15.2-0.9c0.6,0,1.2,0,1.8,0c2,0.1,4,0.4,6,0.9c0.7,0,1.4,0,2.1,0
	C168.4,64.1,170,63.7,171.6,64.7"/>
<path id="Fill-58" class="st24" d="M176,54.3c-0.9,1.6-2.3,2.8-4,3.7c-4.8-1.8-9.8-0.7-14.7-0.9c-5.1-0.2-10.2-0.1-15.4-0.1
	c9.2-2.4,18.6-4,28.2-2.4C172.3,54.9,174,54,176,54.3"/>
<path id="Fill-60" class="st25" d="M196.1,34c2.3,2.4-0.6,4-1,6c-1.6,5.5-4.3,10.4-8.9,14c-0.8-4.7,0.7-9,3-13
	C190.8,38,194.6,37.1,196.1,34"/>
<path id="Fill-62" class="st26" d="M93.1,61.8c1.1-8.1,3.1-16.1,3-24.4c0.3-0.4,0.7-0.4,1.2-0.2c0.3,0.3,0.6,0.7,0.9,1.1
	c0.4,0.8,0.7,1.7,0.8,2.7c0,0.7,0,1.4-0.2,2.2c-0.6,3.1-0.5,6.3,0,9.4c-0.1,3.1-1,5.9-2.7,8.4c-0.6,0.8-1.1,1.6-2,2.2
	C93.4,63,92.7,62.8,93.1,61.8"/>
<path id="Fill-64" class="st15" d="M55.4,146c-3.3-0.2-5.6,2.1-8.4,3c0-1.7,0-3.3,0.1-5c2.7-0.5,5.1-1.5,7.3-3
	c1.7,0.7,3,1.6,2.6,3.6C56.7,145.4,56,145.7,55.4,146"/>
<path id="Fill-66" class="st27" d="M225.9,108c-0.3-0.2-0.6-0.3-0.9-0.4c-3.6-1.8-3.8-5.2-5-8.1c0.4-1.7-0.1-3.5,0.4-5.3
	c0.4-0.3,0.9-0.3,1.3,0C224.9,98.4,226.3,103,225.9,108"/>
<path id="Fill-68" class="st28" d="M241,175c-1.3-5.9-2.7-11.8-4-17.7c0.3-0.4,0.7-0.4,1,0c1.3,3.9,2.6,7.9,4,11.8
	C240.5,170.9,243,173.3,241,175"/>
<path id="Fill-70" class="st29" d="M222,94c-0.3,0-0.6,0-1,0c-3.7-3.9-5.5-8.5-4.9-14c0-0.3,0-0.7,0-1C219.1,83.6,220.3,88.9,222,94
	"/>
<path id="Fill-72" class="st30" d="M98.2,40c-0.3-0.7-0.6-1.4-0.9-2.1c-0.3-4.4-0.6-8.7,0.8-13c0-0.3,0-0.6,0-0.9
	c0.8,1,1.5,2,2.3,2.9c0.9,3.1,0.5,6.2,0.3,9.3C100.6,37.8,100.8,39.7,98.2,40"/>
<path id="Fill-74" class="st31" d="M47,139.2c0,0.3,0,0.7,0,1c-4,0.9-7.9,1.8-11.9,2.7c-1.1,0.4-1.2-0.1-1-0.9c4-0.9,8-1.9,12-2.8
	C46.4,138.9,46.7,138.9,47,139.2"/>
<path id="Fill-76" class="st32" d="M233.2,143l0.3-3c1.5,2.5,0.4,5.4,0.9,8c0.6,1,0.8,2,0,3c-0.4,2,0.6,4.2-0.9,6
	c-1.7-1.6-1.4-3.7-1.5-5.7c0.1-2,0-4,0.2-6C232.3,144.4,232.6,143.6,233.2,143"/>
<path id="Fill-78" class="st33" d="M234,151c0-1,0-2,0-3c3.1,2.3,2.1,6.2,4,9c-0.4,0-0.7,0-1.1,0C233.9,155.9,235.9,152.5,234,151"
	/>
<path id="Fill-80" class="st34" d="M47.6,131.9c-3-1.7-6.6,0-9.6-2c0.2-0.4,0.6-0.7,1-0.9c2.9,0.6,5.8,1.3,8.7,1.9
	c0.3,0.2,0.4,0.4,0.4,0.7c0,0.3,0,0.4-0.1,0.4L47.6,131.9z"/>
<path id="Fill-82" class="st35" d="M97.8,25c-0.4,4.3,1.1,8.7-0.8,13c-0.1-0.3-0.1-0.6-0.2-0.9c-1.2-3-0.9-6-0.2-9
	C96.8,27,96.6,25.8,97.8,25"/>
<path id="Fill-84" class="st36" d="M241,175c0.3-2-0.7-4.2,0.8-6c0.1,2.7,1.3,5.2,0.9,8c0.2,0.2,0.3,0.5,0.2,0.7
	c-0.1,0.2-0.2,0.3-0.2,0.3C242.2,177,241.6,176,241,175"/>
<path id="Fill-86" class="st37" d="M26,128.1c2.5,0.4,5.3-0.9,7.6,0.9c0.3,0.2,0.4,0.4,0.3,0.6c-0.1,0.2-0.2,0.3-0.3,0.3
	c-2.9-0.1-5.6-1.4-8.5-0.9C24.9,128.2,25,127.8,26,128.1"/>
<path id="Fill-88" class="st38" d="M51,168.3c0.9,2.1,2.1,4.2,2,6.7c-2.6-1.6-3.2-4-2.9-6.7C50.4,167.9,50.7,167.9,51,168.3"/>
<path id="Fill-90" class="st39" d="M116,41c-2.3-2.6-2.9-5.9-4-9C115.1,34.2,115.5,37.6,116,41"/>
<path id="Fill-92" class="st40" d="M53,177c3.4,1.4,2.8,4.4,3,7C54.1,182,53.2,179.6,53,177"/>
<path id="Fill-94" class="st41" d="M47.1,151c1.2,0.7,2.9,1,2.9,2.9c-0.3,0-0.7,0-1,0c-1.1,0.8,0,2.4-1.2,3.1
	C46.6,155.1,47.1,153,47.1,151"/>
<path id="Fill-96" class="st42" d="M96.9,28c0,3,0.1,6,0.1,9c-0.3,0-0.6,0-0.9,0C96.4,34,95.3,30.8,96.9,28"/>
<path id="Fill-98" class="st43" d="M243.1,178c0-0.3,0-0.7,0-1c1.7,2.8,0.5,6,0.8,9C242.3,183.5,243.4,180.7,243.1,178"/>
<path id="Fill-100" class="st44" d="M47,138.9l-0.4,0c0,0-0.4,0-0.4,0c0.8-1.2-1.7-3.8,1.7-3.9c0,1,0.1,2,0.1,2.9
	c-0.1,0.5-0.4,0.8-0.8,1.1L47,138.9z"/>
<path id="Fill-102" class="st45" d="M51,168c-0.3,0-0.6,0-0.9,0c-0.9-1.1-1.1-2.4-1.1-3.8c0.4-0.2,0.1-2.1,1-0.6
	C50.7,164.8,50.7,166.5,51,168"/>
<path id="Fill-104" class="st46" d="M45,110c2.3,1.5,3.3,2.4,4,4C46.9,114.1,46.3,112.5,45,110"/>
<path id="Fill-106" class="st47" d="M43,152.1c-1.9,0.9-3,1.4-4,1.9C39.5,152.5,40.3,151.7,43,152.1"/>
<path id="Fill-108" class="st48" d="M48.3,132c-0.1-0.3-0.2-0.7-0.3-1c0.3-0.7,0.6-1.3,0.9-2c0.3,2.5,2.3,1.8,3.8,2
	c0.3,0.2,0.4,0.4,0.3,0.6c-0.1,0.2-0.2,0.3-0.3,0.3C51.2,131.9,49.7,132,48.3,132"/>
<path id="Fill-110" class="st49" d="M93.6,61c0.3,0.3,0.7,0.7,1,1c0.9,1.4-0.1,2.2-1.2,2.9L93,65l-0.5,0
	C91.5,63.3,92.2,62.1,93.6,61"/>
<path id="Fill-112" class="st50" d="M26,128c-0.3,0.3-0.6,0.6-0.9,1c-0.9-0.1-2.4-0.3-2-1.2C23.7,126.4,25.1,127,26,128"/>
<path id="Fill-114" class="st51" d="M31,152c0.7-1.6,1.6-2,3-2C33.5,151.5,32.5,151.8,31,152"/>
<path id="Fill-116" class="st15" d="M48,157.3c0.2-1.2-0.1-2.5,1-3.3c-0.3,2,0.6,4.2-0.7,6C48.2,159.1,48.1,158.2,48,157.3"/>
<path id="Fill-118" class="st52" d="M42,158c0.6-1.2,1.6-2.1,4-3C44.8,157.1,43.8,157.9,42,158L42,158z"/>
<path id="Fill-120" class="st53" d="M230.9,126.7c-0.1,1.1-0.2,2.2-0.3,4.3c-0.7-2.4-1-3.8,0.3-5C231,126.2,231,126.5,230.9,126.7"
	/>
<path id="Fill-122" class="st54" d="M34,129.9c0-0.3,0-0.6,0-0.9c1.7,0,3.3,0.1,5,0.1c-0.3,0.3-0.7,0.6-1,0.9
	C36.7,130,35.3,130,34,129.9"/>
<path id="Fill-124" class="st55" d="M34.1,142c0.3,0.3,0.6,0.6,0.9,1c-1,1.5-2.4,0.9-3.7,1c-0.3-0.2-0.4-0.5-0.3-0.7
	c0.1-0.2,0.2-0.3,0.3-0.3L34.1,142z"/>
<path id="Fill-126" class="st56" d="M31,143c0,0.3,0,0.7,0,1c-0.7,1.1-1.6,1.2-3,0.6C29.2,144,30.1,143.5,31,143"/>
<path id="Fill-128" class="st57" d="M42,158c-0.4,0.9-0.9,1.6-1.9,2C39.7,158.2,41,158.2,42,158C42,158,42,158,42,158"/>
<path id="Fill-130" class="st58" d="M46,149c0,0.3,0,0.7,0,1c-0.7,0.2-1.7,1.4-1.9,0.8C43.6,149.5,45,149.3,46,149"/>
<path id="Fill-132" class="st59" d="M32,158c0.8-1.9,1.6-2.4,3-1.7C34.5,157.4,33.6,157.7,32,158"/>
<path id="Fill-134" class="st60" d="M213.8,209.2c4.9,0.4,8.9-0.9,12.4-4.5c4.1-4.1,8.7-3.3,11.7,1.6c-1.3,7.9-2.3,15.9-3.1,23.9
	c-0.6,6.2-6.2,10-10,14.5c-1.9,2.2-3.9,4.4-5.8,6.7c-0.7-0.1-1.4,0.6-2.1-0.1c-1.5-0.1-1.4-0.7-0.8-1.9c2.6-5.2,5.6-10.3,7.4-15.8
	c1.5-4.3,1.7-10-1.3-13.2c-2.1-2.3-7.4-3.8-11-1.2c-6.3,4.5-14.7,5.4-18.9,13.9c-2.3,4.7-8.6,7.5-13.1,11.2
	c-0.9,0.8-1.9,0.1-2.8,0.1c-1.2-0.1-3-0.4-3.4,0.1c-3.6,5-10.5,3.5-14.4,7.5c-1,1-2.2,1.3-3.6,1.3c-3.9,0.1-7.3,1.8-9.8,4.4
	c-3.7,3.8-7.4,7.5-11.8,10.4c-1.5,1-2.3,5.7-5.6,1.6c-0.5-0.6-1.6,0.9-2.4,1.4c-3.2,2.1-6.2,7.2-10.3,0.9c-0.2-0.3-1.6,0.2-2.4,0.3
	c1.9-3.4,0.8-4.9-3-5c-1.8,0-3.7-0.6-5.4-0.2c-5.4,1.2-8.1-2-10.6-5.8c0.8-4.2,3.6-7.4,5.4-11c0.3-0.6,0.8-1.1,1.5-1.3
	c6.3-1.5,9.9-6.1,14.1-10.6c3-3.1,4.5-8.3,9.7-9.3c13.1-0.4,26.2-0.1,39.3-0.2c2,0,4,0.1,5.9-0.3c0.8-0.3,1.6-0.4,2.4-0.5
	c11.3-0.9,21.3-5.2,30.6-11.6c2.6-1.9,5.4-3.7,7.6-6.1C211.4,209.4,212.3,208.1,213.8,209.2"/>
<path id="Fill-136" class="st61" d="M217.2,251.6c0.6-0.2,1.2-1.3,1.8,0.1c-0.4,1.1-0.9,2-1.8,2.3
	C214.3,253.2,217.7,252.4,217.2,251.6"/>
<path id="Fill-140" class="st62" d="M90.3,230.1c1.3,0,2.6,0,4,0.1c1.6,0.8,3.1,1.8,4.6,2.9c5.4,3.8,6.3,3.4,7.3-2.9
	c5.6,0,11.2-0.1,16.8-0.1c-1.7,5.5-7.7,7.8-9.8,13.1c-1.2,3.2-6.9,2.1-7.1,6.7c-9.4-2.2-6.8,8.6-11.8,11.1l-1,0
	c-0.9-2.1-2.8,0.2-3.9-1c-0.7,0.1-1.4,1.1-2.1-0.1c-1.4-3.4,2.2-4.5,3-6.9c4.8-3.5-0.1-7-0.1-10.5C90.3,238.4,88,234.2,90.3,230.1"
	/>
<path id="Fill-142" class="st63" d="M71.7,205.1c0,0.3,0,0.7,0,1c0.4,6.6,6,8.8,10.2,12.6c5.8,5.4,11.6,8.9,19.8,8
	c1-0.1,2.3,0.3,3.3,1c-0.6,2.2-2.4,0.9-3.5,0.9c-9.9,0.2-19.9,0.1-29.9,0.1c-0.3-0.3-0.6-0.7-0.9-1c-0.6-7.4-0.8-14.7-0.6-22.1
	C70.5,205,71,204.8,71.7,205.1"/>
<path id="Fill-144" class="st64" d="M60,192c2.1,0.1,3.1,1.7,4,3.3c1.2,2.2,2,0.4,2.9-0.1c1.9,0.2,3.2,1.1,3.9,2.9
	c0.9,4.7-0.8,9.3-0.9,13.9C64.2,206.5,61.9,199.3,60,192"/>
<path id="Fill-146" class="st65" d="M89.9,253c0.7,2.9-2.9,4-3,6.5c-2,2.5-4.5,1.1-6.9,0.9C81.8,256.1,86.4,255.3,89.9,253"/>
<path id="Fill-148" class="st66" d="M69.8,212.1c0-5-0.1-9.9-0.1-14.9c-0.8-1.8-1.5-3.5,1.1-4.2c1.4,1.8,1.2,3.9,1.2,6.1
	c0.1,2.1-0.1,4.2-1.2,6c0,7.6,0,15.3,0,22.9C68.9,222.8,70.4,217.4,69.8,212.1"/>
<path id="Fill-150" class="st67" d="M89,260.2c1.1,1,3.9-3.7,4,0.8C91.6,260.9,90.1,261.4,89,260.2"/>
<path id="Fill-152" class="st68" d="M231,171.1c-0.4,2.3-0.8,4.6-1.2,6.9c0.2,7-2.7,12.9-6.8,18.3c-1.8-0.3-2.4,1.2-3.5,2.1
	c-1.3,1.1-2.6,2.6-4.7,1.8c-0.7-1.2,0-2.2,0.4-3.3c1.4-3.4,4-6.4,1.5-10.6c-1.1-1.9,1.4-3.7,2.4-5.7c-3,4.4-7,7.3-11,10.3
	c-2.3,1.7-4.6,3.2-6.6,5.2c-1,1-1.8,2.2-1.2,3.6c1,2,2.2,0.2,3.3-0.1c3-1.1,3.2,0.5,2.5,2.7c-1.9,5.9-4.6,11.4-9.9,15.1
	c-1.3,0.7-2.7,1.2-4.1,1.7c-1.6,0.6-3.7,1.9-4.9,0.1c-1.3-1.8,0.9-3.1,1.9-4.5c1.4-1.4,2.8-2.9,3.7-4.7c0.5-1.1,0.9-2.4-0.5-3
	c-1.5-0.7-3.1-0.8-3.2-3.1c-0.3-7-0.4-7,2-10c0-0.4-0.1-0.3-0.6-0.1c-2.1,0.7-4.4,3.4-6.2,1.3c-1.5-1.8,1.2-3.7,2.3-5.5
	c7.4-11.9,13.9-24.2,19-37.3c1.5-3.8,1.9-7.7,2.6-11.7c1-4.3-0.3-8.6,0.5-12.9c0.2-1.3,0.1-2.9,1.5-3.5c1.7-0.7,2.7,0.8,3.6,1.9
	c6.8,11.6,4.4,23.4,0.5,35.2c-1.4,4.1-3.4,7.9-5.7,12.6c2.9-1.1,4.1-2.8,4.9-4.7c2.9-7,8.2-12.5,11.3-19.3c0.5-1.2,1.2-2.8,2.7-2.6
	c1.9,0.3,1.6,2.2,1.7,3.6c0.2,2.3,0.2,4.7-0.4,7c-1,3.6-3.9,7.4,1.6,10C231.3,168.3,230,170.1,231,171.1"/>
<path id="Fill-154" class="st69" d="M230.9,171.2c-1.4-1-0.5-4.1-3.7-3.7c-0.6,0.1-3.4-1.8-1.9-4.1c3-4.6,2.9-9.8,2.2-15.2
	c-3.5,7.7-9.5,13.9-12.8,21.7c-1.5,3.4-3.8,6.1-8.7,6.1c5.1-8.9,8.4-17.7,10.3-27.2c1.5-7.8,0-14.8-3.2-21.7
	c0.2-2.6-0.6-5.2-0.2-7.8c0.8-4.6,2.4-5.3,6.1-2.5c0.5,0.4,0.9,1,1.6,1.2c2.2-0.8,0.1-4.8,3.4-4.9c1.7,10.4,4.4,20.5,8.7,30.1
	c0,0.7,0,1.4,0,2.1c-0.5,2-0.6,3.9,0.1,5.9c0.1,2,0.2,4.1,0.2,6.1C232.5,161.9,232.2,166.6,230.9,171.2"/>
<path id="Fill-156" class="st70" d="M222.3,195.8c4-5.3,5.4-11.7,7.6-17.8c0.5,0.4,1,0.8,1.5,1.3c1.1,0.9,3.4-1.2,3.2,0
	c-0.7,2.9,2.4,4.5,1.2,7.9c-2.3,6.2-8.2,7.4-12.5,10.8c-0.6,0.4-0.8-0.7-0.9-1.3c-0.2-0.2-0.3-0.4-0.2-0.6
	C222.1,195.9,222.2,195.8,222.3,195.8"/>
<path id="Fill-158" class="st71" d="M222,196c0,0.3,0,0.6-0.1,0.9c-2.7,4.1-5.4,8.1-8,12.2c-3.4,2.4-5.9,6-9.6,8
	c-1.5-0.6-2.2-1.7-2.2-3.3c4.3-3.8,8-8,11.1-12.9c0.4-0.7,1.1-1.2,2-0.8C217.6,199,219,196,222,196"/>
<path id="Fill-160" class="st72" d="M204.1,48.1c1.3-0.6,2-1.6,2-3.1c5.5,4.3,8.2,9.5,6.3,16.8c-1.1,4.5-1.8,9-3.3,13.4
	c-1.3,2.5-3.1,4.4-6.1,4.8c-1-0.1-1.9-0.4-2.1-1.6c0.7-1.8,2.1-2.9,3.2-4.4c1.6-2.2,3.7-4,2.7-7.5c-0.6-1.9,1.1-3.8,2.1-5.5
	c0.8-1.5,0.7-2.4-1.1-2.8c-2.9-3.4-6.3-4.5-10.5-2.3c-1.3,0.7-2.8,1.1-4.2,0.2C194.1,50,199.5,49.6,204.1,48.1"/>
<path id="Fill-162" class="st73" d="M216.1,80c1.6,4.6,3.3,9.3,4.9,13.9c0.7,1.7,1.8,3.3,0.1,5c-1.7,0.6-2.3-0.9-2.9-1.9
	c-2.5-4.3-6-7.7-9.2-11.3c-0.6-0.8-1.1-1.6-0.9-2.6c0.5-0.9,1.1-1.5,2.3-1.1C214.3,87.8,214.2,80.6,216.1,80"/>
<path id="Fill-164" class="st74" d="M210,81.6c-0.8,0.4-1.5,0.8-2.3,1.2c-2.3,0.8-3.3-1-4.5-2.4C203,80,203,79.5,203,79
	c2-1.3,4-2.7,6-4C209.3,77.2,209.7,79.4,210,81.6"/>
<path id="Fill-166" class="st75" d="M70.7,192.7c-1.3,1.2-0.7,2.9-1.1,4.3c-1.3-0.2-2.3-0.8-2.9-2.1c-2.3-6.2-6.8-13-1-18.6
	c3.1-3,2.3-6.5,4.2-9.2c1.9-0.6,2.8,0.5,3.4,2c1.5,8.2,5,15,12.5,19.1c1.9,0.4,4-0.1,5.7,1.1c0.4,0.4,0.5,0.9,0.3,1.5
	c-0.8,1.3-2,1.7-3.5,1.7c-4.9-0.6-9.9-0.4-14.9-0.4C72.6,192.2,71.7,192.5,70.7,192.7"/>
<path id="Fill-168" class="st76" d="M72.5,170.5c-0.6-1.1-1.3-2.2-2.7-2.4c-0.3-1-0.7-1.9-1-2.9c-1.2-1.1-0.7-2.4-0.3-3.7
	c0.1-0.3,0.1-0.6,0-0.9c0.2-0.2,0.4-0.4,0.6-0.6c6.6-0.4,12.7,2.6,19.2,3.1c1.3,0.3,2.5,0.7,3.4,1.8c0.3,0.4,0.4,0.9,0.4,1.5
	c-0.3,2-0.2,4-1,5.9c-2.5,2.9-5.6,4.8-9.3,5.7C77.2,177.3,74.7,174.1,72.5,170.5"/>
<path id="Fill-170" class="st76" d="M67.1,157.1c-1-0.8-2.4-1.4-1.9-3.1c-0.3-2.6-0.5-5.3-1.1-7.9c-0.1-2.6,0-5.1,2.1-7
	c0.8-0.3,1.5,0.1,2.1,0.5c1.6,1.5,2.7,3.4,3.7,5.3c1.3,2.9,3.2,5.5,5.3,7.8c0.4,0.3,0,0.9,0.5,1.1c0.3-0.7,0.5-1.5,1.2-2
	c2.2-0.6,4.4-1,6.4,0.7c0.9,1,2,1.6,3.1,2.2c1.1,0.9,1.9,2,2.8,3c0.8,1.1,0.9,2.3,0.1,3.5c-0.4,0.3-0.9,0.6-1.4,0.7
	c-3.2,0.3-6.2-0.9-9.1-1.9c-2.1-1-4.5-0.5-6.7-1.1c-1.7-0.6-3.5-0.5-5.2-0.9C68.4,157.9,67.7,157.6,67.1,157.1"/>
<path id="Fill-172" class="st77" d="M57,157.7c0-0.7,0-1.4,0-2.1c1.3-5.7,3.1-7.3,7.5-6.3c0.8,1.4,0.7,2.8-0.2,4.1
	c-3,0.1-3.9,3.3-6.2,4.3C57.7,158.1,57.3,158.1,57,157.7"/>
<path id="Fill-174" class="st78" d="M65,146c1.4,2.7,1.3,5.3,0.1,8c-0.2-0.3-0.3-0.5-0.3-0.8c-0.7-1.9-0.3-3.9-0.7-5.8
	C64.1,146.8,64.5,146.3,65,146"/>
<path id="Fill-176" class="st79" d="M64,147c0,2,0,4,0,6c-0.2-0.1-0.4-0.1-0.5-0.1c-0.1-1.3-0.1-2.5-0.2-3.8
	c-0.2-0.3-0.3-0.7-0.2-1.1C63.2,147.3,63.4,146.9,64,147"/>
<path id="Fill-178" class="st80" d="M67,157l1.8,0c0.5,0.7,1.4,0.4,2.1,0.8c0.2,0.3,0.2,0.7,0.1,1.1c-0.5,0.7-1.4,0.4-2,0.8
	c0,0-0.3,0.3-0.3,0.3C68.1,159,67.5,158,67,157"/>
<path id="Fill-180" class="st81" d="M57.1,157c0.3,0,0.6,0,0.9,0c0,0.3,0,0.7,0,1c-0.9,0.6-1.9,1.2-3,2
	C55,158.1,56.2,157.6,57.1,157"/>
<path id="Fill-182" class="st82" d="M68.8,161c0.1,1.3,0.2,2.7,0.2,4C67.4,163.8,68,162.4,68.8,161"/>
<path id="Fill-184" class="st83" d="M118.7,65c-6.9,0-13.8,0-20.7,0c1.6-4.7,6.5-8.3,10.8-8c5.1-0.3,8.8,1.4,9.8,7.1
	c0.3,0.2,0.4,0.4,0.3,0.6C118.9,64.9,118.8,65,118.7,65"/>
<path id="Fill-186" class="st84" d="M109,56.7c-4.7,1.2-7.6,5-10.9,8.2c-0.7,0-1.3,0.1-2,0.1c-1.7-0.9-1.2-2.3-0.8-3.7
	c1.2-1.9,1.8-4.3,3.9-5.6c3.5-0.9,6.7-4,10.7-2.1c0.7,0,1.3,0,2,0C112.2,55.9,109.7,55.4,109,56.7"/>
<path id="Fill-188" class="st85" d="M119,65c0-0.3,0-0.6,0-0.9c6.3,0.5,12.7-1.1,19,0.9C131.7,65,125.4,65,119,65"/>
<path id="Fill-190" class="st86" d="M157.6,65c-5.2,0-10.4,0-15.6,0c0.7-0.7,1.3-1.3,2-2c4.2,1.1,8.4,0.3,12.6,0c0.3,0,0.6,0,1,0
	C158.1,63.6,158.1,64.3,157.6,65"/>
<path id="Fill-192" class="st87" d="M157,63.5c-4.3,2-8.7,2-13,0C148.3,64,152.7,62.2,157,63.5"/>
<path id="Fill-194" class="st88" d="M171.9,65c-1.6-0.1-3.2-0.1-4.9-0.2c0.3-0.2,0.6-0.5,0.9-0.7c1.5,0,3.1-0.3,4.3,0.1
	C174,64.8,172.1,64.8,171.9,65"/>
<path id="Fill-196" class="st89" d="M165,64c-2,0-4,0-6,0c0.4-1.6,1.8-0.8,3-0.6C163.1,63.4,164.2,63.3,165,64"/>
<path id="Fill-198" class="st90" d="M162,64.1c-1.1,0.1-2.2-0.2-2.9,0.9c-0.3,0-0.7,0-1,0c0-0.7,0-1.3,0-2
	C159.4,63.2,160.9,62.5,162,64.1"/>
<path id="Fill-200" class="st91" d="M54,117c3.4-10.1,5.2-20.7,10.4-30.2c1.4-2.6,3.1-5.1,5.6-6.8c0,1.4,0,2.8,0.1,4.2
	c-0.7,2.6-0.7,5.3,0,7.9l0,4c0,0.7-0.3,1.3-0.7,1.8c-4.1,4.8-8,9.7-11.3,15C56.7,114.3,55.3,115.6,54,117"/>
<path id="Fill-202" class="st92" d="M58.3,113.2c1.5-7.6,7.4-12,12.1-17.2c0,0,0.2,0.1,0.2,0.1c1.4,1.8,1,4,1.2,6
	c0,0.8,0.2,1.5,0.2,2.3c-0.2,1.8-0.2,3.6-1.7,4.9C65,110.6,62.7,116,58,119C58.1,116.9,58.2,115.1,58.3,113.2"/>
<path id="Fill-204" class="st93" d="M63.5,126.5c0.5-4,3.4-6.7,5.4-9.8c1.3-1.9,1.7,0.4,2.5,0.7c1.3,0.4,2.5,0.9,3.7,1.5
	c0.9,0.7,1.1,1.5,0.8,2.6c-0.3,0.4-0.6,0.8-1,1.2c-8.2,4.2-11.1,11.3-11.1,20.1c0,1.5-0.1,3-1.2,4.2c-2.5,0.1-3.4-1.6-4.1-3.6
	c-1.1-4.6,0.5-8.7,2.1-12.8c1-1,2-2,3-3.1c-0.3-0.2-0.5-0.4-0.3-0.7C63.2,126.7,63.3,126.5,63.5,126.5"/>
<path id="Fill-206" class="st94" d="M74.1,119c-1.5,0-2.9,0-3.1-1.9c-0.3-2.6-0.7-5.2-1-7.8c0.1-1.7,0.1-3.4,1.1-4.9
	c2.3-1.9,5-1.3,7.7-1.2c0.9,0.1,1.7,0.3,2.4,0.8c0.9,0.8,1,1.8,0.6,2.8C76,109,75.1,114,74.1,119"/>
<path id="Fill-208" class="st95" d="M60,130c-0.4,4.3-1.5,8.5-1,12.9c-0.6,1.2-1.1,2.6-3,2c0.2-1.7-1.4-2.6-2-4
	C57.2,137.9,56.6,132.9,60,130"/>
<path id="Fill-210" class="st96" d="M62,125.8c0,0.4,0,0.8,0,1.2c-1.4,0-2.3-1.1-3-2.8C60.6,123.3,60.9,125.6,62,125.8"/>
<path id="Fill-212" class="st97" d="M47,138.8c0.3-0.3,0.6-0.5,0.8-0.8H52C49.9,139,48.6,139.2,47,138.8"/>
<path id="Fill-214" class="st98" d="M53,132c0-0.3,0-0.7,0-1c1.2,0.5,2.3,0.9,4,1.6C55.2,133.2,54,133.2,53,132"/>
<path id="Fill-216" class="st99" d="M78.9,103.8c-2.6,0.1-5.3,0.1-7.9,0.2c-0.3-0.3-0.6-0.7-0.9-1c3.3-1.9,3.9-4.2,0.9-7
	c0-5.1,0.1-10.2,0-15.3c-0.1-2.7,1.1-4.5,3.3-5.5c5.5-2.5,11.1-4.8,16.7-7.2c2.2,0.4,2.5,1.6,1.8,3.6c-1.5,4-3,8-6.2,11
	c-1.7,1.6-2.4,3.4-2.5,5.6c-0.4,2.5-1.5,4.7-1.9,7.2C81,98.2,80.7,101.3,78.9,103.8"/>
<path id="Fill-218" class="st100" d="M83.1,88c-0.4-2.6,0.6-4.5,2.5-6.1c3.8-3.1,4.5-7.9,6.6-12c0.2-0.3-0.8-1.3-1.2-1.9
	c0.3-0.3,0.7-0.7,1-1c1.1-1.5,2.6-0.8,4-0.9c1.7,0.9,3.5,0.2,5.3,0.5c0.9,0.1,2.1-0.4,2.6,0.7c0.4,1-0.2,2-0.9,2.7
	C99,74.1,95.5,78.8,90.9,82C88.2,83.9,87.2,88.2,83.1,88"/>
<path id="Fill-220" class="st101" d="M71,96c2.3,0.3,4.2,1.4,4,3.7c-0.3,2.5-2.4,3.4-5,3.3c0-2.3,0.1-4.6,0.1-6.9
	C70.4,96.1,70.7,96,71,96"/>
<path id="Fill-222" class="st102" d="M70,92c-1.3-2.7-1.3-5.3,0-8C70,86.7,70,89.3,70,92"/>
<path id="Fill-224" class="st103" d="M208.8,85.2c5.2,3.6,8.3,9.1,12.2,13.9c1.3,2.9,2.7,5.8,4,8.7c-1,1.6-1.2,3.4-1.1,5.2
	c-2.1,2,0.1,5.4-2.6,7.3c-2.4-0.8-3.3-3.4-5.8-4.6c-3.6,3.1,0,8-2.7,11.3c-0.6-1-1.1-2-2.5-2.2c-2,5.3,0.9,11-1.5,16.2
	c-3.7-5.4-4.2-11.8-5-18c-0.5-3.7-1.4-7.1-3.6-10.2c-2.2-4.8-3.1-10.1-6.8-14.2c-2.9-3.2-5.9-6-10.8-6.3c-4.5-0.2-4.8-4.9-7-7.6
	c-0.7-1.1-1.4-2.3-2.2-3.3c-4-4.9-6.9-5.4-12.5-2.3c-1.6,0.9-3.2,2.8-4.9,1.8c-2-1.2-0.9-3.8-0.4-5.5c0.9-3,0.1-6.8,3.5-8.8
	c2.5-0.3,5,0.5,7.5-0.5c1.8-0.1,3.5-0.1,5.3-0.2c0.3-0.1,0.5,0,0.7,0.2c0.1,1.3-3.9,3.6,0.9,3.7c0.5,0.4,0.8,1,0.9,1.6
	c0,0.8,0.2,1.4,1.2,1.3c0.4,0.1,0.7,0.4,1,0.6c1.5,1.7,0.7,4.1,1.8,6c0.4,0.5,0.8,1,1.2,1.5c3.1,4,7.6,5.7,12.1,7.3
	c1.6,2.4,5.2,0.8,6.7,3.2c1,1.1,1.8,2.5,3.3,0.5c1.3-1.7,2.6-3.3,3.6-5.2C206.2,85.7,206.7,83.9,208.8,85.2"/>
<path id="Fill-226" class="st104" d="M204,48.1c-3.4,3-8.6,3.4-10.9,8c-0.3,2-1.9,3-3.3,4.1c-1.5,1.1-2.2,2.4-1.2,4.2
	c-0.1,2.4-1.3,4.1-3.2,5.3c-0.7,0.3-1.4,0.3-2.2,0.2c-1.6-0.5-3.5-0.4-4.2-2.6c0.7-5.1,2.9-9.5,6.4-13.2c0.3,0,0.6-0.1,0.9-0.1
	c2.9-4.7,5.9-9.4,8.8-14.1c1.8,2.3-2.5,5,0.5,7.4c2.7,2.1,5.1-0.8,7.6,0.1C203.6,47.6,203.8,47.9,204,48.1"/>
<path id="Fill-228" class="st105" d="M185,54.2c-2,4.4-4,8.8-6,13.2c-0.5,0.6-1.2,0.7-2,0.6c-0.7-0.3-1.2-0.7-1-1.6
	c2.1-5.5,6.3-9.7,8.5-16.3C184.8,52.1,184.9,53.2,185,54.2"/>
<path id="Fill-230" class="st106" d="M176,66.1c0.3,0.3,0.7,0.7,1,1c0.2,2.3-1.6,2.4-2.9,3.1c-2.9,2.1-4,0-5.1-2.4
	c1.2-1.4,3.3,0,4.2-1.7C174.1,66,175,66,176,66.1"/>
<path id="Fill-232" class="st77" d="M56,145c1-0.7,2-1.3,3-2c0.7,1.3,1.7,2.3,3,3c1,0.3,1.4,1.3,2,2c0,0.3-0.1,0.7-0.1,1
	c-4.2-0.2-4.6,4-6.9,6c-2.1-2.7-0.1-6.3-2-9C55.3,145.6,55.6,145.3,56,145"/>
<path id="Fill-234" class="st35" d="M98.4,40c2.3-4.1-0.5-8.9,1.8-13c3.8,3.2,4.1,7.6,3.6,12.1c-0.5,4-0.8,8.2-2.7,11.9
	c-2.8-1.3-1.6-4.4-2.4-6.6c-0.2-0.4-0.4-0.8-0.6-1.2c-0.2-0.4-0.2-0.8,0.1-1.2C98.3,41.4,98.3,40.7,98.4,40"/>
<path id="Fill-236" class="st35" d="M99.3,55.8c-1,2.1-2,4.1-3,6.2c-1.7,0-1.4-1-0.9-2.1c1.3-2.6,2.4-5.3,2.7-8.3
	c-0.3-0.4-0.3-0.8,0-1.2c0.3-0.2,0.7-0.4,1.1-0.4c0.9,0.1,1.3,0.9,1.8,1.6C101.2,53.4,99.6,54.3,99.3,55.8"/>
<path id="Fill-238" class="st107" d="M100.9,52c-0.6-0.3-1.3-0.7-1.9-1c-1.4-2.7-1.4-5.3,0-8c2.1,2.3,0,5.7,2,8.1
	C101,51.4,101,51.7,100.9,52"/>
<path id="Fill-240" class="st108" d="M158.8,66.9c-0.9,4.3-1.8,8.6-2.9,13.5c4.2-2.4,8-6.1,12.3-4.9c3.8,1,6.8,4.5,8.7,8.3
	c-1,2.7-4.5,2.7-5.8,5.8c5.4,1.4,4.1,4.5,2.3,8.1c-1.8,3.5-3,7.3-6.9,9.1c-0.5,0.1-0.9,0.2-1.4,0.1c-1.1-0.3-2.1-1-3.1-1.5
	c-0.5-0.1-0.9-0.3-1.3-0.5c-2.9-0.6-6,0.2-8.9-0.7c-0.5-0.2-0.9-0.5-1.2-0.9c-0.1-0.6,0.1-1,0.6-1.3c2.4,0,4.9-0.4,6.3,0
	c-2.1,0.1-5.3-0.8-8.3,0.8c-3.1,0-6-1.1-9-1.8c-1.4-1.4-0.2-2.3,0.6-3.3c0.9-1.3,4.5-2.1,0.6-4.2c-0.7-0.4,0-1.9,0.7-2.6
	c1.4-1.4,2.6-3,4.4-4c1.8-1.3,5.5,0.4,5.9-2.6c0.5-3.3-2.9-4.7-5.4-5.8c-4.6-2-9.5-3.3-14.3,0.1c-0.8,0.6-1.8,0.9-2.8,0.8
	c-3-1.8-1.9-3.7-0.1-5.4c2-1.9,4.4-3.3,6.7-5.2c-1-1.4-2.9-0.7-3.9-1.7c-0.2-0.3-0.3-0.5-0.3-0.8c0.1-0.3,0.1-0.4,0.2-0.4l7.1,0
	c4.6,1,9.2,0.2,13.8,0.5C155.3,66.6,157.1,66,158.8,66.9"/>
<path id="Fill-242" class="st109" d="M133,66c0,0.3,0,0.6,0,0.9c-0.6,0.7-1.4,1-2.3,1.2c-3.7,0.3-7.4,0.2-11,0.2
	c-2.8,0.2-6.4-1.3-8.2,0.5c-1.7,1.6,0.5,4.9,0.7,7.5c0.1,1.3,0.1,2.6-0.2,3.9c-1,6.1-4.6,10.4-9.7,13.6c-3.5-1-2-3.9-2.4-6
	c-0.3-1.5,0.7-3.7-1.3-4.3C97,83.1,96.1,85,95,85.9c-1.7,1.4-2.8,3.2-3.9,5c-3,1.1-6.2,1.8-8.8,4c-0.5,0.1-0.9,0.1-1.3-0.3
	c0.7-2.3,1.3-4.6,2-7c6.8-6.6,13.7-13.1,20.7-19.9c-2.6-2-5.6,0.3-7.6-1.8C108.4,66,120.7,66,133,66"/>
<path id="Fill-244" class="st109" d="M159,66.9c-6.3-0.5-12.8,1-19-0.9c9,0,18,0,27,0C164.5,67.8,161.7,66.5,159,66.9"/>
<path id="Fill-246" class="st110" d="M95,60c0,0.8,0.2,1.6,0.9,2c-0.4,1-0.7,2,0.1,3c-1-0.1-2-0.2-3-0.2c0.3-0.9,0.7-1.8,1-2.7
	C94.3,61.4,94.7,60.7,95,60"/>
<path id="Fill-248" class="st111" d="M98.5,51.1c0,0.3-0.1,0.6-0.2,0.9c-1.6-3.3-1.7-6.7,0-10c0.1,0.3,0.2,0.6,0.2,0.9
	C99.2,45.6,99.2,48.4,98.5,51.1"/>
<path id="Fill-252" class="st112" d="M202,214.3c0.7,0.9,1.3,1.9,2,2.8c-9.2,6.7-19.4,10.9-30.9,11.8c-9.3-1.1-18.7-0.4-28.1-0.4
	c-6.2,0-12.5-0.7-18.7,0.4c-2.1-1.7-1.8-3.3,0.7-3.6c10.9-1.3,20-6.7,29.1-12.1c1.8,0.6,3-0.9,4.6-1.3c1.9-0.5,4.7-1.7,5.7-0.4
	c3.5,4.2,9,1.8,12.8,4.4c1.9,1.3,4.1,0.9,6.2,0c1.4-0.6,2.8-1.9,4.6-0.7c-0.4,1.4-2.2,1.9-2.2,4.1c2.9-1.1,5.5-2.1,8.2-3.1
	C198.6,217.2,199.5,213.3,202,214.3"/>
<path id="Fill-254" class="st113" d="M126,228.9c0.8-1,2-0.9,3.2-0.9c13.6,0,27.1,0,40.7,0c1.2,0,2.3-0.1,3.2,0.9
	c-0.6,0-1.2,0.1-1.8,0.1C156.1,229,141.1,228.9,126,228.9"/>
<path id="Fill-260" class="st114" d="M158.8,203c-0.1-0.1-0.2-0.4-0.3-0.4c-4.9,0-9.9-0.7-14.6,0.1c-5.2,0.8-7.7-0.2-8.8-5.7
	c-0.2-2.4,0.6-4.6,1.5-6.8c0.3-0.4,0.7-0.6,1.2-0.8c0.5,0,0.9,0,1.4,0.1c0.4,0.2,0.8,0.4,1.3,0.6c5.3,1.4,10.8-0.2,16.1,1
	c0.1,0,0.3-0.2,0.3-0.3c0-0.1-0.1-0.3-0.1-0.5c6.9-2.5,11.1-8.6,17-12.3c1.3,3.5-1.2,10.2-4.8,13c-3.9,3-7.7,6-11.5,9
	c1,1.6,2.9,0.6,3.5,2C160.2,202.3,159.5,202.7,158.8,203"/>
<path id="Fill-264" class="st64" d="M105.9,230c1,2.2,2,4.6-0.3,6.3c-2,1.6-4.1,0.1-5.8-1.1c-2.2-1.5-4.5-2.7-5.8-5.2
	C98,230,101.9,230,105.9,230"/>
<path id="Fill-266" class="st115" d="M80,205.9c0.3,1,0.7,2,1,3c-4,0.8-5.5-3.8-9-4c-0.3,0-0.6,0-1,0c0-2,0-4,0-6
	C75,199,78.3,201.5,80,205.9"/>
<path id="Fill-268" class="st116" d="M80,206c-2.7-2.7-5.2-5.7-8.9-7c0-2-0.1-4.1-0.1-6.1c0-0.8,0.2-1.5,1.1-1.8
	c0.7,0.3,1.4,0.9,2.2,0.9c3.2,0.2,6.6-0.8,8.1,3.7C83.8,199.7,82.8,203,80,206"/>
<path id="Fill-272" class="st117" d="M208.1,57.6c1.3,0.1,3.9-1.5,2.5,2c-1.2,3-2.7,5.5-2.5,9.3c0.2,3.5-3.4,6.9-7,8.9
	c-0.5,0.3-0.9,0.2-1.3-0.2c-0.2-0.5-0.3-1-0.3-1.5c0.9-3.8,3.2-6.9,4.6-10.4c0.6-1.5,1.8-3.2,0.8-4.7c-1.1-1.7-3-0.6-4.6-0.4
	c-1.8,0.2-3.6,0.6-5.4,0.7c-1.2,0.1-2.8,0.5-3-1.5C196.9,55.2,202.3,55.2,208.1,57.6"/>
<path id="Fill-274" class="st118" d="M208,57.8c-5.5,0.3-11.2-1.2-16,3.1c-0.8,1.9-2.3,2.8-4.2,3.1c-3-1.1-1.7-2.7-0.3-4
	c1.7-1.6,3.6-2.9,5.4-4.3c1.7-0.5,3.6-0.8,5.1-1.6C202.8,51.7,205.9,53.3,208,57.8"/>
<path id="Fill-276" class="st119" d="M199.7,78c0.3,0,0.6,0,0.9,0.1c0.6,0.4,1.2,0.8,1.7,1.3c0.1,0.3,0.1,0.5,0.2,0.8
	c-0.2,1.8-1.8,2.8-2.5,4.3c-0.7,1.3-0.9,2.5,0.4,3.6c1,0.9,3.5,1,2.3,3.1c-1.1,1.9-3,2.6-5.1,1.2c-0.9-1-2-2.1-3.2-1.1
	c-3.2,2.6-1.9-1.2-2.8-1.9c-0.6-0.6-0.7-1.3-0.6-2.1C193,83.2,195.4,79.7,199.7,78"/>
<path id="Fill-278" class="st120" d="M198,91.8c1.7,0.2,3.2-0.4,5.1-1.9c-2.5-0.4-4.7-1-4.9-3.1c-0.2-3.2,2.2-5.2,4.7-6.8
	c1.6,1,3.2,2.1,4.8,3.1c0.4,0.6,0.8,1.2,1.3,1.8c-2.6,3.3-5.1,6.6-7.8,10.1C199.8,94.4,198.8,93.2,198,91.8"/>
<path id="Fill-280" class="st121" d="M107.9,192.4c-7.6,7.3-15.7,8-18.9-1.1c0.9-0.3,1.9-0.6,2.8-0.9c0.7-0.5,0.4-1.1,0.2-1.7
	c-0.6-2.8-1-5.7,2.1-7.3c3.2-1.6,6.3-1.4,8.8,1.6c0.8,1.8,2.7,3.2,2.1,5.6c0.9-2.4-1.6-3.7-1.5-5.9c4.2-4.5,9.9-5.1,15.5-6.1
	c5.4,0.4,5.4-4.9,7.9-7.6c0.8-0.9,0.7-2.5,1.3-3.7c0.4-0.7,1-1.1,1.7-1.4c4.1-0.2,6.1,2.5,7.6,5.8c0.5,1.8,0.6,3.5-0.1,5.3
	c-3,3.2-7.1,4.9-11.1,6c-3.1,0.8-5.8,1.4-7.7,4.2C116.1,189.1,111.4,190,107.9,192.4"/>
<path id="Fill-282" class="st122" d="M120,177.8c-5.5,1.5-11.3,2-15.8,6.1c0.4,1.1-0.1,1.2-1,1c-1.8-2.7-4-3.4-7.2-2.5
	c-3.5,1-2.6,3.6-2.7,6c-0.1,1-0.1,2-1.1,2.6c0-0.3,0-0.7,0-1c-1.5-1.9-1.2-4.1-1.2-6.3c0-1.6,0-3.1,0.3-4.6c0.1-0.5,0.3-1,0.5-1.4
	c0.3-0.4,0.6-0.8,0.9-1.1c2.3-3.2,4.9-4.6,8.7-2.4c3.1,1.9,5-1.4,7.5-2.2C112.3,174.6,117,174.4,120,177.8"/>
<path id="Fill-284" class="st123" d="M72.6,170c3.4,1.7,5,5.7,8.7,7.1c1.6,0.4,2.8,1.5,4,2.5c1.6,1.7,4.7,1.4,5.4,4.3
	c1.6,6.1-2.8,5.5-6.3,6.1c-5.6-3.7-8.7-9.4-11.4-15.4C72.2,173.1,71.4,171.6,72.6,170"/>
<path id="Fill-286" class="st124" d="M85,190c3.5-1,7.7-1.4,6-6.7c0.3-0.3,0.6-0.4,1-0.1c0,2.3,0,4.5,0,6.8
	C89.6,190,87.3,190,85,190"/>
<path id="Fill-288" class="st125" d="M71,176c-0.2,1.7,0,3.5-2,5C69.4,178.8,69.5,177.1,71,176"/>
<path id="Fill-290" class="st126" d="M69,159.5c0.2-0.9,0.9-0.9,1.5-0.9c3.4-1,6.8-0.5,10.2,0c2.9,0.8,5.9,1.6,8.8,2.4
	c1.1,1.5,0.1,2.3-1,3C81.9,163.4,75.4,161.5,69,159.5"/>
<path id="Fill-292" class="st127" d="M93.4,178l-0.4,0l-0.4,0c-1.9-1.7-1.6-3.7-0.8-5.8c0.4-2-0.2-4.1,0.5-6.1c0-0.4,0-0.8,0-1.2
	c-0.8-1.4-0.8-2.8-0.3-4.3c-1.1-5.2-0.9-10.5-0.9-15.8c0-0.9,0-1.7,0-2.6c-0.1-0.6,0-1.2,0-1.7c0.3-4-0.3-8.1,0.4-12.1
	c0.2-0.6,0.5-1.1,1-1.5c1.1,0,1.6,0.7,2,1.6c0.8,5.5,0.3,11,0.4,16.5c0.2,4,0.2,8.1,0,12.1C94.2,164.1,96.2,171.2,93.4,178"/>
<path id="Fill-294" class="st128" d="M91.7,172.3c0.1,2.1,0.2,4.3,0.3,6.4c0,0-0.2-0.1-0.2-0.1c-1.9,2.2-4.5,1.8-6.8,2.3
	c-1-1.1-2-2.1-3-3.2c3-1.8,5.9-3.6,8.9-5.4C91.1,171.9,91.4,171.9,91.7,172.3"/>
<path id="Fill-296" class="st129" d="M92,161.4c0,1.2,0,2.4-0.1,3.6c-1-0.3-2-0.6-2.9-0.9c0.3-0.9,0.7-1.7,1-2.6
	c0.3-0.1,0.7-0.2,1-0.3C91.5,160.9,91.8,160.9,92,161.4"/>
<path id="Fill-298" class="st130" d="M91.9,172c-0.3,0-0.6,0-0.8,0c0.3-2-0.7-4.2,0.8-6C91.9,168,91.9,170,91.9,172"/>
<path id="Fill-300" class="st131" d="M91.9,141.5c0.1,0.3,0.1,0.7,0,1c-0.7,2-2.1,3.6-3.6,5c-2.4,3-6.7,2.6-9.4,5.1
	c-0.2,0.9-0.1,2-1.2,2.3c-0.7,0.2-0.7-0.7-0.8-1.3c-1.1-3.4-4.1-5.3-5.9-8.1c-1.1-1.7-2.1-3.4-3.2-5c-0.6-0.9-0.8-1.8-0.7-2.8
	c0.5-1.9,0.4-3.9,0-5.8c0-5.4,3.7-7.3,8.1-8.5c1.9-0.5,3.8-0.5,5.7-0.4c1.1,0.1,2.2,0.2,3.3,0.4c2.7,1.4,7.3,0.1,7.4,5.3
	C91.8,133,91.1,137.3,91.9,141.5"/>
<path id="Fill-302" class="st132" d="M75.6,124.1c-3.8,1.4-7.3,3.1-7.2,7.9c0.3,0.4,0.3,0.9,0.1,1.4c-0.4,1.8-0.2,3.8-1.3,5.5
	c-1.1,2.3-1.8,4.6-1.8,7.2c-0.2,0.3-0.2,0.6-0.3,0.9c-0.3,0.4-0.6,0.7-1,1.1c-1.3-0.1-2-0.8-2-2c0.1-2.8,0.2-5.6,0.4-8.5
	c0.4-8,5.1-13,12.1-16.5C75.7,121.7,76.5,122.6,75.6,124.1"/>
<path id="Fill-304" class="st133" d="M79,152.1c0-1.6,0.1-3.1,2.1-3c2.7,0.1,4.6-1.9,6.7-3.1c3.5-0.3,2.3,1.8,1.7,3.6
	c-2.5,1.8,1.1,0.9,0.8,1.8c1,2.4,1,4.6-0.8,6.6c-0.6-1-1.3-1.9-1.9-2.9c-0.6-1.3-2.2-1-3-2C83.1,151.3,80.8,153.1,79,152.1"/>
<path id="Fill-306" class="st134" d="M90,157.9c0.5-2.3,1.2-4.6,0.1-6.9c0.1-0.7,0.1-1.4,0.2-2.2c1.3-1.3-1.3-4.1,1.7-4.8
	c0,5.7,0,11.3,0.1,17c-0.3-0.1-0.6-0.1-0.9-0.2C91.1,159.7,91.2,158.5,90,157.9"/>
<path id="Fill-308" class="st135" d="M71,145c2.6,2.2,7,3,5.8,8C73.5,151.4,72,148.3,71,145"/>
<path id="Fill-310" class="st136" d="M81,158c-3.3,0-6.7,0-10,0c0.1-0.2,0.2-0.4,0.3-0.6c0.9-0.6,1.8-0.4,2.7-0.1
	C76.3,157.6,78.9,156.9,81,158"/>
<path id="Fill-312" class="st137" d="M85,153c1.3,0.2,3.3-0.8,3,2C86.6,154.9,85.2,154.9,85,153"/>
<path id="Fill-314" class="st138" d="M67,138.9c0.2-2-0.4-4.1,1.1-5.9c1.3,1.3,1.1,2.7,0.2,4.1c0,1,0,1.9,0,2.9
	C67.9,139.6,67.4,139.3,67,138.9"/>
<path id="Fill-316" class="st139" d="M74,157.9c-1,0-1.9,0.1-2.9,0.1c-0.8-0.1-1.7-0.2-2.1-1C70.7,157.2,72.6,156.5,74,157.9"/>
<path id="Fill-318" class="st140" d="M74.4,118.9c-0.1-2.7-0.9-5.7,0-8c1-2.5,3.7-4,6.9-3.9c0.2,0,0.4,0,0.6,0
	c0.4,0.1,0.8,0.3,1.1,0.5c0.2,0.1,0.4,0.2,0.5,0.3c1.2,0.8,2.8,1,3.5,2.6c-0.5,4.7-5,6.9-6.8,10.8c-1.7,1-3.4,1.1-4.9-0.3
	C75.4,120.1,75.2,119.4,74.4,118.9"/>
<path id="Fill-320" class="st141" d="M74.8,120.7c1.7-0.2,3.6,0.7,5-0.9c0.8-1.5,2.1-2.1,3.6-1.6c2.6,0.9,5.1,0.1,7.7,0.2
	c0.5,0.2,0.9,0.5,1.1,1c0.8,2.4,1,4.7-0.4,6.9c-0.1,0.3-0.2,0.6-0.3,1c-0.2,0.3-0.4,0.5-0.6,0.8c-0.1-0.3-0.2-0.6-0.3-0.9
	c-1.4-3.1-5-1.7-7.2-3.4c-0.3,0.6,0.1-1,0.3-0.4c0.2,0.6,1,0.1,0.4-0.1c-1.1-0.3-2.3-0.3-3.4,0.2c-2,0.1-3.9,0.2-5.9,0.3
	c-0.4-1-0.7-2-1-3C74.3,120.7,74.6,120.7,74.8,120.7"/>
<path id="Fill-322" class="st142" d="M81.2,106.4c-0.1-1-0.1-1.9-0.2-2.9c0.3-0.3,0.7-0.5,1.1-0.6c1.4,0.1,2.7,0.1,4,0.6
	c1.1,0.6,2.1,1.4,1.8,2.7c-1.4,2.4-3.5,1.8-5.6,1.1l0,0.1c-0.3-0.4-0.6-0.7-0.9-1L81.2,106.4z"/>
<path id="Fill-324" class="st143" d="M82.4,103.9c-0.5,0-0.9,0.1-1.4,0.1c-0.6-0.1-1.3-0.2-1.9-0.3c-0.6-3.2,1.6-5.8,2.3-8.7
	c0.4,0,0.7,0,1.1,0c0.8,0.2,1.3,0.6,1.5,1.3c0,0.5,0,0.9-0.2,1.3C82.3,99.5,83.3,101.9,82.4,103.9"/>
<path id="Fill-326" class="st144" d="M201,112.1c-8,1.9-15.8,0.2-23.7-0.9c-2-0.3-4.3-0.9-6.1,0.9c-1.4,0.6-1.8-0.7-2.5-1.3
	c-0.7-0.8-1.5-1.4-2.3-2.2c-0.4-0.5-0.8-1-0.2-1.6c4.7-3,5.5-8.5,8-12.8c0.9-1.6-0.8-2.6-2.4-2.8c-0.9-0.1-2,1-2.4-0.5
	c-0.4-1.3,0.7-2.1,1.4-3c1.7-1.9,4.1-2.7,6.3-3.9c2.1,3.6,3.4,6.9,9,7.7c6.1,0.8,10,6.9,12.4,12.9C199.7,107,200.2,109.6,201,112.1"
	/>
<path id="Fill-328" class="st145" d="M192.2,87c0,0.7,0,1.3,0,2c-5.4-1.2-10.3-3.1-13.4-7.8c-2.1-4.1,0.7-7.6,1.7-11.3
	c0.2-0.9,1.5-1.1,2.5-0.5c0.7,0.1,1.3,0.2,2,0.3c1-0.3,1.9-0.1,2.8,0.3c1.8,1,4.2,1.1,5.2,3.3c0.4,2.1-0.7,3.8-2.1,5.3
	c-2.2,2.2-3.6,4,0.3,5.9C192,84.9,192.2,86,192.2,87"/>
<path id="Fill-330" class="st146" d="M213.8,97.3c-0.4,1-0.8,2.2-1.2,3.4c-0.3,0.8-0.9,1.3,0.5,2.1c3.3,2,1.8,5,0.1,7
	c-2.6,2.9-3.3-0.7-4.4-2c-1.5-1.7-2.7-3.8-4.2-5.4c-2.8-2.9-0.9-6.1,0.4-8c1.1-1.7,4.4-2.6,6.7-2.4
	C213.4,92.1,213.4,95.1,213.8,97.3"/>
<path id="Fill-332" class="st147" d="M183,69c-3.1,3.4-3.1,7.9-4,12l-1-1c-1.6-2.1,1.1-5.4-2-7l0,0c-0.6-0.6-1.6-0.2-2-1
	c0-0.7,0-1.3,0-2c-0.2-2.2,2.3-1.7,3-3c0.7,0,1.3,0.1,2,0.1C180.3,67.7,181.7,68.3,183,69"/>
<path id="Fill-334" class="st106" d="M176,73.3c1-0.3,2-0.7,2,1c0,1.9,0,3.8,0,5.8C176,78.1,177.8,75.2,176,73.3"/>
<path id="Fill-336" class="st106" d="M173.6,72c1,0,1.9,0.2,2.4,0.9c-1,0.1-1.1,1.7-2.5,1C172.4,73.3,173.4,72.6,173.6,72"/>
<path id="Fill-338" class="st148" d="M187,69.8c-0.7-0.2-1.3-0.5-2-0.7c1-1.7,1.9-3.4,2.9-5.1c0.9-1.7,2.7-2.2,4.2-3
	c3.4-0.6,6.8-1.2,10.2-1.8c4.5-0.7,5.7,0.4,4,4.5c-1.8,4.5-4.1,8.7-6.2,13.1c-2.9,0.8-4.5-1.1-6.3-2.8c-0.1-0.3-0.2-0.6-0.2-0.9
	c-0.3-1.8,3-3.4,0.7-5c-1.8-1.2-3.6,0.6-5.4,1.2C188.3,69.5,187.6,69.7,187,69.8"/>
<path id="Fill-340" class="st149" d="M98,51c0-2.7,0-5.3,0-8c0.3,0,0.6,0,0.9,0c0,2.6,0,5.3,0,7.9C98.6,51,98.3,51,98,51"/>
<path id="Fill-344" class="st150" d="M125,103c0.3-0.9,1.1-2,0.9-2.8c-1.5-8.1,4.2-11.8,9.3-15.7c5.1-3.9,8.3,0.4,11.8,3.2
	c-1.1,1.2-2.1,2.5-3.3,3.6c-1.5,1.4-3.2,2.2,0.6,2.7c2.3,0.3,0.6,2.1-0.1,2.8c-1.3,1.4-3.4,2-4.2,4c-2.5,2.4-5,4.8-8.3,6
	C128.6,107.1,127.2,104.5,125,103"/>
<path id="Fill-346" class="st151" d="M129.5,79c-0.3,0.3-0.7,0.7-1,1c-0.8,1.1-1.4,2.3-2.4,3.1c-1.8,1.5-3.8,3.4-6.1,2.8
	c-2.5-0.7-1.5-3.6-2-5.6c2.5-6,7.5-9.6,12.6-13.2c0.7,0,1.3,0,2,0c2,0.3,4.3-0.7,6.4,1.1c-2.2,2.9-5.4,4.6-8.1,6.6
	C129.1,76,128.5,77.1,129.5,79"/>
<path id="Fill-348" class="st152" d="M132.3,106.1c2.6-1.6,4.3-4.8,7.8-5c3.2-0.3,6.1,0.4,8.9,1.9c0.7-0.4,1.3-0.5,1.9,0.1
	c0,0.3,0,0.5,0,0.8c-0.8,1.3-2.1,1.3-3.3,1.4c-0.7,0-1.4-0.1-2.1-0.2c-1.7,0.5-6.2-1.7-3.2,3.4c-1.2,1.9-2,4-3.3,5.9
	c-0.5,0.1-0.9-0.1-1.3-0.4c-1.1-1.7-0.9-3.6-0.9-5.5c-3,2.4-3.1,4.1-0.8,7.9c1.3,2,1.3-1.5,2.4-0.6c1.4,0.5,1.5,1.7,1.4,2.9
	c-0.1,0.5-0.3,0.9-0.6,1.3c-0.4,0.4-0.8,0.6-1.2,0.8c-0.5,0.1-1,0.2-1.5,0.2c-3.1-0.6-6.2-1.3-8.1-4.3c-1.6-3.6,0.4-6.5,2-9.4
	C131.1,106.8,131.8,106.6,132.3,106.1"/>
<path id="Fill-350" class="st153" d="M166.7,107.9c0.7,0.6,1.3,1.1,2,1.7c1.1,2.6-1.1,3.2-2.6,4.2c-2.5,0.4-4.8,0.3-6-2.6
	c-0.4-2.7-0.3-5.1,2.7-6.2c0.7,0.5,1.5,1,2.2,1.6C165.1,107.7,165.7,108.1,166.7,107.9"/>
<path id="Fill-352" class="st154" d="M163,104.7c-1.9,1.8-2.1,4.1-1.9,6.4c-1,1.9-2.6,2.1-4.5,1.5c-1.4-1-0.6-2.6-0.9-3.9
	c-0.2-1.5-2.5-2.5-1.2-4.4c2.6-0.4,5.3-0.6,7.9,0.1C162.6,104.4,162.8,104.5,163,104.7"/>
<path id="Fill-354" class="st155" d="M163,105.3c-2.8,0.6-5.8-1-8.5,1.1c-1,1-1.8,0.7-2.5-0.5c-0.1-0.6,0-1.1,0.4-1.6
	C156,104.4,159.6,103,163,105.3"/>
<path id="Fill-356" class="st156" d="M151,103c-0.7,0-1.3-0.1-2-0.1c3.2-1.8,6.6-0.5,10,0.1H151z"/>
<path id="Fill-358" class="st157" d="M151.9,104.3c0.1,0.3,0.1,0.5,0,0.8c-1.9,1.1-3.7,1.7-4.9-0.8l4-0.3
	C151.3,104.1,151.6,104.2,151.9,104.3"/>
<path id="Fill-360" class="st158" d="M167,108.3c-0.9,0.7-2,1-2.8,0.1c-0.5-0.6,0.2-1.1,0.9-1.4c0.3,0,0.6,0.1,0.9,0
	C166.3,107.5,166.7,107.9,167,108.3"/>
<path id="Fill-362" class="st108" d="M131,67c-4,4.3-8.1,8.6-12.1,12.9c0,5.9-0.9,11.4-6.1,15.3c-4.1,2.4-9,3.2-12.5,6.8
	c-1.3,1.4-3.1,1.5-3.3-1.2c1-2.8,2.1-5.4,4.8-7c3.3-4.1,7.9-7.4,9.1-12.9c1.4,0.5,2.3,1.1,3.2-1.1c1.6-4.3,2.9-8.7,4.9-12.8H131z"/>
<path id="Fill-364" class="st159" d="M102,93.5c-1.3,2.3-2.6,4.6-3.9,6.9c-0.8,1.9-1.1,4.2-3.8,4.5c-0.5,0-0.9-0.2-1.3-0.5
	c-0.8-2.4,1.7-4.6,0.4-7.1c-0.5-0.7-1.1-1.3-1.5-2.1c2-2-1.8-3-0.7-4.8c0.1-2.3,5.7-9.5,7.6-9.6c2-0.1,2.1,1.6,2.3,3
	C101.4,87.2,100,90.5,102,93.5"/>
<path id="Fill-366" class="st100" d="M118.9,67c0.8,5.9-2.8,10.5-4.3,15.7c-1,3.1-2.4-0.2-3.4-1.3c0.1-4.7-0.8-9.3-2.2-14.4H118.9z"
	/>
<path id="Fill-368" class="st160" d="M94,97c2.4,2.9-0.2,5.3-0.9,7.9c0.7,1.2,0.8,2.3-0.7,3.1c-0.8-0.2-1.1-0.8-1.4-1.5
	c-0.2-0.6-0.3-1.2-0.4-1.9c-0.1-0.4-0.3-0.7-0.5-1c-1.7-0.9-3.9-0.1-5.4-1.5c-0.6-0.8-0.6-1.7-0.4-2.6c0.3-1.5,1.8-2.1,2.8-3.1
	c-1.3-0.9-2.8,0.6-4.1-0.4c-0.3-0.3-0.7-0.7-1-1c2-3.5,5.3-4.2,8.9-3.9c0.3,1.6,4.1,2.6,1,4.9C92.2,97.1,93,97.3,94,97"/>
<path id="Fill-370" class="st161" d="M166.2,114c0.4-1.7,3.1-1.8,3-4c0.7,0.7,1.3,1.3,2,2c6,9,9.7,18.8,9.9,29.8
	c-2.8,5.5-6.9,9.6-12.9,11.5c-0.6,0.2-1.4,0.4-1.7,0.9c-4.4,6.5-11.9,7.1-18.3,9.7c-2.9,1.2-6,2.1-8.5-1c-0.6-5.4-1.4-10.8,0.6-16
	c2.7-1.6,4.9,0.2,6.9,0.4c-2.2-1.7-6.1-0.2-8.4-3.1c-0.9-4.2-0.8-8.3-0.1-12.5c0.2-0.5,0.5-0.9,0.9-1.3c3.7-1.2,7.3-2.7,10.9-4.1
	c5.7-2.2,10.5-5.2,13.5-10.6C164.4,114.9,165.3,114.3,166.2,114"/>
<path id="Fill-372" class="st162" d="M140.4,163.9c7.6,0.1,15.1-2.2,20.7-6.5c4.2-3.2,8.9-5.5,13.2-8.5c2.8-1.9,3.2-5.9,6.7-6.9
	c0,4,0,7.9,0,11.9c-5.5,5-9.8,11.6-18.2,12.4c-4.7,0.5-7.2,4.3-9.7,7.8c-0.6,0.9-1.1,2-0.2,2.7c2.7,2,2.7,5.6,5.2,7.7
	c1.1,0.9,2,2.5-0.1,2.9c-5.8,1.1-11.7,0.4-17.5,0.6c-0.6,0-0.8-0.9-1.1-1.6c-0.7-6.3-0.3-12.7-0.3-19
	C139.1,166.1,139.4,164.8,140.4,163.9"/>
<path id="Fill-374" class="st163" d="M140.4,188.4c5.8-2.2,11.8-0.6,18.8-1.1c-5.3-2.1-4.4-8-8.5-10.2c-0.5-0.3-1-0.9-0.3-1.6
	c4.1-3.9,6.4-9.9,13.2-10.4c4.5-0.3,8.5-2.1,11-6.6c1.3-2.4,4.3-3,6.6-4.4c0,0.7,0.1,1.3,0.1,2c1.6,4.1,0.4,7.7-2.1,11
	c-0.6,1.1-1.2,2.2-1.8,3.3c-2.8,0.7-2.3,2.9-2.1,4.9c-0.4,1-0.7,2-1.1,3c-4.5,5.9-9.5,11.1-17,13.1c-5.9,0.8-11.9,1-17.8-0.1
	c0-0.3,0-0.6-0.1-0.8c-0.3-0.3-0.4-0.6-0.3-1C139.3,188.8,139.8,188.4,140.4,188.4"/>
<path id="Fill-376" class="st164" d="M179,166.9c0.7-3.6,1.4-7.2,2.1-10.8c2.3-5.1,0-10.6,1.4-16.1c1.4,4-1.4,9.3,1.6,11.3
	c2.4,1.6,7.1-0.6,10.9,0c0.4,2.7-1.7,3.8-3.1,5.2c-2.4,2.5-5,4.7-5,8.6c0,2.2-2,2.9-3.7,3.4C181.5,169.1,179.5,169.6,179,166.9"/>
<path id="Fill-378" class="st165" d="M174.9,175c-1.2-1-2.5-2.4-1.6-3.8c0.6-1,2.2-1.8,3.7-0.7C176.9,172.2,176.3,173.8,174.9,175"
	/>
<path id="Fill-382" class="st166" d="M138.7,188.9c0,0.4-0.1,0.7-0.1,1.1c-0.3,0-0.6,0-1,0c-0.5-0.7-0.5-1.6-0.5-2.4
	c-0.1-18.7-1.6-37.5-1-56.2c0.5-3.8-1-7.8,1.4-11.3c0.3,0,0.5,0,0.8-0.1c0.2,0.1,0.5,0.2,0.7,0.4c0.8,1.1,0.9,2.4,0.9,3.7
	c0,0.5,0.1,1,0,1.6c0,1.8,0.1,3.7-1.3,5.3c0,4.7,0,9.4,0,14.1c0.4,0.5,0.6,1.1,0.6,1.8c-0.3,12.2,0,24.5-0.1,36.7
	C139.1,185.3,139.5,187.2,138.7,188.9"/>
<path id="Fill-384" class="st167" d="M137.9,131c0,19.7,0,39.3,0.1,59h-0.6h-0.6c0-4.7,0-9.3,0-14v-6c-1.6-3.1-1.9-6.4-1.9-9.7
	c0.1-7.8-0.1-15.7,0.1-23.5C135.2,134.7,134.3,131.9,137.9,131"/>
<path id="Fill-386" class="st168" d="M139,191c6,0,12,0,18,0.1c0.7,0.1,1.3,0.1,2,0.2C152.3,191.4,145.6,193,139,191"/>
<path id="Fill-388" class="st169" d="M193.9,73.9c2,1.1,4,2.3,6,3.4c0,0.3,0.1,0.5,0.1,0.8c-2.6,3-5.2,5.9-7.9,8.9
	c-0.4-0.5-0.7-1.2-1.3-1.4c-6.4-2.5-3.7-5.3-0.4-8.4c0.9-0.9,1.2-2.6,1.7-3.9C193.1,72.6,193.4,73.3,193.9,73.9"/>
<path id="Fill-390" class="st170" d="M138,131c-1.6,1.5-0.9,3.4-0.9,5.2c-0.1,11.3,0,22.5,0,33.8c-1.9-2.3-3.6-4.8-6.9-5
	c-0.8,0.3-1.3-0.1-1.8-0.6c-3.2-4.2-2.2-9.5-3.2-14.2c-0.4-1.9,0.2-3.9-0.1-5.9c-0.5-3.8,0.9-7.2,2.5-10.5c0.2-0.3,0.3-0.6,0.5-0.8
	c4.9-3,8.4-6.9,9-13c0.3,0,0.6,0,0.9,0.1C138,123.7,138,127.4,138,131"/>
<path id="Fill-392" class="st171" d="M120,178.2c-4.4-0.6-8.5-2.1-11.9-4.9c0-0.2-0.1-0.5-0.1-0.7c2.5-2.4,6.4-1.6,8.9-4
	c2.6-1.4,5.6-1.8,8.3-3.1c1.4-0.6,2.9-1,3.8,0.8c0.4,4.7-3.1,7.7-5.3,11.2C123,178.5,121.6,179.9,120,178.2"/>
<path id="Fill-394" class="st172" d="M129,166.4c-4.5-0.7-7.9,3.1-12.2,3.1c-8.5,2.9-16.2,1.4-23.4-3.8c-0.4-1.9-1-3.9,0.5-5.7
	c0.9-0.1,1.6,0.3,2.2,0.9c4.9,5.1,10.6,6.2,17,3.9c5.2-1.7,10.5-3.6,15.9-0.5c0.3,0.3,0.7,0.7,1,1
	C129.7,165.8,129.4,166.1,129,166.4"/>
<path id="Fill-396" class="st121" d="M103,185c0.3-0.3,0.7-0.7,1-1c1.5,1.3,2.1,3.1,2.8,4.8c0.5,1.3,0,2.4-1.2,3
	c-0.5,0.2-1.4,0.2-1.9-0.1c-1-0.8-0.7-1.9,0.1-2.7C105.5,187.3,103.4,186.3,103,185"/>
<path id="Fill-398" class="st171" d="M95,159.7c-1.6,1.4-0.7,3.4-1,5.1c1.1,3.2,3.3,4.9,6.7,5.6c2.5,0.5,5.2,0.7,7.3,2.6l0,0
	c-1.4,3-4,4.6-6.7,2.8c-4.1-2.7-6.2-0.9-8.3,2.3c0-7.1,0.1-14.3,0.1-21.4c1-0.8,2.2-0.9,2.9,0.2C96.6,157.9,96,159,95,159.7"/>
<path id="Fill-400" class="st173" d="M85,180.1c1.6-3,4.7-1.2,7-2.1c0,1.6,0,3.3,0,4.9c-0.3,0-0.6,0-1,0.1
	C88.9,182.2,86.4,182.3,85,180.1"/>
<path id="Fill-402" class="st174" d="M128.7,134.1c-0.3,3.7-2.9,7.1-2,11c-1.7,1-3.5,1.1-5.4,0.4c-3.7-5.9-10.1-9.2-13.7-15.2
	c-0.9-1.5-2.3-1.6-3.9-1.1c-1.6,0.5-3,1.3-4.7,1.6c-1.7,0.1-3.2-0.6-4.5-1.7c-0.3-0.3-0.6-0.7-0.9-1.1c-0.3-0.4-0.6-0.8-0.9-1.2
	c-0.1-2.6-0.2-5.1-0.4-7.7c-2-3.1-1.4-6.5-0.8-9.8c0.2-0.5,0.6-0.9,1.2-1.1c0.3-1,0.6-2,0.8-3c0.3,0,0.5,0,0.8,0
	c2,2.9,1.6,5.8,0.5,8.5c2.7-2.4,5.5-5.2,9.4-6.5c1.7-0.6,3.4-1.5,5.1,0c2.8,4.2,6.1,8.2,6.1,13.7c0,1.2,0.2,2.5,1.5,2.9
	c1.8,0.5,2.2-0.9,2.6-2.2c0.3-1,1.1-1.2,1.9-1.3c2,0.5,3.5,1.8,4.8,3.3C127.3,126.9,129.9,130.1,128.7,134.1"/>
<path id="Fill-406" class="st175" d="M95,145c-0.7,0-1.3,0-2,0c0-5.7,0.1-11.3,0.1-17c0.3,0.1,0.6,0.1,0.9,0.1
	c1.7,2,1.2,4.5,1.3,6.8c1.6-0.9,1.4-3,2.8-3.9c3.4,1.5,1.2,3.9,1,5.9c-0.9,1-0.6,2.2-0.5,3.2C99.1,143.1,97.9,144.6,95,145"/>
<path id="Fill-408" class="st176" d="M92,144.3c-1.7,1.9-0.5,4.3-1,6.4c-0.7,0.4-1.4,0.5-1.9-0.2c-0.7-1.3,2.5-3.6-1.1-4.2
	c0.9-1.8,2.4-3.1,4-4.3C92,142.8,92,143.5,92,144.3"/>
<path id="Fill-410" class="st177" d="M91.2,128c0.3,0.1,0.5,0.2,0.8,0.1c0,4.3-0.1,8.6-0.1,12.9C90.3,136.7,91.4,132.3,91.2,128"/>
<path id="Fill-412" class="st178" d="M81,123.8c1-1,2.3-0.8,3.5-0.7c0.6,0,0.7,0.4,0.2,0.7c-0.2,0.2-0.6,0.2-0.9,0.2
	C82.9,123.9,81.9,123.9,81,123.8"/>
<path id="Fill-414" class="st179" d="M68.1,137c0-1.4-0.1-2.8-0.1-4.2c0-0.3,0.1-0.6,0.2-0.8C69.3,133.7,69.3,135.4,68.1,137"/>
<path id="Fill-416" class="st180" d="M89.2,150.2c0.6,0.1,1.2,0.2,1.8,0.3c-0.3,0.3-0.6,0.7-1,1c-1.5,1-2.6,0.5-4-1.5
	C87.5,150.1,88.4,150.2,89.2,150.2"/>
<path id="Fill-418" class="st181" d="M91.6,106.5c0.1,0.7,0.2,1.4,0.4,2.1l-0.3,0c-1.4,3.6,0.3,7.5-1,11.1c-2.3,1.4-4.6,2.1-7.1,0.5
	c-1.4-0.9-2.5,0.1-3.6,0.6c0.2-3.1,3.1-4.4,4.3-6.9c0.5-1.1,1.6-2,1.5-3.4c0.6-2.6,2.7-3.3,4.7-4.3C90.9,106,91.3,106.1,91.6,106.5"
	/>
<path id="Fill-420" class="st182" d="M91,106.2l-5.1,3.8c-1.4-0.5-3-0.3-3.9-1.9c1.8-0.2,3.9,0.5,4.9-2.1c0.3-0.5,0.8-0.8,1.3-1
	C89.3,104.9,90.3,105,91,106.2"/>
<path id="Fill-422" class="st183" d="M81,107c0.3,0.3,0.5,0.7,0.8,1C81.6,107.7,81.3,107.3,81,107"/>
<path id="Fill-424" class="st184" d="M91.1,119c0.2-3.7-0.8-7.5,0.9-11c0,3.7,0,7.3-0.1,11C91.7,119,91.4,119,91.1,119"/>
<path id="Fill-426" class="st185" d="M85.4,99.4c0,1,0,2,0,3c0.3,0.3,0.5,0.7,0.6,1.1c0,0.2-0.1,0.4-0.1,0.6
	c-0.1,0.2-0.3,0.3-0.4,0.5c-1.1,0-2.3,1-3.4-0.3c-1.2-2.6-2.2-5.1,1.1-7.1C85.5,96.5,86.2,97.2,85.4,99.4"/>
<path id="Fill-428" class="st186" d="M88.1,105.9c-0.4,0-0.7,0.1-1.1,0.1c-0.6-0.6-1.2-1.2-1.8-1.9l-0.1-0.2
	c1.8-1.3,3.7-1.1,5.7-0.5C92,106.5,88.6,104.8,88.1,105.9"/>
<path id="Fill-430" class="st187" d="M85,99c0-1.4-0.7-2.1-2-2.2c0-0.3,0-0.7,0-1c0.7-0.4,1.5-0.7,2.1-1.2c1.9-1.5,3.2,0,3.7,1.4
	c0.9,2.5-1.9,0.6-2.4,1.8C86.2,98.4,85.5,98.6,85,99"/>
<path id="Fill-432" class="st188" d="M194,74c-0.6-0.2-1.2-0.5-1.8-0.7c-1.7-1.1-3.5-2.1-5.2-3.2c1.4-3.2,4.8-2.6,7.2-3.9
	c0.8-0.4,1.7,0,1.9,1c0.2,1.4,1.8,2.7,0.2,4.2C195.4,72.2,194.3,72.7,194,74"/>
<path id="Fill-434" class="st189" d="M109.2,107.1c-6,0.2-9.8,4.7-15.2,7.9v-9.9c2-0.7,2.6-2.8,4.1-4c0.3,2.5,1.5,1.2,2.1,0.3
	c2.9-4.2,7.8-4.7,12.1-6.4c1.5,3.5,0.6,6.9-1,10.1C110.6,105.8,109.9,106.4,109.2,107.1"/>
<path class="st190" d="M170.8,229.4c-1.8,1.3-3.9,0.8-5.8,0.8c-14.1,0.1-28.3,0.1-42.4,0.1c-5.4,2.8-11.1,1.2-16.7,1.5
	c-4,0.2-8,0-12,0c-1.6,0-3.1-0.1-4.3-1.4c-6-0.7-12.2,1.1-18.1-1c1.7-1.8,3.9-1.5,6-1.5c8-0.1,16.1,0.1,24.1,0.1
	c-0.2-3.5-2-5.1-5.5-5.8c-10.3-1.9-17.7-8.6-24.9-15.5c-0.2-0.5-0.2-1-0.1-1.4c1.3-2,2.6-0.6,3.5,0.2c2,1.6,4.4,2.6,6.8,3.6
	c9.8,4.5,19.9,7.4,30.9,5.2c7.3-1.5,14.8-2.3,22.2-3.4c8.2-1.2,15.5-4.9,22.9-8.2c0.9-0.4,1.8-0.8,2.7-1.3c2.8-1.4,5.4-3.2,8.2-4.7
	c1-0.5,2.1-1.2,3.2-0.4c1.2,0.9,0.3,2,0.1,3.1c-1,5.5-5.8,7.5-9.4,10.7c-1.9,1.6-3.9,3-6,4.3c-8.9,5.5-17.9,10.3-28.4,12.4
	c-2.3,0.5,0,0.8,0.5,1.1c12,0,24,0,36,0C166.5,228,169,227.4,170.8,229.4 M233,151c-1.3-2-1.3-4-0.1-6C233,147,233,149,233,151
	 M190,215.1c-4.7,2.7-9.4,4.8-14.4,0.4c-0.9-0.8-2.2-0.5-3.3,0c-2.1,1-3.9,2.5-4.5-1.8c-0.4-2.9-3.4-1.4-5.4-1.3
	c-2.1,0.2-4,2.7-6.3,0.6c4.4-3.4,9-6.6,13.2-10.2c1.6-1.3,0.7-4.3,2.5-6c-4.2,0.7-7.1,3.7-10.7,5.2c-1.3-0.7-3.7,0.8-4-1.6
	c-0.2-1.8,1.4-2.9,2.8-3.8c5.2-3.4,10.3-7,12.8-13.2c0.7-1.7,1.3-3.3,0.8-5.2c-0.2-1.2,0.2-2.4,0.8-3.4c1.1-1.6,1.6-3.3,2.2-5.1
	c0.6-1.3,0.9-2.9,2.8-2.9c3.5,1.3,5.9,0.3,6.7-3.5c0.9-4.2,4.8-6.6,7-10c-2.1-1.4-3.9-0.8-5.7-0.5c-3.9,0.8-5.2-0.9-4.8-4.6
	c0.2-1.6,0-3.2,0-4.2c0.1,2.6-0.3,5.7,0.3,8.8c0.3,1.5,0.5,3.4-2.2,3.2c-0.5-0.7-0.8-1.4-0.9-2.2c-0.3-3.7-0.1-7.3-0.1-11
	c0-9.1-2.6-17.5-7-25.4c-1-1.8-2.6-3.5-1.8-5.9c1.6-1.9,3.8-1.7,5.9-1.5c7.2,0.6,14.3,2.4,21.6,1.3c1-0.1,1.9,0.3,2.7,1
	c3.1,2.9,3.8,6.5,4.3,10.7c0.7,6.1,2.4,12.2,3.7,18.2c0.6,8-3.5,14.7-6.5,21.6c-4.9,11-10.8,21.5-18.5,32.6c3.9-1.8,6.9-3.2,9.8-4.6
	c0.5,0.3,1,0.5,1.4,0.8c-6.9,3-2.8,9-5.3,13.2c5.8,0.4,6.4,1.7,3.4,6.5C192.4,213,191.5,214.3,190,215.1 M72,191.2
	c5.7,0.2,11.4-1.1,17,0.8c8.1,7.1,8.2,7.1,19.3,0.5c4.2,0,7.1,2.5,9.5,5.5c1.3,1.6,1.8,1.9,4.1,1.1c4-1.6,8.5-2.4,13-2.3
	c2.5,3.9,5.1,6.5,10.5,4.8c3.6-1.1,7.8,0.8,11.8,0.1c0.8-0.1,2.2-0.1,1.8,1.5c-12.4,7.2-26.3,8.9-40.1,11.4
	c-11.3,2.1-21.9,1.8-32.5-2.1c-2-0.7-4.2-1.1-5.3-3.3c-1.3-0.7-2-1.7-1.7-3.2c0.3-1.5,1.4-2.6,1.9-4c1.6-4.5-0.4-7.8-5-8.6
	C74.5,193.2,72.3,193.9,72,191.2 M105,227.8c-1.1,0-2.3,0-3.4,0c-6.8,0.2-13.8,1.1-17.8-6.6c-0.9-1.7-3.2-2.9-5.2-3.5
	c-5.9-2-7.2-6.2-6.3-11.7c4.5,3.3,8.9,6.7,13.5,9.9c3.1,2.1,6.3,4.7,10.2,4.3C101.9,219.7,102,225.3,105,227.8 M201.9,213.7
	c-1.5,1-3,2-4.5,3c-1.2,0.8-1.3-0.1-1.4-1c5.1-4.1,7.4-9.9,9.7-16.1c-2.3,0.2-3.6,2.2-5.4,2.8c-3.2-3.5-1.7-6.5,1.4-8.7
	c6.8-4.9,13.3-10.1,19.1-16.6c0.8,2-0.8,2.6-1.2,3.7c-0.8,2.3-4.4,3.7-0.6,7.3c1.6,1.5-2,5.7-2.9,8.8c-0.3,1-1.4,1.8-1.4,3
	C210.7,204.7,208,210.8,201.9,213.7 M129.4,79.4c3.5-1.7,6.5-3.9,11.1-3.3c4.8,0.6,8.3,2.6,11.7,5.6c1.2,1.1,2.5,2.1,1.4,4.2
	c-1,1.9-2.1,2.8-4.3,2.1c-0.9-0.3-1.9,0.2-2.9,0.4c-1.1-0.5-2.2-0.8-3.2-1.3c-5.9-2.9-8.9-1.5-13.1,3.4c-3.6,4.1-3.3,9-4.7,13.6
	c-2.4,2.7-4.2,5.5-3.4,9.6c0.4,2.2,0.1,4.9-1.1,7.2c-0.6,1-1.2,2-2,2.8c-2.2,2.1-4.7,1.7-5.1-1.2c-0.8-5.4-3.8-9.7-5.8-14.5
	c-0.1-1.4,0.9-2.3,1.8-3.2c3.3-2.8,6-6.2,9.8-8.4c1.9-1.1,3.1-3,3.5-5.3c0.8-3.8,2.7-7.2,4.5-10.5C128.1,80,128.8,79.7,129.4,79.4
	 M108,192.8c1.1-2.2,1.9-4.8,5.4-3.6c0.4,0.1,1.5-0.7,1.9-1.3c2.5-3.9,4.9-7,10.6-7.3c3.9-0.2,7.7-3,11.5-4.6
	c2.3,4.6,2.1,9.2,0,13.9c0.1,2.5-0.3,4.9-2,6.9c-4.8,2.3-10.6,1-15.2,3.9c-1.7,1.1-1.8-0.8-2.4-1.6
	C115.2,195.9,112.1,193.6,108,192.8 M97.8,129.9c2-0.8,3.9-1.6,5.9-2.5c1.3-0.6,2.9-0.8,3.5,0.6c2.6,7.2,11,9.6,13.4,16.9
	c1.4,3.4-0.8,4.9-3.2,6.1c-2.2,1.2-4,2.7-5.7,4.7c-2.7,3.2-5,6,0.9,8.1c0.8,0.3,0.8,1.4,0.1,2.1c-8.4,2.3-14.2,0.4-17.8-6
	c0.3-1.6,1-3.5-1.9-3.1c0-4,0-8,0-12c0.5-0.6,1.1-0.8,1.8-0.8c4.8-0.6,2.1-4.5,3-6.9c0.3-2.1,1.1-4.2-0.2-6.2
	C97.4,130.7,97.5,130.3,97.8,129.9 M111,105c0-3.4-0.2-6.8,1-10c5.2-3.7,4.9-9.9,7-15c1.8,1.3,0.5,3.5,1.3,5.2c3.4-1,6-3.2,8.7-5.2
	C126.6,90.9,120.1,98.9,111,105"/>
<path id="Fill-438" class="st191" d="M124.7,123c-2.1-0.1-3.2-1.4-4.2-3c-0.8-3.5,1.2-7-0.4-10.8c-0.9-2.1,3.5-3.5,4.6-5.9
	c3.6-1.6,4.1,3.7,7.3,3c-0.4,0.3-0.7,0.6-1.1,1c-2.6,2.6-5.5,5-2.8,9.1C128,119,126.9,121.2,124.7,123"/>
<path id="Fill-440" class="st192" d="M125,123.2c0.3-2.6,2-4.6,3-6.9c0.3-0.4,0.7-0.4,1,0c1.8,2.9,5.1,3,7.9,3.9
	c0,0.8-0.1,1.6,0,2.4c0.4,4,0.3,7.6-5,8.5c-1.4,0.2-2.6,1.8-3.9,2.8C127,130.4,125.1,127,125,123.2"/>
<path id="Fill-442" class="st193" d="M147.2,104c1.4,1.5,3.3,0.6,4.9,0.9c0.5,0.8,1.2,1.1,2.1,0.9c1.2,0.8,2.4,1.5,2.9,3
	c-2,1.8-4.2,3.5-5.8,5.7c-2.1,2.8-4.9,4.1-8.5,3.3c-2.1-0.6-3.3-2-3.7-4.1c0.1-2.3-0.5-5,2.8-5.9c0-1.1,0.7-1.4,1.6-1.7
	c0.4,0,0.8,0,1.2,0.2c0.4,0.1,0.6,0.4,0.6,0.7c0.2-0.6-0.4-0.9-0.5-1.3c-0.2-0.6-0.1-1.2,0.5-1.6C145.8,104,146.5,104,147.2,104"/>
<path id="Fill-444" class="st194" d="M143.1,117.3c3.7,1,6.1-1,7.9-3.9c1.4-2.3,2.9-4.4,5.9-4.4c0.6,1.5-0.5,2.7-0.7,4.1
	c0.3,2.2-1.4,3.1-2.7,4.3c-4.3,2.9-8.4,7-14.1,2.9l-0.3-0.1c0.1-0.4,0.1-0.9,0.2-1.3C140.3,117.8,142,118.5,143.1,117.3"/>
<path id="Fill-446" class="st195" d="M138.5,107c0,2.2,0,4.5,0,6.7c0.7,0.6,0.7,1.2,0.2,1.9c-0.6,0.6-0.7,2.1-2.2,1
	C132.6,113.1,133.3,109.9,138.5,107"/>
<path id="Fill-448" class="st196" d="M129.1,116c-0.3,0-0.6,0-0.9,0c-3.4-4.7-3.1-5.8,2.8-9C130.8,110.1,127.8,112.5,129.1,116"/>
<path id="Fill-450" class="st197" d="M138,107.3c-2.3,2.9-5.9,5.6-2,9.7c-3.1-0.2-3.2-2.4-2.9-4.6c0.3-2.8,1.5-5.2,4.4-6.4
	C137.7,106.4,137.8,106.8,138,107.3"/>
<path id="Fill-452" class="st198" d="M143.8,106.1c-0.9,0-1.9,0-2.3,0.9c-1.5,0-3.1-0.5-2.1-1.8c1.1-1.5,3-3,5.7-1.7l-0.2,1.6
	c0,0.2,0,0.3,0,0.5C144.4,105.8,144.1,105.9,143.8,106.1"/>
<path id="Fill-454" class="st199" d="M138.2,116.1c-0.1-0.7-0.1-1.4-0.2-2.1c0.3,0,0.6,0,0.9,0c1.6,0.9,1.7,3.5,4.1,3.3
	c-0.5,2.8-2.7,1-4,1.6C138.9,118,139.2,116.8,138.2,116.1"/>
<path id="Fill-456" class="st200" d="M153,116.2c1.1-1.1,2.1-2.2,3.2-3.2c1.7,0.1,3.3-0.1,4.8-1c1.1,2.1,3.5,1.1,5,2
	c-5.1,11.2-15.3,14.5-26.1,17c-1.2-1.8,0.2-4.1-0.9-5.9l0-1C144.3,122.6,149.6,121.1,153,116.2"/>
<path id="Fill-458" class="st201" d="M94,97.2c-0.3,1-0.5,2.3-1.8,1.6c-1.2-0.6-1.7-1.7-0.4-2.8C92.7,96,93.5,96.3,94,97.2"/>
<path id="Fill-460" class="st202" d="M85,103.3c0-0.4,0-0.8,0-1.3c2.3,0.5,4.9-1.1,7,1.2C89.7,104.3,87.3,104.2,85,103.3"/>
<path id="Fill-462" class="st203" d="M85,103c2.3,0,4.6,0,7,0c0,0.2,0,0.5,0,0.7c-0.3,0.3-0.6,0.3-1,0.1c-2,0-4-0.1-6-0.1
	C85,103.5,85,103.2,85,103"/>
<path id="Fill-464" class="st204" d="M91,104.1c0.3,0,0.7-0.1,1-0.1c0,0.6,0,1.2,0,1.9c-0.3,0.1-0.5,0.1-0.8,0.1
	c-1.1-0.1-2.1-0.1-3.2-0.2C89,105.2,90,104.7,91,104.1"/>
<path id="Fill-466" class="st205" d="M139,189c0-14.2,0-28.4,0-42.6c1.2-0.6,2.1-0.8,2,1c-2.2,5.5-0.5,11.2-1,16.9v23.8
	C139.6,188.4,139.3,188.7,139,189"/>
<path id="Fill-468" class="st206" d="M141,146.9c-0.4-0.8-1.1-0.9-1.9-1c-0.1-0.3-0.1-0.6,0-0.9c3.3,0.4,6.5,1,10,2.8
	C145.8,148.6,143.5,146.7,141,146.9"/>
<path id="Fill-470" class="st207" d="M139,125c1.7,1.8,0.6,4,0.9,6c0,0-0.5,0-0.5,0s-0.5,0-0.5,0C139,129,139,127,139,125"/>
<path id="Fill-472" class="st208" d="M153,116c-2.7,6.1-7.4,8.6-13.9,7.9l-0.1-4C144.5,121.6,148.7,118.7,153,116"/>
<path id="Fill-474" class="st209" d="M112.7,166c0-0.2,0-0.4-0.1-0.5c-1.8-2.4-8.1-3.1-6.2-5.3c2.9-3.3,4.8-8.4,10-9.7
	c3-0.7,4-2.6,4.5-5.2c1.7,0.3,3.4-1.1,5.1,0c0.5,4.5-1.3,9.5,2.7,13.3c-3.7,2,0.3,3.6,0.4,5.4C123.4,163.8,117.9,164,112.7,166"/>
<path id="Fill-476" class="st174" d="M127,144.4c1.9-0.4,3-0.7,4,0.2C129.8,145.2,128.7,145.2,127,144.4"/>
<path id="Fill-478" class="st210" d="M108,172.9c-4.4,0.6-8.3-1.8-12.5-2.4c-2.6-0.4-1-3.6-1.4-5.5c7.3,3.3,14.9,4.5,22.9,4
	C115,172.5,110.7,170.8,108,172.9"/>
<path id="Fill-480" class="st211" d="M98,130.8c0.2,2.7-0.5,4.8-4,6.2v-9c1.3,0.6,2.6,1.3,3.9,1.9C97.9,130.2,97.9,130.5,98,130.8"
	/>
<path id="Fill-482" class="st212" d="M95,145.4c2.3-2.3,3-5.4,4-8.4c0,1.9,0.1,3.8,0,5.6C98.7,145.1,97.9,147,95,145.4"/>
<path id="Fill-484" class="st157" d="M145.2,106c0.5,0.2,1,0.5,0.8,1c-0.2-0.1-0.5-0.1-0.7-0.2c-0.2-0.2-0.3-0.4-0.3-0.5
	C145.1,106.1,145.1,106,145.2,106L145.2,106z"/>
<path id="Fill-486" class="st213" d="M144.9,106c0,0.3,0,0.7,0.1,1c-0.3,0-0.7,0-1,0C144.3,106.6,144.6,106.3,144.9,106"/>
</svg>
