<?xml version="1.0" encoding="utf-8"?>
<!-- Generator: Adobe Illustrator 22.1.0, SVG Export Plug-In . SVG Version: 6.00 Build 0)  -->
<svg version="1.1" id="图层_1" xmlns="http://www.w3.org/2000/svg" xmlns:xlink="http://www.w3.org/1999/xlink" x="0px" y="0px"
	 viewBox="0 0 88 88" style="enable-background:new 0 0 88 88;" xml:space="preserve">
<style type="text/css">
	.st0{fill:#FFFFFF;}
	.st1{opacity:7.000000e-02;enable-background:new    ;}
</style>
<title>EDO</title>
<g id="图层_2_1_">
	<g id="图层_1-2">
		<path d="M88,44c0,24.3-19.7,44-44,44S0,68.3,0,44S19.7,0,44,0S88,19.7,88,44"/>
		<path class="st0" d="M34.3,69.9l5.7,5.7c1.8,1.8,4.6,1.8,6.4,0c0,0,0,0,0,0l5.6-5.7L43.2,61L34.3,69.9z"/>
		<rect x="51" y="24.4" transform="matrix(0.7071 -0.7071 0.7071 0.7071 -4.914 49.4409)" class="st0" width="12.5" height="12.5"/>
		<path class="st0" d="M55,67l20.6-20.6c1.8-1.8,1.8-4.6,0-6.4L70,34.3L46.2,58.1L55,67z"/>
		
			<rect x="21.3" y="43.5" transform="matrix(0.7071 -0.7071 0.7071 0.7071 -24.0397 41.5152)" class="st0" width="33.6" height="12.5"/>
		<path class="st0" d="M12.4,47.9l5.7,5.7l9-8.9l-8.9-8.9l-5.7,5.7C10.7,43.3,10.6,46.1,12.4,47.9z"/>
		<path class="st0" d="M53.5,18.1l-5.7-5.7c-1.8-1.8-4.6-1.8-6.4,0L20.8,33.1l8.9,8.9L53.5,18.1z"/>
	</g>
</g>
<g class="st1">
	<path class="st0" d="M30.7,75.2h3.6v0.5l-3.1,4h3.3v0.5h-4v-0.5l3.1-4h-2.9C30.7,75.7,30.7,75.2,30.7,75.2z"/>
	<path class="st0" d="M35.2,75.2h2.2c0.5,0,0.8,0.1,1.1,0.3c0.3,0.2,0.4,0.5,0.4,0.9c0,0.3-0.1,0.5-0.2,0.7
		c-0.2,0.2-0.4,0.3-0.6,0.4c0.3,0.1,0.6,0.2,0.8,0.4s0.3,0.5,0.3,0.8c0,0.5-0.2,0.9-0.5,1.1s-0.7,0.3-1.2,0.3h-2.2L35.2,75.2
		L35.2,75.2z M35.8,75.7v1.7h1.5c0.3,0,0.6-0.1,0.8-0.2s0.3-0.4,0.3-0.7c0-0.3-0.1-0.5-0.3-0.6s-0.4-0.2-0.8-0.2
		C37.3,75.7,35.8,75.7,35.8,75.7z M35.8,77.9v1.9h1.6c0.3,0,0.6-0.1,0.8-0.2c0.2-0.2,0.4-0.4,0.4-0.7c0-0.3-0.1-0.6-0.3-0.7
		S37.8,78,37.4,78h-1.6V77.9z"/>
	<path class="st0" d="M40.7,79.5c0.1,0.1,0.1,0.2,0.1,0.3s0,0.2-0.1,0.3c-0.1,0.1-0.2,0.1-0.3,0.1s-0.2,0-0.3-0.1S40,79.9,40,79.8
		c0-0.1,0-0.2,0.1-0.3c0.1-0.1,0.2-0.1,0.3-0.1C40.5,79.4,40.6,79.4,40.7,79.5z"/>
	<path class="st0" d="M45.4,75.5c0.4,0.3,0.6,0.7,0.7,1.2h-0.6c-0.1-0.4-0.2-0.6-0.5-0.8c-0.3-0.2-0.6-0.3-1-0.3
		c-0.6,0-1,0.2-1.3,0.6s-0.4,0.9-0.4,1.5s0.1,1.1,0.4,1.5c0.3,0.4,0.8,0.6,1.3,0.6c0.4,0,0.7-0.1,1-0.3c0.3-0.2,0.5-0.6,0.6-1h0.5
		c-0.1,0.6-0.4,1-0.8,1.4c-0.4,0.3-0.8,0.5-1.4,0.5c-0.8,0-1.4-0.3-1.8-0.8c-0.4-0.5-0.6-1.1-0.6-1.8c0-0.7,0.2-1.4,0.6-1.8
		c0.4-0.5,1-0.8,1.8-0.8C44.5,75.1,45,75.2,45.4,75.5z"/>
	<path class="st0" d="M50.9,75.8c0.4,0.5,0.6,1.1,0.6,1.9c0,0.7-0.2,1.4-0.6,1.8c-0.4,0.5-1,0.7-1.8,0.7c-0.7,0-1.3-0.2-1.8-0.7
		c-0.4-0.5-0.6-1.1-0.6-1.8c0-0.8,0.2-1.4,0.6-1.8c0.4-0.5,1-0.8,1.8-0.8C49.8,75.1,50.4,75.3,50.9,75.8z M47.7,76.2
		c-0.3,0.4-0.5,0.9-0.5,1.5s0.2,1.1,0.5,1.5s0.8,0.6,1.4,0.6c0.6,0,1-0.2,1.4-0.6c0.3-0.4,0.5-0.9,0.5-1.5s-0.2-1.1-0.5-1.5
		s-0.8-0.6-1.3-0.6C48.5,75.6,48.1,75.8,47.7,76.2z"/>
	<path class="st0" d="M52.3,75.2H53l1.9,4.3l0,0l1.9-4.3h0.7v5h-0.6v-4l0,0l-1.7,4h-0.5l-1.7-4l0,0v4h-0.6v-5H52.3z"/>
</g>
</svg>
