<?xml version="1.0" encoding="utf-8"?>
<!-- Generator: Adobe Illustrator 22.1.0, SVG Export Plug-In . SVG Version: 6.00 Build 0)  -->
<svg version="1.1" id="图层_1" xmlns="http://www.w3.org/2000/svg" xmlns:xlink="http://www.w3.org/1999/xlink" x="0px" y="0px"
	 viewBox="0 0 88 88" style="enable-background:new 0 0 88 88;" xml:space="preserve">
<style type="text/css">
	.st0{fill:#C455FF;}
	.st1{fill:#FFFFFF;}
	.st2{opacity:8.000000e-02;enable-background:new    ;}
</style>
<title>ELF</title>
<g id="图层_2_1_">
	<g id="图层_1-2">
		<path class="st0" d="M0,44c0,24.3,19.7,44,44,44s44-19.7,44-44S68.3,0,44,0S0,19.7,0,44z"/>
		<path class="st1" d="M39.6,21.6c0,3.4,2.8,6.2,6.2,6.2c3.4,0,6.2-2.8,6.2-6.2s-2.8-6.2-6.2-6.2l0,0C42.4,15.4,39.6,18.2,39.6,21.6
			z"/>
		<path class="st1" d="M24.6,39.5c2.4,0,4.7-0.9,6.5-2.5c1.7-1.7,6.8-4.7,9.5,1.5c0.5,1.9,2.5,3.1,4.5,2.5c1.9-0.5,3.1-2.5,2.5-4.5
			c-0.5-1.9-2.5-3.1-4.5-2.5c-0.3,0.1-0.6,0.2-0.9,0.4c-2.4,0.4-6.6,0.2-8.3-5.4l0,0c-0.7-5.2-5.4-8.8-10.6-8.1
			c-5.2,0.7-8.8,5.4-8.1,10.6C15.9,36.1,19.9,39.6,24.6,39.5L24.6,39.5z"/>
		<path class="st1" d="M39.5,66.3c0,3.5,2.9,6.4,6.4,6.4c3.5,0,6.4-2.9,6.4-6.4c0-3.5-2.9-6.4-6.4-6.4
			C42.4,59.9,39.5,62.8,39.5,66.3z"/>
		<path class="st1" d="M49.1,43.9c0,6.4,5.2,11.6,11.6,11.6s11.6-5.2,11.6-11.6s-5.2-11.6-11.6-11.6l0,0
			C54.3,32.3,49.1,37.5,49.1,43.9C49.1,43.9,49.1,43.9,49.1,43.9z"/>
		<path class="st1" d="M43.5,52.2c2,0.3,3.8-1,4.2-3c0.3-2-1-3.8-3-4.2c-1.6-0.3-3.1,0.6-3.8,2c-2.5,5.1-8.7,3.5-11.7,2.3
			c-0.5-0.3-1.1-0.5-1.6-0.7l0,0c-4.5-1.5-9.4,1-10.9,5.6c-1.5,4.5,1,9.4,5.6,10.9c3.9,1.3,8.1-0.4,10.2-3.9
			c0.4-0.7,0.7-1.4,0.9-2.1l0,0C35.1,51.2,42.8,52.1,43.5,52.2L43.5,52.2z"/>
	</g>
</g>
<g class="st2">
	<path class="st1" d="M30.7,76.2h3.6v0.5l-3.1,4h3.3v0.5h-4v-0.5l3.1-4h-2.9C30.7,76.7,30.7,76.2,30.7,76.2z"/>
	<path class="st1" d="M35.2,76.2h2.2c0.5,0,0.8,0.1,1.1,0.3c0.3,0.2,0.4,0.5,0.4,0.9c0,0.3-0.1,0.5-0.2,0.7
		c-0.2,0.2-0.4,0.3-0.6,0.4c0.3,0.1,0.6,0.2,0.8,0.4s0.3,0.5,0.3,0.8c0,0.5-0.2,0.9-0.5,1.1s-0.7,0.3-1.2,0.3h-2.2L35.2,76.2
		L35.2,76.2z M35.8,76.7v1.7h1.5c0.3,0,0.6-0.1,0.8-0.2s0.3-0.4,0.3-0.7c0-0.3-0.1-0.5-0.3-0.6s-0.4-0.2-0.8-0.2
		C37.3,76.7,35.8,76.7,35.8,76.7z M35.8,78.9v1.9h1.6c0.3,0,0.6-0.1,0.8-0.2c0.2-0.2,0.4-0.4,0.4-0.7c0-0.3-0.1-0.6-0.3-0.7
		S37.8,79,37.4,79h-1.6V78.9z"/>
	<path class="st1" d="M40.7,80.5c0.1,0.1,0.1,0.2,0.1,0.3s0,0.2-0.1,0.3c-0.1,0.1-0.2,0.1-0.3,0.1s-0.2,0-0.3-0.1S40,80.9,40,80.8
		c0-0.1,0-0.2,0.1-0.3c0.1-0.1,0.2-0.1,0.3-0.1C40.5,80.4,40.6,80.4,40.7,80.5z"/>
	<path class="st1" d="M45.4,76.5c0.4,0.3,0.6,0.7,0.7,1.2h-0.6c-0.1-0.4-0.2-0.6-0.5-0.8c-0.3-0.2-0.6-0.3-1-0.3
		c-0.6,0-1,0.2-1.3,0.6s-0.4,0.9-0.4,1.5s0.1,1.1,0.4,1.5c0.3,0.4,0.8,0.6,1.3,0.6c0.4,0,0.7-0.1,1-0.3c0.3-0.2,0.5-0.6,0.6-1h0.5
		c-0.1,0.6-0.4,1-0.8,1.4c-0.4,0.3-0.8,0.5-1.4,0.5c-0.8,0-1.4-0.3-1.8-0.8c-0.4-0.5-0.6-1.1-0.6-1.8c0-0.7,0.2-1.4,0.6-1.8
		c0.4-0.5,1-0.8,1.8-0.8C44.5,76.1,45,76.2,45.4,76.5z"/>
	<path class="st1" d="M50.9,76.8c0.4,0.5,0.6,1.1,0.6,1.9c0,0.7-0.2,1.4-0.6,1.8c-0.4,0.5-1,0.7-1.8,0.7c-0.7,0-1.3-0.2-1.8-0.7
		c-0.4-0.5-0.6-1.1-0.6-1.8c0-0.8,0.2-1.4,0.6-1.8c0.4-0.5,1-0.8,1.8-0.8C49.8,76.1,50.4,76.3,50.9,76.8z M47.7,77.2
		c-0.3,0.4-0.5,0.9-0.5,1.5s0.2,1.1,0.5,1.5s0.8,0.6,1.4,0.6c0.6,0,1-0.2,1.4-0.6c0.3-0.4,0.5-0.9,0.5-1.5s-0.2-1.1-0.5-1.5
		s-0.8-0.6-1.3-0.6C48.5,76.6,48.1,76.8,47.7,77.2z"/>
	<path class="st1" d="M52.3,76.2H53l1.9,4.3l0,0l1.9-4.3h0.7v5h-0.6v-4l0,0l-1.7,4h-0.5l-1.7-4l0,0v4h-0.6v-5H52.3z"/>
</g>
</svg>
