<?xml version="1.0" encoding="utf-8"?>
<!-- Generator: Adobe Illustrator 22.1.0, SVG Export Plug-In . SVG Version: 6.00 Build 0)  -->
<svg version="1.1" id="图层_1" xmlns="http://www.w3.org/2000/svg" xmlns:xlink="http://www.w3.org/1999/xlink" x="0px" y="0px"
	 viewBox="0 0 88 88" style="enable-background:new 0 0 88 88;" xml:space="preserve">
<style type="text/css">
	.st0{fill:#FFFFFF;}
	.st1{fill:#C7E1B7;}
	.st2{fill:#20963A;}
	.st3{fill:#0D60AC;}
	.st4{fill:#A2CBE7;}
	.st5{opacity:0.1;enable-background:new    ;}
</style>
<title>BCC</title>
<g>
	<circle class="st0" cx="44.3" cy="43.9" r="44"/>
	<g>
		<path class="st1" d="M18.4,8.4C25.5,3.2,34.2,0.1,43.7,0c14.1,6.7,23.9,21,23.9,37.6c0,1.4-0.1,2.7-0.2,4
			C61.2,22.2,43.1,8.2,21.7,8.2C20.6,8.2,19.5,8.3,18.4,8.4z"/>
		<path class="st2" d="M56.4,9.3c6.9,7.4,11.1,17.4,11.1,28.3c0,20.3-14.6,37.2-33.9,40.9c3.6,3.9,8,7.1,12.9,9.4
			C69.7,86.7,88.1,67.5,88.1,44c0-14.2-6.7-26.8-17.1-34.8C63.6,3.4,54.2,0,44.1,0c-0.2,0-0.4,0-0.6,0C48.5,2.2,52.8,5.4,56.4,9.3z"
			/>
		<path class="st3" d="M32.1,78.6C25.2,71.2,21,61.3,21,50.3c0-16,9.1-30,22.4-36.9l0,0c4-2.1,8.3-3.5,12.9-4.2
			c-3.6-3.8-7.9-7-12.7-9.3C34.1,0,25.4,3.1,18.3,8.3h0.1l0,0c-11,8-18.2,21-18.2,35.6c0,14.2,6.7,26.8,17.1,34.8
			c7.4,5.8,16.8,9.2,26.9,9.2c0.2,0,0.4,0,0.6,0C40,85.7,35.7,82.5,32.1,78.6z M20.6,6.9c0.3-0.2,0.6-0.4,0.9-0.6
			C21.2,6.5,20.9,6.7,20.6,6.9z M27.7,3.2c0.6-0.2,1.1-0.4,1.7-0.6C28.8,2.8,28.3,3,27.7,3.2z M29.7,2.4c0.5-0.2,1-0.3,1.4-0.5
			C30.7,2.1,30.2,2.3,29.7,2.4z M31.8,1.8c0.4-0.1,0.8-0.2,1.3-0.4C32.6,1.5,32.2,1.7,31.8,1.8z M43.4,13.4c1.3-0.7,2.6-1.3,3.9-1.8
			C46,12.2,44.7,12.8,43.4,13.4z M47.5,11.5c0.3-0.1,0.7-0.2,1-0.4C48.2,11.3,47.9,11.4,47.5,11.5z M49.1,11
			c0.3-0.1,0.6-0.2,0.9-0.3C49.7,10.8,49.4,10.9,49.1,11z M50.8,10.4c0.3-0.1,0.5-0.1,0.8-0.2C51.3,10.3,51.1,10.4,50.8,10.4z
			 M52.6,9.9c0.2-0.1,0.4-0.1,0.6-0.2C53,9.8,52.8,9.9,52.6,9.9z M19.9,7.3c-0.3,0.2-0.6,0.4-1,0.7C19.3,7.8,19.6,7.5,19.9,7.3z"/>
		<path class="st4" d="M70.3,79.5c-7.1,5.2-15.8,8.3-25.3,8.4c-14.1-6.7-23.9-21-23.9-37.6c0-1.4,0.1-2.7,0.2-4
			c6.1,19.3,24.2,33.3,45.6,33.3C68,79.6,69.1,79.6,70.3,79.5z"/>
	</g>
</g>
<g class="st5">
	<path class="st0" d="M30.7,77.5h3.6V78l-3.1,4h3.3v0.5h-4V82l3.1-4h-2.9C30.7,78,30.7,77.5,30.7,77.5z"/>
	<path class="st0" d="M35.2,77.5h2.2c0.5,0,0.8,0.1,1.1,0.3c0.3,0.2,0.4,0.5,0.4,0.9c0,0.3-0.1,0.5-0.2,0.7
		c-0.2,0.2-0.4,0.3-0.6,0.4c0.3,0.1,0.6,0.2,0.8,0.4s0.3,0.5,0.3,0.8c0,0.5-0.2,0.9-0.5,1.1s-0.7,0.3-1.2,0.3h-2.2L35.2,77.5
		L35.2,77.5z M35.8,78v1.7h1.5c0.3,0,0.6-0.1,0.8-0.2s0.3-0.4,0.3-0.7c0-0.3-0.1-0.5-0.3-0.6S37.7,78,37.3,78
		C37.3,78,35.8,78,35.8,78z M35.8,80.2v1.9h1.6c0.3,0,0.6-0.1,0.8-0.2c0.2-0.2,0.4-0.4,0.4-0.7c0-0.3-0.1-0.6-0.3-0.7
		s-0.5-0.2-0.9-0.2h-1.6V80.2z"/>
	<path class="st0" d="M40.7,81.8c0.1,0.1,0.1,0.2,0.1,0.3s0,0.2-0.1,0.3c-0.1,0.1-0.2,0.1-0.3,0.1s-0.2,0-0.3-0.1S40,82.2,40,82.1
		c0-0.1,0-0.2,0.1-0.3c0.1-0.1,0.2-0.1,0.3-0.1C40.5,81.7,40.6,81.7,40.7,81.8z"/>
	<path class="st0" d="M45.4,77.8c0.4,0.3,0.6,0.7,0.7,1.2h-0.6c-0.1-0.4-0.2-0.6-0.5-0.8c-0.3-0.2-0.6-0.3-1-0.3
		c-0.6,0-1,0.2-1.3,0.6s-0.4,0.9-0.4,1.5s0.1,1.1,0.4,1.5c0.3,0.4,0.8,0.6,1.3,0.6c0.4,0,0.7-0.1,1-0.3c0.3-0.2,0.5-0.6,0.6-1h0.5
		c-0.1,0.6-0.4,1-0.8,1.4c-0.4,0.3-0.8,0.5-1.4,0.5c-0.8,0-1.4-0.3-1.8-0.8c-0.4-0.5-0.6-1.1-0.6-1.8c0-0.7,0.2-1.4,0.6-1.8
		c0.4-0.5,1-0.8,1.8-0.8C44.5,77.4,45,77.5,45.4,77.8z"/>
	<path class="st0" d="M50.9,78.1c0.4,0.5,0.6,1.1,0.6,1.9c0,0.7-0.2,1.4-0.6,1.8c-0.4,0.5-1,0.7-1.8,0.7c-0.7,0-1.3-0.2-1.8-0.7
		c-0.4-0.5-0.6-1.1-0.6-1.8c0-0.8,0.2-1.4,0.6-1.8c0.4-0.5,1-0.8,1.8-0.8C49.8,77.4,50.4,77.6,50.9,78.1z M47.7,78.5
		c-0.3,0.4-0.5,0.9-0.5,1.5s0.2,1.1,0.5,1.5s0.8,0.6,1.4,0.6c0.6,0,1-0.2,1.4-0.6c0.3-0.4,0.5-0.9,0.5-1.5s-0.2-1.1-0.5-1.5
		s-0.8-0.6-1.3-0.6C48.5,77.9,48.1,78.1,47.7,78.5z"/>
	<path class="st0" d="M52.3,77.5H53l1.9,4.3l0,0l1.9-4.3h0.7v5h-0.6v-4l0,0l-1.7,4h-0.5l-1.7-4l0,0v4h-0.6v-5H52.3z"/>
</g>
</svg>
