<?xml version="1.0" encoding="utf-8"?>
<!-- Generator: Adobe Illustrator 22.1.0, SVG Export Plug-In . SVG Version: 6.00 Build 0)  -->
<svg version="1.1" id="图层_1" xmlns="http://www.w3.org/2000/svg" xmlns:xlink="http://www.w3.org/1999/xlink" x="0px" y="0px"
	 viewBox="0 0 88 88" style="enable-background:new 0 0 88 88;" xml:space="preserve">
<style type="text/css">
	.st0{fill:#3A5BFF;}
	.st1{fill:#FFFFFF;}
	.st2{opacity:8.000000e-02;enable-background:new    ;}
</style>
<title>EPC</title>
<g id="图层_2_1_">
	<g id="图层_1-2">
		<circle class="st0" cx="44" cy="44" r="44"/>
		<polygon class="st1" points="46.4,45 44,47.5 31.9,35.4 44,23.3 56.1,35.4 53.7,37.8 58.8,43 66.4,35.4 44,13 21.6,35.4 44,57.8 
			51.6,50.2 		"/>
		<polygon class="st1" points="41.6,43 44,40.5 56.1,52.6 44,64.7 31.9,52.6 34.3,50.2 29.2,45 21.6,52.6 44,75 66.4,52.6 44,30.2 
			36.4,37.8 		"/>
	</g>
</g>
<g class="st2">
	<path class="st1" d="M30.7,75.1h3.6v0.5l-3.1,4h3.3v0.5h-4v-0.5l3.1-4h-2.9C30.7,75.6,30.7,75.1,30.7,75.1z"/>
	<path class="st1" d="M35.2,75.1h2.2c0.5,0,0.8,0.1,1.1,0.3c0.3,0.2,0.4,0.5,0.4,0.9c0,0.3-0.1,0.5-0.2,0.7
		c-0.2,0.2-0.4,0.3-0.6,0.4c0.3,0.1,0.6,0.2,0.8,0.4s0.3,0.5,0.3,0.8c0,0.5-0.2,0.9-0.5,1.1S38,80,37.5,80h-2.2L35.2,75.1L35.2,75.1
		z M35.8,75.6v1.7h1.5c0.3,0,0.6-0.1,0.8-0.2s0.3-0.4,0.3-0.7c0-0.3-0.1-0.5-0.3-0.6s-0.4-0.2-0.8-0.2
		C37.3,75.6,35.8,75.6,35.8,75.6z M35.8,77.8v1.9h1.6c0.3,0,0.6-0.1,0.8-0.2c0.2-0.2,0.4-0.4,0.4-0.7c0-0.3-0.1-0.6-0.3-0.7
		s-0.5-0.2-0.9-0.2h-1.6V77.8z"/>
	<path class="st1" d="M40.7,79.4c0.1,0.1,0.1,0.2,0.1,0.3s0,0.2-0.1,0.3c-0.1,0.1-0.2,0.1-0.3,0.1s-0.2,0-0.3-0.1S40,79.8,40,79.7
		c0-0.1,0-0.2,0.1-0.3c0.1-0.1,0.2-0.1,0.3-0.1C40.5,79.3,40.6,79.3,40.7,79.4z"/>
	<path class="st1" d="M45.4,75.4c0.4,0.3,0.6,0.7,0.7,1.2h-0.6c-0.1-0.4-0.2-0.6-0.5-0.8c-0.3-0.2-0.6-0.3-1-0.3
		c-0.6,0-1,0.2-1.3,0.6s-0.4,0.9-0.4,1.5s0.1,1.1,0.4,1.5c0.3,0.4,0.8,0.6,1.3,0.6c0.4,0,0.7-0.1,1-0.3c0.3-0.2,0.5-0.6,0.6-1h0.5
		c-0.1,0.6-0.4,1-0.8,1.4c-0.4,0.3-0.8,0.5-1.4,0.5c-0.8,0-1.4-0.3-1.8-0.8c-0.4-0.5-0.6-1.1-0.6-1.8c0-0.7,0.2-1.4,0.6-1.8
		c0.4-0.5,1-0.8,1.8-0.8C44.5,75,45,75.1,45.4,75.4z"/>
	<path class="st1" d="M50.9,75.7c0.4,0.5,0.6,1.1,0.6,1.9c0,0.7-0.2,1.4-0.6,1.8c-0.4,0.5-1,0.7-1.8,0.7c-0.7,0-1.3-0.2-1.8-0.7
		c-0.4-0.5-0.6-1.1-0.6-1.8c0-0.8,0.2-1.4,0.6-1.8c0.4-0.5,1-0.8,1.8-0.8C49.8,75,50.4,75.2,50.9,75.7z M47.7,76.1
		c-0.3,0.4-0.5,0.9-0.5,1.5s0.2,1.1,0.5,1.5s0.8,0.6,1.4,0.6c0.6,0,1-0.2,1.4-0.6c0.3-0.4,0.5-0.9,0.5-1.5s-0.2-1.1-0.5-1.5
		s-0.8-0.6-1.3-0.6C48.5,75.5,48.1,75.7,47.7,76.1z"/>
	<path class="st1" d="M52.3,75.1H53l1.9,4.3l0,0l1.9-4.3h0.7v5h-0.6v-4l0,0l-1.7,4h-0.5l-1.7-4l0,0v4h-0.6v-5H52.3z"/>
</g>
</svg>
