<?xml version="1.0" encoding="utf-8"?>
<!-- Generator: Adobe Illustrator 22.1.0, SVG Export Plug-In . SVG Version: 6.00 Build 0)  -->
<svg version="1.1" id="图层_1" xmlns="http://www.w3.org/2000/svg" xmlns:xlink="http://www.w3.org/1999/xlink" x="0px" y="0px"
	 viewBox="0 0 88 88" style="enable-background:new 0 0 88 88;" xml:space="preserve">
<style type="text/css">
	.st0{fill:#00CADE;}
	.st1{fill:#FFFFFF;}
	.st2{opacity:0.1;enable-background:new    ;}
</style>
<title>ETF</title>
<g id="图层_2_1_">
	<g id="图层_1-2">
		<circle class="st0" cx="44" cy="44" r="44"/>
		<path class="st1" d="M34.4,45.6l0.1,0.1L49,39V23.5c-0.3-0.2-0.5-0.5-0.5-0.9c0.1,0.2,0.3,0.3,0.5,0.3v-2.3
			c-0.3,0.1-0.6,0.1-0.9,0.1c-0.1,0-0.1-0.1-0.2-0.2l0,0c-0.2-0.1-0.3-0.2-0.5-0.3c-0.1,0.3-0.3,0.7-0.4,1c-0.1,0-0.1,0-0.2-0.1
			c0.1-0.4,0.3-0.9,0.4-1.3c-0.2-0.2-0.4-0.3-0.5-0.5c-0.1,0.1-0.2,0.2-0.4,0.3c0-0.1,0-0.2,0-0.3c-0.2,0.1-0.5,0.1-0.7,0.2
			c0-0.1-0.1-0.3-0.1-0.4c0.2-0.1,0.4-0.2,0.6-0.4c-0.1-0.1-0.3-0.1-0.4-0.2c0.1-0.3,1.7,0.3,1.9,0.7l0.3,0.5
			c0.1-0.3,0.3-0.5,0.4-0.8c0,0,0,0,0.1,0c-0.1,0.5-0.2,0.9-0.4,1.3l1-0.3v-2c-0.1,0.1-0.3,0.2-0.5,0.1c-0.4-0.2-0.8-0.5-1.2-0.9
			c-0.1-0.1-0.1-0.3-0.1-0.5c0.4,0.4,0.8,0.2,1.3-0.5c-0.2-0.2-0.5-0.4-0.8-0.6c0,0.3,0,0.5-0.1,0.6c-0.1,0-0.1,0-0.1,0.1
			c-0.2-0.4-0.4-0.7-0.6-1.1c-0.2,0.4-0.4,0.8-0.6,1.1c-0.1-0.2-0.2-0.4-0.2-0.6c0-0.3,0-0.5,0.1-0.8c-0.5,0.2-1,0.4-1.4,0.6
			c0.3,0.3,0.6,0.6,0.9,0.9c-0.6,0.2-1-0.1-1.4-0.2c-0.7-0.2-0.2-0.9-0.5-1.3c-0.3,0.1-0.5,0.3-0.8,0.4l-0.8-0.8
			c-0.1,0.1-0.2,0.2-0.3,0.3c-0.3-0.4-0.5-0.9-0.9-1.4c-0.2,0.8-0.5,1.4-0.7,2.1c0.4,0,0.8-0.1,1.3-0.1c0,0.2,0,0.3-0.1,0.6
			c0.9-0.5,1.7-0.6,2.3,0.3c-0.1,0.2-0.3,0.3-0.5,0.5c0.3,0.1,0.5,0.2,0.7,0.4c-0.7,1.2-1.5,0.6-2.3,0.2c0,0.3,0.1,0.5,0.1,0.8l0,0
			c-0.1-0.1-0.3-0.1-0.5-0.2l-0.1,0.3c0-0.1,0-0.1-0.1-0.2c-0.6,0-1.2,0.1-1.9,0.1c0.1,0.4,0.1,0.6,0.2,0.9
			c-0.1,0.1-0.3,0.2-0.4,0.2l1.2,1.1c0.4-0.4,0.8-0.8,1.4-1.2c0.1,0.1,0.1,0.2,0.1,0.2l2-0.9v1.3c-0.4-0.1-0.9-0.3-1.3-0.4
			c0,0.1-0.1,0.2-0.1,0.4l-1.2,0.2v0.2c0.4,0.1,0.9,0.1,1.1,0.7c0,0.2,0.6,0.3,1,0.5l-0.5,0.6c-0.2-0.4-0.5-0.6-0.7-1
			c-0.1,0.2-0.2,0.4-0.3,0.7l-0.5-0.6C41,21.5,40.6,21.3,40,21c-0.1,0.9-0.7,0.5-1.1,0.8c0-0.1,0-0.3,0-0.4h-1.5c0,0,0-0.1,0-0.1
			c0.5-0.3,1-0.6,1.6-1c-0.9-0.3-1.7-0.5-2.6-0.8c0.2,1.4,0.2,1.4-0.5,1.6c0.1,0.3,0.2,0.7,0.3,1.1c0.2-0.2,0.5-0.3,0.7-0.4
			c0,0.8,0,1.5,0,2.1c0,0.1-0.1,0.3-0.2,0.4s-0.3,0.2-0.5,0.4c-0.2-0.3-0.4-0.5-0.6-0.7c-0.2-0.1-0.4-0.1-0.7-0.1
			c0,0-0.1,0.1-0.1,0.2l-0.3-0.3c-0.2,0.1-0.4,0.1-0.6,0.2c0.1,0.3,0.1,0.5,0.2,0.9c0,0-0.1,0-0.1,0s-0.2-0.1-0.4-0.3
			c-0.1,0.6-0.1,1.1-0.2,1.6l-0.7,0.1c0.2,0.2,0.3,0.4,0.4,0.6c-0.1,0.1-0.1,0.1-0.2,0.2c-0.2-0.1-0.5-0.2-0.8-0.3l0.2,1.2
			c-0.9-0.1-1.1-0.8-1.6-1.2c0.2-0.1,0.4-0.2,0.6-0.3c-0.2-0.3-0.5-0.5-0.7-0.9c0,0.4-0.1,0.6-0.1,0.9s0,0.5-0.1,0.6
			c-0.7-0.2-1.3-0.3-2.1-0.5c0.2,0.3,0.4,0.7,0.6,1.1c-0.6,0.6-0.6,0.6-1.2,0c-0.3-0.4-0.6-0.6-1-1c-0.3,0.6,0.2,1.3-0.5,1.6
			c0.3,0.4,0.5,0.8,0.8,1.1c-0.2,0.1-0.3,0.2-0.5,0.4c0.1,0.1,0.2,0.2,0.2,0.3c-0.4,0.2-0.7,0.5-1.2,0.8c0.5,0.4,1,0.6,1.5,1
			c0.1-0.5,0.2-1,1-0.8c0.1,0.4,0.1,0.8,0.2,1.3c-0.2,0-0.5-0.1-0.7-0.1l-0.6,0.8c0.2,0,0.4,0.1,0.6,0.1c0.1-0.2,0.1-0.3,0.2-0.5
			c0.2,0.1,0.3,0.1,0.4,0.3c0.2,0.2,0.4,0.5,0.6,0.8l-0.7,0.2c0.2,0.7,0.8,0.7,1.3,0.8c0,0,0,0.1,0,0.1c-0.4,0-0.8,0-1.2-0.1
			c0,0.1,0.1,0.3,0.1,0.5c-0.5,0.2-0.4,0.7-0.5,1.1l1-0.1c0,0.1,0,0.3-0.1,0.5c0.2-0.1,0.4-0.1,0.5-0.1c0.2,0.1,0.4,0.3,0.6,0.5
			c0,0-0.1,0.2-0.2,0.4c-0.4-0.6-0.7-0.7-1.2-0.3c-0.2,0.2-0.5,0.2-0.8-0.2c-0.3-0.6-0.6-1.1-0.9-1.7c-0.2,0.7-0.8,1-1.5,0.9
			c0.1,0.3,0.2,0.5,0.3,0.7c-0.2,0.1-0.4,0.1-0.5,0.2c0.2,0.4,0.4,0.8,0.6,1.2c0.2,0,0.6,0.1,0.9,0.1c0,0,0.1-0.1,0.1-0.1
			c-0.1-0.1-0.2-0.2-0.3-0.2c-0.5,0-0.5-0.2-0.4-0.6s0.5-0.5,0.6-0.5c0.5,0.1,1.1-0.1,1.2,0.7c-0.2,0.1-0.3,0.2-0.5,0.4l1.7,0.6
			c-0.3,0.1-0.6,0.3-1,0.5c0.3,0.1,0.6,0.2,0.9,0.4c0.2,0.1,0.4,0.4,0.5,0.6c0,0.1-0.3,0.3-0.5,0.4s-0.2,0.1-0.5,0.3
			c0.7,0.1,1.4,0.2,1.9,0.2l0.4-1.2c0.2,0.1,0.5,0.1,0.7,0.1c-0.1,0.1-0.1,0.2-0.2,0.3c0.3,0.3,0.6,0.5,1,0.8l-1.5,0.9l-0.2-0.7
			c-0.2,0.2-0.3,0.4-0.5,0.5c-0.1,0-0.3,0-0.5,0c-0.1,0.2-0.1,0.4-0.2,0.6c-0.2-0.1-0.4-0.2-0.5-0.3c-0.2-0.2-0.4-0.4-0.6-0.7
			C28,43,27.3,44,25.7,44.1c0.1-0.4,0.1-0.6,0.1-0.8c0.2,0,0.3,0,0.5-0.1c-0.1-0.5-0.2-0.9-0.3-1.4c-0.5,0.4-1,0.8-1.4,1.3
			c0.2,0.6,1.2,0.8,1,1.6c0.3,0.1,0.6,0.3,1,0.4c0.2-0.1,0.5-0.4,0.8-0.6l0.1,0.1c0.1-0.2,0.2-0.5,0.3-0.7c1.3,0.2,2.2-0.7,3.3-1.5
			c-0.2,0.4-0.3,0.7-0.5,1h0.7c-0.3,0.2-0.6,0.3-0.9,0.5c-0.1,0.1-0.1,0.2-0.1,0.4c0.2,0,0.4,0,0.5,0c0,0.3,0,0.5,0.1,0.9
			c-0.2-0.1-0.3-0.3-0.5-0.4c0,0.2,0,0.4-0.1,0.5H30c0-0.2,0.1-0.4,0.1-0.7c-0.5,0.1-0.9,0.1-1.4,0.2c0.2,0.4,0.4,0.6,0.6,1
			l-0.1,0.1c-0.3-0.2-0.6-0.3-1-0.5c-0.5,0.3-0.5,0.9-0.1,1.9c0.2-0.3,0.4-0.5,0.6-0.7c0.2-0.2,0.6-0.4,0.9-0.4
			c0.4,0,0.9,0.5,1.4-0.2c0,0.4,0.1,0.6,0.1,0.8c0,0-0.1,0-0.1,0c0-0.1-0.1-0.2-0.1-0.3c-0.4,0.2-0.3,0.4-0.1,0.6
			c0.1,0.1,0.2,0.2,0.3,0.3l2.7-1.3C34,46.1,34.2,45.8,34.4,45.6L34.4,45.6z M45.1,17.2c0,0.2,0,0.4-0.1,0.5c0.5,0,0.9-0.2,1,0.5
			c-0.3,0-0.7,0.1-1.1,0.1c0-0.5,0-0.8-0.1-1.2C44.9,17.1,45,17.1,45.1,17.2L45.1,17.2z M44.8,21.4c-0.3,0.1-0.6,0.3-0.9,0.4
			c0-0.2,0-0.4,0-0.7C44.2,21.2,44.5,21.3,44.8,21.4z M43.7,26.7c-0.3,0.2-0.5,0.3-0.9,0.6v-0.7c0.1,0,0.1,0,0.1,0
			c-0.1-0.1-0.3-0.2-0.4-0.4s0-0.1,0.1-0.2c0.4,0.1,0.8,0.2,1.1,0.4L43.7,26.7z M43,23.5c0.1,0.2,0.2,0.3,0.3,0.5
			c-0.2,0.1-0.5,0.2-0.7,0.4c-0.1-0.1-0.1-0.2-0.2-0.3C42.6,23.9,42.8,23.7,43,23.5z M39.9,29c-0.2-0.4-0.4-0.7-0.6-1l0.1-0.1
			c0.3,0.2,0.5,0.4,0.8,0.6C40.1,28.7,40,28.8,39.9,29z M39.3,24.2c0.3,0.2,0.6,0.4,0.9,0.7c0.1-0.3,0.2-0.7,0.7-0.4
			c-0.1,0.2-0.2,0.3-0.2,0.5c0.3,0.2,0.6,0.4,0.9,0.6c0,0-0.1,0.1-0.1,0.1c-0.2-0.1-0.5-0.3-0.7-0.4c-0.4,0.5-0.6,0.5-1.1-0.1
			c-0.1,0.1-0.3,0.1-0.6,0.3c0.1-0.3,0.2-0.5,0.2-0.6s-0.2-0.4-0.3-0.7C39.2,24.3,39.2,24.3,39.3,24.2L39.3,24.2z M39.6,32.4
			c-0.4,0.2-0.7,0.3-1,0.4c0-0.1,0-0.3,0-0.4c-0.3,0-0.6-0.1-1-0.1c0.2-0.2,0.4-0.4,0.5-0.4C38.5,32,38.9,32.2,39.6,32.4L39.6,32.4z
			 M37.4,27.8c0.3-0.1,0.5-0.1,0.7-0.2l0.4,0.8c-0.1,0.1-0.5,0.2-0.5,0.2C37.7,28.3,37.5,28.1,37.4,27.8L37.4,27.8z M37.9,23.4
			c0.3,0.3,0.6,0.5,1,0.9C38.4,24.3,38,23.9,37.9,23.4L37.9,23.4z M37.7,22.3c0.2,0.2,0.3,0.4,0.4,0.6c-0.1,0.1-0.2,0.2-0.3,0.3
			c-0.2-0.1-0.3-0.3-0.5-0.5C37.4,22.6,37.6,22.5,37.7,22.3L37.7,22.3z M36.3,25.1c0.3,0.1,0.6,0.2,0.8,0.4c0,0-0.1,0.3-0.1,0.5
			c-0.3-0.3-0.5-0.5-0.7-0.8C36.3,25.2,36.3,25.2,36.3,25.1L36.3,25.1z M35.7,29.3c0.1,0,0.1,0,0.2,0c0,0.2,0,0.4,0.1,0.6
			c0.2-0.1,0.4-0.1,0.6-0.2c0,0.2,0,0.4-0.1,0.4c-0.3,0.1-0.6,0.1-1,0.2C35.5,30,35.6,29.6,35.7,29.3L35.7,29.3z M35.2,34.3
			c0.6,0,0.5,1,1.2,0.8c-0.1,0.1-0.3,0.2-0.4,0.3c-0.3-0.2-0.5-0.4-0.8-0.5c0,0.1-0.1,0.1-0.1,0.1L35.2,34.3z M34.6,37v0.2
			c0.2,0.2,0.4,0.3,0.6,0.5c0,0-0.1,0.1-0.1,0.1c-0.2-0.4-0.9,0.2-0.9-0.5C34.2,37.3,34.3,37.2,34.6,37L34.6,37z M30.1,36.2
			l-0.1-0.3c0.3-0.1,0.7-0.1,1-0.2c0,0.1,0,0.2,0.1,0.2C30.8,36.1,30.5,36.2,30.1,36.2L30.1,36.2z M30.8,33.2
			c0.2-0.2,0.3-0.4,0.5-0.6c0.1,0.2,0.3,0.4,0.5,0.7L30.8,33.2z M31,31.2c-0.2-0.2-0.4-0.4-0.5-0.6c-0.7,0.1-1.2,0.1-1.8,0.2
			c-0.1-0.2-0.1-0.3-0.2-0.5c0.1-0.2,0.3-0.3,0.3-0.5c0.1-0.6,0.2-1.2,0.3-1.8c0.1-0.3,0.2-0.6,0.5-0.9c0.1,0.2,0.1,0.4,0.2,0.6
			l0.5-0.3c0.1,0.2,0.1,0.5,0.2,0.7c-0.3,0.2-0.7,0.6-1,0.9c0.1-0.1,0.2-0.1,0.2-0.2l0.9,0.9c0.1-0.4,0.2-1.1,0.2-1.7
			c0.1,0,0.1-0.1,0.2-0.1c0.1,0.2,0.2,0.3,0.3,0.4c0.1,0.2,0.3,0.3,0.5,0.5c0.2-0.2,0.3-0.3,0.4-0.5c0.1,0.3,0.3,0.5,0.4,0.8h-0.9
			c0.2,0.3,0.4,0.6,0.5,0.9c0,0,0,0.1-0.1,0.1c-0.3-0.2-0.6-0.3-0.9-0.5c-0.1,0.4-0.1,0.7-0.2,1.1l1.3-0.2v0.1
			C31.8,30.7,31.4,31,31,31.2z M33.5,32.8c0-0.1,0.1-0.2,0.2-0.5c0.2,0.2,0.3,0.3,0.6,0.7c-0.5,0.1-0.8,0.2-1.1,0.4
			c-0.2,0.1-0.5,0.2-0.7,0.4v-0.9l-0.1-0.2C32.7,32.7,33.1,32.7,33.5,32.8L33.5,32.8z M32.3,37.7c0.4-0.2,0.7-0.5,1.2-0.2
			C33.2,38,32.9,38.3,32.3,37.7L32.3,37.7z M33.4,44.9c0.2-0.3,0.7-0.5,1.1-0.8c0,0.1,0.1,0.1,0.1,0.2c-0.1,0.1-0.1,0.3-0.2,0.4
			c0.2,0,0.4,0,0.7-0.1c0,0.1-0.1,0.3-0.1,0.4c-0.6-0.5-0.8-0.3-1.5,0.9C33.4,45.5,33.2,45.1,33.4,44.9L33.4,44.9z"/>
		<path class="st1" d="M32.7,21.5c0.1,0.4,0.2,0.9,0.4,1.4c1.1-0.9,2.1-1.7,3.2-2.5c-0.5-0.2-0.7-0.3-1-0.5c0.5-0.5,1-0.9,1.6-1.3
			c-0.8-0.4-1.6-0.8-2.4-1.2c0.2,0.9,0.4,1.6,0.6,2.4h-1.5c0.2,0.5,0.3,0.9,0.4,1.2c0,0.1,0.1,0.1,0.2,0.2c-0.1,0-0.2,0.1-0.3,0.1
			c-0.5-0.2-1.1-0.4-1.7-0.6c0,0.2-0.1,0.3-0.1,0.5c0.1,0,0.1-0.1,0.2-0.1C32.5,21.2,32.6,21.4,32.7,21.5L32.7,21.5z M21.4,44.8
			c0.6,0.8,1.2,1.4,1.9,2.3c0.1-1,1-1.6,0.7-2.7c-0.1-0.5,0-1.1,0.1-1.6C23.1,43.6,22.2,44.2,21.4,44.8z M30.4,21l-1.8,1.5
			c1.1,0.5,2,1.1,3,1.5c0.2,0.1,0.8,0.4,1.1-0.1c0.1-0.2,0.2-0.4,0.2-0.7c-0.4-0.3-0.8-0.6-1.2-1c-0.2,0.3-0.4,0.5-0.7,0.8
			C30.8,22.4,30.6,21.8,30.4,21z M43.2,12.6c0.1-0.3,0.2-0.5,0.3-0.8c0,0,0.1,0.1,0.1,0.1c-0.1,0.2-0.1,0.3-0.2,0.6l0.5,0
			c0.3-0.7-1.1-0.7-0.3-1.5c-0.3-0.1-0.5-0.2-0.8-0.4c0.1,0.3,0.1,0.4,0.1,0.7c-0.6-0.3-1.2-0.6-1.8-0.9v2.4
			C42.5,12.4,42.5,12.4,43.2,12.6L43.2,12.6z M25.7,31.3c-1,0.3-1.8,0.5-2.7,0.8c0.5,0.6,1,1.1,1.5,1.7C24.9,33,25.3,32.2,25.7,31.3
			z M23.6,40.8c-0.5-0.7-1-1.2-1.6-2c-0.3,0.7-0.6,1.3-0.9,2H23.6z M39.2,16.4c0.1,0.5,0.2,0.9,0.3,1.2c0.3,0.1,0.5,0.2,0.6,0.3
			c0.3,0.4,0.6,0.4,1.1,0.3c-0.5-0.6-0.5-1.4-0.1-2C40.3,16.2,39.8,16.3,39.2,16.4z M25.6,29.8c-0.6-0.2-1.2-0.4-1.9-0.6
			c0.1,0.8,0.1,1.6,0.1,2.1C24.4,30.9,25,30.4,25.6,29.8z M25.3,48.7h-2c0.3,0.7,0.5,1.2,0.8,1.8l0.5-0.2
			C24.8,49.7,25.1,49.2,25.3,48.7z M24.2,35.6c-0.8-0.3-1.5-0.5-2.3-0.8c0.4,0.8,0.6,1.5,1,2.3C23.4,36.6,23.7,36.1,24.2,35.6z
			 M24.6,45.7c-0.1,0.9-0.3,1.6-0.4,2.4c0.6-0.2,1.2-0.4,1.9-0.5C25.5,47,25.1,46.4,24.6,45.7z M28.2,25c-0.3-0.1-0.5-0.2-0.8-0.3
			l1.5-0.5l-1-1.1c-0.4,1-1.2,1.8-0.6,2.9C27.6,25.7,27.9,25.4,28.2,25z M36.8,22.9l-1.1-1.1c-0.3,0.3-0.6,0.6-1,1
			c0.5,0.3,1,0.6,1.5,0.9C36.4,23.4,36.6,23.2,36.8,22.9z M47.2,12.8c0.4,0.2,0.8,0.3,1.1,0.4c0.3-1-0.3-1.7-0.6-2.6
			c-0.3,0.5-0.5,0.9-0.8,1.4l1,0.1C47.7,12.3,47.5,12.5,47.2,12.8L47.2,12.8z M49,14.3c-0.5-0.2-0.9-0.4-1.3-0.6
			c0.3,0.6-0.1,0.8-0.5,1.1c0.4,0.2,0.7,0.4,1.1,0.7c0.2-0.2,0.4-0.4,0.6-0.6V14.3z M47.5,13.8c-0.8-0.2-1.4-0.5-2.1-0.7
			c0.1,0.6,0.1,1.2,0.2,1.8C46.3,14.6,46.9,14.2,47.5,13.8z M22.1,36.9c-0.3,0.5-0.5,1.1-0.8,1.6h2.1C23,38,22.6,37.5,22.1,36.9z
			 M32.6,26.4c0.1-0.8,0.2-1.4,0.3-2l-1.6,0.4C31.8,25.4,32.1,25.8,32.6,26.4z M37.6,12.7c-0.5,0.2-0.9,0.3-1.4,0.5
			c0.4,0.4,0.8,0.8,1.2,1.3C37.5,13.8,37.6,13.3,37.6,12.7L37.6,12.7z M27.3,20.1c0,0.5-0.1,1-0.1,1.5l1.7-0.5L27.3,20.1z M49,16.4
			c-0.1,0.1-0.2,0.3-0.3,0.5H49V16.4z M35.2,13.9c-0.2,0.4-0.4,0.8-0.7,1.2c0.6,0.1,1,0.1,1.7,0.2L35.2,13.9z M25,39.1
			c-0.4,0.4-0.6,0.7-1,1.1c0.5,0,1,0.1,1.5,0.1C25.3,39.9,25.2,39.6,25,39.1z M25.5,31.7c0.1,0.4,0.2,0.7,0.4,1.2
			c0.4-0.3,0.7-0.6,1.1-1C26.5,31.9,26,31.8,25.5,31.7z M25.6,35.1c0.5-0.1,0.8-0.2,1.3-0.2L25.9,34C25.8,34.4,25.7,34.7,25.6,35.1z
			 M30.6,47.1l-0.1,0.4l0.3-0.1C30.7,47.3,30.7,47.2,30.6,47.1z M31.4,19.5h-1.3l0.9,1C31.1,20,31.2,19.8,31.4,19.5z M39.1,12.3
			c-0.1,0.4-0.1,0.7-0.2,1.2c0.4-0.3,0.7-0.4,1-0.6L39.1,12.3z M43.2,14.2c-0.2-0.4-0.3-0.6-0.5-0.9c-0.2,0.3-0.3,0.4-0.5,0.7
			C42.5,14,42.8,14.1,43.2,14.2z M27.7,42.6v-0.8l-1,0.4C27.1,42.4,27.4,42.5,27.7,42.6z M27.7,40.9c-0.2,0.3-0.3,0.5-0.5,0.9l1-0.2
			C28.1,41.3,27.9,41.1,27.7,40.9z M30.4,24.4c-0.3,0.1-0.5,0.1-0.9,0.2c0.3,0.2,0.5,0.4,0.9,0.6C30.3,24.9,30.4,24.6,30.4,24.4z
			 M28.8,48c0,0.1,0,0.2,0.1,0.3l0.5-0.2L28.8,48z M37.3,17.7c0.2-0.3,0.3-0.6,0.4-0.9h-0.8C37.1,17.1,37.1,17.3,37.3,17.7
			L37.3,17.7z M39.1,16.1l1-0.2l-0.5-0.6C39.4,15.5,39.3,15.8,39.1,16.1L39.1,16.1z M38.5,18.7l-0.7,0.5l0.9,0.2
			C38.6,19.2,38.5,18.9,38.5,18.7L38.5,18.7z M30.9,30.5c0.1-0.4,0.1-0.7,0.2-1.1c0.4,0.2,0.6,0.4,0.9,0.5c0,0,0-0.1,0.1-0.1
			c-0.2-0.3-0.3-0.5-0.5-0.9h0.9c-0.1-0.2-0.3-0.5-0.4-0.8c-0.1,0.2-0.3,0.3-0.4,0.5c-0.2-0.1-0.3-0.3-0.4-0.4
			c-0.1-0.1-0.2-0.3-0.3-0.5c-0.1,0-0.1,0.1-0.2,0.1c-0.1,0.6-0.2,1.3-0.2,1.7c-0.3-0.3-0.5-0.6-0.9-0.9c-0.1,0.1-0.2,0.1-0.2,0.2
			c0.4-0.3,0.8-0.6,1.1-0.9c-0.1-0.2-0.1-0.5-0.2-0.7c-0.2,0.1-0.3,0.2-0.5,0.3c-0.1-0.2-0.1-0.4-0.2-0.6c-0.2,0.2-0.4,0.5-0.5,0.9
			c-0.1,0.6-0.2,1.2-0.3,1.9c-0.1,0.2-0.2,0.4-0.3,0.5c0,0.1,0.1,0.3,0.2,0.5l1.8-0.2c0.2,0.2,0.3,0.4,0.5,0.6
			c0.4-0.2,0.8-0.5,1.2-0.7v-0.1C31.8,30.4,31.4,30.5,30.9,30.5z M48.3,19.2C48.3,19.2,48.3,19.2,48.3,19.2
			c-0.2,0.2-0.3,0.5-0.5,0.8l-0.3-0.5c-0.2-0.4-1.8-1-1.9-0.7c0.1,0,0.3,0.1,0.4,0.2c-0.2,0.1-0.4,0.2-0.6,0.4
			c0,0.1,0.1,0.3,0.1,0.4c0.2-0.1,0.5-0.2,0.7-0.2c0,0.1,0,0.2,0,0.3c0.2-0.1,0.3-0.2,0.4-0.3c0.2,0.2,0.4,0.4,0.5,0.5l-0.4,1.3
			c0.1,0,0.1,0,0.2,0.1c0.1-0.3,0.3-0.6,0.4-1l0.5,0.3C48.1,20.1,48.2,19.6,48.3,19.2z"/>
		<path class="st1" d="M47.5,20.2c0.2,0.1,0.3,0.2,0.5,0.3C47.8,20.4,47.6,20.3,47.5,20.2z M39.2,25.6c0.3-0.2,0.4-0.2,0.6-0.3
			c0.5,0.6,0.7,0.6,1.1,0.1c0.2,0.1,0.5,0.3,0.7,0.4c0-0.1,0-0.1,0.1-0.1c-0.3-0.2-0.6-0.5-0.9-0.6c0.1-0.1,0.2-0.3,0.2-0.5
			c-0.5-0.3-0.6,0.1-0.7,0.4c-0.3-0.2-0.6-0.5-0.9-0.7c-0.1,0-0.1,0.1-0.2,0.1c0.1,0.2,0.2,0.5,0.3,0.7
			C39.4,25.2,39.3,25.4,39.2,25.6z M32.4,33.7c0.3-0.1,0.4-0.3,0.7-0.4s0.7-0.2,1.1-0.4c-0.3-0.3-0.4-0.5-0.6-0.7
			c-0.1,0.2-0.1,0.3-0.2,0.5c-0.5-0.1-0.8-0.1-1.1-0.2l0.1,0.2C32.4,33.1,32.4,33.4,32.4,33.7z M35,45c0-0.1,0.1-0.3,0.1-0.4
			c-0.3,0-0.5,0-0.7,0.1c0.1-0.1,0.1-0.3,0.2-0.5c0-0.1-0.1-0.1-0.1-0.2c-0.4,0.2-0.8,0.5-1.1,0.8c-0.1,0.2,0,0.7,0.1,1.1
			C34.2,44.7,34.4,44.5,35,45z M48.1,20.7c0.3,0,0.6,0,0.9-0.1v-0.4L48,20.5C48,20.6,48.1,20.7,48.1,20.7z"/>
		<path class="st1" d="M48,20.5c0.1,0.1,0.1,0.2,0.2,0.2S48,20.6,48,20.5z M49.1,23.5V23c-0.2,0-0.4-0.1-0.5-0.3
			C48.6,23,48.8,23.3,49.1,23.5L49.1,23.5z M37.5,32.3c0.5,0.1,0.7,0.1,1,0.1c0,0.1,0,0.3,0,0.4c0.3-0.1,0.5-0.2,1-0.4
			c-0.6-0.2-1.1-0.4-1.5-0.5C37.9,31.9,37.8,32.1,37.5,32.3z M46,18.2c-0.1-0.8-0.6-0.6-1-0.5c0-0.2,0-0.4,0.1-0.5
			c-0.1,0-0.1,0-0.2,0c0.1,0.4,0.1,0.8,0.1,1.1C45.3,18.3,45.7,18.2,46,18.2z M42.5,26.2c0.1,0.1,0.3,0.2,0.4,0.4c0,0-0.1,0-0.1,0
			v0.7c0.4-0.3,0.7-0.5,0.9-0.6c0-0.1,0-0.1,0-0.2c-0.4-0.1-0.8-0.2-1.1-0.4C42.6,26.1,42.6,26.2,42.5,26.2L42.5,26.2z M38.4,28.4
			L38,27.7c-0.1,0-0.3,0.1-0.7,0.2c0.2,0.3,0.3,0.6,0.5,0.8S38.3,28.5,38.4,28.4z M36.5,29.8c-0.2,0.1-0.4,0.1-0.6,0.2
			c0-0.2,0-0.4-0.1-0.6c-0.1,0-0.1,0-0.2,0c-0.1,0.3-0.1,0.6-0.2,1.1c0.4-0.1,0.7-0.1,1-0.2C36.5,30.2,36.5,30,36.5,29.8z M33.9,46
			l0.6-0.3c0,0-0.1-0.1-0.1-0.1C34.2,45.7,34,45.8,33.9,46z M36,35.5c0.1-0.1,0.3-0.2,0.4-0.3c-0.8,0.2-0.7-0.8-1.2-0.8v0.7
			c0,0,0.1-0.1,0.1-0.1C35.5,35.1,35.7,35.3,36,35.5z M33.6,37.5c-0.5-0.3-0.8,0-1.2,0.2C32.9,38.3,33.2,38,33.6,37.5L33.6,37.5z
			 M43.3,24c-0.1-0.2-0.2-0.3-0.3-0.5c-0.2,0.2-0.4,0.4-0.5,0.6c0.1,0.1,0.1,0.2,0.2,0.3C42.8,24.2,43.1,24.1,43.3,24z M35,38
			c0-0.1,0.1-0.1,0.1-0.1c-0.2-0.1-0.3-0.3-0.6-0.4v-0.3c-0.2,0.1-0.4,0.2-0.4,0.4C34.2,38.1,34.9,37.5,35,38z M39.3,28
			c0.2,0.3,0.3,0.6,0.6,1c0.1-0.3,0.3-0.5,0.3-0.5l-0.8-0.6C39.4,27.9,39.4,28,39.3,28z M38.1,22.9c-0.1-0.2-0.3-0.4-0.4-0.6
			l-0.4,0.5c0.2,0.1,0.4,0.3,0.5,0.5C37.9,23.1,38,23,38.1,22.9L38.1,22.9z M37.1,25.5c-0.3-0.1-0.5-0.3-0.8-0.4c0,0,0,0.1,0,0.1
			c0.2,0.2,0.4,0.5,0.7,0.8C37,25.9,37.2,25.5,37.1,25.5L37.1,25.5z M39,24.4c-0.5-0.4-0.8-0.6-1.1-0.9C38,24,38.5,24.4,39,24.4z
			 M44.8,21.4c-0.3-0.1-0.6-0.2-0.9-0.4c0,0.3,0,0.5,0,0.7C44.2,21.7,44.5,21.6,44.8,21.4L44.8,21.4z M30.1,35.9
			c0,0.1,0,0.2,0.1,0.3c0.3-0.1,0.6-0.2,1-0.2c0-0.1,0-0.2-0.1-0.2C30.7,35.8,30.4,35.9,30.1,35.9z M30.8,33.3c0.3,0,0.6,0.1,1,0.1
			c-0.2-0.3-0.3-0.5-0.5-0.7C31.1,32.9,31,33,30.8,33.3z M29.6,48.1c0.1,0,0.2-0.1,0.2-0.1c0.3,0.1,0.6-0.1,0.6-0.4l-1.1,0.5
			C29.4,48.1,29.5,48.1,29.6,48.1L29.6,48.1z M24.6,50.3l-0.5,0.2l0.2,0.4C24.4,50.7,24.5,50.5,24.6,50.3z"/>
		<path class="st1" d="M29.8,47.9c-0.1,0-0.1,0.1-0.2,0.2c0.2,0.2,0.3,0.3,0.5,0.5l0.9-1c0-0.1-0.1-0.1-0.2-0.2l-0.3,0.1
			C30.4,47.8,30.2,48,29.8,47.9C29.9,48,29.8,48,29.8,47.9L29.8,47.9z M29.1,48.7l0.5-0.6c-0.1,0-0.1,0-0.2,0l-0.5,0.2
			c0,0.1,0,0.2,0.1,0.3S29,48.7,29.1,48.7L29.1,48.7z"/>
		<path class="st1" d="M49.1,59.8c0-7,0-13.8,0.1-20.9c6.5,3,13,6,19.7,9C62.1,52,55.7,55.9,49.1,59.8z M68,52.2L49.2,78.8L49,78.7
			V76c0-3.9,0-7.8,0.1-11.6c0-0.6,0.3-1.1,0.7-1.5c5.8-3.5,11.5-7,17.3-10.5c0.3-0.2,0.6-0.3,0.9-0.4L68,52.2L68,52.2z"/>
		<path class="st1" d="M32.7,52.9c2.6,1.2,5.2,2.4,7.8,3.6c2.2,1,4.4,2,6.6,3c1.8,0.8,1.9,1,1.5,3.2c-5.4-3.2-10.7-6.5-16-9.7
			C32.6,53,32.6,52.9,32.7,52.9L32.7,52.9z"/>
	</g>
</g>
<g class="st2">
	<path class="st1" d="M30.7,79.5h3.6V80l-3.1,4h3.3v0.5h-4V84l3.1-4h-2.9C30.7,80,30.7,79.5,30.7,79.5z"/>
	<path class="st1" d="M35.2,79.5h2.2c0.5,0,0.8,0.1,1.1,0.3c0.3,0.2,0.4,0.5,0.4,0.9c0,0.3-0.1,0.5-0.2,0.7
		c-0.2,0.2-0.4,0.3-0.6,0.4c0.3,0.1,0.6,0.2,0.8,0.4s0.3,0.5,0.3,0.8c0,0.5-0.2,0.9-0.5,1.1s-0.7,0.3-1.2,0.3h-2.2L35.2,79.5
		L35.2,79.5z M35.8,80v1.7h1.5c0.3,0,0.6-0.1,0.8-0.2s0.3-0.4,0.3-0.7c0-0.3-0.1-0.5-0.3-0.6S37.7,80,37.3,80
		C37.3,80,35.8,80,35.8,80z M35.8,82.2v1.9h1.6c0.3,0,0.6-0.1,0.8-0.2c0.2-0.2,0.4-0.4,0.4-0.7c0-0.3-0.1-0.6-0.3-0.7
		s-0.5-0.2-0.9-0.2h-1.6V82.2z"/>
	<path class="st1" d="M40.7,83.8c0.1,0.1,0.1,0.2,0.1,0.3s0,0.2-0.1,0.3c-0.1,0.1-0.2,0.1-0.3,0.1s-0.2,0-0.3-0.1S40,84.2,40,84.1
		c0-0.1,0-0.2,0.1-0.3c0.1-0.1,0.2-0.1,0.3-0.1C40.5,83.7,40.6,83.7,40.7,83.8z"/>
	<path class="st1" d="M45.4,79.8c0.4,0.3,0.6,0.7,0.7,1.2h-0.6c-0.1-0.4-0.2-0.6-0.5-0.8c-0.3-0.2-0.6-0.3-1-0.3
		c-0.6,0-1,0.2-1.3,0.6s-0.4,0.9-0.4,1.5s0.1,1.1,0.4,1.5c0.3,0.4,0.8,0.6,1.3,0.6c0.4,0,0.7-0.1,1-0.3c0.3-0.2,0.5-0.6,0.6-1h0.5
		c-0.1,0.6-0.4,1-0.8,1.4c-0.4,0.3-0.8,0.5-1.4,0.5c-0.8,0-1.4-0.3-1.8-0.8c-0.4-0.5-0.6-1.1-0.6-1.8c0-0.7,0.2-1.4,0.6-1.8
		c0.4-0.5,1-0.8,1.8-0.8C44.5,79.4,45,79.5,45.4,79.8z"/>
	<path class="st1" d="M50.9,80.1c0.4,0.5,0.6,1.1,0.6,1.9c0,0.7-0.2,1.4-0.6,1.8c-0.4,0.5-1,0.7-1.8,0.7c-0.7,0-1.3-0.2-1.8-0.7
		c-0.4-0.5-0.6-1.1-0.6-1.8c0-0.8,0.2-1.4,0.6-1.8c0.4-0.5,1-0.8,1.8-0.8C49.8,79.4,50.4,79.6,50.9,80.1z M47.7,80.5
		c-0.3,0.4-0.5,0.9-0.5,1.5s0.2,1.1,0.5,1.5s0.8,0.6,1.4,0.6c0.6,0,1-0.2,1.4-0.6c0.3-0.4,0.5-0.9,0.5-1.5s-0.2-1.1-0.5-1.5
		s-0.8-0.6-1.3-0.6C48.5,79.9,48.1,80.1,47.7,80.5z"/>
	<path class="st1" d="M52.3,79.5H53l1.9,4.3l0,0l1.9-4.3h0.7v5h-0.6v-4l0,0l-1.7,4h-0.5l-1.7-4l0,0v4h-0.6v-5H52.3z"/>
</g>
</svg>
