<?xml version="1.0" encoding="utf-8"?>
<!-- Generator: Adobe Illustrator 22.1.0, SVG Export Plug-In . SVG Version: 6.00 Build 0)  -->
<svg version="1.1" id="图层_1" xmlns="http://www.w3.org/2000/svg" xmlns:xlink="http://www.w3.org/1999/xlink" x="0px" y="0px"
	 viewBox="0 0 88 88" style="enable-background:new 0 0 88 88;" xml:space="preserve">
<style type="text/css">
	.st0{fill:#527290;}
	.st1{fill:#FFFFFF;}
	.st2{opacity:7.000000e-02;enable-background:new    ;}
</style>
<title>ETH</title>
<g id="图层_2_1_">
	<g id="图层_1-2">
		<circle class="st0" cx="44" cy="44" r="44"/>
		<polygon class="st1" points="44,13 43.9,34.2 62.5,43.3 		"/>
		<polygon class="st1" points="44,59.7 44,75 62.5,46 		"/>
		<polygon class="st1" points="44,32.8 44,56.5 62.5,43.3 		"/>
		<polygon class="st1" points="44,13 43.9,44 25.5,43.3 		"/>
		<polygon class="st1" points="44,59.7 44,75 25.5,46 		"/>
		<polygon class="st1" points="44,32.8 44,56.5 25.5,43.3 		"/>
	</g>
</g>
<g class="st2">
	<path class="st1" d="M30.7,77.1h3.6v0.5l-3.1,4h3.3v0.5h-4v-0.5l3.1-4h-2.9C30.7,77.6,30.7,77.1,30.7,77.1z"/>
	<path class="st1" d="M35.2,77.1h2.2c0.5,0,0.8,0.1,1.1,0.3c0.3,0.2,0.4,0.5,0.4,0.9c0,0.3-0.1,0.5-0.2,0.7
		c-0.2,0.2-0.4,0.3-0.6,0.4c0.3,0.1,0.6,0.2,0.8,0.4s0.3,0.5,0.3,0.8c0,0.5-0.2,0.9-0.5,1.1S38,82,37.5,82h-2.2L35.2,77.1L35.2,77.1
		z M35.8,77.6v1.7h1.5c0.3,0,0.6-0.1,0.8-0.2s0.3-0.4,0.3-0.7c0-0.3-0.1-0.5-0.3-0.6s-0.4-0.2-0.8-0.2
		C37.3,77.6,35.8,77.6,35.8,77.6z M35.8,79.8v1.9h1.6c0.3,0,0.6-0.1,0.8-0.2c0.2-0.2,0.4-0.4,0.4-0.7c0-0.3-0.1-0.6-0.3-0.7
		s-0.5-0.2-0.9-0.2h-1.6V79.8z"/>
	<path class="st1" d="M40.7,81.4c0.1,0.1,0.1,0.2,0.1,0.3s0,0.2-0.1,0.3c-0.1,0.1-0.2,0.1-0.3,0.1s-0.2,0-0.3-0.1S40,81.8,40,81.7
		c0-0.1,0-0.2,0.1-0.3c0.1-0.1,0.2-0.1,0.3-0.1C40.5,81.3,40.6,81.3,40.7,81.4z"/>
	<path class="st1" d="M45.4,77.4c0.4,0.3,0.6,0.7,0.7,1.2h-0.6c-0.1-0.4-0.2-0.6-0.5-0.8c-0.3-0.2-0.6-0.3-1-0.3
		c-0.6,0-1,0.2-1.3,0.6s-0.4,0.9-0.4,1.5s0.1,1.1,0.4,1.5c0.3,0.4,0.8,0.6,1.3,0.6c0.4,0,0.7-0.1,1-0.3c0.3-0.2,0.5-0.6,0.6-1h0.5
		c-0.1,0.6-0.4,1-0.8,1.4c-0.4,0.3-0.8,0.5-1.4,0.5c-0.8,0-1.4-0.3-1.8-0.8c-0.4-0.5-0.6-1.1-0.6-1.8c0-0.7,0.2-1.4,0.6-1.8
		c0.4-0.5,1-0.8,1.8-0.8C44.5,77,45,77.1,45.4,77.4z"/>
	<path class="st1" d="M50.9,77.7c0.4,0.5,0.6,1.1,0.6,1.9c0,0.7-0.2,1.4-0.6,1.8c-0.4,0.5-1,0.7-1.8,0.7c-0.7,0-1.3-0.2-1.8-0.7
		c-0.4-0.5-0.6-1.1-0.6-1.8c0-0.8,0.2-1.4,0.6-1.8c0.4-0.5,1-0.8,1.8-0.8C49.8,77,50.4,77.2,50.9,77.7z M47.7,78.1
		c-0.3,0.4-0.5,0.9-0.5,1.5s0.2,1.1,0.5,1.5s0.8,0.6,1.4,0.6c0.6,0,1-0.2,1.4-0.6c0.3-0.4,0.5-0.9,0.5-1.5s-0.2-1.1-0.5-1.5
		s-0.8-0.6-1.3-0.6C48.5,77.5,48.1,77.7,47.7,78.1z"/>
	<path class="st1" d="M52.3,77.1H53l1.9,4.3l0,0l1.9-4.3h0.7v5h-0.6v-4l0,0l-1.7,4h-0.5l-1.7-4l0,0v4h-0.6v-5H52.3z"/>
</g>
</svg>
