<?xml version="1.0" encoding="utf-8"?>
<!-- Generator: Adobe Illustrator 22.1.0, SVG Export Plug-In . SVG Version: 6.00 Build 0)  -->
<svg version="1.1" id="图层_1" xmlns="http://www.w3.org/2000/svg" xmlns:xlink="http://www.w3.org/1999/xlink" x="0px" y="0px"
	 viewBox="0 0 88 88" style="enable-background:new 0 0 88 88;" xml:space="preserve">
<style type="text/css">
	.st0{fill:#3F3F3F;}
	.st1{fill:#FFFFFF;}
	.st2{opacity:5.000000e-02;enable-background:new    ;}
</style>
<title>ETP</title>
<g id="图层_2_1_">
	<g id="图层_1-2">
		<circle class="st0" cx="44" cy="44" r="44"/>
		<polygon class="st1" points="33.6,39.2 28.7,36.3 33.6,33.5 38.5,36.3 		"/>
		<polygon class="st1" points="38.5,53 33.6,55.9 33.6,39.2 38.5,36.3 		"/>
		<polygon class="st1" points="43.5,39.2 38.5,36.3 43.5,33.5 48.4,36.3 		"/>
		<polygon class="st1" points="48.4,53 43.5,55.9 43.5,39.2 48.4,36.3 		"/>
		<polygon class="st1" points="53.3,39.2 48.4,36.3 53.3,33.5 58.3,36.3 		"/>
		<polygon class="st1" points="58.3,53 53.3,55.9 53.3,39.2 58.3,36.3 		"/>
		<circle class="st1" cx="54.8" cy="19.7" r="2.1"/>
		<circle class="st1" cx="47.6" cy="71" r="2.1"/>
		<circle class="st1" cx="65.6" cy="28.4" r="1.2"/>
		<circle class="st1" cx="34.5" cy="68.9" r="1.2"/>
		<circle class="st1" cx="71.2" cy="41.5" r="3.8"/>
		<circle class="st1" cx="19.8" cy="34.4" r="3.8"/>
		<circle class="st1" cx="17.5" cy="48" r="4.5"/>
		<circle class="st1" cx="23.2" cy="60.7" r="4.5"/>
		<circle class="st1" cx="69.2" cy="55" r="3.6"/>
		<circle class="st1" cx="28" cy="23" r="3.6"/>
		<circle class="st1" cx="60.7" cy="65.7" r="2.7"/>
		<circle class="st1" cx="41.1" cy="17.7" r="2.7"/>
	</g>
</g>
<g class="st2">
	<path class="st1" d="M30.7,76.2h3.6v0.5l-3.1,4h3.3v0.5h-4v-0.5l3.1-4h-2.9C30.7,76.7,30.7,76.2,30.7,76.2z"/>
	<path class="st1" d="M35.2,76.2h2.2c0.5,0,0.8,0.1,1.1,0.3c0.3,0.2,0.4,0.5,0.4,0.9c0,0.3-0.1,0.5-0.2,0.7
		c-0.2,0.2-0.4,0.3-0.6,0.4c0.3,0.1,0.6,0.2,0.8,0.4s0.3,0.5,0.3,0.8c0,0.5-0.2,0.9-0.5,1.1s-0.7,0.3-1.2,0.3h-2.2L35.2,76.2
		L35.2,76.2z M35.8,76.7v1.7h1.5c0.3,0,0.6-0.1,0.8-0.2s0.3-0.4,0.3-0.7c0-0.3-0.1-0.5-0.3-0.6s-0.4-0.2-0.8-0.2
		C37.3,76.7,35.8,76.7,35.8,76.7z M35.8,78.9v1.9h1.6c0.3,0,0.6-0.1,0.8-0.2c0.2-0.2,0.4-0.4,0.4-0.7c0-0.3-0.1-0.6-0.3-0.7
		S37.8,79,37.4,79h-1.6V78.9z"/>
	<path class="st1" d="M40.7,80.5c0.1,0.1,0.1,0.2,0.1,0.3s0,0.2-0.1,0.3c-0.1,0.1-0.2,0.1-0.3,0.1s-0.2,0-0.3-0.1S40,80.9,40,80.8
		c0-0.1,0-0.2,0.1-0.3c0.1-0.1,0.2-0.1,0.3-0.1C40.5,80.4,40.6,80.4,40.7,80.5z"/>
	<path class="st1" d="M45.4,76.5c0.4,0.3,0.6,0.7,0.7,1.2h-0.6c-0.1-0.4-0.2-0.6-0.5-0.8c-0.3-0.2-0.6-0.3-1-0.3
		c-0.6,0-1,0.2-1.3,0.6s-0.4,0.9-0.4,1.5s0.1,1.1,0.4,1.5c0.3,0.4,0.8,0.6,1.3,0.6c0.4,0,0.7-0.1,1-0.3c0.3-0.2,0.5-0.6,0.6-1h0.5
		c-0.1,0.6-0.4,1-0.8,1.4c-0.4,0.3-0.8,0.5-1.4,0.5c-0.8,0-1.4-0.3-1.8-0.8c-0.4-0.5-0.6-1.1-0.6-1.8c0-0.7,0.2-1.4,0.6-1.8
		c0.4-0.5,1-0.8,1.8-0.8C44.5,76.1,45,76.2,45.4,76.5z"/>
	<path class="st1" d="M50.9,76.8c0.4,0.5,0.6,1.1,0.6,1.9c0,0.7-0.2,1.4-0.6,1.8c-0.4,0.5-1,0.7-1.8,0.7c-0.7,0-1.3-0.2-1.8-0.7
		c-0.4-0.5-0.6-1.1-0.6-1.8c0-0.8,0.2-1.4,0.6-1.8c0.4-0.5,1-0.8,1.8-0.8C49.8,76.1,50.4,76.3,50.9,76.8z M47.7,77.2
		c-0.3,0.4-0.5,0.9-0.5,1.5s0.2,1.1,0.5,1.5s0.8,0.6,1.4,0.6c0.6,0,1-0.2,1.4-0.6c0.3-0.4,0.5-0.9,0.5-1.5s-0.2-1.1-0.5-1.5
		s-0.8-0.6-1.3-0.6C48.5,76.6,48.1,76.8,47.7,77.2z"/>
	<path class="st1" d="M52.3,76.2H53l1.9,4.3l0,0l1.9-4.3h0.7v5h-0.6v-4l0,0l-1.7,4h-0.5l-1.7-4l0,0v4h-0.6v-5H52.3z"/>
</g>
</svg>
