<?xml version="1.0" encoding="utf-8"?>
<!-- Generator: Adobe Illustrator 22.1.0, SVG Export Plug-In . SVG Version: 6.00 Build 0)  -->
<svg version="1.1" id="图层_1" xmlns="http://www.w3.org/2000/svg" xmlns:xlink="http://www.w3.org/1999/xlink" x="0px" y="0px"
	 viewBox="0 0 64 64" style="enable-background:new 0 0 64 64;" xml:space="preserve">
<style type="text/css">
	.st0{fill:#231815;}
	.st1{fill-rule:evenodd;clip-rule:evenodd;fill:#FFFFFF;}
	.st2{opacity:3.000000e-02;fill:#FFFFFF;}
	.st3{font-family:'MyriadPro-Regular';}
	.st4{font-size:5.7427px;}
</style>
<circle class="st0" cx="32" cy="32" r="32"/>
<g>
	<path class="st1" d="M43.4,26.5l1-0.6v-1.6L43,23.5l-2.8,1.6l0,0L22.3,35.5l0-9.6l9.7-5.6l2.8,1.6L25,27.5l2.8,1.6l9.7-5.6l0,0
		l2.8-1.6l-8.3-4.8l-12.4,7.2v14.3l12.4,7.2l9.7-5.6l2.8-1.6l0,0L43,37.9l-1.4-0.8l0,0l0,0l-2.8-1.6l2.8-1.6v0l2.8-1.6v-3.2l-2,1.1
		l0,0l-16,9.2l-2.8-1.6l17.9-10.3L43.4,26.5z M36.1,37.1l2.8,1.6l-6.9,4l-2.8-1.6L36.1,37.1z"/>
	<path class="st1" d="M48.5,19.8c-0.5,0-0.9,0.2-1.2,0.4l-15.4-8.9l-15.3,8.8c-0.3-0.2-0.7-0.4-1.2-0.4c-1.1,0-2,0.9-2,2
		c0,0.8,0.4,1.4,1.1,1.8v18l15.4,8.9c0,0,0,0.1,0,0.1c0,1.1,0.9,2,2,2c1.1,0,2-0.9,2-2c0,0,0-0.1,0-0.1l15.4-8.9V23.7
		c0.7-0.3,1.2-1,1.2-1.8C50.6,20.7,49.7,19.8,48.5,19.8z M47.7,40.6L33.2,49c-0.3-0.3-0.8-0.4-1.2-0.4c-0.5,0-0.9,0.2-1.2,0.4
		l-14.6-8.4V23.7c0.7-0.3,1.3-1,1.3-1.9c0-0.1,0-0.1,0-0.2l14.5-8.4l14.6,8.4c0,0,0,0.1,0,0.1c0,0.8,0.5,1.5,1.2,1.8V40.6z"/>
</g>
<text transform="matrix(1 0 0 1 27.0007 61.5415)" class="st2 st3 st4">XT</text>
</svg>
