<?xml version="1.0" encoding="utf-8"?>
<!-- Generator: Adobe Illustrator 22.1.0, SVG Export Plug-In . SVG Version: 6.00 Build 0)  -->
<svg version="1.1" id="图层_1" xmlns="http://www.w3.org/2000/svg" xmlns:xlink="http://www.w3.org/1999/xlink" x="0px" y="0px"
	 viewBox="0 0 64 64" style="enable-background:new 0 0 64 64;" xml:space="preserve">
<style type="text/css">
	.st0{fill:url(#SVGID_1_);}
	.st1{fill:url(#SVGID_2_);}
	.st2{fill:url(#SVGID_3_);}
	.st3{fill:url(#SVGID_4_);}
	.st4{fill:url(#SVGID_5_);}
	.st5{fill:url(#SVGID_6_);}
	.st6{fill:url(#SVGID_7_);}
	.st7{fill:url(#SVGID_8_);}
	.st8{fill:url(#SVGID_9_);}
	.st9{fill:url(#SVGID_10_);}
	.st10{fill:url(#SVGID_11_);}
	.st11{fill:url(#SVGID_12_);}
	.st12{fill:url(#SVGID_13_);}
	.st13{fill:url(#SVGID_14_);}
	.st14{fill:url(#SVGID_15_);}
	.st15{fill:url(#SVGID_16_);}
	.st16{fill:url(#SVGID_17_);}
	.st17{fill:url(#SVGID_18_);}
	.st18{fill:url(#SVGID_19_);}
	.st19{fill:url(#SVGID_20_);}
	.st20{fill:url(#SVGID_21_);}
	.st21{fill:url(#SVGID_22_);}
	.st22{fill:url(#SVGID_23_);}
	.st23{fill:url(#SVGID_24_);}
	.st24{fill:url(#SVGID_25_);}
	.st25{fill:url(#SVGID_26_);}
	.st26{fill:url(#SVGID_27_);}
	.st27{fill:url(#SVGID_28_);}
	.st28{fill:url(#SVGID_29_);}
	.st29{fill:url(#SVGID_30_);}
	.st30{fill:url(#SVGID_31_);}
	.st31{fill:url(#SVGID_32_);}
	.st32{fill:url(#SVGID_33_);}
	.st33{fill:url(#SVGID_34_);}
	.st34{fill:url(#SVGID_35_);}
	.st35{fill:url(#SVGID_36_);}
	.st36{fill:url(#SVGID_37_);}
	.st37{fill:url(#SVGID_38_);}
	.st38{fill:url(#SVGID_39_);}
	.st39{fill:url(#SVGID_40_);}
	.st40{fill:url(#SVGID_41_);}
	.st41{fill:url(#SVGID_42_);}
	.st42{fill:url(#SVGID_43_);}
	.st43{fill:url(#SVGID_44_);}
	.st44{fill:url(#SVGID_45_);}
	.st45{fill:url(#SVGID_46_);}
	.st46{fill:url(#SVGID_47_);}
	.st47{fill:url(#SVGID_48_);}
	.st48{fill:url(#SVGID_49_);}
	.st49{fill:url(#SVGID_50_);}
	.st50{fill:url(#SVGID_51_);}
	.st51{fill:url(#SVGID_52_);}
	.st52{fill:url(#SVGID_53_);}
	.st53{fill:url(#SVGID_54_);}
	.st54{fill:url(#SVGID_55_);}
	.st55{fill:url(#SVGID_56_);}
	.st56{fill:url(#SVGID_57_);}
	.st57{fill:url(#SVGID_58_);}
	.st58{fill:url(#SVGID_59_);}
	.st59{opacity:5.000000e-02;fill:#FFFFFF;enable-background:new    ;}
	.st60{font-family:'MyriadPro-Regular';}
	.st61{font-size:5.7427px;}
</style>
<circle cx="32" cy="32" r="32"/>
<g>
	<linearGradient id="SVGID_1_" gradientUnits="userSpaceOnUse" x1="36.8706" y1="34.9521" x2="50.2977" y2="34.9521">
		<stop  offset="0" style="stop-color:#8BA7D6"/>
		<stop  offset="1" style="stop-color:#CCE9FA"/>
	</linearGradient>
	<path class="st0" d="M36.9,34.8l1.7-3.3c0,0,11.5,0.1,11.7,3.7c0,0,0.5,4.3-4.9,3L36.9,34.8z"/>
	<linearGradient id="SVGID_2_" gradientUnits="userSpaceOnUse" x1="37.6933" y1="21.9797" x2="47.239" y2="21.9797">
		<stop  offset="0" style="stop-color:#8BA7D6"/>
		<stop  offset="1" style="stop-color:#53499A"/>
	</linearGradient>
	<path class="st1" d="M47.2,19.6c0,0-0.3-1.4-2.4-0.2l-6.7,3.7c-0.1,0.6-0.2,1.3-0.4,2C40.2,24.1,47.5,21.2,47.2,19.6z"/>
	<linearGradient id="SVGID_3_" gradientUnits="userSpaceOnUse" x1="38.0443" y1="18.0644" x2="46.4949" y2="18.0644">
		<stop  offset="0" style="stop-color:#8BA7D6"/>
		<stop  offset="1" style="stop-color:#53499A"/>
	</linearGradient>
	<path class="st2" d="M46.5,14.9c0,0-0.5-1.1-2.3,0.3L38,20c0.1,0.5,0.1,1,0.1,1.6C40.6,20.2,46.8,16.5,46.5,14.9z"/>
	<linearGradient id="SVGID_4_" gradientUnits="userSpaceOnUse" x1="37.353" y1="15.4196" x2="44.7247" y2="15.4196">
		<stop  offset="0" style="stop-color:#8BA7D6"/>
		<stop  offset="1" style="stop-color:#53499A"/>
	</linearGradient>
	<path class="st3" d="M44.7,12.2c0,0-0.5-1.2-1.9,0.4l-5.4,5.6c0.2,0.3,0.3,0.5,0.4,0.8C39.6,17.7,45.1,13.4,44.7,12.2z"/>
	<linearGradient id="SVGID_5_" gradientUnits="userSpaceOnUse" x1="36.0454" y1="14.0205" x2="42.2553" y2="14.0205">
		<stop  offset="0" style="stop-color:#8BA7D6"/>
		<stop  offset="1" style="stop-color:#53499A"/>
	</linearGradient>
	<path class="st4" d="M36.7,17.5c1.7-1.5,6.1-5.7,5.5-6.8c0,0-0.6-0.9-2.6,1.8L36,17c0.1,0.1,0.3,0.1,0.4,0.2
		C36.5,17.3,36.6,17.4,36.7,17.5z"/>
	<linearGradient id="SVGID_6_" gradientUnits="userSpaceOnUse" x1="34.3625" y1="13.6459" x2="39.7011" y2="13.6459">
		<stop  offset="0" style="stop-color:#8BA7D6"/>
		<stop  offset="1" style="stop-color:#53499A"/>
	</linearGradient>
	<path class="st5" d="M39.6,10.6c0,0-1.2-0.4-4.2,4.3l-1.1,1.7c0.3,0,0.7,0.1,1,0.2C36.6,15.4,40.4,11.4,39.6,10.6z"/>
	<linearGradient id="SVGID_7_" gradientUnits="userSpaceOnUse" x1="33.0657" y1="13.998" x2="36.8295" y2="13.998">
		<stop  offset="0" style="stop-color:#8BA7D6"/>
		<stop  offset="1" style="stop-color:#53499A"/>
	</linearGradient>
	<path class="st6" d="M36.8,11.8c0.1-0.3-0.2-0.5-0.4-0.4c-0.1,0.1-0.3,0.2-0.4,0.4l-2.9,4.9c0.3,0,0.5-0.1,0.8-0.1
		C34.6,15.6,36.5,12.8,36.8,11.8z"/>
	<linearGradient id="SVGID_8_" gradientUnits="userSpaceOnUse" x1="31.276" y1="14.8592" x2="34.1778" y2="14.8592">
		<stop  offset="0" style="stop-color:#8BA7D6"/>
		<stop  offset="1" style="stop-color:#53499A"/>
	</linearGradient>
	<path class="st7" d="M34.2,12.8c0,0-0.3-0.6-0.8,0.1l-2.1,4.3c0.3-0.1,0.6-0.2,1-0.3C32.9,15.8,34.3,13.7,34.2,12.8z"/>
	<linearGradient id="SVGID_9_" gradientUnits="userSpaceOnUse" x1="29.7318" y1="16.1008" x2="31.5807" y2="16.1008">
		<stop  offset="0" style="stop-color:#8BA7D6"/>
		<stop  offset="1" style="stop-color:#53499A"/>
	</linearGradient>
	<path class="st8" d="M31.4,14.3c0,0-0.5-0.3-0.8,0.5L29.7,18c0.3-0.2,0.5-0.3,0.8-0.4C31.1,16.4,31.9,14.7,31.4,14.3z"/>
	<linearGradient id="SVGID_10_" gradientUnits="userSpaceOnUse" x1="28.0059" y1="17.6224" x2="29.2007" y2="17.6224">
		<stop  offset="0" style="stop-color:#8BA7D6"/>
		<stop  offset="1" style="stop-color:#53499A"/>
	</linearGradient>
	<path class="st9" d="M29,16.3c-0.1-0.1-0.3-0.2-0.4-0.1c-0.2,0.1-0.5,0.4-0.6,1.3v1.6c0.3-0.2,0.6-0.4,0.9-0.6
		C29.1,17.7,29.4,16.7,29,16.3z"/>
	<linearGradient id="SVGID_11_" gradientUnits="userSpaceOnUse" x1="26.071" y1="19.4031" x2="27.2229" y2="19.4031">
		<stop  offset="0" style="stop-color:#8BA7D6"/>
		<stop  offset="1" style="stop-color:#53499A"/>
	</linearGradient>
	<path class="st10" d="M27.1,18.6c-0.1-0.2-0.2-0.3-0.4-0.2c-0.3,0-0.7,0.3-0.6,1.1l0.1,1c0.3-0.3,0.6-0.5,1-0.8
		C27.2,19.3,27.2,18.9,27.1,18.6z"/>
	<linearGradient id="SVGID_12_" gradientUnits="userSpaceOnUse" x1="24.4571" y1="21.2052" x2="25.5416" y2="21.2052">
		<stop  offset="0" style="stop-color:#8BA7D6"/>
		<stop  offset="1" style="stop-color:#53499A"/>
	</linearGradient>
	<path class="st11" d="M25.5,21.1c0-0.5,0-1.1-0.5-0.8c0,0-0.6,0.2-0.5,1l0,0.8C24.8,21.8,25.2,21.5,25.5,21.1z"/>
	<linearGradient id="SVGID_13_" gradientUnits="userSpaceOnUse" x1="22.7455" y1="23.1966" x2="23.7018" y2="23.1966">
		<stop  offset="0" style="stop-color:#8BA7D6"/>
		<stop  offset="1" style="stop-color:#53499A"/>
	</linearGradient>
	<path class="st12" d="M22.9,22.8c0,0-0.3,0.5,0.1,1.1c0.2-0.3,0.5-0.6,0.7-0.9C23.6,22.7,23.3,22.2,22.9,22.8z"/>
	<linearGradient id="SVGID_14_" gradientUnits="userSpaceOnUse" x1="21.2965" y1="25.228" x2="22.1795" y2="25.228">
		<stop  offset="0" style="stop-color:#8BA7D6"/>
		<stop  offset="1" style="stop-color:#53499A"/>
	</linearGradient>
	<path class="st13" d="M22.2,24.9c-0.2-0.2-0.4-0.4-0.7-0.1c0,0-0.4,0.5,0,1c0,0,0-0.1,0.1-0.1C21.8,25.4,22,25.2,22.2,24.9z"/>
	<linearGradient id="SVGID_15_" gradientUnits="userSpaceOnUse" x1="19.9153" y1="27.377" x2="20.7186" y2="27.377">
		<stop  offset="0" style="stop-color:#8BA7D6"/>
		<stop  offset="1" style="stop-color:#53499A"/>
	</linearGradient>
	<path class="st14" d="M20,27.1c0,0-0.3,0.3,0.1,0.8c0.2-0.3,0.4-0.7,0.6-1C20.5,26.8,20.2,26.7,20,27.1z"/>
	<linearGradient id="SVGID_16_" gradientUnits="userSpaceOnUse" x1="18.0579" y1="29.9061" x2="19.3577" y2="29.9061">
		<stop  offset="0" style="stop-color:#8BA7D6"/>
		<stop  offset="1" style="stop-color:#53499A"/>
	</linearGradient>
	<path class="st15" d="M18.1,30.2c0.2,0.3,0.4,0.4,0.6,0.4c0.2-0.4,0.4-0.8,0.6-1.3C17.6,29.3,18.1,30.2,18.1,30.2z"/>
	<linearGradient id="SVGID_17_" gradientUnits="userSpaceOnUse" x1="16.9767" y1="32.1278" x2="18.2894" y2="32.1278">
		<stop  offset="0" style="stop-color:#8BA7D6"/>
		<stop  offset="1" style="stop-color:#53499A"/>
	</linearGradient>
	<path class="st16" d="M17.1,32.6c0.1,0.2,0.4,0.2,0.8,0.1c0.1-0.4,0.3-0.8,0.5-1.2C16.5,31.9,17.1,32.6,17.1,32.6z"/>
	<linearGradient id="SVGID_18_" gradientUnits="userSpaceOnUse" x1="15.731" y1="34.4664" x2="17.4927" y2="34.4664">
		<stop  offset="0" style="stop-color:#8BA7D6"/>
		<stop  offset="1" style="stop-color:#53499A"/>
	</linearGradient>
	<path class="st17" d="M16.2,35.3c0.3,0,0.6-0.1,0.9-0.3c0.1-0.5,0.3-1,0.4-1.5c-1.1,0.4-1.6,0.8-1.7,1.1
		C15.6,35,15.9,35.3,16.2,35.3z"/>
	<linearGradient id="SVGID_19_" gradientUnits="userSpaceOnUse" x1="14.8754" y1="36.781" x2="16.9549" y2="36.781">
		<stop  offset="0" style="stop-color:#8BA7D6"/>
		<stop  offset="1" style="stop-color:#53499A"/>
	</linearGradient>
	<path class="st18" d="M15.3,37.9c0.5-0.1,1-0.4,1.4-0.6c0-0.5,0.1-1.1,0.2-1.7c-1.9,1-2.1,1.7-2.1,2C14.9,37.9,15.1,38,15.3,37.9z"
		/>
	<linearGradient id="SVGID_20_" gradientUnits="userSpaceOnUse" x1="14.0068" y1="39.2722" x2="16.7023" y2="39.2722">
		<stop  offset="0" style="stop-color:#8BA7D6"/>
		<stop  offset="1" style="stop-color:#53499A"/>
	</linearGradient>
	<path class="st19" d="M16.7,37.8c-3.9,2.6-2.4,2.9-2.4,2.9c0.8,0,1.8-1,2.4-1.6C16.7,38.7,16.7,38.3,16.7,37.8z"/>
	<linearGradient id="SVGID_21_" gradientUnits="userSpaceOnUse" x1="14.01" y1="41.421" x2="16.9995" y2="41.421">
		<stop  offset="0" style="stop-color:#8BA7D6"/>
		<stop  offset="1" style="stop-color:#53499A"/>
	</linearGradient>
	<path class="st20" d="M14.1,43.2c0.8,0.4,2.3-1.8,2.9-2.7c-0.1-0.3-0.2-0.6-0.2-1C13.2,42.8,14.1,43.2,14.1,43.2z"/>
	<linearGradient id="SVGID_22_" gradientUnits="userSpaceOnUse" x1="13.7023" y1="43.6248" x2="17.5435" y2="43.6248">
		<stop  offset="0" style="stop-color:#8BA7D6"/>
		<stop  offset="1" style="stop-color:#53499A"/>
	</linearGradient>
	<path class="st21" d="M13.9,46.3c1.3,0,3.2-3.6,3.7-4.6c-0.2-0.2-0.3-0.5-0.4-0.7C12.6,46.6,13.9,46.3,13.9,46.3z"/>
	<linearGradient id="SVGID_23_" gradientUnits="userSpaceOnUse" x1="14.3612" y1="45.473" x2="18.4901" y2="45.473">
		<stop  offset="0" style="stop-color:#8BA7D6"/>
		<stop  offset="1" style="stop-color:#53499A"/>
	</linearGradient>
	<path class="st22" d="M17.8,42c-4.8,7.2-3.2,6.9-3.2,6.9c0.8,0.1,3.4-5.3,3.9-6.3c0,0-0.1,0-0.1-0.1C18.2,42.4,18,42.2,17.8,42z"/>
	<linearGradient id="SVGID_24_" gradientUnits="userSpaceOnUse" x1="15.7673" y1="47.0304" x2="19.7054" y2="47.0304">
		<stop  offset="0" style="stop-color:#8BA7D6"/>
		<stop  offset="1" style="stop-color:#53499A"/>
	</linearGradient>
	<path class="st23" d="M16,51.2c0.9,0.5,3.4-6.9,3.7-8c-0.3-0.1-0.6-0.2-0.8-0.3C14.6,51,16,51.2,16,51.2z"/>
	<linearGradient id="SVGID_25_" gradientUnits="userSpaceOnUse" x1="17.7635" y1="48.0753" x2="21.2175" y2="48.0753">
		<stop  offset="0" style="stop-color:#8BA7D6"/>
		<stop  offset="1" style="stop-color:#53499A"/>
	</linearGradient>
	<path class="st24" d="M20.2,43.2c-3.9,9.7-1.9,9.7-1.9,9.7c1.3,0.5,2.8-8.9,3-9.7C20.9,43.3,20.5,43.3,20.2,43.2z"/>
	<linearGradient id="SVGID_26_" gradientUnits="userSpaceOnUse" x1="20.9068" y1="48.0321" x2="23.531" y2="48.0321">
		<stop  offset="0" style="stop-color:#8BA7D6"/>
		<stop  offset="1" style="stop-color:#53499A"/>
	</linearGradient>
	<path class="st25" d="M21.4,53.4c1.7,0.1,2.1-9.9,2.1-10.8c-0.5,0.2-1,0.4-1.5,0.5C19.9,53.6,21.4,53.4,21.4,53.4z"/>
	<linearGradient id="SVGID_27_" gradientUnits="userSpaceOnUse" x1="24.3106" y1="46.4996" x2="26.9828" y2="46.4996">
		<stop  offset="0" style="stop-color:#8BA7D6"/>
		<stop  offset="1" style="stop-color:#53499A"/>
	</linearGradient>
	<path class="st26" d="M24.7,50c0.6,3,1.6,1.5,1.6,1.5c1.4-1,0.3-8.9,0-10.4c-0.7,0.4-1.3,0.8-1.9,1.1C24.3,43.4,24.1,47.4,24.7,50z
		"/>
	<linearGradient id="SVGID_28_" gradientUnits="userSpaceOnUse" x1="27.5199" y1="43.5207" x2="32.4266" y2="43.5207">
		<stop  offset="0" style="stop-color:#8BA7D6"/>
		<stop  offset="1" style="stop-color:#53499A"/>
	</linearGradient>
	<path class="st27" d="M29.9,48.1c2.1,1.5,2.5-1.8,2.5-1.8c0.1-1.8-2.4-6.5-3-7.7c-0.6,0.6-1.3,1.2-1.9,1.7
		C28.9,45.7,29.9,48.1,29.9,48.1z"/>
	<linearGradient id="SVGID_29_" gradientUnits="userSpaceOnUse" x1="30.6265" y1="38.9192" x2="38.0905" y2="38.9192">
		<stop  offset="0" style="stop-color:#8BA7D6"/>
		<stop  offset="1" style="stop-color:#53499A"/>
	</linearGradient>
	<path class="st28" d="M34.9,42.2c1.9,1.6,3.2-0.7,3.2-0.7c0-2.1-4.1-5.3-5.6-6.3c-0.6,0.8-1.3,1.5-1.9,2.2L34.9,42.2z"/>
	<g>
		<linearGradient id="SVGID_30_" gradientUnits="userSpaceOnUse" x1="30.1339" y1="27.3783" x2="34.9948" y2="27.3783">
			<stop  offset="0" style="stop-color:#8BA7D6"/>
			<stop  offset="1" style="stop-color:#CCE9FA"/>
		</linearGradient>
		<path class="st29" d="M35,27c0,0,0.3-0.9-1.1-0.6l-3.3,0.8c-0.1,0.3-0.3,0.7-0.4,1.1C31.3,28.4,34.8,28.4,35,27z"/>
		<linearGradient id="SVGID_31_" gradientUnits="userSpaceOnUse" x1="30.8074" y1="24.9282" x2="35.5448" y2="24.9282">
			<stop  offset="0" style="stop-color:#8BA7D6"/>
			<stop  offset="1" style="stop-color:#CCE9FA"/>
		</linearGradient>
		<path class="st30" d="M35.5,23.7c0,0-0.2-0.7-1.2-0.1L31,25.5c0,0.3-0.1,0.6-0.2,1C32,26,35.7,24.6,35.5,23.7z"/>
		<linearGradient id="SVGID_32_" gradientUnits="userSpaceOnUse" x1="30.9816" y1="22.9851" x2="35.1754" y2="22.9851">
			<stop  offset="0" style="stop-color:#8BA7D6"/>
			<stop  offset="1" style="stop-color:#CCE9FA"/>
		</linearGradient>
		<path class="st31" d="M35.2,21.4c0,0-0.3-0.5-1.1,0.2L31,24c0,0.2,0.1,0.5,0.1,0.8C32.3,24.1,35.3,22.2,35.2,21.4z"/>
		<linearGradient id="SVGID_33_" gradientUnits="userSpaceOnUse" x1="30.6385" y1="21.6726" x2="34.2969" y2="21.6726">
			<stop  offset="0" style="stop-color:#8BA7D6"/>
			<stop  offset="1" style="stop-color:#CCE9FA"/>
		</linearGradient>
		<path class="st32" d="M34.3,20.1c0,0-0.2-0.6-1,0.2l-2.7,2.8c0.1,0.1,0.2,0.3,0.2,0.4C31.7,22.8,34.5,20.7,34.3,20.1z"/>
		<linearGradient id="SVGID_34_" gradientUnits="userSpaceOnUse" x1="29.9896" y1="20.9782" x2="33.0714" y2="20.9782">
			<stop  offset="0" style="stop-color:#8BA7D6"/>
			<stop  offset="1" style="stop-color:#CCE9FA"/>
		</linearGradient>
		<path class="st33" d="M30.3,22.7c0.8-0.8,3-2.9,2.7-3.4c0,0-0.3-0.4-1.3,0.9L30,22.5c0.1,0,0.1,0.1,0.2,0.1
			C30.2,22.6,30.3,22.6,30.3,22.7z"/>
		<linearGradient id="SVGID_35_" gradientUnits="userSpaceOnUse" x1="29.1544" y1="20.7923" x2="31.8038" y2="20.7923">
			<stop  offset="0" style="stop-color:#8BA7D6"/>
			<stop  offset="1" style="stop-color:#CCE9FA"/>
		</linearGradient>
		<path class="st34" d="M31.7,19.3c0,0-0.6-0.2-2.1,2.1l-0.5,0.8c0.2,0,0.3,0,0.5,0.1C30.3,21.7,32.1,19.7,31.7,19.3z"/>
		<linearGradient id="SVGID_36_" gradientUnits="userSpaceOnUse" x1="28.5108" y1="20.9641" x2="30.3991" y2="20.9641">
			<stop  offset="0" style="stop-color:#8BA7D6"/>
			<stop  offset="1" style="stop-color:#CCE9FA"/>
		</linearGradient>
		<path class="st35" d="M30.4,19.7c0,0-0.2-0.2-0.4,0.2l-1.4,2.4c0.1,0,0.3,0,0.4,0C29.3,21.7,30.4,20,30.4,19.7z"/>
		<linearGradient id="SVGID_37_" gradientUnits="userSpaceOnUse" x1="27.6226" y1="21.3944" x2="29.0627" y2="21.3944">
			<stop  offset="0" style="stop-color:#8BA7D6"/>
			<stop  offset="1" style="stop-color:#CCE9FA"/>
		</linearGradient>
		<path class="st36" d="M29.1,20.4c0,0-0.1-0.3-0.4,0.1l-1,2.1c0.2-0.1,0.3-0.1,0.5-0.2C28.5,21.9,29.1,20.8,29.1,20.4z"/>
		<linearGradient id="SVGID_38_" gradientUnits="userSpaceOnUse" x1="26.8562" y1="22.0106" x2="27.7738" y2="22.0106">
			<stop  offset="0" style="stop-color:#8BA7D6"/>
			<stop  offset="1" style="stop-color:#CCE9FA"/>
		</linearGradient>
		<path class="st37" d="M27.7,21.1c0,0-0.3-0.2-0.4,0.3l-0.5,1.5c0.1-0.1,0.3-0.1,0.4-0.2C27.5,22.2,27.9,21.3,27.7,21.1z"/>
		<linearGradient id="SVGID_39_" gradientUnits="userSpaceOnUse" x1="25.9997" y1="22.759" x2="26.5927" y2="22.759">
			<stop  offset="0" style="stop-color:#8BA7D6"/>
			<stop  offset="1" style="stop-color:#CCE9FA"/>
		</linearGradient>
		<path class="st38" d="M26.4,22c0,0-0.4,0-0.4,0.7v0.8c0.1-0.1,0.3-0.2,0.4-0.3C26.6,22.7,26.7,22.1,26.4,22z"/>
		<linearGradient id="SVGID_40_" gradientUnits="userSpaceOnUse" x1="25.0395" y1="23.6482" x2="25.6112" y2="23.6482">
			<stop  offset="0" style="stop-color:#8BA7D6"/>
			<stop  offset="1" style="stop-color:#CCE9FA"/>
		</linearGradient>
		<path class="st39" d="M25.5,23.1c0,0-0.5-0.1-0.4,0.6l0.1,0.5c0.2-0.1,0.3-0.3,0.5-0.4C25.6,23.6,25.6,23.3,25.5,23.1z"/>
		<linearGradient id="SVGID_41_" gradientUnits="userSpaceOnUse" x1="24.2493" y1="24.5438" x2="24.7767" y2="24.5438">
			<stop  offset="0" style="stop-color:#8BA7D6"/>
			<stop  offset="1" style="stop-color:#CCE9FA"/>
		</linearGradient>
		<path class="st40" d="M24.8,24.5c0-0.2,0-0.5-0.3-0.4c0,0-0.3,0.1-0.2,0.5l0,0.4C24.4,24.8,24.6,24.7,24.8,24.5z"/>
		<linearGradient id="SVGID_42_" gradientUnits="userSpaceOnUse" x1="23.3891" y1="25.5428" x2="23.8637" y2="25.5428">
			<stop  offset="0" style="stop-color:#8BA7D6"/>
			<stop  offset="1" style="stop-color:#CCE9FA"/>
		</linearGradient>
		<path class="st41" d="M23.4,25.3c0,0-0.2,0.2,0.1,0.5c0.1-0.1,0.2-0.3,0.4-0.4C23.8,25.3,23.7,25.1,23.4,25.3z"/>
		<linearGradient id="SVGID_43_" gradientUnits="userSpaceOnUse" x1="22.67" y1="26.5425" x2="23.1082" y2="26.5425">
			<stop  offset="0" style="stop-color:#8BA7D6"/>
			<stop  offset="1" style="stop-color:#CCE9FA"/>
		</linearGradient>
		<path class="st42" d="M23.1,26.4c-0.1-0.1-0.2-0.2-0.4,0c0,0-0.2,0.2,0,0.5c0,0,0,0,0,0C22.9,26.6,23,26.5,23.1,26.4z"/>
		<linearGradient id="SVGID_44_" gradientUnits="userSpaceOnUse" x1="21.9845" y1="27.6068" x2="22.3832" y2="27.6068">
			<stop  offset="0" style="stop-color:#8BA7D6"/>
			<stop  offset="1" style="stop-color:#CCE9FA"/>
		</linearGradient>
		<path class="st43" d="M22,27.5c0,0-0.1,0.2,0,0.4c0.1-0.2,0.2-0.3,0.3-0.5C22.3,27.3,22.1,27.3,22,27.5z"/>
		<linearGradient id="SVGID_45_" gradientUnits="userSpaceOnUse" x1="21.0627" y1="28.8619" x2="21.7078" y2="28.8619">
			<stop  offset="0" style="stop-color:#8BA7D6"/>
			<stop  offset="1" style="stop-color:#CCE9FA"/>
		</linearGradient>
		<path class="st44" d="M21.1,29c0.1,0.1,0.2,0.2,0.3,0.2c0.1-0.2,0.2-0.4,0.3-0.6C20.9,28.6,21.1,29,21.1,29z"/>
		<linearGradient id="SVGID_46_" gradientUnits="userSpaceOnUse" x1="20.4893" y1="29.9645" x2="21.1776" y2="29.9645">
			<stop  offset="0" style="stop-color:#8BA7D6"/>
			<stop  offset="1" style="stop-color:#CCE9FA"/>
		</linearGradient>
		<path class="st45" d="M20.6,30.2c0.1,0.1,0.2,0.1,0.4,0c0.1-0.2,0.2-0.4,0.2-0.6C20.2,29.9,20.6,30.2,20.6,30.2z"/>
		<linearGradient id="SVGID_47_" gradientUnits="userSpaceOnUse" x1="19.9023" y1="31.1253" x2="20.7822" y2="31.1253">
			<stop  offset="0" style="stop-color:#8BA7D6"/>
			<stop  offset="1" style="stop-color:#CCE9FA"/>
		</linearGradient>
		<path class="st46" d="M20,31.6c0.2,0,0.4,0,0.6-0.1c0.1-0.2,0.1-0.5,0.2-0.7C19.5,31.2,20,31.6,20,31.6z"/>
		<linearGradient id="SVGID_48_" gradientUnits="userSpaceOnUse" x1="19.4833" y1="32.2803" x2="20.5153" y2="32.2803">
			<stop  offset="0" style="stop-color:#8BA7D6"/>
			<stop  offset="1" style="stop-color:#CCE9FA"/>
		</linearGradient>
		<path class="st47" d="M19.6,32.9c0.3,0,0.6-0.2,0.8-0.3c0-0.3,0.1-0.5,0.1-0.8C19,32.5,19.6,32.9,19.6,32.9z"/>
		<linearGradient id="SVGID_49_" gradientUnits="userSpaceOnUse" x1="19.0522" y1="33.5101" x2="20.3899" y2="33.5101">
			<stop  offset="0" style="stop-color:#8BA7D6"/>
			<stop  offset="1" style="stop-color:#CCE9FA"/>
		</linearGradient>
		<path class="st48" d="M20.4,32.8c-1.9,1.3-1.2,1.5-1.2,1.5c0.4,0,0.9-0.5,1.2-0.8C20.4,33.2,20.4,33,20.4,32.8z"/>
		<linearGradient id="SVGID_50_" gradientUnits="userSpaceOnUse" x1="18.9839" y1="34.5766" x2="20.5375" y2="34.5766">
			<stop  offset="0" style="stop-color:#8BA7D6"/>
			<stop  offset="1" style="stop-color:#CCE9FA"/>
		</linearGradient>
		<path class="st49" d="M19.1,35.5c0.4,0.2,1.1-0.9,1.4-1.3c-0.1-0.2-0.1-0.3-0.1-0.5C18.4,35.6,19.1,35.5,19.1,35.5z"/>
		<linearGradient id="SVGID_51_" gradientUnits="userSpaceOnUse" x1="18.9011" y1="35.6703" x2="20.8075" y2="35.6703">
			<stop  offset="0" style="stop-color:#8BA7D6"/>
			<stop  offset="1" style="stop-color:#CCE9FA"/>
		</linearGradient>
		<path class="st50" d="M19,37c0.6,0,1.6-1.8,1.8-2.3c-0.1-0.1-0.1-0.2-0.2-0.4C18.3,37.2,19,37,19,37z"/>
		<linearGradient id="SVGID_52_" gradientUnits="userSpaceOnUse" x1="19.2241" y1="36.5888" x2="21.2772" y2="36.5888">
			<stop  offset="0" style="stop-color:#8BA7D6"/>
			<stop  offset="1" style="stop-color:#CCE9FA"/>
		</linearGradient>
		<path class="st51" d="M20.9,34.9c-2.4,3.7-1.6,3.4-1.6,3.4c0.4,0,1.7-2.6,1.9-3.1c0,0,0,0,0,0C21.1,35.1,21,35,20.9,34.9z"/>
		<linearGradient id="SVGID_53_" gradientUnits="userSpaceOnUse" x1="19.9104" y1="37.3604" x2="21.8804" y2="37.3604">
			<stop  offset="0" style="stop-color:#8BA7D6"/>
			<stop  offset="1" style="stop-color:#CCE9FA"/>
		</linearGradient>
		<path class="st52" d="M20,39.4c0.4,0.2,1.7-3.4,1.9-4c-0.1,0-0.3-0.1-0.4-0.1C19.3,39.6,20,39.4,20,39.4z"/>
		<linearGradient id="SVGID_54_" gradientUnits="userSpaceOnUse" x1="20.8581" y1="37.9045" x2="22.6307" y2="37.9045">
			<stop  offset="0" style="stop-color:#8BA7D6"/>
			<stop  offset="1" style="stop-color:#CCE9FA"/>
		</linearGradient>
		<path class="st53" d="M22.1,35.5c-2.1,5.8-1,4.8-1,4.8c0.6,0.3,1.4-4.4,1.5-4.8C22.5,35.5,22.3,35.5,22.1,35.5z"/>
		<linearGradient id="SVGID_55_" gradientUnits="userSpaceOnUse" x1="22.5105" y1="37.8625" x2="23.7789" y2="37.8625">
			<stop  offset="0" style="stop-color:#8BA7D6"/>
			<stop  offset="1" style="stop-color:#CCE9FA"/>
		</linearGradient>
		<path class="st54" d="M22.7,40.5c0.9,0.1,1-4.9,1-5.4c-0.3,0.1-0.5,0.2-0.7,0.2C22.1,41,22.7,40.5,22.7,40.5z"/>
		<linearGradient id="SVGID_56_" gradientUnits="userSpaceOnUse" x1="24.1658" y1="37.097" x2="25.492" y2="37.097">
			<stop  offset="0" style="stop-color:#8BA7D6"/>
			<stop  offset="1" style="stop-color:#CCE9FA"/>
		</linearGradient>
		<path class="st55" d="M24.3,38.8c0.3,1.5,0.8,0.7,0.8,0.7c0.7-0.5,0.1-4.4,0-5.2c-0.3,0.2-0.6,0.4-1,0.6
			C24.2,35.6,24.1,37.6,24.3,38.8z"/>
		<linearGradient id="SVGID_57_" gradientUnits="userSpaceOnUse" x1="25.7586" y1="35.6186" x2="28.1936" y2="35.6186">
			<stop  offset="0" style="stop-color:#8BA7D6"/>
			<stop  offset="1" style="stop-color:#CCE9FA"/>
		</linearGradient>
		<path class="st56" d="M27,37.9c1,0.7,1.2-0.9,1.2-0.9c0.1-0.9-1.2-3.2-1.5-3.8c-0.3,0.3-0.6,0.6-1,0.8C26.4,36.7,27,37.9,27,37.9z
			"/>
		<linearGradient id="SVGID_58_" gradientUnits="userSpaceOnUse" x1="27.3003" y1="33.335" x2="31.0045" y2="33.335">
			<stop  offset="0" style="stop-color:#8BA7D6"/>
			<stop  offset="1" style="stop-color:#CCE9FA"/>
		</linearGradient>
		<path class="st57" d="M29.4,34.9c0.9,0.8,1.6-0.4,1.6-0.4c0-1.1-2-2.6-2.8-3.1c-0.3,0.4-0.6,0.8-0.9,1.1L29.4,34.9z"/>
	</g>
	<linearGradient id="SVGID_59_" gradientUnits="userSpaceOnUse" x1="36.3363" y1="26.9167" x2="46.1308" y2="26.9167">
		<stop  offset="0" style="stop-color:#8BA7D6"/>
		<stop  offset="1" style="stop-color:#53499A"/>
	</linearGradient>
	<path class="st58" d="M46.1,26.2c0,0,0.5-1.7-2.2-1.2l-6.7,1.6c-0.2,0.7-0.5,1.4-0.9,2.1C38.6,28.9,45.7,29,46.1,26.2z"/>
</g>
<text transform="matrix(1 0 0 1 27.0009 60.5415)" class="st59 st60 st61">XT</text>
</svg>
