<?xml version="1.0" encoding="UTF-8"?>
<svg width="151px" height="151px" viewBox="0 0 151 151" version="1.1" xmlns="http://www.w3.org/2000/svg" xmlns:xlink="http://www.w3.org/1999/xlink">
    <!-- Generator: Sketch 50.2 (55047) - http://www.bohemiancoding.com/sketch -->
    <title>Group</title>
    <desc>Created with Sketch.</desc>
    <defs></defs>
    <g id="Page-1" stroke="none" stroke-width="1" fill="none" fill-rule="evenodd">
        <g id="Artboard-1">
            <g id="Group">
                <path d="M74,1.0002 L80,1.0002 C81.962,2.0532 84.076,1.2462 86.104,1.5002 C109.142,1.8232 125.267,14.0852 138.5,31.5772 C150.62,47.5982 151.185,66.0852 150.292,84.9102 C149.977,91.5632 148.99,98.1052 146.627,104.4282 C141.316,118.6352 131.646,129.2782 119.792,138.3082 C103.673,150.5862 85.04,151.1892 66.019,150.3142 C57.98,149.9442 50.233,148.6152 42.824,145.2012 C30.411,139.4812 20.702,130.7822 12.653,119.8342 C4.979,109.3952 1.722,97.6682 1,85.0002 L1,71.0002 C2.017,69.3652 1.269,67.5582 1.5,65.8452 C1.225,42.3932 13.417,25.9262 31.262,12.5872 C41.281,5.0992 52.776,2.0142 65,1.0002 L68,1.0002 C70,1.7912 72,1.7912 74,1.0002" id="Fill-1" fill="#00C3CB"></path>
                <path d="M1,85.0002 C3.048,90.0402 3.718,95.4492 5.461,100.6252 C18.578,139.5762 64.032,160.9552 104.484,144.1342 C139.485,129.5792 158.566,88.4912 146.035,52.4842 C136.035,23.7532 115.801,7.2292 86.075,1.9262 C85.336,1.6752 85.311,1.3672 86,1.0002 C106.667,1.0002 127.334,1.0512 148,0.9342 C150.501,0.9202 151.068,1.5002 151.063,4.0002 C150.978,52.0002 150.978,100.0002 151.063,148.0002 C151.068,150.5002 150.5,151.0682 148,151.0632 C100,150.9782 52,150.9782 4,151.0632 C1.5,151.0682 0.92,150.5012 0.934,148.0002 C1.05,127.0002 1,106.0002 1,85.0002" id="Fill-3" fill="#FEFEFE"></path>
                <path d="M65,1.0002 C59.842,2.6442 54.571,4.0022 49.544,5.9792 C22.187,16.7322 6.132,36.5902 1.856,65.7922 L1.62,66.6852 C1.414,66.4572 1.207,66.2292 1,66.0002 C1,45.3332 1.051,24.6672 0.934,4.0002 C0.92,1.4992 1.499,0.9192 4,0.9342 C24.333,1.0512 44.667,1.0002 65,1.0002" id="Fill-5" fill="#FEFEFE"></path>
                <path d="M1,66.0002 C1.23,65.7052 1.516,65.6362 1.856,65.7922 C2.339,67.6542 2.132,69.4032 1,71.0002 L1,66.0002 Z" id="Fill-11" fill="#44D3D9"></path>
                <path d="M98.166,31.3416 C94.018,34.4506 91.336,38.5186 90.116,43.5636 C89.687,45.3366 89.132,47.0786 88.708,48.8526 C87.606,53.4626 83.874,59.0536 86.266,62.4306 C88.623,65.7586 95.216,64.5946 99.873,65.7776 C101.822,66.2716 104.601,65.4636 103.931,69.1176 C103.328,72.4046 100.929,70.9846 99.2,70.8676 C96.557,70.6896 93.936,70.1866 91.306,69.8106 C84.261,68.8016 82.89,70.1136 82.958,77.2586 C82.978,79.4046 84.184,79.7206 85.722,79.9696 C89.82,80.6356 93.919,81.2996 98.024,81.9226 C99.784,82.1896 101.833,81.8026 101.4,84.8396 C100.927,88.1606 98.883,87.0766 96.98,86.7786 C93.206,86.1896 89.416,85.7006 85.65,85.0656 C82.924,84.6066 81.461,85.2766 80.756,88.3216 C79.446,93.9686 77.902,99.6056 75.885,105.0346 C72.96,112.9026 69.093,120.2066 60.326,123.1746 C58.992,123.5236 58.627,122.9096 58.861,121.7006 C66.215,114.5656 67.76,104.9356 70.05,95.6286 C70.168,95.1476 70.149,94.6346 70.246,94.1466 C72.415,83.1196 72.397,83.2626 60.884,81.7676 C58.447,81.4516 53.715,83.0016 54.249,78.2016 C54.806,73.2086 58.997,76.6816 61.47,76.3646 C63.699,76.0786 66.058,76.9016 68.369,77.1336 C73.127,77.6116 76.514,73.2606 75.055,68.6686 C74.518,66.9786 73.142,67.1196 71.85,66.9376 C67.907,66.3836 63.951,65.9016 60.037,65.1916 C58.214,64.8606 55.746,64.8676 56.289,61.7676 C56.788,58.9136 58.943,59.7886 60.612,59.9606 C64.574,60.3696 68.564,60.7296 72.454,61.5396 C75.489,62.1726 76.575,61.6616 77.479,58.3326 C79.816,49.7256 82.159,40.9476 88.93,34.4116 C90.929,32.4816 92.739,30.1776 95.853,29.9386 C97.28,29.3236 98.309,29.3676 98.166,31.3416" id="Fill-13" fill="#FCFDFD"></path>
                <path d="M98.166,31.3416 C97.395,30.8736 96.624,30.4056 95.853,29.9386 C101.239,26.4256 105.89,28.8236 110.395,31.8396 C111.935,32.8696 113.104,34.3266 112.848,36.3806 C112.71,37.4846 111.924,38.1296 110.817,38.1586 C108.759,38.2146 106.743,37.8746 105.802,35.7706 C104.293,32.3956 102.187,30.2786 98.166,31.3416" id="Fill-15" fill="#EFFAFA"></path>
                <path d="M58.8613,121.7004 C59.3493,122.1914 59.8383,122.6834 60.3253,123.1754 C55.4663,125.5964 47.8203,123.8064 44.8803,119.5774 C43.8183,118.0494 43.3253,116.2664 45.0953,115.2494 C47.6993,113.7534 50.0183,114.8544 51.1983,117.4364 C52.7663,120.8674 54.8463,122.8944 58.8613,121.7004" id="Fill-17" fill="#F2FAFB"></path>
            </g>
        </g>
    </g>
</svg>