<?xml version="1.0" encoding="utf-8"?>
<!-- Generator: Adobe Illustrator 22.0.0, SVG Export Plug-In . SVG Version: 6.00 Build 0)  -->
<svg version="1.1" id="图层_1" xmlns="http://www.w3.org/2000/svg" xmlns:xlink="http://www.w3.org/1999/xlink" x="0px" y="0px"
	 viewBox="0 0 88 88" style="enable-background:new 0 0 88 88;" xml:space="preserve">
<style type="text/css">
	.st0{fill:#EF0667;}
	.st1{opacity:0.2;enable-background:new    ;}
	.st2{fill:#FFFFFF;}
</style>
<title>FUN</title>
<path class="st0" d="M0,44c0,24.3,19.7,44,44,44s44-19.7,44-44S68.3,0,44,0S0,19.7,0,44z"/>
<g class="st1">
	<path class="st2" d="M30.7,72.5h3.6V73l-3.1,4h3.3v0.5h-4V77l3.1-4h-2.9C30.7,73,30.7,72.5,30.7,72.5z"/>
	<path class="st2" d="M35.2,72.5h2.2c0.5,0,0.8,0.1,1.1,0.3c0.3,0.2,0.4,0.5,0.4,0.9c0,0.3-0.1,0.5-0.2,0.7
		c-0.2,0.2-0.4,0.3-0.6,0.4c0.3,0.1,0.6,0.2,0.8,0.4s0.3,0.5,0.3,0.8c0,0.5-0.2,0.9-0.5,1.1s-0.7,0.3-1.2,0.3h-2.2L35.2,72.5
		L35.2,72.5z M35.8,73v1.7h1.5c0.3,0,0.6-0.1,0.8-0.2s0.3-0.4,0.3-0.7c0-0.3-0.1-0.5-0.3-0.6S37.7,73,37.3,73H35.8z M35.8,75.2v1.9
		h1.6c0.3,0,0.6-0.1,0.8-0.2c0.2-0.2,0.4-0.4,0.4-0.7c0-0.3-0.1-0.6-0.3-0.7s-0.5-0.2-0.9-0.2h-1.6V75.2z"/>
	<path class="st2" d="M40.7,76.8c0.1,0.1,0.1,0.2,0.1,0.3s0,0.2-0.1,0.3c-0.1,0.1-0.2,0.1-0.3,0.1s-0.2,0-0.3-0.1S40,77.2,40,77.1
		s0-0.2,0.1-0.3c0.1-0.1,0.2-0.1,0.3-0.1C40.5,76.7,40.6,76.7,40.7,76.8z"/>
	<path class="st2" d="M45.4,72.8c0.4,0.3,0.6,0.7,0.7,1.2h-0.6c-0.1-0.4-0.2-0.6-0.5-0.8c-0.3-0.2-0.6-0.3-1-0.3
		c-0.6,0-1,0.2-1.3,0.6s-0.4,0.9-0.4,1.5s0.1,1.1,0.4,1.5c0.3,0.4,0.8,0.6,1.3,0.6c0.4,0,0.7-0.1,1-0.3c0.3-0.2,0.5-0.6,0.6-1h0.5
		c-0.1,0.6-0.4,1-0.8,1.4c-0.4,0.3-0.8,0.5-1.4,0.5c-0.8,0-1.4-0.3-1.8-0.8c-0.4-0.5-0.6-1.1-0.6-1.8c0-0.7,0.2-1.4,0.6-1.8
		c0.4-0.5,1-0.8,1.8-0.8C44.5,72.4,45,72.5,45.4,72.8z"/>
	<path class="st2" d="M50.9,73.1c0.4,0.5,0.6,1.1,0.6,1.9c0,0.7-0.2,1.4-0.6,1.8c-0.4,0.5-1,0.7-1.8,0.7c-0.7,0-1.3-0.2-1.8-0.7
		c-0.4-0.5-0.6-1.1-0.6-1.8c0-0.8,0.2-1.4,0.6-1.8c0.4-0.5,1-0.8,1.8-0.8C49.8,72.4,50.4,72.6,50.9,73.1z M47.7,73.5
		c-0.3,0.4-0.5,0.9-0.5,1.5s0.2,1.1,0.5,1.5s0.8,0.6,1.4,0.6c0.6,0,1-0.2,1.4-0.6c0.3-0.4,0.5-0.9,0.5-1.5s-0.2-1.1-0.5-1.5
		s-0.8-0.6-1.3-0.6C48.5,72.9,48.1,73.1,47.7,73.5z"/>
	<path class="st2" d="M52.3,72.5H53l1.9,4.3l0,0l1.9-4.3h0.7v5h-0.6v-4l0,0l-1.7,4h-0.5l-1.7-4l0,0v4h-0.6v-5H52.3z"/>
</g>
<g>
	<path class="st2" d="M31,35.5v3.9c0,0-12.6,0-13,0c-0.3,0-1,0-1,0s-1,0-1,1c0,1,0,1,0,1s-0.1,1,1,1s14,0,14,0v2.9H17.1
		c0,0-1-0.2-1,1c0,1.3,0,6.1,0,6.1h-4c0,0,0-11.4,0-12.1s-0.1-4.8,4.8-4.8S31,35.5,31,35.5z"/>
	<path class="st2" d="M34.1,35.5H38v12.1c0,0,0.1,0.9,1.1,0.9s11.1,0,11.1,0v-13H54v17H38.2c0,0-4.2-0.6-4.2-3.9
		S34.1,35.5,34.1,35.5z"/>
	<path class="st2" d="M75.9,52.5H72V40.4c0,0-0.1-0.9-1.1-0.9s-11.1,0-11.1,0v13H56v-17h15.8c0,0,4.2,0.6,4.2,3.9
		S75.9,52.5,75.9,52.5z"/>
</g>
</svg>
