<svg id="图层_1" data-name="图层 1" xmlns="http://www.w3.org/2000/svg" viewBox="0 0 64 64"><defs><style>.cls-1{fill:#c6000b;}.cls-2{fill:#fff;}</style></defs><title>GES</title><circle class="cls-1" cx="32" cy="32" r="32"/><path class="cls-2" d="M48.22,29.83H32l-3.45-3.76,3.45,8H48.23a16.36,16.36,0,0,1-32.46,0A18,18,0,0,1,15.64,32a17.2,17.2,0,0,1,.14-2.17A16.37,16.37,0,0,1,47.06,25.6h4a20.13,20.13,0,0,0-38.16,0A20.42,20.42,0,0,0,12,29.83,19.46,19.46,0,0,0,11.88,32,20.74,20.74,0,0,0,12,34.09a20.12,20.12,0,0,0,40,0A20.74,20.74,0,0,0,52.12,32,19.46,19.46,0,0,0,52,29.83Z"/></svg>