<?xml version="1.0" encoding="utf-8"?>
<!-- Generator: Adobe Illustrator 22.1.0, SVG Export Plug-In . SVG Version: 6.00 Build 0)  -->
<svg version="1.1" id="图层_1" xmlns="http://www.w3.org/2000/svg" xmlns:xlink="http://www.w3.org/1999/xlink" x="0px" y="0px"
	 viewBox="0 0 87.9 87.9" style="enable-background:new 0 0 87.9 87.9;" xml:space="preserve">
<style type="text/css">
	.st0{clip-path:url(#SVGID_2_);}
	.st1{fill:#15305A;}
	.st2{fill:#FFFFFF;}
	.st3{opacity:6.000000e-02;enable-background:new    ;}
</style>
<title>GNT</title>
<g id="图层_2_1_">
	<g id="图层_1-2">
		<g id="GNT">
			<g>
				<defs>
					<rect id="SVGID_1_" x="0" y="-0.1" width="88" height="88.1"/>
				</defs>
				<clipPath id="SVGID_2_">
					<use xlink:href="#SVGID_1_"  style="overflow:visible;"/>
				</clipPath>
				<g class="st0">
					<path class="st1" d="M0,43.9c0,24.3,19.7,44,44,44s44-19.7,44-44s-19.7-44-44-44S0,19.6,0,43.9z"/>
				</g>
			</g>
			<path class="st2" d="M42.8,50.7v-9.1c-3.2-0.3-6.2-1.8-8.3-4.3c-1.5-1.7-2.4-3.7-2.8-5.9c-1-4.9,1.2-9.9,5.4-12.7
				c5.1-3.2,10.1-2.7,14.9,0.8l7.2-7.3l1.5,1.7c-2.4,2.3-4.8,4.8-7.2,7.2c0.4,0.6,0.7,1,1.1,1.6c3.6,5.9,1.7,13.6-4.2,17.2
				c-0.8,0.5-1.7,0.9-2.7,1.2c-0.8,0.2-1.6,0.4-2.4,0.5c-0.2,0-0.2,0.1-0.2,0.3v8.7c0,0.2,0,0.2,0.2,0.3c2.7,0.3,5.2,1.4,7.2,3.3
				c1.8,1.6,3,3.7,3.6,6.1c1.4,5.5-1.2,11.3-6.2,14c-2,1.1-4.3,1.6-6.5,1.5c-6.9-0.4-12.2-6.3-11.8-13.2c0.2-4.3,2.7-8.3,6.5-10.3
				c1.4-0.8,2.9-1.2,4.5-1.4L42.8,50.7L42.8,50.7L42.8,50.7z M33.8,29.1c0,5.6,4.5,10.2,10.1,10.2s10.2-4.5,10.2-10.1
				c0-5.6-4.5-10.2-10.1-10.2c0,0,0,0-0.1,0C38.4,19,33.9,23.5,33.8,29.1L33.8,29.1z M33.8,63.1c0,5.6,4.5,10.2,10.1,10.2
				c5.6,0,10.2-4.5,10.2-10.1S49.7,53.1,44.1,53c0,0,0,0-0.1,0C38.4,53,33.8,57.6,33.8,63.1L33.8,63.1z"/>
		</g>
	</g>
</g>
<g class="st3">
	<path class="st2" d="M33,76.3h3.6v0.5l-3.1,4h3.3v0.5h-4v-0.5l3.1-4H33C33,76.8,33,76.3,33,76.3z"/>
	<path class="st2" d="M37.5,76.3h2.2c0.5,0,0.8,0.1,1.1,0.3c0.3,0.2,0.4,0.5,0.4,0.9c0,0.3-0.1,0.5-0.2,0.7
		c-0.2,0.2-0.4,0.3-0.6,0.4c0.3,0.1,0.6,0.2,0.8,0.4s0.3,0.5,0.3,0.8c0,0.5-0.2,0.9-0.5,1.1s-0.7,0.3-1.2,0.3h-2.2L37.5,76.3
		L37.5,76.3z M38.1,76.8v1.7h1.5c0.3,0,0.6-0.1,0.8-0.2s0.3-0.4,0.3-0.7c0-0.3-0.1-0.5-0.3-0.6s-0.4-0.2-0.8-0.2
		C39.6,76.8,38.1,76.8,38.1,76.8z M38.1,79v1.9h1.6c0.3,0,0.6-0.1,0.8-0.2c0.2-0.2,0.4-0.4,0.4-0.7c0-0.3-0.1-0.6-0.3-0.7
		s-0.5-0.2-0.9-0.2h-1.6V79z"/>
	<path class="st2" d="M43,80.6c0.1,0.1,0.1,0.2,0.1,0.3s0,0.2-0.1,0.3c-0.1,0.1-0.2,0.1-0.3,0.1s-0.2,0-0.3-0.1s-0.1-0.2-0.1-0.3
		c0-0.1,0-0.2,0.1-0.3c0.1-0.1,0.2-0.1,0.3-0.1C42.8,80.5,42.9,80.5,43,80.6z"/>
	<path class="st2" d="M47.7,76.6c0.4,0.3,0.6,0.7,0.7,1.2h-0.6c-0.1-0.4-0.2-0.6-0.5-0.8c-0.3-0.2-0.6-0.3-1-0.3
		c-0.6,0-1,0.2-1.3,0.6s-0.4,0.9-0.4,1.5s0.1,1.1,0.4,1.5c0.3,0.4,0.8,0.6,1.3,0.6c0.4,0,0.7-0.1,1-0.3c0.3-0.2,0.5-0.6,0.6-1h0.5
		c-0.1,0.6-0.4,1-0.8,1.4c-0.4,0.3-0.8,0.5-1.4,0.5c-0.8,0-1.4-0.3-1.8-0.8c-0.4-0.5-0.6-1.1-0.6-1.8c0-0.7,0.2-1.4,0.6-1.8
		c0.4-0.5,1-0.8,1.8-0.8C46.8,76.2,47.3,76.3,47.7,76.6z"/>
	<path class="st2" d="M53.2,76.9c0.4,0.5,0.6,1.1,0.6,1.9c0,0.7-0.2,1.4-0.6,1.8c-0.4,0.5-1,0.7-1.8,0.7c-0.7,0-1.3-0.2-1.8-0.7
		c-0.4-0.5-0.6-1.1-0.6-1.8c0-0.8,0.2-1.4,0.6-1.8c0.4-0.5,1-0.8,1.8-0.8C52.1,76.2,52.7,76.4,53.2,76.9z M50,77.3
		c-0.3,0.4-0.5,0.9-0.5,1.5s0.2,1.1,0.5,1.5s0.8,0.6,1.4,0.6c0.6,0,1-0.2,1.4-0.6c0.3-0.4,0.5-0.9,0.5-1.5s-0.2-1.1-0.5-1.5
		s-0.8-0.6-1.3-0.6C50.8,76.7,50.4,76.9,50,77.3z"/>
	<path class="st2" d="M54.6,76.3h0.7l1.9,4.3l0,0l1.9-4.3h0.7v5h-0.6v-4l0,0l-1.7,4H57l-1.7-4l0,0v4h-0.6v-5H54.6z"/>
</g>
</svg>
