<svg id="图层_1" data-name="图层 1" xmlns="http://www.w3.org/2000/svg" viewBox="0 0 88 88"><defs><style>.cls-1{fill:#7d42ca;}.cls-2,.cls-3{fill:#fff;}.cls-3{opacity:0.1;font-size:5.41px;font-family:ArialMT, Arial;}</style></defs><title>hsr</title><g id="图层_2" data-name="图层 2"><g id="图层_1-2" data-name="图层 1-2"><circle class="cls-1" cx="44" cy="44" r="44"/><path class="cls-2" d="M73,40V38.3a3,3,0,0,1-1.6-.8l-5.7-9H57.4V24.7s-.2-1.6,1.8-1.6V21.5H47.9v1.4a2.41,2.41,0,0,1,2,2.6v2.9H39.7V24.7s-.2-1.6,1.8-1.6V21.5H30.2v1.4a2.41,2.41,0,0,1,2,2.6v2.9H23.3L15,44l8.8,15.4h8.4v2.9A3.33,3.33,0,0,1,29,64.7v1.8H43.2V64.7s-3.5-.4-3.5-2.9V59.4H49.9v3a3,3,0,0,1-3.2,2.3v1.8H61V64.7s-3.5-.4-3.5-2.9V59.4h8.8s4.4-7.4,5.1-8.8a2,2,0,0,1,1.8-1.2V48H62.5v2.4L60.6,53H57.4V34.7h3.2l2,3.3v1.9L73,40ZM29,53.1,23.8,44l4.9-9.3h3.5V53.1Zm10.7,0V47H50v6.1ZM49.9,41H39.7V34.7H49.9Z"/></g></g><text class="cls-3" transform="translate(38.44 84.24)">ZBG</text></svg>