<?xml version="1.0" encoding="utf-8"?>
<!-- Generator: Adobe Illustrator 22.1.0, SVG Export Plug-In . SVG Version: 6.00 Build 0)  -->
<svg version="1.1" id="图层_1" xmlns="http://www.w3.org/2000/svg" xmlns:xlink="http://www.w3.org/1999/xlink" x="0px" y="0px"
	 viewBox="0 0 88 88" style="enable-background:new 0 0 88 88;" xml:space="preserve">
<style type="text/css">
	.st0{fill:#FD9151;}
	.st1{fill:#FFFFFF;}
	.st2{opacity:0.1;enable-background:new    ;}
</style>
<title>HLD</title>
<g id="图层_2_1_">
	<g id="图层_1-2">
		<circle class="st0" cx="44" cy="44" r="44"/>
		<path class="st1" d="M21.2,37.5v31h3.2c6.1,0,11-4.9,11-11l0,0v-6.3C28.1,50.5,22.2,44.8,21.2,37.5z"/>
		<path class="st1" d="M36.5,37c-0.4-0.5-0.8-1.1-1.1-1.7c0,0-0.5-1.1-0.7-1.6c-0.3-1.3-0.5-2.7-0.5-4V19h-1.8
			c-5.9,0-10.8,4.6-11,10.5c0,0.4,0,0.8,0.1,1.2C25.4,34.8,30.8,37,36.5,37z"/>
		<path class="st1" d="M63.6,19.5c-6.1,0-11,4.9-11,11v6.4c7.4,0.7,13.3,6.3,14.2,13.7v-31L63.6,19.5z"/>
		<path class="st1" d="M45.3,37.5c-1.2,0.1-8.8,0-8.9,0c-5.7,0-11.1-2.3-15.1-6.3c1.1,10.9,10.3,19.3,21.3,19.3c1.2-0.1,8.8,0,8.9,0
			c5.7,0,11.1,2.3,15.1,6.3C65.5,45.9,56.3,37.5,45.3,37.5z"/>
		<path class="st1" d="M51.5,51c0.4,0.5,0.8,1.1,1.1,1.7c0,0,0.5,1.1,0.7,1.6c0.3,1.3,0.5,2.7,0.5,4V69h1.8c5.9,0,10.8-4.6,11-10.5
			c0-0.4-0.1-0.8-0.1-1.2C62.6,53.3,57.2,51,51.5,51z"/>
	</g>
</g>
<g class="st2">
	<path class="st1" d="M33,75.7h3v0.4l-2.6,3.3h2.7v0.4h-3.3v-0.4l2.6-3.3H33C33,76.1,33,75.7,33,75.7z"/>
	<path class="st1" d="M36.7,75.7h1.8c0.4,0,0.7,0.1,0.9,0.2c0.2,0.2,0.3,0.4,0.3,0.7c0,0.2-0.1,0.4-0.2,0.6
		c-0.2,0.2-0.3,0.2-0.5,0.3c0.2,0.1,0.5,0.2,0.7,0.3c0.2,0.2,0.2,0.4,0.2,0.7c0,0.4-0.2,0.7-0.4,0.9c-0.2,0.2-0.6,0.2-1,0.2h-1.8
		L36.7,75.7L36.7,75.7z M37.2,76.1v1.4h1.2c0.2,0,0.5-0.1,0.7-0.2c0.2-0.1,0.2-0.3,0.2-0.6s-0.1-0.4-0.2-0.5s-0.3-0.2-0.7-0.2
		C38.4,76.1,37.2,76.1,37.2,76.1z M37.2,77.9v1.6h1.3c0.2,0,0.5-0.1,0.7-0.2c0.2-0.2,0.3-0.3,0.3-0.6c0-0.2-0.1-0.5-0.2-0.6
		c-0.2-0.1-0.4-0.2-0.7-0.2L37.2,77.9L37.2,77.9z"/>
	<path class="st1" d="M41.3,79.3c0.1,0.1,0.1,0.2,0.1,0.2s0,0.2-0.1,0.2c-0.1,0.1-0.2,0.1-0.2,0.1c-0.1,0-0.2,0-0.2-0.1
		c-0.1-0.1-0.1-0.2-0.1-0.2c0-0.1,0-0.2,0.1-0.2c0.1-0.1,0.2-0.1,0.2-0.1C41.1,79.2,41.2,79.2,41.3,79.3z"/>
	<path class="st1" d="M45.2,75.9c0.3,0.2,0.5,0.6,0.6,1h-0.5c-0.1-0.3-0.2-0.5-0.4-0.7C44.6,76.1,44.3,76,44,76
		c-0.5,0-0.8,0.2-1.1,0.5c-0.2,0.3-0.3,0.7-0.3,1.2c0,0.5,0.1,0.9,0.3,1.2s0.7,0.5,1.1,0.5c0.3,0,0.6-0.1,0.8-0.2
		c0.2-0.2,0.4-0.5,0.5-0.8h0.4c-0.1,0.5-0.3,0.8-0.7,1.2c-0.3,0.2-0.7,0.4-1.2,0.4c-0.7,0-1.2-0.2-1.5-0.7c-0.3-0.4-0.5-0.9-0.5-1.5
		c0-0.6,0.2-1.2,0.5-1.5c0.3-0.4,0.8-0.7,1.5-0.7C44.4,75.6,44.8,75.7,45.2,75.9z"/>
	<path class="st1" d="M49.7,76.2c0.3,0.4,0.5,0.9,0.5,1.6c0,0.6-0.2,1.2-0.5,1.5c-0.3,0.4-0.8,0.6-1.5,0.6c-0.6,0-1.1-0.2-1.5-0.6
		c-0.3-0.4-0.5-0.9-0.5-1.5c0-0.7,0.2-1.2,0.5-1.5c0.3-0.4,0.8-0.7,1.5-0.7C48.8,75.6,49.3,75.8,49.7,76.2z M47.1,76.5
		c-0.2,0.3-0.4,0.7-0.4,1.2c0,0.5,0.2,0.9,0.4,1.2c0.2,0.3,0.7,0.5,1.2,0.5c0.5,0,0.8-0.2,1.2-0.5c0.2-0.3,0.4-0.7,0.4-1.2
		c0-0.5-0.2-0.9-0.4-1.2S48.7,76,48.3,76C47.7,76,47.4,76.2,47.1,76.5z"/>
	<path class="st1" d="M50.9,75.7h0.6l1.6,3.6l0,0l1.6-3.6h0.6v4.2h-0.5v-3.3l0,0l-1.4,3.3h-0.4l-1.4-3.3l0,0v3.3H51L50.9,75.7
		L50.9,75.7z"/>
</g>
</svg>
