<?xml version="1.0" encoding="utf-8"?>
<!-- Generator: Adobe Illustrator 22.1.0, SVG Export Plug-In . SVG Version: 6.00 Build 0)  -->
<svg version="1.1" id="图层_1" xmlns="http://www.w3.org/2000/svg" xmlns:xlink="http://www.w3.org/1999/xlink" x="0px" y="0px"
	 viewBox="0 0 64 64" style="enable-background:new 0 0 64 64;" xml:space="preserve">
<style type="text/css">
	.st0{fill-rule:evenodd;clip-rule:evenodd;fill:#0A2F54;}
	.st1{fill-rule:evenodd;clip-rule:evenodd;fill:#FFFFFF;}
	.st2{fill-rule:evenodd;clip-rule:evenodd;fill:#FF7F00;}
</style>
<circle class="st0" cx="32" cy="32" r="32"/>
<g>
	<path class="st1" d="M22.6,18.5c-1.3,0-2.4,0.4-3.3,1.2c-1,0.8-1.5,1.8-1.8,3v0l-3.2,23.8c0,0.7,0.1,1.4,0.4,2.1
		c0.3,0.6,0.6,1.2,1.1,1.7c0.5,0.5,1,0.9,1.7,1.1c0.6,0.3,1.3,0.4,2.1,0.4h4.6l4.5-33.3H22.6z"/>
	<path class="st2" d="M14.4,28l-1.4,10.4h11.2v-0.1c0.7,0,1.3-0.1,1.9-0.3c0.6-0.2,1.1-0.6,1.6-1c0.5-0.4,0.9-0.9,1.2-1.4
		c0.3-0.5,0.5-1.1,0.6-1.8l0.8-5.8H14.4z"/>
	<path class="st1" d="M42.1,17.5h-6c-1.3,0-2.5,0.4-3.5,1.3c-1,0.8-1.6,1.9-1.8,3.2l-3.9,28.9h6c1.4,0,2.6-0.4,3.6-1.3
		c1-0.9,1.6-2,1.7-3.3L42.1,17.5z M47.6,17.5h-4.5l-3,22h6v-0.1c1.3,0,2.5-0.4,3.5-1.3c1-0.9,1.6-2,1.7-3.3h0.1l0.8-5.9
		c0.1-0.7,0.2-1.5,0.3-2.2c0.1-0.7,0.2-1.3,0.3-1.9c0.1-0.6,0.1-1,0.2-1.4c0-0.4,0.1-0.6,0.1-0.6c0-0.7-0.1-1.4-0.4-2.1
		c-0.3-0.7-0.7-1.2-1.1-1.7c-0.5-0.5-1-0.8-1.7-1.1C49.1,17.7,48.4,17.5,47.6,17.5z"/>
</g>
</svg>
