<?xml version="1.0" encoding="utf-8"?>
<!-- Generator: Adobe Illustrator 22.1.0, SVG Export Plug-In . SVG Version: 6.00 Build 0)  -->
<svg version="1.1" id="图层_1" xmlns="http://www.w3.org/2000/svg" xmlns:xlink="http://www.w3.org/1999/xlink" x="0px" y="0px"
	 viewBox="0 0 88 88" style="enable-background:new 0 0 88 88;" xml:space="preserve">
<style type="text/css">
	.st0{fill:#1B7EC7;}
	.st1{fill:#FFFFFF;}
	.st2{opacity:6.000000e-02;enable-background:new    ;}
</style>
<title>HPY</title>
<g id="图层_2_1_">
	<g id="图层_1-2">
		<circle class="st0" cx="44" cy="44" r="44"/>
		<path class="st1" d="M56.2,25h-29c-2.1,0-4,1.4-4.5,3.5L21.5,33H34c1,0,1.9,0.9,1.9,1.9c0,0.1,0,0.3-0.1,0.4l-2.1,7.9h11.6
			l1.3-4.8c0.7-2.8,3-4.9,5.8-5.4c3.8-0.6,7.4,2,8,5.8c0.1,0.6,0.1,1.2,0,1.8c-0.4,3.7-3.6,6.4-7.3,6.4H17.7l-2.1,8h12.6
			c1,0,1.9,0.8,1.9,1.9c0,0.2,0,0.3-0.1,0.5l-2.7,10.2h8c2.1,0,4-1.4,4.5-3.5l2.1-7.7c0.2-0.8,1-1.4,1.8-1.4h13c8.3,0,15-6.7,15-15
			c0-0.6,0-1.1-0.1-1.7C70.5,30.6,63.9,24.9,56.2,25z"/>
	</g>
</g>
<g class="st2">
	<path class="st1" d="M30.7,75.4h3.6v0.5l-3.1,4h3.3v0.5h-4v-0.5l3.1-4h-2.9C30.7,75.9,30.7,75.4,30.7,75.4z"/>
	<path class="st1" d="M35.2,75.4h2.2c0.5,0,0.8,0.1,1.1,0.3c0.3,0.2,0.4,0.5,0.4,0.9c0,0.3-0.1,0.5-0.2,0.7
		c-0.2,0.2-0.4,0.3-0.6,0.4c0.3,0.1,0.6,0.2,0.8,0.4s0.3,0.5,0.3,0.8c0,0.5-0.2,0.9-0.5,1.1s-0.7,0.3-1.2,0.3h-2.2L35.2,75.4
		L35.2,75.4z M35.8,75.9v1.7h1.5c0.3,0,0.6-0.1,0.8-0.2s0.3-0.4,0.3-0.7c0-0.3-0.1-0.5-0.3-0.6s-0.4-0.2-0.8-0.2
		C37.3,75.9,35.8,75.9,35.8,75.9z M35.8,78.1V80h1.6c0.3,0,0.6-0.1,0.8-0.2c0.2-0.2,0.4-0.4,0.4-0.7c0-0.3-0.1-0.6-0.3-0.7
		s-0.5-0.2-0.9-0.2h-1.6V78.1z"/>
	<path class="st1" d="M40.7,79.7c0.1,0.1,0.1,0.2,0.1,0.3s0,0.2-0.1,0.3c-0.1,0.1-0.2,0.1-0.3,0.1s-0.2,0-0.3-0.1S40,80.1,40,80
		c0-0.1,0-0.2,0.1-0.3c0.1-0.1,0.2-0.1,0.3-0.1C40.5,79.6,40.6,79.6,40.7,79.7z"/>
	<path class="st1" d="M45.4,75.7c0.4,0.3,0.6,0.7,0.7,1.2h-0.6c-0.1-0.4-0.2-0.6-0.5-0.8c-0.3-0.2-0.6-0.3-1-0.3
		c-0.6,0-1,0.2-1.3,0.6s-0.4,0.9-0.4,1.5s0.1,1.1,0.4,1.5C43,79.8,43.5,80,44,80c0.4,0,0.7-0.1,1-0.3c0.3-0.2,0.5-0.6,0.6-1h0.5
		c-0.1,0.6-0.4,1-0.8,1.4c-0.4,0.3-0.8,0.5-1.4,0.5c-0.8,0-1.4-0.3-1.8-0.8c-0.4-0.5-0.6-1.1-0.6-1.8c0-0.7,0.2-1.4,0.6-1.8
		c0.4-0.5,1-0.8,1.8-0.8C44.5,75.3,45,75.4,45.4,75.7z"/>
	<path class="st1" d="M50.9,76c0.4,0.5,0.6,1.1,0.6,1.9c0,0.7-0.2,1.4-0.6,1.8c-0.4,0.5-1,0.7-1.8,0.7c-0.7,0-1.3-0.2-1.8-0.7
		c-0.4-0.5-0.6-1.1-0.6-1.8c0-0.8,0.2-1.4,0.6-1.8c0.4-0.5,1-0.8,1.8-0.8C49.8,75.3,50.4,75.5,50.9,76z M47.7,76.4
		c-0.3,0.4-0.5,0.9-0.5,1.5s0.2,1.1,0.5,1.5s0.8,0.6,1.4,0.6c0.6,0,1-0.2,1.4-0.6c0.3-0.4,0.5-0.9,0.5-1.5s-0.2-1.1-0.5-1.5
		s-0.8-0.6-1.3-0.6C48.5,75.8,48.1,76,47.7,76.4z"/>
	<path class="st1" d="M52.3,75.4H53l1.9,4.3l0,0l1.9-4.3h0.7v5h-0.6v-4l0,0l-1.7,4h-0.5l-1.7-4l0,0v4h-0.6v-5H52.3z"/>
</g>
</svg>
