<?xml version="1.0" encoding="utf-8"?>
<!-- Generator: Adobe Illustrator 22.0.0, SVG Export Plug-In . SVG Version: 6.00 Build 0)  -->
<svg version="1.1" id="图层_1" xmlns="http://www.w3.org/2000/svg" xmlns:xlink="http://www.w3.org/1999/xlink" x="0px" y="0px"
	 viewBox="0 0 88 88" style="enable-background:new 0 0 88 88;" xml:space="preserve">
<style type="text/css">
	.st0{fill:#37B1C1;}
	.st1{fill:#FFFFFF;}
	.st2{opacity:3.000000e-02;enable-background:new    ;}
</style>
<title>ICX</title>
<g id="图层_2_1_">
	<g id="图层_1-2">
		<path class="st0" d="M54.6,1.3C31-4.5,7.1,9.8,1.3,33.4s8.5,47.5,32,53.3c23.6,5.9,47.5-8.5,53.3-32c0,0,0-0.1,0-0.1
			C92.5,31,78.1,7.2,54.6,1.3z"/>
		<path class="st1" d="M43.7,24.3c4,0,7.9,1.3,11.1,3.6l-5.4,5.4c-1.7-1-3.7-1.6-5.7-1.5c-6.5,0.1-11.8,5.3-11.9,11.9
			c0,2,0.5,4,1.6,5.7L28,54.9c-2.2-3.3-3.4-7.2-3.4-11.1C24.5,33.2,33,24.5,43.5,24.4C43.6,24.4,43.7,24.4,43.7,24.3z"/>
		<path class="st1" d="M25.1,67.3c-2.4-0.1-4.3-2.2-4.2-4.6c0.1-2.3,1.9-4.1,4.2-4.2c2.3-0.1,4.3,1.7,4.4,4c0,0.1,0,0.3,0,0.4
			C29.5,65.3,27.5,67.2,25.1,67.3z"/>
		<path class="st1" d="M43.7,62.9c-4.3,0-8.5-1.5-11.9-4.1l5.1-5.2c2,1.4,4.3,2.1,6.7,2.1c6.5,0,11.9-5.3,11.9-11.9
			c0-2.4-0.8-4.7-2.1-6.7l5.2-5.2c2.7,3.4,4.1,7.6,4.1,11.9c0.2,10.4-8,18.9-18.4,19.1C44.3,62.9,44,62.9,43.7,62.9z"/>
		<path class="st1" d="M62.9,29.5c-2.4,0-4.4-1.9-4.4-4.3c0,0,0,0,0-0.1c0.1-2.4,2.2-4.3,4.6-4.2c2.3,0.1,4.1,1.9,4.2,4.2
			C67.3,27.5,65.4,29.5,62.9,29.5C62.9,29.5,62.9,29.5,62.9,29.5z"/>
	</g>
</g>
<g class="st2">
	<path class="st1" d="M34.1,78.2v-0.6l2.6-3.2c0.2-0.2,0.4-0.4,0.5-0.6h-2.8v-0.6H38v0.5l-2.8,3.5l-0.3,0.4h3.2v0.6H34.1z"/>
	<path class="st1" d="M38.7,78.2v-5h1.9c0.4,0,0.7,0.1,0.9,0.2s0.4,0.3,0.5,0.5s0.2,0.4,0.2,0.7c0,0.2-0.1,0.4-0.2,0.6
		s-0.3,0.3-0.5,0.5c0.3,0.1,0.5,0.2,0.7,0.5c0.2,0.2,0.2,0.5,0.2,0.8c0,0.2,0,0.5-0.1,0.7s-0.2,0.4-0.4,0.5s-0.3,0.2-0.5,0.2
		c-0.2,0.1-0.5,0.1-0.8,0.1h-1.9V78.2z M39.4,75.3h1.1c0.3,0,0.5,0,0.6-0.1c0.2-0.1,0.3-0.1,0.4-0.2c0.1-0.1,0.1-0.3,0.1-0.4
		c0-0.2,0-0.3-0.1-0.4s-0.2-0.2-0.3-0.3s-0.4-0.2-0.8-0.2h-1V75.3z M39.4,77.6h1.2c0.2,0,0.4,0,0.5,0c0.2,0,0.3-0.1,0.4-0.1
		s0.2-0.2,0.3-0.3s0.1-0.3,0.1-0.4c0-0.2,0-0.3-0.1-0.5s-0.2-0.2-0.4-0.3c-0.2-0.1-0.4-0.1-0.7-0.1h-1.2L39.4,77.6L39.4,77.6z"/>
	<path class="st1" d="M43.5,78.2v-0.7h0.7v0.7H43.5z"/>
	<path class="st1" d="M49,76.4l0.7,0.2c-0.1,0.5-0.4,1-0.8,1.2s-0.8,0.4-1.3,0.4s-1-0.1-1.3-0.3c-0.3-0.2-0.6-0.5-0.8-1
		c-0.2-0.4-0.3-0.9-0.3-1.3c0-0.5,0.1-1,0.3-1.4s0.5-0.7,0.9-0.9c0.4-0.2,0.8-0.3,1.2-0.3c0.5,0,0.9,0.1,1.3,0.4
		c0.3,0.3,0.6,0.6,0.7,1.1l-0.7,0.2c-0.1-0.4-0.3-0.6-0.5-0.8s-0.5-0.2-0.8-0.2c-0.4,0-0.7,0.1-1,0.3c-0.3,0.2-0.4,0.4-0.5,0.7
		c-0.1,0.3-0.2,0.6-0.2,1s0.1,0.8,0.2,1.1c0.1,0.3,0.3,0.6,0.6,0.7s0.5,0.2,0.9,0.2s0.7-0.1,0.9-0.3C48.7,77.2,48.9,76.8,49,76.4z"
		/>
	<path class="st1" d="M50.2,75.7c0-0.8,0.2-1.5,0.7-2s1-0.7,1.7-0.7c0.5,0,0.9,0.1,1.3,0.3c0.4,0.2,0.7,0.5,0.8,0.9S55,75,55,75.5
		s-0.1,1-0.3,1.4s-0.5,0.7-0.9,0.9c-0.4,0.2-0.8,0.3-1.2,0.3c-0.5,0-0.9-0.1-1.3-0.3c-0.4-0.2-0.7-0.5-0.8-0.9S50.2,76.2,50.2,75.7z
		 M50.9,75.7c0,0.6,0.2,1.1,0.5,1.4s0.7,0.5,1.2,0.5s0.9-0.2,1.2-0.5c0.3-0.4,0.5-0.8,0.5-1.5c0-0.4-0.1-0.8-0.2-1.1
		c-0.1-0.3-0.3-0.5-0.6-0.7s-0.6-0.3-0.9-0.3c-0.5,0-0.9,0.2-1.2,0.5S50.9,75,50.9,75.7z"/>
	<path class="st1" d="M55.9,78.2v-5h1l1.2,3.5c0.1,0.3,0.2,0.6,0.2,0.7c0.1-0.2,0.1-0.5,0.3-0.8l1.2-3.5h0.9v5h-0.6v-4.2l-1.5,4.2
		H58l-1.4-4.3v4.3h-0.7V78.2z"/>
</g>
</svg>
