<?xml version="1.0" encoding="utf-8"?>
<!-- Generator: Adobe Illustrator 22.0.0, SVG Export Plug-In . SVG Version: 6.00 Build 0)  -->
<svg version="1.1" id="图层_1" xmlns="http://www.w3.org/2000/svg" xmlns:xlink="http://www.w3.org/1999/xlink" x="0px" y="0px"
	 viewBox="0 0 88 88" style="enable-background:new 0 0 88 88;" xml:space="preserve">
<style type="text/css">
	.st0{fill:#F20000;}
	.st1{fill:#FFFFFF;}
	.st2{opacity:0.2;enable-background:new    ;}
</style>
<title>INK</title>
<g id="图层_2_1_">
	<g id="图层_1-2">
		<circle class="st0" cx="44" cy="44" r="44"/>
		<path class="st1" d="M69.8,42.1H75C73.9,24.9,59.2,11.9,42.1,13C26.4,14,14,26.4,13,42.1h5.2v3.9H13C14.1,63.1,28.8,76.1,45.9,75
			C61.6,74,74,61.6,75,45.9h-5.2V42.1z M60.2,62.3c0,0.8-0.5,1.6-1.3,1.8c-0.2,0-0.4,0.1-0.6,0.1c-0.6,0-1.2-0.3-1.6-0.8L34.5,32.8
			v27.6h5.1v3.9H26.1v-3.9h4.6V27.7h-4.6v-3.9h13.5v3.9h-4.1l9.9,13.6l11.2-16.6c0.5-0.7,1.4-1,2.2-0.8c0.8,0.3,1.3,1,1.4,1.9V62.3z
			"/>
		<path class="st1" d="M56.3,56.3V32.1l-8.5,12.6L56.3,56.3z"/>
	</g>
</g>
<g class="st2">
	<path class="st1" d="M30.7,82.4v-0.6l2.6-3.2c0.2-0.2,0.4-0.4,0.5-0.6H31v-0.6h3.6v0.5l-2.8,3.5l-0.3,0.4h3.2v0.6H30.7z"/>
	<path class="st1" d="M35.3,82.4v-5h1.9c0.4,0,0.7,0.1,0.9,0.2s0.4,0.3,0.5,0.5s0.2,0.4,0.2,0.7c0,0.2-0.1,0.4-0.2,0.6
		s-0.3,0.3-0.5,0.5c0.3,0.1,0.5,0.2,0.7,0.5c0.2,0.2,0.2,0.5,0.2,0.8c0,0.2,0,0.5-0.1,0.7s-0.2,0.4-0.4,0.5s-0.3,0.2-0.5,0.2
		c-0.2,0.1-0.5,0.1-0.8,0.1h-1.9V82.4z M36,79.5h1.1c0.3,0,0.5,0,0.6-0.1c0.2-0.1,0.3-0.1,0.4-0.2c0.1-0.1,0.1-0.3,0.1-0.4
		c0-0.2,0-0.3-0.1-0.4s-0.2-0.2-0.3-0.3s-0.4-0.2-0.8-0.2h-1V79.5z M36,81.8h1.2c0.2,0,0.4,0,0.5,0c0.2,0,0.3-0.1,0.4-0.1
		s0.2-0.2,0.3-0.3s0.1-0.3,0.1-0.4c0-0.2,0-0.3-0.1-0.5s-0.2-0.2-0.4-0.3c-0.2-0.1-0.4-0.1-0.7-0.1h-1.2L36,81.8L36,81.8z"/>
	<path class="st1" d="M40.1,82.4v-0.7h0.7v0.7H40.1z"/>
	<path class="st1" d="M45.6,80.6l0.7,0.2c-0.1,0.5-0.4,1-0.8,1.2s-0.8,0.4-1.3,0.4s-1-0.1-1.3-0.3c-0.3-0.2-0.6-0.5-0.8-1
		c-0.2-0.4-0.3-0.9-0.3-1.3c0-0.5,0.1-1,0.3-1.4s0.5-0.7,0.9-0.9c0.4-0.2,0.8-0.3,1.2-0.3c0.5,0,0.9,0.1,1.3,0.4
		c0.3,0.3,0.6,0.6,0.7,1.1l-0.7,0.2c-0.1-0.4-0.3-0.6-0.5-0.8s-0.5-0.2-0.8-0.2c-0.4,0-0.7,0.1-1,0.3c-0.3,0.2-0.4,0.4-0.5,0.7
		c-0.1,0.3-0.2,0.6-0.2,1s0.1,0.8,0.2,1.1c0.1,0.3,0.3,0.6,0.6,0.7s0.5,0.2,0.9,0.2s0.7-0.1,0.9-0.3C45.3,81.4,45.5,81,45.6,80.6z"
		/>
	<path class="st1" d="M46.8,79.9c0-0.8,0.2-1.5,0.7-2s1-0.7,1.7-0.7c0.5,0,0.9,0.1,1.3,0.3c0.4,0.2,0.7,0.5,0.8,0.9s0.3,0.8,0.3,1.3
		s-0.1,1-0.3,1.4s-0.5,0.7-0.9,0.9c-0.4,0.2-0.8,0.3-1.2,0.3c-0.5,0-0.9-0.1-1.3-0.3c-0.4-0.2-0.7-0.5-0.8-0.9S46.8,80.4,46.8,79.9z
		 M47.5,79.9c0,0.6,0.2,1.1,0.5,1.4s0.7,0.5,1.2,0.5s0.9-0.2,1.2-0.5c0.3-0.4,0.5-0.8,0.5-1.5c0-0.4-0.1-0.8-0.2-1.1
		c-0.1-0.3-0.3-0.5-0.6-0.7s-0.6-0.3-0.9-0.3c-0.5,0-0.9,0.2-1.2,0.5S47.5,79.2,47.5,79.9z"/>
	<path class="st1" d="M52.5,82.4v-5h1l1.2,3.5c0.1,0.3,0.2,0.6,0.2,0.7c0.1-0.2,0.1-0.5,0.3-0.8l1.2-3.5h0.9v5h-0.6v-4.2l-1.5,4.2
		h-0.6L53.3,78v4.3h-0.7V82.4z"/>
</g>
</svg>
