<?xml version="1.0" encoding="utf-8"?>
<!-- Generator: Adobe Illustrator 22.0.0, SVG Export Plug-In . SVG Version: 6.00 Build 0)  -->
<svg version="1.1" id="图层_1" xmlns="http://www.w3.org/2000/svg" xmlns:xlink="http://www.w3.org/1999/xlink" x="0px" y="0px"
	 viewBox="0 0 232 232" style="enable-background:new 0 0 232 232;" xml:space="preserve">
<style type="text/css">
	.st0{fill:#31ABDC;}
	.st1{fill:#FFFFFF;enable-background:new    ;}
	.st2{opacity:0.1;enable-background:new    ;}
	.st3{fill:#FFFFFF;}
</style>
<title>Group</title>
<desc>Created with Sketch.</desc>
<circle id="Oval" class="st0" cx="116" cy="116" r="115.8"/>
<g>
	<path class="st1" d="M109.4,39.1c0,0-72,10.2-72.2,70s41,74,41,74s-33.8-45.8,18.5-76.2C96.7,106.8,71.9,68.3,109.4,39.1z"/>
	<path class="st1" d="M153.8,47.9c12.3,15.2,5.5,41.2-3.3,44.8c-8.8,3.7-12.2-6.8-12.2-6.8c14.2-20,4-32.5,3.2-33.3
		c-0.8-0.8-16.8-11.8-26,16s12.8,45.2,12.8,45.2c-15.2,4.2-33.8,24.2-30.8,43.9c3,19.7,11.2,20.8,24.5,21
		c13.3,0.2,24.7-12.2,24.7-12.2l2.8,0.7c-1.8,17.2-34,25.5-34,25.5c13.7,1.8,71.7-9.5,78.7-66S153.8,47.9,153.8,47.9z"/>
</g>
<g class="st2">
	<path class="st3" d="M102.7,214.8v-0.6l2.6-3.2c0.2-0.2,0.4-0.4,0.5-0.6H103v-0.6h3.6v0.5l-2.8,3.5l-0.3,0.4h3.2v0.6H102.7z"/>
	<path class="st3" d="M107.3,214.8v-5h1.9c0.4,0,0.7,0.1,0.9,0.2c0.2,0.1,0.4,0.3,0.5,0.5s0.2,0.4,0.2,0.7c0,0.2-0.1,0.4-0.2,0.6
		c-0.1,0.2-0.3,0.3-0.5,0.5c0.3,0.1,0.5,0.2,0.7,0.5c0.2,0.2,0.2,0.5,0.2,0.8c0,0.2,0,0.5-0.1,0.7s-0.2,0.4-0.4,0.5
		c-0.2,0.1-0.3,0.2-0.5,0.2c-0.2,0.1-0.5,0.1-0.8,0.1h-1.9V214.8z M108,211.9h1.1c0.3,0,0.5,0,0.6-0.1c0.2-0.1,0.3-0.1,0.4-0.2
		c0.1-0.1,0.1-0.3,0.1-0.4c0-0.2,0-0.3-0.1-0.4c-0.1-0.1-0.2-0.2-0.3-0.3s-0.4-0.2-0.8-0.2h-1V211.9z M108,214.2h1.2
		c0.2,0,0.4,0,0.5,0c0.2,0,0.3-0.1,0.4-0.1c0.1,0,0.2-0.2,0.3-0.3s0.1-0.3,0.1-0.4c0-0.2,0-0.3-0.1-0.5s-0.2-0.2-0.4-0.3
		c-0.2-0.1-0.4-0.1-0.7-0.1h-1.2L108,214.2L108,214.2z"/>
	<path class="st3" d="M112.1,214.8v-0.7h0.7v0.7H112.1z"/>
	<path class="st3" d="M117.6,213l0.7,0.2c-0.1,0.5-0.4,1-0.8,1.2c-0.4,0.2-0.8,0.4-1.3,0.4s-1-0.1-1.3-0.3c-0.3-0.2-0.6-0.5-0.8-1
		c-0.2-0.4-0.3-0.9-0.3-1.3c0-0.5,0.1-1,0.3-1.4c0.2-0.4,0.5-0.7,0.9-0.9c0.4-0.2,0.8-0.3,1.2-0.3c0.5,0,0.9,0.1,1.3,0.4
		c0.3,0.3,0.6,0.6,0.7,1.1l-0.7,0.2c-0.1-0.4-0.3-0.6-0.5-0.8c-0.2-0.2-0.5-0.2-0.8-0.2c-0.4,0-0.7,0.1-1,0.3
		c-0.3,0.2-0.4,0.4-0.5,0.7s-0.2,0.6-0.2,1c0,0.4,0.1,0.8,0.2,1.1c0.1,0.3,0.3,0.6,0.6,0.7c0.3,0.1,0.5,0.2,0.9,0.2s0.7-0.1,0.9-0.3
		C117.3,213.8,117.5,213.4,117.6,213z"/>
	<path class="st3" d="M118.8,212.3c0-0.8,0.2-1.5,0.7-2s1-0.7,1.7-0.7c0.5,0,0.9,0.1,1.3,0.3c0.4,0.2,0.7,0.5,0.8,0.9
		c0.1,0.4,0.3,0.8,0.3,1.3s-0.1,1-0.3,1.4c-0.2,0.4-0.5,0.7-0.9,0.9s-0.8,0.3-1.2,0.3c-0.5,0-0.9-0.1-1.3-0.3
		c-0.4-0.2-0.7-0.5-0.8-0.9C119,213.1,118.8,212.8,118.8,212.3z M119.5,212.3c0,0.6,0.2,1.1,0.5,1.4c0.3,0.3,0.7,0.5,1.2,0.5
		s0.9-0.2,1.2-0.5c0.3-0.4,0.5-0.8,0.5-1.5c0-0.4-0.1-0.8-0.2-1.1c-0.1-0.3-0.3-0.5-0.6-0.7c-0.3-0.2-0.6-0.3-0.9-0.3
		c-0.5,0-0.9,0.2-1.2,0.5C119.7,210.9,119.5,211.6,119.5,212.3z"/>
	<path class="st3" d="M124.5,214.8v-5h1l1.2,3.5c0.1,0.3,0.2,0.6,0.2,0.7c0.1-0.2,0.1-0.5,0.3-0.8l1.2-3.5h0.9v5h-0.6v-4.2l-1.5,4.2
		h-0.6l-1.4-4.3v4.3h-0.7V214.8z"/>
</g>
</svg>
