<?xml version="1.0" encoding="utf-8"?>
<!-- Generator: Adobe Illustrator 22.0.0, SVG Export Plug-In . SVG Version: 6.00 Build 0)  -->
<svg version="1.1" id="图层_1" xmlns="http://www.w3.org/2000/svg" xmlns:xlink="http://www.w3.org/1999/xlink" x="0px" y="0px"
	 viewBox="0 0 88 88" style="enable-background:new 0 0 88 88;" xml:space="preserve">
<style type="text/css">
	.st0{fill:#E82721;}
	.st1{fill:#FFFFFF;}
	.st2{opacity:0.1;enable-background:new    ;}
</style>
<title>BCD</title>
<g>
	<path class="st0" d="M28.7,26.1c0,1.4-0.7,3.9-2.2,7.5L14.4,61.2l-0.2,0.6c-0.3-0.4-0.5-0.9-0.7-1.3C11,56,9.5,51,9.3,45.6
		c0-0.4,0-0.9,0-1.4c5.7,4.2,13.5-2.4,14.1-6.7c-1.2,0.7-10.6,3.7-9.9-5.6c0.2-2.6,1-5,3-7.2c0.7-0.8,1.5-1.4,2.3-1.9
		c1.4-0.9,3-1.3,4.6-1.3c1.4,0,2.7,0.4,3.7,1.3C28.2,23.8,28.7,24.9,28.7,26.1z"/>
	<path class="st0" d="M60.4,74.4c-4.9,2.7-10.5,4.2-16.5,4.2c-9.5,0-18.2-3.9-24.5-10.1c1.8-0.7,3.3-2.5,4.4-5.3L34,40.6l9.9,26.8
		c1.1,2.9,2.3,4.8,3.7,5.7c1.3,0.9,3.7,1.4,6.9,1.4L60.4,74.4L60.4,74.4z"/>
	<path class="st0" d="M62.2,14.6l-7,1.7L35.5,36.8l1.3-3.2c1.3-3.2,1.9-6,1.9-8.6c0-3.6-1.4-6.6-4.1-9c-1.4-1.2-2.9-2.1-4.6-2.7
		c-0.5-0.2-1-0.3-1.5-0.4c4.6-2.3,9.8-3.6,15.4-3.6s10.9,1.3,15.6,3.7c0.7,0.4,1.4,0.8,2.1,1.2C61.8,14.4,62,14.5,62.2,14.6z"/>
	<path class="st0" d="M67.9,69c-0.4,0.4-0.9,0.8-1.3,1.2h-17L38.2,40l23-23.9l1.9-1l-0.7,2.2l-22.8,23L50.4,69H67.9z"/>
	<path class="st0" d="M78.5,44c0,8.1-2.8,15.6-7.5,21.6c-0.7-0.2-1.4-0.2-2.3-0.2H56.6c-2.3,0-3.8-0.9-4.5-2.8l-7.9-21.5l17.9-18.6
		c0.3-1.8,1.1-5.1,1.6-6.9C72.7,21.8,78.5,32.2,78.5,44z"/>
	<path class="st0" d="M43.9,0c-24.3,0-44,19.7-44,44s19.7,44,44,44s44-19.7,44-44S68.2,0,43.9,0z M70.7,72c-0.5,0.5-1,1-1.6,1.4
		c-6.8,5.8-15.6,9.4-25.2,9.4C22.5,82.8,5.1,65.4,5.1,44c0-0.5,0-0.9,0-1.4c0.4-12.4,6.7-23.3,16.1-30.1c6.4-4.6,14.2-7.3,22.6-7.3
		c21.4,0,38.8,17.4,38.8,38.8C82.7,55,78.1,64.9,70.7,72z"/>
	<g>
		<path class="st1" d="M50.4,69L39.6,40.3l22.8-23l0.7-2.2l-1.9,1L38.2,40l11.4,30.1h17c0.4-0.4,0.9-0.8,1.3-1.2L50.4,69z"/>
	</g>
	<path class="st0" d="M67.9,69c-0.4,0.4-0.9,0.8-1.3,1.2h-17L38.2,40l23-23.9l1.9-1l-0.7,2.2l-22.8,23L50.4,69H67.9z"/>
	<path class="st1" d="M43.9,5.2c-8.4,0-16.2,2.7-22.6,7.3C11.9,19.3,5.6,30.2,5.2,42.6c0,0.5,0,0.9,0,1.4
		c0,21.4,17.4,38.8,38.8,38.8c9.6,0,18.5-3.5,25.2-9.4c0.5-0.5,1.1-0.9,1.6-1.4c7.4-7.1,11.9-17,11.9-28
		C82.7,22.6,65.3,5.2,43.9,5.2z M43.9,9.4c5.6,0,10.9,1.3,15.6,3.7c0.7,0.4,1.4,0.8,2.1,1.2c0.2,0.1,0.4,0.2,0.6,0.3l-7,1.7
		L35.5,36.8l1.3-3.2c1.3-3.2,1.9-6,1.9-8.6c0-3.6-1.4-6.6-4.1-9c-1.4-1.2-2.9-2.1-4.6-2.7c-0.5-0.2-1-0.3-1.5-0.4
		C33.2,10.7,38.4,9.4,43.9,9.4z M14.4,61.2l-0.2,0.6c-0.3-0.4-0.5-0.9-0.7-1.3C11,56,9.5,51,9.3,45.6c0-0.4,0-0.9,0-1.4
		c5.7,4.2,13.5-2.4,14.1-6.7c-1.2,0.7-10.6,3.7-9.9-5.6c0.2-2.6,1-5,3-7.2c0.7-0.8,1.5-1.4,2.3-1.9c1.4-0.9,3-1.3,4.6-1.3
		c1.4,0,2.7,0.4,3.7,1.3c1.1,0.9,1.6,1.9,1.6,3.2c0,1.4-0.7,3.9-2.2,7.5L14.4,61.2z M43.9,78.6c-9.5,0-18.2-3.9-24.5-10.1
		c1.8-0.7,3.3-2.5,4.4-5.3L34,40.6l9.9,26.8c1.1,2.9,2.3,4.8,3.7,5.7c1.3,0.9,3.7,1.4,6.9,1.4h5.9C55.5,77.1,49.9,78.6,43.9,78.6z
		 M66.6,70.2h-17L38.2,40l23-23.9l1.9-1l-0.7,2.2l-22.8,23L50.4,69h17.5C67.4,69.4,67,69.8,66.6,70.2z M71,65.6
		c-0.7-0.2-1.4-0.2-2.3-0.2H56.6c-2.3,0-3.8-0.9-4.5-2.8l-7.9-21.5l17.9-18.6c0.3-1.8,1.1-5.1,1.6-6.9c9,6.3,14.9,16.7,14.9,28.4
		C78.5,52.1,75.7,59.6,71,65.6z"/>
</g>
<g class="st2">
	<path class="st1" d="M32,86.1v-0.6l2.6-3.2c0.2-0.2,0.4-0.4,0.5-0.6h-2.8v-0.6h3.6v0.5l-2.8,3.5l-0.3,0.4H36v0.6H32z"/>
	<path class="st1" d="M36.6,86.1v-5h1.9c0.4,0,0.7,0.1,0.9,0.2s0.4,0.3,0.5,0.5s0.2,0.4,0.2,0.7c0,0.2-0.1,0.4-0.2,0.6
		s-0.3,0.3-0.5,0.5c0.3,0.1,0.5,0.2,0.7,0.5c0.2,0.2,0.2,0.5,0.2,0.8c0,0.2,0,0.5-0.1,0.7s-0.2,0.4-0.4,0.5s-0.3,0.2-0.5,0.2
		c-0.2,0.1-0.5,0.1-0.8,0.1h-1.9V86.1z M37.3,83.2h1.1c0.3,0,0.5,0,0.6-0.1c0.2-0.1,0.3-0.1,0.4-0.2c0.1-0.1,0.1-0.3,0.1-0.4
		c0-0.2,0-0.3-0.1-0.4s-0.2-0.2-0.3-0.3s-0.4-0.2-0.8-0.2h-1V83.2z M37.3,85.5h1.2c0.2,0,0.4,0,0.5,0c0.2,0,0.3-0.1,0.4-0.1
		s0.2-0.2,0.3-0.3s0.1-0.3,0.1-0.4c0-0.2,0-0.3-0.1-0.5s-0.2-0.2-0.4-0.3c-0.2-0.1-0.4-0.1-0.7-0.1h-1.2L37.3,85.5L37.3,85.5z"/>
	<path class="st1" d="M41.4,86.1v-0.7h0.7v0.7H41.4z"/>
	<path class="st1" d="M46.9,84.3l0.7,0.2c-0.1,0.5-0.4,1-0.8,1.2s-0.8,0.4-1.3,0.4s-1-0.1-1.3-0.3c-0.3-0.2-0.6-0.5-0.8-1
		c-0.2-0.4-0.3-0.9-0.3-1.3c0-0.5,0.1-1,0.3-1.4s0.5-0.7,0.9-0.9c0.4-0.2,0.8-0.3,1.2-0.3c0.5,0,0.9,0.1,1.3,0.4
		c0.3,0.3,0.6,0.6,0.7,1.1l-0.7,0.2c-0.1-0.4-0.3-0.6-0.5-0.8s-0.5-0.2-0.8-0.2c-0.4,0-0.7,0.1-1,0.3c-0.3,0.2-0.4,0.4-0.5,0.7
		c-0.1,0.3-0.2,0.6-0.2,1s0.1,0.8,0.2,1.1c0.1,0.3,0.3,0.6,0.6,0.7s0.5,0.2,0.9,0.2s0.7-0.1,0.9-0.3C46.6,85.1,46.8,84.7,46.9,84.3z
		"/>
	<path class="st1" d="M48.1,83.6c0-0.8,0.2-1.5,0.7-2s1-0.7,1.7-0.7c0.5,0,0.9,0.1,1.3,0.3c0.4,0.2,0.7,0.5,0.8,0.9s0.3,0.8,0.3,1.3
		s-0.1,1-0.3,1.4s-0.5,0.7-0.9,0.9c-0.4,0.2-0.8,0.3-1.2,0.3c-0.5,0-0.9-0.1-1.3-0.3c-0.4-0.2-0.7-0.5-0.8-0.9S48.1,84.1,48.1,83.6z
		 M48.8,83.6c0,0.6,0.2,1.1,0.5,1.4s0.7,0.5,1.2,0.5s0.9-0.2,1.2-0.5c0.3-0.4,0.5-0.8,0.5-1.5c0-0.4-0.1-0.8-0.2-1.1
		c-0.1-0.3-0.3-0.5-0.6-0.7s-0.6-0.3-0.9-0.3c-0.5,0-0.9,0.2-1.2,0.5S48.8,82.9,48.8,83.6z"/>
	<path class="st1" d="M53.8,86.1v-5h1l1.2,3.5c0.1,0.3,0.2,0.6,0.2,0.7c0.1-0.2,0.1-0.5,0.3-0.8l1.2-3.5h0.9v5h-0.6v-4.2L56.6,86H56
		l-1.4-4.3V86h-0.7V86.1z"/>
</g>
</svg>
