<?xml version="1.0" encoding="utf-8"?>
<!-- Generator: Adobe Illustrator 22.0.0, SVG Export Plug-In . SVG Version: 6.00 Build 0)  -->
<svg version="1.1" id="图层_1" xmlns="http://www.w3.org/2000/svg" xmlns:xlink="http://www.w3.org/1999/xlink" x="0px" y="0px"
	 viewBox="0 0 88 88" style="enable-background:new 0 0 88 88;" xml:space="preserve">
<style type="text/css">
	.st0{fill:#31CB9E;}
	.st1{fill:#FFFFFF;}
	.st2{opacity:0.1;enable-background:new    ;}
</style>
<title>BCD</title>
<circle class="st0" cx="44" cy="44" r="44"/>
<g>
	<path id="Shape_14_" class="st1" d="M40.5,44l25,14.3c0.9,0.5,2-0.1,2-1.1V30.8c0-1-1.1-1.6-2-1.1L40.5,44z"/>
	<path id="Shape_15_" class="st1" d="M65,23.3L47.9,10.8c-0.8-0.6-1.9-0.2-2.1,0.8l-6.2,28l25.3-14C65.7,25,65.7,23.9,65,23.3"/>
	<path id="Shape_16_" class="st1" d="M47.9,77.2L65,64.7c0.8-0.6,0.7-1.7-0.1-2.2l-25.3-14l6.2,28C45.9,77.4,47.1,77.8,47.9,77.2"/>
	<path id="Shape_17_" class="st1" d="M34,43.5l6.5-30.4c0.3-1.2-1.1-2.1-2.1-1.3L21.8,24.5c-0.9,0.7-1.3,1.7-1.3,2.8v32.4
		c0,1.1,0.5,2.1,1.3,2.8l16.6,12.8c1,0.7,2.3-0.1,2.1-1.3L34,43.5z"/>
</g>
<g class="st2">
	<path class="st1" d="M31.5,84.1v-0.6l2.6-3.2c0.2-0.2,0.4-0.4,0.5-0.6h-2.8v-0.6h3.6v0.5l-2.8,3.5l-0.3,0.4h3.2v0.6H31.5z"/>
	<path class="st1" d="M36.1,84.1v-5H38c0.4,0,0.7,0.1,0.9,0.2s0.4,0.3,0.5,0.5s0.2,0.4,0.2,0.7c0,0.2-0.1,0.4-0.2,0.6
		s-0.3,0.3-0.5,0.5c0.3,0.1,0.5,0.2,0.7,0.5c0.2,0.2,0.2,0.5,0.2,0.8c0,0.2,0,0.5-0.1,0.7s-0.2,0.4-0.4,0.5s-0.3,0.2-0.5,0.2
		c-0.2,0.1-0.5,0.1-0.8,0.1h-1.9V84.1z M36.8,81.2h1.1c0.3,0,0.5,0,0.6-0.1c0.2-0.1,0.3-0.1,0.4-0.2c0.1-0.1,0.1-0.3,0.1-0.4
		c0-0.2,0-0.3-0.1-0.4s-0.2-0.2-0.3-0.3s-0.4-0.2-0.8-0.2h-1V81.2z M36.8,83.5H38c0.2,0,0.4,0,0.5,0c0.2,0,0.3-0.1,0.4-0.1
		s0.2-0.2,0.3-0.3s0.1-0.3,0.1-0.4c0-0.2,0-0.3-0.1-0.5S39,82,38.8,81.9c-0.2-0.1-0.4-0.1-0.7-0.1h-1.2L36.8,83.5L36.8,83.5z"/>
	<path class="st1" d="M40.9,84.1v-0.7h0.7v0.7H40.9z"/>
	<path class="st1" d="M46.4,82.3l0.7,0.2c-0.1,0.5-0.4,1-0.8,1.2s-0.8,0.4-1.3,0.4s-1-0.1-1.3-0.3c-0.3-0.2-0.6-0.5-0.8-1
		c-0.2-0.4-0.3-0.9-0.3-1.3c0-0.5,0.1-1,0.3-1.4s0.5-0.7,0.9-0.9c0.4-0.2,0.8-0.3,1.2-0.3c0.5,0,0.9,0.1,1.3,0.4
		c0.3,0.3,0.6,0.6,0.7,1.1l-0.7,0.2c-0.1-0.4-0.3-0.6-0.5-0.8s-0.5-0.2-0.8-0.2c-0.4,0-0.7,0.1-1,0.3c-0.3,0.2-0.4,0.4-0.5,0.7
		c-0.1,0.3-0.2,0.6-0.2,1s0.1,0.8,0.2,1.1c0.1,0.3,0.3,0.6,0.6,0.7s0.5,0.2,0.9,0.2s0.7-0.1,0.9-0.3C46.1,83.1,46.3,82.7,46.4,82.3z
		"/>
	<path class="st1" d="M47.6,81.6c0-0.8,0.2-1.5,0.7-2s1-0.7,1.7-0.7c0.5,0,0.9,0.1,1.3,0.3c0.4,0.2,0.7,0.5,0.8,0.9s0.3,0.8,0.3,1.3
		s-0.1,1-0.3,1.4s-0.5,0.7-0.9,0.9C50.8,83.9,50.4,84,50,84c-0.5,0-0.9-0.1-1.3-0.3c-0.4-0.2-0.7-0.5-0.8-0.9S47.6,82.1,47.6,81.6z
		 M48.3,81.6c0,0.6,0.2,1.1,0.5,1.4s0.7,0.5,1.2,0.5s0.9-0.2,1.2-0.5c0.3-0.4,0.5-0.8,0.5-1.5c0-0.4-0.1-0.8-0.2-1.1
		c-0.1-0.3-0.3-0.5-0.6-0.7s-0.6-0.3-0.9-0.3c-0.5,0-0.9,0.2-1.2,0.5S48.3,80.9,48.3,81.6z"/>
	<path class="st1" d="M53.3,84.1v-5h1l1.2,3.5c0.1,0.3,0.2,0.6,0.2,0.7c0.1-0.2,0.1-0.5,0.3-0.8l1.2-3.5h0.9v5h-0.6v-4.2L56,84h-0.6
		L54,79.7V84h-0.7V84.1z"/>
</g>
</svg>
