<?xml version="1.0" encoding="utf-8"?>
<!-- Generator: Adobe Illustrator 22.1.0, SVG Export Plug-In . SVG Version: 6.00 Build 0)  -->
<svg version="1.1" id="图层_1" xmlns="http://www.w3.org/2000/svg" xmlns:xlink="http://www.w3.org/1999/xlink" x="0px" y="0px"
	 viewBox="0 0 64 64" style="enable-background:new 0 0 64 64;" xml:space="preserve">
<style type="text/css">
	.st0{fill:url(#SVGID_1_);}
	.st1{fill:#FFFFFF;}
</style>
<linearGradient id="SVGID_1_" gradientUnits="userSpaceOnUse" x1="32" y1="0" x2="32" y2="64">
	<stop  offset="0" style="stop-color:#009AC6"/>
	<stop  offset="6.292392e-02" style="stop-color:#069DAC"/>
	<stop  offset="0.1366" style="stop-color:#0C9F94"/>
	<stop  offset="0.2048" style="stop-color:#10A085"/>
	<stop  offset="0.262" style="stop-color:#11A180"/>
	<stop  offset="0.5027" style="stop-color:#6DAB5E"/>
	<stop  offset="0.7487" style="stop-color:#A3B620"/>
	<stop  offset="1" style="stop-color:#E5B500"/>
</linearGradient>
<circle class="st0" cx="32" cy="32" r="32"/>
<g>
	<path class="st1" d="M47.8,48.3l-9.3-16.4c-0.2-0.4-0.7-0.7-1.1-0.8c-0.5-0.1-1,0.1-1.3,0.4L24.4,43.1c-0.3,0.3-0.5,0.7-0.5,1.1
		v4.1h-5.7v-4.3L46.5,16c0.4-0.4,0.6-1.1,0.3-1.7c-0.2-0.6-0.8-1-1.4-1H34.7c-0.4,0-0.8,0.2-1.1,0.4L21.6,25.7
		c-0.1,0.1-0.1,0.1-0.2,0.2c-1.1,1.1-1.7,1.1-2,1.2c-0.5,0.2-1.1-0.3-1.1-1.4v-10h5.8v2.6h0c0,0.6,0.5,1.2,1.2,1.2
		c0.6,0,1.2-0.5,1.2-1.2c0,0,0,0,0,0v-3.3c0-0.9-0.7-1.5-1.5-1.5h-7.4c-0.9,0-1.5,0.7-1.5,1.5v10.9c0,0.1,0,0.3,0.1,0.4
		c0.1,0.7,0.9,2.9,2.9,3.2c1.4,0.2,2.7-0.4,4.3-2.2l11.8-11.6h8.5L16.4,42.5c-0.3,0.3-0.5,0.7-0.5,1.1v5.5c0,0.9,0.7,1.5,1.5,1.5
		h7.2c0.9,0,1.5-0.7,1.5-1.5v-4.6L37,33.9l8.2,14.4h-7.6l-3-5.4c-0.2-0.4-0.6-0.7-1.1-0.7c-0.6,0-1.2,0.5-1.2,1.2
		c0,0.2,0,0.4,0.1,0.5l0,0l3.3,6c0.3,0.5,0.8,0.8,1.4,0.8h9.5c0.5,0,1.1-0.3,1.3-0.8C48.1,49.4,48.1,48.8,47.8,48.3z"/>
</g>
</svg>
