<?xml version="1.0" encoding="utf-8"?>
<!-- Generator: Adobe Illustrator 22.0.0, SVG Export Plug-In . SVG Version: 6.00 Build 0)  -->
<svg version="1.1" id="图层_1" xmlns="http://www.w3.org/2000/svg" xmlns:xlink="http://www.w3.org/1999/xlink" x="0px" y="0px"
	 viewBox="0 0 88 88" style="enable-background:new 0 0 88 88;" xml:space="preserve">
<style type="text/css">
	.st0{fill:#EB9E00;}
	.st1{fill:#FFFFFF;}
	.st2{opacity:0.1;enable-background:new    ;}
</style>
<title>LBTC</title>
<g id="图层_2_1_">
	<g id="图层_1-2">
		<circle class="st0" cx="44" cy="44" r="44"/>
		<path class="st1" d="M55.2,29.2c2.7,1.6,4.3,4.5,4.2,7.6c0,1.4-0.3,2.8-0.9,4H63c0.3,0,0.5,0.1,0.7,0.3c0.3,0.4,0.2,1-0.2,1.3
			l-4.3,3.4c1,1.5,1.6,3.3,1.6,5.1c0,5.2-3.9,9.4-8.8,9.4h-1.3c-0.4,0-0.7,0.3-0.7,0.7v0v3.6c0,0.4-0.3,0.8-0.8,0.8h-2.5
			c-0.4,0-0.8-0.3-0.8-0.8v-3.5c0-0.5-0.4-0.8-0.8-0.8h-2.4c-0.5,0-0.8,0.4-0.8,0.8v0v3.5c0,0.4-0.3,0.8-0.8,0.8h-2.5
			c-0.4,0-0.8-0.3-0.8-0.8v-2L22.8,74.6L35,60.4h-5.2c-0.5,0-0.9-0.4-0.9-0.9c0,0,0,0,0,0v-3c0-0.5,0.4-0.9,0.9-0.9c0,0,0,0,0,0H32
			c2.3,0,2-0.8,2-3V50h-8.6c-0.3,0-0.5-0.1-0.7-0.3c-0.3-0.4-0.3-1,0.1-1.3c0,0,0,0,0,0l9.2-7.6v-5c0-3,0.2-3-2-3h-2.2
			c-0.5,0-0.9-0.4-0.9-0.9v-3c0-0.5,0.4-0.9,0.9-0.9h8.1v-4.3c0-0.4,0.3-0.8,0.8-0.8h2.4c0.5,0,0.9,0.4,0.9,0.9v3.5
			c0,0.4,0.3,0.7,0.7,0.7h2.7c0.4,0,0.7-0.3,0.7-0.7c0,0,0,0,0,0v-3.6c0-0.4,0.4-0.8,0.8-0.8c0,0,0,0,0,0h2.3c0.5,0,0.9,0.4,0.9,0.9
			v3.7L68,12.6L55.2,29.2z M42.8,32.7c-0.5,0-0.9,0.4-0.9,0.9v6.5c0,0.5,0.4,0.9,0.9,0.9h4.5c2,0,3.7-1.5,3.7-4.2s-1.7-4.2-3.7-4.2
			H42.8z M48.4,55.5c2.3,0,4.1-1.5,4.1-4.6s-1.8-4.6-4.1-4.6h-5.6c-0.5,0-0.9,0.4-0.9,0.9v7.3c0,0.5,0.4,0.9,0.9,0.9l0,0
			C42.8,55.5,48.4,55.5,48.4,55.5z"/>
	</g>
</g>
<g class="st2">
	<path class="st1" d="M31.2,80.7v-0.6l2.6-3.2c0.2-0.2,0.4-0.4,0.5-0.6h-2.8v-0.6h3.6v0.5l-2.8,3.5L32,80.1h3.2v0.6H31.2z"/>
	<path class="st1" d="M35.8,80.7v-5h1.9c0.4,0,0.7,0.1,0.9,0.2s0.4,0.3,0.5,0.5s0.2,0.4,0.2,0.7c0,0.2-0.1,0.4-0.2,0.6
		s-0.3,0.3-0.5,0.5c0.3,0.1,0.5,0.2,0.7,0.5c0.2,0.2,0.2,0.5,0.2,0.8c0,0.2,0,0.5-0.1,0.7s-0.2,0.4-0.4,0.5s-0.3,0.2-0.5,0.2
		C38.4,81,38.1,81,37.8,81h-1.9V80.7z M36.5,77.8h1.1c0.3,0,0.5,0,0.6-0.1c0.2-0.1,0.3-0.1,0.4-0.2c0.1-0.1,0.1-0.3,0.1-0.4
		c0-0.2,0-0.3-0.1-0.4s-0.2-0.2-0.3-0.3s-0.4-0.2-0.8-0.2h-1V77.8z M36.5,80.1h1.2c0.2,0,0.4,0,0.5,0c0.2,0,0.3-0.1,0.4-0.1
		s0.2-0.2,0.3-0.3s0.1-0.3,0.1-0.4c0-0.2,0-0.3-0.1-0.5s-0.2-0.2-0.4-0.3c-0.2-0.1-0.4-0.1-0.7-0.1h-1.2L36.5,80.1L36.5,80.1z"/>
	<path class="st1" d="M40.6,80.7V80h0.7v0.7H40.6z"/>
	<path class="st1" d="M46.1,78.9l0.7,0.2c-0.1,0.5-0.4,1-0.8,1.2s-0.8,0.4-1.3,0.4s-1-0.1-1.3-0.3c-0.3-0.2-0.6-0.5-0.8-1
		c-0.2-0.4-0.3-0.9-0.3-1.3c0-0.5,0.1-1,0.3-1.4s0.5-0.7,0.9-0.9c0.4-0.2,0.8-0.3,1.2-0.3c0.5,0,0.9,0.1,1.3,0.4
		c0.3,0.3,0.6,0.6,0.7,1.1L46,77.2c-0.1-0.4-0.3-0.6-0.5-0.8s-0.5-0.2-0.8-0.2c-0.4,0-0.7,0.1-1,0.3c-0.3,0.2-0.4,0.4-0.5,0.7
		c-0.1,0.3-0.2,0.6-0.2,1s0.1,0.8,0.2,1.1c0.1,0.3,0.3,0.6,0.6,0.7s0.5,0.2,0.9,0.2s0.7-0.1,0.9-0.3C45.8,79.7,46,79.3,46.1,78.9z"
		/>
	<path class="st1" d="M47.3,78.2c0-0.8,0.2-1.5,0.7-2s1-0.7,1.7-0.7c0.5,0,0.9,0.1,1.3,0.3c0.4,0.2,0.7,0.5,0.8,0.9s0.3,0.8,0.3,1.3
		s-0.1,1-0.3,1.4s-0.5,0.7-0.9,0.9c-0.4,0.2-0.8,0.3-1.2,0.3c-0.5,0-0.9-0.1-1.3-0.3c-0.4-0.2-0.7-0.5-0.8-0.9S47.3,78.7,47.3,78.2z
		 M48,78.2c0,0.6,0.2,1.1,0.5,1.4s0.7,0.5,1.2,0.5s0.9-0.2,1.2-0.5c0.3-0.4,0.5-0.8,0.5-1.5c0-0.4-0.1-0.8-0.2-1.1
		c-0.1-0.3-0.3-0.5-0.6-0.7S50.1,76,49.8,76c-0.5,0-0.9,0.2-1.2,0.5S48,77.5,48,78.2z"/>
	<path class="st1" d="M53,80.7v-5h1l1.2,3.5c0.1,0.3,0.2,0.6,0.2,0.7c0.1-0.2,0.1-0.5,0.3-0.8l1.2-3.5h0.9v5h-0.6v-4.2l-1.5,4.2
		h-0.6l-1.4-4.3v4.3H53V80.7z"/>
</g>
</svg>
