<?xml version="1.0" encoding="utf-8"?>
<!-- Generator: Adobe Illustrator 22.0.0, SVG Export Plug-In . SVG Version: 6.00 Build 0)  -->
<svg version="1.1" id="图层_1" xmlns="http://www.w3.org/2000/svg" xmlns:xlink="http://www.w3.org/1999/xlink" x="0px" y="0px"
	 viewBox="0 0 88 88" style="enable-background:new 0 0 88 88;" xml:space="preserve">
<style type="text/css">
	.st0{fill:#DCAE6F;}
	.st1{opacity:0.61;fill:#FFFFFF;enable-background:new    ;}
	.st2{fill:#FFFFFF;}
	.st3{opacity:0.1;enable-background:new    ;}
</style>
<title>LCH</title>
<g id="图层_2_1_">
	<g id="图层_1-2">
		<circle class="st0" cx="44" cy="44" r="44"/>
		<polygon class="st1" points="30.2,24.3 43.4,12.3 46.6,22.1 47.2,31.5 51.5,35.7 51.1,39.6 48,42.5 49.3,57.3 63.4,49.3 
			67.4,53.7 61.5,64.8 41.8,74.3 30.3,74.3 30.2,56.6 28.9,57.6 26.5,56.2 22.6,51.1 30.4,45.3 		"/>
		<polygon class="st2" points="30.2,24.3 43.4,12.3 44.5,34.1 47.2,31.5 51.5,35.7 45,41.9 46.2,59 63.4,49.3 67.4,53.7 30.3,74.3 
			30.2,56.6 30.2,52.2 26.5,56.2 22.6,51.1 30.4,45.3 		"/>
	</g>
</g>
<g class="st3">
	<path class="st2" d="M31.7,82.5v-0.6l2.6-3.2c0.2-0.2,0.4-0.4,0.5-0.6H32v-0.6h3.6V78l-2.8,3.5l-0.3,0.4h3.2v0.6H31.7z"/>
	<path class="st2" d="M36.3,82.5v-5h1.9c0.4,0,0.7,0.1,0.9,0.2s0.4,0.3,0.5,0.5s0.2,0.4,0.2,0.7c0,0.2-0.1,0.4-0.2,0.6
		s-0.3,0.3-0.5,0.5c0.3,0.1,0.5,0.2,0.7,0.5C40,80.7,40,81,40,81.3c0,0.2,0,0.5-0.1,0.7s-0.2,0.4-0.4,0.5s-0.3,0.2-0.5,0.2
		c-0.2,0.1-0.5,0.1-0.8,0.1h-1.9V82.5z M37,79.6h1.1c0.3,0,0.5,0,0.6-0.1c0.2-0.1,0.3-0.1,0.4-0.2c0.1-0.1,0.1-0.3,0.1-0.4
		c0-0.2,0-0.3-0.1-0.4s-0.2-0.2-0.3-0.3S38.4,78,38,78h-1V79.6z M37,81.9h1.2c0.2,0,0.4,0,0.5,0c0.2,0,0.3-0.1,0.4-0.1
		s0.2-0.2,0.3-0.3s0.1-0.3,0.1-0.4c0-0.2,0-0.3-0.1-0.5s-0.2-0.2-0.4-0.3c-0.2-0.1-0.4-0.1-0.7-0.1h-1.2L37,81.9L37,81.9z"/>
	<path class="st2" d="M41.1,82.5v-0.7h0.7v0.7H41.1z"/>
	<path class="st2" d="M46.6,80.7l0.7,0.2c-0.1,0.5-0.4,1-0.8,1.2s-0.8,0.4-1.3,0.4s-1-0.1-1.3-0.3c-0.3-0.2-0.6-0.5-0.8-1
		c-0.2-0.4-0.3-0.9-0.3-1.3c0-0.5,0.1-1,0.3-1.4s0.5-0.7,0.9-0.9c0.4-0.2,0.8-0.3,1.2-0.3c0.5,0,0.9,0.1,1.3,0.4
		c0.3,0.3,0.6,0.6,0.7,1.1L46.5,79c-0.1-0.4-0.3-0.6-0.5-0.8S45.5,78,45.2,78c-0.4,0-0.7,0.1-1,0.3c-0.3,0.2-0.4,0.4-0.5,0.7
		c-0.1,0.3-0.2,0.6-0.2,1s0.1,0.8,0.2,1.1c0.1,0.3,0.3,0.6,0.6,0.7s0.5,0.2,0.9,0.2s0.7-0.1,0.9-0.3C46.3,81.5,46.5,81.1,46.6,80.7z
		"/>
	<path class="st2" d="M47.8,80c0-0.8,0.2-1.5,0.7-2s1-0.7,1.7-0.7c0.5,0,0.9,0.1,1.3,0.3c0.4,0.2,0.7,0.5,0.8,0.9s0.3,0.8,0.3,1.3
		s-0.1,1-0.3,1.4s-0.5,0.7-0.9,0.9c-0.4,0.2-0.8,0.3-1.2,0.3c-0.5,0-0.9-0.1-1.3-0.3c-0.4-0.2-0.7-0.5-0.8-0.9S47.8,80.5,47.8,80z
		 M48.5,80c0,0.6,0.2,1.1,0.5,1.4s0.7,0.5,1.2,0.5s0.9-0.2,1.2-0.5c0.3-0.4,0.5-0.8,0.5-1.5c0-0.4-0.1-0.8-0.2-1.1
		c-0.1-0.3-0.3-0.5-0.6-0.7s-0.6-0.3-0.9-0.3c-0.5,0-0.9,0.2-1.2,0.5S48.5,79.3,48.5,80z"/>
	<path class="st2" d="M53.5,82.5v-5h1l1.2,3.5c0.1,0.3,0.2,0.6,0.2,0.7c0.1-0.2,0.1-0.5,0.3-0.8l1.2-3.5h0.9v5h-0.6v-4.2l-1.5,4.2
		h-0.6l-1.4-4.3v4.3h-0.7V82.5z"/>
</g>
</svg>
