<?xml version="1.0" encoding="utf-8"?>
<!-- Generator: Adobe Illustrator 22.1.0, SVG Export Plug-In . SVG Version: 6.00 Build 0)  -->
<svg version="1.1" id="图层_1" xmlns="http://www.w3.org/2000/svg" xmlns:xlink="http://www.w3.org/1999/xlink" x="0px" y="0px"
	 viewBox="0 0 64 64" style="enable-background:new 0 0 64 64;" xml:space="preserve">
<style type="text/css">
	.st0{fill:url(#SVGID_1_);}
	.st1{fill:#FFFFFF;}
	.st2{opacity:5.000000e-02;fill:#FFFFFF;enable-background:new    ;}
	.st3{font-family:'MyriadPro-Regular';}
	.st4{font-size:5.7427px;}
</style>
<linearGradient id="SVGID_1_" gradientUnits="userSpaceOnUse" x1="64" y1="32" x2="-9.094947e-13" y2="32">
	<stop  offset="0" style="stop-color:#00A99D"/>
	<stop  offset="1" style="stop-color:#22B573"/>
</linearGradient>
<circle class="st0" cx="32" cy="32" r="32"/>
<g id="XMLID_265_">
	<polygon id="XMLID_42_" class="st1" points="32,38.8 32,34.7 18.4,26.8 18.4,26.8 14.3,24.4 14.3,28.5 14.3,32.6 14.3,36.7 
		14.3,40.8 14.3,44.9 18.4,47.3 18.4,47.3 32,55.2 32,51.1 18.4,43.2 18.4,39.1 32,47 32,42.9 18.4,35 18.4,30.9 	"/>
	<path id="XMLID_266_" class="st1" d="M32,8.8c-7.7,0-14.4,5.8-15.6,13.4l3.8,2.2l0.2-1.6C21.3,17.2,26.3,13,32,13
		c5.7,0,10.7,4.3,11.5,9.9l0.2,1.6l3.8-2.2C46.4,14.6,39.7,8.8,32,8.8z"/>
	<polygon id="XMLID_41_" class="st1" points="45.6,26.8 45.6,26.8 32,34.7 32,38.8 45.6,30.9 45.6,35 32,42.9 32,47 45.6,39.1 
		45.6,43.2 32,51.1 32,55.2 45.6,47.3 45.6,47.3 49.7,44.9 49.7,40.8 49.7,36.7 49.7,32.6 49.7,28.5 49.7,24.4 	"/>
</g>
<text transform="matrix(1 0 0 1 27.0009 62.5415)" class="st2 st3 st4">XT</text>
</svg>
