<?xml version="1.0" encoding="utf-8"?>
<!-- Generator: Adobe Illustrator 22.1.0, SVG Export Plug-In . SVG Version: 6.00 Build 0)  -->
<svg version="1.1" id="图层_1" xmlns="http://www.w3.org/2000/svg" xmlns:xlink="http://www.w3.org/1999/xlink" x="0px" y="0px"
	 viewBox="0 0 150 150" style="enable-background:new 0 0 150 150;" xml:space="preserve">
<style type="text/css">
	.st0{fill:#467BBE;}
	.st1{fill:#FFFFFF;}
	.st2{opacity:0.1;enable-background:new    ;}
</style>
<circle class="st0" cx="75" cy="75" r="75"/>
<title>150X150</title>
<path class="st1" d="M70.3,49.7c-5.9,1.2-11.9,2.7-17.8,4.3c-1.6,0.5-3.3-0.5-3.8-2.1c-0.1-0.3-0.1-0.5-0.1-0.8V22.4
	c0-1.4-1.2-2.6-2.6-2.5c-0.2,0-0.4,0-0.7,0.1l0,0c-1.1,0.3-1.9,1.3-1.9,2.5V108c0,1.7,1.4,3.1,3,3.1c0.2,0,0.4,0,0.6-0.1
	c5.9-1.2,11.9-2.6,17.8-4.3c1.6-0.5,3.3,0.4,3.8,2c0.1,0.3,0.1,0.6,0.1,0.9c0,8.3,0,21.4,0,27.6c0,1.4,1.1,2.6,2.5,2.6
	c0.3,0,0.5,0,0.8-0.1h0.1c1.1-0.3,1.9-1.3,1.9-2.5l-0.1-84.5c0-1.7-1.3-3.1-3-3.1C70.6,49.6,70.5,49.6,70.3,49.7z M68.7,88.9
	c0,0.8-10.6,3.1-16.5,4.4c-1.6,0.4-3.2-0.6-3.6-2.3c-0.1-0.2-0.1-0.5-0.1-0.7V71.8c0-0.8,10.6-3.1,16.5-4.4c1.6-0.4,3.2,0.6,3.6,2.3
	c0.1,0.2,0.1,0.5,0.1,0.7V88.9z"/>
<path class="st1" d="M81.4,44.3V13.1c0-1.4-1.1-2.6-2.6-2.6c-0.2,0-0.5,0-0.7,0.1l0,0c-1.1,0.3-1.9,1.3-1.9,2.5v88.2
	c0,1.7,1.4,3.1,3.1,3c0.2,0,0.4,0,0.5,0c5.9-1.2,11.9-2.6,17.8-4.3c1.6-0.5,3.3,0.5,3.8,2.1c0.1,0.3,0.1,0.5,0.1,0.8v24.9
	c0,1.4,1.2,2.6,2.6,2.6c0.2,0,0.5,0,0.7-0.1l0,0c1.1-0.3,1.9-1.3,1.9-2.5V45.9c0-1.7-1.4-3.1-3-3.1c-0.2,0-0.4,0-0.6,0.1
	c-5.9,1.2-11.9,2.6-17.8,4.3c-1.6,0.5-3.3-0.5-3.8-2.1C81.4,44.9,81.4,44.6,81.4,44.3z M100,81.7c0,0.7-9.9,3-15.5,4.1
	c-1.6,0.3-3.1-0.7-3.4-2.2c0-0.2-0.1-0.4-0.1-0.6V65.6c0-0.7,9.9-3,15.5-4.1c1.6-0.3,3.1,0.7,3.4,2.2c0,0.2,0.1,0.4,0.1,0.6V81.7z"
	/>
<g class="st2">
	<path class="st1" d="M62.9,144.9v-0.6l2.6-3.2c0.2-0.2,0.4-0.4,0.5-0.6h-2.8v-0.6h3.6v0.5l-2.8,3.5l-0.3,0.4h3.2v0.6L62.9,144.9
		L62.9,144.9z"/>
	<path class="st1" d="M67.5,144.9v-5h1.9c0.4,0,0.7,0.1,0.9,0.2c0.2,0.1,0.4,0.3,0.5,0.5s0.2,0.4,0.2,0.7c0,0.2-0.1,0.4-0.2,0.6
		c-0.1,0.2-0.3,0.3-0.5,0.5c0.3,0.1,0.5,0.2,0.7,0.5c0.2,0.2,0.2,0.5,0.2,0.8c0,0.2,0,0.5-0.1,0.7s-0.2,0.4-0.4,0.5
		c-0.2,0.1-0.3,0.2-0.5,0.2c-0.2,0.1-0.5,0.1-0.8,0.1h-1.9C67.5,145.2,67.5,144.9,67.5,144.9z M68.2,142h1.1c0.3,0,0.5,0,0.6-0.1
		c0.2-0.1,0.3-0.1,0.4-0.2c0.1-0.1,0.1-0.3,0.1-0.4c0-0.2,0-0.3-0.1-0.4c-0.1-0.1-0.2-0.2-0.3-0.3s-0.4-0.2-0.8-0.2h-1
		C68.2,140.4,68.2,142,68.2,142z M68.2,144.3h1.2c0.2,0,0.4,0,0.5,0c0.2,0,0.3-0.1,0.4-0.1s0.2-0.2,0.3-0.3s0.1-0.3,0.1-0.4
		c0-0.2,0-0.3-0.1-0.5s-0.2-0.2-0.4-0.3c-0.2-0.1-0.4-0.1-0.7-0.1h-1.2L68.2,144.3L68.2,144.3z"/>
	<path class="st1" d="M72.3,144.9v-0.7H73v0.7H72.3z"/>
	<path class="st1" d="M77.8,143.1l0.7,0.2c-0.1,0.5-0.4,1-0.8,1.2s-0.8,0.4-1.3,0.4s-1-0.1-1.3-0.3s-0.6-0.5-0.8-1
		c-0.2-0.4-0.3-0.9-0.3-1.3c0-0.5,0.1-1,0.3-1.4c0.2-0.4,0.5-0.7,0.9-0.9s0.8-0.3,1.2-0.3c0.5,0,0.9,0.1,1.3,0.4
		c0.3,0.3,0.6,0.6,0.7,1.1l-0.7,0.2c-0.1-0.4-0.3-0.6-0.5-0.8s-0.5-0.2-0.8-0.2c-0.4,0-0.7,0.1-1,0.3s-0.4,0.4-0.5,0.7
		s-0.2,0.6-0.2,1s0.1,0.8,0.2,1.1s0.3,0.6,0.6,0.7c0.3,0.1,0.5,0.2,0.9,0.2s0.7-0.1,0.9-0.3C77.5,143.9,77.7,143.5,77.8,143.1z"/>
	<path class="st1" d="M79,142.4c0-0.8,0.2-1.5,0.7-2s1-0.7,1.7-0.7c0.5,0,0.9,0.1,1.3,0.3s0.7,0.5,0.8,0.9c0.1,0.4,0.3,0.8,0.3,1.3
		s-0.1,1-0.3,1.4c-0.2,0.4-0.5,0.7-0.9,0.9s-0.8,0.3-1.2,0.3c-0.5,0-0.9-0.1-1.3-0.3s-0.7-0.5-0.8-0.9C79.2,143.2,79,142.9,79,142.4
		z M79.7,142.4c0,0.6,0.2,1.1,0.5,1.4c0.3,0.3,0.7,0.5,1.2,0.5s0.9-0.2,1.2-0.5c0.3-0.4,0.5-0.8,0.5-1.5c0-0.4-0.1-0.8-0.2-1.1
		s-0.3-0.5-0.6-0.7c-0.3-0.2-0.6-0.3-0.9-0.3c-0.5,0-0.9,0.2-1.2,0.5C79.9,141,79.7,141.7,79.7,142.4z"/>
	<path class="st1" d="M84.7,144.9v-5h1l1.2,3.5c0.1,0.3,0.2,0.6,0.2,0.7c0.1-0.2,0.1-0.5,0.3-0.8l1.2-3.5h0.9v5h-0.6v-4.2l-1.5,4.2
		h-0.6l-1.4-4.3v4.3h-0.7V144.9z"/>
</g>
</svg>
