<?xml version="1.0" encoding="utf-8"?>
<!-- Generator: Adobe Illustrator 22.0.0, SVG Export Plug-In . SVG Version: 6.00 Build 0)  -->
<svg version="1.1" id="图层_1" xmlns="http://www.w3.org/2000/svg" xmlns:xlink="http://www.w3.org/1999/xlink" x="0px" y="0px"
	 viewBox="0 0 88 88" style="enable-background:new 0 0 88 88;" xml:space="preserve">
<style type="text/css">
	.st0{fill:#F5F5F5;}
	.st1{fill:#D5CFC5;}
	.st2{fill:#BDB3AD;}
	.st3{fill:#E87A35;}
	.st4{fill:#34312E;}
	.st5{fill:#D2A37E;}
	.st6{opacity:2.000000e-02;}
</style>
<title>MANA</title>
<g id="图层_2_1_">
	<g id="图层_1-2">
		<path class="st0" d="M0,44c0,24.3,19.7,44,44,44s44-19.7,44-44S68.3,0,44,0S0,19.7,0,44z"/>
		<g id="Page-1-Copy">
			<g id="Group-9">
				<path id="Fill-1" class="st1" d="M76.2,47.3c0.1-1.1,0.2-2.2,0.2-3.3c0-17.9-14.5-32.3-32.3-32.3S11.7,26.1,11.7,44
					C11.7,44.1,75.7,45.6,76.2,47.3"/>
				<path id="Fill-3" class="st2" d="M11.5,44.1c0,17.8,14.5,32.3,32.3,32.3c17.8,0,30.5-11,32.3-28.3C76.2,48,11.5,43,11.5,44.1"/>
				<path id="Fill-5" class="st3" d="M31.5,20.1c3.6,0,6.5,2.9,6.5,6.5S35,33,31.5,33S25,30.1,25,26.6l0,0
					C25,23,27.9,20.1,31.5,20.1"/>
				<path id="Fill-7" class="st4" d="M31.5,21.4c-2.8,0-5.1,2.3-5.1,5.1s2.3,5.1,5.1,5.1s5.1-2.3,5.1-5.1S34.3,21.4,31.5,21.4
					 M31.5,34.4c-4.3,0-7.8-3.5-7.8-7.8s3.5-7.8,7.8-7.8c4.3,0,7.8,3.5,7.8,7.8c0,0,0,0,0,0C39.3,30.9,35.8,34.4,31.5,34.4
					C31.5,34.4,31.5,34.4,31.5,34.4"/>
				<path id="Fill-9" class="st3" d="M52.5,19.8c5.6,0,10.1,4.5,10.1,10.1s-4.5,10.1-10.1,10.1c-5.6,0-10.1-4.5-10.1-10.1
					c0,0,0,0,0,0C42.4,24.3,46.9,19.8,52.5,19.8"/>
				<polyline id="Fill-11" class="st2" points="34.3,51.6 42.5,41.2 44.3,42.2 47.7,43.5 50.1,42.2 57.7,34.1 60.4,37.7 61.7,36.6 
					63.3,36.6 67.6,42.5 70.6,42 76.1,48.2 				"/>
				<polyline id="Fill-13" class="st2" points="39.7,46.5 35.3,44 28.8,45.7 25.9,35.9 20.5,35.9 15.4,44.9 11.7,45 				"/>
				<path id="Fill-15" class="st3" d="M25,48.3c0,0-2.4,7.1-2.4,7.2c0,0.7,1.1,1.2,2.4,1.2s2.4-0.5,2.4-1.2
					C27.4,55.4,25,48.3,25,48.3"/>
				<path id="Fill-17" class="st3" d="M19.4,45.6c0,0-2.4,7-2.4,7.2c0,0.7,1.1,1.2,2.4,1.2s2.4-0.5,2.4-1.2
					C21.8,52.6,19.4,45.6,19.4,45.6"/>
				<path id="Fill-19" class="st5" d="M63.3,46.4c0,2.7-13,2.7-13,0s2.9-5,6.5-5S63.2,43.5,63.3,46.4"/>
				<path id="Fill-21" class="st5" d="M69.8,53.1c0,2.7-13,2.7-13,0s2.9-5,6.5-5S69.7,50.3,69.8,53.1"/>
				<path id="Fill-23" class="st5" d="M56.8,61.1c0,2.7-13,2.7-13,0s2.9-5,6.5-5S56.8,58.3,56.8,61.1"/>
				<path id="Fill-25" class="st1" d="M44.4,75c-13,0-24.7-8-29.4-20.2c0.9,0,1.9,0,2.8,0c0.5,0.1,1.1,0.2,1.6,0.2
					c0.4,0,0.9,0,1.3-0.1c0.2,0,0.4,0,0.6,0c0,0.1-0.1,0.2-0.1,0.3c0,1.5,1.6,2.6,3.8,2.6c1.7,0.2,3.3-1.1,3.5-2.8
					c0.3,0,1,0.4,1.4,0.4c9.1,1,9.7,2.6,9.7,2.7s-0.2,0.8-2,2.1c-3.9,2.7-5.2,4.3-4.9,6c0.4,2,3.1,2.5,7,3.3
					c1.1,0.2,2.4,0.5,3.7,0.8s3,0.6,4.4,0.9c2.7,0.5,5.4,1.1,7.6,1.8C51.9,74.3,48.2,75,44.4,75"/>
			</g>
			<path id="Fill-27" class="st4" d="M71.1,40.6l-2.9,0.5L64,35.3h-1.3c3-5.6,0.8-12.6-4.8-15.6s-12.6-0.8-15.6,4.8
				s-0.8,12.6,4.8,15.6c0.7,0.4,1.5,0.7,2.3,0.9l-0.2,0.2L47.6,42l-2.7-1l-2.7-1.5l-3.7,4.8l-3-1.7L29.7,44l-2.9-9.5h-7.1l-5.1,9
				L13,43.6c0.1-17.1,14.1-30.9,31.2-30.8C61.3,12.9,75.1,26.9,75,44l0,0v1L71.1,40.6z M55.5,60.9c-0.5,0.3-2.2,0.9-5.1,0.9
				s-4.7-0.5-5.1-0.9c0.1-1.9,2.4-3.4,5.1-3.4S55.3,59,55.5,60.9z M63.3,49.4c2.7,0,5,1.5,5.1,3.4c-0.5,0.3-2.2,0.9-5.1,0.9
				s-4.6-0.5-5.1-0.9C58.3,51,60.6,49.4,63.3,49.4z M61.9,46.1c-0.5,0.3-2.2,0.9-5.1,0.9s-4.7-0.5-5.1-0.9c0.1-1.9,2.4-3.4,5.1-3.4
				S61.8,44.3,61.9,46.1z M59.9,34.7l-2-2.7l-6.3,6.7c-4.8-0.5-8.4-4.8-7.9-9.6s4.8-8.4,9.6-7.9c4.5,0.4,7.9,4.3,7.9,8.8
				C61.3,31.7,60.8,33.4,59.9,34.7L59.9,34.7z M58.4,71.4c-2.5-1.2-6.4-2-10.4-2.8c-1.4-0.3-2.9-0.6-4.3-0.9S41.1,67.2,40,67
				c-1.6-0.2-3.2-0.6-4.7-1.2c0.2-0.4,1-1.2,3.6-3c0.9-0.6,3.8-2.6,3-5.1c-0.7-2.3-4.4-3.7-11.9-4.6L27.9,53c-0.4-1.1-0.9-2.7-1.7-5
				l-1.3-3.7L23.7,48c-0.4,1.2-0.8,2.3-1.1,3.1c-0.3-1.1-0.9-2.8-2-5.8l-1.2-3.8l-1.3,3.7c-1.8,5.1-2.3,6.6-2.4,7.2h-1.5
				c-0.6-2-0.9-4-1.1-6.1l3.1-0.1l5.1-9h3.5l3.1,10.1l7.2-1.8l1.7,0.9l-3.5,4.4l2.1,1.7l7.5-9.5l0.9,0.5l4,1.5l1.8-0.9
				c-0.3,0.7-0.5,1.5-0.5,2.3c0,0.8,0.5,2.5,4.3,3.2c1.2,0.2,2.1,1.2,2.1,2.5v4.4c-0.6-0.4-1.2-0.7-1.8-0.9l0,0
				c-1.5-0.5-2.9-1.2-3.3-2.6c-0.4,1.1-1.3,2-2.5,2.3c-3.1,0.8-5.4,3.2-5.4,6c0,1,0.8,3.4,7.8,3.4s7.8-2.4,7.8-3.4v-5.3
				c0.5,0.2,1.1,0.3,1.7,0.4c1.2,0.2,2.1,1.3,2.1,2.5v3c0,0.7,0.5,1.3,1.2,1.4c0.7,0.1,1.4-0.5,1.5-1.2c0,0,0-0.1,0-0.1v-3.1
				c0-1.2,0.9-2.3,2.1-2.5c3.8-0.6,4.3-2.3,4.3-3.2c-0.1-2.3-1.5-4.4-3.7-5.3l0,0c0,0-0.1,0-0.1,0c-0.4-0.2-0.8-0.3-1.2-0.5
				c-0.6-0.3-1.1-0.7-1.5-1.2c-0.3-2.5-2.1-4.6-4.5-5.4l0,0c-0.2-0.1-0.3-0.1-0.5-0.2c-1.3-0.3-2.3-1.2-2.8-2.4
				c-0.4,1.4-1.6,2.1-3.1,2.6c-0.1,0-0.2,0.1-0.3,0.1l4.2-4.5l2.5,3.4l2-1.6h0.5l4.4,6l3.1-0.5l4.6,5.2C73.1,58.4,67,66.8,58.4,71.4
				L58.4,71.4z M24.1,55.3l0.9-2.7l0.9,2.7c-0.3,0.1-0.6,0.1-0.9,0.1C24.7,55.5,24.4,55.4,24.1,55.3L24.1,55.3z M18.5,52.4
				c0.2-0.6,0.5-1.6,0.9-2.6c0.4,1.1,0.7,2.1,0.9,2.7C19.7,52.5,19.1,52.5,18.5,52.4L18.5,52.4z M44,75c-12.8,0-24.3-7.9-28.9-19.9
				c0.9,0,1.8,0,2.8,0c0.5,0.1,1,0.2,1.5,0.2c0.4,0,0.8,0,1.2-0.1c0.2,0,0.4,0,0.6,0c0,0.1-0.1,0.2-0.1,0.3c0,1.5,1.6,2.6,3.8,2.6
				s3.7-1,3.7-2.4l1,0.1c9,1,9.6,2.6,9.6,2.7s-0.2,0.8-2,2c-3.8,2.6-5.1,4.2-4.8,5.9c0.4,2,3,2.5,6.9,3.2c1.1,0.2,2.3,0.4,3.6,0.7
				l4.4,0.9c2.6,0.5,5.3,1.1,7.5,1.7C51.5,74.2,47.7,74.9,44,75L44,75z M44,10.3c-18.6,0-33.7,15.1-33.7,33.7S25.4,77.7,44,77.7
				S77.7,62.6,77.7,44c0,0,0,0,0,0C77.6,25.4,62.6,10.4,44,10.3L44,10.3z"/>
		</g>
	</g>
</g>
<g class="st6">
	<path class="st4" d="M30.5,84.4v-0.6l2.6-3.2c0.2-0.2,0.4-0.4,0.5-0.6h-2.8v-0.6h3.6v0.5l-2.8,3.5l-0.3,0.4h3.2v0.6H30.5z"/>
	<path class="st4" d="M35.1,84.4v-5H37c0.4,0,0.7,0.1,0.9,0.2s0.4,0.3,0.5,0.5s0.2,0.4,0.2,0.7c0,0.2-0.1,0.4-0.2,0.6
		s-0.3,0.3-0.5,0.5c0.3,0.1,0.5,0.2,0.7,0.5c0.2,0.2,0.2,0.5,0.2,0.8c0,0.2,0,0.5-0.1,0.7s-0.2,0.4-0.4,0.5s-0.3,0.2-0.5,0.2
		c-0.2,0.1-0.5,0.1-0.8,0.1h-1.9V84.4z M35.8,81.5h1.1c0.3,0,0.5,0,0.6-0.1c0.2-0.1,0.3-0.1,0.4-0.2c0.1-0.1,0.1-0.3,0.1-0.4
		c0-0.2,0-0.3-0.1-0.4s-0.2-0.2-0.3-0.3s-0.4-0.2-0.8-0.2h-1V81.5z M35.8,83.8H37c0.2,0,0.4,0,0.5,0c0.2,0,0.3-0.1,0.4-0.1
		s0.2-0.2,0.3-0.3s0.1-0.3,0.1-0.4c0-0.2,0-0.3-0.1-0.5s-0.2-0.2-0.4-0.3c-0.2-0.1-0.4-0.1-0.7-0.1h-1.2L35.8,83.8L35.8,83.8z"/>
	<path class="st4" d="M39.9,84.4v-0.7h0.7v0.7H39.9z"/>
	<path class="st4" d="M45.4,82.6l0.7,0.2c-0.1,0.5-0.4,1-0.8,1.2s-0.8,0.4-1.3,0.4s-1-0.1-1.3-0.3c-0.3-0.2-0.6-0.5-0.8-1
		c-0.2-0.4-0.3-0.9-0.3-1.3c0-0.5,0.1-1,0.3-1.4s0.5-0.7,0.9-0.9c0.4-0.2,0.8-0.3,1.2-0.3c0.5,0,0.9,0.1,1.3,0.4
		c0.3,0.3,0.6,0.6,0.7,1.1l-0.7,0.2c-0.1-0.4-0.3-0.6-0.5-0.8s-0.5-0.2-0.8-0.2c-0.4,0-0.7,0.1-1,0.3c-0.3,0.2-0.4,0.4-0.5,0.7
		c-0.1,0.3-0.2,0.6-0.2,1s0.1,0.8,0.2,1.1c0.1,0.3,0.3,0.6,0.6,0.7s0.5,0.2,0.9,0.2s0.7-0.1,0.9-0.3C45.1,83.4,45.3,83,45.4,82.6z"
		/>
	<path class="st4" d="M46.6,81.9c0-0.8,0.2-1.5,0.7-2s1-0.7,1.7-0.7c0.5,0,0.9,0.1,1.3,0.3c0.4,0.2,0.7,0.5,0.8,0.9s0.3,0.8,0.3,1.3
		s-0.1,1-0.3,1.4s-0.5,0.7-0.9,0.9c-0.4,0.2-0.8,0.3-1.2,0.3c-0.5,0-0.9-0.1-1.3-0.3c-0.4-0.2-0.7-0.5-0.8-0.9S46.6,82.4,46.6,81.9z
		 M47.3,81.9c0,0.6,0.2,1.1,0.5,1.4s0.7,0.5,1.2,0.5s0.9-0.2,1.2-0.5c0.3-0.4,0.5-0.8,0.5-1.5c0-0.4-0.1-0.8-0.2-1.1
		c-0.1-0.3-0.3-0.5-0.6-0.7s-0.6-0.3-0.9-0.3c-0.5,0-0.9,0.2-1.2,0.5S47.3,81.2,47.3,81.9z"/>
	<path class="st4" d="M52.3,84.4v-5h1l1.2,3.5c0.1,0.3,0.2,0.6,0.2,0.7c0.1-0.2,0.1-0.5,0.3-0.8l1.2-3.5h0.9v5h-0.6v-4.2l-1.5,4.2
		h-0.6L53.1,80v4.3h-0.7V84.4z"/>
</g>
</svg>
