<?xml version="1.0" encoding="utf-8"?>
<!-- Generator: Adobe Illustrator 22.0.0, SVG Export Plug-In . SVG Version: 6.00 Build 0)  -->
<svg version="1.1" id="图层_1" xmlns="http://www.w3.org/2000/svg" xmlns:xlink="http://www.w3.org/1999/xlink" x="0px" y="0px"
	 viewBox="0 0 88 88" style="enable-background:new 0 0 88 88;" xml:space="preserve">
<style type="text/css">
	.st0{fill:#EDEDED;}
	.st1{enable-background:new    ;}
	.st2{fill:none;stroke:#A0A0A0;stroke-linecap:round;stroke-linejoin:round;stroke-miterlimit:10;}
	
		.st3{fill:none;stroke:#000000;stroke-width:2;stroke-linecap:round;stroke-linejoin:round;stroke-miterlimit:10;enable-background:new    ;}
	.st4{opacity:0.15;enable-background:new    ;}
	.st5{fill:#FFFFFF;}
</style>
<title>BCD</title>
<circle class="st0" cx="43.9" cy="44" r="44"/>
<g>
	<g class="st1">
		<polyline class="st2" points="30.9,32.9 43.3,14.5 56.4,32.9 		"/>
		<polygon class="st2" points="23.5,62.7 43.3,73.5 64.2,62.7 		"/>
		<polyline class="st2" points="64.2,62.7 43.3,29 23.5,62.7 		"/>
		<line class="st2" x1="43.3" y1="29" x2="43.3" y2="15.1"/>
	</g>
	<polyline class="st3" points="23.5,62.7 30.9,32.9 43.3,73.5 	"/>
	<polyline class="st3" points="64.3,62.7 56.9,32.9 44.5,73.5 	"/>
</g>
<g class="st4">
	<path class="st5" d="M33.4,84v-0.6l2.6-3.2c0.2-0.2,0.4-0.4,0.5-0.6h-2.8V79h3.6v0.5L34.5,83l-0.3,0.4h3.2V84
		C37.4,84,33.4,84,33.4,84z"/>
	<path class="st5" d="M38,84v-5h1.9c0.4,0,0.7,0.1,0.9,0.2s0.4,0.3,0.5,0.5s0.2,0.4,0.2,0.7c0,0.2-0.1,0.4-0.2,0.6s-0.3,0.3-0.5,0.5
		c0.3,0.1,0.5,0.2,0.7,0.5c0.2,0.2,0.2,0.5,0.2,0.8c0,0.2,0,0.5-0.1,0.7s-0.2,0.4-0.4,0.5s-0.3,0.2-0.5,0.2
		c-0.2,0.1-0.5,0.1-0.8,0.1H38V84z M38.7,81.1h1.1c0.3,0,0.5,0,0.6-0.1c0.2-0.1,0.3-0.1,0.4-0.2c0.1-0.1,0.1-0.3,0.1-0.4
		c0-0.2,0-0.3-0.1-0.4s-0.2-0.2-0.3-0.3s-0.4-0.2-0.8-0.2h-1V81.1z M38.7,83.4h1.2c0.2,0,0.4,0,0.5,0c0.2,0,0.3-0.1,0.4-0.1
		s0.2-0.2,0.3-0.3s0.1-0.3,0.1-0.4c0-0.2,0-0.3-0.1-0.5s-0.2-0.2-0.4-0.3c-0.2-0.1-0.4-0.1-0.7-0.1h-1.2L38.7,83.4L38.7,83.4z"/>
	<path class="st5" d="M42.8,84v-0.7h0.7V84H42.8z"/>
	<path class="st5" d="M48.3,82.2l0.7,0.2c-0.1,0.5-0.4,1-0.8,1.2S47.4,84,46.9,84s-1-0.1-1.3-0.3c-0.3-0.2-0.6-0.5-0.8-1
		c-0.2-0.4-0.3-0.9-0.3-1.3c0-0.5,0.1-1,0.3-1.4s0.5-0.7,0.9-0.9c0.4-0.2,0.8-0.3,1.2-0.3c0.5,0,0.9,0.1,1.3,0.4
		c0.3,0.3,0.6,0.6,0.7,1.1l-0.7,0.2c-0.1-0.4-0.3-0.6-0.5-0.8s-0.5-0.2-0.8-0.2c-0.4,0-0.7,0.1-1,0.3c-0.3,0.2-0.4,0.4-0.5,0.7
		c-0.1,0.3-0.2,0.6-0.2,1s0.1,0.8,0.2,1.1c0.1,0.3,0.3,0.6,0.6,0.7s0.5,0.2,0.9,0.2s0.7-0.1,0.9-0.3C48,83,48.2,82.6,48.3,82.2z"/>
	<path class="st5" d="M49.5,81.5c0-0.8,0.2-1.5,0.7-2s1-0.7,1.7-0.7c0.5,0,0.9,0.1,1.3,0.3c0.4,0.2,0.7,0.5,0.8,0.9s0.3,0.8,0.3,1.3
		s-0.1,1-0.3,1.4s-0.5,0.7-0.9,0.9c-0.4,0.2-0.8,0.3-1.2,0.3c-0.5,0-0.9-0.1-1.3-0.3c-0.4-0.2-0.7-0.5-0.8-0.9S49.5,82,49.5,81.5z
		 M50.2,81.5c0,0.6,0.2,1.1,0.5,1.4s0.7,0.5,1.2,0.5s0.9-0.2,1.2-0.5c0.3-0.4,0.5-0.8,0.5-1.5c0-0.4-0.1-0.8-0.2-1.1
		c-0.1-0.3-0.3-0.5-0.6-0.7s-0.6-0.3-0.9-0.3c-0.5,0-0.9,0.2-1.2,0.5S50.2,80.8,50.2,81.5z"/>
	<path class="st5" d="M55.2,84v-5h1l1.2,3.5c0.1,0.3,0.2,0.6,0.2,0.7c0.1-0.2,0.1-0.5,0.3-0.8l1.2-3.5H60v5h-0.6v-4.2l-1.5,4.2h-0.6
		l-1.4-4.3v4.3h-0.7C55.2,83.9,55.2,84,55.2,84z"/>
</g>
</svg>
