<?xml version="1.0" encoding="utf-8"?>
<!-- Generator: Adobe Illustrator 22.0.0, SVG Export Plug-In . SVG Version: 6.00 Build 0)  -->
<svg version="1.1" id="图层_1" xmlns="http://www.w3.org/2000/svg" xmlns:xlink="http://www.w3.org/1999/xlink" x="0px" y="0px"
	 viewBox="0 0 88 88" style="enable-background:new 0 0 88 88;" xml:space="preserve">
<style type="text/css">
	.st0{fill:#1796EF;}
	.st1{fill:#FFFFFF;}
	.st2{opacity:5.000000e-02;enable-background:new    ;}
</style>
<title>BCD</title>
<circle class="st0" cx="44" cy="44" r="44"/>
<path class="st1" d="M77.2,59.1l-9.6-13.6L55.9,25.9c0,0,0,0,0-0.1l-0.4-0.7c-0.3-0.5-0.9-0.7-1.4-0.7c-0.6,0-1.1,0.4-1.3,0.9
	l-8.6,16.9l-8.5-10.4c-0.3-0.4-0.8-0.6-1.3-0.6s-0.9,0.3-1.2,0.7L20.4,49.7L11,58.9c-0.5,0.4-0.6,1.1-0.4,1.7c0.2,0.6,0.8,1,1.5,1
	h63.8c0.6,0,1.1-0.3,1.4-0.9C77.6,60.2,77.5,59.6,77.2,59.1L77.2,59.1z M26.7,58.4L23.3,51l1.7-2.4l8.4-4l2.7,2.7l-8.9,11.1H26.7z
	 M37,48.3l6.5,6.6l-3.4,3.6H28.9L37,48.3z M44.7,55.6l5.7,2.8H42L44.7,55.6z M45.6,54.6l8.2-9.4l9.6,13.2h-10L45.6,54.6z M55.4,45.2
	l9.5,2c0,0,0,0.1,0.1,0.1l0.5,0.7L65,58.3L55.4,45.2z M64,45.6l-9.5-2v-14L64,45.6z M53.1,31.4v12.5l-8,9.1v-6
	c0-0.2,0.1-0.4,0.4-0.9c0,0,0,0,0-0.1s0.1-0.1,0.1-0.2l0,0l0.1-0.1L53.1,31.4z M43.2,46.1C43.2,46.2,43.3,46.2,43.2,46.1L43.2,46.1
	c0.1,0.1,0.6,0.6,0.6,1.1v6l-9.6-9.6l0.3-8.1L43.2,46.1z M33.1,37.2l-0.2,6.2l-6.2,3L33.1,37.2z M22.4,52.2l2.9,6.2H16L22.4,52.2z
	 M66.3,58.4l0.4-8.7l6.1,8.7H66.3z"/>
<g class="st2">
	<path class="st1" d="M31.8,79.1v-0.6l2.6-3.2c0.2-0.2,0.4-0.4,0.5-0.6h-2.8v-0.6h3.6v0.5l-2.8,3.5l-0.3,0.4h3.2v0.6
		C35.8,79.1,31.8,79.1,31.8,79.1z"/>
	<path class="st1" d="M36.4,79.1v-5h1.9c0.4,0,0.7,0.1,0.9,0.2c0.2,0.1,0.4,0.3,0.5,0.5s0.2,0.4,0.2,0.7c0,0.2-0.1,0.4-0.2,0.6
		c-0.1,0.2-0.3,0.3-0.5,0.5c0.3,0.1,0.5,0.2,0.7,0.5c0.2,0.2,0.2,0.5,0.2,0.8c0,0.2,0,0.5-0.1,0.7s-0.2,0.4-0.4,0.5
		c-0.2,0.1-0.3,0.2-0.5,0.2c-0.2,0.1-0.5,0.1-0.8,0.1h-1.9V79.1z M37.1,76.2h1.1c0.3,0,0.5,0,0.6-0.1c0.2-0.1,0.3-0.1,0.4-0.2
		c0.1-0.1,0.1-0.3,0.1-0.4c0-0.2,0-0.3-0.1-0.4s-0.2-0.2-0.3-0.3s-0.4-0.2-0.8-0.2h-1V76.2z M37.1,78.5h1.2c0.2,0,0.4,0,0.5,0
		c0.2,0,0.3-0.1,0.4-0.1c0.1,0,0.2-0.2,0.3-0.3s0.1-0.3,0.1-0.4c0-0.2,0-0.3-0.1-0.5s-0.2-0.2-0.4-0.3c-0.2-0.1-0.4-0.1-0.7-0.1
		h-1.2L37.1,78.5L37.1,78.5z"/>
	<path class="st1" d="M41.2,79.1v-0.7h0.7v0.7H41.2z"/>
	<path class="st1" d="M46.7,77.3l0.7,0.2c-0.1,0.5-0.4,1-0.8,1.2c-0.4,0.2-0.8,0.4-1.3,0.4s-1-0.1-1.3-0.3c-0.3-0.2-0.6-0.5-0.8-1
		c-0.2-0.4-0.3-0.9-0.3-1.3c0-0.5,0.1-1,0.3-1.4c0.2-0.4,0.5-0.7,0.9-0.9c0.4-0.2,0.8-0.3,1.2-0.3c0.5,0,0.9,0.1,1.3,0.4
		c0.3,0.3,0.6,0.6,0.7,1.1l-0.7,0.2c-0.1-0.4-0.3-0.6-0.5-0.8c-0.2-0.2-0.5-0.2-0.8-0.2c-0.4,0-0.7,0.1-1,0.3
		c-0.3,0.2-0.4,0.4-0.5,0.7c-0.1,0.3-0.2,0.6-0.2,1s0.1,0.8,0.2,1.1c0.1,0.3,0.3,0.6,0.6,0.7c0.3,0.1,0.5,0.2,0.9,0.2
		s0.7-0.1,0.9-0.3C46.4,78.1,46.6,77.7,46.7,77.3z"/>
	<path class="st1" d="M47.9,76.6c0-0.8,0.2-1.5,0.7-2s1-0.7,1.7-0.7c0.5,0,0.9,0.1,1.3,0.3c0.4,0.2,0.7,0.5,0.8,0.9s0.3,0.8,0.3,1.3
		s-0.1,1-0.3,1.4c-0.2,0.4-0.5,0.7-0.9,0.9c-0.4,0.2-0.8,0.3-1.2,0.3c-0.5,0-0.9-0.1-1.3-0.3c-0.4-0.2-0.7-0.5-0.8-0.9
		S47.9,77.1,47.9,76.6z M48.6,76.6c0,0.6,0.2,1.1,0.5,1.4c0.3,0.3,0.7,0.5,1.2,0.5s0.9-0.2,1.2-0.5c0.3-0.4,0.5-0.8,0.5-1.5
		c0-0.4-0.1-0.8-0.2-1.1c-0.1-0.3-0.3-0.5-0.6-0.7c-0.3-0.2-0.6-0.3-0.9-0.3c-0.5,0-0.9,0.2-1.2,0.5C48.8,75.2,48.6,75.9,48.6,76.6z
		"/>
	<path class="st1" d="M53.6,79.1v-5h1l1.2,3.5c0.1,0.3,0.2,0.6,0.2,0.7c0.1-0.2,0.1-0.5,0.3-0.8l1.2-3.5h0.9v5h-0.6v-4.2L56.3,79
		h-0.6l-1.4-4.3V79h-0.7C53.6,79,53.6,79.1,53.6,79.1z"/>
</g>
</svg>
