<?xml version="1.0" encoding="utf-8"?>
<!-- Generator: Adobe Illustrator 22.0.0, SVG Export Plug-In . SVG Version: 6.00 Build 0)  -->
<svg version="1.1" id="图层_1" xmlns="http://www.w3.org/2000/svg" xmlns:xlink="http://www.w3.org/1999/xlink" x="0px" y="0px"
	 viewBox="0 0 88.1 88" style="enable-background:new 0 0 88.1 88;" xml:space="preserve">
<style type="text/css">
	.st0{fill:#DBD4B8;}
	.st1{fill:#FFFFFF;}
	.st2{fill:#EAE5D0;}
	.st3{fill:#AA9D7D;}
	.st4{fill:none;stroke:#AA9D7D;stroke-miterlimit:10;}
	.st5{opacity:8.000000e-02;enable-background:new    ;}
</style>
<title>BCC</title>
<circle class="st0" cx="44.1" cy="44" r="44"/>
<g>
	<path class="st1" d="M16.6,60.4L10.9,63l-0.8-1.7l3.4-2.8l-4.3,0.8l-0.8-1.7l5.6-2.7l0.5,1.1L10,58.1l5-1l0.5,1.1l-3.9,3.2l4.4-2.1
		L16.6,60.4z"/>
	<path class="st1" d="M9,42.1c-0.6-0.1-1.1-0.3-1.5-0.5C7.2,41.5,7,41.2,6.7,41c-0.2-0.3-0.4-0.6-0.4-0.9c-0.1-0.4-0.1-0.9-0.1-1.4
		c0.1-0.9,0.5-1.6,1.1-2.1C8,36.2,8.8,36,9.8,36.2c1,0.1,1.7,0.5,2.2,1.1s0.7,1.4,0.5,2.3c-0.1,0.9-0.5,1.6-1.1,2.1
		C10.8,42.1,10,42.3,9,42.1z M9.2,40.9c0.7,0.1,1.3,0,1.7-0.3s0.6-0.7,0.7-1.2s-0.1-0.9-0.4-1.3c-0.3-0.4-0.8-0.6-1.5-0.7
		c-0.7-0.1-1.3,0-1.6,0.2c-0.4,0.3-0.6,0.6-0.7,1.2c-0.1,0.5,0,1,0.4,1.3S8.5,40.8,9.2,40.9z"/>
	<path class="st1" d="M18.2,25.2l-4.7-4l0.8-0.9l4.8,0.8l-3.2-2.7l0.8-0.9l4.7,4l-0.8,1l-4.7-0.7l3.1,2.6L18.2,25.2z"/>
	<path class="st1" d="M37.5,12.6L36.2,13l-0.9-1.2l-2.4,0.7L32.8,14l-1.3,0.4L32,7.8l1.3-0.4L37.5,12.6z M34.5,11L33,9l-0.1,2.5
		L34.5,11z"/>
	<path class="st1" d="M54.1,11.3l1.1,0.7c-0.4,0.6-0.8,1-1.3,1.2s-1.1,0.2-1.7,0.1c-0.8-0.2-1.4-0.7-1.8-1.3
		c-0.4-0.7-0.4-1.5-0.2-2.4c0.3-1,0.7-1.7,1.4-2.1C52.3,6.9,53,6.8,53.9,7c0.7,0.2,1.3,0.6,1.6,1.1c0.2,0.3,0.3,0.8,0.3,1.3h-1.3
		c0-0.3-0.1-0.6-0.3-0.9C54,8.3,53.8,8.1,53.4,8c-0.4-0.1-0.9,0-1.2,0.2S51.7,9,51.5,9.7c-0.2,0.8-0.2,1.3,0,1.7s0.5,0.6,0.9,0.8
		c0.3,0.1,0.6,0.1,0.9-0.1C53.7,12,53.9,11.7,54.1,11.3z"/>
	<path class="st1" d="M67.7,18c0.5-0.4,0.9-0.7,1.4-0.9c0.3-0.1,0.7-0.2,1-0.2c0.4,0,0.7,0.1,1,0.2c0.4,0.2,0.8,0.4,1.1,0.8
		c0.6,0.7,0.9,1.4,0.9,2.2c0,0.8-0.4,1.5-1.2,2.2c-0.7,0.7-1.5,1-2.3,1s-1.5-0.4-2.1-1c-0.6-0.7-0.9-1.4-0.9-2.2
		C66.5,19.4,66.9,18.6,67.7,18z M68.6,18.9c-0.5,0.5-0.8,1-0.8,1.5s0.1,0.9,0.4,1.3s0.8,0.5,1.2,0.5s1-0.3,1.5-0.8s0.8-1,0.8-1.4
		c0-0.5-0.1-0.9-0.5-1.3s-0.8-0.6-1.2-0.6C69.6,18.2,69.1,18.4,68.6,18.9z"/>
	<path class="st1" d="M74.9,35.8l6-1.5l0.3,1.2l-6,1.5L74.9,35.8z"/>
	<path class="st1" d="M75.6,49.8l6,1.6l-0.3,1.2L76.6,54l4,1.1l-0.3,1.1l-6-1.6l0.3-1.2l4.6-1.4l-3.9-1L75.6,49.8z"/>
</g>
<g>
	<path class="st1" d="M32.2,80.2l-0.5,1.2L27,79.5c0.2-0.5,0.6-0.8,1-1.2c0.4-0.3,1.1-0.7,2.2-1.1c0.8-0.3,1.4-0.6,1.6-0.7
		c0.3-0.2,0.5-0.4,0.6-0.7c0.1-0.3,0.1-0.6,0-0.8c-0.1-0.2-0.3-0.4-0.6-0.5c-0.3-0.1-0.5-0.1-0.8,0c-0.2,0.1-0.4,0.3-0.6,0.7
		l-1.3-0.7c0.4-0.7,0.8-1.1,1.4-1.3c0.5-0.2,1.1-0.1,1.8,0.1c0.7,0.3,1.2,0.7,1.4,1.2s0.3,1.1,0,1.6c-0.1,0.3-0.3,0.6-0.5,0.8
		c-0.2,0.2-0.5,0.5-0.9,0.7c-0.2,0.1-0.7,0.3-1.2,0.5c-0.6,0.2-0.9,0.4-1.1,0.5s-0.3,0.2-0.4,0.3L32.2,80.2z"/>
	<path class="st1" d="M41.9,75.7c0.7,0.1,1.3,0.3,1.7,0.9s0.6,1.7,0.5,3.1s-0.4,2.4-0.9,3c-0.4,0.5-1,0.7-1.8,0.7
		c-0.7-0.1-1.3-0.4-1.7-1s-0.6-1.6-0.5-3.1c0.1-1.4,0.4-2.4,0.9-3C40.6,75.9,41.2,75.7,41.9,75.7z M41.8,76.9c-0.2,0-0.3,0-0.5,0.1
		c-0.1,0.1-0.3,0.3-0.4,0.6c-0.1,0.4-0.2,1-0.3,1.9s-0.1,1.5,0,1.8s0.2,0.6,0.3,0.7s0.3,0.2,0.5,0.2s0.3,0,0.5-0.1
		c0.1-0.1,0.3-0.3,0.4-0.6c0.1-0.4,0.2-1,0.3-1.9s0.1-1.5,0-1.8s-0.2-0.6-0.3-0.7S42,76.9,41.8,76.9z"/>
	<path class="st1" d="M54.9,81.9l-1.4,0.4L52.2,77c-0.4,0.6-0.9,1.1-1.5,1.5l-0.3-1.3c0.3-0.2,0.7-0.5,1-1c0.3-0.4,0.5-0.9,0.6-1.4
		l1.1-0.3L54.9,81.9z"/>
	<path class="st1" d="M65.3,77.2l-0.8-1.3l-2.6,1.6l-0.7-1.1l0.2-5.8l1-0.6l2.5,4l0.8-0.5l0.7,1.1l-0.8,0.5l0.8,1.3L65.3,77.2z
		 M63.8,74.8l-1.4-2.2l-0.1,3.1L63.8,74.8z"/>
</g>
<path class="st2" d="M44.1,73c-16,0-29-13-29-29s13-29,29-29S73,28,73,44S60.1,73,44.1,73z M44.1,15.5c-15.7,0-28.5,12.8-28.5,28.5
	s12.8,28.5,28.5,28.5S72.5,59.7,72.5,44S59.8,15.5,44.1,15.5z"/>
<g>
	<path class="st1" d="M60.5,35.6c-0.5-3.3-0.9-12.1-0.9-12.1l-7.3,9.2h-8.2h-8.2l-7.3-9.2c0,0-0.4,8.8-0.9,12.1
		c-0.5,3.2-6.7,6.2-6.7,10.7c-0.7,17.5,23.2,18.1,23.2,18.1s23.8-0.6,23.1-18C67.3,41.8,61.1,38.8,60.5,35.6z"/>
	<g>
		<path class="st3" d="M30.6,45.6l-1-0.3c0.3-1,0.9-1.7,1.6-2.1c1.3-0.6,2.7-0.1,2.7-0.1L33.5,44c0,0-1.1-0.4-1.9,0
			C31.2,44.4,30.8,44.9,30.6,45.6z"/>
		<path class="st3" d="M57.6,45.6c-0.2-0.7-0.6-1.2-1.1-1.5c-0.9-0.4-1.9,0-1.9,0l-0.4-0.9c0.1,0,1.5-0.6,2.7,0.1
			c0.8,0.4,1.3,1.1,1.6,2.1L57.6,45.6z"/>
		<path class="st4" d="M39.6,46.9"/>
		<polygon class="st3" points="44.6,58 39.2,47.1 40,46.7 44.6,55.8 49.4,46.7 50.2,47.1 		"/>
		<rect x="40.6" y="48.3" class="st3" width="8.2" height="1"/>
	</g>
</g>
<g class="st5">
	<path class="st1" d="M33.7,85.8v-0.6l2.6-3.2c0.2-0.2,0.4-0.4,0.5-0.6H34v-0.6h3.6v0.5l-2.8,3.5l-0.3,0.4h3.2v0.6
		C37.7,85.8,33.7,85.8,33.7,85.8z"/>
	<path class="st1" d="M38.3,85.8v-5h1.9c0.4,0,0.7,0.1,0.9,0.2s0.4,0.3,0.5,0.5s0.2,0.4,0.2,0.7c0,0.2-0.1,0.4-0.2,0.6
		s-0.3,0.3-0.5,0.5c0.3,0.1,0.5,0.2,0.7,0.5C42,84,42,84.3,42,84.6c0,0.2,0,0.5-0.1,0.7s-0.2,0.4-0.4,0.5S41.2,86,41,86
		c-0.2,0.1-0.5,0.1-0.8,0.1h-1.9V85.8z M39,82.9h1.1c0.3,0,0.5,0,0.6-0.1c0.2-0.1,0.3-0.1,0.4-0.2c0.1-0.1,0.1-0.3,0.1-0.4
		c0-0.2,0-0.3-0.1-0.4s-0.2-0.2-0.3-0.3s-0.4-0.2-0.8-0.2h-1V82.9z M39,85.2h1.2c0.2,0,0.4,0,0.5,0c0.2,0,0.3-0.1,0.4-0.1
		s0.2-0.2,0.3-0.3s0.1-0.3,0.1-0.4c0-0.2,0-0.3-0.1-0.5s-0.2-0.2-0.4-0.3c-0.2-0.1-0.4-0.1-0.7-0.1h-1.2L39,85.2L39,85.2z"/>
	<path class="st1" d="M43.1,85.8v-0.7h0.7v0.7H43.1z"/>
	<path class="st1" d="M48.6,84l0.7,0.2c-0.1,0.5-0.4,1-0.8,1.2s-0.8,0.4-1.3,0.4s-1-0.1-1.3-0.3c-0.3-0.2-0.6-0.5-0.8-1
		c-0.2-0.4-0.3-0.9-0.3-1.3c0-0.5,0.1-1,0.3-1.4s0.5-0.7,0.9-0.9c0.4-0.2,0.8-0.3,1.2-0.3c0.5,0,0.9,0.1,1.3,0.4
		c0.3,0.3,0.6,0.6,0.7,1.1l-0.7,0.2c-0.1-0.4-0.3-0.6-0.5-0.8s-0.5-0.2-0.8-0.2c-0.4,0-0.7,0.1-1,0.3c-0.3,0.2-0.4,0.4-0.5,0.7
		c-0.1,0.3-0.2,0.6-0.2,1s0.1,0.8,0.2,1.1c0.1,0.3,0.3,0.6,0.6,0.7s0.5,0.2,0.9,0.2s0.7-0.1,0.9-0.3C48.3,84.8,48.5,84.4,48.6,84z"
		/>
	<path class="st1" d="M49.8,83.3c0-0.8,0.2-1.5,0.7-2s1-0.7,1.7-0.7c0.5,0,0.9,0.1,1.3,0.3c0.4,0.2,0.7,0.5,0.8,0.9s0.3,0.8,0.3,1.3
		s-0.1,1-0.3,1.4s-0.5,0.7-0.9,0.9c-0.4,0.2-0.8,0.3-1.2,0.3c-0.5,0-0.9-0.1-1.3-0.3c-0.4-0.2-0.7-0.5-0.8-0.9S49.8,83.8,49.8,83.3z
		 M50.5,83.3c0,0.6,0.2,1.1,0.5,1.4s0.7,0.5,1.2,0.5s0.9-0.2,1.2-0.5c0.3-0.4,0.5-0.8,0.5-1.5c0-0.4-0.1-0.8-0.2-1.1
		c-0.1-0.3-0.3-0.5-0.6-0.7s-0.6-0.3-0.9-0.3c-0.5,0-0.9,0.2-1.2,0.5S50.5,82.6,50.5,83.3z"/>
	<path class="st1" d="M55.5,85.8v-5h1l1.2,3.5c0.1,0.3,0.2,0.6,0.2,0.7c0.1-0.2,0.1-0.5,0.3-0.8l1.2-3.5h0.9v5h-0.6v-4.2l-1.5,4.2
		h-0.6l-1.4-4.3v4.3h-0.7C55.5,85.7,55.5,85.8,55.5,85.8z"/>
</g>
</svg>
