<?xml version="1.0" encoding="utf-8"?>
<!-- Generator: Adobe Illustrator 22.0.0, SVG Export Plug-In . SVG Version: 6.00 Build 0)  -->
<svg version="1.1" id="图层_1" xmlns="http://www.w3.org/2000/svg" xmlns:xlink="http://www.w3.org/1999/xlink" x="0px" y="0px"
	 viewBox="0 0 88 88" style="enable-background:new 0 0 88 88;" xml:space="preserve">
<style type="text/css">
	.st0{clip-path:url(#SVGID_2_);}
	.st1{fill:#142C36;}
	.st2{fill:#FFFFFF;}
	.st3{opacity:3.000000e-02;enable-background:new    ;}
</style>
<title>MTC</title>
<g id="图层_2_1_">
	<g id="图层_1-2">
		<g>
			<defs>
				<rect id="SVGID_1_" y="0" width="88" height="88.1"/>
			</defs>
			<clipPath id="SVGID_2_">
				<use xlink:href="#SVGID_1_"  style="overflow:visible;"/>
			</clipPath>
			<g class="st0">
				<path class="st1" d="M0,44c0,24.3,19.7,44,44,44s44-19.7,44-44S68.3,0,44,0S0,19.7,0,44z"/>
			</g>
		</g>
		<path class="st2" d="M57.2,39.9l-5-2.9c-0.5-0.3-1.1-0.3-1.6,0l-4.8,2.8l0,0c-1,0.7-2.3,0.7-3.3,0L37.8,37c-0.5-0.3-1.1-0.3-1.6,0
			l-5,2.9c-0.5,0.3-0.8,0.8-0.8,1.4V47c0,0.6,0.3,1.1,0.8,1.4l5,2.9h0.1c0.8,0.5,1.4,1.5,1.4,2.5v5.8c0,0.6,0.2,1.1,0.7,1.5l5,2.9
			c0.2,0.1,0.5,0.2,0.8,0.2c0.3,0,0.6-0.1,0.8-0.2l5-2.9c0.5-0.3,0.8-0.8,0.8-1.4V54c0,0,0-0.1,0-0.1c-0.1-1.1,0.4-2.1,1.4-2.6l0,0
			l5-2.9c0.5-0.3,0.8-0.8,0.8-1.5v-5.7C58,40.7,57.7,40.2,57.2,39.9L57.2,39.9z M65.7,33.7V28c0-0.6-0.3-1.1-0.8-1.4l-5-2.9
			c-0.5-0.3-1.1-0.3-1.6,0l-5,2.9c-0.5,0.3-0.8,0.8-0.7,1.4v5.8c0,0.6,0.3,1.1,0.8,1.4l5,2.9c0.5,0.3,1.1,0.3,1.6,0l5-2.9
			C65.4,34.8,65.7,34.3,65.7,33.7L65.7,33.7z M79.8,52.5l-5-2.9c-0.1,0-0.1-0.1-0.2-0.1c-1.1-0.7-1.3-1.2-1.3-2.6v-5.7
			c0-0.6-0.3-1.1-0.8-1.4l-5-2.9c-0.2-0.1-0.5-0.2-0.8-0.2c-0.3,0-0.5,0.1-0.8,0.2l-5,2.9c-0.5,0.3-0.8,0.8-0.8,1.4V47
			c0,0.6,0.3,1.1,0.8,1.4l4.9,2.9l0,0c1.1,0.5,1.7,1.6,1.5,2.8c0,0.1,0,0.3,0.1,0.4v5.2c0,0.6,0.3,1.1,0.8,1.3l5,2.9
			c0.5,0.3,1.1,0.3,1.6,0l5-2.9c0.5-0.3,0.8-0.8,0.8-1.4v-5.8C80.7,53.3,80.4,52.8,79.8,52.5L79.8,52.5z M19.7,52.9l-5-2.9
			c-0.5-0.3-1.1-0.3-1.6,0l-5,2.9c-0.5,0.3-0.8,0.8-0.8,1.4V60c0,0.6,0.3,1.1,0.8,1.4l5,2.9c0.5,0.3,1.1,0.3,1.6,0l5-2.9
			c0.5-0.3,0.8-0.8,0.8-1.4v-5.7C20.5,53.7,20.2,53.2,19.7,52.9z"/>
		<path class="st2" d="M34.6,35.5c0.5-0.3,0.8-0.8,0.8-1.4v-5.8c0-0.6-0.3-1.1-0.8-1.4l-5-2.9c-0.5-0.3-1.1-0.3-1.6,0L23,27
			c-0.5,0.3-0.8,0.8-0.8,1.4v5.3c0,0.1,0,0.2,0,0.3c0.2,1.1-0.4,2.3-1.5,2.7l0,0l-4.9,2.8c-0.5,0.3-0.8,0.8-0.8,1.4v5.8
			c0,0.6,0.3,1.1,0.8,1.4l5,2.9c0.5,0.3,1.1,0.3,1.6,0l5-2.9c0.5-0.3,0.8-0.8,0.8-1.4V41l0,0c0-1.4,0.2-1.9,1.4-2.6h0.1L34.6,35.5z"
			/>
	</g>
</g>
<g class="st3">
	<path class="st2" d="M30.9,79.2v-0.6l2.6-3.2c0.2-0.2,0.4-0.4,0.5-0.6h-2.8v-0.6h3.6v0.5L32,78.2l-0.3,0.4h3.2v0.6
		C34.9,79.2,30.9,79.2,30.9,79.2z"/>
	<path class="st2" d="M35.5,79.2v-5h1.9c0.4,0,0.7,0.1,0.9,0.2s0.4,0.3,0.5,0.5s0.2,0.4,0.2,0.7c0,0.2-0.1,0.4-0.2,0.6
		s-0.3,0.3-0.5,0.5c0.3,0.1,0.5,0.2,0.7,0.5c0.2,0.2,0.2,0.5,0.2,0.8c0,0.2,0,0.5-0.1,0.7s-0.2,0.4-0.4,0.5s-0.3,0.2-0.5,0.2
		c-0.2,0.1-0.5,0.1-0.8,0.1h-1.9V79.2z M36.2,76.3h1.1c0.3,0,0.5,0,0.6-0.1c0.2-0.1,0.3-0.1,0.4-0.2c0.1-0.1,0.1-0.3,0.1-0.4
		c0-0.2,0-0.3-0.1-0.4S38.1,75,38,74.9s-0.4-0.2-0.8-0.2h-1V76.3z M36.2,78.6h1.2c0.2,0,0.4,0,0.5,0c0.2,0,0.3-0.1,0.4-0.1
		s0.2-0.2,0.3-0.3s0.1-0.3,0.1-0.4c0-0.2,0-0.3-0.1-0.5s-0.2-0.2-0.4-0.3c-0.2-0.1-0.4-0.1-0.7-0.1h-1.2L36.2,78.6L36.2,78.6z"/>
	<path class="st2" d="M40.3,79.2v-0.7H41v0.7H40.3z"/>
	<path class="st2" d="M45.8,77.4l0.7,0.2c-0.1,0.5-0.4,1-0.8,1.2s-0.8,0.4-1.3,0.4s-1-0.1-1.3-0.3c-0.3-0.2-0.6-0.5-0.8-1
		C42.1,77.5,42,77,42,76.6c0-0.5,0.1-1,0.3-1.4s0.5-0.7,0.9-0.9c0.4-0.2,0.8-0.3,1.2-0.3c0.5,0,0.9,0.1,1.3,0.4
		c0.3,0.3,0.6,0.6,0.7,1.1l-0.7,0.2c-0.1-0.4-0.3-0.6-0.5-0.8s-0.5-0.2-0.8-0.2c-0.4,0-0.7,0.1-1,0.3c-0.3,0.2-0.4,0.4-0.5,0.7
		c-0.1,0.3-0.2,0.6-0.2,1s0.1,0.8,0.2,1.1c0.1,0.3,0.3,0.6,0.6,0.7s0.5,0.2,0.9,0.2s0.7-0.1,0.9-0.3C45.5,78.2,45.7,77.8,45.8,77.4z
		"/>
	<path class="st2" d="M47,76.7c0-0.8,0.2-1.5,0.7-2s1-0.7,1.7-0.7c0.5,0,0.9,0.1,1.3,0.3c0.4,0.2,0.7,0.5,0.8,0.9s0.3,0.8,0.3,1.3
		s-0.1,1-0.3,1.4s-0.5,0.7-0.9,0.9c-0.4,0.2-0.8,0.3-1.2,0.3c-0.5,0-0.9-0.1-1.3-0.3c-0.4-0.2-0.7-0.5-0.8-0.9S47,77.2,47,76.7z
		 M47.7,76.7c0,0.6,0.2,1.1,0.5,1.4s0.7,0.5,1.2,0.5s0.9-0.2,1.2-0.5c0.3-0.4,0.5-0.8,0.5-1.5c0-0.4-0.1-0.8-0.2-1.1
		c-0.1-0.3-0.3-0.5-0.6-0.7s-0.6-0.3-0.9-0.3c-0.5,0-0.9,0.2-1.2,0.5S47.7,76,47.7,76.7z"/>
	<path class="st2" d="M52.7,79.2v-5h1l1.2,3.5c0.1,0.3,0.2,0.6,0.2,0.7c0.1-0.2,0.1-0.5,0.3-0.8l1.2-3.5h0.9v5h-0.6v-4.2l-1.5,4.2
		h-0.6l-1.4-4.3v4.3h-0.7C52.7,79.1,52.7,79.2,52.7,79.2z"/>
</g>
</svg>
