<?xml version="1.0" encoding="utf-8"?>
<!-- Generator: Adobe Illustrator 22.0.0, SVG Export Plug-In . SVG Version: 6.00 Build 0)  -->
<svg version="1.1" id="图层_1" xmlns="http://www.w3.org/2000/svg" xmlns:xlink="http://www.w3.org/1999/xlink" x="0px" y="0px"
	 viewBox="0 0 88 88" style="enable-background:new 0 0 88 88;" xml:space="preserve">
<style type="text/css">
	.st0{fill:#7772D8;}
	.st1{fill:#FFFFFF;}
	.st2{font-family:'ArialRoundedMTBold';}
	.st3{font-size:72px;}
	.st4{opacity:5.000000e-02;enable-background:new    ;}
</style>
<title>btc</title>
<desc>Created with Sketch.</desc>
<g id="Page-1">
	<g id="btc">
		<circle id="Oval" class="st0" cx="44" cy="44" r="44"/>
		<text transform="matrix(1 0 0 1 14.0117 71)" class="st1 st2 st3">M</text>
	</g>
</g>
<g class="st4">
	<path class="st1" d="M33.7,80.7v-0.6l2.6-3.2c0.2-0.2,0.4-0.4,0.5-0.6H34v-0.6h3.6v0.5l-2.8,3.5l-0.3,0.4h3.2v0.6
		C37.7,80.7,33.7,80.7,33.7,80.7z"/>
	<path class="st1" d="M38.3,80.7v-5h1.9c0.4,0,0.7,0.1,0.9,0.2s0.4,0.3,0.5,0.5s0.2,0.4,0.2,0.7c0,0.2-0.1,0.4-0.2,0.6
		s-0.3,0.3-0.5,0.5c0.3,0.1,0.5,0.2,0.7,0.5c0.2,0.2,0.2,0.5,0.2,0.8c0,0.2,0,0.5-0.1,0.7s-0.2,0.4-0.4,0.5s-0.3,0.2-0.5,0.2
		C40.8,81,40.5,81,40.2,81h-1.9V80.7z M39,77.8h1.1c0.3,0,0.5,0,0.6-0.1c0.2-0.1,0.3-0.1,0.4-0.2c0.1-0.1,0.1-0.3,0.1-0.4
		c0-0.2,0-0.3-0.1-0.4s-0.2-0.2-0.3-0.3s-0.4-0.2-0.8-0.2h-1V77.8z M39,80.1h1.2c0.2,0,0.4,0,0.5,0c0.2,0,0.3-0.1,0.4-0.1
		s0.2-0.2,0.3-0.3s0.1-0.3,0.1-0.4c0-0.2,0-0.3-0.1-0.5s-0.2-0.2-0.4-0.3c-0.2-0.1-0.4-0.1-0.7-0.1h-1.2L39,80.1L39,80.1z"/>
	<path class="st1" d="M43.1,80.7V80h0.7v0.7H43.1z"/>
	<path class="st1" d="M48.6,78.9l0.7,0.2c-0.1,0.5-0.4,1-0.8,1.2s-0.8,0.4-1.3,0.4s-1-0.1-1.3-0.3c-0.3-0.2-0.6-0.5-0.8-1
		c-0.2-0.4-0.3-0.9-0.3-1.3c0-0.5,0.1-1,0.3-1.4s0.5-0.7,0.9-0.9c0.4-0.2,0.8-0.3,1.2-0.3c0.5,0,0.9,0.1,1.3,0.4
		c0.3,0.3,0.6,0.6,0.7,1.1l-0.7,0.2c-0.1-0.4-0.3-0.6-0.5-0.8s-0.5-0.2-0.8-0.2c-0.4,0-0.7,0.1-1,0.3c-0.3,0.2-0.4,0.4-0.5,0.7
		c-0.1,0.3-0.2,0.6-0.2,1s0.1,0.8,0.2,1.1c0.1,0.3,0.3,0.6,0.6,0.7s0.5,0.2,0.9,0.2s0.7-0.1,0.9-0.3C48.3,79.7,48.5,79.3,48.6,78.9z
		"/>
	<path class="st1" d="M49.8,78.2c0-0.8,0.2-1.5,0.7-2s1-0.7,1.7-0.7c0.5,0,0.9,0.1,1.3,0.3c0.4,0.2,0.7,0.5,0.8,0.9s0.3,0.8,0.3,1.3
		s-0.1,1-0.3,1.4s-0.5,0.7-0.9,0.9c-0.4,0.2-0.8,0.3-1.2,0.3c-0.5,0-0.9-0.1-1.3-0.3c-0.4-0.2-0.7-0.5-0.8-0.9S49.8,78.7,49.8,78.2z
		 M50.5,78.2c0,0.6,0.2,1.1,0.5,1.4s0.7,0.5,1.2,0.5s0.9-0.2,1.2-0.5c0.3-0.4,0.5-0.8,0.5-1.5c0-0.4-0.1-0.8-0.2-1.1
		c-0.1-0.3-0.3-0.5-0.6-0.7S52.5,76,52.2,76c-0.5,0-0.9,0.2-1.2,0.5S50.5,77.5,50.5,78.2z"/>
	<path class="st1" d="M55.5,80.7v-5h1l1.2,3.5c0.1,0.3,0.2,0.6,0.2,0.7c0.1-0.2,0.1-0.5,0.3-0.8l1.2-3.5h0.9v5h-0.6v-4.2l-1.5,4.2
		h-0.6l-1.4-4.3v4.3h-0.7C55.5,80.6,55.5,80.7,55.5,80.7z"/>
</g>
</svg>
