<?xml version="1.0" encoding="utf-8"?>
<!-- Generator: Adobe Illustrator 22.0.0, SVG Export Plug-In . SVG Version: 6.00 Build 0)  -->
<svg version="1.1" id="图层_1" xmlns="http://www.w3.org/2000/svg" xmlns:xlink="http://www.w3.org/1999/xlink" x="0px" y="0px"
	 viewBox="0 0 88 88" style="enable-background:new 0 0 88 88;" xml:space="preserve">
<style type="text/css">
	.st0{fill:#1A53F0;}
	.st1{fill:#FFFFFF;}
	.st2{opacity:5.000000e-02;enable-background:new    ;}
</style>
<title>BCD</title>
<circle class="st0" cx="44" cy="44" r="44"/>
<g id="Group_1_" transform="translate(77.987179, 6.689781)">
	<path id="Shape_5_" class="st1" d="M-46.1,38c-6.2,0-11.3,5.1-11.3,11.5S-52.3,61-46.1,61s11.3-5.1,11.3-11.5S-39.8,38-46.1,38z
		 M-46.1,57.3c-4.4,0-7.8-3.5-7.8-8.1s3.5-8.1,7.8-8.1s7.8,3.5,7.8,8.1S-41.7,57.3-46.1,57.3L-46.1,57.3z"/>
	<path id="Shape_6_" class="st1" d="M-21.9,13.6c-4.6,0-8.7,2.8-10.4,7.1c-1.8,4.4-0.7,9.2,2.5,12.4c3.2,3.2,8.1,4.1,12.2,2.5
		c4.1-1.8,6.9-6,6.9-10.6C-10.6,18.9-15.7,13.6-21.9,13.6L-21.9,13.6z M-21.9,32.9c-4.4,0-7.8-3.5-7.8-8.1s3.5-8.1,7.8-8.1
		s7.8,3.5,7.8,8.1S-17.5,32.9-21.9,32.9L-21.9,32.9z"/>
	<path id="Shape_7_" class="st1" d="M-46.1,13.6L-46.1,13.6c-5.3,0-10.1,3.9-11,9.2c-1.2,5.3,1.8,10.6,6.7,12.9
		c5.1,2.1,10.6,0.5,13.8-4.1c3-4.4,2.5-10.6-1.2-14.5h3.2v-3.5C-34.6,13.6-46.1,13.6-46.1,13.6z M-38.2,25.1c0,4.4-3.5,8.1-7.8,8.1
		s-7.8-3.5-7.8-8.1c0-4.4,3.5-8.1,7.8-8.1S-38.2,20.7-38.2,25.1L-38.2,25.1z"/>
</g>
<g class="st2">
	<path class="st1" d="M30.7,78.5v-0.6l2.6-3.2c0.2-0.2,0.4-0.4,0.5-0.6H31v-0.6h3.6V74l-2.8,3.5l-0.3,0.4h3.2v0.6
		C34.7,78.5,30.7,78.5,30.7,78.5z"/>
	<path class="st1" d="M35.3,78.5v-5h1.9c0.4,0,0.7,0.1,0.9,0.2c0.2,0.1,0.4,0.3,0.5,0.5s0.2,0.4,0.2,0.7c0,0.2-0.1,0.4-0.2,0.6
		c-0.1,0.2-0.3,0.3-0.5,0.5c0.3,0.1,0.5,0.2,0.7,0.5C39,76.7,39,77,39,77.3c0,0.2,0,0.5-0.1,0.7s-0.2,0.4-0.4,0.5
		c-0.2,0.1-0.3,0.2-0.5,0.2c-0.2,0.1-0.5,0.1-0.8,0.1h-1.9V78.5z M36,75.6h1.1c0.3,0,0.5,0,0.6-0.1c0.2-0.1,0.3-0.1,0.4-0.2
		c0.1-0.1,0.1-0.3,0.1-0.4c0-0.2,0-0.3-0.1-0.4s-0.2-0.2-0.3-0.3S37.4,74,37,74h-1V75.6z M36,77.9h1.2c0.2,0,0.4,0,0.5,0
		c0.2,0,0.3-0.1,0.4-0.1c0.1,0,0.2-0.2,0.3-0.3s0.1-0.3,0.1-0.4c0-0.2,0-0.3-0.1-0.5s-0.2-0.2-0.4-0.3c-0.2-0.1-0.4-0.1-0.7-0.1
		h-1.2L36,77.9L36,77.9z"/>
	<path class="st1" d="M40.1,78.5v-0.7h0.7v0.7H40.1z"/>
	<path class="st1" d="M45.6,76.7l0.7,0.2c-0.1,0.5-0.4,1-0.8,1.2c-0.4,0.2-0.8,0.4-1.3,0.4s-1-0.1-1.3-0.3c-0.3-0.2-0.6-0.5-0.8-1
		c-0.2-0.4-0.3-0.9-0.3-1.3c0-0.5,0.1-1,0.3-1.4c0.2-0.4,0.5-0.7,0.9-0.9c0.4-0.2,0.8-0.3,1.2-0.3c0.5,0,0.9,0.1,1.3,0.4
		c0.3,0.3,0.6,0.6,0.7,1.1L45.5,75c-0.1-0.4-0.3-0.6-0.5-0.8C44.8,74,44.5,74,44.2,74c-0.4,0-0.7,0.1-1,0.3
		c-0.3,0.2-0.4,0.4-0.5,0.7c-0.1,0.3-0.2,0.6-0.2,1s0.1,0.8,0.2,1.1c0.1,0.3,0.3,0.6,0.6,0.7c0.3,0.1,0.5,0.2,0.9,0.2
		s0.7-0.1,0.9-0.3C45.3,77.5,45.5,77.1,45.6,76.7z"/>
	<path class="st1" d="M46.8,76c0-0.8,0.2-1.5,0.7-2s1-0.7,1.7-0.7c0.5,0,0.9,0.1,1.3,0.3c0.4,0.2,0.7,0.5,0.8,0.9s0.3,0.8,0.3,1.3
		s-0.1,1-0.3,1.4c-0.2,0.4-0.5,0.7-0.9,0.9c-0.4,0.2-0.8,0.3-1.2,0.3c-0.5,0-0.9-0.1-1.3-0.3c-0.4-0.2-0.7-0.5-0.8-0.9
		S46.8,76.5,46.8,76z M47.5,76c0,0.6,0.2,1.1,0.5,1.4c0.3,0.3,0.7,0.5,1.2,0.5s0.9-0.2,1.2-0.5c0.3-0.4,0.5-0.8,0.5-1.5
		c0-0.4-0.1-0.8-0.2-1.1c-0.1-0.3-0.3-0.5-0.6-0.7c-0.3-0.2-0.6-0.3-0.9-0.3c-0.5,0-0.9,0.2-1.2,0.5C47.7,74.6,47.5,75.3,47.5,76z"
		/>
	<path class="st1" d="M52.5,78.5v-5h1l1.2,3.5c0.1,0.3,0.2,0.6,0.2,0.7c0.1-0.2,0.1-0.5,0.3-0.8l1.2-3.5h0.9v5h-0.6v-4.2l-1.5,4.2
		h-0.6l-1.4-4.3v4.3h-0.7C52.5,78.4,52.5,78.5,52.5,78.5z"/>
</g>
</svg>
