<?xml version="1.0" encoding="UTF-8"?>
<svg width="88px" height="88px" viewBox="0 0 88 88" version="1.1" xmlns="http://www.w3.org/2000/svg" xmlns:xlink="http://www.w3.org/1999/xlink">
    <!-- Generator: Sketch 51.1 (57501) - http://www.bohemiancoding.com/sketch -->
    <title>eink</title>
    <desc>Created with Sketch.</desc>
    <defs></defs>
    <g id="Page-1" stroke="none" stroke-width="1" fill="none" fill-rule="evenodd">
        <g id="eink">
            <g id="Page-1">
                <g id="btc">
                    <circle id="Oval" fill="#7772D8" fill-rule="nonzero" cx="44" cy="44" r="44"></circle>
                    <text id="P" fill="#FFFFFF" font-family="Helvetica" font-size="72" font-weight="normal">
                        <tspan x="20" y="70">P</tspan>
                    </text>
                </g>
            </g>
            <g id="Group" opacity="0.07" transform="translate(30.000000, 75.000000)" fill="#FFFFFF" fill-rule="nonzero">
                <path d="M0.7,0.2 L4.3,0.2 L4.3,0.7 L1.2,4.7 L4.5,4.7 L4.5,5.2 L0.5,5.2 L0.5,4.7 L3.6,0.7 L0.7,0.7 C0.7,0.7 0.7,0.2 0.7,0.2 Z" id="Shape"></path>
                <path d="M5.2,0.2 L7.4,0.2 C7.9,0.2 8.2,0.3 8.5,0.5 C8.8,0.7 8.9,1 8.9,1.4 C8.9,1.7 8.8,1.9 8.7,2.1 C8.5,2.3 8.3,2.4 8.1,2.5 C8.4,2.6 8.7,2.7 8.9,2.9 C9.1,3.1 9.2,3.4 9.2,3.7 C9.2,4.2 9,4.6 8.7,4.8 C8.4,5 8,5.1 7.5,5.1 L5.3,5.1 L5.2,0.2 Z M5.8,0.7 L5.8,2.4 L7.3,2.4 C7.6,2.4 7.9,2.3 8.1,2.2 C8.3,2.1 8.4,1.8 8.4,1.5 C8.4,1.2 8.3,1 8.1,0.9 C7.9,0.8 7.7,0.7 7.3,0.7 C7.3,0.7 5.8,0.7 5.8,0.7 Z M5.8,2.9 L5.8,4.8 L7.4,4.8 C7.7,4.8 8,4.7 8.2,4.6 C8.4,4.4 8.6,4.2 8.6,3.9 C8.6,3.6 8.5,3.3 8.3,3.2 C8.1,3.1 7.8,3 7.4,3 L5.8,3 L5.8,2.9 Z" id="Shape"></path>
                <path d="M10.7,4.5 C10.8,4.6 10.8,4.7 10.8,4.8 C10.8,4.9 10.8,5 10.7,5.1 C10.6,5.2 10.5,5.2 10.4,5.2 C10.3,5.2 10.2,5.2 10.1,5.1 C10,5 10,4.9 10,4.8 C10,4.7 10,4.6 10.1,4.5 C10.2,4.4 10.3,4.4 10.4,4.4 C10.5,4.4 10.6,4.4 10.7,4.5 Z" id="Shape"></path>
                <path d="M15.4,0.5 C15.8,0.8 16,1.2 16.1,1.7 L15.5,1.7 C15.4,1.3 15.3,1.1 15,0.9 C14.7,0.7 14.4,0.6 14,0.6 C13.4,0.6 13,0.8 12.7,1.2 C12.4,1.6 12.3,2.1 12.3,2.7 C12.3,3.3 12.4,3.8 12.7,4.2 C13,4.6 13.5,4.8 14,4.8 C14.4,4.8 14.7,4.7 15,4.5 C15.3,4.3 15.5,3.9 15.6,3.5 L16.1,3.5 C16,4.1 15.7,4.5 15.3,4.9 C14.9,5.2 14.5,5.4 13.9,5.4 C13.1,5.4 12.5,5.1 12.1,4.6 C11.7,4.1 11.5,3.5 11.5,2.8 C11.5,2.1 11.7,1.4 12.1,1 C12.5,0.5 13.1,0.2 13.9,0.2 C14.5,0.1 15,0.2 15.4,0.5 Z" id="Shape"></path>
                <path d="M20.9,0.8 C21.3,1.3 21.5,1.9 21.5,2.7 C21.5,3.4 21.3,4.1 20.9,4.5 C20.5,5 19.9,5.2 19.1,5.2 C18.4,5.2 17.8,5 17.3,4.5 C16.9,4 16.7,3.4 16.7,2.7 C16.7,1.9 16.9,1.3 17.3,0.9 C17.7,0.4 18.3,0.1 19.1,0.1 C19.8,0.1 20.4,0.3 20.9,0.8 Z M17.7,1.2 C17.4,1.6 17.2,2.1 17.2,2.7 C17.2,3.3 17.4,3.8 17.7,4.2 C18,4.6 18.5,4.8 19.1,4.8 C19.7,4.8 20.1,4.6 20.5,4.2 C20.8,3.8 21,3.3 21,2.7 C21,2.1 20.8,1.6 20.5,1.2 C20.2,0.8 19.7,0.6 19.2,0.6 C18.5,0.6 18.1,0.8 17.7,1.2 Z" id="Shape"></path>
                <polygon id="Shape" points="22.3 0.2 23 0.2 24.9 4.5 24.9 4.5 26.8 0.2 27.5 0.2 27.5 5.2 26.9 5.2 26.9 1.2 26.9 1.2 25.2 5.2 24.7 5.2 23 1.2 23 1.2 23 5.2 22.4 5.2 22.4 0.2"></polygon>
            </g>
        </g>
    </g>
</svg>