<?xml version="1.0" encoding="utf-8"?>
<!-- Generator: Adobe Illustrator 22.1.0, SVG Export Plug-In . SVG Version: 6.00 Build 0)  -->
<svg version="1.1" id="图层_1" xmlns="http://www.w3.org/2000/svg" xmlns:xlink="http://www.w3.org/1999/xlink" x="0px" y="0px"
	 viewBox="0 0 150 150" style="enable-background:new 0 0 150 150;" xml:space="preserve">
<style type="text/css">
	.st0{fill:url(#SVGID_1_);}
	.st1{fill:#FFFFFF;}
	.st2{opacity:7.000000e-02;enable-background:new    ;}
</style>
<linearGradient id="SVGID_1_" gradientUnits="userSpaceOnUse" x1="75" y1="0" x2="75" y2="150">
	<stop  offset="0" style="stop-color:#43B7C3"/>
	<stop  offset="1" style="stop-color:#2A71FE"/>
</linearGradient>
<circle class="st0" cx="75" cy="75" r="75"/>
<rect x="60" y="117.7" class="st1" width="30" height="8"/>
<path class="st1" d="M103,97.8c3.5,0,6.6,1.6,8.6,4.2h6.4L75,27l-43,75h6.1c2-2.5,5.1-4.2,8.6-4.2s6.6,1.6,8.6,4.2h5.8
	c1.6-6.2,7.2-10.8,13.9-10.8s12.3,4.6,13.9,10.8h5.4C96.3,99.5,99.5,97.8,103,97.8z"/>
<g class="st2">
	<path class="st1" d="M62.1,134.5v-0.6l2.6-3.2c0.2-0.2,0.4-0.4,0.5-0.6h-2.8v-0.6H66v0.5l-2.8,3.5l-0.3,0.4h3.2v0.6H62.1
		L62.1,134.5z"/>
	<path class="st1" d="M66.7,134.5v-5h1.9c0.4,0,0.7,0.1,0.9,0.2c0.2,0.1,0.4,0.3,0.5,0.5c0.1,0.2,0.2,0.4,0.2,0.7
		c0,0.2-0.1,0.4-0.2,0.6s-0.3,0.3-0.5,0.5c0.3,0.1,0.5,0.2,0.7,0.5c0.2,0.2,0.2,0.5,0.2,0.8c0,0.2,0,0.5-0.1,0.7s-0.2,0.4-0.4,0.5
		c-0.2,0.1-0.3,0.2-0.5,0.2c-0.2,0.1-0.5,0.1-0.8,0.1h-1.9L66.7,134.5z M67.4,131.6h1.1c0.3,0,0.5,0,0.6-0.1
		c0.2-0.1,0.3-0.1,0.4-0.2c0.1-0.1,0.1-0.3,0.1-0.4c0-0.2,0-0.3-0.1-0.4c-0.1-0.1-0.2-0.2-0.3-0.3s-0.4-0.2-0.8-0.2h-1
		C67.4,130.1,67.4,131.6,67.4,131.6z M67.4,134h1.2c0.2,0,0.4,0,0.5,0c0.2,0,0.3-0.1,0.4-0.1s0.2-0.2,0.3-0.3s0.1-0.3,0.1-0.4
		c0-0.2,0-0.3-0.1-0.5c-0.1-0.2-0.2-0.2-0.4-0.3c-0.2-0.1-0.4-0.1-0.7-0.1h-1.2L67.4,134L67.4,134z"/>
	<path class="st1" d="M71.5,134.5v-0.7h0.7v0.7H71.5z"/>
	<path class="st1" d="M77,132.8l0.7,0.2c-0.1,0.5-0.4,1-0.8,1.2c-0.4,0.2-0.8,0.4-1.3,0.4s-1-0.1-1.3-0.3s-0.6-0.5-0.8-1
		c-0.2-0.4-0.3-0.9-0.3-1.3c0-0.5,0.1-1,0.3-1.4c0.2-0.4,0.5-0.7,0.9-0.9s0.8-0.3,1.2-0.3c0.5,0,0.9,0.1,1.3,0.4
		c0.3,0.3,0.6,0.6,0.7,1.1l-0.7,0.2c-0.1-0.4-0.3-0.6-0.5-0.8s-0.5-0.2-0.8-0.2c-0.4,0-0.7,0.1-1,0.3s-0.4,0.4-0.5,0.7
		s-0.2,0.6-0.2,1s0.1,0.8,0.2,1.1c0.1,0.3,0.3,0.6,0.6,0.7c0.3,0.1,0.5,0.2,0.9,0.2s0.7-0.1,0.9-0.3C76.7,133.5,76.9,133.2,77,132.8
		z"/>
	<path class="st1" d="M78.2,132c0-0.8,0.2-1.5,0.7-2s1-0.7,1.7-0.7c0.5,0,0.9,0.1,1.3,0.3c0.4,0.2,0.7,0.5,0.8,0.9
		c0.1,0.4,0.3,0.8,0.3,1.3s-0.1,1-0.3,1.4c-0.2,0.4-0.5,0.7-0.9,0.9s-0.8,0.3-1.2,0.3c-0.5,0-0.9-0.1-1.3-0.3s-0.7-0.5-0.8-0.9
		C78.4,132.8,78.2,132.5,78.2,132z M78.9,132c0,0.6,0.2,1.1,0.5,1.4s0.7,0.5,1.2,0.5s0.9-0.2,1.2-0.5c0.3-0.4,0.5-0.8,0.5-1.5
		c0-0.4-0.1-0.8-0.2-1.1c-0.1-0.3-0.3-0.5-0.6-0.7c-0.3-0.2-0.6-0.3-0.9-0.3c-0.5,0-0.9,0.2-1.2,0.5C79.1,130.6,78.9,131.3,78.9,132
		z"/>
	<path class="st1" d="M83.9,134.5v-5h1l1.2,3.5c0.1,0.3,0.2,0.6,0.2,0.7c0.1-0.2,0.1-0.5,0.3-0.8l1.2-3.5h0.9v5h-0.6v-4.2l-1.5,4.2
		H86l-1.4-4.3v4.3h-0.7V134.5z"/>
</g>
</svg>
