<?xml version="1.0" encoding="utf-8"?>
<!-- Generator: Adobe Illustrator 22.0.0, SVG Export Plug-In . SVG Version: 6.00 Build 0)  -->
<svg version="1.1" id="图层_1" xmlns="http://www.w3.org/2000/svg" xmlns:xlink="http://www.w3.org/1999/xlink" x="0px" y="0px"
	 viewBox="0 0 88 88" style="enable-background:new 0 0 88 88;" xml:space="preserve">
<style type="text/css">
	.st0{fill:#0043F1;}
	.st1{fill:#FFFFFF;}
	.st2{opacity:5.000000e-02;enable-background:new    ;}
</style>
<title>QASH</title>
<g id="图层_2_1_">
	<g id="图层_1-2">
		<circle class="st0" cx="44" cy="44" r="44"/>
		<path class="st1" d="M44,12.8c-17.1,0-31,13.9-31,31s13.9,31,31,31s31-13.9,31-31S61.1,12.8,44,12.8L44,12.8z M44,71.1
			c-15,0-27.1-12.1-27.1-27.1C16.9,29,29,16.8,44,16.8c15,0,27.1,12.1,27.1,27.1c0,0,0,0,0,0C71.1,58.9,59,71.1,44,71.1
			C44,71.1,44,71.1,44,71.1z"/>
		<path class="st0" d="M26.5,22.1L25,20.3L24.1,21l1.5,1.8C25.9,22.6,26.2,22.3,26.5,22.1z"/>
		<path class="st0" d="M35,17.4l-0.8-2.2l-1.1,0.4l0.8,2.2C34.3,17.7,34.6,17.5,35,17.4z"/>
		<path class="st0" d="M39.7,16.2l-0.4-2.3l-1.1,0.2l0.4,2.3C39,16.4,39.3,16.3,39.7,16.2z"/>
		<path class="st0" d="M30.6,19.4l-1.2-2l-1,0.6l1.2,2C29.9,19.7,30.2,19.5,30.6,19.4z"/>
		<path class="st0" d="M44,15.9h0.6v-2.3h-1.2v2.3L44,15.9z"/>
		<path class="st0" d="M16.1,43.8c0-0.2,0-0.4,0-0.6h-2.3v1.2h2.3C16.1,44.2,16.1,44,16.1,43.8z"/>
		<path class="st0" d="M18,33.7l-2.2-0.8L15.4,34l2.2,0.8C17.7,34.4,17.9,34.1,18,33.7z"/>
		<path class="st0" d="M20.1,29.4l-2-1.2l-0.6,1l2,1.2C19.7,30,19.9,29.7,20.1,29.4z"/>
		<path class="st0" d="M16.6,38.4L14.3,38l-0.2,1.1l2.3,0.4C16.5,39.1,16.6,38.8,16.6,38.4z"/>
		<path class="st0" d="M68.4,30.4l2-1.2l-0.6-1l-2,1.2C68.1,29.7,68.3,30,68.4,30.4z"/>
		<path class="st0" d="M70.4,34.8l2.2-0.8l-0.4-1.1L70,33.7C70.2,34.1,70.3,34.4,70.4,34.8z"/>
		<path class="st0" d="M49.4,16.4l0.4-2.3l-1.1-0.2l-0.4,2.3C48.7,16.3,49,16.4,49.4,16.4z"/>
		<path class="st0" d="M65.7,26.3l1.8-1.5l-0.8-0.9L65,25.4L65.7,26.3z"/>
		<path class="st0" d="M71.6,39.5l2.3-0.4L73.7,38l-2.3,0.4C71.4,38.8,71.5,39.1,71.6,39.5z"/>
		<path class="st0" d="M54.1,17.8l0.8-2.2l-1.1-0.4L53,17.4C53.4,17.5,53.7,17.7,54.1,17.8z"/>
		<path class="st0" d="M58.5,19.9l1.2-2l-1-0.6l-1.2,2C57.8,19.5,58.1,19.7,58.5,19.9z"/>
		<path class="st0" d="M62.4,22.8l1.5-1.8L63,20.3l-1.5,1.8C61.8,22.3,62.1,22.6,62.4,22.8z"/>
		<path class="st0" d="M23,25.4l-1.8-1.5l-0.8,0.9l1.8,1.5L23,25.4z"/>
		<path class="st0" d="M61.5,65.5l1.5,1.8l0.9-0.8l-1.5-1.8L61.5,65.5z"/>
		<path class="st0" d="M57.4,68.3l1.2,2l1-0.6l-1.2-2C58.1,67.9,57.8,68.1,57.4,68.3z"/>
		<path class="st0" d="M65,62.2l1.8,1.5l0.8-0.9l-1.8-1.5L65,62.2z"/>
		<path class="st0" d="M53,70.2l0.8,2.2l1.1-0.4l-0.8-2.2L53,70.2z"/>
		<path class="st0" d="M70,53.9l2.2,0.8l0.4-1.1l-2.2-0.8C70.3,53.2,70.2,53.5,70,53.9z"/>
		<path class="st0" d="M67.9,58.3l2,1.2l0.6-1l-2-1.2C68.3,57.6,68.1,57.9,67.9,58.3z"/>
		<path class="st0" d="M71.4,49.2l2.3,0.4l0.2-1.1l-2.3-0.4C71.5,48.5,71.4,48.8,71.4,49.2z"/>
		<path class="st0" d="M71.9,43.2c0,0.2,0,0.4,0,0.6s0,0.4,0,0.6h2.3v-1.2H71.9z"/>
		<path class="st0" d="M48.3,71.4l0.4,2.3l1.1-0.2l-0.4-2.3L48.3,71.4z"/>
		<path class="st0" d="M33.9,69.8L33.1,72l1.1,0.4l0.8-2.2L33.9,69.8z"/>
		<path class="st0" d="M19.5,57.2l-2,1.2l0.6,1l2-1.2C19.9,57.9,19.7,57.6,19.5,57.2z"/>
		<path class="st0" d="M25.6,64.8l-1.5,1.8l0.9,0.8l1.5-1.8L25.6,64.8z"/>
		<path class="st0" d="M22.3,61.3l-1.8,1.5l0.8,0.9l1.8-1.5L22.3,61.3z"/>
		<path class="st0" d="M44,71.7h-0.6V74h1.2v-2.3L44,71.7z"/>
		<path class="st0" d="M17.6,52.8l-2.2,0.8l0.4,1.1l2.2-0.8C17.9,53.5,17.7,53.2,17.6,52.8z"/>
		<path class="st0" d="M29.5,67.7l-1.2,2l1,0.6l1.2-2C30.2,68.1,29.9,67.9,29.5,67.7z"/>
		<path class="st0" d="M38.6,71.2l-0.4,2.3l1.1,0.2l0.4-2.3L38.6,71.2z"/>
		<path class="st0" d="M16.4,48.1l-2.3,0.4l0.2,1.1l2.3-0.4C16.6,48.8,16.5,48.5,16.4,48.1z"/>
		<path class="st1" d="M44,29.9c4.9,0,8.9,4,8.9,8.9v7.6c0,4.9-4,8.9-8.9,8.9s-8.9-4-8.9-8.9l0,0v-7.6C35.1,33.9,39.1,29.9,44,29.9
			 M44,27.9L44,27.9c-6,0-10.9,4.9-10.9,10.9v7.6c0,6,4.9,10.9,10.9,10.9l0,0c6,0,10.9-4.9,10.9-10.9v-7.6
			C54.9,32.8,50,27.9,44,27.9z"/>
		<path class="st1" d="M46.8,49.7c-0.2,0-0.4,0.1-0.5,0.2l0,0c-0.3,0.3-0.3,0.8,0,1.1c0,0,0,0,0,0l7.2,7.2c0.3,0.3,0.8,0.3,1.1,0
			c0,0,0,0,0,0c0.3-0.3,0.3-0.8,0-1.1c0,0,0,0,0,0l-7.2-7.2C47.2,49.8,47,49.7,46.8,49.7z"/>
	</g>
</g>
<g class="st2">
	<path class="st1" d="M32.7,82.2v-0.6l2.6-3.2c0.2-0.2,0.4-0.4,0.5-0.6H33v-0.6h3.6v0.5l-2.8,3.5l-0.3,0.4h3.2v0.6
		C36.7,82.2,32.7,82.2,32.7,82.2z"/>
	<path class="st1" d="M37.3,82.2v-5h1.9c0.4,0,0.7,0.1,0.9,0.2s0.4,0.3,0.5,0.5s0.2,0.4,0.2,0.7c0,0.2-0.1,0.4-0.2,0.6
		s-0.3,0.3-0.5,0.5c0.3,0.1,0.5,0.2,0.7,0.5C41,80.4,41,80.7,41,81c0,0.2,0,0.5-0.1,0.7s-0.2,0.4-0.4,0.5s-0.3,0.2-0.5,0.2
		c-0.2,0.1-0.5,0.1-0.8,0.1h-1.9V82.2z M38,79.3h1.1c0.3,0,0.5,0,0.6-0.1c0.2-0.1,0.3-0.1,0.4-0.2c0.1-0.1,0.1-0.3,0.1-0.4
		c0-0.2,0-0.3-0.1-0.4s-0.2-0.2-0.3-0.3s-0.4-0.2-0.8-0.2h-1V79.3z M38,81.6h1.2c0.2,0,0.4,0,0.5,0c0.2,0,0.3-0.1,0.4-0.1
		s0.2-0.2,0.3-0.3s0.1-0.3,0.1-0.4c0-0.2,0-0.3-0.1-0.5S40.2,80.1,40,80c-0.2-0.1-0.4-0.1-0.7-0.1h-1.2L38,81.6L38,81.6z"/>
	<path class="st1" d="M42.1,82.2v-0.7h0.7v0.7H42.1z"/>
	<path class="st1" d="M47.6,80.4l0.7,0.2c-0.1,0.5-0.4,1-0.8,1.2s-0.8,0.4-1.3,0.4s-1-0.1-1.3-0.3c-0.3-0.2-0.6-0.5-0.8-1
		c-0.2-0.4-0.3-0.9-0.3-1.3c0-0.5,0.1-1,0.3-1.4s0.5-0.7,0.9-0.9c0.4-0.2,0.8-0.3,1.2-0.3c0.5,0,0.9,0.1,1.3,0.4
		c0.3,0.3,0.6,0.6,0.7,1.1l-0.7,0.2c-0.1-0.4-0.3-0.6-0.5-0.8s-0.5-0.2-0.8-0.2c-0.4,0-0.7,0.1-1,0.3c-0.3,0.2-0.4,0.4-0.5,0.7
		c-0.1,0.3-0.2,0.6-0.2,1s0.1,0.8,0.2,1.1c0.1,0.3,0.3,0.6,0.6,0.7s0.5,0.2,0.9,0.2s0.7-0.1,0.9-0.3C47.3,81.2,47.5,80.8,47.6,80.4z
		"/>
	<path class="st1" d="M48.8,79.7c0-0.8,0.2-1.5,0.7-2s1-0.7,1.7-0.7c0.5,0,0.9,0.1,1.3,0.3c0.4,0.2,0.7,0.5,0.8,0.9s0.3,0.8,0.3,1.3
		s-0.1,1-0.3,1.4s-0.5,0.7-0.9,0.9c-0.4,0.2-0.8,0.3-1.2,0.3c-0.5,0-0.9-0.1-1.3-0.3c-0.4-0.2-0.7-0.5-0.8-0.9S48.8,80.2,48.8,79.7z
		 M49.5,79.7c0,0.6,0.2,1.1,0.5,1.4s0.7,0.5,1.2,0.5s0.9-0.2,1.2-0.5c0.3-0.4,0.5-0.8,0.5-1.5c0-0.4-0.1-0.8-0.2-1.1
		c-0.1-0.3-0.3-0.5-0.6-0.7s-0.6-0.3-0.9-0.3c-0.5,0-0.9,0.2-1.2,0.5S49.5,79,49.5,79.7z"/>
	<path class="st1" d="M54.5,82.2v-5h1l1.2,3.5c0.1,0.3,0.2,0.6,0.2,0.7c0.1-0.2,0.1-0.5,0.3-0.8l1.2-3.5h0.9v5h-0.6v-4.2l-1.5,4.2
		h-0.6l-1.4-4.3v4.3h-0.7C54.5,82.1,54.5,82.2,54.5,82.2z"/>
</g>
</svg>
