<?xml version="1.0" encoding="utf-8"?>
<!-- Generator: Adobe Illustrator 22.0.0, SVG Export Plug-In . SVG Version: 6.00 Build 0)  -->
<svg version="1.1" id="图层_1" xmlns="http://www.w3.org/2000/svg" xmlns:xlink="http://www.w3.org/1999/xlink" x="0px" y="0px"
	 viewBox="0 0 64 64" style="enable-background:new 0 0 64 64;" xml:space="preserve">
<style type="text/css">
	.st0{fill:#F1F5FE;}
	.st1{fill:#51CAFF;}
	.st2{opacity:0.5;}
	.st3{fill:#FFFFFF;}
</style>
<title>QC</title>
<desc>Created with Sketch.</desc>
<g id="Page-1">
	<g id="Artboard" transform="translate(-977.000000, -282.000000)">
		<g id="QC" transform="translate(977.000000, 282.000000)">
			<circle id="Oval" class="st0" cx="32" cy="32" r="32"/>
			<path id="path-1" class="st1" d="M40.7,41.4l-7.1,0.9c0,0.3-0.1,0.5-0.2,0.7l4.3,5.9h0.1l3.2-6.9C40.8,41.7,40.7,41.6,40.7,41.4z
				 M41,39.8L38,33.5h-0.1c-0.1,0-0.3,0-0.4-0.1l-4.5,7.5l0.1,0.1l7.6-0.9C40.8,40,40.9,39.9,41,39.8z M43.2,39.6
				c0.4,0.3,0.6,0.7,0.6,1.2c0,0,0,0,0,0.1l3,1.2c-0.1-2.7-0.4-5.4-0.6-8.1L43.2,39.6z M42,42.5l-2.7,5.8l7.1-5L43.3,42
				c-0.3,0.3-0.7,0.4-1.1,0.4H42z M40.7,22.4c0.1-0.1,0.1-0.2,0.2-0.4l-3.1-6.8c-0.1,0-0.2,0-0.4-0.1l-4.1,5.7
				c0.1,0.2,0.2,0.4,0.2,0.7L40.7,22.4z M40.9,24.1c-0.1-0.1-0.3-0.4-0.4-0.6l-7.4-0.9L33,22.8l4.5,7.5c0.1-0.1,0.3-0.1,0.4-0.1H38
				C39,28.3,40,26.2,40.9,24.1z M43.8,23.1C43.8,23.1,43.8,23.1,43.8,23.1c0,0.5-0.2,0.9-0.5,1.2l2.9,5.5c0.1-2.5,0.4-5.2,0.5-7.7
				L46.6,22L43.8,23.1z M42.2,21.5c0.4,0,0.8,0.1,1.1,0.4l2.8-1.1c0-0.1,0-0.1,0-0.2s0-0.1,0-0.2l-6.5-4.7
				C40.4,17.7,41.3,19.6,42.2,21.5z M23.3,40.2l7.5,0.9l0.1-0.1l-4.7-7.6H26h-0.1c-1,2.1-2,4.2-3.1,6.3C23,39.9,23.1,40.1,23.3,40.2
				z M23.1,41.9c1,2.3,2,4.6,3.1,6.8l4.4-5.8c-0.1-0.1-0.2-0.4-0.2-0.6l-7.1-0.9C23.2,41.6,23.1,41.7,23.1,41.9z M20.8,39.7
				l-3.6-6.3H17c-0.1,2.8-0.3,5.5-0.4,8.3c0.2,0.1,0.4,0.1,0.5,0.2l2.9-1.2C20.1,40.4,20.4,39.9,20.8,39.7z M20.6,42l-2.7,1.1
				c0,0.1,0,0.2,0,0.3s0,0.1,0,0.2l6.8,4.9c-0.9-2-1.9-4-2.8-6h-0.1C21.3,42.5,20.9,42.3,20.6,42z M23.2,22.3l7.2-0.9
				c0-0.2,0.1-0.4,0.1-0.6c-1.5-1.9-2.9-3.8-4.3-5.7c-0.1,0-0.1,0-0.1,0L23,22C23,22.1,23.1,22.3,23.2,22.3z M23.3,23.5
				c-0.1,0.2-0.1,0.4-0.4,0.7l3,6.1H26h0.2l4.5-7.6l-0.1-0.1L23.3,23.5z M20.2,23.1L17.3,22c-0.1,0.1-0.4,0.2-0.5,0.2
				c0.1,2.7,0.3,5.4,0.4,8.1h0.1c1.2-2,2.3-4,3.4-6C20.4,23.9,20.1,23.6,20.2,23.1z M20.6,22c0.3-0.4,0.7-0.5,1.2-0.5l2.7-5.9
				l-6.6,4.8c0,0.1,0,0.1,0,0.2s0,0.2,0,0.3L20.6,22z M36.4,50.8h-8.8c-0.2,0.9-1.1,1.4-2,1.2c-0.7-0.1-1.2-0.8-1.2-1.5
				c0-0.1,0-0.4,0.1-0.5l-7.3-5.3c-0.7,0.5-1.7,0.4-2.3-0.4c-0.2-0.3-0.3-0.6-0.3-0.9c0-0.5,0.3-1,0.7-1.3c-1.1-2.8-2.2-5.7-3.2-8.6
				c-0.9-0.2-1.4-1-1.2-1.9c0.1-0.7,0.7-1.1,1.3-1.2l3.1-8.4c-0.4-0.3-0.7-0.8-0.7-1.3c0-0.9,0.8-1.6,1.7-1.6c0.3,0,0.7,0.1,0.9,0.3
				l7.3-5.3c-0.1-0.1-0.1-0.3-0.1-0.5c0-0.9,0.8-1.6,1.7-1.6c0.7,0,1.4,0.5,1.5,1.2h8.7c0.2-0.9,1.1-1.4,2-1.2
				c0.7,0.1,1.2,0.8,1.2,1.5c0,0.2-0.1,0.4-0.1,0.6l7.3,5.2c0.7-0.5,1.7-0.4,2.3,0.4c0.2,0.3,0.3,0.6,0.3,0.9c0,0.5-0.3,1-0.7,1.4
				c0.9,2.8,2,5.5,3,8.3c0.9,0,1.6,0.7,1.6,1.6c0,0.9-0.7,1.6-1.6,1.6c-1.1,3.1-2.2,6.2-3.3,9.3c0,0,0,0,0,0.1l0.1,0.1l4.1,3.6
				c0.4-0.3,0.9-0.4,1.3-0.4c1.3,0,2.3,1.1,2.3,2.4s-1.1,2.3-2.4,2.3c-1.2,0-2.3-1.1-2.3-2.3c0-0.4,0.1-0.7,0.2-0.9L47.5,44
				l-8.1,5.8c0.1,0.2,0.1,0.4,0.1,0.6c0,0.9-0.8,1.6-1.7,1.6C37.2,51.9,36.6,51.4,36.4,50.8z M36.6,49.5l-4.3-5.9
				c-0.1,0-0.2,0-0.4,0s-0.2,0-0.4-0.1l-4.4,5.7c0.1,0.1,0.1,0.1,0.1,0.1L36.6,49.5z M31.6,20.1c0.1,0,0.2-0.1,0.4-0.1s0.2,0,0.4,0
				l4.1-5.6h-9.1L31.6,20.1z M45.4,32.5h-6c-0.1,0.1-0.1,0.3-0.3,0.4c0.9,2,2,4.1,3,6c1.2-2.1,2.3-4.2,3.4-6.3
				C45.5,32.6,45.5,32.6,45.4,32.5z M45.4,31.3c0-0.1,0.1-0.1,0.1-0.2l-3.3-6.3l-3,6c0.1,0.1,0.2,0.3,0.3,0.4L45.4,31.3z M48.4,32.5
				c-0.2,0.4-0.6,0.8-1,0.9c0.1,2.2,0.3,4.4,0.4,6.5c0.8-2.3,1.7-4.6,2.5-6.9c-0.1-0.1-0.3-0.4-0.4-0.5H48.4z M48.4,31.3h1.5
				c0.1-0.2,0.2-0.4,0.4-0.5l-2.5-6.8c-0.1,2.2-0.3,4.4-0.4,6.5C47.9,30.5,48.2,30.8,48.4,31.3z M36.4,32.5h-8.9
				c-0.1,0.1-0.1,0.2-0.2,0.4c1.5,2.5,3.1,5.1,4.6,7.6l4.7-7.9C36.5,32.6,36.4,32.5,36.4,32.5z M36.4,31.3c0-0.1,0-0.1,0.1-0.1
				l-4.7-7.9c-1.5,2.5-3.1,5.1-4.6,7.6c0.1,0.1,0.1,0.2,0.2,0.4H36.4z M24.7,32.9c-0.1-0.1-0.2-0.3-0.3-0.4h-6
				c-0.1,0.1-0.1,0.2-0.2,0.4l3.5,6.2C22.8,37,23.8,35,24.7,32.9z M24.7,30.8l-2.9-6.1l-3.5,6.2c0.1,0.1,0.1,0.2,0.2,0.4h6
				C24.6,31.1,24.7,31,24.7,30.8z M15.5,32.5H14c-0.1,0.3-0.3,0.6-0.6,0.7c0.7,1.9,1.5,3.9,2.2,5.7l0.3-5.9
				C15.7,32.9,15.6,32.7,15.5,32.5z M15.5,31.3c0.1-0.2,0.2-0.4,0.4-0.5l-0.3-5.7c-0.7,1.8-1.4,3.7-2,5.5c0.2,0.1,0.4,0.4,0.5,0.7
				H15.5z"/>
			<g id="Group" transform="translate(22.545455, 55.272727)" class="st2">
				<polygon id="Shape" class="st3" points="0.4,3.6 2.4,0.9 2.4,0.9 0.5,0.9 0.5,0.4 3.1,0.4 3.1,0.7 1.2,3.4 1.2,3.4 3.2,3.4 
					3.2,3.9 0.5,3.9 				"/>
				<path id="Shape_1_" class="st3" d="M3.7,4V0.4h1.5c0.7,0,1,0.4,1,0.9c0,0.4-0.3,0.7-0.7,0.8C6,2.2,6.3,2.5,6.3,3
					c0,0.7-0.4,1-1.2,1H3.7z M4.2,1.9h0.7c0.5,0,0.7-0.2,0.7-0.6S5.4,0.8,4.9,0.8H4.2V1.9z M5,3.5c0.5,0,0.8-0.2,0.8-0.6
					S5.5,2.3,5,2.3H4.3v1.2H5z"/>
				<path id="Shape_2_" class="st3" d="M6.8,3.7c0-0.1,0.1-0.3,0.3-0.3c0.1,0,0.3,0.1,0.3,0.3C7.4,3.9,7.3,4,7.1,4
					C7,4,6.8,3.9,6.8,3.7z"/>
				<path id="Shape_3_" class="st3" d="M7.7,2.2c0-1.2,0.7-1.8,1.7-1.8c0.8,0,1.5,0.5,1.5,1.2h-0.6c-0.1-0.4-0.5-0.7-0.9-0.7
					c-0.7,0-1.1,0.5-1.1,1.4s0.4,1.4,1.1,1.4c0.5,0,0.9-0.3,0.9-0.7h0.6c-0.1,0.7-0.7,1.2-1.5,1.2C8.4,4.1,7.7,3.3,7.7,2.2z"/>
				<path id="Shape_4_" class="st3" d="M14.6,2.2C14.6,3.3,14,4,12.9,4s-1.7-0.7-1.7-1.8c0-1.2,0.7-1.8,1.7-1.8S14.6,1,14.6,2.2z
					 M11.8,2.2c0,0.8,0.4,1.4,1.1,1.4c0.7,0,1.1-0.5,1.1-1.4s-0.4-1.4-1.1-1.4C12.2,0.8,11.8,1.4,11.8,2.2z"/>
				<polygon id="Shape_5_" class="st3" points="18.3,4 18.3,1.4 18.3,1.4 17.2,4 16.7,4 15.6,1.4 15.6,1.4 15.6,4 15.1,4 15.1,0.4 
					15.8,0.4 16.9,3.3 16.9,3.3 18.1,0.4 18.8,0.4 18.8,4 				"/>
			</g>
			<path id="Shape_6_" class="st1" d="M37.2,33.7c-0.7,2.2-2.8,3.8-5.2,3.8c-3,0-5.5-2.5-5.5-5.5s2.5-5.5,5.5-5.5
				c2.4,0,4.4,1.6,5.2,3.8h5.6c-0.8-5.2-5.3-9.2-10.8-9.2c-6,0-10.9,4.9-10.9,10.9S26,42.9,32.1,42.9c5.5,0,10-4,10.8-9.2H37.2z"/>
		</g>
	</g>
</g>
</svg>
