<?xml version="1.0" encoding="utf-8"?>
<!-- Generator: Adobe Illustrator 22.0.0, SVG Export Plug-In . SVG Version: 6.00 Build 0)  -->
<svg version="1.1" id="图层_1" xmlns="http://www.w3.org/2000/svg" xmlns:xlink="http://www.w3.org/1999/xlink" x="0px" y="0px"
	 viewBox="0 0 88 88" style="enable-background:new 0 0 88 88;" xml:space="preserve">
<style type="text/css">
	.st0{fill:#00AAE7;}
	.st1{fill:#FFFFFF;}
	.st2{opacity:0.1;enable-background:new    ;}
</style>
<title>QTUM</title>
<g id="图层_2_1_">
	<g id="图层_1-2">
		<circle class="st0" cx="44" cy="44" r="44"/>
		<path id="path-1" class="st1" d="M53.9,56.9l-9.7,1.2c0,0.4-0.1,0.7-0.3,1l5.9,8.1h0.1l4.4-9.5C54.1,57.4,54,57.2,53.9,56.9z
			 M54.4,54.6L50.2,46h-0.1c-0.2,0-0.4,0-0.6-0.1l-6.2,10.3l0.2,0.2L54,55.2C54.1,55,54.3,54.8,54.4,54.6z M57.4,54.5
			c0.5,0.4,0.8,1,0.8,1.7c0,0,0,0,0,0.1l4.1,1.6c-0.2-3.7-0.5-7.4-0.8-11.1L57.4,54.5z M55.8,58.4l-3.7,8l9.7-6.9l-4.3-1.7
			c-0.4,0.4-1,0.6-1.5,0.6L55.8,58.4z M54,30.8c0.1-0.2,0.2-0.3,0.3-0.5L50,20.9c-0.2,0-0.3,0-0.5-0.1l-5.7,7.8
			c0.2,0.3,0.3,0.6,0.3,1L54,30.8z M54.3,33.2c-0.2-0.2-0.4-0.5-0.5-0.8l-10.2-1.2l-0.2,0.2l6.2,10.3c0.2-0.1,0.4-0.1,0.6-0.1h0.1
			C51.6,38.9,53,36,54.3,33.2L54.3,33.2z M58.2,31.7C58.2,31.7,58.2,31.8,58.2,31.7c0,0.7-0.3,1.3-0.7,1.7l4,7.5
			c0.2-3.5,0.5-7.1,0.7-10.6l-0.1-0.1L58.2,31.7z M56,29.6L56,29.6c0.6,0,1.1,0.2,1.5,0.6l3.8-1.5c0-0.1,0-0.2,0-0.3
			c0-0.1,0-0.2,0-0.3l-9-6.4C53.5,24.4,54.8,27,56,29.6z M30,55.3l10.3,1.2l0.1-0.1L34,46h-0.3h-0.1c-1.4,2.9-2.8,5.8-4.2,8.7
			C29.6,54.8,29.8,55.1,30,55.3L30,55.3z M29.7,57.6c1.4,3.1,2.8,6.3,4.3,9.4l6-8c-0.2-0.2-0.3-0.5-0.3-0.8L30,57
			C29.9,57.2,29.8,57.4,29.7,57.6L29.7,57.6z M26.6,54.6L21.6,46h-0.2c-0.2,3.8-0.4,7.6-0.5,11.4l0,0c0.3,0.1,0.5,0.2,0.7,0.3l4-1.6
			C25.7,55.5,26,54.9,26.6,54.6L26.6,54.6z M26.3,57.7l-3.7,1.5c0,0.1,0,0.3,0,0.4c0,0.1,0,0.2,0,0.3l9.3,6.8
			c-1.3-2.8-2.6-5.5-3.9-8.3h-0.2C27.3,58.4,26.7,58.1,26.3,57.7L26.3,57.7z M29.9,30.7l9.9-1.2c0-0.3,0.1-0.5,0.2-0.8
			c-2-2.6-4-5.2-5.9-7.8c-0.1,0-0.2,0-0.2,0l-4.3,9.4C29.6,30.4,29.7,30.6,29.9,30.7L29.9,30.7z M30.1,32.3
			c-0.1,0.3-0.2,0.6-0.5,0.9l4.1,8.4h0.1h0.3l6.2-10.5l-0.1-0.1L30.1,32.3z M25.8,31.8l-4-1.6c-0.2,0.2-0.5,0.3-0.7,0.3l0,0
			c0.2,3.7,0.4,7.4,0.5,11.1h0.2c1.6-2.8,3.1-5.5,4.7-8.3C26,32.9,25.7,32.4,25.8,31.8L25.8,31.8z M26.3,30.3c0.4-0.5,1-0.7,1.6-0.7
			l0,0l3.7-8.1l-9.1,6.6c0,0.1,0,0.2,0,0.3c0,0.1,0,0.3,0,0.4L26.3,30.3z M48,69.7H35.9c-0.3,1.2-1.5,1.9-2.7,1.6
			c-1-0.2-1.7-1.1-1.7-2.1c0-0.2,0-0.5,0.1-0.7l-10-7.3c-1,0.7-2.4,0.5-3.1-0.5c-0.3-0.4-0.4-0.8-0.4-1.2c0-0.7,0.4-1.4,1-1.8
			c-1.5-3.9-3-7.9-4.4-11.8c-1.2-0.3-1.9-1.4-1.6-2.6c0.2-0.9,0.9-1.5,1.8-1.7l4.3-11.5c-0.6-0.4-1-1.1-1-1.8c0-1.2,1.1-2.2,2.3-2.2
			c0.4,0,0.9,0.2,1.2,0.4l10-7.3c-0.1-0.2-0.1-0.4-0.1-0.7c0-1.2,1.1-2.2,2.3-2.2c1,0,1.9,0.7,2.1,1.7H48c0.3-1.2,1.5-1.9,2.7-1.6
			c1,0.2,1.7,1.1,1.7,2.1c0,0.3-0.1,0.6-0.2,0.8l10,7.1c1-0.7,2.4-0.5,3.1,0.5c0.3,0.4,0.4,0.8,0.4,1.2c0,0.7-0.4,1.4-1,1.9
			c1.3,3.8,2.7,7.6,4.1,11.4c1.2,0,2.2,1,2.2,2.2c0,1.2-1,2.2-2.2,2.2c-1.5,4.3-3,8.5-4.6,12.8c0,0,0,0,0,0.1c0,0,0.1,0.1,0.1,0.1
			l5.6,5c0.5-0.4,1.2-0.5,1.8-0.5c1.8,0,3.1,1.5,3.1,3.3c0,1.8-1.5,3.1-3.3,3.1c-1.7,0-3.1-1.5-3.1-3.2c0-0.5,0.1-0.9,0.3-1.3
			l-5.4-4.8l-11.2,8c0.1,0.3,0.2,0.5,0.2,0.8c0,1.2-1.1,2.2-2.3,2.2C49.1,71.4,48.3,70.7,48,69.7L48,69.7z M48.3,68.1L42.4,60
			c-0.2,0-0.3,0-0.5,0c-0.2,0-0.3,0-0.5-0.1l-6,7.9c0.1,0.1,0.1,0.1,0.2,0.2L48.3,68.1L48.3,68.1z M41.4,27.7c0.2,0,0.3-0.1,0.5-0.1
			c0.2,0,0.3,0,0.5,0l5.7-7.7H35.6l0,0L41.4,27.7z M60.4,44.7h-8.2c-0.1,0.2-0.2,0.4-0.4,0.6c1.3,2.8,2.7,5.6,4.1,8.3
			c1.6-2.9,3.1-5.8,4.7-8.7C60.5,44.8,60.5,44.8,60.4,44.7L60.4,44.7z M60.4,43c0-0.1,0.1-0.2,0.1-0.3L55.9,34l-4.1,8.3
			c0.2,0.2,0.3,0.4,0.4,0.6L60.4,43z M64.5,44.7c-0.3,0.6-0.8,1.1-1.4,1.2c0.2,3,0.4,6,0.6,9c1.1-3.2,2.3-6.3,3.4-9.5
			c-0.2-0.2-0.4-0.5-0.5-0.7L64.5,44.7z M64.5,43h2.1c0.1-0.3,0.3-0.5,0.5-0.7l-3.4-9.4c-0.2,3-0.4,6-0.6,8.9
			C63.8,41.9,64.3,42.4,64.5,43L64.5,43z M48.1,44.7H35.8c-0.1,0.2-0.2,0.3-0.3,0.5c2.1,3.5,4.2,7,6.3,10.5l6.4-10.8
			C48.2,44.8,48.1,44.7,48.1,44.7z M48.1,43c0-0.1,0-0.1,0.1-0.2l-6.4-10.8c-2.1,3.5-4.2,7-6.3,10.5c0.1,0.1,0.2,0.3,0.3,0.5H48.1z
			 M32,45.3c-0.2-0.2-0.3-0.4-0.4-0.6h-8.2c-0.1,0.2-0.2,0.3-0.3,0.5l4.8,8.5C29.3,50.9,30.7,48.1,32,45.3z M32,42.4L28,34l-4.8,8.5
			c0.1,0.2,0.2,0.3,0.3,0.5h8.2C31.8,42.8,31.9,42.6,32,42.4z M19.3,44.7h-2c-0.2,0.4-0.4,0.8-0.8,1c1,2.6,2,5.3,3,7.9l0.4-8.1
			C19.6,45.2,19.5,45,19.3,44.7L19.3,44.7z M19.3,43c0.1-0.3,0.3-0.5,0.5-0.7l-0.4-7.8c-0.9,2.5-1.9,5.1-2.8,7.6
			c0.3,0.2,0.6,0.5,0.7,0.9H19.3z"/>
	</g>
</g>
<g class="st2">
	<path class="st1" d="M32,81.4v-0.6l2.6-3.2c0.2-0.2,0.4-0.4,0.5-0.6h-2.8v-0.6h3.6v0.5l-2.8,3.5l-0.4,0.4h3.2v0.6H32z"/>
	<path class="st1" d="M36.5,81.4v-5h2c0.4,0,0.7,0.1,0.9,0.2s0.4,0.3,0.5,0.5s0.2,0.4,0.2,0.7c0,0.2-0.1,0.4-0.2,0.6
		s-0.3,0.3-0.5,0.5c0.3,0.1,0.5,0.2,0.7,0.5c0.2,0.2,0.2,0.5,0.2,0.8c0,0.2,0,0.5-0.1,0.7s-0.2,0.4-0.4,0.5s-0.3,0.2-0.5,0.2
		c-0.2,0.1-0.5,0.1-0.8,0.1h-2V81.4z M37.3,78.5h1.1c0.3,0,0.5,0,0.6-0.1c0.2-0.1,0.3-0.1,0.4-0.2c0.1-0.1,0.1-0.3,0.1-0.4
		c0-0.2,0-0.3-0.1-0.4s-0.2-0.2-0.3-0.3s-0.4-0.2-0.8-0.2h-1V78.5z M37.3,80.8h1.2c0.2,0,0.4,0,0.5,0c0.2,0,0.3-0.1,0.4-0.1
		s0.2-0.2,0.3-0.3s0.1-0.3,0.1-0.4c0-0.2,0-0.3-0.1-0.5s-0.2-0.2-0.4-0.3c-0.2-0.1-0.4-0.1-0.7-0.1h-1.2L37.3,80.8L37.3,80.8z"/>
	<path class="st1" d="M41.3,81.4v-0.7H42v0.7H41.3z"/>
	<path class="st1" d="M46.8,79.6l0.7,0.2c-0.1,0.5-0.4,1-0.8,1.2s-0.8,0.4-1.3,0.4s-1-0.1-1.3-0.3c-0.3-0.2-0.6-0.5-0.8-1
		c-0.2-0.4-0.3-0.9-0.3-1.3c0-0.5,0.1-1,0.3-1.4s0.5-0.7,0.9-0.9c0.4-0.2,0.8-0.3,1.2-0.3c0.5,0,0.9,0.1,1.3,0.4
		c0.3,0.3,0.6,0.6,0.7,1.1l-0.7,0.2c-0.1-0.4-0.3-0.6-0.5-0.8s-0.5-0.2-0.8-0.2c-0.4,0-0.7,0.1-1,0.3c-0.3,0.2-0.4,0.4-0.5,0.7
		c-0.1,0.3-0.2,0.6-0.2,1s0.1,0.8,0.2,1.1c0.1,0.3,0.3,0.6,0.6,0.7s0.5,0.2,0.9,0.2s0.7-0.1,0.9-0.3C46.5,80.4,46.7,80,46.8,79.6z"
		/>
	<path class="st1" d="M48,78.9c0-0.8,0.2-1.5,0.7-2s1-0.7,1.7-0.7c0.5,0,0.9,0.1,1.3,0.3c0.4,0.2,0.7,0.5,0.8,0.9s0.3,0.8,0.3,1.3
		s-0.1,1-0.3,1.4S52,80.8,51.6,81c-0.4,0.2-0.8,0.3-1.2,0.3c-0.5,0-0.9-0.1-1.3-0.3c-0.4-0.2-0.7-0.5-0.8-0.9S48,79.4,48,78.9z
		 M48.7,78.9c0,0.6,0.2,1.1,0.5,1.4s0.8,0.5,1.3,0.5s0.9-0.2,1.2-0.5c0.3-0.4,0.5-0.8,0.5-1.5c0-0.4-0.1-0.8-0.2-1.1
		c-0.1-0.3-0.3-0.5-0.6-0.7s-0.6-0.3-0.9-0.3c-0.5,0-0.9,0.2-1.2,0.5S48.7,78.2,48.7,78.9z"/>
	<path class="st1" d="M53.7,81.4v-5h1l1.2,3.5c0.1,0.3,0.2,0.6,0.2,0.7c0.1-0.2,0.1-0.5,0.3-0.8l1.2-3.5h0.9v5h-0.6v-4.2l-1.4,4.2
		h-0.6L54.5,77v4.3L53.7,81.4L53.7,81.4L53.7,81.4z"/>
</g>
</svg>
