<?xml version="1.0" encoding="utf-8"?>
<!-- Generator: Adobe Illustrator 22.0.0, SVG Export Plug-In . SVG Version: 6.00 Build 0)  -->
<svg version="1.1" id="图层_1" xmlns="http://www.w3.org/2000/svg" xmlns:xlink="http://www.w3.org/1999/xlink" x="0px" y="0px"
	 viewBox="0 0 88 88" style="enable-background:new 0 0 88 88;" xml:space="preserve">
<style type="text/css">
	.st0{fill:#FFFFFF;}
	.st1{opacity:6.000000e-02;enable-background:new    ;}
</style>
<title>QUN</title>
<path d="M88,44c0,24.3-19.7,44-44,44S0,68.3,0,44S19.7,0,44,0S88,19.7,88,44"/>
<g>
	<path class="st0" d="M22.3,35c4,3,11.3,5.2,13,8.4c1.7,3.2,5.5,9.5,6,10.5c0.5,1,1.6,2.2,2.8,2.2v0c0,0,0,0,0,0s0,0,0,0v0
		c1.2,0,2.3-1.3,2.8-2.2c0.5-1,4.2-7.3,6-10.5c1.7-3.2,9-5.5,13-8.4c4-3,1.3-7.3,0.7-7.9c-0.7-0.7-14.4-9-17.2-10.7
		c-2.8-1.7-4.6-1.7-5.2-1.7c0,0,0,0,0,0s0,0,0,0c-0.6,0-2.4,0-5.2,1.7c-2.8,1.7-16.6,10-17.2,10.7S18.3,32.1,22.3,35z M27.1,28.1
		c0.6-0.4,13.9-9.3,16.9-9.2c3-0.1,16.3,8.8,16.9,9.2c0.6,0.4,0.6,2.5,0,3.3c-0.6,0.8-10.4,7.6-12.2,9.2C46.7,42.2,44,48,44,48.1
		c0,0-2.7-5.9-4.6-7.5c-1.8-1.6-11.6-8.4-12.2-9.2C26.6,30.6,26.6,28.5,27.1,28.1z"/>
	<path class="st0" d="M65.8,37.6c0,0-1.9,0-1.9,1.8s0,14.6,0,15.5c0,0.9-1,2.2-2.6,3.1c-1.4,0.8-14.1,8.8-17.3,9.8
		c-3.2-0.9-15.9-9-17.3-9.8c-1.5-0.8-2.6-2.2-2.6-3.1c0-0.9,0-13.6,0-15.5s-1.9-1.8-1.9-1.8c-1.6,0-2.1,1.2-2.1,1.9s0,1.2,0,2.3
		c0,0,0.2,15.4,0.2,16.6s1.1,1.8,1.4,2s20.5,12,21.5,12.6c0.2,0.1,0.4,0.2,0.5,0.3c0.1,0.1,0.2,0.1,0.3,0.1c0,0,0,0,0,0c0,0,0,0,0,0
		c0.1,0,0.2,0,0.3-0.1c0.2-0.1,0.3-0.1,0.5-0.3c1-0.6,21.2-12.4,21.5-12.6s1.4-0.8,1.4-2s0.2-16.6,0.2-16.6c0-1.1,0-1.7,0-2.3
		S67.4,37.6,65.8,37.6z"/>
</g>
<g class="st1">
	<path class="st0" d="M30.8,81.9v-0.6l2.6-3.2c0.2-0.2,0.4-0.4,0.5-0.6h-2.8v-0.6h3.6v0.5l-2.8,3.5l-0.4,0.4h3.2v0.6H30.8z"/>
	<path class="st0" d="M35.3,81.9v-5h2c0.4,0,0.7,0.1,0.9,0.2c0.2,0.1,0.4,0.3,0.5,0.5s0.2,0.4,0.2,0.7c0,0.2-0.1,0.4-0.2,0.6
		c-0.1,0.2-0.3,0.3-0.5,0.5c0.3,0.1,0.5,0.2,0.7,0.5c0.2,0.2,0.2,0.5,0.2,0.8c0,0.2,0,0.5-0.1,0.7s-0.2,0.4-0.4,0.5
		c-0.2,0.1-0.3,0.2-0.5,0.2c-0.2,0.1-0.5,0.1-0.8,0.1h-2V81.9z M36.1,79h1.1c0.3,0,0.5,0,0.6-0.1c0.2-0.1,0.3-0.1,0.4-0.2
		s0.1-0.3,0.1-0.4c0-0.2,0-0.3-0.1-0.4s-0.2-0.2-0.3-0.3s-0.4-0.2-0.8-0.2h-1V79z M36.1,81.3h1.2c0.2,0,0.4,0,0.5,0
		c0.2,0,0.3-0.1,0.4-0.1c0.1,0,0.2-0.2,0.3-0.3s0.1-0.3,0.1-0.4c0-0.2,0-0.3-0.1-0.5s-0.2-0.2-0.4-0.3c-0.2-0.1-0.4-0.1-0.7-0.1
		h-1.2L36.1,81.3L36.1,81.3z"/>
	<path class="st0" d="M40.1,81.9v-0.7h0.7v0.7H40.1z"/>
	<path class="st0" d="M45.6,80.1l0.7,0.2c-0.1,0.5-0.4,1-0.8,1.2c-0.4,0.2-0.8,0.4-1.3,0.4s-1-0.1-1.3-0.3c-0.3-0.2-0.6-0.5-0.8-1
		c-0.2-0.4-0.3-0.9-0.3-1.3c0-0.5,0.1-1,0.3-1.4c0.2-0.4,0.5-0.7,0.9-0.9c0.4-0.2,0.8-0.3,1.2-0.3c0.5,0,0.9,0.1,1.3,0.4
		c0.3,0.3,0.6,0.6,0.7,1.1l-0.7,0.2c-0.1-0.4-0.3-0.6-0.5-0.8c-0.2-0.2-0.5-0.2-0.8-0.2c-0.4,0-0.7,0.1-1,0.3
		c-0.3,0.2-0.4,0.4-0.5,0.7c-0.1,0.3-0.2,0.6-0.2,1s0.1,0.8,0.2,1.1c0.1,0.3,0.3,0.6,0.6,0.7c0.3,0.1,0.5,0.2,0.9,0.2
		s0.7-0.1,0.9-0.3C45.3,80.9,45.5,80.5,45.6,80.1z"/>
	<path class="st0" d="M46.8,79.4c0-0.8,0.2-1.5,0.7-2s1-0.7,1.7-0.7c0.5,0,0.9,0.1,1.3,0.3c0.4,0.2,0.7,0.5,0.8,0.9s0.3,0.8,0.3,1.3
		s-0.1,1-0.3,1.4c-0.2,0.4-0.5,0.7-0.9,0.9c-0.4,0.2-0.8,0.3-1.2,0.3c-0.5,0-0.9-0.1-1.3-0.3c-0.4-0.2-0.7-0.5-0.8-0.9
		S46.8,79.9,46.8,79.4z M47.5,79.4c0,0.6,0.2,1.1,0.5,1.4c0.3,0.3,0.8,0.5,1.3,0.5s0.9-0.2,1.2-0.5c0.3-0.4,0.5-0.8,0.5-1.5
		c0-0.4-0.1-0.8-0.2-1.1c-0.1-0.3-0.3-0.5-0.6-0.7c-0.3-0.2-0.6-0.3-0.9-0.3c-0.5,0-0.9,0.2-1.2,0.5C47.8,78,47.5,78.7,47.5,79.4z"
		/>
	<path class="st0" d="M52.5,81.9v-5h1l1.2,3.5c0.1,0.3,0.2,0.6,0.2,0.7c0.1-0.2,0.1-0.5,0.3-0.8l1.2-3.5h0.9v5h-0.6v-4.2l-1.4,4.2
		h-0.6l-1.4-4.3v4.3L52.5,81.9L52.5,81.9L52.5,81.9z"/>
</g>
</svg>
