<?xml version="1.0" encoding="utf-8"?>
<!-- Generator: Adobe Illustrator 22.1.0, SVG Export Plug-In . SVG Version: 6.00 Build 0)  -->
<svg version="1.1" id="图层_1" xmlns="http://www.w3.org/2000/svg" xmlns:xlink="http://www.w3.org/1999/xlink" x="0px" y="0px"
	 viewBox="0 0 150 150" style="enable-background:new 0 0 150 150;" xml:space="preserve">
<style type="text/css">
	.st0{fill:#2643FF;}
	.st1{fill:#FFFFFF;}
	.st2{opacity:7.000000e-02;enable-background:new    ;}
</style>
<circle class="st0" cx="75" cy="75" r="75"/>
<g>
	<path class="st1" d="M62.5,74c0.9-0.7,2.2-0.8,3.3-0.3l12.5,5.6c0.7,0.3,1.4,0.2,1.9-0.3L112.7,52C105.5,41.8,93.6,35.1,80,35.1H40
		v54.1C47.3,84.2,55.8,78.4,62.5,74z"/>
	<path class="st1" d="M82,86.3c-1,0.8-2.4,1-3.6,0.5L65.6,81c-0.6-0.3-1.3-0.2-1.9,0.2c-11,7.5-18.6,12.5-23.7,16.1v17.6h40
		c22,0,40-17.9,40-40l0,0c0-6.1-1.4-11.9-3.8-17.1L82,86.3z"/>
</g>
<g class="st2">
	<path class="st1" d="M61.7,133v-0.6l2.6-3.2c0.2-0.2,0.4-0.4,0.5-0.6H62V128h3.6v0.5l-2.8,3.5l-0.3,0.4h3.2v0.6H61.7L61.7,133z"/>
	<path class="st1" d="M66.3,133v-5h1.9c0.4,0,0.7,0.1,0.9,0.2c0.2,0.1,0.4,0.3,0.5,0.5s0.2,0.4,0.2,0.7c0,0.2-0.1,0.4-0.2,0.6
		c-0.1,0.2-0.3,0.3-0.5,0.5c0.3,0.1,0.5,0.2,0.7,0.5c0.2,0.2,0.2,0.5,0.2,0.8c0,0.2,0,0.5-0.1,0.7s-0.2,0.4-0.4,0.5
		c-0.2,0.1-0.3,0.2-0.5,0.2c-0.2,0.1-0.5,0.1-0.8,0.1h-1.9C66.3,133.3,66.3,133,66.3,133z M67,130.1h1.1c0.3,0,0.5,0,0.6-0.1
		c0.2-0.1,0.3-0.1,0.4-0.2c0.1-0.1,0.1-0.3,0.1-0.4c0-0.2,0-0.3-0.1-0.4c-0.1-0.1-0.2-0.2-0.3-0.3s-0.4-0.2-0.8-0.2h-1
		C67,128.5,67,130.1,67,130.1z M67,132.4h1.2c0.2,0,0.4,0,0.5,0c0.2,0,0.3-0.1,0.4-0.1s0.2-0.2,0.3-0.3c0.1-0.1,0.1-0.3,0.1-0.4
		c0-0.2,0-0.3-0.1-0.5c-0.1-0.2-0.2-0.2-0.4-0.3c-0.2-0.1-0.4-0.1-0.7-0.1h-1.2L67,132.4L67,132.4z"/>
	<path class="st1" d="M71.1,133v-0.7h0.7v0.7H71.1z"/>
	<path class="st1" d="M76.6,131.2l0.7,0.2c-0.1,0.5-0.4,1-0.8,1.2c-0.4,0.2-0.8,0.4-1.3,0.4s-1-0.1-1.3-0.3c-0.3-0.2-0.6-0.5-0.8-1
		c-0.2-0.4-0.3-0.9-0.3-1.3c0-0.5,0.1-1,0.3-1.4c0.2-0.4,0.5-0.7,0.9-0.9c0.4-0.2,0.8-0.3,1.2-0.3c0.5,0,0.9,0.1,1.3,0.4
		c0.3,0.3,0.6,0.6,0.7,1.1l-0.7,0.2c-0.1-0.4-0.3-0.6-0.5-0.8c-0.2-0.2-0.5-0.2-0.8-0.2c-0.4,0-0.7,0.1-1,0.3
		c-0.3,0.2-0.4,0.4-0.5,0.7c-0.1,0.3-0.2,0.6-0.2,1c0,0.4,0.1,0.8,0.2,1.1c0.1,0.3,0.3,0.6,0.6,0.7c0.3,0.1,0.5,0.2,0.9,0.2
		c0.4,0,0.7-0.1,0.9-0.3C76.3,132,76.5,131.6,76.6,131.2z"/>
	<path class="st1" d="M77.8,130.5c0-0.8,0.2-1.5,0.7-2c0.5-0.5,1-0.7,1.7-0.7c0.5,0,0.9,0.1,1.3,0.3c0.4,0.2,0.7,0.5,0.8,0.9
		c0.1,0.4,0.3,0.8,0.3,1.3s-0.1,1-0.3,1.4c-0.2,0.4-0.5,0.7-0.9,0.9c-0.4,0.2-0.8,0.3-1.2,0.3c-0.5,0-0.9-0.1-1.3-0.3
		c-0.4-0.2-0.7-0.5-0.8-0.9C78,131.3,77.8,131,77.8,130.5z M78.5,130.5c0,0.6,0.2,1.1,0.5,1.4c0.3,0.3,0.7,0.5,1.2,0.5
		s0.9-0.2,1.2-0.5c0.3-0.4,0.5-0.8,0.5-1.5c0-0.4-0.1-0.8-0.2-1.1c-0.1-0.3-0.3-0.5-0.6-0.7c-0.3-0.2-0.6-0.3-0.9-0.3
		c-0.5,0-0.9,0.2-1.2,0.5S78.5,129.8,78.5,130.5z"/>
	<path class="st1" d="M83.5,133v-5h1l1.2,3.5c0.1,0.3,0.2,0.6,0.2,0.7c0.1-0.2,0.1-0.5,0.3-0.8l1.2-3.5h0.9v5h-0.6v-4.2l-1.5,4.2
		h-0.6l-1.4-4.3v4.3h-0.7V133z"/>
</g>
</svg>
