<?xml version="1.0" encoding="utf-8"?>
<!-- Generator: Adobe Illustrator 22.0.0, SVG Export Plug-In . SVG Version: 6.00 Build 0)  -->
<svg version="1.1" id="图层_1" xmlns="http://www.w3.org/2000/svg" xmlns:xlink="http://www.w3.org/1999/xlink" x="0px" y="0px"
	 viewBox="0 0 88 88" style="enable-background:new 0 0 88 88;" xml:space="preserve">
<style type="text/css">
	.st0{fill:#4254FF;}
	.st1{fill:#FFFFFF;}
	.st2{opacity:3.000000e-02;enable-background:new    ;}
</style>
<title>BCD</title>
<g>
	<circle class="st0" cx="44" cy="44" r="44"/>
	<g>
		<path class="st1" d="M47.2,41.7c-0.4,0.5-0.5,1.1-0.3,1.7c0.2,0.6,0.8,0.9,1.4,0.9c0.4,0,0.9-0.2,1.2-0.5l7.9-8.7
			c0.3-0.1,0.5-0.3,0.6-0.6c0.3-0.5,0.3-1.1,0.1-1.6c-0.1-0.3-0.3-0.5-0.5-0.6L47.9,22c-0.3-0.3-0.7-0.5-1.1-0.5
			c-0.4,0-0.8,0.2-1.1,0.5c-0.6,0.6-0.6,1.6,0,2.2l7.4,7.8c-5.8,0.1-17,0.9-25.7,5.8c-7.7,4.7-13.9,11.2-18.2,19
			c-0.4,0.8-0.1,1.7,0.6,2.1C10,59,10.3,59,10.5,59c0.6,0,1.1-0.3,1.4-0.8c4.1-7.2,9.9-13.3,17-17.6c8-4.6,18.8-5.3,24.3-5.4
			L47.2,41.7z"/>
		<path class="st1" d="M78.1,29.4c-0.8-0.4-1.7-0.1-2.1,0.7c-4,7.2-9.9,13.3-16.9,17.6C51,52.3,40.2,53,34.8,53l5.9-6.3
			c0.3-0.3,0.4-0.7,0.4-1.1c0-0.4-0.2-0.8-0.5-1.1C40,43.9,39,44,38.4,44.6l-8.2,8.9c-0.6,0.6-0.6,1.5,0,2.1l10.1,10.3
			c0.3,0.3,0.7,0.5,1.1,0.5c0.4,0,0.8-0.1,1.1-0.4s0.5-0.7,0.5-1.1s-0.2-0.8-0.5-1.1l-7.4-7.6c5.8,0,16.9-0.8,25.5-5.7
			c7.6-4.6,13.9-11.1,18.2-18.9C79.2,30.8,78.9,29.8,78.1,29.4z"/>
	</g>
</g>
<g class="st2">
	<path class="st1" d="M30.7,78.1v-0.6l2.6-3.2c0.2-0.2,0.4-0.4,0.5-0.6H31v-0.6h3.6v0.5l-2.8,3.5l-0.3,0.4h3.2v0.6H30.7z"/>
	<path class="st1" d="M35.3,78.1v-5h1.9c0.4,0,0.7,0.1,0.9,0.2s0.4,0.3,0.5,0.5s0.2,0.4,0.2,0.7c0,0.2-0.1,0.4-0.2,0.6
		s-0.3,0.3-0.5,0.5c0.3,0.1,0.5,0.2,0.7,0.5c0.2,0.2,0.2,0.5,0.2,0.8c0,0.2,0,0.5-0.1,0.7s-0.2,0.4-0.4,0.5s-0.3,0.2-0.5,0.2
		c-0.2,0.1-0.5,0.1-0.8,0.1h-1.9V78.1z M36,75.2h1.1c0.3,0,0.5,0,0.6-0.1c0.2-0.1,0.3-0.1,0.4-0.2c0.1-0.1,0.1-0.3,0.1-0.4
		c0-0.2,0-0.3-0.1-0.4s-0.2-0.2-0.3-0.3s-0.4-0.2-0.8-0.2h-1V75.2z M36,77.5h1.2c0.2,0,0.4,0,0.5,0c0.2,0,0.3-0.1,0.4-0.1
		s0.2-0.2,0.3-0.3s0.1-0.3,0.1-0.4c0-0.2,0-0.3-0.1-0.5S38.2,76,38,75.9c-0.2-0.1-0.4-0.1-0.7-0.1h-1.2L36,77.5L36,77.5z"/>
	<path class="st1" d="M40.1,78.1v-0.7h0.7v0.7H40.1z"/>
	<path class="st1" d="M45.6,76.3l0.7,0.2c-0.1,0.5-0.4,1-0.8,1.2s-0.8,0.4-1.3,0.4s-1-0.1-1.3-0.3c-0.3-0.2-0.6-0.5-0.8-1
		c-0.2-0.4-0.3-0.9-0.3-1.3c0-0.5,0.1-1,0.3-1.4s0.5-0.7,0.9-0.9c0.4-0.2,0.8-0.3,1.2-0.3c0.5,0,0.9,0.1,1.3,0.4
		c0.3,0.3,0.6,0.6,0.7,1.1l-0.7,0.2c-0.1-0.4-0.3-0.6-0.5-0.8s-0.5-0.2-0.8-0.2c-0.4,0-0.7,0.1-1,0.3c-0.3,0.2-0.4,0.4-0.5,0.7
		c-0.1,0.3-0.2,0.6-0.2,1s0.1,0.8,0.2,1.1c0.1,0.3,0.3,0.6,0.6,0.7s0.5,0.2,0.9,0.2s0.7-0.1,0.9-0.3C45.3,77.1,45.5,76.7,45.6,76.3z
		"/>
	<path class="st1" d="M46.8,75.6c0-0.8,0.2-1.5,0.7-2s1-0.7,1.7-0.7c0.5,0,0.9,0.1,1.3,0.3c0.4,0.2,0.7,0.5,0.8,0.9s0.3,0.8,0.3,1.3
		s-0.1,1-0.3,1.4s-0.5,0.7-0.9,0.9C50,77.9,49.6,78,49.2,78c-0.5,0-0.9-0.1-1.3-0.3c-0.4-0.2-0.7-0.5-0.8-0.9S46.8,76.1,46.8,75.6z
		 M47.5,75.6c0,0.6,0.2,1.1,0.5,1.4s0.7,0.5,1.2,0.5s0.9-0.2,1.2-0.5c0.3-0.4,0.5-0.8,0.5-1.5c0-0.4-0.1-0.8-0.2-1.1
		c-0.1-0.3-0.3-0.5-0.6-0.7s-0.6-0.3-0.9-0.3c-0.5,0-0.9,0.2-1.2,0.5S47.5,74.9,47.5,75.6z"/>
	<path class="st1" d="M52.5,78.1v-5h1l1.2,3.5c0.1,0.3,0.2,0.6,0.2,0.7c0.1-0.2,0.1-0.5,0.3-0.8l1.2-3.5h0.9v5h-0.6v-4.2L55.2,78
		h-0.6l-1.4-4.3V78h-0.7V78.1z"/>
</g>
</svg>
