<?xml version="1.0" encoding="utf-8"?>
<!-- Generator: Adobe Illustrator 22.0.0, SVG Export Plug-In . SVG Version: 6.00 Build 0)  -->
<svg version="1.1" id="图层_1" xmlns="http://www.w3.org/2000/svg" xmlns:xlink="http://www.w3.org/1999/xlink" x="0px" y="0px"
	 viewBox="0 0 90.6 93.9" style="enable-background:new 0 0 90.6 93.9;" xml:space="preserve">
<style type="text/css">
	.st0{fill:#E7D631;}
	.st1{fill:#FFFFFF;}
	.st2{clip-path:url(#SVGID_2_);}
	.st3{clip-path:url(#SVGID_4_);}
	.st4{clip-path:url(#SVGID_6_);}
	.st5{opacity:0.1;enable-background:new    ;}
</style>
<title>RLC</title>
<g id="图层_2_1_">
	<g id="图层_1-2">
		<g id="RLC">
			<circle class="st0" cx="45.3" cy="46.9" r="45.3"/>
			<path class="st1" d="M65.3,38.6c-4.5,0.5-7.8,4.4-7.5,8.9c0.1,1.2-0.5,2.3-1.5,2.9l0,0c-0.5,0.3-1.1,0.5-1.6,0.5
				c-0.6,0-1.2-0.2-1.7-0.5c-1.4-0.8-2.9-1.2-4.5-1.2h-0.9c-4.4,0.5-7.7,4.5-7.3,8.9c0.1,1.2-0.5,2.3-1.5,2.9
				c-0.5,0.3-1.1,0.5-1.7,0.5c-0.5,0-1.1-0.1-1.5-0.5c-1.4-0.8-2.9-1.2-4.5-1.2H30c-4.6,0.6-7.8,4.8-7.2,9.4c0.5,4.1,4,7.2,8.2,7.3
				h0.8c4-0.4,7.1-3.5,7.5-7.5v-1.4c-0.1-1.2,0.5-2.3,1.5-2.9l0,0c0.5-0.3,1.1-0.5,1.7-0.5c0.6,0,1.2,0.2,1.7,0.5
				c1.4,0.8,2.9,1.2,4.4,1.2h0.9c3.9-0.4,7-3.6,7.4-7.5V57c-0.1-1.2,0.5-2.3,1.5-2.9c0.5-0.3,1.1-0.5,1.7-0.5c0.5,0,1.1,0.1,1.5,0.5
				c1.4,0.8,2.9,1.2,4.4,1.2h0.9c4.2-0.6,7.3-4.2,7.4-8.4c0-4.6-3.6-8.4-8.2-8.4C65.8,38.4,65.5,38.4,65.3,38.6"/>
			<g>
				<defs>
					<path id="SVGID_1_" d="M65.3,38.6c-4.5,0.5-7.8,4.4-7.5,8.9c0.1,1.2-0.5,2.3-1.5,2.9l0,0c-0.5,0.3-1.1,0.5-1.6,0.5
						c-0.6,0-1.2-0.2-1.7-0.5c-1.4-0.8-2.9-1.2-4.5-1.2h-0.9c-4.4,0.5-7.7,4.5-7.3,8.9c0.1,1.2-0.5,2.3-1.5,2.9
						c-0.5,0.3-1.1,0.5-1.7,0.5c-0.5,0-1.1-0.1-1.5-0.5c-1.4-0.8-2.9-1.2-4.5-1.2H30c-4.6,0.6-7.8,4.8-7.2,9.4
						c0.5,4.1,4,7.2,8.2,7.3h0.8c4-0.4,7.1-3.5,7.5-7.5v-1.4c-0.1-1.2,0.5-2.3,1.5-2.9l0,0c0.5-0.3,1.1-0.5,1.7-0.5
						c0.6,0,1.2,0.2,1.7,0.5c1.4,0.8,2.9,1.2,4.4,1.2h0.9c3.9-0.4,7-3.6,7.4-7.5V57c-0.1-1.2,0.5-2.3,1.5-2.9
						c0.5-0.3,1.1-0.5,1.7-0.5c0.5,0,1.1,0.1,1.5,0.5c1.4,0.8,2.9,1.2,4.4,1.2h0.9c4.2-0.6,7.3-4.2,7.4-8.4c0-4.6-3.6-8.4-8.2-8.4
						C65.8,38.4,65.5,38.4,65.3,38.6"/>
				</defs>
				<clipPath id="SVGID_2_">
					<use xlink:href="#SVGID_1_"  style="overflow:visible;"/>
				</clipPath>
				<g class="st2">
					<polygon class="st1" points="3.5,57.5 48.4,12.5 93.4,57.5 48.4,102.3 					"/>
				</g>
			</g>
			<path class="st1" d="M47.6,28c-4.5,0.5-7.7,4.4-7.5,8.9c0.1,1.2-0.5,2.3-1.5,2.9c-0.5,0.3-1.1,0.5-1.7,0.5
				c-0.5,0-1.1-0.1-1.5-0.5c-1.4-0.8-2.9-1.2-4.5-1.2H30c-4.1,0.5-7.2,4-7.2,8.1c0,4.6,3.7,8.4,8.3,8.5c0,0,0,0,0,0h0.8
				c4-0.4,7.1-3.5,7.5-7.5v-1.4c-0.1-1.2,0.5-2.3,1.5-2.9c0.5-0.3,1.1-0.5,1.7-0.5c0.5,0,1.1,0.1,1.5,0.5c1.4,0.8,2.9,1.2,4.4,1.2
				h0.9c4.6-0.6,7.8-4.8,7.2-9.4c-0.5-4.1-4-7.2-8.2-7.3C48.2,27.8,47.9,27.9,47.6,28"/>
			<g>
				<defs>
					<path id="SVGID_3_" d="M47.6,28c-4.5,0.5-7.7,4.4-7.5,8.9c0.1,1.2-0.5,2.3-1.5,2.9c-0.5,0.3-1.1,0.5-1.7,0.5
						c-0.5,0-1.1-0.1-1.5-0.5c-1.4-0.8-2.9-1.2-4.5-1.2H30c-4.1,0.5-7.2,4-7.2,8.1c0,4.6,3.7,8.4,8.3,8.5c0,0,0,0,0,0h0.8
						c4-0.4,7.1-3.5,7.5-7.5v-1.4c-0.1-1.2,0.5-2.3,1.5-2.9c0.5-0.3,1.1-0.5,1.7-0.5c0.5,0,1.1,0.1,1.5,0.5c1.4,0.8,2.9,1.2,4.4,1.2
						h0.9c4.6-0.6,7.8-4.8,7.2-9.4c-0.5-4.1-4-7.2-8.2-7.3C48.2,27.8,47.9,27.9,47.6,28"/>
				</defs>
				<clipPath id="SVGID_4_">
					<use xlink:href="#SVGID_3_"  style="overflow:visible;"/>
				</clipPath>
				<g class="st3">
					<polygon class="st1" points="8.8,41.5 39.7,10.8 70.3,41.5 39.7,72.3 					"/>
				</g>
			</g>
			<circle class="st1" cx="30.8" cy="25.7" r="8.3"/>
			<g>
				<defs>
					<circle id="SVGID_5_" cx="30.8" cy="25.7" r="8.3"/>
				</defs>
				<clipPath id="SVGID_6_">
					<use xlink:href="#SVGID_5_"  style="overflow:visible;"/>
				</clipPath>
				<g class="st4">
					<polygon class="st1" points="14,25.7 30.8,9 47.5,25.7 30.8,42.4 					"/>
				</g>
			</g>
		</g>
	</g>
</g>
<g class="st5">
	<path class="st1" d="M32.9,85.5v-0.6l2.6-3.2c0.2-0.2,0.4-0.4,0.5-0.6h-2.8v-0.6h3.6V81L34,84.5l-0.3,0.4h3.2v0.6H32.9z"/>
	<path class="st1" d="M37.5,85.5v-5h1.9c0.4,0,0.7,0.1,0.9,0.2s0.4,0.3,0.5,0.5s0.2,0.4,0.2,0.7c0,0.2-0.1,0.4-0.2,0.6
		s-0.3,0.3-0.5,0.5c0.3,0.1,0.5,0.2,0.7,0.5c0.2,0.2,0.2,0.5,0.2,0.8c0,0.2,0,0.5-0.1,0.7s-0.2,0.4-0.4,0.5s-0.3,0.2-0.5,0.2
		c-0.2,0.1-0.5,0.1-0.8,0.1h-1.9V85.5z M38.2,82.6h1.1c0.3,0,0.5,0,0.6-0.1c0.2-0.1,0.3-0.1,0.4-0.2c0.1-0.1,0.1-0.3,0.1-0.4
		c0-0.2,0-0.3-0.1-0.4s-0.2-0.2-0.3-0.3S39.6,81,39.2,81h-1V82.6z M38.2,84.9h1.2c0.2,0,0.4,0,0.5,0c0.2,0,0.3-0.1,0.4-0.1
		s0.2-0.2,0.3-0.3s0.1-0.3,0.1-0.4c0-0.2,0-0.3-0.1-0.5s-0.2-0.2-0.4-0.3c-0.2-0.1-0.4-0.1-0.7-0.1h-1.2L38.2,84.9L38.2,84.9z"/>
	<path class="st1" d="M42.3,85.5v-0.7H43v0.7H42.3z"/>
	<path class="st1" d="M47.8,83.7l0.7,0.2c-0.1,0.5-0.4,1-0.8,1.2s-0.8,0.4-1.3,0.4s-1-0.1-1.3-0.3c-0.3-0.2-0.6-0.5-0.8-1
		c-0.2-0.4-0.3-0.9-0.3-1.3c0-0.5,0.1-1,0.3-1.4s0.5-0.7,0.9-0.9c0.4-0.2,0.8-0.3,1.2-0.3c0.5,0,0.9,0.1,1.3,0.4
		c0.3,0.3,0.6,0.6,0.7,1.1L47.7,82c-0.1-0.4-0.3-0.6-0.5-0.8S46.7,81,46.4,81c-0.4,0-0.7,0.1-1,0.3c-0.3,0.2-0.4,0.4-0.5,0.7
		c-0.1,0.3-0.2,0.6-0.2,1s0.1,0.8,0.2,1.1c0.1,0.3,0.3,0.6,0.6,0.7S46,85,46.4,85s0.7-0.1,0.9-0.3C47.5,84.5,47.7,84.1,47.8,83.7z"
		/>
	<path class="st1" d="M49,83c0-0.8,0.2-1.5,0.7-2s1-0.7,1.7-0.7c0.5,0,0.9,0.1,1.3,0.3c0.4,0.2,0.7,0.5,0.8,0.9s0.3,0.8,0.3,1.3
		s-0.1,1-0.3,1.4s-0.5,0.7-0.9,0.9c-0.4,0.2-0.8,0.3-1.2,0.3c-0.5,0-0.9-0.1-1.3-0.3c-0.4-0.2-0.7-0.5-0.8-0.9S49,83.5,49,83z
		 M49.7,83c0,0.6,0.2,1.1,0.5,1.4s0.7,0.5,1.2,0.5s0.9-0.2,1.2-0.5c0.3-0.4,0.5-0.8,0.5-1.5c0-0.4-0.1-0.8-0.2-1.1
		c-0.1-0.3-0.3-0.5-0.6-0.7s-0.6-0.3-0.9-0.3c-0.5,0-0.9,0.2-1.2,0.5S49.7,82.3,49.7,83z"/>
	<path class="st1" d="M54.7,85.5v-5h1l1.2,3.5c0.1,0.3,0.2,0.6,0.2,0.7c0.1-0.2,0.1-0.5,0.3-0.8l1.2-3.5h0.9v5h-0.6v-4.2l-1.5,4.2
		h-0.6l-1.4-4.3v4.3h-0.7V85.5z"/>
</g>
</svg>
