<?xml version="1.0" encoding="utf-8"?>
<!-- Generator: Adobe Illustrator 22.0.0, SVG Export Plug-In . SVG Version: 6.00 Build 0)  -->
<svg version="1.1" id="图层_1" xmlns="http://www.w3.org/2000/svg" xmlns:xlink="http://www.w3.org/1999/xlink" x="0px" y="0px"
	 viewBox="0 0 88 88" style="enable-background:new 0 0 88 88;" xml:space="preserve">
<style type="text/css">
	.st0{fill:#FF7F00;}
	.st1{fill:#FFFFFF;}
	.st2{opacity:0.1;enable-background:new    ;}
</style>
<title>SBTC</title>
<g id="图层_2_1_">
	<g id="图层_1-2">
		<circle class="st0" cx="44" cy="44" r="44"/>
		<path class="st1" d="M32.1,58.2c-7.9-6.6-9.1-18.3-2.5-26.2c3.5-4.3,8.8-6.8,14.4-6.8h24.8C58.5,11.5,39,8.8,25.4,19.1
			c-12.1,9.1-15.8,25.7-8.8,39.1L32.1,58.2z"/>
		<path class="st1" d="M55.9,29.5c7.9,6.6,9.1,18.3,2.5,26.2c-3.5,4.3-8.8,6.8-14.4,6.8H19.2C29.5,76.2,49,78.9,62.6,68.6
			c12.1-9.1,15.8-25.7,8.8-39.1L55.9,29.5z"/>
		<path class="st1" d="M44,29.3c-8,0-14.5,6.5-14.5,14.5c0,8,6.5,14.5,14.5,14.5s14.5-6.5,14.5-14.5c0,0,0,0,0,0
			C58.5,35.8,52,29.3,44,29.3z M51,47c-0.1,2.2-2,3.9-4.2,3.7h-9.7V36.9h9.6c2.2-0.1,4.1,1.5,4.2,3.7c0,1.3-0.8,2.6-2,3.2
			C50.2,44.4,51,45.6,51,47z"/>
		<path class="st1" d="M46.6,40.3h-6.2v1.9h6.2c0.5,0.1,1.1-0.2,1.2-0.7s-0.2-1.1-0.7-1.2C46.9,40.2,46.7,40.2,46.6,40.3z
			 M46.6,45.5h-6.2v1.9h6.2c0.5,0.1,1.1-0.2,1.2-0.7s-0.2-1.1-0.7-1.2C46.9,45.4,46.7,45.4,46.6,45.5z"/>
	</g>
</g>
<g class="st2">
	<path class="st1" d="M31.9,82.1v-0.6l2.6-3.2c0.2-0.2,0.4-0.4,0.5-0.6h-2.8v-0.6h3.6v0.5L33,81.1l-0.3,0.4h3.2v0.6H31.9z"/>
	<path class="st1" d="M36.5,82.1v-5h1.9c0.4,0,0.7,0.1,0.9,0.2s0.4,0.3,0.5,0.5s0.2,0.4,0.2,0.7c0,0.2-0.1,0.4-0.2,0.6
		s-0.3,0.3-0.5,0.5c0.3,0.1,0.5,0.2,0.7,0.5c0.2,0.2,0.2,0.5,0.2,0.8c0,0.2,0,0.5-0.1,0.7s-0.2,0.4-0.4,0.5s-0.3,0.2-0.5,0.2
		c-0.2,0.1-0.5,0.1-0.8,0.1h-1.9V82.1z M37.2,79.2h1.1c0.3,0,0.5,0,0.6-0.1c0.2-0.1,0.3-0.1,0.4-0.2c0.1-0.1,0.1-0.3,0.1-0.4
		c0-0.2,0-0.3-0.1-0.4s-0.2-0.2-0.3-0.3s-0.4-0.2-0.8-0.2h-1V79.2z M37.2,81.5h1.2c0.2,0,0.4,0,0.5,0c0.2,0,0.3-0.1,0.4-0.1
		s0.2-0.2,0.3-0.3s0.1-0.3,0.1-0.4c0-0.2,0-0.3-0.1-0.5s-0.2-0.2-0.4-0.3c-0.2-0.1-0.4-0.1-0.7-0.1h-1.2L37.2,81.5L37.2,81.5z"/>
	<path class="st1" d="M41.3,82.1v-0.7H42v0.7H41.3z"/>
	<path class="st1" d="M46.8,80.3l0.7,0.2c-0.1,0.5-0.4,1-0.8,1.2s-0.8,0.4-1.3,0.4s-1-0.1-1.3-0.3c-0.3-0.2-0.6-0.5-0.8-1
		c-0.2-0.4-0.3-0.9-0.3-1.3c0-0.5,0.1-1,0.3-1.4s0.5-0.7,0.9-0.9c0.4-0.2,0.8-0.3,1.2-0.3c0.5,0,0.9,0.1,1.3,0.4
		c0.3,0.3,0.6,0.6,0.7,1.1l-0.7,0.2c-0.1-0.4-0.3-0.6-0.5-0.8s-0.5-0.2-0.8-0.2c-0.4,0-0.7,0.1-1,0.3c-0.3,0.2-0.4,0.4-0.5,0.7
		c-0.1,0.3-0.2,0.6-0.2,1s0.1,0.8,0.2,1.1c0.1,0.3,0.3,0.6,0.6,0.7s0.5,0.2,0.9,0.2s0.7-0.1,0.9-0.3C46.5,81.1,46.7,80.7,46.8,80.3z
		"/>
	<path class="st1" d="M48,79.6c0-0.8,0.2-1.5,0.7-2s1-0.7,1.7-0.7c0.5,0,0.9,0.1,1.3,0.3c0.4,0.2,0.7,0.5,0.8,0.9s0.3,0.8,0.3,1.3
		s-0.1,1-0.3,1.4s-0.5,0.7-0.9,0.9c-0.4,0.2-0.8,0.3-1.2,0.3c-0.5,0-0.9-0.1-1.3-0.3c-0.4-0.2-0.7-0.5-0.8-0.9S48,80.1,48,79.6z
		 M48.7,79.6c0,0.6,0.2,1.1,0.5,1.4s0.7,0.5,1.2,0.5s0.9-0.2,1.2-0.5c0.3-0.4,0.5-0.8,0.5-1.5c0-0.4-0.1-0.8-0.2-1.1
		c-0.1-0.3-0.3-0.5-0.6-0.7s-0.6-0.3-0.9-0.3c-0.5,0-0.9,0.2-1.2,0.5S48.7,78.9,48.7,79.6z"/>
	<path class="st1" d="M53.7,82.1v-5h1l1.2,3.5c0.1,0.3,0.2,0.6,0.2,0.7c0.1-0.2,0.1-0.5,0.3-0.8l1.2-3.5h0.9v5h-0.6v-4.2L56.4,82
		h-0.6l-1.4-4.3V82h-0.7V82.1z"/>
</g>
</svg>
