<?xml version="1.0" encoding="utf-8"?>
<!-- Generator: Adobe Illustrator 22.0.0, SVG Export Plug-In . SVG Version: 6.00 Build 0)  -->
<svg version="1.1" id="图层_1" xmlns="http://www.w3.org/2000/svg" xmlns:xlink="http://www.w3.org/1999/xlink" x="0px" y="0px"
	 viewBox="0 0 88 88" style="enable-background:new 0 0 88 88;" xml:space="preserve">
<style type="text/css">
	.st0{fill:#5C71EA;}
	.st1{fill:#FFFFFF;}
	.st2{opacity:5.000000e-02;enable-background:new    ;}
</style>
<title>SNT</title>
<g id="图层_2_1_">
	<g id="图层_1-2">
		<path class="st0" d="M0,44c0,24.3,19.7,44,44,44s44-19.7,44-44S68.3,0,44,0S0,19.7,0,44z"/>
		<path class="st1" d="M30.4,41.8c0,0,0.5-2,19.5,0.4c18.2,2.5,18.2-11.6,18.2-11.6s0.4-11.4-13.2-11.4S31.7,29.1,30.4,41.8z
			 M57.6,46.1c0,0-0.5,2-19.5-0.4c-18.2-2.5-18.2,11.6-18.2,11.6s-0.5,11.4,13.2,11.4S56.2,58.9,57.6,46.1z"/>
	</g>
</g>
<g class="st2">
	<path class="st1" d="M30.7,80.7v-0.6l2.6-3.2c0.2-0.2,0.4-0.4,0.5-0.6H31v-0.6h3.6v0.5l-2.8,3.5l-0.3,0.4h3.2v0.6H30.7z"/>
	<path class="st1" d="M35.3,80.7v-5h1.9c0.4,0,0.7,0.1,0.9,0.2s0.4,0.3,0.5,0.5s0.2,0.4,0.2,0.7c0,0.2-0.1,0.4-0.2,0.6
		s-0.3,0.3-0.5,0.5c0.3,0.1,0.5,0.2,0.7,0.5c0.2,0.2,0.2,0.5,0.2,0.8c0,0.2,0,0.5-0.1,0.7s-0.2,0.4-0.4,0.5s-0.3,0.2-0.5,0.2
		C37.8,81,37.5,81,37.2,81h-1.9V80.7z M36,77.8h1.1c0.3,0,0.5,0,0.6-0.1c0.2-0.1,0.3-0.1,0.4-0.2c0.1-0.1,0.1-0.3,0.1-0.4
		c0-0.2,0-0.3-0.1-0.4s-0.2-0.2-0.3-0.3s-0.4-0.2-0.8-0.2h-1V77.8z M36,80.1h1.2c0.2,0,0.4,0,0.5,0c0.2,0,0.3-0.1,0.4-0.1
		s0.2-0.2,0.3-0.3s0.1-0.3,0.1-0.4c0-0.2,0-0.3-0.1-0.5s-0.2-0.2-0.4-0.3c-0.2-0.1-0.4-0.1-0.7-0.1h-1.2L36,80.1L36,80.1z"/>
	<path class="st1" d="M40.1,80.7V80h0.7v0.7H40.1z"/>
	<path class="st1" d="M45.6,78.9l0.7,0.2c-0.1,0.5-0.4,1-0.8,1.2s-0.8,0.4-1.3,0.4s-1-0.1-1.3-0.3c-0.3-0.2-0.6-0.5-0.8-1
		c-0.2-0.4-0.3-0.9-0.3-1.3c0-0.5,0.1-1,0.3-1.4s0.5-0.7,0.9-0.9c0.4-0.2,0.8-0.3,1.2-0.3c0.5,0,0.9,0.1,1.3,0.4
		c0.3,0.3,0.6,0.6,0.7,1.1l-0.7,0.2c-0.1-0.4-0.3-0.6-0.5-0.8s-0.5-0.2-0.8-0.2c-0.4,0-0.7,0.1-1,0.3c-0.3,0.2-0.4,0.4-0.5,0.7
		c-0.1,0.3-0.2,0.6-0.2,1s0.1,0.8,0.2,1.1c0.1,0.3,0.3,0.6,0.6,0.7s0.5,0.2,0.9,0.2s0.7-0.1,0.9-0.3C45.3,79.7,45.5,79.3,45.6,78.9z
		"/>
	<path class="st1" d="M46.8,78.2c0-0.8,0.2-1.5,0.7-2s1-0.7,1.7-0.7c0.5,0,0.9,0.1,1.3,0.3c0.4,0.2,0.7,0.5,0.8,0.9s0.3,0.8,0.3,1.3
		s-0.1,1-0.3,1.4s-0.5,0.7-0.9,0.9c-0.4,0.2-0.8,0.3-1.2,0.3c-0.5,0-0.9-0.1-1.3-0.3c-0.4-0.2-0.7-0.5-0.8-0.9S46.8,78.7,46.8,78.2z
		 M47.5,78.2c0,0.6,0.2,1.1,0.5,1.4s0.7,0.5,1.2,0.5s0.9-0.2,1.2-0.5c0.3-0.4,0.5-0.8,0.5-1.5c0-0.4-0.1-0.8-0.2-1.1
		c-0.1-0.3-0.3-0.5-0.6-0.7S49.5,76,49.2,76c-0.5,0-0.9,0.2-1.2,0.5S47.5,77.5,47.5,78.2z"/>
	<path class="st1" d="M52.5,80.7v-5h1l1.2,3.5c0.1,0.3,0.2,0.6,0.2,0.7c0.1-0.2,0.1-0.5,0.3-0.8l1.2-3.5h0.9v5h-0.6v-4.2l-1.5,4.2
		h-0.6l-1.4-4.3v4.3h-0.7V80.7z"/>
</g>
</svg>
