<?xml version="1.0" encoding="utf-8"?>
<!-- Generator: Adobe Illustrator 22.0.0, SVG Export Plug-In . SVG Version: 6.00 Build 0)  -->
<svg version="1.1" id="图层_1" xmlns="http://www.w3.org/2000/svg" xmlns:xlink="http://www.w3.org/1999/xlink" x="0px" y="0px"
	 viewBox="0 0 88 88" style="enable-background:new 0 0 88 88;" xml:space="preserve">
<style type="text/css">
	.st0{fill:#002E54;}
	.st1{fill:#FFFFFF;}
	.st2{opacity:5.000000e-02;enable-background:new    ;}
</style>
<title>SPC</title>
<g id="图层_2_1_">
	<g id="图层_1-2">
		<circle class="st0" cx="44" cy="44" r="44"/>
		<circle class="st1" cx="44" cy="44" r="29.5"/>
		<path class="st0" d="M63.2,33.3v-1.8c0-2.5-2-4.5-4.5-4.5c0,0,0,0,0,0H27.9c-1.7,0-3.1,1.4-3.1,3.1l0,0v13.4
			c0,1.7,1.4,3.1,3.1,3.1h0h26.8c0.7,0,1.3,0.6,1.3,1.3v5.4c0,0.7-0.6,1.3-1.3,1.3l0,0H24.8v1.8c0,2.5,2,4.5,4.4,4.5c0,0,0,0,0,0
			h30.8c1.7,0,3.1-1.4,3.1-3.1V43.5c0-1.7-1.4-3.1-3.1-3.1l0,0H33.3c-0.7,0-1.3-0.6-1.3-1.3l0,0v-4.5c0-0.7,0.6-1.3,1.3-1.3l0,0
			H63.2z"/>
		<path class="st1" d="M76,27.3c-3-5.7-19.7-2.9-37.4,6.3S9,54.9,12,60.6s19.7,2.9,37.4-6.3S79,33.1,76,27.3z M49,53.7
			c-16.5,8.6-32.1,11.2-34.9,5.9S22.5,42.9,39,34.3s32.1-11.2,34.9-5.9S65.5,45.1,49,53.7z"/>
	</g>
</g>
<g class="st2">
	<path class="st1" d="M33,81.6V81l2.6-3.2c0.2-0.2,0.4-0.4,0.5-0.6h-2.8v-0.6h3.6v0.5l-2.8,3.5L33.8,81H37v0.6
		C37,81.6,33,81.6,33,81.6z"/>
	<path class="st1" d="M37.6,81.6v-5h1.9c0.4,0,0.7,0.1,0.9,0.2s0.4,0.3,0.5,0.5s0.2,0.4,0.2,0.7c0,0.2-0.1,0.4-0.2,0.6
		s-0.3,0.3-0.5,0.5c0.3,0.1,0.5,0.2,0.7,0.5c0.2,0.2,0.2,0.5,0.2,0.8c0,0.2,0,0.5-0.1,0.7s-0.2,0.4-0.4,0.5s-0.3,0.2-0.5,0.2
		c-0.2,0.1-0.5,0.1-0.8,0.1h-1.9V81.6z M38.3,78.7h1.1c0.3,0,0.5,0,0.6-0.1c0.2-0.1,0.3-0.1,0.4-0.2c0.1-0.1,0.1-0.3,0.1-0.4
		c0-0.2,0-0.3-0.1-0.4s-0.2-0.2-0.3-0.3s-0.4-0.2-0.8-0.2h-1V78.7z M38.3,81h1.2c0.2,0,0.4,0,0.5,0c0.2,0,0.3-0.1,0.4-0.1
		s0.2-0.2,0.3-0.3s0.1-0.3,0.1-0.4c0-0.2,0-0.3-0.1-0.5s-0.2-0.2-0.4-0.3c-0.2-0.1-0.4-0.1-0.7-0.1h-1.2L38.3,81L38.3,81z"/>
	<path class="st1" d="M42.4,81.6v-0.7h0.7v0.7H42.4z"/>
	<path class="st1" d="M47.9,79.8l0.7,0.2c-0.1,0.5-0.4,1-0.8,1.2s-0.8,0.4-1.3,0.4s-1-0.1-1.3-0.3c-0.3-0.2-0.6-0.5-0.8-1
		c-0.2-0.4-0.3-0.9-0.3-1.3c0-0.5,0.1-1,0.3-1.4s0.5-0.7,0.9-0.9c0.4-0.2,0.8-0.3,1.2-0.3c0.5,0,0.9,0.1,1.3,0.4
		c0.3,0.3,0.6,0.6,0.7,1.1l-0.7,0.2c-0.1-0.4-0.3-0.6-0.5-0.8s-0.5-0.2-0.8-0.2c-0.4,0-0.7,0.1-1,0.3c-0.3,0.2-0.4,0.4-0.5,0.7
		c-0.1,0.3-0.2,0.6-0.2,1s0.1,0.8,0.2,1.1c0.1,0.3,0.3,0.6,0.6,0.7s0.5,0.2,0.9,0.2s0.7-0.1,0.9-0.3C47.6,80.6,47.8,80.2,47.9,79.8z
		"/>
	<path class="st1" d="M49.1,79.1c0-0.8,0.2-1.5,0.7-2s1-0.7,1.7-0.7c0.5,0,0.9,0.1,1.3,0.3c0.4,0.2,0.7,0.5,0.8,0.9s0.3,0.8,0.3,1.3
		s-0.1,1-0.3,1.4s-0.5,0.7-0.9,0.9c-0.4,0.2-0.8,0.3-1.2,0.3c-0.5,0-0.9-0.1-1.3-0.3c-0.4-0.2-0.7-0.5-0.8-0.9S49.1,79.6,49.1,79.1z
		 M49.8,79.1c0,0.6,0.2,1.1,0.5,1.4S51,81,51.5,81s0.9-0.2,1.2-0.5c0.3-0.4,0.5-0.8,0.5-1.5c0-0.4-0.1-0.8-0.2-1.1
		c-0.1-0.3-0.3-0.5-0.6-0.7s-0.6-0.3-0.9-0.3c-0.5,0-0.9,0.2-1.2,0.5S49.8,78.4,49.8,79.1z"/>
	<path class="st1" d="M54.8,81.6v-5h1l1.2,3.5c0.1,0.3,0.2,0.6,0.2,0.7c0.1-0.2,0.1-0.5,0.3-0.8l1.2-3.5h0.9v5h-0.6v-4.2l-1.5,4.2
		H57l-1.4-4.3v4.3h-0.7C54.9,81.5,54.9,81.6,54.8,81.6z"/>
</g>
</svg>
