<?xml version="1.0" encoding="utf-8"?>
<!-- Generator: Adobe Illustrator 22.0.0, SVG Export Plug-In . SVG Version: 6.00 Build 0)  -->
<svg version="1.1" id="图层_1" xmlns="http://www.w3.org/2000/svg" xmlns:xlink="http://www.w3.org/1999/xlink" x="0px" y="0px"
	 viewBox="0 0 88 88" style="enable-background:new 0 0 88 88;" xml:space="preserve">
<style type="text/css">
	.st0{fill:#D11925;}
	.st1{fill:none;stroke:#FFFFFF;stroke-width:1.5;stroke-linecap:round;stroke-linejoin:round;stroke-miterlimit:10;}
	.st2{opacity:8.000000e-02;enable-background:new    ;}
	.st3{fill:#FFFFFF;}
</style>
<title>BCD</title>
<circle class="st0" cx="44" cy="44" r="44"/>
<g>
	<polyline class="st1" points="40.8,21.2 55.3,31.9 65.7,31.9 44.2,15.4 30.2,26 	"/>
	<polyline class="st1" points="36.9,18 33.4,15.4 23,23.6 65.7,56.2 62.6,58.9 	"/>
	<polyline class="st1" points="25.6,29.2 22.3,31.9 65.7,64.5 55.2,72.6 51.8,70.3 	"/>
	<polyline class="st1" points="58.1,62.4 44.3,72.6 22.7,56.2 33.4,56.2 47.5,66.8 	"/>
</g>
<g class="st2">
	<path class="st3" d="M33.1,78h3.6v0.5l-3.1,4h3.3V83h-4v-0.5l3.1-4h-2.9L33.1,78z"/>
	<path class="st3" d="M37.6,78h2.2c0.5,0,0.8,0.1,1.1,0.3c0.3,0.2,0.4,0.5,0.4,0.9c0,0.3-0.1,0.5-0.2,0.7c-0.2,0.2-0.4,0.3-0.6,0.4
		c0.3,0.1,0.6,0.2,0.8,0.4s0.3,0.5,0.3,0.8c0,0.5-0.2,0.9-0.5,1.1s-0.7,0.3-1.2,0.3h-2.2L37.6,78L37.6,78z M38.2,78.5v1.7h1.5
		c0.3,0,0.6-0.1,0.8-0.2s0.3-0.4,0.3-0.7c0-0.3-0.1-0.5-0.3-0.6s-0.4-0.2-0.8-0.2C39.7,78.5,38.2,78.5,38.2,78.5z M38.2,80.7v1.9
		h1.6c0.3,0,0.6-0.1,0.8-0.2c0.2-0.2,0.4-0.4,0.4-0.7c0-0.3-0.1-0.6-0.3-0.7s-0.5-0.2-0.9-0.2h-1.6V80.7z"/>
	<path class="st3" d="M43.1,82.3c0.1,0.1,0.1,0.2,0.1,0.3s0,0.2-0.1,0.3C43,83,42.9,83,42.8,83s-0.2,0-0.3-0.1s-0.1-0.2-0.1-0.3
		s0-0.2,0.1-0.3c0.1-0.1,0.2-0.1,0.3-0.1C42.9,82.2,43,82.2,43.1,82.3z"/>
	<path class="st3" d="M47.8,78.3c0.4,0.3,0.6,0.7,0.7,1.2h-0.6c-0.1-0.4-0.2-0.6-0.5-0.8c-0.3-0.2-0.6-0.3-1-0.3
		c-0.6,0-1,0.2-1.3,0.6s-0.4,0.9-0.4,1.5s0.1,1.1,0.4,1.5c0.3,0.4,0.8,0.6,1.3,0.6c0.4,0,0.7-0.1,1-0.3c0.3-0.2,0.5-0.6,0.6-1h0.5
		c-0.1,0.6-0.4,1-0.8,1.4c-0.4,0.3-0.8,0.5-1.4,0.5c-0.8,0-1.4-0.3-1.8-0.8c-0.4-0.5-0.6-1.1-0.6-1.8c0-0.7,0.2-1.4,0.6-1.8
		c0.4-0.5,1-0.8,1.8-0.8C46.9,77.9,47.4,78,47.8,78.3z"/>
	<path class="st3" d="M53.3,78.6c0.4,0.5,0.6,1.1,0.6,1.9c0,0.7-0.2,1.4-0.6,1.8c-0.4,0.5-1,0.7-1.8,0.7c-0.7,0-1.3-0.2-1.8-0.7
		c-0.4-0.5-0.6-1.1-0.6-1.8c0-0.8,0.2-1.4,0.6-1.8c0.4-0.5,1-0.8,1.8-0.8C52.2,77.9,52.8,78.1,53.3,78.6z M50.1,79
		c-0.3,0.4-0.5,0.9-0.5,1.5s0.2,1.1,0.5,1.5s0.8,0.6,1.4,0.6c0.6,0,1-0.2,1.4-0.6c0.3-0.4,0.5-0.9,0.5-1.5s-0.2-1.1-0.5-1.5
		s-0.8-0.6-1.3-0.6C50.9,78.4,50.5,78.6,50.1,79z"/>
	<path class="st3" d="M54.7,78h0.7l1.9,4.3l0,0l1.9-4.3h0.7v5h-0.6v-4l0,0l-1.7,4h-0.5l-1.7-4l0,0v4h-0.6v-5H54.7z"/>
</g>
</svg>
