<?xml version="1.0" encoding="UTF-8"?>
<svg width="258px" height="258px" viewBox="0 0 258 258" version="1.1" xmlns="http://www.w3.org/2000/svg" xmlns:xlink="http://www.w3.org/1999/xlink">
    <!-- Generator: Sketch 50.2 (55047) - http://www.bohemiancoding.com/sketch -->
    <title>Group 20</title>
    <desc>Created with Sketch.</desc>
    <defs>
        <circle id="path-1" cx="121" cy="121" r="121"></circle>
        <filter x="-5.8%" y="-4.1%" width="111.6%" height="111.6%" filterUnits="objectBoundingBox" id="filter-2">
            <feOffset dx="0" dy="4" in="SourceAlpha" result="shadowOffsetOuter1"></feOffset>
            <feGaussianBlur stdDeviation="4" in="shadowOffsetOuter1" result="shadowBlurOuter1"></feGaussianBlur>
            <feComposite in="shadowBlurOuter1" in2="SourceAlpha" operator="out" result="shadowBlurOuter1"></feComposite>
            <feColorMatrix values="0 0 0 0 0   0 0 0 0 0   0 0 0 0 0  0 0 0 0.5 0" type="matrix" in="shadowBlurOuter1"></feColorMatrix>
        </filter>
    </defs>
    <g id="Page-1" stroke="none" stroke-width="1" fill="none" fill-rule="evenodd">
        <g id="Group-20" transform="translate(8.000000, 4.000000)">
            <g id="Oval-2-Copy-6">
                <use fill="black" fill-opacity="1" filter="url(#filter-2)" xlink:href="#path-1"></use>
                <circle stroke="#000000" stroke-width="14" stroke-linejoin="square" fill="#FFFFFF" fill-rule="evenodd" cx="121" cy="121" r="114"></circle>
            </g>
            <g id="Group-4-Copy-3" transform="translate(40.000000, 92.000000)">
                <path d="M47.7673137,42.9828496 C47.7673137,46.6090771 46.8311111,49.8671799 44.9586777,52.7572559 C43.0862443,55.647332 40.3459723,57.9102821 36.7377795,59.5461741 C33.1295867,61.1820662 28.8517556,62 23.9041579,62 C17.9725076,62 13.0796528,60.8821572 9.22544686,58.646438 C6.49196745,57.0378108 4.27104875,54.8907346 2.56262413,52.2051451 C0.8541995,49.5195556 0,46.9089837 0,44.3733509 C0,42.901048 0.5125197,41.6400668 1.53757448,40.5903694 C2.56262925,39.540672 3.86784609,39.0158311 5.45326414,39.0158311 C6.73799946,39.0158311 7.82454123,39.424798 8.71292203,40.2427441 C9.60130284,41.0606901 10.359832,42.2739585 10.9885323,43.8825858 C11.7539065,45.7911265 12.5807716,47.3860974 13.4691524,48.6675462 C14.3575332,49.948995 15.6080813,51.0054928 17.2208341,51.8370712 C18.833587,52.6686497 20.9520017,53.0844327 23.576142,53.0844327 C27.1843348,53.0844327 30.1159475,52.2460506 32.371068,50.5692612 C34.6261885,48.8924718 35.7537318,46.7999246 35.7537318,44.2915567 C35.7537318,42.3012214 35.1455418,40.6858022 33.9291434,39.4452507 C32.7127451,38.2046992 31.141018,37.2572592 29.213915,36.6029024 C27.2868121,35.9485455 24.7105464,35.2533018 21.4850407,34.5171504 C17.1661432,33.5083503 13.5511709,32.3291624 10.6400154,30.9795515 C7.72885981,29.6299405 5.41910436,27.7895895 3.71067974,25.4584433 C2.00225511,23.1272971 1.14805561,20.2304483 1.14805561,16.76781 C1.14805561,13.468761 2.05009028,10.5378316 3.85418669,7.97493404 C5.65828309,5.41203644 8.26871677,3.44217927 11.685566,2.06530343 C15.1024153,0.688427592 19.1205697,0 23.7401499,0 C27.4303471,0 30.6216364,0.45667969 33.3141137,1.37005277 C36.0065909,2.28342585 38.2411768,3.49669428 40.0179384,5.00989446 C41.7947,6.52309464 43.0930832,8.11124938 43.913127,9.77440633 C44.7331709,11.4375633 45.1431866,13.0597986 45.1431866,14.6411609 C45.1431866,16.086199 44.6306669,17.3880769 43.6056121,18.5468338 C42.5805574,19.7055907 41.3026749,20.2849604 39.7719265,20.2849604 C38.377852,20.2849604 37.3186446,19.9373386 36.5942725,19.2420844 C35.8699005,18.5468303 35.084037,17.4085391 34.2366583,15.8271768 C33.1432666,13.5641927 31.8312161,11.798819 30.3004677,10.5310026 C28.7697192,9.26318627 26.3096247,8.6292876 22.9201102,8.6292876 C19.7766089,8.6292876 17.2413448,9.31771519 15.3142418,10.694591 C13.3871388,12.0714669 12.4236018,13.7277828 12.4236018,15.6635884 C12.4236018,16.8632426 12.7516144,17.899292 13.4076494,18.7717678 C14.0636845,19.6442436 14.9657192,20.3940162 16.1137805,21.0211082 C17.2618419,21.6482001 18.4235532,22.1389604 19.5989493,22.4934037 C20.7743455,22.847847 22.7150867,23.3658717 25.4212313,24.0474934 C28.8107458,24.8381746 31.8790304,25.7106373 34.6261772,26.6649077 C37.373324,27.619178 39.7104138,28.7779175 41.6375168,30.1411609 C43.5646198,31.5044044 45.0680109,33.2288814 46.1477353,35.3146438 C47.2274596,37.4004062 47.7673137,39.9564492 47.7673137,42.9828496 Z M55.885707,49.3218997 L69.3343584,29.73219 L58.0178102,12.3100264 C56.9517533,10.6196046 56.1522225,9.16777212 55.6191941,7.95448549 C55.0861656,6.74119886 54.8196553,5.57564323 54.8196553,4.45778364 C54.8196553,3.31265918 55.332175,2.28342585 56.3572298,1.37005277 C57.3822846,0.45667969 58.6328326,0 60.1089115,0 C61.8036688,0 63.1225528,0.497576379 64.0656032,1.49274406 C65.0086536,2.48791175 66.3138704,4.33507885 67.9812928,7.03430079 L77.0017298,21.5936675 L86.6371965,7.03430079 C87.4299055,5.80738173 88.1064315,4.75770005 88.6667948,3.88522427 C89.2271581,3.0127485 89.7670122,2.29024033 90.2863732,1.7176781 C90.8057343,1.14511587 91.38659,0.71570064 92.0289577,0.429419525 C92.6713253,0.14313841 93.4161873,0 94.2635659,0 C95.7943144,0 97.0448624,0.45667969 98.0152476,1.37005277 C98.9856328,2.28342585 99.4708181,3.3671881 99.4708181,4.62137203 C99.4708181,6.44811819 98.4184443,8.92918397 96.3136652,12.0646438 L84.4640912,29.73219 L97.2157089,49.3218997 C98.3637702,51.0395864 99.1974689,52.4641544 99.71683,53.5956464 C100.236191,54.7271385 100.495868,55.7972685 100.495868,56.8060686 C100.495868,57.760339 100.263526,58.6328017 99.798834,59.4234828 C99.3341425,60.214164 98.6781173,60.8412466 97.8307387,61.3047493 C96.9833601,61.7682521 96.0266566,62 94.9605997,62 C93.8125383,62 92.8421677,61.761436 92.0494586,61.2843008 C91.2567496,60.8071656 90.6143916,60.2141636 90.1223653,59.505277 C89.630339,58.7963905 88.7146371,57.4195353 87.3752322,55.3746702 L76.7967198,38.7704485 L65.5621757,55.8654354 C64.6874623,57.2286788 64.065605,58.1829348 63.6965853,58.7282322 C63.3275656,59.2735296 62.8833818,59.8051865 62.3640208,60.323219 C61.8446597,60.8412515 61.229636,61.2502184 60.5189314,61.5501319 C59.8082267,61.8500455 58.974528,62 58.0178102,62 C56.5417314,62 55.3185177,61.5501364 54.3481325,60.6503958 C53.3777473,59.7506551 52.892562,58.4419611 52.892562,56.7242744 C52.892562,54.7066742 53.890267,52.2392406 55.885707,49.3218997 Z" id="SXC" fill="#000000"></path>
                <path d="M160,42.0422164 C160,43.9507571 159.52298,46.0160399 158.568926,48.2381266 C157.614873,50.4602134 156.11468,52.6413701 154.068304,54.7816623 C152.021927,56.9219544 149.408688,58.6600637 146.228509,59.9960422 C143.048329,61.3320208 139.342785,62 135.111763,62 C131.90393,62 128.986505,61.7000909 126.3594,61.1002639 C123.732295,60.5004368 121.347196,59.566629 119.204032,58.2988127 C117.060867,57.0309963 115.090568,55.3610482 113.293075,53.2889182 C111.689159,51.4076423 110.320319,49.3014628 109.186516,46.9703166 C108.052713,44.6391704 107.202374,42.1512885 106.635472,39.5065963 C106.06857,36.8619041 105.785124,34.0536648 105.785124,31.0817942 C105.785124,26.2559125 106.497197,21.9344958 107.921364,18.1174142 C109.345532,14.3003327 111.384964,11.0354137 114.039723,8.32255937 C116.694481,5.60970499 119.80548,3.54442222 123.372811,2.12664908 C126.940143,0.708875937 130.742475,0 134.77992,0 C139.702285,0 144.085336,0.967888298 147.929205,2.90369393 C151.773074,4.83949956 154.718153,7.23195585 156.764529,10.0811346 C158.810906,12.9303133 159.834078,15.6226786 159.834078,18.1583113 C159.834078,19.5488196 159.336319,20.7757203 158.340784,21.8390501 C157.34525,22.90238 156.14233,23.4340369 154.73199,23.4340369 C153.155727,23.4340369 151.973548,23.0659667 151.185416,22.3298153 C150.397285,21.5936639 149.519292,20.3258665 148.551411,18.5263852 C146.947494,15.5545146 145.060155,13.3324612 142.889337,11.8601583 C140.718519,10.3878554 138.04306,9.65171504 134.862881,9.65171504 C129.802247,9.65171504 125.771776,11.5465949 122.771346,15.3364116 C119.770915,19.1262283 118.270723,24.5109589 118.270723,31.4907652 C118.270723,36.1530576 118.934402,40.0314269 120.261782,43.1259894 C121.589161,46.220552 123.469587,48.5312149 125.903115,50.0580475 C128.336644,51.5848801 131.184936,52.348285 134.448077,52.348285 C137.987755,52.348285 140.981227,51.4826384 143.428582,49.7513193 C145.875938,48.0200001 147.721797,45.4775893 148.966215,42.1240106 C149.491636,40.5426482 150.141489,39.2544025 150.915794,38.2592348 C151.690098,37.2640671 152.934498,36.7664908 154.649029,36.7664908 C156.114677,36.7664908 157.372903,37.2708833 158.423745,38.2796834 C159.474587,39.2884835 160,40.5426486 160,42.0422164 Z" id="Path" fill="#00DFA8"></path>
            </g>
        </g>
    </g>
</svg>