<?xml version="1.0" encoding="utf-8"?>
<!-- Generator: Adobe Illustrator 22.0.0, SVG Export Plug-In . SVG Version: 6.00 Build 0)  -->
<svg version="1.1" id="图层_1" xmlns="http://www.w3.org/2000/svg" xmlns:xlink="http://www.w3.org/1999/xlink" x="0px" y="0px"
	 viewBox="0 0 88 88" style="enable-background:new 0 0 88 88;" xml:space="preserve">
<style type="text/css">
	.st0{fill:#FCB31B;}
	.st1{fill:#FFFFFF;}
	.st2{opacity:9.000000e-02;enable-background:new    ;}
</style>
<title>BCD</title>
<g>
	<circle class="st0" cx="44" cy="44" r="44"/>
	<path class="st1" d="M20,30.6h-7l-1.2,5.2l6.8-0.2L20,30.6z M21.2,30.6l-6.1,26.6h7.1l5.1-21.4h8.3l-5.1,21.6H37l6-26.8H21.2z
		 M44.5,30.6l-2.3,10.5l5.5,13l2.6-10.7L44.5,30.6z M68.5,43.1c1.7-0.6,3.7-1.2,4.7-3.4h2.1l0.9-2.7h-2.3c0.4-3.7-2.5-6.3-9.2-6.3
		h-9.8l-6.3,26.5h11.3c6.8,0,11.1-1.8,12.6-6.6h1.9l0.9-2.7H73C72.9,45.3,70.8,43.8,68.5,43.1L68.5,43.1z M65.9,48.6
		c-0.3,2.6-2.6,3.3-3.5,3.5c-0.9,0.3-6.3,0-6.3,0l1.4-6.4H63C62.9,45.7,66.2,46.1,65.9,48.6L65.9,48.6z M66.6,38.1
		c-0.2,2.8-3.2,3-3.2,3h-4.8l1.3-5.6h3.7C63.7,35.5,66.9,35.3,66.6,38.1L66.6,38.1z"/>
</g>
<g class="st2">
	<path class="st1" d="M32,75.7v-0.6l2.6-3.2c0.2-0.2,0.4-0.4,0.5-0.6h-2.8v-0.6h3.6v0.5l-2.8,3.5l-0.3,0.4H36v0.6
		C36,75.7,32,75.7,32,75.7z"/>
	<path class="st1" d="M36.6,75.7v-5h1.9c0.4,0,0.7,0.1,0.9,0.2s0.4,0.3,0.5,0.5s0.2,0.4,0.2,0.7c0,0.2-0.1,0.4-0.2,0.6
		s-0.3,0.3-0.5,0.5c0.3,0.1,0.5,0.2,0.7,0.5c0.2,0.2,0.2,0.5,0.2,0.8c0,0.2,0,0.5-0.1,0.7s-0.2,0.4-0.4,0.5s-0.3,0.2-0.5,0.2
		C39.1,76,38.8,76,38.5,76h-1.9V75.7z M37.3,72.8h1.1c0.3,0,0.5,0,0.6-0.1c0.2-0.1,0.3-0.1,0.4-0.2c0.1-0.1,0.1-0.3,0.1-0.4
		c0-0.2,0-0.3-0.1-0.4s-0.2-0.2-0.3-0.3s-0.4-0.2-0.8-0.2h-1V72.8z M37.3,75.1h1.2c0.2,0,0.4,0,0.5,0c0.2,0,0.3-0.1,0.4-0.1
		s0.2-0.2,0.3-0.3s0.1-0.3,0.1-0.4c0-0.2,0-0.3-0.1-0.5s-0.2-0.2-0.4-0.3c-0.2-0.1-0.4-0.1-0.7-0.1h-1.2L37.3,75.1L37.3,75.1z"/>
	<path class="st1" d="M41.4,75.7V75h0.7v0.7H41.4z"/>
	<path class="st1" d="M46.9,73.9l0.7,0.2c-0.1,0.5-0.4,1-0.8,1.2s-0.8,0.4-1.3,0.4s-1-0.1-1.3-0.3c-0.3-0.2-0.6-0.5-0.8-1
		c-0.2-0.4-0.3-0.9-0.3-1.3c0-0.5,0.1-1,0.3-1.4s0.5-0.7,0.9-0.9c0.4-0.2,0.8-0.3,1.2-0.3c0.5,0,0.9,0.1,1.3,0.4
		c0.3,0.3,0.6,0.6,0.7,1.1l-0.7,0.2c-0.1-0.4-0.3-0.6-0.5-0.8s-0.5-0.2-0.8-0.2c-0.4,0-0.7,0.1-1,0.3c-0.3,0.2-0.4,0.4-0.5,0.7
		c-0.1,0.3-0.2,0.6-0.2,1s0.1,0.8,0.2,1.1c0.1,0.3,0.3,0.6,0.6,0.7s0.5,0.2,0.9,0.2s0.7-0.1,0.9-0.3C46.6,74.7,46.8,74.3,46.9,73.9z
		"/>
	<path class="st1" d="M48.1,73.2c0-0.8,0.2-1.5,0.7-2s1-0.7,1.7-0.7c0.5,0,0.9,0.1,1.3,0.3c0.4,0.2,0.7,0.5,0.8,0.9s0.3,0.8,0.3,1.3
		s-0.1,1-0.3,1.4s-0.5,0.7-0.9,0.9c-0.4,0.2-0.8,0.3-1.2,0.3c-0.5,0-0.9-0.1-1.3-0.3c-0.4-0.2-0.7-0.5-0.8-0.9S48.1,73.7,48.1,73.2z
		 M48.8,73.2c0,0.6,0.2,1.1,0.5,1.4s0.7,0.5,1.2,0.5s0.9-0.2,1.2-0.5c0.3-0.4,0.5-0.8,0.5-1.5c0-0.4-0.1-0.8-0.2-1.1
		c-0.1-0.3-0.3-0.5-0.6-0.7S50.8,71,50.5,71c-0.5,0-0.9,0.2-1.2,0.5S48.8,72.5,48.8,73.2z"/>
	<path class="st1" d="M53.8,75.7v-5h1l1.2,3.5c0.1,0.3,0.2,0.6,0.2,0.7c0.1-0.2,0.1-0.5,0.3-0.8l1.2-3.5h0.9v5H58v-4.2l-1.5,4.2
		h-0.6l-1.4-4.3v4.3h-0.7C53.8,75.6,53.8,75.7,53.8,75.7z"/>
</g>
</svg>
