<?xml version="1.0" encoding="utf-8"?>
<!-- Generator: Adobe Illustrator 22.0.0, SVG Export Plug-In . SVG Version: 6.00 Build 0)  -->
<svg version="1.1" id="图层_1" xmlns="http://www.w3.org/2000/svg" xmlns:xlink="http://www.w3.org/1999/xlink" x="0px" y="0px"
	 viewBox="0 0 88 88" style="enable-background:new 0 0 88 88;" xml:space="preserve">
<style type="text/css">
	.st0{fill:#0D8AFA;}
	.st1{fill:#FFFFFF;}
	.st2{opacity:5.000000e-02;enable-background:new    ;}
</style>
<title>TOPC</title>
<circle class="st0" cx="44" cy="44" r="44"/>
<g>
	<path class="st1" d="M66.9,22.8H21.1c-1.3,0-2.3-1-2.3-2.3v0c0-1.3,1-2.3,2.3-2.3h45.9c1.3,0,2.3,1,2.3,2.3v0
		C69.2,21.8,68.2,22.8,66.9,22.8z"/>
	<path class="st1" d="M46.3,21.7v45.9c0,1.3-1,2.3-2.3,2.3h0c-1.3,0-2.3-1-2.3-2.3V21.7c0-1.3,1-2.3,2.3-2.3h0
		C45.3,19.3,46.3,20.4,46.3,21.7z"/>
	<path class="st1" d="M44,30.6c-11.9,0-21.6,5.2-21.6,11.6c0,6.4,9.7,11.6,21.6,11.6s21.6-5.2,21.6-11.6
		C65.6,35.8,55.9,30.6,44,30.6z M27.4,45.8c-5.7-4.4,0-7.3,0-7.3C23.7,42.2,27.4,45.8,27.4,45.8z M44,52.9
		c-8.4,0-15.2-4.8-15.2-10.7c0-5.9,6.8-10.7,15.2-10.7s15.2,4.8,15.2,10.7C59.2,48.1,52.4,52.9,44,52.9z M60.9,45.8
		c0,0,3.6-3.6,0-7.3C60.9,38.5,66.6,41.5,60.9,45.8z"/>
</g>
<g class="st2">
	<path class="st1" d="M30.7,79.4v-0.6l2.6-3.2c0.2-0.2,0.4-0.4,0.5-0.6H31v-0.6h3.6v0.5l-2.8,3.5l-0.3,0.4h3.2v0.6
		C34.7,79.4,30.7,79.4,30.7,79.4z"/>
	<path class="st1" d="M35.3,79.4v-5h1.9c0.4,0,0.7,0.1,0.9,0.2s0.4,0.3,0.5,0.5s0.2,0.4,0.2,0.7c0,0.2-0.1,0.4-0.2,0.6
		s-0.3,0.3-0.5,0.5c0.3,0.1,0.5,0.2,0.7,0.5c0.2,0.2,0.2,0.5,0.2,0.8c0,0.2,0,0.5-0.1,0.7s-0.2,0.4-0.4,0.5s-0.3,0.2-0.5,0.2
		c-0.2,0.1-0.5,0.1-0.8,0.1h-1.9V79.4z M36,76.5h1.1c0.3,0,0.5,0,0.6-0.1c0.2-0.1,0.3-0.1,0.4-0.2c0.1-0.1,0.1-0.3,0.1-0.4
		c0-0.2,0-0.3-0.1-0.4s-0.2-0.2-0.3-0.3s-0.4-0.2-0.8-0.2h-1V76.5z M36,78.8h1.2c0.2,0,0.4,0,0.5,0c0.2,0,0.3-0.1,0.4-0.1
		s0.2-0.2,0.3-0.3s0.1-0.3,0.1-0.4c0-0.2,0-0.3-0.1-0.5s-0.2-0.2-0.4-0.3c-0.2-0.1-0.4-0.1-0.7-0.1h-1.2L36,78.8L36,78.8z"/>
	<path class="st1" d="M40.1,79.4v-0.7h0.7v0.7H40.1z"/>
	<path class="st1" d="M45.6,77.6l0.7,0.2c-0.1,0.5-0.4,1-0.8,1.2s-0.8,0.4-1.3,0.4s-1-0.1-1.3-0.3c-0.3-0.2-0.6-0.5-0.8-1
		c-0.2-0.4-0.3-0.9-0.3-1.3c0-0.5,0.1-1,0.3-1.4s0.5-0.7,0.9-0.9c0.4-0.2,0.8-0.3,1.2-0.3c0.5,0,0.9,0.1,1.3,0.4
		c0.3,0.3,0.6,0.6,0.7,1.1l-0.7,0.2c-0.1-0.4-0.3-0.6-0.5-0.8s-0.5-0.2-0.8-0.2c-0.4,0-0.7,0.1-1,0.3c-0.3,0.2-0.4,0.4-0.5,0.7
		c-0.1,0.3-0.2,0.6-0.2,1s0.1,0.8,0.2,1.1c0.1,0.3,0.3,0.6,0.6,0.7s0.5,0.2,0.9,0.2s0.7-0.1,0.9-0.3C45.3,78.4,45.5,78,45.6,77.6z"
		/>
	<path class="st1" d="M46.8,76.9c0-0.8,0.2-1.5,0.7-2s1-0.7,1.7-0.7c0.5,0,0.9,0.1,1.3,0.3c0.4,0.2,0.7,0.5,0.8,0.9s0.3,0.8,0.3,1.3
		s-0.1,1-0.3,1.4s-0.5,0.7-0.9,0.9c-0.4,0.2-0.8,0.3-1.2,0.3c-0.5,0-0.9-0.1-1.3-0.3c-0.4-0.2-0.7-0.5-0.8-0.9S46.8,77.4,46.8,76.9z
		 M47.5,76.9c0,0.6,0.2,1.1,0.5,1.4s0.7,0.5,1.2,0.5s0.9-0.2,1.2-0.5c0.3-0.4,0.5-0.8,0.5-1.5c0-0.4-0.1-0.8-0.2-1.1
		c-0.1-0.3-0.3-0.5-0.6-0.7s-0.6-0.3-0.9-0.3c-0.5,0-0.9,0.2-1.2,0.5S47.5,76.2,47.5,76.9z"/>
	<path class="st1" d="M52.5,79.4v-5h1l1.2,3.5c0.1,0.3,0.2,0.6,0.2,0.7c0.1-0.2,0.1-0.5,0.3-0.8l1.2-3.5h0.9v5h-0.6v-4.2l-1.5,4.2
		h-0.6L53.2,75v4.3h-0.7C52.5,79.3,52.5,79.4,52.5,79.4z"/>
</g>
</svg>
