<?xml version="1.0" encoding="utf-8"?>
<!-- Generator: Adobe Illustrator 22.0.0, SVG Export Plug-In . SVG Version: 6.00 Build 0)  -->
<svg version="1.1" id="图层_1" xmlns="http://www.w3.org/2000/svg" xmlns:xlink="http://www.w3.org/1999/xlink" x="0px" y="0px"
	 viewBox="0 0 88 88" style="enable-background:new 0 0 88 88;" xml:space="preserve">
<style type="text/css">
	.st0{fill:#E60815;}
	.st1{fill:#FFFFFF;}
	.st2{opacity:0.1;enable-background:new    ;}
</style>
<title>TRX</title>
<g id="图层_2_1_">
	<g id="图层_1-2">
		<path class="st0" d="M88,44c0,24.3-19.7,44-44,44S0,68.3,0,44S19.7,0,44,0S88,19.7,88,44"/>
		<path class="st1" d="M70.1,32.6l-8.8-6c-0.1,0-0.2-0.1-0.4-0.1l-42.3-9.8c-0.5-0.1-1.1,0.3-1.1,0.8c0,0.2,0,0.3,0,0.5l21.6,58
			c0.2,0.5,0.8,0.8,1.3,0.5c0.2-0.1,0.3-0.2,0.4-0.3L70.4,34C70.7,33.5,70.6,32.9,70.1,32.6C70.1,32.6,70.1,32.6,70.1,32.6z
			 M40,73.4L20.2,20.2l38.3,8.8l8.4,5.8L40,73.4z"/>
		<path class="st1" d="M40,76.7L40,76.7c-0.6,0-0.9-0.5-0.9-1c0,0,0,0,0,0l3-29.2L17.9,18.7c-0.3-0.4-0.3-0.9,0.1-1.2
			c0.4-0.3,0.9-0.3,1.2,0.1l24.4,28c0.2,0.2,0.2,0.4,0.2,0.7l-3,29.6C40.8,76.3,40.4,76.7,40,76.7"/>
		<path class="st1" d="M43,47c-0.3,0-0.5-0.1-0.7-0.3c-0.3-0.3-0.2-0.8,0.1-1.1l17.1-18.4c0.3-0.4,0.8-0.4,1.2-0.2
			c0.4,0.3,0.4,0.8,0.2,1.2c0,0-0.1,0.1-0.1,0.1L46.7,43.5l22.2-10.3c0.4-0.2,1-0.1,1.2,0.3c0.2,0.4,0.1,1-0.3,1.2
			c0,0-0.1,0-0.1,0.1L43.4,47C43.3,47.1,43.1,47.1,43,47"/>
	</g>
</g>
<g class="st2">
	<path class="st1" d="M38.5,81.8v-0.6l2.6-3.2c0.2-0.2,0.4-0.4,0.5-0.6h-2.8v-0.6h3.6v0.5l-2.8,3.5l-0.3,0.4h3.2v0.6
		C42.5,81.8,38.5,81.8,38.5,81.8z"/>
	<path class="st1" d="M43.1,81.8v-5H45c0.4,0,0.7,0.1,0.9,0.2s0.4,0.3,0.5,0.5s0.2,0.4,0.2,0.7c0,0.2-0.1,0.4-0.2,0.6
		s-0.3,0.3-0.5,0.5c0.3,0.1,0.5,0.2,0.7,0.5c0.2,0.2,0.2,0.5,0.2,0.8c0,0.2,0,0.5-0.1,0.7s-0.2,0.4-0.4,0.5S46,82,45.8,82
		c-0.2,0.1-0.5,0.1-0.8,0.1h-1.9V81.8z M43.8,78.9h1.1c0.3,0,0.5,0,0.6-0.1c0.2-0.1,0.3-0.1,0.4-0.2c0.1-0.1,0.1-0.3,0.1-0.4
		c0-0.2,0-0.3-0.1-0.4s-0.2-0.2-0.3-0.3s-0.4-0.2-0.8-0.2h-1V78.9z M43.8,81.2H45c0.2,0,0.4,0,0.5,0c0.2,0,0.3-0.1,0.4-0.1
		s0.2-0.2,0.3-0.3s0.1-0.3,0.1-0.4c0-0.2,0-0.3-0.1-0.5s-0.2-0.2-0.4-0.3c-0.2-0.1-0.4-0.1-0.7-0.1h-1.2L43.8,81.2L43.8,81.2z"/>
	<path class="st1" d="M47.9,81.8v-0.7h0.7v0.7H47.9z"/>
	<path class="st1" d="M53.4,80l0.7,0.2c-0.1,0.5-0.4,1-0.8,1.2s-0.8,0.4-1.3,0.4s-1-0.1-1.3-0.3c-0.3-0.2-0.6-0.5-0.8-1
		c-0.2-0.4-0.3-0.9-0.3-1.3c0-0.5,0.1-1,0.3-1.4s0.5-0.7,0.9-0.9c0.4-0.2,0.8-0.3,1.2-0.3c0.5,0,0.9,0.1,1.3,0.4
		c0.3,0.3,0.6,0.6,0.7,1.1l-0.7,0.2c-0.1-0.4-0.3-0.6-0.5-0.8s-0.5-0.2-0.8-0.2c-0.4,0-0.7,0.1-1,0.3c-0.3,0.2-0.4,0.4-0.5,0.7
		c-0.1,0.3-0.2,0.6-0.2,1s0.1,0.8,0.2,1.1c0.1,0.3,0.3,0.6,0.6,0.7s0.5,0.2,0.9,0.2s0.7-0.1,0.9-0.3C53.1,80.8,53.3,80.4,53.4,80z"
		/>
	<path class="st1" d="M54.6,79.3c0-0.8,0.2-1.5,0.7-2s1-0.7,1.7-0.7c0.5,0,0.9,0.1,1.3,0.3c0.4,0.2,0.7,0.5,0.8,0.9s0.3,0.8,0.3,1.3
		s-0.1,1-0.3,1.4s-0.5,0.7-0.9,0.9c-0.4,0.2-0.8,0.3-1.2,0.3c-0.5,0-0.9-0.1-1.3-0.3c-0.4-0.2-0.7-0.5-0.8-0.9S54.6,79.8,54.6,79.3z
		 M55.3,79.3c0,0.6,0.2,1.1,0.5,1.4s0.7,0.5,1.2,0.5s0.9-0.2,1.2-0.5c0.3-0.4,0.5-0.8,0.5-1.5c0-0.4-0.1-0.8-0.2-1.1
		c-0.1-0.3-0.3-0.5-0.6-0.7s-0.6-0.3-0.9-0.3c-0.5,0-0.9,0.2-1.2,0.5S55.3,78.6,55.3,79.3z"/>
	<path class="st1" d="M60.3,81.8v-5h1l1.2,3.5c0.1,0.3,0.2,0.6,0.2,0.7c0.1-0.2,0.1-0.5,0.3-0.8l1.2-3.5h0.9v5h-0.6v-4.2L63,81.7
		h-0.6L61,77.4v4.3h-0.7C60.3,81.7,60.3,81.8,60.3,81.8z"/>
</g>
</svg>
