<?xml version="1.0" encoding="utf-8"?>
<!-- Generator: Adobe Illustrator 22.0.0, SVG Export Plug-In . SVG Version: 6.00 Build 0)  -->
<svg version="1.1" id="图层_1" xmlns="http://www.w3.org/2000/svg" xmlns:xlink="http://www.w3.org/1999/xlink" x="0px" y="0px"
	 viewBox="0 0 88 88" style="enable-background:new 0 0 88 88;" xml:space="preserve">
<style type="text/css">
	.st0{fill:#2B9E7D;}
	.st1{fill:#FFFFFF;}
	.st2{fill:none;stroke:#FFFFFF;stroke-width:2;stroke-linecap:round;stroke-linejoin:round;}
	.st3{opacity:5.000000e-02;enable-background:new    ;}
</style>
<title>TSL</title>
<g id="图层_2_1_">
	<g id="图层_1-2">
		<circle class="st0" cx="44" cy="44" r="44"/>
		<path class="st1" d="M47.6,17L21.8,47.3c-0.5,0.6-0.4,1.4,0.2,1.8c0.2,0.2,0.5,0.3,0.8,0.3H49c0.2,0,0.3,0.1,0.3,0.3
			c0,0.1,0,0.1,0,0.2L34.9,75c-0.4,0.6-0.3,1.4,0.3,1.8c0.6,0.4,1.4,0.3,1.8-0.3l0,0l31.5-34.4c0.5-0.5,0.5-1.4-0.1-1.8
			c-0.3-0.2-0.6-0.4-0.9-0.3H37.7c-0.2,0-0.3-0.2-0.3-0.3c0-0.1,0-0.1,0-0.2l12.1-21.1c0.3-0.6,0.1-1.3-0.4-1.6
			C48.6,16.4,48,16.6,47.6,17z"/>
		<polyline class="st2" points="60.3,11 47.3,34 65,34 		"/>
		<line class="st2" x1="19.2" y1="54" x2="42.4" y2="54"/>
		<line class="st2" x1="35.8" y1="54" x2="26.8" y2="70"/>
	</g>
</g>
<g class="st3">
	<path class="st1" d="M34,82.3v-0.6l2.6-3.2c0.2-0.2,0.4-0.4,0.5-0.6h-2.8v-0.6h3.6v0.5l-2.8,3.5l-0.3,0.4H38v0.6
		C38,82.3,34,82.3,34,82.3z"/>
	<path class="st1" d="M38.6,82.3v-5h1.9c0.4,0,0.7,0.1,0.9,0.2c0.2,0.1,0.4,0.3,0.5,0.5s0.2,0.4,0.2,0.7c0,0.2-0.1,0.4-0.2,0.6
		c-0.1,0.2-0.3,0.3-0.5,0.5c0.3,0.1,0.5,0.2,0.7,0.5c0.2,0.2,0.2,0.5,0.2,0.8c0,0.2,0,0.5-0.1,0.7s-0.2,0.4-0.4,0.5
		c-0.2,0.1-0.3,0.2-0.5,0.2c-0.2,0.1-0.5,0.1-0.8,0.1h-1.9V82.3z M39.3,79.4h1.1c0.3,0,0.5,0,0.6-0.1c0.2-0.1,0.3-0.1,0.4-0.2
		s0.1-0.3,0.1-0.4c0-0.2,0-0.3-0.1-0.4s-0.2-0.2-0.3-0.3s-0.4-0.2-0.8-0.2h-1V79.4z M39.3,81.7h1.2c0.2,0,0.4,0,0.5,0
		c0.2,0,0.3-0.1,0.4-0.1c0.1,0,0.2-0.2,0.3-0.3s0.1-0.3,0.1-0.4c0-0.2,0-0.3-0.1-0.5s-0.2-0.2-0.4-0.3C41.1,80,40.9,80,40.6,80h-1.2
		L39.3,81.7L39.3,81.7z"/>
	<path class="st1" d="M43.4,82.3v-0.7h0.7v0.7H43.4z"/>
	<path class="st1" d="M48.9,80.5l0.7,0.2c-0.1,0.5-0.4,1-0.8,1.2c-0.4,0.2-0.8,0.4-1.3,0.4s-1-0.1-1.3-0.3c-0.3-0.2-0.6-0.5-0.8-1
		c-0.2-0.4-0.3-0.9-0.3-1.3c0-0.5,0.1-1,0.3-1.4c0.2-0.4,0.5-0.7,0.9-0.9c0.4-0.2,0.8-0.3,1.2-0.3c0.5,0,0.9,0.1,1.3,0.4
		c0.3,0.3,0.6,0.6,0.7,1.1l-0.7,0.2c-0.1-0.4-0.3-0.6-0.5-0.8c-0.2-0.2-0.5-0.2-0.8-0.2c-0.4,0-0.7,0.1-1,0.3
		c-0.3,0.2-0.4,0.4-0.5,0.7c-0.1,0.3-0.2,0.6-0.2,1s0.1,0.8,0.2,1.1c0.1,0.3,0.3,0.6,0.6,0.7c0.3,0.1,0.5,0.2,0.9,0.2
		s0.7-0.1,0.9-0.3C48.6,81.3,48.8,80.9,48.9,80.5z"/>
	<path class="st1" d="M50.1,79.8c0-0.8,0.2-1.5,0.7-2s1-0.7,1.7-0.7c0.5,0,0.9,0.1,1.3,0.3c0.4,0.2,0.7,0.5,0.8,0.9s0.3,0.8,0.3,1.3
		s-0.1,1-0.3,1.4c-0.2,0.4-0.5,0.7-0.9,0.9c-0.4,0.2-0.8,0.3-1.2,0.3c-0.5,0-0.9-0.1-1.3-0.3c-0.4-0.2-0.7-0.5-0.8-0.9
		S50.1,80.3,50.1,79.8z M50.8,79.8c0,0.6,0.2,1.1,0.5,1.4c0.3,0.3,0.7,0.5,1.2,0.5s0.9-0.2,1.2-0.5c0.3-0.4,0.5-0.8,0.5-1.5
		c0-0.4-0.1-0.8-0.2-1.1c-0.1-0.3-0.3-0.5-0.6-0.7c-0.3-0.2-0.6-0.3-0.9-0.3c-0.5,0-0.9,0.2-1.2,0.5C51,78.4,50.8,79.1,50.8,79.8z"
		/>
	<path class="st1" d="M55.8,82.3v-5h1l1.2,3.5c0.1,0.3,0.2,0.6,0.2,0.7c0.1-0.2,0.1-0.5,0.3-0.8l1.2-3.5h0.9v5H60V78l-1.5,4.2h-0.6
		l-1.4-4.3v4.3h-0.7C55.8,82.2,55.8,82.3,55.8,82.3z"/>
</g>
</svg>
