<?xml version="1.0" encoding="utf-8"?>
<!-- Generator: Adobe Illustrator 22.0.0, SVG Export Plug-In . SVG Version: 6.00 Build 0)  -->
<svg version="1.1" id="图层_1" xmlns="http://www.w3.org/2000/svg" xmlns:xlink="http://www.w3.org/1999/xlink" x="0px" y="0px"
	 viewBox="0 0 88 88" style="enable-background:new 0 0 88 88;" xml:space="preserve">
<style type="text/css">
	.st0{fill:#00D2FF;}
	.st1{fill:#FFFFFF;}
	.st2{opacity:0.1;enable-background:new    ;}
</style>
<title>UBTC</title>
<g id="图层_2_1_">
	<g id="图层_1-2">
		<circle class="st0" cx="44" cy="44" r="44"/>
		<g id="Page-1-Copy-4">
			<g id="Group-3">
				<path id="Fill-1" class="st1" d="M62.9,42.8c7,0,10.5-3.4,10.6-10.2c0-1.2-0.1-2.3-0.4-3.4c-1.3-4.5-5.9-6.8-13.6-6.8H35.9
					l-1.5,9.3h10.3c4,0,6.3,1,6.9,2.9c0.1,0.4,0.2,0.8,0.2,1.2c-0.1,2.7-2.5,4.1-7.2,4.1h-9l-1.5,7h10.3c3.8,0,6.2,1.2,6.9,3.5
					c0.1,0.2,0.1,0.5,0.1,0.8c0,3.5-2.4,5.2-7.2,5.2H32.2l-1.5,9.3h28.1c9.5,0,14.3-3.8,14.4-11.4c0-1.7-0.2-3.4-0.6-5.1
					C71.3,44.9,68.1,42.8,62.9,42.8"/>
			</g>
			<polygon id="Fill-4" class="st1" points="27.1,31.3 20.2,31.3 21.5,25.1 28.4,25.1 			"/>
			<polygon id="Fill-6" class="st1" points="23.3,46.7 15,46.7 16.7,38.8 25,38.8 			"/>
			<polygon id="Fill-8" class="st1" points="21.6,62.6 14.5,62.6 15.9,55.8 23,55.8 			"/>
			<polygon id="Fill-10" class="st1" points="24.6,46.8 22.5,56.4 32.2,56.4 34.4,46.8 			"/>
			<polygon id="Fill-12" class="st1" points="26.7,31.1 24.8,39.3 33.2,39.3 35.1,31.1 			"/>
		</g>
	</g>
</g>
<g class="st2">
	<path class="st1" d="M34.4,78.2v-0.6l2.6-3.2c0.2-0.2,0.4-0.4,0.5-0.6h-2.8v-0.6h3.6v0.5l-2.8,3.5l-0.3,0.4h3.2v0.6
		C38.4,78.2,34.4,78.2,34.4,78.2z"/>
	<path class="st1" d="M39,78.2v-5h1.9c0.4,0,0.7,0.1,0.9,0.2s0.4,0.3,0.5,0.5s0.2,0.4,0.2,0.7c0,0.2-0.1,0.4-0.2,0.6
		s-0.3,0.3-0.5,0.5c0.3,0.1,0.5,0.2,0.7,0.5c0.2,0.2,0.2,0.5,0.2,0.8c0,0.2,0,0.5-0.1,0.7s-0.2,0.4-0.4,0.5s-0.3,0.2-0.5,0.2
		c-0.2,0.1-0.5,0.1-0.8,0.1H39V78.2z M39.7,75.3h1.1c0.3,0,0.5,0,0.6-0.1c0.2-0.1,0.3-0.1,0.4-0.2c0.1-0.1,0.1-0.3,0.1-0.4
		c0-0.2,0-0.3-0.1-0.4s-0.2-0.2-0.3-0.3s-0.4-0.2-0.8-0.2h-1V75.3z M39.7,77.6h1.2c0.2,0,0.4,0,0.5,0c0.2,0,0.3-0.1,0.4-0.1
		s0.2-0.2,0.3-0.3s0.1-0.3,0.1-0.4c0-0.2,0-0.3-0.1-0.5s-0.2-0.2-0.4-0.3c-0.2-0.1-0.4-0.1-0.7-0.1h-1.2L39.7,77.6L39.7,77.6z"/>
	<path class="st1" d="M43.8,78.2v-0.7h0.7v0.7H43.8z"/>
	<path class="st1" d="M49.3,76.4l0.7,0.2c-0.1,0.5-0.4,1-0.8,1.2s-0.8,0.4-1.3,0.4s-1-0.1-1.3-0.3c-0.3-0.2-0.6-0.5-0.8-1
		c-0.2-0.4-0.3-0.9-0.3-1.3c0-0.5,0.1-1,0.3-1.4s0.5-0.7,0.9-0.9c0.4-0.2,0.8-0.3,1.2-0.3c0.5,0,0.9,0.1,1.3,0.4
		c0.3,0.3,0.6,0.6,0.7,1.1l-0.7,0.2c-0.1-0.4-0.3-0.6-0.5-0.8s-0.5-0.2-0.8-0.2c-0.4,0-0.7,0.1-1,0.3c-0.3,0.2-0.4,0.4-0.5,0.7
		c-0.1,0.3-0.2,0.6-0.2,1s0.1,0.8,0.2,1.1c0.1,0.3,0.3,0.6,0.6,0.7s0.5,0.2,0.9,0.2s0.7-0.1,0.9-0.3C49,77.2,49.2,76.8,49.3,76.4z"
		/>
	<path class="st1" d="M50.5,75.7c0-0.8,0.2-1.5,0.7-2s1-0.7,1.7-0.7c0.5,0,0.9,0.1,1.3,0.3c0.4,0.2,0.7,0.5,0.8,0.9s0.3,0.8,0.3,1.3
		s-0.1,1-0.3,1.4s-0.5,0.7-0.9,0.9c-0.4,0.2-0.8,0.3-1.2,0.3c-0.5,0-0.9-0.1-1.3-0.3c-0.4-0.2-0.7-0.5-0.8-0.9S50.5,76.2,50.5,75.7z
		 M51.2,75.7c0,0.6,0.2,1.1,0.5,1.4s0.7,0.5,1.2,0.5s0.9-0.2,1.2-0.5c0.3-0.4,0.5-0.8,0.5-1.5c0-0.4-0.1-0.8-0.2-1.1
		c-0.1-0.3-0.3-0.5-0.6-0.7s-0.6-0.3-0.9-0.3c-0.5,0-0.9,0.2-1.2,0.5S51.2,75,51.2,75.7z"/>
	<path class="st1" d="M56.2,78.2v-5h1l1.2,3.5c0.1,0.3,0.2,0.6,0.2,0.7c0.1-0.2,0.1-0.5,0.3-0.8l1.2-3.5H61v5h-0.6v-4.2l-1.5,4.2
		h-0.6l-1.4-4.3v4.3h-0.7C56.2,78.1,56.2,78.2,56.2,78.2z"/>
</g>
</svg>
