<?xml version="1.0" encoding="utf-8"?>
<!-- Generator: Adobe Illustrator 22.1.0, SVG Export Plug-In . SVG Version: 6.00 Build 0)  -->
<svg version="1.1" id="图层_1" xmlns="http://www.w3.org/2000/svg" xmlns:xlink="http://www.w3.org/1999/xlink" x="0px" y="0px"
	 viewBox="0 0 64 64" style="enable-background:new 0 0 64 64;" xml:space="preserve">
<style type="text/css">
	.st0{fill:url(#SVGID_1_);}
	.st1{fill:#EF684E;}
	.st2{fill:none;stroke:#FFFFFF;stroke-width:10;stroke-linecap:round;stroke-miterlimit:10;}
</style>
<linearGradient id="SVGID_1_" gradientUnits="userSpaceOnUse" x1="32" y1="0" x2="32" y2="64">
	<stop  offset="0" style="stop-color:#EE4B26"/>
	<stop  offset="1" style="stop-color:#ED2112"/>
</linearGradient>
<path class="st0" d="M32,64L32,64C14.4,64,0,49.6,0,32v0C0,14.4,14.4,0,32,0h0c17.6,0,32,14.4,32,32v0C64,49.6,49.6,64,32,64z"/>
<path class="st1" d="M32,9C18.7,9,8,19.7,8,33s10.7,24,24,24s24-10.7,24-24S45.3,9,32,9z M41.2,34.6l-14.1,8.1
	c-1.2,0.7-2.8-0.2-2.8-1.6l0-16.3c0-1.4,1.5-2.3,2.8-1.6l14.1,8.2C42.4,32.1,42.4,33.9,41.2,34.6z"/>
<path class="st2" d="M18.1,21.6v15.6c0,7.3,6.2,13.1,13.9,13.1h0c7.7,0,13.9-5.9,13.9-13.1V21.6"/>
</svg>
