<?xml version="1.0" encoding="utf-8"?>
<!-- Generator: Adobe Illustrator 22.1.0, SVG Export Plug-In . SVG Version: 6.00 Build 0)  -->
<svg version="1.1" id="图层_1" xmlns="http://www.w3.org/2000/svg" xmlns:xlink="http://www.w3.org/1999/xlink" x="0px" y="0px"
	 viewBox="0 0 64 64" style="enable-background:new 0 0 64 64;" xml:space="preserve">
<style type="text/css">
	.st0{fill:url(#SVGID_1_);}
	.st1{fill:url(#SVGID_2_);}
	.st2{fill:url(#SVGID_3_);}
	.st3{fill:url(#SVGID_4_);}
	.st4{fill:url(#SVGID_5_);}
	.st5{fill:url(#SVGID_6_);}
	.st6{fill:url(#SVGID_7_);}
	.st7{fill:url(#SVGID_8_);}
	.st8{fill:url(#SVGID_9_);}
	.st9{fill:url(#SVGID_10_);}
	.st10{fill:url(#SVGID_11_);}
	.st11{fill:url(#SVGID_12_);}
	.st12{fill:url(#SVGID_13_);}
	.st13{opacity:5.000000e-02;fill:#FFFFFF;enable-background:new    ;}
	.st14{font-family:'MyriadPro-Regular';}
	.st15{font-size:5.7427px;}
</style>
<circle cx="32" cy="32" r="32"/>
<g>
	<linearGradient id="SVGID_1_" gradientUnits="userSpaceOnUse" x1="10.2584" y1="13.4937" x2="44.8363" y2="14.7012">
		<stop  offset="0" style="stop-color:#FFFFFF"/>
		<stop  offset="1" style="stop-color:#1FA2DC"/>
	</linearGradient>
	<path class="st0" d="M40.3,14c0.4,0.1,0.8,0.3,1.2,0.6c0.2,0,0.4,0,0.6,0c0,0,0.1,0,0.1,0c0.1,0,0.2,0,0.2,0c0.4,0,0.8,0.1,1.1,0.2
		c-0.4-0.8-0.8-1.4-1.4-1.9c-0.4-0.3-0.8-0.6-1.3-0.7c-3.3-1.1-9.1,1.3-14.6,4.4c1.3-0.3,2.8-0.7,4.2-0.9C34.3,14,37.9,13.2,40.3,14
		z"/>
	<linearGradient id="SVGID_2_" gradientUnits="userSpaceOnUse" x1="78.378" y1="179.6852" x2="-36.3109" y2="-104.1797">
		<stop  offset="0" style="stop-color:#FFFFFF"/>
		<stop  offset="2.457488e-02" style="stop-color:#E5F4FB"/>
		<stop  offset="6.916809e-02" style="stop-color:#BCE3F4"/>
		<stop  offset="0.1193" style="stop-color:#96D3EF"/>
		<stop  offset="0.1738" style="stop-color:#76C6EA"/>
		<stop  offset="0.234" style="stop-color:#5ABBE5"/>
		<stop  offset="0.3021" style="stop-color:#44B2E2"/>
		<stop  offset="0.3815" style="stop-color:#33ABDF"/>
		<stop  offset="0.4797" style="stop-color:#28A6DD"/>
		<stop  offset="0.6175" style="stop-color:#21A3DC"/>
		<stop  offset="1" style="stop-color:#1FA2DC"/>
	</linearGradient>
	<path class="st1" d="M33.5,49.7c-3-1.9-7-4.5-10.7-7.4c0.4,0.7,0.9,1.4,1.4,2c3.5,2.4,6.9,4.3,9.2,5.6
		C33.4,49.8,33.5,49.8,33.5,49.7L33.5,49.7z M20.6,40.5c-4.5-3.8-8.1-7.7-8.4-11c0-0.5,0-1,0.1-1.5c0.4-1.3,1.4-2.5,2.9-3.5
		c-0.1-0.3-0.1-0.6-0.2-0.8c-2.3,1.3-4,2.8-4.5,4.6c-0.1,0.5-0.2,1-0.1,1.5c0.3,4,5.6,8.8,11.4,12.9C21.4,41.9,21,41.2,20.6,40.5z"
		/>
	<linearGradient id="SVGID_3_" gradientUnits="userSpaceOnUse" x1="-61.6294" y1="-161.7968" x2="220.8341" y2="369.4398">
		<stop  offset="0" style="stop-color:#FFFFFF"/>
		<stop  offset="1" style="stop-color:#1FA2DC"/>
	</linearGradient>
	<path class="st2" d="M53.5,33.1c-0.3-1.7-1.6-3.4-3.5-5.1c-0.2,0.5-0.4,1-0.7,1.5c1.2,1.4,2.1,2.7,2.3,4c0.1,0.5,0.1,1,0,1.5
		c-0.3,1.7-1.7,3.4-3.7,4.9v0.8c3-1.8,5.1-3.9,5.5-6.1C53.6,34.1,53.6,33.6,53.5,33.1L53.5,33.1z M48,28.1v-1.8
		c0.5,0.4,0.9,0.7,1.4,1.1c-0.2,0.5-0.4,1-0.6,1.5C48.6,28.6,48.3,28.3,48,28.1z M48,39.9c-2,1.5-4.5,2.8-7.3,4
		c-0.1,0.1-0.2,0.3-0.3,0.4c2.8-1.1,5.4-2.3,7.6-3.6V39.9L48,39.9z M48,26.3v1.8c-0.4-0.4-0.9-0.8-1.4-1.2c0.3-0.3,0.6-0.7,0.7-1.1
		C47.6,25.9,47.8,26.1,48,26.3L48,26.3z M39.3,44.4c-0.9,0.3-1.7,0.7-2.6,1c0,0.1,0.1,0.1,0.1,0.2c0.7-0.3,1.5-0.5,2.2-0.8
		C39.1,44.7,39.2,44.5,39.3,44.4z"/>
	<linearGradient id="SVGID_4_" gradientUnits="userSpaceOnUse" x1="18.2978" y1="20.9568" x2="31.9217" y2="51.5567">
		<stop  offset="0" style="stop-color:#221E1F"/>
		<stop  offset="0.45" style="stop-color:#244A9B"/>
		<stop  offset="1" style="stop-color:#1FA2DC"/>
	</linearGradient>
	<path class="st3" d="M33.7,52.1c0.6-2.6,0.4-6.4,0.1-9.4c-6.8-0.9-8.9-15-8.9-15s0,0,0,0c-2.8-1.6-6.3-3.8-9.7-6.7
		C15.5,23,20,50.3,33.7,52.1z"/>
	<linearGradient id="SVGID_5_" gradientUnits="userSpaceOnUse" x1="72.5607" y1="33.2078" x2="12.6197" y2="36.3491">
		<stop  offset="0" style="stop-color:#1FA2DC"/>
		<stop  offset="0.54" style="stop-color:#244A9B"/>
		<stop  offset="1" style="stop-color:#221E1F"/>
	</linearGradient>
	<path class="st4" d="M42,26.7C42,26.7,42,26.7,42,26.7c2,4.1-8.1,16-8.1,16c0,0-0.1,0-0.1,0c0.3,3,0.5,6.7-0.1,9.4c0,0,0.1,0,0.1,0
		c0,0,20.9-24.9,16.8-33.3c-0.2-0.5-0.6-0.9-0.9-1.2C49.3,21.3,44.8,24.8,42,26.7z"/>
	<linearGradient id="SVGID_6_" gradientUnits="userSpaceOnUse" x1="49.6925" y1="19.4318" x2="20.0145" y2="20.9871">
		<stop  offset="0" style="stop-color:#221E1F"/>
		<stop  offset="0.45" style="stop-color:#244A9B"/>
		<stop  offset="1" style="stop-color:#1FA2DC"/>
	</linearGradient>
	<path class="st5" d="M40.4,24.5c2.3-1.5,6.1-4.4,6.4-7.5c-5.5-5-28.5,2.7-28.5,2.7s0,0,0,0.1c2.8,2.4,5.7,4.3,8,5.5
		C26.7,25.2,38.7,21.3,40.4,24.5z"/>
	<linearGradient id="SVGID_7_" gradientUnits="userSpaceOnUse" x1="18.2978" y1="20.9568" x2="31.9217" y2="51.5567">
		<stop  offset="0" style="stop-color:#221E1F"/>
		<stop  offset="0.45" style="stop-color:#244A9B"/>
		<stop  offset="1" style="stop-color:#1FA2DC"/>
	</linearGradient>
	<path class="st6" d="M33.7,52.1c0.6-2.6,0.4-6.4,0.1-9.4c-6.8-0.9-8.9-15-8.9-15s0,0,0,0c-2.8-1.6-6.3-3.8-9.7-6.7
		C15.5,23,20,50.3,33.7,52.1z"/>
	<linearGradient id="SVGID_8_" gradientUnits="userSpaceOnUse" x1="-143.6963" y1="36.4916" x2="192.862" y2="36.4916">
		<stop  offset="0" style="stop-color:#1FA2DC"/>
		<stop  offset="1" style="stop-color:#FFFFFF"/>
	</linearGradient>
	<path class="st7" d="M16.1,21.7c-0.3-0.2-0.6-0.5-0.9-0.7C15.5,23,20,50.3,33.7,52.1c0.1-0.4,0.2-0.8,0.2-1.3
		C22.3,48.9,17.4,28.3,16.1,21.7z"/>
	<linearGradient id="SVGID_9_" gradientUnits="userSpaceOnUse" x1="72.5607" y1="33.2078" x2="12.6197" y2="36.3491">
		<stop  offset="0" style="stop-color:#1FA2DC"/>
		<stop  offset="0.54" style="stop-color:#244A9B"/>
		<stop  offset="1" style="stop-color:#221E1F"/>
	</linearGradient>
	<path class="st8" d="M42,26.7C42,26.7,42,26.7,42,26.7c2,4.1-8.1,16-8.1,16c0,0-0.1,0-0.1,0c0.3,3,0.5,6.7-0.1,9.4c0,0,0.1,0,0.1,0
		c0,0,20.9-24.9,16.8-33.3c-0.2-0.5-0.6-0.9-0.9-1.2C49.3,21.3,44.8,24.8,42,26.7z"/>
	<linearGradient id="SVGID_10_" gradientUnits="userSpaceOnUse" x1="-154.3364" y1="34.8203" x2="172.3655" y2="34.8203">
		<stop  offset="0" style="stop-color:#FFFFFF"/>
		<stop  offset="1" style="stop-color:#1FA2DC"/>
	</linearGradient>
	<path class="st9" d="M50.7,18.8c-0.2-0.5-0.6-0.9-0.9-1.2c0,0.1,0,0.1,0,0.2c0.1,0.2,0.2,0.3,0.3,0.5c3.7,7.4-12.3,27.9-16,32.5
		c-0.2,0.5-0.3,0.8-0.4,1.2c0,0,0.3,0,0.4,0.1C33.9,52.1,54.8,27.2,50.7,18.8z"/>
	<g>
		<linearGradient id="SVGID_11_" gradientUnits="userSpaceOnUse" x1="49.6838" y1="19.435" x2="20.0059" y2="20.9904">
			<stop  offset="0" style="stop-color:#221E1F"/>
			<stop  offset="0.45" style="stop-color:#244A9B"/>
			<stop  offset="1" style="stop-color:#1FA2DC"/>
		</linearGradient>
		<path class="st10" d="M40.4,24.5c2.3-1.5,6.1-4.4,6.4-7.5c-5.5-5-28.5,2.7-28.5,2.7s0,0,0,0.1c2.8,2.4,5.7,4.3,8,5.5
			C26.7,25.2,38.7,21.3,40.4,24.5z"/>
		<g>
			<linearGradient id="SVGID_12_" gradientUnits="userSpaceOnUse" x1="18.2437" y1="17.8629" x2="46.7637" y2="17.8629">
				<stop  offset="0" style="stop-color:#FFFFFF"/>
				<stop  offset="1" style="stop-color:#1FA2DC"/>
			</linearGradient>
			<path class="st11" d="M46.7,17.1c0,0,0-0.1,0-0.1c-5.6-5-28.5,2.7-28.5,2.7s0,0,0,0.1c0.3,0.2,0.5,0.4,0.8,0.6
				C20.8,19.9,40.3,13.7,46.7,17.1z"/>
			<linearGradient id="SVGID_13_" gradientUnits="userSpaceOnUse" x1="40.3634" y1="24.508" x2="40.3686" y2="24.508">
				<stop  offset="0" style="stop-color:#FFFFFF"/>
				<stop  offset="1" style="stop-color:#1FA2DC"/>
			</linearGradient>
			<polygon class="st12" points="40.4,24.5 40.4,24.5 40.4,24.5 			"/>
		</g>
	</g>
</g>
<text transform="matrix(1 0 0 1 27.0009 60.5415)" class="st13 st14 st15">ZBG</text>
</svg>
