<?xml version="1.0" encoding="utf-8"?>
<!-- Generator: Adobe Illustrator 22.0.0, SVG Export Plug-In . SVG Version: 6.00 Build 0)  -->
<svg version="1.1" id="图层_1" xmlns="http://www.w3.org/2000/svg" xmlns:xlink="http://www.w3.org/1999/xlink" x="0px" y="0px"
	 viewBox="0 0 88 88" style="enable-background:new 0 0 88 88;" xml:space="preserve">
<style type="text/css">
	.st0{fill:#00CFFF;}
	.st1{fill:none;stroke:#FFFFFF;stroke-width:3;stroke-linecap:round;stroke-miterlimit:10;}
	.st2{fill:#FFFFFF;}
	.st3{opacity:0.1;enable-background:new    ;}
</style>
<title>VLC</title>
<g id="图层_2_1_">
	<g id="图层_1-2">
		<circle class="st0" cx="44" cy="44" r="44"/>
		<path class="st1" d="M34.9,43.4L24.5,53.9c-1.1,1.1-2.8,1.1-3.9,0l-6.8-6.8c-1.1-1.1-1.1-2.8,0-3.9c0,0,0,0,0,0l9.1-9.1"/>
		<path class="st1" d="M64.6,56.9L54.7,47c-1.1-1.1-1.1-2.8,0-3.9l6.8-6.8c1.1-1.1,2.8-1.1,3.9,0c0,0,0,0,0,0l9.1,9.1"/>
		<path class="st2" d="M43.1,38.4c0.6,0,1.2,0.2,1.6,0.7l4.6,4.6c0.9,0.9,0.9,2.3,0,3.2l-4.6,4.6c-0.9,0.9-2.3,0.9-3.2,0l-4.6-4.6
			c-0.9-0.9-0.9-2.3,0-3.2l4.6-4.7C41.9,38.6,42.5,38.3,43.1,38.4 M43.1,35.3c-1.4,0-2.7,0.5-3.7,1.5l-4.6,4.7c-2,2.1-2,5.4,0,7.4
			l4.6,4.6c2.1,2.1,5.4,2.1,7.4,0c0,0,0,0,0,0l4.6-4.6c2-2.1,2-5.4,0-7.4l-4.6-4.6C45.8,35.9,44.5,35.4,43.1,35.3L43.1,35.3z"/>
		<path class="st2" d="M42.9,41.4c0.1,0,0.3,0.1,0.4,0.2l3.4,3.4c0.2,0.2,0.2,0.5,0,0.7L43.2,49c-0.1,0.1-0.2,0.1-0.4,0.1
			c-0.1,0-0.3,0-0.4-0.1l-3.4-3.4c-0.2-0.2-0.2-0.5,0-0.7l3.4-3.4C42.6,41.4,42.7,41.4,42.9,41.4 M42.9,39.4c-0.7,0-1.3,0.3-1.8,0.7
			l-3.4,3.4c-1,1-1,2.6,0,3.6l3.4,3.4c1,1,2.6,1,3.5,0L48,47c1-1,1-2.6,0-3.6l-3.4-3.4C44.2,39.6,43.5,39.3,42.9,39.4L42.9,39.4z"/>
		<path class="st2" d="M18.4,43.4l2.5-2.5c1-1,2.6-1,3.5,0l2.5,2.5c1,1,1,2.6,0,3.5l-2.5,2.5c-1,1-2.6,1-3.5,0l-2.5-2.5
			C17.5,45.9,17.5,44.3,18.4,43.4z"/>
		<path class="st2" d="M59.3,43.2l2.5-2.5c1-1,2.6-1,3.5,0l2.5,2.5c1,1,1,2.6,0,3.5l-2.5,2.5c-1,1-2.6,1-3.5,0l-2.5-2.5
			C58.3,45.8,58.3,44.2,59.3,43.2z"/>
		<path class="st2" d="M53,47.7c0.5,0,0.9,0.2,1.3,0.5c0.1-0.8,0.2-1.6,0.2-2.5c0-1.3-0.1-2.6-0.5-3.8c-0.7,0.5-1.6,0.5-2.3,0
			c-0.3,1.2-0.5,2.5-0.5,3.8c0,0.9,0.1,1.8,0.2,2.7C51.9,48,52.4,47.7,53,47.7z"/>
	</g>
</g>
<g class="st3">
	<path class="st2" d="M32.6,74.6V74l2.6-3.2c0.2-0.2,0.4-0.4,0.5-0.6h-2.8v-0.6h3.6v0.5l-2.8,3.5L33.4,74h3.2v0.6
		C36.6,74.6,32.6,74.6,32.6,74.6z"/>
	<path class="st2" d="M37.2,74.6v-5h1.9c0.4,0,0.7,0.1,0.9,0.2s0.4,0.3,0.5,0.5s0.2,0.4,0.2,0.7c0,0.2-0.1,0.4-0.2,0.6
		s-0.3,0.3-0.5,0.5c0.3,0.1,0.5,0.2,0.7,0.5c0.2,0.2,0.2,0.5,0.2,0.8c0,0.2,0,0.5-0.1,0.7s-0.2,0.4-0.4,0.5s-0.3,0.2-0.5,0.2
		c-0.2,0.1-0.5,0.1-0.8,0.1h-1.9V74.6z M37.9,71.7H39c0.3,0,0.5,0,0.6-0.1c0.2-0.1,0.3-0.1,0.4-0.2c0.1-0.1,0.1-0.3,0.1-0.4
		c0-0.2,0-0.3-0.1-0.4s-0.2-0.2-0.3-0.3s-0.4-0.2-0.8-0.2h-1V71.7z M37.9,74h1.2c0.2,0,0.4,0,0.5,0c0.2,0,0.3-0.1,0.4-0.1
		s0.2-0.2,0.3-0.3s0.1-0.3,0.1-0.4c0-0.2,0-0.3-0.1-0.5s-0.2-0.2-0.4-0.3c-0.2-0.1-0.4-0.1-0.7-0.1H38L37.9,74L37.9,74z"/>
	<path class="st2" d="M42,74.6v-0.7h0.7v0.7H42z"/>
	<path class="st2" d="M47.5,72.8l0.7,0.2c-0.1,0.5-0.4,1-0.8,1.2s-0.8,0.4-1.3,0.4s-1-0.1-1.3-0.3c-0.3-0.2-0.6-0.5-0.8-1
		c-0.2-0.4-0.3-0.9-0.3-1.3c0-0.5,0.1-1,0.3-1.4s0.5-0.7,0.9-0.9c0.4-0.2,0.8-0.3,1.2-0.3c0.5,0,0.9,0.1,1.3,0.4
		c0.3,0.3,0.6,0.6,0.7,1.1l-0.7,0.2c-0.1-0.4-0.3-0.6-0.5-0.8s-0.5-0.2-0.8-0.2c-0.4,0-0.7,0.1-1,0.3c-0.3,0.2-0.4,0.4-0.5,0.7
		c-0.1,0.3-0.2,0.6-0.2,1s0.1,0.8,0.2,1.1c0.1,0.3,0.3,0.6,0.6,0.7s0.5,0.2,0.9,0.2s0.7-0.1,0.9-0.3C47.2,73.6,47.4,73.2,47.5,72.8z
		"/>
	<path class="st2" d="M48.7,72.1c0-0.8,0.2-1.5,0.7-2s1-0.7,1.7-0.7c0.5,0,0.9,0.1,1.3,0.3c0.4,0.2,0.7,0.5,0.8,0.9s0.3,0.8,0.3,1.3
		s-0.1,1-0.3,1.4s-0.5,0.7-0.9,0.9c-0.4,0.2-0.8,0.3-1.2,0.3c-0.5,0-0.9-0.1-1.3-0.3c-0.4-0.2-0.7-0.5-0.8-0.9S48.7,72.6,48.7,72.1z
		 M49.4,72.1c0,0.6,0.2,1.1,0.5,1.4s0.7,0.5,1.2,0.5s0.9-0.2,1.2-0.5c0.3-0.4,0.5-0.8,0.5-1.5c0-0.4-0.1-0.8-0.2-1.1
		c-0.1-0.3-0.3-0.5-0.6-0.7s-0.6-0.3-0.9-0.3c-0.5,0-0.9,0.2-1.2,0.5S49.4,71.4,49.4,72.1z"/>
	<path class="st2" d="M54.4,74.6v-5h1l1.2,3.5c0.1,0.3,0.2,0.6,0.2,0.7c0.1-0.2,0.1-0.5,0.3-0.8l1.2-3.5h0.9v5h-0.6v-4.2l-1.5,4.2
		h-0.6l-1.4-4.3v4.3h-0.7C54.4,74.5,54.4,74.6,54.4,74.6z"/>
</g>
</svg>
