<?xml version="1.0" encoding="utf-8"?>
<!-- Generator: Adobe Illustrator 22.1.0, SVG Export Plug-In . SVG Version: 6.00 Build 0)  -->
<svg version="1.1" id="图层_1" xmlns="http://www.w3.org/2000/svg" xmlns:xlink="http://www.w3.org/1999/xlink" x="0px" y="0px"
	 viewBox="0 0 64 64" style="enable-background:new 0 0 64 64;" xml:space="preserve">
<style type="text/css">
	.st0{fill:url(#SVGID_1_);}
	.st1{fill:#FFFFFF;}
</style>
<linearGradient id="SVGID_1_" gradientUnits="userSpaceOnUse" x1="3.061741e-05" y1="32" x2="64" y2="32">
	<stop  offset="0" style="stop-color:#6449DE"/>
	<stop  offset="0.35" style="stop-color:#854CD9"/>
	<stop  offset="0.75" style="stop-color:#AA48D4"/>
	<stop  offset="1" style="stop-color:#BD5AFD"/>
</linearGradient>
<circle class="st0" cx="32" cy="32" r="32"/>
<g>
	<g>
		<path class="st1" d="M43.5,28v3.7h10.1c-0.1-1-0.2-2.7-0.5-3.7H43.5z"/>
		<path class="st1" d="M53.6,34.1h-12v3.7h11.5C53.4,36.7,53.5,35.1,53.6,34.1z"/>
		<path class="st1" d="M10.9,37.7h11.5v-3.7h-12C10.5,35.1,10.6,36.7,10.9,37.7z"/>
		<path class="st1" d="M10.9,28c-0.2,1-0.4,2.6-0.5,3.7h10.1V28H10.9z"/>
	</g>
	<g>
		<path class="st1" d="M31.9,32.3c-0.6,2.1-1.2,4.3-1.8,6.4c-0.6,2.1-1.3,4.3-2,6.4h-4.9c-0.5-1.2-1.1-2.6-1.7-4.2
			c-0.6-1.6-1.2-3.4-1.9-5.4c-0.6-1.9-1.3-4-2-6.2c-0.7-2.2-1.3-4.3-1.9-6.6h6.7c0.2,1,0.5,2.1,0.7,3.3c0.3,1.2,0.6,2.4,0.9,3.7
			c0.3,1.3,0.6,2.6,0.9,3.8c0.3,1.3,0.7,2.5,1,3.7c0.4-1.2,0.7-2.5,1.1-3.8c0.4-1.3,0.7-2.6,1-3.8c0.3-1.3,0.6-2.5,0.9-3.6
			c0.3-1.2,0.6-2.3,0.8-3.3h4.6c0.2,1,0.5,2.1,0.8,3.3c0.3,1.2,0.6,2.4,0.9,3.6c0.3,1.3,0.6,2.5,1,3.8c0.3,1.3,0.7,2.6,1.1,3.8
			c0.3-1.2,0.7-2.4,1-3.7c0.3-1.3,0.7-2.6,1-3.8c0.3-1.3,0.6-2.5,0.9-3.7c0.3-1.2,0.5-2.3,0.7-3.3h6.6c-0.6,2.2-1.3,4.4-1.9,6.6
			c-0.7,2.2-1.3,4.2-2,6.2c-0.6,1.9-1.3,3.7-1.9,5.4c-0.6,1.6-1.2,3.1-1.7,4.2h-4.9c-0.7-2.1-1.4-4.3-2.1-6.4
			C33.1,36.6,32.5,34.5,31.9,32.3z"/>
	</g>
</g>
</svg>
