<?xml version="1.0" encoding="UTF-8"?>
<svg width="131px" height="131px" viewBox="0 0 131 131" version="1.1" xmlns="http://www.w3.org/2000/svg" xmlns:xlink="http://www.w3.org/1999/xlink">
    <!-- Generator: Sketch 50.2 (55047) - http://www.bohemiancoding.com/sketch -->
    <title>Group 19</title>
    <desc>Created with Sketch.</desc>
    <defs></defs>
    <g id="Page-1" stroke="none" stroke-width="1" fill="none" fill-rule="evenodd">
        <g id="Group-19" transform="translate(5.000000, 5.000000)">
            <circle id="Oval-2-Copy-2" stroke="#00DFA8" stroke-width="9" fill="#FFFFFF" cx="60.5" cy="60.5" r="60.5"></circle>
            <g id="Group-5" transform="translate(15.000000, 35.000000)" fill-rule="nonzero">
                <g id="C-Copy-2" transform="translate(48.000000, 2.000000)" fill="#00DFA8">
                    <path d="M24.6756746,47.9997579 L24.6756745,47.9997579 C18.1453147,48.0213586 11.8719754,45.4917742 7.22717582,40.9640916 L7.22717421,40.96409 C-2.27773285,31.7700303 -2.4265291,16.7167578 6.8948336,7.34168003 C7.00453236,7.23134944 7.11531858,7.12207599 7.22717754,7.01387563 L7.22717615,7.01387697 C16.9334237,-2.33795854 32.4332236,-2.33795854 42.1395186,7.01387429 C43.2687311,8.10276624 43.2891978,9.8883927 42.1852241,11.0021858 C42.1701617,11.0173822 42.1549255,11.0324102 42.1395187,11.0472669 C40.9966523,12.1570769 39.1623917,12.1570769 38.0195253,11.047267 L38.0195256,11.0472673 C30.6023744,3.90691701 18.7643307,3.90691701 11.3471795,11.0472666 L11.3471805,11.0472657 C4.10067939,18.1112819 4.03202978,29.6319606 11.1938619,36.7794804 C11.2446664,36.8301837 11.2957731,36.8805918 11.3471786,36.9307029 L11.3471779,36.9307022 C18.764329,44.0710525 30.6023728,44.0710525 38.019524,36.9307036 C39.1623904,35.8208935 40.996651,35.8208935 42.1395174,36.9307036 C43.2687299,38.0195955 43.2891965,39.805222 42.1852229,40.919015 C42.1701605,40.9342115 42.1549243,40.9492395 42.1395175,40.9640962 L42.139519,40.9640947 C37.4909616,45.4955119 31.2113083,48.0253931 24.6756751,47.9998078 L24.6756746,47.9997579 Z" id="Shape"></path>
                </g>
                <g id="å‰-copy" fill="#000000">
                    <path d="M30.4855988,26.0066732 L51.0522418,5.44032343 C52.2993097,4.19205589 52.2993097,2.18281242 51.0522418,0.947895338 C50.4587175,0.347124866 49.6517912,0.0133634925 48.8115209,0.0133634925 C47.9712506,0.0133634925 47.1643243,0.347124866 46.5641312,0.947895338 L25.9974882,21.5142451 L5.41755967,0.934531846 C4.82403538,0.340436601 4.0171091,0 3.17683876,0 C2.33656842,0 1.52964214,0.333761374 0.936117847,0.934531846 C-0.310950041,2.18279938 -0.310950041,4.19204285 0.936117847,5.42695993 L21.5027608,25.9933097 L0.936117847,46.573023 C0.0224905709,47.4808539 -0.250930731,48.8492755 0.242561375,50.037466 C0.73605348,51.2256565 1.89642681,51.9999829 3.18350757,51.9933077 C3.99710266,51.9933077 4.80402895,51.6929224 5.42422848,51.065451 L25.9975142,30.4923869 L46.5708,51.0721002 C47.1909995,51.6928963 47.9979258,51.9999568 48.8115209,51.9999568 C50.0986017,52.006632 51.2656438,51.2389809 51.7591359,50.0441152 C52.252628,48.8559247 51.9725379,47.4808278 51.0589106,46.5796721 L30.4856249,26.006608 L30.4855988,26.0066732 Z" id="Shape"></path>
                </g>
            </g>
        </g>
    </g>
</svg>