<?xml version="1.0" encoding="UTF-8"?>
<svg width="345px" height="345px" viewBox="0 0 345 345" version="1.1" xmlns="http://www.w3.org/2000/svg" xmlns:xlink="http://www.w3.org/1999/xlink">
    <!-- Generator: Sketch 50.2 (55047) - http://www.bohemiancoding.com/sketch -->
    <title>Group 21</title>
    <desc>Created with Sketch.</desc>
    <defs></defs>
    <g id="Page-1" stroke="none" stroke-width="1" fill="none" fill-rule="evenodd">
        <g id="Group-21">
            <g id="XEM-Copy">
                <circle id="Oval-6" fill="#ABE1F8" cx="172.5" cy="172.5" r="172.5"></circle>
                <path d="M230.102658,229.485265 C231.637658,194.470265 211.388658,177.429265 200.433658,170.811265 C193.157658,166.412265 187.162658,160.126265 183.531658,152.442265 C170.667658,125.270265 189.278658,103.506265 189.278658,103.506265 C200.537658,89.3772649 214.636658,81.9452649 234.466658,86.1882649 C234.473658,86.1902649 234.473658,86.1882649 234.480658,86.1952649 C248.464658,90.6492649 261.777658,96.6102649 274.218658,103.900265 C274.226658,104.238265 274.226658,104.577265 274.226658,104.916265 C274.226658,152.124265 257.696658,195.473265 230.102658,229.485265" id="Fill-630" fill="#67AFE2"></path>
                <path d="M207.832,252.600999 C197.376,261.999999 185.911,270.300999 173.622,277.318999 C134.339,254.883999 103.488,219.376999 87,176.726999 C102.347,184.610999 120.999,191.436999 134.16,187.162999 C160.44,178.635999 179.576,164.575999 204.936,187.397999 C219.188,200.226999 222.277,216.696999 218.822,233.574999 C217.316,240.927999 213.415,247.582999 207.832,252.600999" id="Fill-632" fill="#1EBBAD"></path>
                <path d="M207.75951,79.891 C192.06751,85.963 171.58951,98.868 169.90251,125.093 C169.87451,125.515 169.89551,125.937 169.88151,126.366 C169.64651,132.888 170.04751,165.731 136.61551,176.997 C136.61551,176.997 112.71351,185.308 92.7605097,168.324 C84.5775097,161.359 79.2145097,151.641 77.2705097,141.073 C75.0635097,129.07 73.9395097,116.686 74.0025097,104.028 C74.0035097,104.026 74.0055097,104.023 74.0065097,104.02 C103.32251,86.849 137.45951,77 173.88551,77 C185.43551,77 196.75651,77.989 207.75951,79.891" id="Fill-634" fill="#F7A800"></path>
            </g>
        </g>
    </g>
</svg>