<?xml version="1.0" encoding="UTF-8"?>
<svg width="131px" height="131px" viewBox="0 0 131 131" version="1.1" xmlns="http://www.w3.org/2000/svg" xmlns:xlink="http://www.w3.org/1999/xlink">
    <!-- Generator: Sketch 50.2 (55047) - http://www.bohemiancoding.com/sketch -->
    <title>Group 3 Copy 2</title>
    <desc>Created with Sketch.</desc>
    <defs></defs>
    <g id="Page-1" stroke="none" stroke-width="1" fill="none" fill-rule="evenodd">
        <g id="Group-3-Copy-2" transform="translate(5.000000, 5.000000)">
            <g id="Group-Copy" transform="translate(0.308673, 0.308673)">
                <g id="Group-2">
                    <path d="M120.382653,60.1913265 C120.382653,93.4340331 93.4340331,120.382653 60.1913265,120.382653 C26.9486199,120.382653 0,93.4340331 0,60.1913265 C0,26.9486199 26.9486199,0 60.1913265,0 C93.4340331,0 120.382653,26.9486199 120.382653,60.1913265 Z" id="Stroke-1-Copy" stroke="#FFFFFF" stroke-width="9.63061224" fill="#FFFFFF"></path>
                    <path d="M62.5378384,51.4255433 L75.104102,36.1749872 C77.1017317,33.7509621 75.3773706,30.0956633 72.2363464,30.0956633 L72.2361057,30.0956633 C71.1261776,30.0956633 70.074274,30.5918806 69.3683501,31.4485235 L57.7225323,45.5816878 L46.0767144,31.4485235 C45.3707905,30.5918806 44.3188869,30.0956633 43.2087181,30.0956633 L33.5781058,30.0956633 C30.4370816,30.0956633 28.7127205,33.7509621 30.7103503,36.1749872 L48.09192,57.2693988 L25.8948034,84.2074251 C23.8974144,86.6316909 25.6217755,90.2869898 28.7627997,90.2869898 C29.8729685,90.2869898 30.9248722,89.7905317 31.630796,88.9341295 L52.9072261,63.1130135 L62.5378384,51.4255433 Z" id="Fill-3-Copy" fill="#FFBE3F"></path>
                    <path d="M91.4975647,30.0956633 C90.3873959,30.0956633 89.3354923,30.5918806 88.6295684,31.4487643 L67.3531383,57.2693988 L57.7225261,68.9571098 L45.1560217,84.2074251 C43.1586327,86.6316909 44.8829938,90.2869898 48.0242588,90.2869898 C49.1341868,90.2869898 50.1863312,89.7905317 50.8922551,88.9341295 L62.5378322,74.8009653 L74.18365,88.9341295 C74.8895739,89.7905317 75.9414775,90.2869898 77.0516464,90.2869898 L86.6822586,90.2869898 C89.8232828,90.2869898 91.5476439,86.6316909 89.5502549,84.2074251 L72.1684444,63.1132543 L94.3655611,36.1749872 C96.36295,33.7509621 94.6385889,30.0956633 91.4975647,30.0956633" id="Fill-5-Copy" fill="#FFBE3F"></path>
                </g>
            </g>
            <path d="M120.691327,60.5 C120.691327,93.7427066 93.7427066,120.691327 60.5,120.691327 C27.2572934,120.691327 0.308673469,93.7427066 0.308673469,60.5 C0.308673469,27.2572934 27.2572934,0.308673469 60.5,0.308673469 C93.7427066,0.308673469 120.691327,27.2572934 120.691327,60.5 Z" id="Stroke-1-Copy-2" stroke="#FFBE3F" stroke-width="9.63061224"></path>
            <path d="M62.809471,51.57988 L75.3757347,36.329324 C77.3733644,33.9052989 75.6490033,30.25 72.5079791,30.25 L72.5077383,30.25 C71.3978103,30.25 70.3459066,30.7462173 69.6399828,31.6028603 L57.9941649,45.7360245 L46.3483471,31.6028603 C45.6424232,30.7462173 44.5905196,30.25 43.4803507,30.25 L33.8497385,30.25 C30.7087143,30.25 28.9843532,33.9052989 30.9819829,36.329324 L48.3635527,57.4237355 L26.166436,84.3617618 C24.1690471,86.7860277 25.8934082,90.4413265 29.0344324,90.4413265 C30.1446012,90.4413265 31.1965048,89.9448685 31.9024287,89.0884663 L53.1788588,63.2673503 L62.809471,51.57988 Z" id="Fill-3-Copy-2" fill="#FFBE3F"></path>
            <path d="M91.9544015,30.25 C90.8442326,30.25 89.792329,30.7462173 89.0864051,31.603101 L67.809975,57.4237355 L58.1793628,69.1114465 L45.6128584,84.3617618 C43.6154694,86.7860277 45.3398305,90.4413265 48.4810955,90.4413265 C49.5910236,90.4413265 50.6431679,89.9448685 51.3490918,89.0884663 L62.9946689,74.955302 L74.6404868,89.0884663 C75.3464106,89.9448685 76.3983143,90.4413265 77.5084831,90.4413265 L87.1390953,90.4413265 C90.2801195,90.4413265 92.0044806,86.7860277 90.0070917,84.3617618 L72.6252812,63.267591 L94.8223978,36.329324 C96.8197868,33.9052989 95.0954256,30.25 91.9544015,30.25" id="Fill-5-Copy-2" fill="#FFBE3F"></path>
        </g>
    </g>
</svg>