<?xml version="1.0" encoding="UTF-8"?>
<svg width="239px" height="239px" viewBox="0 0 239 239" version="1.1" xmlns="http://www.w3.org/2000/svg" xmlns:xlink="http://www.w3.org/1999/xlink">
    <!-- Generator: Sketch 50.2 (55047) - http://www.bohemiancoding.com/sketch -->
    <title>Group 22</title>
    <desc>Created with Sketch.</desc>
    <defs></defs>
    <g id="Page-1" stroke="none" stroke-width="1" fill="none" fill-rule="evenodd">
        <g id="Group-22">
            <g id="XTZ-Copy">
                <circle id="Oval-3" fill="#FFFFFF" cx="119.5" cy="119.5" r="119.5"></circle>
                <path d="M69.9214872,29.4456695 L76.4301489,39.0687285 L76.4301489,62.3745704 L50,62.3745704 L50,77.5824742 L76.4301489,77.5824742 L76.4301489,138.501718 C83.9462459,151.973654 93.1565168,158.709622 104.060962,158.709622 C120.417629,158.709622 133.93071,146.343643 133.93071,142.42268 C133.93071,138.501718 130.580944,136.742268 125.306662,142.42268 C120.03238,148.103093 99.2703999,147.362543 99.2703999,138.501718 C99.2703999,132.594502 99.2703999,112.288087 99.2703999,77.5824742 L151.37402,77.5824742 L113.730191,132.053265 C132.435207,122.400344 144.98315,122.400344 151.37402,132.053265 C160.960327,146.532646 162.135077,153.049828 162.135077,158.709622 C162.135077,164.369416 159.324314,182.140893 155.349167,187.43299 C151.37402,192.725086 132.058884,200.453608 119.063211,191.754296 C124.303518,182.682131 124.303518,174.906644 119.063211,168.427835 C111.202751,158.709622 99.2703999,167.33677 99.2703999,170.852234 C99.2703999,174.367698 96.7852852,189.551546 103.582424,194.087629 C110.379562,198.623711 117.060953,209 130.693237,209 C144.32552,209 168.891617,200.742268 173.426498,194.087629 C177.961379,187.43299 184.436325,166.762887 181.198852,148.049828 C177.961379,129.33677 159.948277,112.704467 137.992235,115.852234 L187.393546,63.3372837 C187.609728,63.1074761 187.598682,62.7459298 187.368875,62.5297476 C187.262914,62.4300696 187.122918,62.3745704 186.977442,62.3745704 L99.2703999,62.3745704 L99.2703999,29.2856404 C99.2703999,29.1278855 99.1425143,29 98.9847595,29 L70.1580904,29 C70.0003356,29 69.87245,29.1278855 69.87245,29.2856404 C69.87245,29.3426832 69.8895291,29.3984195 69.9214872,29.4456695 Z" id="Path-2" fill="#007DFF"></path>
            </g>
        </g>
    </g>
</svg>