<?xml version="1.0" encoding="utf-8"?>
<!-- Generator: Adobe Illustrator 22.0.0, SVG Export Plug-In . SVG Version: 6.00 Build 0)  -->
<svg version="1.1" id="图层_1" xmlns="http://www.w3.org/2000/svg" xmlns:xlink="http://www.w3.org/1999/xlink" x="0px" y="0px"
	 viewBox="0 0 88 88" style="enable-background:new 0 0 88 88;" xml:space="preserve">
<style type="text/css">
	.st0{fill:#FFFFFF;}
	.st1{fill:#00A3DE;}
	.st2{fill:none;stroke:#FFFFFF;stroke-miterlimit:10;}
	.st3{opacity:5.000000e-02;enable-background:new    ;}
</style>
<title>XUC</title>
<g id="图层_2_1_">
	<g id="图层_1-2">
		<circle class="st0" cx="13.8" cy="43.2" r="2.5"/>
		<circle class="st0" cx="13.8" cy="53.2" r="2.5"/>
		<circle class="st0" cx="13.8" cy="43.4" r="2.5"/>
		<circle class="st1" cx="44" cy="44" r="44"/>
		<polygon class="st2" points="23.4,24.2 44.1,15.4 64.8,24.2 73.6,44.8 64.9,65.6 44.1,74.2 23.4,65.5 14.4,44.5 		"/>
		<polygon class="st2" points="23.3,36.1 23.4,24.2 36.4,23.3 44.1,15.4 52.2,23.2 64.8,24.2 65,36.1 73.6,44.8 65.1,51.9 
			64.9,65.6 52.3,64.7 44.1,74.2 36.5,64.5 23.4,65.5 23.3,51.8 14.4,44.5 		"/>
		<polygon class="st2" points="30,44.8 23.3,36.1 36.4,23.3 52.2,23.2 65,36.1 65.1,51.9 52.3,64.7 36.5,64.5 23.3,51.8 		"/>
		<polygon class="st2" points="44.5,59.1 36.5,64.5 23.3,51.8 		"/>
		<polyline class="st2" points="52.3,64.7 44.5,59.1 65.1,51.9 58.6,44.8 65,36.1 44.5,30.4 52.2,23.2 36.4,23.3 44.5,30.4 
			23.3,36.1 23.3,51.8 		"/>
		<circle class="st0" cx="44.2" cy="15.6" r="1.8"/>
		<circle class="st0" cx="36.3" cy="23.5" r="1.8"/>
		<circle class="st0" cx="23.9" cy="24.5" r="1.8"/>
		<circle class="st0" cx="14" cy="44.6" r="1.8"/>
		<circle class="st0" cx="23.4" cy="36.1" r="1.8"/>
		<circle class="st0" cx="23.2" cy="52.1" r="1.8"/>
		<circle class="st0" cx="23.4" cy="65.4" r="1.8"/>
		<circle class="st0" cx="36.5" cy="64.7" r="1.8"/>
		<circle class="st0" cx="64.7" cy="24.1" r="1.8"/>
		<circle class="st0" cx="52.1" cy="23.2" r="1.8"/>
		<circle class="st0" cx="44" cy="74" r="1.8"/>
		<circle class="st0" cx="52.1" cy="64.7" r="1.8"/>
		<circle class="st0" cx="64.7" cy="65.5" r="1.8"/>
		<circle class="st0" cx="65.1" cy="51.8" r="1.8"/>
		<circle class="st0" cx="65.1" cy="36" r="1.8"/>
		<circle class="st0" cx="44.2" cy="59.3" r="1.8"/>
		<circle class="st0" cx="58.3" cy="44.9" r="1.8"/>
		<circle class="st0" cx="44.5" cy="30.6" r="1.8"/>
		<path class="st0" d="M44.2,38.3c-2.8,0-5.3,1.7-6.2,4.4h12.4C49.5,40.1,47,38.3,44.2,38.3z"/>
		<path class="st0" d="M44,30.9c-7.8,0-14.1,6.3-14.1,14.1S36.2,59.1,44,59.1S58.1,52.8,58.1,45S51.8,30.9,44,30.9L44,30.9z
			 M50.8,45.5H37.6c0.3,3.6,3.5,6.3,7.1,6.1c2.2-0.2,4.2-1.5,5.3-3.4h3.5c-1.2,3.5-4.3,6-7.9,6.5v1.5L42.8,57v-2.3
			c-5.4-0.8-9.1-5.8-8.3-11.2c0.6-4.3,4-7.7,8.3-8.3v-1.3l2.8-0.8v2.2c4.8,0.7,8.4,4.8,8.5,9.7c0,0.2,0,0.4,0,0.6H50.8z"/>
	</g>
</g>
<g class="st3">
	<path class="st0" d="M33.9,82.7v-0.6l2.6-3.2c0.2-0.2,0.4-0.4,0.5-0.6h-2.8v-0.6h3.6v0.5L35,81.7l-0.3,0.4h3.2v0.6
		C37.9,82.7,33.9,82.7,33.9,82.7z"/>
	<path class="st0" d="M38.5,82.7v-5h1.9c0.4,0,0.7,0.1,0.9,0.2s0.4,0.3,0.5,0.5s0.2,0.4,0.2,0.7c0,0.2-0.1,0.4-0.2,0.6
		s-0.3,0.3-0.5,0.5c0.3,0.1,0.5,0.2,0.7,0.5c0.2,0.2,0.2,0.5,0.2,0.8c0,0.2,0,0.5-0.1,0.7s-0.2,0.4-0.4,0.5s-0.3,0.2-0.5,0.2
		C41,83,40.7,83,40.4,83h-1.9V82.7z M39.2,79.8h1.1c0.3,0,0.5,0,0.6-0.1c0.2-0.1,0.3-0.1,0.4-0.2c0.1-0.1,0.1-0.3,0.1-0.4
		c0-0.2,0-0.3-0.1-0.4s-0.2-0.2-0.3-0.3s-0.4-0.2-0.8-0.2h-1V79.8z M39.2,82.1h1.2c0.2,0,0.4,0,0.5,0c0.2,0,0.3-0.1,0.4-0.1
		s0.2-0.2,0.3-0.3s0.1-0.3,0.1-0.4c0-0.2,0-0.3-0.1-0.5s-0.2-0.2-0.4-0.3c-0.2-0.1-0.4-0.1-0.7-0.1h-1.2L39.2,82.1L39.2,82.1z"/>
	<path class="st0" d="M43.3,82.7V82H44v0.7H43.3z"/>
	<path class="st0" d="M48.8,80.9l0.7,0.2c-0.1,0.5-0.4,1-0.8,1.2s-0.8,0.4-1.3,0.4s-1-0.1-1.3-0.3c-0.3-0.2-0.6-0.5-0.8-1
		C45.1,81,45,80.5,45,80.1c0-0.5,0.1-1,0.3-1.4s0.5-0.7,0.9-0.9c0.4-0.2,0.8-0.3,1.2-0.3c0.5,0,0.9,0.1,1.3,0.4
		c0.3,0.3,0.6,0.6,0.7,1.1l-0.7,0.2c-0.1-0.4-0.3-0.6-0.5-0.8s-0.5-0.2-0.8-0.2c-0.4,0-0.7,0.1-1,0.3c-0.3,0.2-0.4,0.4-0.5,0.7
		c-0.1,0.3-0.2,0.6-0.2,1s0.1,0.8,0.2,1.1c0.1,0.3,0.3,0.6,0.6,0.7s0.5,0.2,0.9,0.2s0.7-0.1,0.9-0.3C48.5,81.7,48.7,81.3,48.8,80.9z
		"/>
	<path class="st0" d="M50,80.2c0-0.8,0.2-1.5,0.7-2s1-0.7,1.7-0.7c0.5,0,0.9,0.1,1.3,0.3c0.4,0.2,0.7,0.5,0.8,0.9s0.3,0.8,0.3,1.3
		s-0.1,1-0.3,1.4s-0.5,0.7-0.9,0.9c-0.4,0.2-0.8,0.3-1.2,0.3c-0.5,0-0.9-0.1-1.3-0.3c-0.4-0.2-0.7-0.5-0.8-0.9S50,80.7,50,80.2z
		 M50.7,80.2c0,0.6,0.2,1.1,0.5,1.4s0.7,0.5,1.2,0.5s0.9-0.2,1.2-0.5c0.3-0.4,0.5-0.8,0.5-1.5c0-0.4-0.1-0.8-0.2-1.1
		c-0.1-0.3-0.3-0.5-0.6-0.7S52.7,78,52.4,78c-0.5,0-0.9,0.2-1.2,0.5S50.7,79.5,50.7,80.2z"/>
	<path class="st0" d="M55.7,82.7v-5h1l1.2,3.5c0.1,0.3,0.2,0.6,0.2,0.7c0.1-0.2,0.1-0.5,0.3-0.8l1.2-3.5h0.9v5h-0.6v-4.2l-1.5,4.2
		h-0.6l-1.4-4.3v4.3h-0.7C55.7,82.6,55.7,82.7,55.7,82.7z"/>
</g>
</svg>
