<?xml version="1.0" encoding="UTF-8"?>
<svg width="529px" height="529px" viewBox="0 0 529 529" version="1.1" xmlns="http://www.w3.org/2000/svg" xmlns:xlink="http://www.w3.org/1999/xlink">
    <!-- Generator: Sketch 50.2 (55047) - http://www.bohemiancoding.com/sketch -->
    <title>Group 23</title>
    <desc>Created with Sketch.</desc>
    <defs>
        <linearGradient x1="92.4830918%" y1="0%" x2="18.1111787%" y2="100%" id="linearGradient-1">
            <stop stop-color="#B854F4" offset="0%"></stop>
            <stop stop-color="#6E4DEE" offset="100%"></stop>
        </linearGradient>
        <linearGradient x1="87.7675516%" y1="-35.2222966%" x2="13.5600141%" y2="100%" id="linearGradient-2">
            <stop stop-color="#B554F4" offset="0%"></stop>
            <stop stop-color="#724DEE" offset="100%"></stop>
        </linearGradient>
        <linearGradient x1="86.6952168%" y1="8.78294114%" x2="12.8687389%" y2="92.1834467%" id="linearGradient-3">
            <stop stop-color="#BD55F5" offset="0%"></stop>
            <stop stop-color="#694CED" offset="100%"></stop>
        </linearGradient>
    </defs>
    <g id="Page-1" stroke="none" stroke-width="1" fill="none" fill-rule="evenodd">
        <g id="Group-23" transform="translate(20.000000, 20.000000)">
            <g id="Group-10" transform="translate(63.000000, 140.000000)">
                <polygon id="W" fill="url(#linearGradient-1)" points="32.8579102 0.696289062 93.956543 0.696289062 115.980469 117.067871 148.092773 0.696289062 209.049316 0.696289062 241.303711 117.067871 263.327637 0.696289062 324.14209 0.696289062 278.24707 209 215.15918 209 178.64209 77.8510742 142.26709 209 79.1791992 209"></polygon>
                <path d="M0,47 L92,47 L92,93 L0,93 L0,47 Z M0,121 L92,121 L92,167 L0,167 L0,121 Z M270,47 L362,47 L362,93 L270,93 L270,47 Z M270,121 L362,121 L362,167 L270,167 L270,121 Z" id="Combined-Shape" fill="url(#linearGradient-2)"></path>
            </g>
            <circle id="Oval" stroke="url(#linearGradient-3)" stroke-width="40" cx="244.5" cy="244.5" r="244.5"></circle>
        </g>
    </g>
</svg>