<?xml version="1.0" encoding="utf-8"?>
<!-- Generator: Adobe Illustrator 22.0.0, SVG Export Plug-In . SVG Version: 6.00 Build 0)  -->
<svg version="1.1" id="图层_1" xmlns="http://www.w3.org/2000/svg" xmlns:xlink="http://www.w3.org/1999/xlink" x="0px" y="0px"
	 viewBox="0 0 88 88" style="enable-background:new 0 0 88 88;" xml:space="preserve">
<style type="text/css">
	.st0{fill:#D4D7D9;}
	.st1{fill:#91979A;}
	.st2{fill:#616668;}
	.st3{fill:#A0A5A9;}
	.st4{fill:#EBEDEE;}
	.st5{fill:#B6BBBE;}
	.st6{fill:#434749;}
	.st7{fill:#FEFEFE;}
	.st8{fill:#DEE1E2;}
	.st9{fill:#EEF0F0;}
	.st10{fill:#686D6F;}
	.st11{fill:#9AA0A3;}
	.st12{fill:#E5E8E8;}
	.st13{fill:#BEC3C6;}
	.st14{fill:#9BA1A5;}
	.st15{fill:#363A3A;}
	.st16{fill:#FBFBFC;}
	.st17{fill:#5E6365;}
	.st18{fill:#C6CBCD;}
	.st19{fill:#707577;}
	.st20{fill:#74797B;}
	.st21{fill:#565A5C;}
	.st22{fill:#1E2021;}
	.st23{fill:#3C4041;}
	.st24{opacity:0.1;enable-background:new    ;}
	.st25{fill:#FFFFFF;}
</style>
<title>ETH</title>
<circle class="st0" cx="44" cy="44" r="44"/>
<g>
	<path class="st1" d="M72.5,48.2c-0.9,1.3-2,4-2.4,3.8c-2.7-0.5-2.7-3.8-4.2-5.6c1.8-2.7-3.3-6.3,1.1-8.7c1.3-0.2,3.6,1.1,3.1-1.8
		c-0.4-2.4,0.7-4.2,2.5-5.6c2.4-0.9,3.1-4.9,6.7-3.1c0,6.9,2.2,14.5-4.9,19.8C73.9,47.3,73.6,48.4,72.5,48.2L72.5,48.2z"/>
	<path class="st2" d="M72.7,30c0.7,2.4-2.4,4.4-0.2,6.9c1.3,1.3,1.8,3.1-0.4,4c-2.4,0.9-3.3-1.3-4.4-2.7c-1.6-1.3-2.7-2.9-2.5-5.3
		C67.6,31.9,69.8,29.9,72.7,30L72.7,30z"/>
	<path class="st3" d="M65.2,32.9c1.5,1.5,2.5,3.1,2.5,5.3c-2.4,1.8-1.6,3.6-0.2,5.6c1.6,2.4,0.4,2.7-1.6,2.7
		C64.7,42,61.6,37.7,65.2,32.9L65.2,32.9z"/>
	<path class="st4" d="M72.5,48.2l2-1.5c7.4-0.7,8.7,0.5,5.3,7.3c-2.5,5.1-3.6,11.1-8.9,14.5c-1.5,0.2-2-0.5-2.2-1.8
		c2.2-3.6,2.4-7.8,3.8-11.8C76.5,52.5,75.4,50.3,72.5,48.2L72.5,48.2z"/>
	<path class="st5" d="M69.4,66.7l1.6,1.8c-1.5,2.5-3.3,4.9-6.7,4.7c-1.3-3.1-3.6-6.5,1.8-8.2C66.9,65.9,68.7,65.4,69.4,66.7
		L69.4,66.7z"/>
	<path class="st6" d="M70.1,23.7c-4.7-0.5-6.5-3.1-5.4-7.8C69,16.8,69.4,20.4,70.1,23.7L70.1,23.7z"/>
	<path class="st7" d="M3,44c0,22.7,18.3,41,41,41s41-18.3,41-41S66.7,3,44,3S3,21.3,3,44L3,44z"/>
	<path class="st8" d="M15.4,19.3l3.3-3.3h1.1c2.9,0.5,4.9,2.9,7.4,4.2c3.3,1.5,6.3-0.7,9.4-0.7c2.4-0.2,4.7-0.2,6.9,0.9
		c2.9,3.3,0.5,6-1.1,8.7c-1.3,2-3.3,3.6-3.1,6.3c1.1,5.6-1.6,5.8-6.3,3.3c1.5,4.5,9.2,3.6,6.5,9.8c-1.8,1.3-4.5,1.5-3.3,5.1
		c1.3,3.4,1.8,7.3,2.2,11.1c-1.3,3.6,1.1,9.2-5.6,9.4c-1.3-0.5-1.6-1.8-2-2.9c0.5-4.9-0.5-8.7-4.7-12.1c-4.9-4-6.5-10.2-8-16
		c3.1-7.4,6.2-15.1-1.8-21.4C15.7,20.8,15.5,20.1,15.4,19.3L15.4,19.3z"/>
	<path class="st9" d="M37.7,63.4c-3.4-3.8-3.1-9.1-4.4-13.4c-1.6-6,4-0.5,5.8-1.8c6,8,8.9,7.8,13.6-0.5c1.6-2.7,4.9-4.5,3.8-8.5
		c0.4-4,0.9-8,4.7-10.5c4.7-2.2,10-3.1,12-8.9c5.6-1.5,4.5,3.8,6.2,6.3c-0.2,0.4-0.2,0.7-0.4,1.1c-1.6,2-4,3.3-6.3,4.4
		c-2.2,0.9-4.9,1.3-6.5,3.4c-1.8,3.6,0.5,6.9,0.7,10.5c0.2,0.7,0.2,1.5,0.2,2.4c1.1,6.9-4.9,11.2-7.4,16.7
		c-3.4,7.3-11.4,1.8-17.6,2.2C40.2,66.1,38.4,65.6,37.7,63.4L37.7,63.4z"/>
	<path class="st0" d="M79.6,26c11.6,19.6,1.6,47.3-19.8,54.6c-6,2.2-12,5.8-18.9,2.9c5.1-4.2,11.4-5.4,17-8.2c2-1.1,3.6-2.5,5.6-3.4
		c2.7-1.1,5.1-2.9,6.9-5.1c2.5-2.7,3.4-6.3,5.6-9.2c3.3-4.7,2.4-8.3-2.4-11.2c4.7-5.6,2.2-13.4,5.6-19.4
		C79.4,26.6,79.4,26.2,79.6,26L79.6,26z"/>
	<path class="st10" d="M73.4,19.7c2.9,10.2-6.3,7.4-10.7,10.2c-3.4-0.9-6.2-3.1-9.2-4.4c-1.8-0.7-3.8-1.1-4.7-3.1
		c0-0.9,0.2-1.5,0.7-2.2c2.7-2.7,6.2-1.3,9.8-2C56.6,13.1,53,10,47,10.9c-2.7,0-5.4,0.4-8,1.3c-1.8,0.5-4.5,1.3-4.9-2.2
		c5.6-7.8,13.2-4.4,20.3-3.4C62.3,8.5,69,12.3,73.4,19.7L73.4,19.7z"/>
	<path class="st11" d="M23.9,77.2c-9.2-4.7-16-11.6-18.3-22.1c-0.2-8.7-2.4-17.8,4.2-25.4c4.7,2.5,2.9,6.7,2.4,10.3
		c-1.1,9.8,0.7,18.7,7.1,26.3c1.5,1.8,3.1,3.6,4.4,5.8c0.5,1.1,1.1,2.2,1.1,3.3C24.8,75.9,24.4,76.6,23.9,77.2L23.9,77.2z"/>
	<path class="st12" d="M10.8,29.9c-5.4,7.6-2.7,16.9-5.3,25c-6.1-12.4-0.1-23.2,5-33.9c0.9-1.8,2.7-2.5,4.9-1.6
		c0.2,0.4,0.4,0.5,0.7,0.9C16.3,24.4,14.6,27.7,10.8,29.9L10.8,29.9z"/>
	<path class="st8" d="M54.2,6.6c-7.3-0.4-14.5-1.3-20.7,4.2c-4.9,1.6-8.7,5.6-14.1,5.8c-0.2-0.2-0.5-0.4-0.9-0.5
		c-0.4-1.6-0.4-3.1,1.1-4.4C27.3,4.3,44,1.7,54.2,6.6L54.2,6.6z"/>
	<path class="st13" d="M59.4,76.8c-6.2,2.5-12,5.4-18.7,6.7c-4.2-0.2-8.5,0-11.8-3.3c2.7-3.1,6.3-3.1,10-2.9
		c2.9,0.2,5.6,0.4,7.8-1.8c1.3-0.5,2.4-0.9,3.6-0.9C53.6,74.6,57.1,74.1,59.4,76.8L59.4,76.8z"/>
	<path class="st14" d="M46,76.6c1.5,3.4-0.9,4.2-3.1,3.4c-4.7-1.6-9.2,0.2-13.8,0.4c-2.4,0-3.8-1.5-5.1-3.1c0.2-0.2,0.4-0.5,0.5-0.9
		c4.7-4.9,11.6,0.7,16.3-3.6C43.1,73.4,46,73,46,76.6L46,76.6z"/>
	<path class="st15" d="M10.8,29.9c1.8-3.3,3.4-6.5,5.3-9.8c6.7,2.4,9.4,10.3,6.5,16.7c-1.1,2.2-3.8,3.4-3.4,6.3
		c-0.2,4.9,0.9,9.1,4,13.1c2.2,2.5,3.8,5.6,3.1,9.2c-1.8,2.7-3.6,5.1-7.3,3.1c-8.7-7.8-10.7-17.6-9.2-28.7
		C10.3,36.6,10.7,33.1,10.8,29.9L10.8,29.9z"/>
	<path class="st16" d="M57.8,39.8c1.6,7.6-4.4,16-11.6,16c-5.4,0-8.2-1.8-6.9-7.8c-0.2-2.7-1.3-4.5-4.4-4.9
		c-1.1-0.2-3.4,2.4-3.3-1.3c0.2-1.8,0.2-4,1.3-5.3c1.8-2.2,2.2,1.1,3.4,1.5c4.7,1.3,0.2-2.5,1.6-3.3c1.8-2.2,4.4-2.2,6.9-2.2
		C51.5,30.8,53.1,38,57.8,39.8L57.8,39.8z"/>
	<path class="st17" d="M19.5,16.6c4.9-1.6,7.8-7.6,14.1-5.8c4.9,1.8,9.1-4.7,14-1.3c-0.5,2.5-3.1,5.3,1.3,7.1
		c1.3,0.5,1.6,2.5,0.5,4.2c-0.2,0.4-0.4,0.5-0.5,0.9c-1.6,0.9-3.3,1.1-4.9-0.4c-2.9-0.2-5.6-0.4-8.5-0.5c-3.4-1.8-6.7,0.9-10,0.5
		C23.7,20.1,21.5,18.4,19.5,16.6L19.5,16.6z"/>
	<path class="st18" d="M44.2,21.5c1.6,0.2,3.1,0.2,4.9,0.4c1.5,1.8,3.6,0.7,5.3,1.1c-0.5,5.4,0.2,12-8.3,11.8c-2.7,0-5.4,0-8.3,0.2
		C37.3,29.3,43.8,27,44.2,21.5L44.2,21.5z"/>
	<path class="st19" d="M25.9,65c-2-3.6-3.6-7.4-6.2-10.7c-2.7-3.8-3.4-7.3-0.5-11.2c3.8,7.1,5.8,15,14.5,18.7c2,0.9-2.5,5.1-1.5,8.2
		C29,69.9,27.2,67.8,25.9,65L25.9,65z"/>
	<path class="st20" d="M40.8,73.6c-4.7,5.8-11.1,1.1-16.3,2.7c-0.5-1.1-1.3-2-1.8-3.1c3.4-6,6.5-3.3,9.8,0.2c6.7-0.7,1.1-7.8,5.1-10
		c1.6,0.7,2.9,2.2,5.1,1.5c0.5,0.5,0.7,1.3,0.5,2C41.8,68.8,42.7,71.7,40.8,73.6L40.8,73.6z"/>
	<path class="st21" d="M32.6,73.4c-3.3-1.3-6.5-2.5-9.8-0.2c-1.3-1.6-2.4-3.3-3.6-4.9c2.9,0.2,4.5-2.4,6.9-3.4
		c2.7,0.9,4.7,2.9,6.3,5.1C32.4,71.2,32.4,72.3,32.6,73.4L32.6,73.4z"/>
	<path class="st22" d="M25.7,21.7c3.3-2.2,6.3-5.3,10-0.5C32.4,21.5,29.3,25.3,25.7,21.7L25.7,21.7z"/>
	<path class="st3" d="M42.6,66.7v-1.8c3.4,0.4,6.9,1.3,10.2,1.1c3.6-0.2,8.2-0.5,6.3-6.5c-0.5-1.8-0.9-3.6,1.1-4
		c5.4-1.1,4.2-5.6,5.6-9.1c2.4,0.4,4,4.9,7.3,1.5c4.2,2,5.3,4.5,1.3,8c-4.4,2.4-2.9,8.3-7.1,10.9c-2.9,1.5-1.1,4.9-2.9,6.7
		c-1.6,1.3-3.3,2.4-4.9,3.6l-10.2-0.2c-0.5-3.1,2.9-2.7,3.8-4.7C50.4,68.7,43.7,73,42.6,66.7L42.6,66.7z"/>
	<path class="st8" d="M46,34.8c1.3-2.4,9.2-0.4,4.5-7.1c-1.3-2,3.3-2.4,3.8-4.7c3.3,1.6,6.2,3.8,8.3,6.7c-4.7,1.8-2.7,7.1-5.1,10.2
		c-2.9,4.9-5.8,1.3-6-1.1C51.8,33.7,48.6,35.1,46,34.8L46,34.8z"/>
	<path class="st23" d="M49.5,21.2c-0.5-4.4-5.1-4.7-7.4-7.1c0.5-3.4,4.5-1.8,5.6-4.4c7.4-1.6,12,1.8,15.1,12.1
		C58.2,20.2,53.8,19.2,49.5,21.2L49.5,21.2z"/>
	<path class="st2" d="M42.6,66.7c2.5,2.9,6.2,0.9,9.2,2.4c1.5,0.5,4.2-0.9,4.7,1.6c0.4,2.4-1.1,4-3.8,4.4c-1.3,0.2-2.4,1.1-3.6,1.6
		c-1.1,0-2.2,0-3.3,0l-5.1-3.1C41.8,71.4,36.6,67.6,42.6,66.7L42.6,66.7z"/>
	<path class="st0" d="M69.4,66.7c-1.5,0-2.5-0.4-3.3-1.6c4.7-1.6,0.7-9.1,6.5-10.2C74.5,59.6,72.5,63.2,69.4,66.7L69.4,66.7z"/>
</g>
<g class="st24">
	<path class="st25" d="M30.7,82.8v-0.6l2.6-3.2c0.2-0.2,0.4-0.4,0.5-0.6H31v-0.6h3.6v0.5l-2.8,3.5l-0.3,0.4h3.2v0.6
		C34.7,82.9,30.7,82.9,30.7,82.8z"/>
	<path class="st25" d="M35.3,82.8v-5h1.9c0.4,0,0.7,0.1,0.9,0.2c0.2,0.1,0.4,0.3,0.5,0.5s0.2,0.4,0.2,0.7c0,0.2-0.1,0.4-0.2,0.6
		c-0.1,0.2-0.3,0.3-0.5,0.5c0.3,0.1,0.5,0.2,0.7,0.5C39,81,39,81.3,39,81.6c0,0.2,0,0.5-0.1,0.7s-0.2,0.4-0.4,0.5
		C38.3,82.9,38.2,83,38,83c-0.2,0.1-0.5,0.1-0.8,0.1h-1.9V82.8z M36,80h1.1c0.3,0,0.5,0,0.6-0.1c0.2-0.1,0.3-0.1,0.4-0.2
		c0.1-0.1,0.1-0.3,0.1-0.4c0-0.2,0-0.3-0.1-0.4s-0.2-0.2-0.3-0.3s-0.4-0.2-0.8-0.2h-1V80z M36,82.2h1.2c0.2,0,0.4,0,0.5,0
		c0.2,0,0.3-0.1,0.4-0.1c0.1,0,0.2-0.2,0.3-0.3s0.1-0.3,0.1-0.4c0-0.2,0-0.3-0.1-0.5s-0.2-0.2-0.4-0.3c-0.2-0.1-0.4-0.1-0.7-0.1
		h-1.2L36,82.2L36,82.2z"/>
	<path class="st25" d="M40.1,82.8v-0.7h0.7v0.7H40.1z"/>
	<path class="st25" d="M45.6,81.1l0.7,0.2c-0.1,0.5-0.4,1-0.8,1.2c-0.4,0.2-0.8,0.4-1.3,0.4s-1-0.1-1.3-0.3c-0.3-0.2-0.6-0.5-0.8-1
		c-0.2-0.4-0.3-0.9-0.3-1.3c0-0.5,0.1-1,0.3-1.4c0.2-0.4,0.5-0.7,0.9-0.9c0.4-0.2,0.8-0.3,1.2-0.3c0.5,0,0.9,0.1,1.3,0.4
		c0.3,0.3,0.6,0.6,0.7,1.1l-0.7,0.2c-0.1-0.4-0.3-0.6-0.5-0.8c-0.2-0.2-0.5-0.2-0.8-0.2c-0.4,0-0.7,0.1-1,0.3
		c-0.3,0.2-0.4,0.4-0.5,0.7c-0.1,0.3-0.2,0.6-0.2,1s0.1,0.8,0.2,1.1c0.1,0.3,0.3,0.6,0.6,0.7c0.3,0.1,0.5,0.2,0.9,0.2
		s0.7-0.1,0.9-0.3C45.3,81.8,45.5,81.5,45.6,81.1z"/>
	<path class="st25" d="M46.8,80.3c0-0.8,0.2-1.5,0.7-2s1-0.7,1.7-0.7c0.5,0,0.9,0.1,1.3,0.3c0.4,0.2,0.7,0.5,0.8,0.9
		s0.3,0.8,0.3,1.3s-0.1,1-0.3,1.4c-0.2,0.4-0.5,0.7-0.9,0.9c-0.4,0.2-0.8,0.3-1.2,0.3c-0.5,0-0.9-0.1-1.3-0.3
		c-0.4-0.2-0.7-0.5-0.8-0.9S46.8,80.8,46.8,80.3z M47.5,80.3c0,0.6,0.2,1.1,0.5,1.4c0.3,0.3,0.7,0.5,1.2,0.5s0.9-0.2,1.2-0.5
		c0.3-0.4,0.5-0.8,0.5-1.5c0-0.4-0.1-0.8-0.2-1.1c-0.1-0.3-0.3-0.5-0.6-0.7c-0.3-0.2-0.6-0.3-0.9-0.3c-0.5,0-0.9,0.2-1.2,0.5
		C47.7,79,47.5,79.7,47.5,80.3z"/>
	<path class="st25" d="M52.5,82.8v-5h1l1.2,3.5c0.1,0.3,0.2,0.6,0.2,0.7c0.1-0.2,0.1-0.5,0.3-0.8l1.2-3.5h0.9v5h-0.6v-4.2l-1.5,4.2
		h-0.6l-1.4-4.3v4.3h-0.7C52.5,82.7,52.5,82.8,52.5,82.8z"/>
</g>
</svg>
