<?xml version="1.0" encoding="utf-8"?>
<!-- Generator: Adobe Illustrator 22.0.0, SVG Export Plug-In . SVG Version: 6.00 Build 0)  -->
<svg version="1.1" id="图层_1" xmlns="http://www.w3.org/2000/svg" xmlns:xlink="http://www.w3.org/1999/xlink" x="0px" y="0px"
	 viewBox="0 0 88 88" style="enable-background:new 0 0 88 88;" xml:space="preserve">
<style type="text/css">
	.st0{fill:#EAEAEA;}
	.st1{opacity:5.000000e-02;enable-background:new    ;}
	.st2{fill:#FFFFFF;}
	.st3{fill:#83D4FE;}
	.st4{fill:#1295DA;}
	.st5{fill:#FDFEFE;}
	.st6{opacity:0.3;enable-background:new    ;}
</style>
<title>zb</title>
<desc>Created with Sketch.</desc>
<circle id="Oval" class="st0" cx="44" cy="44" r="44"/>
<g class="st1">
	<path class="st2" d="M31.5,79.2v-0.6l2.6-3.2c0.2-0.2,0.4-0.4,0.5-0.6h-2.8v-0.6h3.6v0.5l-2.8,3.5l-0.3,0.4h3.2v0.6
		C35.5,79.2,31.5,79.2,31.5,79.2z"/>
	<path class="st2" d="M36.1,79.2v-5H38c0.4,0,0.7,0.1,0.9,0.2s0.4,0.3,0.5,0.5s0.2,0.4,0.2,0.7c0,0.2-0.1,0.4-0.2,0.6
		s-0.3,0.3-0.5,0.5c0.3,0.1,0.5,0.2,0.7,0.5c0.2,0.2,0.2,0.5,0.2,0.8c0,0.2,0,0.5-0.1,0.7s-0.2,0.4-0.4,0.5s-0.3,0.2-0.5,0.2
		c-0.2,0.1-0.5,0.1-0.8,0.1h-1.9C36.1,79.5,36.1,79.2,36.1,79.2z M36.8,76.3h1.1c0.3,0,0.5,0,0.6-0.1c0.2-0.1,0.3-0.1,0.4-0.2
		c0.1-0.1,0.1-0.3,0.1-0.4c0-0.2,0-0.3-0.1-0.4s-0.2-0.2-0.3-0.3s-0.4-0.2-0.8-0.2h-1V76.3z M36.8,78.6H38c0.2,0,0.4,0,0.5,0
		c0.2,0,0.3-0.1,0.4-0.1s0.2-0.2,0.3-0.3s0.1-0.3,0.1-0.4c0-0.2,0-0.3-0.1-0.5S39,77.1,38.8,77s-0.4-0.1-0.7-0.1h-1.2L36.8,78.6
		L36.8,78.6z"/>
	<path class="st2" d="M40.9,79.2v-0.7h0.7v0.7H40.9z"/>
	<path class="st2" d="M46.4,77.4l0.7,0.2c-0.1,0.5-0.4,1-0.8,1.2s-0.8,0.4-1.3,0.4s-1-0.1-1.3-0.3c-0.3-0.2-0.6-0.5-0.8-1
		c-0.2-0.4-0.3-0.9-0.3-1.3c0-0.5,0.1-1,0.3-1.4s0.5-0.7,0.9-0.9c0.4-0.2,0.8-0.3,1.2-0.3c0.5,0,0.9,0.1,1.3,0.4
		c0.3,0.3,0.6,0.6,0.7,1.1l-0.7,0.2c-0.1-0.4-0.3-0.6-0.5-0.8s-0.5-0.2-0.8-0.2c-0.4,0-0.7,0.1-1,0.3c-0.3,0.2-0.4,0.4-0.5,0.7
		c-0.1,0.3-0.2,0.6-0.2,1s0.1,0.8,0.2,1.1c0.1,0.3,0.3,0.6,0.6,0.7s0.5,0.2,0.9,0.2s0.7-0.1,0.9-0.3C46.1,78.2,46.3,77.8,46.4,77.4z
		"/>
	<path class="st2" d="M47.6,76.7c0-0.8,0.2-1.5,0.7-2s1-0.7,1.7-0.7c0.5,0,0.9,0.1,1.3,0.3c0.4,0.2,0.7,0.5,0.8,0.9s0.3,0.8,0.3,1.3
		s-0.1,1-0.3,1.4s-0.5,0.7-0.9,0.9c-0.4,0.2-0.8,0.3-1.2,0.3c-0.5,0-0.9-0.1-1.3-0.3c-0.4-0.2-0.7-0.5-0.8-0.9S47.6,77.2,47.6,76.7z
		 M48.3,76.7c0,0.6,0.2,1.1,0.5,1.4s0.7,0.5,1.2,0.5s0.9-0.2,1.2-0.5c0.3-0.4,0.5-0.8,0.5-1.5c0-0.4-0.1-0.8-0.2-1.1
		c-0.1-0.3-0.3-0.5-0.6-0.7s-0.6-0.3-0.9-0.3c-0.5,0-0.9,0.2-1.2,0.5S48.3,76,48.3,76.7z"/>
	<path class="st2" d="M53.3,79.2v-5h1l1.2,3.5c0.1,0.3,0.2,0.6,0.2,0.7c0.1-0.2,0.1-0.5,0.3-0.8l1.2-3.5h0.9v5h-0.6v-4.2L56,79.1
		h-0.6L54,74.8v4.3L53.3,79.2C53.3,79.1,53.3,79.2,53.3,79.2z"/>
</g>
<g>
	<path class="st3" d="M42.9,28.8c8.7,0,15.7,7.1,15.7,15.9c0,8.7-7.1,15.7-15.9,15.7c-8.7,0-15.7-7.1-15.7-15.9
		C27,35.9,34.2,28.8,42.9,28.8z"/>
	<path class="st4" d="M50.9,25.2c0.3-3,0.6-5.8,1-8.6c0.2-1.8,0.5-1.9,2.1-1.3c10.7,4.1,17.2,11.7,19.7,22.9c0.3,1.3,0.9,2.5,0.5,4
		c-0.2,0.8-0.6,1-1.3,0.9c-3.2-0.4-6.3-0.8-9.5-1.2c-0.6-0.1-0.9-0.4-1-1c-1.3-6.5-4.9-11.3-10.9-14.3
		C50.7,26.3,50.8,25.7,50.9,25.2z"/>
	<path class="st4" d="M40.6,13.8c2.7-0.1,2.7-0.1,2.5,2.2c-0.3,2.6-0.7,5.2-0.9,7.8c-0.1,0.8-0.4,1-1.1,1.1c-7.4,1-12.8,4.8-16,11.5
		c-0.3,0.6-0.6,0.8-1.3,0.7c-2.5-0.4-5.1-0.6-7.6-0.9c-0.9-0.1-1.4-0.4-1-1.5C19.2,23.4,27,16.3,38.9,14
		C39.6,13.9,40.4,13.8,40.6,13.8z"/>
	<path class="st4" d="M45.2,73.1c0.4-3,0.7-5.6,1-8.2c0.1-0.7,0.3-1,1-1.1c6.8-1.6,11.5-5.6,14.2-12.1c0.3-0.7,0.7-0.7,1.4-0.7
		c2.9,0.3,5.8,0.7,8.7,1c1.3,0.1,1.4,0.8,1,1.9c-1.6,4.9-4.5,8.9-8.2,12.4c-4.8,4.6-10.9,6.5-17.1,7.9
		C45.8,74.4,45.2,73.8,45.2,73.1z"/>
	<path class="st4" d="M37.3,64.6c-0.3,2.5-0.6,4.8-0.8,7.1c-0.1,1.1-0.6,1.3-1.6,0.9c-11.5-4.1-18.5-12-20.9-24
		c-0.7-3.3-0.5-3.5,2.9-3c1.8,0.2,3.6,0.5,5.4,0.6c0.8,0.1,1,0.4,1.2,1.1c1.3,7.6,5.6,12.8,12.9,15.6C37.4,63.4,37.5,63.9,37.3,64.6
		z"/>
	<path class="st5" d="M55.1,38.8c-2,1.7-3.8,3.2-5.6,4.8c3.2,1.3,4.1,4.4,5.9,6.9c-1.6,0.5-2.6,0.2-3.2-1.2c-0.4-0.8-1-1.5-1.4-2.2
		c-0.5-0.8-1.2-1.2-2.1-1.5c-1.2-0.4-1.9-0.2-1.8,1.3c0.1,0.9,0,1.9,0,2.8c0.1,0.9-0.4,1-1.1,1c-0.7,0-1.1-0.2-1-1
		c0-3.4,0-6.9,0-10.3c0-0.8,0.4-0.9,1.1-0.9c0.6,0,1.1,0.1,1.1,0.9c0,1.1,0,2.3,0,3.8c1.6-1.3,3-2.4,4.3-3.6
		C52.2,38.7,53.3,38.2,55.1,38.8z"/>
	<path class="st5" d="M37.3,44.7c1-1.8,1.8-3.3,2.7-4.8c0.2-0.4,0.4-0.8,0.7-1c0.6-0.5,1.5-0.5,2.1-0.1c0.5,0.3-0.1,0.9-0.4,1.3
		c-0.8,1.6-1.7,3.1-2.6,4.6c-1,1.6-1.8,3.2-1.5,5.1c0.1,0.6-0.1,1.1-0.8,1c-0.5-0.1-1.4,0.2-1.3-0.6c0.5-3.8-2.2-6.3-3.6-9.4
		c-0.1-0.2-0.2-0.4-0.3-0.5c-0.1-0.5-1.1-1.2-0.3-1.5c0.7-0.3,1.7-0.4,2.3,0.6C35.2,41,36.2,42.7,37.3,44.7z"/>
</g>
<g class="st6">
	<path class="st2" d="M29.3,81.9v-0.6l2.6-3.2c0.2-0.2,0.4-0.4,0.5-0.6h-2.8v-0.6h3.6v0.5l-2.8,3.5l-0.3,0.4h3.2v0.6
		C33.3,81.9,29.3,81.9,29.3,81.9z"/>
	<path class="st2" d="M33.9,81.9v-5h1.9c0.4,0,0.7,0.1,0.9,0.2c0.2,0.1,0.4,0.3,0.5,0.5s0.2,0.4,0.2,0.7c0,0.2-0.1,0.4-0.2,0.6
		c-0.1,0.2-0.3,0.3-0.5,0.5c0.3,0.1,0.5,0.2,0.7,0.5c0.2,0.2,0.2,0.5,0.2,0.8c0,0.2,0,0.5-0.1,0.7s-0.2,0.4-0.4,0.5
		c-0.2,0.1-0.3,0.2-0.5,0.2c-0.2,0.1-0.5,0.1-0.8,0.1h-1.9V81.9z M34.6,79h1.1c0.3,0,0.5,0,0.6-0.1c0.2-0.1,0.3-0.1,0.4-0.2
		c0.1-0.1,0.1-0.3,0.1-0.4c0-0.2,0-0.3-0.1-0.4s-0.2-0.2-0.3-0.3s-0.4-0.2-0.8-0.2h-1V79z M34.6,81.3h1.2c0.2,0,0.4,0,0.5,0
		c0.2,0,0.3-0.1,0.4-0.1c0.1,0,0.2-0.2,0.3-0.3s0.1-0.3,0.1-0.4c0-0.2,0-0.3-0.1-0.5s-0.2-0.2-0.4-0.3c-0.2-0.1-0.4-0.1-0.7-0.1
		h-1.2L34.6,81.3L34.6,81.3z"/>
	<path class="st2" d="M38.7,81.9v-0.7h0.7v0.7H38.7z"/>
	<path class="st2" d="M44.2,80.1l0.7,0.2c-0.1,0.5-0.4,1-0.8,1.2c-0.4,0.2-0.8,0.4-1.3,0.4s-1-0.1-1.3-0.3c-0.3-0.2-0.6-0.5-0.8-1
		c-0.2-0.4-0.3-0.9-0.3-1.3c0-0.5,0.1-1,0.3-1.4c0.2-0.4,0.5-0.7,0.9-0.9c0.4-0.2,0.8-0.3,1.2-0.3c0.5,0,0.9,0.1,1.3,0.4
		c0.3,0.3,0.6,0.6,0.7,1.1l-0.7,0.2c-0.1-0.4-0.3-0.6-0.5-0.8c-0.2-0.2-0.5-0.2-0.8-0.2c-0.4,0-0.7,0.1-1,0.3
		c-0.3,0.2-0.4,0.4-0.5,0.7c-0.1,0.3-0.2,0.6-0.2,1s0.1,0.8,0.2,1.1c0.1,0.3,0.3,0.6,0.6,0.7c0.3,0.1,0.5,0.2,0.9,0.2
		s0.7-0.1,0.9-0.3C43.9,80.9,44.1,80.5,44.2,80.1z"/>
	<path class="st2" d="M45.4,79.4c0-0.8,0.2-1.5,0.7-2s1-0.7,1.7-0.7c0.5,0,0.9,0.1,1.3,0.3c0.4,0.2,0.7,0.5,0.8,0.9s0.3,0.8,0.3,1.3
		s-0.1,1-0.3,1.4c-0.2,0.4-0.5,0.7-0.9,0.9c-0.4,0.2-0.8,0.3-1.2,0.3c-0.5,0-0.9-0.1-1.3-0.3c-0.4-0.2-0.7-0.5-0.8-0.9
		S45.4,79.9,45.4,79.4z M46.1,79.4c0,0.6,0.2,1.1,0.5,1.4c0.3,0.3,0.7,0.5,1.2,0.5s0.9-0.2,1.2-0.5c0.3-0.4,0.5-0.8,0.5-1.5
		c0-0.4-0.1-0.8-0.2-1.1c-0.1-0.3-0.3-0.5-0.6-0.7c-0.3-0.2-0.6-0.3-0.9-0.3c-0.5,0-0.9,0.2-1.2,0.5C46.3,78,46.1,78.7,46.1,79.4z"
		/>
	<path class="st2" d="M51.1,81.9v-5h1l1.2,3.5c0.1,0.3,0.2,0.6,0.2,0.7c0.1-0.2,0.1-0.5,0.3-0.8l1.2-3.5h0.9v5h-0.6v-4.2l-1.5,4.2
		h-0.6l-1.4-4.3v4.3h-0.7C51.1,81.8,51.1,81.9,51.1,81.9z"/>
</g>
</svg>
