<?xml version="1.0" encoding="utf-8"?>
<!-- Generator: Adobe Illustrator 22.0.0, SVG Export Plug-In . SVG Version: 6.00 Build 0)  -->
<svg version="1.1" id="图层_1" xmlns="http://www.w3.org/2000/svg" xmlns:xlink="http://www.w3.org/1999/xlink" x="0px" y="0px"
	 viewBox="0 0 88 88" style="enable-background:new 0 0 88 88;" xml:space="preserve">
<style type="text/css">
	.st0{fill:#34CCFF;}
	.st1{fill:#FFFFFF;}
	.st2{opacity:5.000000e-02;enable-background:new    ;}
</style>
<title>YOYOW</title>
<g id="图层_2_1_">
	<g id="图层_1-2">
		<circle class="st0" cx="44" cy="44" r="44"/>
		<path class="st1" d="M26.5,43.9c0-1.4-1.1-2.5-2.5-2.5c-0.2,0-0.4,0-0.6,0.1c0.8-1.2,1.3-2.6,1.3-4c0-3.8-3.1-6.9-6.9-6.9
			s-6.9,3.1-6.9,6.9c0,3.8,3.1,6.9,6.9,6.9c1.4,0,2.7-0.4,3.8-1.1c-0.1,0.2-0.1,0.5-0.1,0.7c0,1.4,1.1,2.5,2.5,2.5
			S26.5,45.3,26.5,43.9L26.5,43.9z"/>
		<path class="st1" d="M37.4,41.8c-1.4,0-2.5,1.1-2.5,2.5c0,0.2,0.1,0.5,0.1,0.7c-3-2.3-7.4-1.6-9.6,1.4s-1.6,7.4,1.4,9.6
			c1.2,0.9,2.6,1.4,4.1,1.3c3.8,0,6.9-3.1,6.9-6.9c0-1.4-0.4-2.7-1.2-3.9c0.3,0.1,0.5,0.1,0.8,0.1c1.4,0,2.5-1.1,2.5-2.5
			S38.9,41.8,37.4,41.8L37.4,41.8z M52.7,43.8c0-1.4-1.1-2.5-2.5-2.5c-0.2,0-0.4,0-0.6,0.1c2.2-3.1,1.4-7.3-1.7-9.5
			c-3.1-2.2-7.3-1.4-9.5,1.7s-1.4,7.3,1.7,9.5c2.3,1.6,5.3,1.7,7.7,0.1c-0.1,0.2-0.1,0.4-0.1,0.7c0.2,1.4,1.4,2.4,2.8,2.2
			C51.6,45.9,52.5,45,52.7,43.8L52.7,43.8z"/>
		<path class="st1" d="M63.6,41.9c-1.4,0-2.5,1.1-2.5,2.5c0,0.2,0,0.4,0.1,0.7c-3-2.3-7.4-1.7-9.6,1.4c-2.3,3-1.7,7.4,1.4,9.6
			c3,2.3,7.4,1.7,9.6-1.4c0.9-1.2,1.4-2.7,1.4-4.2c0-1.3-0.4-2.6-1.1-3.8c0.3,0.1,0.5,0.1,0.8,0.1c1.4-0.2,2.4-1.4,2.2-2.8
			C65.6,43,64.7,42.1,63.6,41.9L63.6,41.9z"/>
		<path class="st1" d="M63.3,37.4c0,3.8,3.1,6.9,6.9,6.9c3.8,0,6.9-3.1,6.9-6.9c0-3.8-3.1-6.9-6.9-6.9c0,0,0,0,0,0
			C66.4,30.6,63.3,33.7,63.3,37.4z"/>
	</g>
</g>
<g class="st2">
	<path class="st1" d="M30.7,74.7v-0.6l2.6-3.2c0.2-0.2,0.4-0.4,0.5-0.6H31v-0.6h3.6v0.5l-2.8,3.5l-0.3,0.4h3.2v0.6
		C34.7,74.7,30.7,74.7,30.7,74.7z"/>
	<path class="st1" d="M35.3,74.7v-5h1.9c0.4,0,0.7,0.1,0.9,0.2c0.2,0.1,0.4,0.3,0.5,0.5s0.2,0.4,0.2,0.7c0,0.2-0.1,0.4-0.2,0.6
		c-0.1,0.2-0.3,0.3-0.5,0.5c0.3,0.1,0.5,0.2,0.7,0.5c0.2,0.2,0.2,0.5,0.2,0.8c0,0.2,0,0.5-0.1,0.7s-0.2,0.4-0.4,0.5
		c-0.2,0.1-0.3,0.2-0.5,0.2C37.8,75,37.5,75,37.2,75h-1.9V74.7z M36,71.8h1.1c0.3,0,0.5,0,0.6-0.1c0.2-0.1,0.3-0.1,0.4-0.2
		c0.1-0.1,0.1-0.3,0.1-0.4c0-0.2,0-0.3-0.1-0.4s-0.2-0.2-0.3-0.3s-0.4-0.2-0.8-0.2h-1V71.8z M36,74.1h1.2c0.2,0,0.4,0,0.5,0
		c0.2,0,0.3-0.1,0.4-0.1c0.1,0,0.2-0.2,0.3-0.3s0.1-0.3,0.1-0.4c0-0.2,0-0.3-0.1-0.5s-0.2-0.2-0.4-0.3c-0.2-0.1-0.4-0.1-0.7-0.1
		h-1.2L36,74.1L36,74.1z"/>
	<path class="st1" d="M40.1,74.7V74h0.7v0.7H40.1z"/>
	<path class="st1" d="M45.6,72.9l0.7,0.2c-0.1,0.5-0.4,1-0.8,1.2c-0.4,0.2-0.8,0.4-1.3,0.4s-1-0.1-1.3-0.3c-0.3-0.2-0.6-0.5-0.8-1
		c-0.2-0.4-0.3-0.9-0.3-1.3c0-0.5,0.1-1,0.3-1.4c0.2-0.4,0.5-0.7,0.9-0.9c0.4-0.2,0.8-0.3,1.2-0.3c0.5,0,0.9,0.1,1.3,0.4
		c0.3,0.3,0.6,0.6,0.7,1.1l-0.7,0.2c-0.1-0.4-0.3-0.6-0.5-0.8c-0.2-0.2-0.5-0.2-0.8-0.2c-0.4,0-0.7,0.1-1,0.3
		c-0.3,0.2-0.4,0.4-0.5,0.7c-0.1,0.3-0.2,0.6-0.2,1s0.1,0.8,0.2,1.1c0.1,0.3,0.3,0.6,0.6,0.7c0.3,0.1,0.5,0.2,0.9,0.2
		s0.7-0.1,0.9-0.3C45.3,73.7,45.5,73.3,45.6,72.9z"/>
	<path class="st1" d="M46.8,72.2c0-0.8,0.2-1.5,0.7-2s1-0.7,1.7-0.7c0.5,0,0.9,0.1,1.3,0.3c0.4,0.2,0.7,0.5,0.8,0.9s0.3,0.8,0.3,1.3
		s-0.1,1-0.3,1.4c-0.2,0.4-0.5,0.7-0.9,0.9c-0.4,0.2-0.8,0.3-1.2,0.3c-0.5,0-0.9-0.1-1.3-0.3c-0.4-0.2-0.7-0.5-0.8-0.9
		S46.8,72.7,46.8,72.2z M47.5,72.2c0,0.6,0.2,1.1,0.5,1.4c0.3,0.3,0.7,0.5,1.2,0.5s0.9-0.2,1.2-0.5c0.3-0.4,0.5-0.8,0.5-1.5
		c0-0.4-0.1-0.8-0.2-1.1c-0.1-0.3-0.3-0.5-0.6-0.7c-0.3-0.2-0.6-0.3-0.9-0.3c-0.5,0-0.9,0.2-1.2,0.5C47.7,70.8,47.5,71.5,47.5,72.2z
		"/>
	<path class="st1" d="M52.5,74.7v-5h1l1.2,3.5c0.1,0.3,0.2,0.6,0.2,0.7c0.1-0.2,0.1-0.5,0.3-0.8l1.2-3.5h0.9v5h-0.6v-4.2l-1.5,4.2
		h-0.6l-1.4-4.3v4.3h-0.7C52.5,74.6,52.5,74.7,52.5,74.7z"/>
</g>
</svg>
