<?xml version="1.0" encoding="utf-8"?>
<!-- Generator: Adobe Illustrator 22.0.0, SVG Export Plug-In . SVG Version: 6.00 Build 0)  -->
<svg version="1.1" id="图层_1" xmlns="http://www.w3.org/2000/svg" xmlns:xlink="http://www.w3.org/1999/xlink" x="0px" y="0px"
	 viewBox="0 0 88 88" style="enable-background:new 0 0 88 88;" xml:space="preserve">
<style type="text/css">
	.st0{fill:#E6201A;}
	.st1{fill:#FEFEFE;}
	.st2{opacity:0.1;enable-background:new    ;}
	.st3{fill:#FFFFFF;}
</style>
<title>zb</title>
<desc>Created with Sketch.</desc>
<g id="Page-1">
	<g id="zb">
		<circle id="Oval" class="st0" cx="44" cy="44" r="44"/>
		<path id="ZT" class="st1" d="M28.6,16h30.9c11,0,14.2,12.8,11,19.1c-3.2,6.3-10.6,13.6-15.9,18.4c-4.9,4.3-11.9,8.5-20.8-0.3
			c-0.4-0.3-0.9-0.7-1.4-1.2l6.5-6.7c0.1,0.1,0.2,0.2,0.3,0.2c4,3.9,6,4,10,0c3-2.9,8.8-9.2,11.3-12.2c2.4-2.9,3.8-9.2-7.2-9.2H35.9
			c-7.3,0-11.1,3.8-7.3,9.2c0.3,0.3,0.6,0.7,0.8,1l-6.9,7.2c-1.7-2.1-3-4-3.6-5.3C14.4,27.4,18.2,16,28.6,16z M29.2,71.4
			c-11,0-14.2-12.8-11-19.1c3.2-6.3,10.6-13.7,15.9-18.5c4.9-4.3,11.9-8.5,20.8,0.3c0.4,0.3,0.9,0.7,1.4,1.2l-6.5,6.8
			c-0.1-0.1-0.2-0.2-0.3-0.2c-4-4-6-4-10,0c-3,2.9-8.8,9.2-11.3,12.2c-2.4,2.9-3.8,9.2,7.2,9.2h17.4c7.3,0,11.1-3.8,7.3-9.2
			c-0.3-0.3-0.5-0.7-0.8-1l6.9-7.2c1.7,2.1,3,4,3.6,5.4c4.5,8.9,0.7,20.2-9.7,20.2H29.2z"/>
	</g>
</g>
<g class="st2">
	<path class="st3" d="M35.5,81.2v-0.6l2.6-3.2c0.2-0.2,0.4-0.4,0.5-0.6h-2.8v-0.6h3.6v0.5l-2.8,3.5l-0.3,0.4h3.2v0.6
		C39.5,81.2,35.5,81.2,35.5,81.2z"/>
	<path class="st3" d="M40.1,81.2v-5H42c0.4,0,0.7,0.1,0.9,0.2s0.4,0.3,0.5,0.5s0.2,0.4,0.2,0.7c0,0.2-0.1,0.4-0.2,0.6
		s-0.3,0.3-0.5,0.5c0.3,0.1,0.5,0.2,0.7,0.5c0.2,0.2,0.2,0.5,0.2,0.8c0,0.2,0,0.5-0.1,0.7s-0.2,0.4-0.4,0.5s-0.3,0.2-0.5,0.2
		c-0.2,0.1-0.5,0.1-0.8,0.1h-1.9V81.2z M40.8,78.3h1.1c0.3,0,0.5,0,0.6-0.1c0.2-0.1,0.3-0.1,0.4-0.2c0.1-0.1,0.1-0.3,0.1-0.4
		c0-0.2,0-0.3-0.1-0.4s-0.2-0.2-0.3-0.3s-0.4-0.2-0.8-0.2h-1V78.3z M40.8,80.6H42c0.2,0,0.4,0,0.5,0c0.2,0,0.3-0.1,0.4-0.1
		s0.2-0.2,0.3-0.3s0.1-0.3,0.1-0.4c0-0.2,0-0.3-0.1-0.5S43,79.1,42.8,79c-0.2-0.1-0.4-0.1-0.7-0.1h-1.2L40.8,80.6L40.8,80.6z"/>
	<path class="st3" d="M44.9,81.2v-0.7h0.7v0.7H44.9z"/>
	<path class="st3" d="M50.4,79.4l0.7,0.2c-0.1,0.5-0.4,1-0.8,1.2s-0.8,0.4-1.3,0.4s-1-0.1-1.3-0.3c-0.3-0.2-0.6-0.5-0.8-1
		c-0.2-0.4-0.3-0.9-0.3-1.3c0-0.5,0.1-1,0.3-1.4s0.5-0.7,0.9-0.9c0.4-0.2,0.8-0.3,1.2-0.3c0.5,0,0.9,0.1,1.3,0.4
		c0.3,0.3,0.6,0.6,0.7,1.1l-0.7,0.2c-0.1-0.4-0.3-0.6-0.5-0.8s-0.5-0.2-0.8-0.2c-0.4,0-0.7,0.1-1,0.3c-0.3,0.2-0.4,0.4-0.5,0.7
		c-0.1,0.3-0.2,0.6-0.2,1s0.1,0.8,0.2,1.1c0.1,0.3,0.3,0.6,0.6,0.7s0.5,0.2,0.9,0.2s0.7-0.1,0.9-0.3C50.1,80.2,50.3,79.8,50.4,79.4z
		"/>
	<path class="st3" d="M51.6,78.7c0-0.8,0.2-1.5,0.7-2s1-0.7,1.7-0.7c0.5,0,0.9,0.1,1.3,0.3c0.4,0.2,0.7,0.5,0.8,0.9s0.3,0.8,0.3,1.3
		s-0.1,1-0.3,1.4s-0.5,0.7-0.9,0.9c-0.4,0.2-0.8,0.3-1.2,0.3c-0.5,0-0.9-0.1-1.3-0.3c-0.4-0.2-0.7-0.5-0.8-0.9S51.6,79.2,51.6,78.7z
		 M52.3,78.7c0,0.6,0.2,1.1,0.5,1.4s0.7,0.5,1.2,0.5s0.9-0.2,1.2-0.5c0.3-0.4,0.5-0.8,0.5-1.5c0-0.4-0.1-0.8-0.2-1.1
		c-0.1-0.3-0.3-0.5-0.6-0.7s-0.6-0.3-0.9-0.3c-0.5,0-0.9,0.2-1.2,0.5S52.3,78,52.3,78.7z"/>
	<path class="st3" d="M57.3,81.2v-5h1l1.2,3.5c0.1,0.3,0.2,0.6,0.2,0.7c0.1-0.2,0.1-0.5,0.3-0.8l1.2-3.5h0.9v5h-0.6v-4.2L60,81.1
		h-0.6L58,76.8v4.3h-0.7C57.3,81.1,57.3,81.2,57.3,81.2z"/>
</g>
</svg>
