<?xml version="1.0" encoding="utf-8"?>
<!-- Generator: Adobe Illustrator 22.0.0, SVG Export Plug-In . SVG Version: 6.00 Build 0)  -->
<svg version="1.1" id="图层_1" xmlns="http://www.w3.org/2000/svg" xmlns:xlink="http://www.w3.org/1999/xlink" x="0px" y="0px"
	 viewBox="0 0 88 88" style="enable-background:new 0 0 88 88;" xml:space="preserve">
<style type="text/css">
	.st0{fill:#4AC0BF;}
	.st1{fill:#FFFFFF;}
	.st2{opacity:5.000000e-02;enable-background:new    ;}
</style>
<title>BCD</title>
<circle class="st0" cx="44" cy="44" r="44"/>
<g>
	<polygon class="st1" points="56.3,43.2 56.3,34 22.8,17.8 22.5,26.4 45.5,37.4 22.5,49.1 22.5,58.6 56.6,74.5 56.6,65 33.9,54 	"/>
	<polygon class="st1" points="31.1,13.5 22.8,17.5 56.6,33.7 65.2,30 	"/>
	<polygon class="st1" points="56.9,65.3 56.9,74.5 65.5,70.5 65.5,43.2 57.2,47.2 	"/>
	<polygon class="st1" points="56.9,34 56.9,43.2 65.5,38.9 65.5,30.4 	"/>
</g>
<g class="st2">
	<path class="st1" d="M33.8,81.8v-0.6l2.6-3.2c0.2-0.2,0.4-0.4,0.5-0.6h-2.8v-0.6h3.6v0.5l-2.8,3.5l-0.3,0.4h3.2v0.6
		C37.8,81.8,33.8,81.8,33.8,81.8z"/>
	<path class="st1" d="M38.4,81.8v-5h1.9c0.4,0,0.7,0.1,0.9,0.2s0.4,0.3,0.5,0.5s0.2,0.4,0.2,0.7c0,0.2-0.1,0.4-0.2,0.6
		s-0.3,0.3-0.5,0.5c0.3,0.1,0.5,0.2,0.7,0.5c0.2,0.2,0.2,0.5,0.2,0.8c0,0.2,0,0.5-0.1,0.7s-0.2,0.4-0.4,0.5S41.3,82,41.1,82
		c-0.2,0.1-0.5,0.1-0.8,0.1h-1.9V81.8z M39.1,78.9h1.1c0.3,0,0.5,0,0.6-0.1c0.2-0.1,0.3-0.1,0.4-0.2c0.1-0.1,0.1-0.3,0.1-0.4
		c0-0.2,0-0.3-0.1-0.4s-0.2-0.2-0.3-0.3s-0.4-0.2-0.8-0.2h-1V78.9z M39.1,81.2h1.2c0.2,0,0.4,0,0.5,0c0.2,0,0.3-0.1,0.4-0.1
		s0.2-0.2,0.3-0.3s0.1-0.3,0.1-0.4c0-0.2,0-0.3-0.1-0.5s-0.2-0.2-0.4-0.3c-0.2-0.1-0.4-0.1-0.7-0.1h-1.2L39.1,81.2L39.1,81.2z"/>
	<path class="st1" d="M43.2,81.8v-0.7h0.7v0.7H43.2z"/>
	<path class="st1" d="M48.7,80l0.7,0.2c-0.1,0.5-0.4,1-0.8,1.2s-0.8,0.4-1.3,0.4s-1-0.1-1.3-0.3c-0.3-0.2-0.6-0.5-0.8-1
		c-0.2-0.4-0.3-0.9-0.3-1.3c0-0.5,0.1-1,0.3-1.4s0.5-0.7,0.9-0.9c0.4-0.2,0.8-0.3,1.2-0.3c0.5,0,0.9,0.1,1.3,0.4
		c0.3,0.3,0.6,0.6,0.7,1.1l-0.7,0.2c-0.1-0.4-0.3-0.6-0.5-0.8s-0.5-0.2-0.8-0.2c-0.4,0-0.7,0.1-1,0.3c-0.3,0.2-0.4,0.4-0.5,0.7
		c-0.1,0.3-0.2,0.6-0.2,1s0.1,0.8,0.2,1.1c0.1,0.3,0.3,0.6,0.6,0.7s0.5,0.2,0.9,0.2s0.7-0.1,0.9-0.3C48.4,80.8,48.6,80.4,48.7,80z"
		/>
	<path class="st1" d="M49.9,79.3c0-0.8,0.2-1.5,0.7-2s1-0.7,1.7-0.7c0.5,0,0.9,0.1,1.3,0.3c0.4,0.2,0.7,0.5,0.8,0.9s0.3,0.8,0.3,1.3
		s-0.1,1-0.3,1.4s-0.5,0.7-0.9,0.9c-0.4,0.2-0.8,0.3-1.2,0.3c-0.5,0-0.9-0.1-1.3-0.3c-0.4-0.2-0.7-0.5-0.8-0.9S49.9,79.8,49.9,79.3z
		 M50.6,79.3c0,0.6,0.2,1.1,0.5,1.4s0.7,0.5,1.2,0.5s0.9-0.2,1.2-0.5c0.3-0.4,0.5-0.8,0.5-1.5c0-0.4-0.1-0.8-0.2-1.1
		c-0.1-0.3-0.3-0.5-0.6-0.7s-0.6-0.3-0.9-0.3c-0.5,0-0.9,0.2-1.2,0.5S50.6,78.6,50.6,79.3z"/>
	<path class="st1" d="M55.6,81.8v-5h1l1.2,3.5c0.1,0.3,0.2,0.6,0.2,0.7c0.1-0.2,0.1-0.5,0.3-0.8l1.2-3.5h0.9v5h-0.6v-4.2l-1.5,4.2
		h-0.6l-1.4-4.3v4.3h-0.7C55.6,81.7,55.6,81.8,55.6,81.8z"/>
</g>
</svg>
