<?xml version="1.0" encoding="utf-8"?>
<!-- Generator: Adobe Illustrator 22.0.0, SVG Export Plug-In . SVG Version: 6.00 Build 0)  -->
<svg version="1.1" id="图层_1" xmlns="http://www.w3.org/2000/svg" xmlns:xlink="http://www.w3.org/1999/xlink" x="0px" y="0px"
	 viewBox="0 0 88 88" style="enable-background:new 0 0 88 88;" xml:space="preserve">
<style type="text/css">
	.st0{fill:#404040;}
	.st1{fill:#FFFFFF;}
	.st2{opacity:2.000000e-02;enable-background:new    ;}
</style>
<title>BCD</title>
<circle class="st0" cx="44" cy="44" r="44"/>
<path class="st1" d="M15.2,42.2c0.3-1.6,0.5-3.2,0.9-4.8c0.6-2.6,1.6-5.1,3-7.5C23,35,26.9,40.1,30.7,45.1c1.3,1.7,1.3,1.7-0.2,3.2
	c-0.9,0.9-1.8,1.8-2.7,2.7c-0.5,0.5-0.6,0.9-0.2,1.6c1.4,2.5,3.2,4.6,5.5,6.3c0.3,0.2,0.5,0.4,0.9,0.7c-1.6,1.2-3,2.3-4.5,3.5
	c-1,0.8-2,1.5-3,2.3c-0.5,0.4-1,0.5-1.6,0c-4.4-4.1-7.4-9-8.7-14.9c-0.3-1.5-0.6-3-0.9-4.5v-3.8H15.2z M45.8,15.2
	c1.6,0.3,3.2,0.5,4.8,0.9c2.7,0.5,5.2,1.6,7.7,3c-5.9,4.2-11.6,8.3-17.5,12.5c-1.3-1.3-2.6-2.5-3.8-3.8c-0.6-0.6-1.1-0.7-1.8-0.3
	c-2.7,1.5-4.9,3.6-6.8,6.3c-0.4-0.5-0.7-0.9-1-1.2c-1.6-2.1-3.2-4.3-4.8-6.4c-0.4-0.6-0.5-0.9,0.1-1.5c4.7-5.2,10.6-8.2,17.5-9.3
	c0.7-0.1,1.3-0.2,2-0.3L45.8,15.2L45.8,15.2z M29.8,68.8c5.8-4.3,11.4-8.5,17.3-13c1.3,1.4,2.5,2.7,3.7,4.1c0.7,0.8,1.3,0.8,2.2,0.3
	c2.6-1.5,4.8-3.5,6.6-6.2c0.9,1.2,1.8,2.3,2.7,3.5c1,1.3,1.9,2.7,3,3.9c0.7,0.8,0.5,1.4-0.2,2.1c-4.5,4.8-10.1,7.8-16.6,8.9
	c-6.4,1.1-12.5-0.1-18.2-3.1C30.2,69.2,30.1,69,29.8,68.8L29.8,68.8z M54,28.3c2.7-2,5.3-3.9,7.9-5.9c0.6-0.5,0.9-0.1,1.3,0.2
	c2.6,2.4,4.8,5.1,6.4,8.3c2.3,4.5,3.4,9.4,3.1,14.5C72.5,49.9,71.3,54,69,58c-1.2-1.5-2.2-2.9-3.3-4.3c-3-3.9-6-7.9-8.9-11.8
	c-0.4-0.5-0.5-0.9,0.1-1.4c1.2-1.1,2.2-2.3,3.4-3.5c0.6-0.5,0.6-1,0.2-1.7c-1.3-2.5-3.1-4.5-5.4-6.2C54.8,28.9,54.5,28.7,54,28.3
	L54,28.3z"/>
<g class="st2">
	<path class="st1" d="M30.7,81.4v-0.6l2.6-3.2c0.2-0.2,0.4-0.4,0.5-0.6H31v-0.6h3.6v0.5l-2.8,3.5l-0.3,0.4h3.2v0.6
		C34.7,81.4,30.7,81.4,30.7,81.4z"/>
	<path class="st1" d="M35.3,81.4v-5h1.9c0.4,0,0.7,0.1,0.9,0.2c0.2,0.1,0.4,0.3,0.5,0.5s0.2,0.4,0.2,0.7c0,0.2-0.1,0.4-0.2,0.6
		c-0.1,0.2-0.3,0.3-0.5,0.5c0.3,0.1,0.5,0.2,0.7,0.5c0.2,0.2,0.2,0.5,0.2,0.8c0,0.2,0,0.5-0.1,0.7s-0.2,0.4-0.4,0.5
		c-0.2,0.1-0.3,0.2-0.5,0.2c-0.2,0.1-0.5,0.1-0.8,0.1h-1.9V81.4z M36,78.5h1.1c0.3,0,0.5,0,0.6-0.1c0.2-0.1,0.3-0.1,0.4-0.2
		c0.1-0.1,0.1-0.3,0.1-0.4c0-0.2,0-0.3-0.1-0.4s-0.2-0.2-0.3-0.3s-0.4-0.2-0.8-0.2h-1V78.5z M36,80.8h1.2c0.2,0,0.4,0,0.5,0
		c0.2,0,0.3-0.1,0.4-0.1c0.1,0,0.2-0.2,0.3-0.3s0.1-0.3,0.1-0.4c0-0.2,0-0.3-0.1-0.5s-0.2-0.2-0.4-0.3c-0.2-0.1-0.4-0.1-0.7-0.1
		h-1.2L36,80.8L36,80.8z"/>
	<path class="st1" d="M40.1,81.4v-0.7h0.7v0.7H40.1z"/>
	<path class="st1" d="M45.6,79.6l0.7,0.2c-0.1,0.5-0.4,1-0.8,1.2c-0.4,0.2-0.8,0.4-1.3,0.4s-1-0.1-1.3-0.3c-0.3-0.2-0.6-0.5-0.8-1
		c-0.2-0.4-0.3-0.9-0.3-1.3c0-0.5,0.1-1,0.3-1.4c0.2-0.4,0.5-0.7,0.9-0.9c0.4-0.2,0.8-0.3,1.2-0.3c0.5,0,0.9,0.1,1.3,0.4
		c0.3,0.3,0.6,0.6,0.7,1.1l-0.7,0.2c-0.1-0.4-0.3-0.6-0.5-0.8c-0.2-0.2-0.5-0.2-0.8-0.2c-0.4,0-0.7,0.1-1,0.3
		c-0.3,0.2-0.4,0.4-0.5,0.7c-0.1,0.3-0.2,0.6-0.2,1s0.1,0.8,0.2,1.1c0.1,0.3,0.3,0.6,0.6,0.7c0.3,0.1,0.5,0.2,0.9,0.2
		s0.7-0.1,0.9-0.3C45.3,80.4,45.5,80,45.6,79.6z"/>
	<path class="st1" d="M46.8,78.9c0-0.8,0.2-1.5,0.7-2s1-0.7,1.7-0.7c0.5,0,0.9,0.1,1.3,0.3c0.4,0.2,0.7,0.5,0.8,0.9s0.3,0.8,0.3,1.3
		s-0.1,1-0.3,1.4c-0.2,0.4-0.5,0.7-0.9,0.9c-0.4,0.2-0.8,0.3-1.2,0.3c-0.5,0-0.9-0.1-1.3-0.3c-0.4-0.2-0.7-0.5-0.8-0.9
		S46.8,79.4,46.8,78.9z M47.5,78.9c0,0.6,0.2,1.1,0.5,1.4c0.3,0.3,0.7,0.5,1.2,0.5s0.9-0.2,1.2-0.5c0.3-0.4,0.5-0.8,0.5-1.5
		c0-0.4-0.1-0.8-0.2-1.1c-0.1-0.3-0.3-0.5-0.6-0.7c-0.3-0.2-0.6-0.3-0.9-0.3c-0.5,0-0.9,0.2-1.2,0.5C47.7,77.5,47.5,78.2,47.5,78.9z
		"/>
	<path class="st1" d="M52.5,81.4v-5h1l1.2,3.5c0.1,0.3,0.2,0.6,0.2,0.7c0.1-0.2,0.1-0.5,0.3-0.8l1.2-3.5h0.9v5h-0.6v-4.2l-1.5,4.2
		h-0.6L53.2,77v4.3h-0.7C52.5,81.3,52.5,81.4,52.5,81.4z"/>
</g>
</svg>
