<?xml version="1.0" encoding="utf-8"?>
<!-- Generator: Adobe Illustrator 22.0.0, SVG Export Plug-In . SVG Version: 6.00 Build 0)  -->
<svg version="1.1" id="图层_1" xmlns="http://www.w3.org/2000/svg" xmlns:xlink="http://www.w3.org/1999/xlink" x="0px" y="0px"
	 viewBox="0 0 88 88" style="enable-background:new 0 0 88 88;" xml:space="preserve">
<style type="text/css">
	.st0{fill:url(#Oval_1_);}
	.st1{fill:#FFFFFF;enable-background:new    ;}
	.st2{opacity:5.000000e-02;enable-background:new    ;}
	.st3{fill:#FFFFFF;}
</style>
<title>zb</title>
<desc>Created with Sketch.</desc>
<linearGradient id="Oval_1_" gradientUnits="userSpaceOnUse" x1="-250.125" y1="460.1057" x2="-249.125" y2="460.1057" gradientTransform="matrix(88 0 0 -88 22011 40533.3008)">
	<stop  offset="0" style="stop-color:#832DFD"/>
	<stop  offset="1" style="stop-color:#33C1FB"/>
</linearGradient>
<circle id="Oval" class="st0" cx="44" cy="44" r="44"/>
<g>
	<path class="st1" d="M56.7,51.6c0,0,2.2,2.8,2.1,5.5c-0.1,2.7-4.1,3.2-5.1,3.2s-19,0-21.8,0s-3-2.5-3-3.6s0.2-2.1,0.6-2.8
		c0.5-0.7,10.3-11.3,12.5-13.3s6.2,1.8,6.2,1.8l4.8-5.7c-2.4-4-8-5.6-11.2-4.6C37.9,33.5,26.3,45.4,25,47.4c-1.9,2.9-3.8,3.5-3.2,11
		c0.7,7.8,8.8,8.4,10.5,8.4c1.7,0,15.7,0,23.3,0s10.5-3.6,10.7-9.2c0.1-5.9-4.3-11.2-4.3-11.2L56.7,51.6z"/>
	<path class="st1" d="M31.3,36.4c0,0-2.2-2.8-2.1-5.5c0.1-2.7,4.1-3.2,5.1-3.2s19,0,21.8,0s3,2.5,3,3.6s-0.2,2.1-0.6,2.8
		S48.2,45.4,46,47.4s-6.2-1.8-6.2-1.8L35,51.2c2.4,4,8,5.6,11.2,4.6c3.8-1.3,15.5-13.2,16.8-15.2c1.9-2.9,3.8-3.5,3.2-11
		c-0.7-7.8-8.8-8.4-10.5-8.4s-15.7,0-23.3,0s-10.5,3.6-10.7,9.2C21.5,36.2,26,41.6,26,41.6L31.3,36.4z"/>
</g>
<g class="st2">
	<path class="st3" d="M31.5,79.2v-0.6l2.6-3.2c0.2-0.2,0.4-0.4,0.5-0.6h-2.8v-0.6h3.6v0.5l-2.8,3.5l-0.3,0.4h3.2v0.6
		C35.5,79.2,31.5,79.2,31.5,79.2z"/>
	<path class="st3" d="M36.1,79.2v-5H38c0.4,0,0.7,0.1,0.9,0.2s0.4,0.3,0.5,0.5s0.2,0.4,0.2,0.7c0,0.2-0.1,0.4-0.2,0.6
		s-0.3,0.3-0.5,0.5c0.3,0.1,0.5,0.2,0.7,0.5c0.2,0.2,0.2,0.5,0.2,0.8c0,0.2,0,0.5-0.1,0.7s-0.2,0.4-0.4,0.5s-0.3,0.2-0.5,0.2
		c-0.2,0.1-0.5,0.1-0.8,0.1h-1.9V79.2z M36.8,76.3h1.1c0.3,0,0.5,0,0.6-0.1c0.2-0.1,0.3-0.1,0.4-0.2c0.1-0.1,0.1-0.3,0.1-0.4
		c0-0.2,0-0.3-0.1-0.4s-0.2-0.2-0.3-0.3s-0.4-0.2-0.8-0.2h-1V76.3z M36.8,78.6H38c0.2,0,0.4,0,0.5,0c0.2,0,0.3-0.1,0.4-0.1
		s0.2-0.2,0.3-0.3s0.1-0.3,0.1-0.4c0-0.2,0-0.3-0.1-0.5S39,77.1,38.8,77c-0.2-0.1-0.4-0.1-0.7-0.1h-1.2L36.8,78.6L36.8,78.6z"/>
	<path class="st3" d="M40.9,79.2v-0.7h0.7v0.7H40.9z"/>
	<path class="st3" d="M46.4,77.4l0.7,0.2c-0.1,0.5-0.4,1-0.8,1.2s-0.8,0.4-1.3,0.4s-1-0.1-1.3-0.3c-0.3-0.2-0.6-0.5-0.8-1
		c-0.2-0.4-0.3-0.9-0.3-1.3c0-0.5,0.1-1,0.3-1.4s0.5-0.7,0.9-0.9c0.4-0.2,0.8-0.3,1.2-0.3c0.5,0,0.9,0.1,1.3,0.4
		c0.3,0.3,0.6,0.6,0.7,1.1l-0.7,0.2c-0.1-0.4-0.3-0.6-0.5-0.8s-0.5-0.2-0.8-0.2c-0.4,0-0.7,0.1-1,0.3c-0.3,0.2-0.4,0.4-0.5,0.7
		c-0.1,0.3-0.2,0.6-0.2,1s0.1,0.8,0.2,1.1c0.1,0.3,0.3,0.6,0.6,0.7s0.5,0.2,0.9,0.2s0.7-0.1,0.9-0.3C46.1,78.2,46.3,77.8,46.4,77.4z
		"/>
	<path class="st3" d="M47.6,76.7c0-0.8,0.2-1.5,0.7-2s1-0.7,1.7-0.7c0.5,0,0.9,0.1,1.3,0.3c0.4,0.2,0.7,0.5,0.8,0.9s0.3,0.8,0.3,1.3
		s-0.1,1-0.3,1.4s-0.5,0.7-0.9,0.9c-0.4,0.2-0.8,0.3-1.2,0.3c-0.5,0-0.9-0.1-1.3-0.3c-0.4-0.2-0.7-0.5-0.8-0.9S47.6,77.2,47.6,76.7z
		 M48.3,76.7c0,0.6,0.2,1.1,0.5,1.4s0.7,0.5,1.2,0.5s0.9-0.2,1.2-0.5c0.3-0.4,0.5-0.8,0.5-1.5c0-0.4-0.1-0.8-0.2-1.1
		c-0.1-0.3-0.3-0.5-0.6-0.7s-0.6-0.3-0.9-0.3c-0.5,0-0.9,0.2-1.2,0.5S48.3,76,48.3,76.7z"/>
	<path class="st3" d="M53.3,79.2v-5h1l1.2,3.5c0.1,0.3,0.2,0.6,0.2,0.7c0.1-0.2,0.1-0.5,0.3-0.8l1.2-3.5h0.9v5h-0.6v-4.2L56,79.1
		h-0.6L54,74.8v4.3h-0.7C53.3,79.1,53.3,79.2,53.3,79.2z"/>
</g>
</svg>
