<svg xmlns="http://www.w3.org/2000/svg" xmlns:xlink="http://www.w3.org/1999/xlink" viewBox="0 0 132 132"><defs><style>.cls-1{fill:url(#未命名的渐变);}.cls-2{fill:#fff;}</style><linearGradient id="未命名的渐变" x1="-1245.98" y1="1581.33" x2="-1245.98" y2="1580.33" gradientTransform="matrix(132, 0, 0, -132, 164536, 208736)" gradientUnits="userSpaceOnUse"><stop offset="0" stop-color="#1bd3fd"/><stop offset="1" stop-color="#1c68f1"/></linearGradient></defs><title>资源 3</title><g id="图层_2" data-name="图层 2"><g id="图层_1-2" data-name="图层 1"><g id="Artboard"><g id="聊天消息-copy-2"><path id="Shape" class="cls-1" d="M66,0a66,66,0,1,0,66,66A66,66,0,0,0,66,0Z"/><path id="Shape-2" data-name="Shape" class="cls-2" d="M63.55,34C46.11,34,32,46.18,32,61.2c0,9.22,5.39,17.41,13.54,22.42V92a1.71,1.71,0,0,0,1.72,1.82,2.11,2.11,0,0,0,.92-.23l8.6-5.69a31.87,31.87,0,0,0,6.66.57C80.88,88.51,95,76.33,95,61.31S81,34,63.55,34Zm0,50a34.09,34.09,0,0,1-5.85-.57l-.92-.23a2.41,2.41,0,0,0-1.72.34l-.8.57-4.13,2.74V82.37A2.2,2.2,0,0,0,49,80.43l-1.15-.68C40.72,75.54,36.48,68.6,36.48,61.31c0-12.52,12-22.64,27-22.64s27,10.12,27,22.64S78.35,84,63.55,84ZM45.65,62a3.79,3.79,0,1,0,3.79-3.76A3.77,3.77,0,0,0,45.65,62ZM60,62a3.79,3.79,0,1,0,3.78-3.76A3.76,3.76,0,0,0,60,62Zm13.88,0a3.79,3.79,0,1,0,3.78-3.76A3.76,3.76,0,0,0,73.88,62Zm21.73,5.88-.21-.26A26.14,26.14,0,0,1,93.32,73a1.92,1.92,0,0,0,.12.25,10.9,10.9,0,0,1,.92,4.39A12.22,12.22,0,0,1,88,88l-.64.38a1.23,1.23,0,0,0-.65,1.09v2.49L84.37,90.4l-.45-.32a1.32,1.32,0,0,0-1-.19l-.51.13a19.37,19.37,0,0,1-3.29.31,17.12,17.12,0,0,1-7.26-1.58,37.11,37.11,0,0,1-6.66.92,21.5,21.5,0,0,0,14,5,20.68,20.68,0,0,0,4.19-.35l5.42,3.58a1.37,1.37,0,0,0,.57.14,1.08,1.08,0,0,0,1.09-1.14V91.55C95.6,88.4,99,83.24,99,77.44A15.42,15.42,0,0,0,95.61,67.88Z"/></g></g></g></g></svg>