<?xml version="1.0" encoding="iso-8859-1"?>
<!-- Generator: Adobe Illustrator 19.0.0, SVG Export Plug-In . SVG Version: 6.00 Build 0)  -->
<svg version="1.1" id="Capa_1" xmlns="http://www.w3.org/2000/svg" xmlns:xlink="http://www.w3.org/1999/xlink" x="0px" y="0px"
	 viewBox="0 0 512.001 512.001" style="enable-background:new 0 0 512.001 512.001;" xml:space="preserve">
<path style="fill:#3A4D51;" d="M167.478,511.816c-46.294,0-83.957-37.091-83.957-82.68V225.294c0-4.146,3.359-7.505,7.505-7.505
	s7.505,3.359,7.505,7.505v203.842c0,37.313,30.928,67.669,68.946,67.669c38.017,0,68.946-30.356,68.946-67.669V89.542
	c0-49.272,40.71-89.358,90.748-89.358c50.039,0,90.749,40.086,90.749,89.358V225.5c0,4.146-3.359,7.505-7.505,7.505
	s-7.505-3.359-7.505-7.505V89.542c0-40.995-33.975-74.347-75.737-74.347c-41.761,0-75.738,33.352-75.738,74.347v339.595
	C251.434,474.726,213.771,511.816,167.478,511.816z"/>
<path style="fill:#FFD039;" d="M180.731,124.82L97.21,3.436c-1.4-2.035-3.713-3.251-6.183-3.251S86.244,1.4,84.843,3.436
	L1.323,124.82c-1.669,2.426-1.766,5.604-0.246,8.127l35.025,58.146c1.359,2.255,3.798,3.633,6.43,3.633h96.991
	c2.632,0,5.071-1.378,6.43-3.633l35.024-58.146C182.496,130.423,182.4,127.245,180.731,124.82z M91.027,100.418
	c8.005,0,14.494,6.402,14.494,14.298s-6.489,14.298-14.494,14.298s-14.494-6.402-14.494-14.298S83.022,100.418,91.027,100.418z"/>
<path style="fill:#FFA304;" d="M180.731,124.82L97.21,3.436c-1.4-2.035-3.713-3.251-6.183-3.251S86.244,1.4,84.843,3.436
	L73.962,19.249l75.567,109.825l-39.546,65.652h29.539c2.632,0,5.071-1.378,6.43-3.633l35.024-58.146
	C182.496,130.423,182.4,127.245,180.731,124.82z"/>
<path style="fill:#E89842;" d="M89.943,0.271c-0.21,0.031-0.418,0.068-0.623,0.116c-0.079,0.019-0.158,0.04-0.236,0.061
	c-0.203,0.054-0.403,0.117-0.601,0.188c-0.069,0.025-0.138,0.049-0.206,0.075c-0.224,0.088-0.442,0.187-0.656,0.296
	c-0.035,0.018-0.072,0.033-0.106,0.051c-0.25,0.133-0.493,0.279-0.728,0.439c-0.038,0.026-0.074,0.057-0.112,0.084
	c-0.185,0.132-0.365,0.272-0.538,0.421c-0.067,0.058-0.132,0.118-0.197,0.179c-0.144,0.133-0.282,0.271-0.416,0.416
	c-0.059,0.064-0.119,0.127-0.176,0.194c-0.157,0.183-0.307,0.373-0.448,0.572c-0.025,0.037-0.056,0.072-0.081,0.11l-0.02,0.029
	c-0.805,1.196-1.275,2.635-1.275,4.185v94.812c2.192-1.314,4.754-2.084,7.505-2.084s5.314,0.771,7.505,2.084V7.69
	c0-1.549-0.469-2.988-1.274-4.184l-0.02-0.029c-0.026-0.038-0.056-0.073-0.083-0.111c-0.141-0.199-0.29-0.389-0.448-0.572
	c-0.057-0.066-0.117-0.13-0.176-0.194c-0.133-0.145-0.272-0.283-0.416-0.416c-0.065-0.06-0.129-0.121-0.197-0.179
	c-0.173-0.149-0.353-0.289-0.538-0.421c-0.038-0.027-0.073-0.057-0.112-0.084c-0.234-0.16-0.477-0.307-0.728-0.439
	c-0.033-0.018-0.07-0.033-0.104-0.051c-0.214-0.109-0.433-0.208-0.657-0.296c-0.068-0.027-0.137-0.05-0.206-0.075
	c-0.197-0.071-0.397-0.134-0.601-0.188c-0.078-0.021-0.157-0.042-0.236-0.061c-0.205-0.048-0.413-0.085-0.623-0.116
	c-0.075-0.011-0.149-0.026-0.226-0.034c-0.283-0.032-0.569-0.052-0.858-0.052c-0.288,0-0.575,0.02-0.858,0.052
	C90.093,0.245,90.018,0.26,89.943,0.271z"/>
<path style="fill:#CE843C;" d="M89.944,0.27c-0.181,0.027-0.361,0.061-0.539,0.1c-0.028,0.006-0.057,0.009-0.086,0.016
	c-0.079,0.019-0.158,0.04-0.236,0.061c-0.185,0.049-0.367,0.108-0.546,0.171c-0.018,0.006-0.037,0.011-0.054,0.017
	c-0.069,0.025-0.138,0.048-0.205,0.075c-0.16,0.063-0.314,0.138-0.469,0.212c-0.062,0.03-0.127,0.054-0.188,0.085
	c-0.035,0.018-0.071,0.033-0.106,0.051c-0.25,0.133-0.493,0.28-0.728,0.44c-0.038,0.026-0.074,0.056-0.112,0.084
	c-0.15,0.107-0.294,0.223-0.436,0.341c-0.034,0.028-0.07,0.052-0.103,0.08c-0.067,0.058-0.131,0.118-0.196,0.178
	c-0.144,0.133-0.282,0.271-0.416,0.416c-0.059,0.064-0.119,0.127-0.176,0.194c-0.158,0.183-0.308,0.374-0.449,0.574
	C84.87,3.405,84.84,3.44,84.815,3.477l-0.01,0.015l-0.01,0.015c-0.804,1.195-1.274,2.634-1.274,4.183v25.452l15.011,21.816V7.69
	c0-1.549-0.469-2.988-1.274-4.184l-0.01-0.015l-0.01-0.015c-0.025-0.037-0.055-0.072-0.081-0.109
	c-0.141-0.2-0.291-0.391-0.449-0.574c-0.057-0.066-0.117-0.13-0.176-0.194c-0.133-0.145-0.272-0.283-0.416-0.416
	c-0.065-0.06-0.129-0.121-0.196-0.178c-0.033-0.028-0.069-0.053-0.103-0.08C95.674,1.806,95.53,1.69,95.38,1.582
	c-0.038-0.027-0.073-0.057-0.112-0.084c-0.153-0.105-0.316-0.195-0.477-0.289c-0.084-0.049-0.164-0.105-0.25-0.151
	c-0.034-0.018-0.069-0.032-0.103-0.049c-0.138-0.071-0.282-0.13-0.424-0.192c-0.079-0.034-0.155-0.075-0.235-0.106
	c-0.067-0.027-0.137-0.05-0.205-0.075c-0.052-0.018-0.105-0.032-0.157-0.049c-0.147-0.049-0.294-0.099-0.444-0.139
	c-0.078-0.021-0.157-0.042-0.236-0.061c-0.028-0.007-0.057-0.01-0.085-0.016c-0.178-0.039-0.358-0.073-0.539-0.1
	c-0.075-0.01-0.149-0.026-0.224-0.034c-0.283-0.032-0.569-0.052-0.859-0.052s-0.575,0.02-0.859,0.052
	C90.093,0.245,90.019,0.26,89.944,0.27z"/>
<path style="fill:#546F7A;" d="M154.289,179.708H27.766c-4.146,0-7.505,3.359-7.505,7.505v38.081c0,4.146,3.359,7.505,7.505,7.505
	h126.523c4.146,0,7.505-3.359,7.505-7.505v-38.081C161.794,183.068,158.435,179.708,154.289,179.708z"/>
<path style="fill:#475D63;" d="M154.289,179.708H129.27v53.092h25.018c4.146,0,7.505-3.359,7.505-7.505v-38.081
	C161.794,183.068,158.435,179.708,154.289,179.708z"/>
<path style="fill:#E0E0E2;" d="M409.18,217.995c-56.696,0-102.822,46.126-102.822,102.821v88.009
	c0,56.695,46.126,102.821,102.822,102.821c56.695,0,102.821-46.126,102.821-102.821v-88.009
	C512.001,264.12,465.875,217.995,409.18,217.995z"/>
<path style="fill:#C6C5CA;" d="M409.18,217.995c-5.554,0-11.005,0.449-16.323,1.301c48.966,7.844,86.498,50.379,86.498,101.52
	v88.009c0,51.141-37.532,93.676-86.498,101.52c5.318,0.852,10.768,1.301,16.323,1.301c56.695,0,102.821-46.126,102.821-102.821
	v-88.009C512.001,264.12,465.875,217.995,409.18,217.995z"/>
<path style="fill:#546F7A;" d="M409.413,255.354h-0.467c-13.566,0-24.602,11.036-24.602,24.602v22.888
	c0,13.566,11.036,24.602,24.602,24.602h0.467c13.566,0,24.602-11.036,24.602-24.602v-22.888
	C434.015,266.39,422.979,255.354,409.413,255.354z"/>
<g>
</g>
<g>
</g>
<g>
</g>
<g>
</g>
<g>
</g>
<g>
</g>
<g>
</g>
<g>
</g>
<g>
</g>
<g>
</g>
<g>
</g>
<g>
</g>
<g>
</g>
<g>
</g>
<g>
</g>
</svg>
