<?xml version="1.0" encoding="iso-8859-1"?>
<!-- Generator: Adobe Illustrator 19.0.0, SVG Export Plug-In . SVG Version: 6.00 Build 0)  -->
<svg version="1.1" id="Capa_1" xmlns="http://www.w3.org/2000/svg" xmlns:xlink="http://www.w3.org/1999/xlink" x="0px" y="0px"
	 viewBox="0 0 512 512" style="enable-background:new 0 0 512 512;" xml:space="preserve">
<rect x="55.248" y="263.24" style="fill:#E0E0E0;" width="401.51" height="175.343"/>
<rect x="424.201" y="263.24" style="fill:#C6C5CA;" width="32.547" height="175.343"/>
<path style="fill:#39A4FA;" d="M456.752,423.567H55.244v80.922c0,4.148,3.363,7.511,7.511,7.511h386.486
	c4.148,0,7.511-3.363,7.511-7.511V423.567z"/>
<g>
	<path style="fill:#FFD039;" d="M173.488,300.466h-56.334c-4.149,0-7.511,3.362-7.511,7.511v56.334c0,4.149,3.362,7.511,7.511,7.511
		h56.334c4.149,0,7.511-3.362,7.511-7.511v-56.334C180.999,303.829,177.636,300.466,173.488,300.466z"/>
	<path style="fill:#FFD039;" d="M284.165,300.466h-56.334c-4.149,0-7.511,3.362-7.511,7.511v56.334c0,4.149,3.362,7.511,7.511,7.511
		h56.334c4.149,0,7.511-3.362,7.511-7.511v-56.334C291.676,303.829,288.314,300.466,284.165,300.466z"/>
	<path style="fill:#FFD039;" d="M394.844,300.466h-56.334c-4.149,0-7.511,3.362-7.511,7.511v56.334c0,4.149,3.362,7.511,7.511,7.511
		h56.334c4.149,0,7.511-3.362,7.511-7.511v-56.334C402.354,303.829,398.992,300.466,394.844,300.466z"/>
</g>
<path style="fill:#0091E2;" d="M424.205,512h25.036c4.148,0,7.511-3.363,7.511-7.511v-80.922h-32.547V512z"/>
<g>
	<path style="fill:#3A4D51;" d="M173.488,398.476h-56.334c-4.149,0-7.511-3.362-7.511-7.511s3.362-7.511,7.511-7.511h56.334
		c4.149,0,7.511,3.362,7.511,7.511S177.636,398.476,173.488,398.476z"/>
	<path style="fill:#3A4D51;" d="M284.165,398.476h-56.334c-4.149,0-7.511-3.362-7.511-7.511s3.362-7.511,7.511-7.511h56.334
		c4.149,0,7.511,3.362,7.511,7.511S288.314,398.476,284.165,398.476z"/>
	<path style="fill:#3A4D51;" d="M394.844,398.476h-56.334c-4.149,0-7.511-3.362-7.511-7.511s3.362-7.511,7.511-7.511h56.334
		c4.149,0,7.511,3.362,7.511,7.511S398.992,398.476,394.844,398.476z"/>
	<path style="fill:#3A4D51;" d="M156.036,475.294h-45.933c-4.149,0-7.511-3.363-7.511-7.511c0-4.149,3.362-7.511,7.511-7.511h45.933
		c4.149,0,7.511,3.362,7.511,7.511C163.547,471.932,160.185,475.294,156.036,475.294z"/>
	<path style="fill:#3A4D51;" d="M237.989,475.294h-45.934c-4.149,0-7.511-3.363-7.511-7.511c0-4.149,3.362-7.511,7.511-7.511h45.934
		c4.149,0,7.511,3.362,7.511,7.511C245.5,471.932,242.138,475.294,237.989,475.294z"/>
	<path style="fill:#3A4D51;" d="M319.942,475.294h-45.934c-4.149,0-7.511-3.363-7.511-7.511c0-4.149,3.362-7.511,7.511-7.511h45.934
		c4.148,0,7.511,3.362,7.511,7.511C327.453,471.932,324.09,475.294,319.942,475.294z"/>
	<path style="fill:#3A4D51;" d="M401.895,475.294h-45.933c-4.149,0-7.511-3.363-7.511-7.511c0-4.149,3.362-7.511,7.511-7.511h45.933
		c4.149,0,7.511,3.362,7.511,7.511C409.406,471.932,406.043,475.294,401.895,475.294z"/>
</g>
<rect x="55.248" y="31.689" style="fill:#E0E0E0;" width="401.51" height="99.774"/>
<path style="fill:#546F7A;" d="M449.241,0H62.755c-4.148,0-7.511,3.363-7.511,7.511v39.201h401.508V7.511
	C456.752,3.363,453.389,0,449.241,0z"/>
<rect x="424.201" y="31.689" style="fill:#C6C5CA;" width="32.547" height="99.774"/>
<path style="fill:#475D63;" d="M449.241,0h-25.036v46.711h32.547V7.511C456.752,3.363,453.389,0,449.241,0z"/>
<path style="fill:#3A4D51;" d="M324.439,89.088H187.557c-4.149,0-7.511-3.362-7.511-7.511s3.362-7.511,7.511-7.511H324.44
	c4.149,0,7.511,3.362,7.511,7.511C331.95,85.726,328.588,89.088,324.439,89.088z"/>
<rect x="55.248" y="116.438" style="fill:#FF434D;" width="401.51" height="161.824"/>
<rect x="424.201" y="116.438" style="fill:#DD3646;" width="32.547" height="161.824"/>
<path style="fill:#931F25;" d="M451.908,263.734l-174.756-66.38l174.756-66.38c3.878-1.474,5.827-5.811,4.355-9.689
	c-1.475-3.88-5.818-5.822-9.689-4.355l-190.576,72.389L65.423,116.931c-3.877-1.468-8.214,0.476-9.689,4.355
	c-1.473,3.878,0.478,8.215,4.355,9.689l174.756,66.38L60.088,263.734c-3.878,1.474-5.827,5.811-4.355,9.689
	c1.141,3,3.994,4.846,7.023,4.846c0.887,0,1.789-0.158,2.666-0.491l190.576-72.389l190.576,72.389
	c0.878,0.332,1.779,0.491,2.666,0.491c3.028,0,5.882-1.846,7.023-4.846C457.736,269.544,455.786,265.207,451.908,263.734z"/>
<g>
</g>
<g>
</g>
<g>
</g>
<g>
</g>
<g>
</g>
<g>
</g>
<g>
</g>
<g>
</g>
<g>
</g>
<g>
</g>
<g>
</g>
<g>
</g>
<g>
</g>
<g>
</g>
<g>
</g>
</svg>
