<?xml version="1.0" encoding="iso-8859-1"?>
<!-- Generator: Adobe Illustrator 19.0.0, SVG Export Plug-In . SVG Version: 6.00 Build 0)  -->
<svg version="1.1" id="Capa_1" xmlns="http://www.w3.org/2000/svg" xmlns:xlink="http://www.w3.org/1999/xlink" x="0px" y="0px"
	 viewBox="0 0 512 512" style="enable-background:new 0 0 512 512;" xml:space="preserve">
<path style="fill:#E0E0E0;" d="M185.25,183.469c0.744,54.918,28.577,103.288,70.75,132.356
	c42.174-29.07,70.006-77.438,70.75-132.356c-21.408-10.3-45.404-16.072-70.75-16.072
	C230.654,167.397,206.658,173.169,185.25,183.469z"/>
<path style="fill:#8B41F7;" d="M185.221,181.212c0,0.754,0.018,1.504,0.029,2.256c21.408-10.3,45.404-16.072,70.75-16.072
	s49.342,5.772,70.75,16.072c0.01-0.752,0.029-1.502,0.029-2.256c0-55.849-28.029-105.146-70.779-134.613
	C213.25,76.068,185.221,125.363,185.221,181.212z"/>
<path style="fill:#FF6137;" d="M256,315.826c-42.174-29.07-70.006-77.438-70.75-132.356c-54.172,26.064-91.744,81.13-92.611,145.061
	c21.408,10.3,45.404,16.072,70.75,16.072C197.778,344.602,229.677,333.97,256,315.826z"/>
<path id="SVGCleanerId_0" style="fill:#39A4FA;" d="M512,181.212c0-90.237-73.152-163.389-163.389-163.389
	c-34.388,0-66.288,10.633-92.611,28.777c42.751,29.468,70.779,78.763,70.779,134.613c0,0.754-0.018,1.504-0.029,2.256
	c54.172,26.064,91.744,81.13,92.611,145.061C474.17,302.16,512,246.105,512,181.212z"/>
<g>
	<path id="SVGCleanerId_0_1_" style="fill:#39A4FA;" d="M512,181.212c0-90.237-73.152-163.389-163.389-163.389
		c-34.388,0-66.288,10.633-92.611,28.777c42.751,29.468,70.779,78.763,70.779,134.613c0,0.754-0.018,1.504-0.029,2.256
		c54.172,26.064,91.744,81.13,92.611,145.061C474.17,302.16,512,246.105,512,181.212z"/>
</g>
<path style="fill:#0091E2;" d="M348.611,17.823c-4.331,0-8.623,0.17-12.869,0.501c84.233,6.55,150.545,76.974,150.545,162.888
	c0,54.549-26.738,102.848-67.816,132.524c0.506,4.873,0.823,9.803,0.89,14.794C474.17,302.16,512,246.105,512,181.212
	C512,90.975,438.849,17.823,348.611,17.823z"/>
<path style="fill:#FFD039;" d="M185.25,183.469c-0.01-0.752-0.029-1.502-0.029-2.256c0-55.849,28.029-105.146,70.779-134.613
	c-26.323-18.144-58.222-28.777-92.611-28.777C73.152,17.823,0,90.975,0,181.212c0,64.892,37.83,120.948,92.639,147.318
	C93.506,264.598,131.078,209.533,185.25,183.469z"/>
<path style="fill:#FF434D;" d="M256,315.826c-26.323,18.144-58.222,28.777-92.611,28.777c-25.346,0-49.342-5.772-70.75-16.072
	c-0.01,0.752-0.029,1.501-0.029,2.256c0,90.238,73.152,163.39,163.39,163.39s163.389-73.152,163.389-163.39
	c0-0.754-0.018-1.504-0.029-2.256c-21.408,10.3-45.404,16.072-70.75,16.072C314.223,344.602,282.323,333.97,256,315.826z"/>
<path style="fill:#DD3646;" d="M419.361,328.531c-8.259,3.974-16.907,7.265-25.866,9.819
	c-3.758,82.447-68.611,148.961-150.352,155.324c4.242,0.33,8.529,0.502,12.857,0.502c90.238,0,163.389-73.152,163.389-163.39
	C419.39,330.032,419.371,329.283,419.361,328.531z"/>
<path style="fill:#00B76C;" d="M326.75,183.469c-0.744,54.918-28.577,103.288-70.75,132.356
	c26.323,18.144,58.222,28.777,92.611,28.777c25.346,0,49.342-5.772,70.75-16.072C418.494,264.598,380.923,209.533,326.75,183.469z"
	/>
<g>
</g>
<g>
</g>
<g>
</g>
<g>
</g>
<g>
</g>
<g>
</g>
<g>
</g>
<g>
</g>
<g>
</g>
<g>
</g>
<g>
</g>
<g>
</g>
<g>
</g>
<g>
</g>
<g>
</g>
</svg>
