<?xml version="1.0" encoding="iso-8859-1"?>
<!-- Generator: Adobe Illustrator 19.0.0, SVG Export Plug-In . SVG Version: 6.00 Build 0)  -->
<svg version="1.1" id="Capa_1" xmlns="http://www.w3.org/2000/svg" xmlns:xlink="http://www.w3.org/1999/xlink" x="0px" y="0px"
	 viewBox="0 0 512 512" style="enable-background:new 0 0 512 512;" xml:space="preserve">
<path style="fill:#FFC89F;" d="M294.943,90.079c0-1.102-0.228-2.206-0.718-3.231l-31.465-65.802c-1.245-2.603-3.874-4.26-6.758-4.26
	c-2.885,0-5.514,1.656-6.758,4.26l-31.466,65.802c-0.49,1.025-0.718,2.13-0.718,3.231H294.943z"/>
<path style="fill:#39A4FA;" d="M504.509,147.802H7.491c-4.137,0-7.491,3.353-7.491,7.491v332.431c0,4.138,3.354,7.491,7.491,7.491
	h497.017c4.137,0,7.492-3.353,7.492-7.491V155.293C512,151.156,508.646,147.802,504.509,147.802z"/>
<path style="fill:#0091E2;" d="M504.509,147.802H476.54v347.414h27.968c4.137,0,7.492-3.353,7.492-7.491V155.293
	C512,151.156,508.646,147.802,504.509,147.802z"/>
<path style="fill:#BFBFBF;" d="M469.465,118.902h-139.15c-15.712,0-31.509,3.101-45.683,8.969c-2.8,1.159-28.633,12.52-28.633,12.52
	l0.163,232.96c-0.055,0-0.163,77.398-0.163,77.398c0.054,0.001,0.108,0.008,0.162,0.008c1.929,0,3.828-0.745,5.257-2.153
	c17.271-16.999,42.383-26.748,68.898-26.748h139.149c4.137,0,7.491-3.353,7.491-7.491V126.394
	C476.957,122.256,473.603,118.902,469.465,118.902z"/>
<path style="fill:#E0E0E0;" d="M256,373.351v-232.96c0,0-25.844-11.507-28.655-12.661c-14.082-5.774-29.758-8.828-45.334-8.828
	H42.861c-4.137,0-7.491,3.353-7.491,7.491v287.972c0,4.138,3.354,7.491,7.491,7.491H182.01c26.515,0,51.627,9.75,68.898,26.748
	c1.388,1.367,3.219,2.104,5.092,2.145L256,373.351L256,373.351z"/>
<path style="fill:#BFBFBF;" d="M256,432.992c-19.67-16.67-46.226-26.119-73.99-26.119H42.861c-4.12,0-7.467,3.327-7.491,7.447
	l-0.164,27.462c-0.012,1.995,0.772,3.912,2.179,5.326c1.406,1.415,3.318,2.211,5.313,2.211h139.15
	c26.515,0,51.627,9.749,68.898,26.748c1.429,1.406,3.326,2.152,5.255,2.152V432.992z"/>
<path style="fill:#919191;" d="M476.63,414.32c-0.025-4.119-3.371-7.447-7.491-7.447H329.99c-27.763,0-54.32,9.449-73.99,26.119
	v45.226c1.929,0,3.827-0.745,5.255-2.153c17.27-16.999,42.383-26.747,68.898-26.747h139.149c1.995,0,3.907-0.795,5.313-2.211
	c1.406-1.414,2.19-3.331,2.179-5.326L476.63,414.32z"/>
<path style="fill:#F7B081;" d="M262.495,90.079h32.448c0-1.102-0.228-2.206-0.718-3.231l-31.465-65.802
	c-1.245-2.603-3.874-4.26-6.758-4.26c-2.885,0-5.514,1.656-6.758,4.26l-9.88,20.66L262.495,90.079z"/>
<path style="fill:#39A4FA;" d="M414.478,172.928h-68.659c-4.137,0-7.491,3.353-7.491,7.491v68.659c0,4.138,3.354,7.491,7.491,7.491
	h68.659c4.137,0,7.491-3.353,7.491-7.491v-68.659C421.969,176.281,418.615,172.928,414.478,172.928z"/>
<path style="fill:#FF434D;" d="M168.728,289.901h-68.659c-4.137,0-7.491,3.353-7.491,7.491v68.659c0,4.138,3.354,7.491,7.491,7.491
	h68.659c4.137,0,7.491-3.353,7.491-7.491v-68.659C176.22,293.254,172.866,289.901,168.728,289.901z"/>
<path style="fill:#FFD039;" d="M134.398,163.075c-26.976,0-48.923,21.947-48.923,48.924c0,26.976,21.947,48.923,48.923,48.923
	s48.923-21.947,48.923-48.923C183.322,185.022,161.376,163.075,134.398,163.075z"/>
<path style="fill:#00B76C;" d="M437.021,366.17l-50.61-77.119c-1.385-2.11-3.74-3.381-6.263-3.381c-2.524,0-4.878,1.271-6.264,3.381
	l-50.61,77.119c-1.51,2.302-1.637,5.247-0.329,7.669c1.307,2.423,3.839,3.934,6.592,3.934h101.22c2.753,0,5.284-1.51,6.593-3.934
	C438.658,371.417,438.532,368.473,437.021,366.17z"/>
<path style="fill:#FFD039;" d="M217.042,90.079L217.042,90.079v213.278c0,4.138,3.354,7.491,7.491,7.491h62.964
	c4.137,0,7.491-3.353,7.491-7.491V90.079v-0.001L217.042,90.079L217.042,90.079z"/>
<path style="fill:#FFAE47;" d="M262.527,90.079v220.769h24.972c4.137,0,7.491-3.353,7.491-7.491V90.079v-0.001L262.527,90.079
	L262.527,90.079z"/>
<path style="fill:#3C5156;" d="M282.571,62.477l-19.813-41.432c-1.245-2.603-3.874-4.26-6.758-4.26c-2.885,0-5.514,1.656-6.758,4.26
	l-19.812,41.432H282.571z"/>
<path style="fill:#304144;" d="M249.296,62.477h33.275l-19.813-41.432c-1.245-2.603-3.874-4.26-6.758-4.26
	c-2.885,0-5.514,1.656-6.758,4.26l-9.88,20.66L249.296,62.477z"/>
<path style="fill:#546F7A;" d="M294.99,329.947h-77.98v35.696c0,12.532,10.158,22.69,22.69,22.69h32.6
	c12.532,0,22.69-10.159,22.69-22.69V329.947z"/>
<path style="fill:#475D63;" d="M262.527,329.947v35.696c0,12.532-10.158,22.69-22.69,22.69h32.463
	c12.532,0,22.69-10.158,22.69-22.69v-35.696H262.527z"/>
<rect x="217.013" y="295.864" style="fill:#FF6137;" width="77.981" height="49.064"/>
<rect x="262.522" y="295.864" style="fill:#E04F32;" width="32.463" height="49.064"/>
<g>
</g>
<g>
</g>
<g>
</g>
<g>
</g>
<g>
</g>
<g>
</g>
<g>
</g>
<g>
</g>
<g>
</g>
<g>
</g>
<g>
</g>
<g>
</g>
<g>
</g>
<g>
</g>
<g>
</g>
</svg>
