<?xml version="1.0" encoding="iso-8859-1"?>
<!-- Generator: Adobe Illustrator 19.0.0, SVG Export Plug-In . SVG Version: 6.00 Build 0)  -->
<svg version="1.1" id="Capa_1" xmlns="http://www.w3.org/2000/svg" xmlns:xlink="http://www.w3.org/1999/xlink" x="0px" y="0px"
	 viewBox="0 0 512 512" style="enable-background:new 0 0 512 512;" xml:space="preserve">
<path style="fill:#DD3646;" d="M360.446,393.888l-55.891-9.516c-0.418-0.072-0.839-0.096-1.257-0.095v102.196l0,0
	c0.418,0,0.839-0.035,1.257-0.106l55.891-9.516c3.6-0.612,6.232-3.732,6.232-7.382v-68.196
	C366.678,397.62,364.045,394.5,360.446,393.888z"/>
<path style="fill:#FF434D;" d="M303.297,384.274c-0.172,0-0.342-0.003-0.514,0.009L30.141,403.078
	C13.24,404.243,0,418.427,0,435.369c0,16.941,13.24,31.126,30.141,32.292l272.641,18.795c0.172,0.012,0.343,0.018,0.514,0.018
	L303.297,384.274L303.297,384.274z"/>
<path style="fill:#DD3646;" d="M30.141,435.207c-11.03-0.761-20.497-7.068-25.746-16.066C1.601,423.931,0,429.482,0,435.369
	c0,16.941,13.24,31.126,30.141,32.292l272.641,18.795c0.172,0.012,0.343,0.018,0.514,0.018v-32.453
	c-0.171,0-0.344-0.006-0.514-0.018L30.141,435.207z"/>
<path style="fill:#FFD039;" d="M507.98,428.151l-73.915-44.413c-2.241-1.348-5.026-1.427-7.343-0.209l-35.408,18.624
	c-2.461,1.295-4.003,3.847-4.003,6.628v51.576c0,2.781,1.541,5.333,4.003,6.628l35.408,18.625c1.093,0.575,2.291,0.861,3.486,0.861
	c1.337,0,2.673-0.357,3.856-1.069l73.915-44.412c2.254-1.353,3.633-3.79,3.633-6.42S510.234,429.505,507.98,428.151z
	 M447.657,434.571c0,4.875-3.898,8.826-8.707,8.826s-8.707-3.951-8.707-8.826s3.898-8.826,8.707-8.826
	S447.657,429.696,447.657,434.571z"/>
<path style="fill:#FFAE47;" d="M430.207,486.473c1.337,0,2.673-0.357,3.856-1.069l73.915-44.412c2.254-1.353,3.633-3.79,3.633-6.42
	c0-2.629-1.379-5.066-3.633-6.42l-17.36-10.431l-60.413,36.299l-42.897-22.564v28.903c0,2.781,1.541,5.333,4.003,6.628
	l35.408,18.625C427.814,486.187,429.012,486.473,430.207,486.473z"/>
<path style="fill:#E89842;" d="M511.518,433.442c-0.034-0.225-0.078-0.447-0.132-0.666c-0.019-0.074-0.037-0.148-0.057-0.222
	c-0.071-0.254-0.154-0.503-0.251-0.748c-0.011-0.027-0.019-0.055-0.03-0.081c-0.114-0.277-0.245-0.545-0.39-0.807
	c-0.025-0.045-0.054-0.087-0.08-0.131c-0.121-0.206-0.252-0.405-0.391-0.599c-0.048-0.067-0.098-0.133-0.148-0.198
	c-0.142-0.184-0.293-0.359-0.451-0.529c-0.042-0.044-0.081-0.092-0.123-0.136c-0.203-0.207-0.418-0.401-0.646-0.585
	c-0.046-0.037-0.095-0.07-0.141-0.106c-0.193-0.148-0.393-0.288-0.602-0.417c-1.148-0.716-2.5-1.136-3.953-1.136h-60.582
	c2.467,1.558,4.115,4.325,4.115,7.489s-1.648,5.931-4.116,7.489h60.583c1.453,0,2.805-0.42,3.953-1.136
	c0.209-0.13,0.409-0.27,0.602-0.417c0.047-0.036,0.096-0.069,0.141-0.106c0.228-0.184,0.443-0.378,0.646-0.585
	c0.043-0.043,0.081-0.09,0.122-0.135c0.159-0.17,0.311-0.346,0.452-0.53c0.051-0.065,0.1-0.131,0.148-0.198
	c0.14-0.194,0.271-0.393,0.391-0.599c0.026-0.044,0.055-0.086,0.08-0.131c0.146-0.261,0.277-0.529,0.39-0.806
	c0.011-0.027,0.019-0.055,0.03-0.082c0.097-0.244,0.18-0.493,0.251-0.748c0.021-0.073,0.039-0.147,0.057-0.221
	c0.054-0.22,0.097-0.441,0.132-0.667c0.012-0.078,0.026-0.156,0.036-0.235c0.036-0.296,0.059-0.593,0.059-0.896
	c0-0.302-0.023-0.6-0.059-0.896C511.545,433.596,511.53,433.52,511.518,433.442z"/>
<path style="fill:#CE843C;" d="M511.518,433.443c-0.034-0.226-0.078-0.449-0.133-0.67c-0.019-0.073-0.036-0.147-0.057-0.22
	c-0.01-0.035-0.024-0.068-0.034-0.103c-0.065-0.219-0.133-0.435-0.217-0.646c-0.011-0.026-0.019-0.054-0.029-0.08
	c-0.114-0.277-0.245-0.545-0.39-0.807c-0.025-0.045-0.054-0.087-0.08-0.131c-0.121-0.206-0.252-0.405-0.391-0.599
	c-0.048-0.067-0.098-0.133-0.148-0.198c-0.04-0.052-0.086-0.099-0.128-0.15c-0.106-0.13-0.211-0.26-0.326-0.381
	c-0.041-0.043-0.079-0.09-0.12-0.132c-0.193-0.197-0.399-0.38-0.614-0.556c-0.012-0.009-0.021-0.02-0.033-0.03
	c-0.046-0.037-0.094-0.07-0.141-0.105c-0.031-0.024-0.066-0.044-0.097-0.067c-0.164-0.122-0.331-0.242-0.505-0.35
	c-1.148-0.716-2.5-1.136-3.953-1.136h-29.084l-24.928,14.978h54.011c1.453,0,2.805-0.42,3.953-1.136
	c0.176-0.109,0.342-0.229,0.505-0.35c0.031-0.023,0.066-0.043,0.097-0.067c0.047-0.036,0.095-0.069,0.141-0.105
	c0.228-0.184,0.443-0.378,0.646-0.585c0.042-0.043,0.08-0.09,0.121-0.133c0.094-0.101,0.18-0.209,0.268-0.314
	c0.061-0.073,0.128-0.143,0.186-0.218c0.051-0.065,0.1-0.131,0.148-0.198c0.14-0.194,0.271-0.393,0.391-0.599
	c0.026-0.044,0.055-0.086,0.08-0.131c0.113-0.201,0.208-0.411,0.302-0.621c0.028-0.063,0.064-0.122,0.09-0.185
	c0.011-0.026,0.019-0.055,0.03-0.082c0.097-0.244,0.18-0.493,0.251-0.748c0.02-0.072,0.038-0.145,0.056-0.218
	c0.055-0.221,0.098-0.444,0.133-0.671c0.012-0.078,0.026-0.155,0.035-0.233c0.036-0.296,0.059-0.593,0.059-0.896
	c0-0.302-0.023-0.6-0.059-0.896C511.545,433.597,511.53,433.521,511.518,433.443z"/>
<path style="fill:#FFD039;" d="M504.511,229.435h-35.769c-1.923-53.294-23.737-103.325-61.907-141.594
	c-40.078-40.184-93.195-62.314-149.567-62.314s-109.49,22.131-149.568,62.315c-38.169,38.269-59.983,88.3-61.907,141.594H7.489
	c-4.137,0-7.489,3.352-7.489,7.489v88.295c0,4.137,3.352,7.489,7.489,7.489h497.022c4.137,0,7.489-3.352,7.489-7.489v-88.296
	C512,232.788,508.648,229.435,504.511,229.435z M139.427,230.685c3.52-61.947,55.03-111.265,117.842-111.265
	s114.322,49.318,117.843,111.265H139.427z"/>
<path style="fill:#FFA304;" d="M0,325.22c0,4.137,3.352,7.489,7.489,7.489h497.022c4.137,0,7.489-3.352,7.489-7.489v-25.533H0
	V325.22z"/>
<g>
	<path style="fill:#C96E14;" d="M85.982,332.709v-51.255c0-4.137-3.352-7.489-7.489-7.489s-7.489,3.352-7.489,7.489v51.255
		L85.982,332.709L85.982,332.709z"/>
	<path style="fill:#C96E14;" d="M136.698,332.709v-34.726c0-4.137-3.352-7.489-7.489-7.489c-4.137,0-7.489,3.352-7.489,7.489v34.726
		H136.698z"/>
	<path style="fill:#C96E14;" d="M187.415,281.453c0-4.137-3.352-7.489-7.489-7.489c-4.137,0-7.489,3.352-7.489,7.489v51.255h14.978
		V281.453z"/>
	<path style="fill:#C96E14;" d="M238.132,297.982c0-4.137-3.352-7.489-7.489-7.489c-4.137,0-7.489,3.352-7.489,7.489v34.726h14.978
		V297.982z"/>
	<path style="fill:#C96E14;" d="M288.849,281.453c0-4.137-3.352-7.489-7.489-7.489s-7.489,3.352-7.489,7.489v51.255h14.978V281.453z
		"/>
	<path style="fill:#C96E14;" d="M339.565,297.982c0-4.137-3.352-7.489-7.489-7.489s-7.489,3.352-7.489,7.489v34.726h14.978V297.982z
		"/>
	<path style="fill:#C96E14;" d="M390.281,281.453c0-4.137-3.352-7.489-7.489-7.489c-4.136,0-7.489,3.352-7.489,7.489v51.255h14.978
		V281.453z"/>
	<path style="fill:#C96E14;" d="M440.998,332.709v-34.726c0-4.137-3.352-7.489-7.489-7.489s-7.489,3.352-7.489,7.489v34.726H440.998
		z"/>
</g>
<path style="fill:#FFA304;" d="M139.427,227.905h0.192c4.878-60.636,55.781-108.485,117.649-108.485
	c61.87,0,112.772,47.848,117.65,108.485h0.192c-3.52-78.784-39.926-141.507-117.843-141.507
	C179.925,86.4,142.946,149.121,139.427,227.905z"/>
<path style="fill:#931F25;" d="M304.555,486.366l55.891-9.516c3.6-0.612,6.232-3.732,6.232-7.382v-26.239l-63.381,10.791v32.453l0,0
	C303.716,486.473,304.136,486.437,304.555,486.366z"/>
<path style="fill:#E0E0E0;" d="M394.8,384.265h-35.611c-4.136,0-7.489,3.352-7.489,7.489v87.229c0,4.137,3.353,7.489,7.489,7.489
	H394.8c4.137,0,7.489-3.352,7.489-7.489v-87.229C402.289,387.618,398.936,384.265,394.8,384.265z"/>
<path style="fill:#C6C5CA;" d="M351.7,454.02v24.964c0,4.137,3.353,7.489,7.489,7.489H394.8c4.137,0,7.489-3.352,7.489-7.489V454.02
	H351.7z"/>
<g>
</g>
<g>
</g>
<g>
</g>
<g>
</g>
<g>
</g>
<g>
</g>
<g>
</g>
<g>
</g>
<g>
</g>
<g>
</g>
<g>
</g>
<g>
</g>
<g>
</g>
<g>
</g>
<g>
</g>
</svg>
