<?xml version="1.0" encoding="iso-8859-1"?>
<!-- Generator: Adobe Illustrator 19.0.0, SVG Export Plug-In . SVG Version: 6.00 Build 0)  -->
<svg version="1.1" id="Capa_1" xmlns="http://www.w3.org/2000/svg" xmlns:xlink="http://www.w3.org/1999/xlink" x="0px" y="0px"
	 viewBox="0 0 512 512" style="enable-background:new 0 0 512 512;" xml:space="preserve">
<polygon style="fill:#FF434D;" points="244.714,7.438 24.547,7.438 24.547,142.806 72.427,142.806 92.928,81.817 199.139,81.817 
	199.139,444.419 112.987,444.419 112.987,504.562 244.714,504.562 376.439,504.562 376.439,444.419 290.289,444.419 290.289,81.817 
	396.499,81.817 417,142.806 464.88,142.806 464.88,7.438 "/>
<g>
	<rect x="440.09" y="7.438" style="fill:#DD3646;" width="24.794" height="135.367"/>
	<polygon style="fill:#DD3646;" points="68.134,81.817 47.633,142.806 72.427,142.806 92.928,81.817 	"/>
	<rect x="265.498" y="81.821" style="fill:#DD3646;" width="24.794" height="362.603"/>
	<rect x="351.644" y="444.424" style="fill:#DD3646;" width="24.794" height="60.141"/>
</g>
<path style="fill:#3A4D51;" d="M376.439,512H112.987c-4.109,0-7.438-3.329-7.438-7.438v-60.142c0-4.109,3.329-7.438,7.438-7.438
	h78.712V89.256H98.275l-18.797,55.919c-1.018,3.029-3.856,5.068-7.051,5.068h-47.88c-4.109,0-7.438-3.329-7.438-7.438V7.438
	C17.109,3.33,20.439,0,24.547,0h440.331c4.109,0,7.438,3.33,7.438,7.438v135.366c0,4.109-3.329,7.438-7.438,7.438H417
	c-3.195,0-6.033-2.04-7.051-5.068l-18.797-55.919h-93.425v262.353c0,4.109-3.329,7.438-7.438,7.438
	c-4.109,0-7.438-3.329-7.438-7.438V81.817c0-4.109,3.329-7.438,7.438-7.438H396.5c3.195,0,6.033,2.04,7.051,5.068l18.797,55.919
	h35.094V14.877H31.986v120.49H67.08l18.797-55.919c1.018-3.029,3.856-5.068,7.051-5.068h106.21c4.109,0,7.438,3.329,7.438,7.438
	v362.602c0,4.109-3.329,7.438-7.438,7.438h-78.712v45.266h248.576V445.96c0-4.109,3.329-7.438,7.438-7.438
	c4.109,0,7.438,3.329,7.438,7.438v58.602C383.878,508.671,380.548,512,376.439,512z"/>
<g>
	<path style="fill:#FFD039;" d="M308.695,345.27h-35.95c-4.109,0-7.438,3.329-7.438,7.438v35.951c0,4.109,3.329,7.438,7.438,7.438
		h35.95c4.109,0,7.438-3.329,7.438-7.438v-35.951C316.133,348.599,312.804,345.27,308.695,345.27z"/>
	<path style="fill:#FFD039;" d="M459.795,254.289l-15.627-61.398c-0.673-2.643-2.737-4.705-5.38-5.375l-146.238-37.09
		c-2.54-0.647-5.234,0.096-7.088,1.95c-1.854,1.855-2.594,4.547-1.95,7.088l37.091,146.238c0.67,2.643,2.733,4.707,5.375,5.38
		l61.398,15.626c0.607,0.154,1.223,0.229,1.835,0.229c1.948,0,3.847-0.766,5.26-2.178l63.375-63.375
		C459.701,259.529,460.442,256.832,459.795,254.289z M382.346,249.261c-5.231,5.231-13.71,5.231-18.941,0s-5.231-13.71,0-18.941
		s13.71-5.231,18.941,0C387.577,235.55,387.577,244.03,382.346,249.261z"/>
</g>
<path style="fill:#FFA304;" d="M347.648,284.038l-32.431-127.863l-22.668-5.749c-2.54-0.647-5.234,0.096-7.088,1.95
	c-1.854,1.855-2.594,4.547-1.95,7.088l37.091,146.238c0.67,2.643,2.733,4.707,5.375,5.38l61.398,15.626
	c0.607,0.154,1.223,0.229,1.835,0.229c1.948,0,3.847-0.766,5.26-2.178l22.962-22.962L347.648,284.038z"/>
<path style="fill:#E89842;" d="M284.732,153.236c-0.135,0.183-0.262,0.372-0.378,0.565c-0.039,0.064-0.077,0.128-0.114,0.193
	c-0.131,0.233-0.251,0.471-0.355,0.716c-0.01,0.023-0.022,0.044-0.031,0.066c-0.114,0.274-0.209,0.555-0.291,0.841
	c-0.016,0.055-0.027,0.111-0.041,0.166c-0.058,0.224-0.105,0.452-0.142,0.681c-0.013,0.082-0.026,0.165-0.036,0.247
	c-0.029,0.234-0.047,0.469-0.054,0.705c-0.002,0.055-0.007,0.109-0.008,0.164c-0.002,0.288,0.014,0.576,0.046,0.865
	c0.007,0.063,0.019,0.127,0.028,0.191c0.033,0.237,0.075,0.473,0.131,0.709c0.306,1.3,0.958,2.535,1.972,3.549l74.282,74.281
	c0.498-2.512,1.717-4.909,3.664-6.856s4.344-3.167,6.856-3.664l-74.281-74.281c-1.018-1.017-2.256-1.669-3.561-1.974
	c-0.222-0.053-0.444-0.092-0.667-0.124c-0.078-0.011-0.157-0.025-0.235-0.034c-0.279-0.031-0.557-0.046-0.835-0.045
	c-0.077,0-0.155,0.008-0.232,0.011c-0.211,0.008-0.421,0.023-0.63,0.048c-0.097,0.012-0.195,0.027-0.292,0.043
	c-0.21,0.035-0.418,0.077-0.624,0.129c-0.071,0.018-0.143,0.032-0.213,0.053c-0.279,0.079-0.552,0.173-0.82,0.284
	c-0.035,0.014-0.068,0.033-0.102,0.048c-0.232,0.1-0.459,0.213-0.681,0.338c-0.069,0.039-0.139,0.081-0.207,0.122
	c-0.189,0.114-0.374,0.238-0.553,0.37c-0.065,0.048-0.132,0.093-0.195,0.144c-0.233,0.182-0.458,0.376-0.67,0.588
	c-0.213,0.213-0.407,0.439-0.59,0.672C284.822,153.109,284.778,153.174,284.732,153.236z"/>
<path style="fill:#CE843C;" d="M284.732,153.236c-0.135,0.184-0.263,0.373-0.379,0.567c-0.039,0.063-0.077,0.128-0.113,0.191
	c-0.018,0.033-0.032,0.067-0.05,0.1c-0.11,0.203-0.217,0.408-0.307,0.619c-0.009,0.021-0.02,0.042-0.029,0.062
	c-0.114,0.274-0.209,0.555-0.291,0.841c-0.016,0.055-0.027,0.111-0.041,0.166c-0.058,0.224-0.105,0.452-0.142,0.681
	c-0.013,0.082-0.026,0.165-0.036,0.247c-0.015,0.119-0.018,0.239-0.028,0.358c-0.009,0.116-0.023,0.231-0.027,0.348
	c-0.002,0.055-0.007,0.109-0.008,0.164c-0.001,0.199,0.017,0.399,0.032,0.598c0.007,0.089,0.004,0.179,0.014,0.268
	c0.007,0.063,0.019,0.127,0.028,0.19c0.001,0.005,0.002,0.01,0.003,0.015c0.032,0.232,0.074,0.463,0.129,0.694
	c0.306,1.3,0.958,2.535,1.972,3.549l42.152,42.152l-7.151-28.19l-24.482-24.482c-1.017-1.017-2.256-1.668-3.559-1.974
	c-0.223-0.053-0.446-0.093-0.67-0.125c-0.077-0.011-0.155-0.025-0.233-0.034c-0.279-0.031-0.557-0.046-0.835-0.045
	c-0.077,0-0.155,0.008-0.232,0.011c-0.163,0.006-0.324,0.021-0.486,0.037c-0.048,0.005-0.096,0.005-0.144,0.011
	c-0.097,0.012-0.194,0.027-0.291,0.043c-0.211,0.035-0.421,0.078-0.628,0.13c-0.069,0.018-0.14,0.032-0.209,0.052
	c-0.279,0.079-0.552,0.173-0.82,0.284c-0.035,0.014-0.068,0.033-0.102,0.048c-0.002,0.001-0.004,0.002-0.006,0.003
	c-0.23,0.1-0.455,0.211-0.675,0.335c-0.069,0.039-0.139,0.081-0.207,0.122c-0.189,0.114-0.375,0.239-0.554,0.371
	c-0.064,0.048-0.131,0.093-0.194,0.143c-0.233,0.182-0.458,0.376-0.67,0.588c-0.213,0.213-0.407,0.439-0.59,0.672
	C284.822,153.109,284.778,153.174,284.732,153.236z"/>
<path style="fill:#546F7A;" d="M492.712,266.434l-25.223-25.223c-2.906-2.904-7.615-2.904-10.52,0l-82.671,82.671
	c-2.905,2.906-2.905,7.615,0,10.52l25.223,25.223c1.453,1.452,3.357,2.178,5.26,2.178c1.903,0,3.807-0.726,5.26-2.178l82.671-82.671
	C495.617,274.048,495.617,269.339,492.712,266.434z"/>
<path style="fill:#475D63;" d="M394.58,303.601l-20.282,20.282c-2.905,2.906-2.905,7.615,0,10.52l25.223,25.223
	c1.453,1.452,3.357,2.178,5.26,2.178c1.903,0,3.807-0.726,5.26-2.178l19.758-19.758L394.58,303.601z"/>
<g>
</g>
<g>
</g>
<g>
</g>
<g>
</g>
<g>
</g>
<g>
</g>
<g>
</g>
<g>
</g>
<g>
</g>
<g>
</g>
<g>
</g>
<g>
</g>
<g>
</g>
<g>
</g>
<g>
</g>
</svg>
