<?xml version="1.0" encoding="iso-8859-1"?>
<!-- Generator: Adobe Illustrator 19.0.0, SVG Export Plug-In . SVG Version: 6.00 Build 0)  -->
<svg version="1.1" id="Capa_1" xmlns="http://www.w3.org/2000/svg" xmlns:xlink="http://www.w3.org/1999/xlink" x="0px" y="0px"
	 viewBox="0 0 512 512" style="enable-background:new 0 0 512 512;" xml:space="preserve">
<rect x="7.487" y="56.183" style="fill:#546F7A;" width="409.186" height="306.423"/>
<path style="fill:#475D63;" d="M416.669,362.602V103.564H59.479c-5.514,0-9.983,4.469-9.983,9.983v249.055L416.669,362.602
	L416.669,362.602z"/>
<g>
	<path style="fill:#FFD039;" d="M416.669,136.008c-4.136,0-7.487-3.351-7.487-7.487v-7.487c0-4.136,3.351-7.487,7.487-7.487
		c4.136,0,7.487,3.351,7.487,7.487v7.487C424.156,132.656,420.804,136.008,416.669,136.008z"/>
	<path style="fill:#FFD039;" d="M416.669,105.897c-4.136,0-7.487-3.351-7.487-7.487V86.29c0-4.136,3.351-7.487,7.487-7.487
		c4.136,0,7.487,3.351,7.487,7.487v12.12C424.156,102.545,420.804,105.897,416.669,105.897z"/>
	<path style="fill:#FFD039;" d="M416.669,71.154c-4.136,0-7.487-3.351-7.487-7.487c-4.136,0-7.487-3.351-7.487-7.487
		s3.351-7.487,7.487-7.487h7.487c4.136,0,7.487,3.351,7.487,7.487v7.487C424.156,67.802,420.804,71.154,416.669,71.154z"/>
	<path style="fill:#FFD039;" d="M382.585,63.666h-14.249c-4.136,0-7.487-3.351-7.487-7.487s3.351-7.487,7.487-7.487h14.249
		c4.136,0,7.487,3.351,7.487,7.487S386.721,63.666,382.585,63.666z M341.739,63.666h-14.247c-4.136,0-7.487-3.351-7.487-7.487
		s3.351-7.487,7.487-7.487h14.247c4.136,0,7.487,3.351,7.487,7.487S345.875,63.666,341.739,63.666z M300.893,63.666h-14.247
		c-4.136,0-7.487-3.351-7.487-7.487s3.351-7.487,7.487-7.487h14.247c4.136,0,7.487,3.351,7.487,7.487S305.029,63.666,300.893,63.666
		z M260.048,63.666H245.8c-4.135,0-7.487-3.351-7.487-7.487s3.352-7.487,7.487-7.487h14.247c4.136,0,7.487,3.351,7.487,7.487
		S264.183,63.666,260.048,63.666z M219.203,63.666h-14.248c-4.135,0-7.487-3.351-7.487-7.487s3.352-7.487,7.487-7.487h14.248
		c4.135,0,7.487,3.351,7.487,7.487S223.338,63.666,219.203,63.666z M178.357,63.666h-14.248c-4.135,0-7.487-3.351-7.487-7.487
		s3.352-7.487,7.487-7.487h14.248c4.135,0,7.487,3.351,7.487,7.487S182.492,63.666,178.357,63.666z M137.511,63.666h-14.248
		c-4.135,0-7.487-3.351-7.487-7.487s3.352-7.487,7.487-7.487h14.248c4.135,0,7.487,3.351,7.487,7.487S141.646,63.666,137.511,63.666
		z M96.666,63.666H82.417c-4.135,0-7.487-3.351-7.487-7.487s3.352-7.487,7.487-7.487h14.248c4.135,0,7.487,3.351,7.487,7.487
		S100.801,63.666,96.666,63.666z M55.82,63.666H41.571c-4.135,0-7.487-3.351-7.487-7.487s3.352-7.487,7.487-7.487H55.82
		c4.135,0,7.487,3.351,7.487,7.487S59.955,63.666,55.82,63.666z"/>
	<path style="fill:#FFD039;" d="M7.487,71.154C3.352,71.154,0,67.802,0,63.666v-7.487c0-4.136,3.352-7.487,7.487-7.487h7.487
		c4.135,0,7.487,3.351,7.487,7.487s-3.352,7.487-7.487,7.487C14.974,67.802,11.622,71.154,7.487,71.154z"/>
	<path style="fill:#FFD039;" d="M7.487,334.068c-4.135,0-7.487-3.351-7.487-7.487v-15.286c0-4.136,3.352-7.487,7.487-7.487
		s7.487,3.351,7.487,7.487v15.286C14.974,330.717,11.622,334.068,7.487,334.068z M7.487,290.25c-4.135,0-7.487-3.351-7.487-7.487
		v-15.285c0-4.136,3.352-7.487,7.487-7.487s7.487,3.351,7.487,7.487v15.285C14.974,286.897,11.622,290.25,7.487,290.25z
		 M7.487,246.43c-4.135,0-7.487-3.351-7.487-7.487v-15.285c0-4.136,3.352-7.487,7.487-7.487s7.487,3.351,7.487,7.487v15.285
		C14.974,243.079,11.622,246.43,7.487,246.43z M7.487,202.611c-4.135,0-7.487-3.351-7.487-7.487v-15.286
		c0-4.136,3.352-7.487,7.487-7.487s7.487,3.351,7.487,7.487v15.286C14.974,199.259,11.622,202.611,7.487,202.611z M7.487,158.792
		c-4.135,0-7.487-3.351-7.487-7.487v-15.286c0-4.136,3.352-7.487,7.487-7.487s7.487,3.351,7.487,7.487v15.286
		C14.974,155.441,11.622,158.792,7.487,158.792z M7.487,114.973c-4.135,0-7.487-3.351-7.487-7.487V92.2
		c0-4.136,3.352-7.487,7.487-7.487s7.487,3.351,7.487,7.487v15.287C14.974,111.622,11.622,114.973,7.487,114.973z"/>
	<path style="fill:#FFD039;" d="M14.974,370.088H7.487c-4.135,0-7.487-3.351-7.487-7.487v-7.487c0-4.136,3.352-7.487,7.487-7.487
		s7.487,3.351,7.487,7.487c4.135,0,7.487,3.351,7.487,7.487C22.461,366.737,19.109,370.088,14.974,370.088z"/>
	<path style="fill:#FFD039;" d="M46.462,370.088H35.478c-4.135,0-7.487-3.351-7.487-7.487c0-4.136,3.352-7.487,7.487-7.487h10.984
		c4.135,0,7.487,3.351,7.487,7.487C53.949,366.737,50.597,370.088,46.462,370.088z"/>
	<path style="fill:#FFD039;" d="M74.453,370.088h-7.487c-4.135,0-7.487-3.351-7.487-7.487c0-4.136,3.352-7.487,7.487-7.487h7.487
		c4.135,0,7.487,3.351,7.487,7.487C81.94,366.737,78.588,370.088,74.453,370.088z"/>
</g>
<path style="fill:#E0E0E0;" d="M504.513,121.034H74.453c-4.135,0-7.487,3.351-7.487,7.487v327.3c0,4.136,3.352,7.487,7.487,7.487
	h430.06c4.135,0,7.487-3.351,7.487-7.487v-327.3C512,124.385,508.648,121.034,504.513,121.034z"/>
<path style="fill:#C6C5CA;" d="M504.513,121.034H476.38v342.274h28.133c4.135,0,7.487-3.351,7.487-7.487v-327.3
	C512,124.385,508.648,121.034,504.513,121.034z"/>
<path style="fill:#39A4FA;" d="M468.889,160.559H110.077c-4.135,0-7.487,3.351-7.487,7.487v248.251c0,4.136,3.352,7.487,7.487,7.487
	H468.89c4.136,0,7.487-3.351,7.487-7.487V168.046C476.376,163.91,473.025,160.559,468.889,160.559z"/>
<path style="fill:#0091E2;" d="M468.889,160.559h-24.957v263.225h24.957c4.136,0,7.487-3.351,7.487-7.487V168.046
	C476.376,163.91,473.025,160.559,468.889,160.559z"/>
<path style="fill:#008950;" d="M473.875,372.518L350.982,262.865c-2.839-2.535-7.13-2.535-9.969,0l-73.133,65.255
	c-1.592,1.421-2.503,3.452-2.503,5.586c0,2.134,0.91,4.166,2.503,5.586l92.562,82.59c1.372,1.225,3.146,1.901,4.984,1.901H468.89
	c4.136,0,7.487-3.351,7.487-7.487v-38.192C476.376,375.97,475.466,373.939,473.875,372.518z"/>
<path style="fill:#007741;" d="M284.213,313.546l-16.333,14.573c-1.592,1.421-2.503,3.452-2.503,5.586
	c0,2.134,0.91,4.166,2.503,5.586l92.562,82.59c1.372,1.225,3.146,1.901,4.984,1.901h42.332L284.213,313.546z"/>
<path style="fill:#00B76C;" d="M222.675,278.889c-2.84-2.535-7.13-2.535-9.969,0L105.092,374.91
	c-1.592,1.421-2.503,3.452-2.503,5.586v35.799c0,4.136,3.352,7.487,7.487,7.487h274.397L222.675,278.889z"/>
<path style="fill:#FFD039;" d="M273.813,191.465c-19.777,0-35.867,16.089-35.867,35.866s16.09,35.867,35.867,35.867
	s35.866-16.089,35.866-35.867C309.679,207.555,293.59,191.465,273.813,191.465z"/>
<g>
</g>
<g>
</g>
<g>
</g>
<g>
</g>
<g>
</g>
<g>
</g>
<g>
</g>
<g>
</g>
<g>
</g>
<g>
</g>
<g>
</g>
<g>
</g>
<g>
</g>
<g>
</g>
<g>
</g>
</svg>
