<?xml version="1.0" encoding="iso-8859-1"?>
<!-- Generator: Adobe Illustrator 19.0.0, SVG Export Plug-In . SVG Version: 6.00 Build 0)  -->
<svg version="1.1" id="Capa_1" xmlns="http://www.w3.org/2000/svg" xmlns:xlink="http://www.w3.org/1999/xlink" x="0px" y="0px"
	 viewBox="0 0 512.001 512.001" style="enable-background:new 0 0 512.001 512.001;" xml:space="preserve">
<path style="fill:#FFC89F;" d="M511.954,113.631c0-1.104-0.228-2.21-0.719-3.238l-31.52-65.913c-1.247-2.607-3.88-4.267-6.77-4.267
	s-5.523,1.659-6.77,4.267l-31.52,65.913c-0.491,1.027-0.719,2.134-0.719,3.238H511.954z"/>
<path style="fill:#E0E0E0;" d="M403.92,29.322H85.235c-4.144,0-7.504,3.36-7.504,7.504v445.817c-0.044,0,265.587-0.382,280.366,0
	c0.064,0.002,0.129,0.003,0.194,0.003c0.067,0,0.135-0.001,0.202-0.003c14.223-0.385,27.533-6.211,37.478-16.407
	c9.966-10.218,15.455-23.706,15.455-37.982V36.826C411.424,32.681,408.065,29.322,403.92,29.322z"/>
<g>
	<path style="fill:#C6C5CA;" d="M77.731,482.6v0.042c-0.027,0,103.021-0.148,184.321-0.168
		C204.389,482.457,122.398,482.545,77.731,482.6z"/>
	<path style="fill:#C6C5CA;" d="M403.92,29.322h-24.526v398.062c0,14.498-5.405,28.601-15.555,38.955
		c-9.305,9.491-21.538,15.171-34.701,16.166c15.685,0.026,26.318,0.07,28.956,0.138c0.064,0.002,0.129,0.003,0.194,0.003
		c0.067,0,0.135-0.001,0.202-0.003c14.223-0.385,27.533-6.211,37.478-16.407c9.966-10.218,15.455-23.706,15.455-37.982V36.826
		C411.424,32.681,408.065,29.322,403.92,29.322z"/>
</g>
<path style="fill:#F7B081;" d="M479.714,44.481c-1.247-2.607-3.88-4.267-6.77-4.267s-5.523,1.659-6.77,4.267l-10.397,21.74
	l22.672,47.41h33.505c0-1.104-0.228-2.21-0.719-3.238L479.714,44.481z"/>
<path style="fill:#FFD039;" d="M433.891,113.631c0,0.023-0.003,0.045-0.003,0.068v279.109c0,4.144,3.36,7.504,7.504,7.504h63.103
	c4.144,0,7.504-3.36,7.504-7.504V113.699c0-0.023-0.003-0.045-0.003-0.068H433.891z"/>
<path style="fill:#FFA304;" d="M478.482,113.631v286.681h26.015c4.144,0,7.504-3.36,7.504-7.504V113.699
	c0-0.023-0.003-0.045-0.003-0.068H478.482z"/>
<path style="fill:#3C5156;" d="M499.56,85.982l-19.846-41.501c-1.247-2.607-3.88-4.267-6.77-4.267s-5.523,1.659-6.77,4.267
	l-19.846,41.501H499.56z"/>
<path style="fill:#304144;" d="M465.228,85.982h34.332l-19.846-41.501c-1.247-2.607-3.88-4.267-6.77-4.267s-5.523,1.659-6.77,4.267
	l-10.397,21.74L465.228,85.982z"/>
<path style="fill:#919191;" d="M355.441,482.645c-30.919,0-55.983-25.065-55.983-55.983c0-0.027,0-0.054,0-0.081
	c0.007-4.339-3.413-7.898-7.752-7.898H7.504c-4.176,0-7.51,3.417-7.504,7.593c0.048,31.11,25.372,56.404,56.493,56.404h303.084
	c0.882,0,1.725-0.16,2.51-0.439C359.906,482.497,357.691,482.645,355.441,482.645z"/>
<path style="fill:#FFD039;" d="M333.872,196.504c0-46.41-37.756-84.166-84.165-84.166s-84.165,37.756-84.165,84.166
	c0,27.05,12.875,52.175,34.632,68.02c0.177,0.129,0.353,0.257,0.531,0.385c0.937,0.671,1.884,1.332,2.853,1.968
	c13.734,9.022,29.692,13.791,46.149,13.791s32.415-4.77,46.149-13.791c0.97-0.636,1.916-1.297,2.853-1.968
	c0.178-0.128,0.354-0.256,0.531-0.385C320.997,248.679,333.872,223.554,333.872,196.504z"/>
<path style="fill:#FF434D;" d="M298.009,256.489l-42.029-64.043c-1.388-2.113-3.746-3.387-6.274-3.387
	c-2.528,0-4.887,1.274-6.274,3.387l-42.029,64.043l-3.931,5.99c1.952,1.545,3.979,3.016,6.084,4.399
	c13.734,9.022,29.692,13.791,46.149,13.791s32.415-4.77,46.149-13.791c2.106-1.384,4.132-2.855,6.085-4.399L298.009,256.489z"/>
<path style="fill:#39A4FA;" d="M340.171,320.736l-38.232-58.258c-1.952,1.545-3.979,3.016-6.085,4.399
	c-13.734,9.022-29.692,13.791-46.149,13.791s-32.415-4.77-46.149-13.791c-2.106-1.384-4.132-2.855-6.084-4.399l-38.23,58.258
	c-1.513,2.306-1.64,5.256-0.329,7.682c1.31,2.427,3.845,3.94,6.604,3.94h168.382c2.758,0,5.293-1.513,6.604-3.94
	C341.811,325.992,341.684,323.043,340.171,320.736z"/>
<rect x="433.884" y="385.307" style="fill:#FF6137;" width="78.114" height="49.148"/>
<rect x="478.479" y="385.307" style="fill:#E04F32;" width="33.519" height="49.148"/>
<path style="fill:#546F7A;" d="M433.888,419.364v7.585v23.731v4.523c0,12.532,10.196,22.729,22.729,22.729h32.654
	c12.533,0,22.729-10.196,22.729-22.729v-4.523v-23.731v-7.585H433.888z"/>
<path style="fill:#475D63;" d="M478.482,419.364v7.585v23.731v4.523c0,12.388-9.964,22.486-22.297,22.718
	c0.144,0.003,0.287,0.011,0.432,0.011h32.654c12.533,0,22.729-10.196,22.729-22.729v-4.523v-23.731v-7.585L478.482,419.364
	L478.482,419.364z"/>
<g>
</g>
<g>
</g>
<g>
</g>
<g>
</g>
<g>
</g>
<g>
</g>
<g>
</g>
<g>
</g>
<g>
</g>
<g>
</g>
<g>
</g>
<g>
</g>
<g>
</g>
<g>
</g>
<g>
</g>
</svg>
