<?xml version="1.0" encoding="iso-8859-1"?>
<!-- Generator: Adobe Illustrator 19.0.0, SVG Export Plug-In . SVG Version: 6.00 Build 0)  -->
<svg version="1.1" id="Capa_1" xmlns="http://www.w3.org/2000/svg" xmlns:xlink="http://www.w3.org/1999/xlink" x="0px" y="0px"
	 viewBox="0 0 512 512" style="enable-background:new 0 0 512 512;" xml:space="preserve">
<path style="fill:#FFD039;" d="M450.279,30.439H57.474c-4.15,0-7.515,3.364-7.515,7.515v61.311v344.722
	c0,20.718,16.855,37.573,37.573,37.573h332.688c20.718,0,37.573-16.855,37.573-37.573V37.954
	C457.794,33.803,454.431,30.439,450.279,30.439z"/>
<path style="fill:#FFAE47;" d="M450.279,30.439h-32.185c4.15,0,7.515,3.364,7.515,7.515v406.033
	c0,20.718-16.855,37.573-37.573,37.573h32.185c20.718,0,37.573-16.855,37.573-37.573V37.954
	C457.794,33.803,454.431,30.439,450.279,30.439z"/>
<g>
	<path style="fill:#3A4D51;" d="M504.485,99.265h-46.691v15.029h39.177v40.351c0,40.922-14.739,78.461-39.177,107.607
		c-30.792,36.726-76.988,60.121-128.551,60.121c-4.15,0-7.515,3.364-7.515,7.515c0,4.151,3.365,7.515,7.515,7.515
		c50.077,0,95.509-20.251,128.551-52.986C491.245,251.277,512,205.342,512,154.646v-47.865
		C512,102.629,508.635,99.265,504.485,99.265z"/>
	<path style="fill:#3A4D51;" d="M182.757,322.373c-53.992,0-102.098-25.65-132.798-65.398
		c-21.886-28.337-34.929-63.837-34.929-102.33v-40.351h34.93V99.265H7.515c-4.15,0-7.515,3.364-7.515,7.515v47.865
		c0,48.515,19.007,92.669,49.96,125.423c33.34,35.281,80.54,57.334,132.798,57.334c4.15,0,7.515-3.364,7.515-7.515
		C190.272,325.737,186.907,322.373,182.757,322.373z"/>
</g>
<path style="fill:#FF434D;" d="M282.665,30.439h-151.63c-4.15,0-7.515,3.364-7.515,7.515v166.399
	c0,18.215,14.819,33.034,33.034,33.034c18.216,0,33.035-14.819,33.035-33.034v-65.62c0-9.057,7.368-16.426,16.425-16.426
	c9.057,0,16.425,7.368,16.425,16.426v37.528c0,18.676,15.195,33.871,33.871,33.871s33.871-15.195,33.871-33.871V37.954
	C290.18,33.803,286.815,30.439,282.665,30.439z"/>
<path style="fill:#DD3646;" d="M282.665,30.439h-151.63c-4.15,0-7.515,3.364-7.515,7.515v42.971h166.658V37.954
	C290.18,33.803,286.815,30.439,282.665,30.439z"/>
<path style="fill:#546F7A;" d="M305.967,298.895h-99.932c-16.978,0-30.791,13.813-30.791,30.792
	c0,16.978,13.813,30.791,30.791,30.791h99.932c16.978,0,30.792-13.813,30.792-30.791
	C336.758,312.709,322.945,298.895,305.967,298.895z"/>
<path style="fill:#475D63;" d="M305.967,330.513h-99.932c-11.542,0-21.615-6.387-26.887-15.809
	c-2.483,4.438-3.905,9.547-3.905,14.983c0,16.978,13.813,30.791,30.791,30.791h99.932c16.978,0,30.792-13.813,30.792-30.791
	c0-5.437-1.422-10.546-3.905-14.983C327.582,324.126,317.508,330.513,305.967,330.513z"/>
<path style="fill:#C96E14;" d="M477.013,45.469H30.741c-4.15,0-7.515-3.364-7.515-7.515s3.365-7.515,7.515-7.515h446.272
	c4.15,0,7.515,3.364,7.515,7.515S481.163,45.469,477.013,45.469z"/>
<g>
</g>
<g>
</g>
<g>
</g>
<g>
</g>
<g>
</g>
<g>
</g>
<g>
</g>
<g>
</g>
<g>
</g>
<g>
</g>
<g>
</g>
<g>
</g>
<g>
</g>
<g>
</g>
<g>
</g>
</svg>
