<?xml version="1.0" encoding="iso-8859-1"?>
<!-- Generator: Adobe Illustrator 19.0.0, SVG Export Plug-In . SVG Version: 6.00 Build 0)  -->
<svg version="1.1" id="Capa_1" xmlns="http://www.w3.org/2000/svg" xmlns:xlink="http://www.w3.org/1999/xlink" x="0px" y="0px"
	 viewBox="0 0 512 512" style="enable-background:new 0 0 512 512;" xml:space="preserve">
<path style="fill:#919191;" d="M330.213,449.852l-6.002-52.284c-0.435-3.787-3.641-6.647-7.454-6.647H195.243
	c-3.812,0-7.019,2.859-7.454,6.647l-6.002,52.284c-0.244,2.125,0.431,4.253,1.855,5.85c1.423,1.597,3.461,2.509,5.6,2.509h133.518
	c2.139,0,4.176-0.912,5.6-2.509C329.782,454.105,330.457,451.977,330.213,449.852z"/>
<path style="fill:#777777;" d="M298.749,458.21h24.011c2.139,0,4.176-0.912,5.6-2.509s2.099-3.725,1.855-5.85l-6.002-52.284
	c-0.435-3.787-3.641-6.647-7.454-6.647h-25.986L298.749,458.21z"/>
<path style="fill:#E0E0E0;" d="M504.497,321.811H7.503c-4.144,0-7.503,3.359-7.503,7.503v54.105
	c0,12.41,10.097,22.508,22.508,22.508h466.985c12.41,0,22.508-10.097,22.508-22.508v-54.105
	C512,325.169,508.642,321.811,504.497,321.811z"/>
<path style="fill:#C6C5CA;" d="M504.497,321.811c0,0-23.745-0.146-23.891,0v61.608c0,12.41-10.097,22.508-22.508,22.508h31.394
	c12.41,0,22.508-10.097,22.508-22.508v-54.105C512,325.169,508.642,321.811,504.497,321.811z"/>
<path style="fill:#E0E0E0;" d="M365.071,443.205H146.929c-4.144,0-7.503,3.358-7.503,7.503v26.328c0,4.144,3.358,7.503,7.503,7.503
	h218.142c4.144,0,7.503-3.358,7.503-7.503v-26.328C372.574,446.564,369.215,443.205,365.071,443.205z"/>
<path style="fill:#C6C5CA;" d="M365.071,443.205h-25.009v41.333h25.009c4.144,0,7.503-3.358,7.503-7.503v-26.328
	C372.574,446.564,369.215,443.205,365.071,443.205z"/>
<path style="fill:#39A4FA;" d="M489.492,27.462H22.508C10.077,27.462,0,37.54,0,49.97v286.846h512V49.97
	C512,37.539,501.924,27.462,489.492,27.462z"/>
<path style="fill:#0091E2;" d="M489.492,27.462h-31.394c12.431,0,22.508,10.076,22.508,22.508v286.846H512V49.97
	C512,37.539,501.923,27.462,489.492,27.462z"/>
<path style="fill:#FFD039;" d="M333.458,212.137L262.219,92.48c-1.353-2.272-3.802-3.664-6.446-3.664s-5.094,1.392-6.446,3.664
	l-71.238,119.657c-1.406,2.363-1.407,5.307-0.003,7.671l29.873,50.273c1.352,2.276,3.803,3.67,6.449,3.67h82.729
	c2.647,0,5.098-1.395,6.449-3.67l29.874-50.273C334.866,217.444,334.865,214.5,333.458,212.137z M255.773,191.2
	c6.827,0,12.362,5.535,12.362,12.362s-5.535,12.362-12.362,12.362c-6.827,0-12.362-5.535-12.362-12.362S248.946,191.2,255.773,191.2
	z"/>
<path style="fill:#FFA304;" d="M333.458,212.137L262.219,92.48c-1.353-2.272-3.802-3.664-6.446-3.664s-5.094,1.392-6.446,3.664
	l-10.273,17.257l62.949,106.238l-33.164,57.776h28.299c2.647,0,5.098-1.395,6.449-3.67l29.874-50.273
	C334.866,217.444,334.865,214.5,333.458,212.137z"/>
<path style="fill:#546F7A;" d="M309.731,258.74H201.814c-4.144,0-7.503,3.358-7.503,7.503v32.925c0,4.144,3.358,7.503,7.503,7.503
	h107.918c4.144,0,7.503-3.358,7.503-7.503v-32.925C317.234,262.098,313.875,258.74,309.731,258.74z"/>
<path style="fill:#475D63;" d="M309.731,258.74h-25.008v47.93h25.008c4.144,0,7.503-3.358,7.503-7.503v-32.925
	C317.234,262.098,313.875,258.74,309.731,258.74z"/>
<path style="fill:#E89842;" d="M254.638,88.911c-0.226,0.035-0.45,0.078-0.67,0.133c-0.074,0.018-0.148,0.036-0.221,0.057
	c-0.259,0.073-0.515,0.157-0.764,0.257c-0.022,0.009-0.046,0.016-0.068,0.025c-0.277,0.114-0.546,0.247-0.807,0.393
	c-0.049,0.028-0.096,0.059-0.145,0.088c-0.202,0.12-0.399,0.249-0.589,0.387c-0.067,0.049-0.134,0.099-0.2,0.15
	c-0.187,0.146-0.367,0.301-0.541,0.464c-0.041,0.038-0.084,0.073-0.124,0.113c-0.206,0.203-0.4,0.42-0.583,0.648
	c-0.042,0.053-0.08,0.108-0.121,0.162c-0.143,0.189-0.278,0.385-0.404,0.588c-0.711,1.146-1.128,2.495-1.128,3.943v97.434
	c2.082-1.595,4.678-2.553,7.503-2.553c2.825,0,5.421,0.958,7.503,2.553V96.319c0-1.448-0.417-2.797-1.128-3.943
	c-0.126-0.204-0.261-0.4-0.405-0.588c-0.041-0.054-0.079-0.11-0.121-0.162c-0.183-0.228-0.376-0.444-0.582-0.647
	c-0.04-0.04-0.084-0.075-0.125-0.114c-0.173-0.163-0.353-0.318-0.54-0.463c-0.066-0.051-0.133-0.101-0.2-0.15
	c-0.19-0.138-0.387-0.267-0.589-0.387c-0.049-0.029-0.095-0.06-0.145-0.088c-0.261-0.146-0.53-0.279-0.807-0.393
	c-0.022-0.009-0.045-0.016-0.067-0.024c-0.249-0.1-0.504-0.184-0.764-0.257c-0.073-0.021-0.147-0.039-0.222-0.057
	c-0.22-0.055-0.444-0.098-0.669-0.133c-0.079-0.012-0.156-0.027-0.236-0.036c-0.297-0.036-0.596-0.059-0.899-0.059
	c-0.303,0-0.603,0.023-0.899,0.059C254.794,88.884,254.716,88.898,254.638,88.911z"/>
<path style="fill:#CE843C;" d="M254.638,88.91c-0.226,0.035-0.45,0.078-0.671,0.133c-0.074,0.018-0.148,0.036-0.221,0.057
	c-0.259,0.073-0.515,0.157-0.764,0.257c-0.022,0.009-0.046,0.016-0.068,0.025c-0.034,0.014-0.065,0.034-0.099,0.048
	c-0.241,0.104-0.479,0.216-0.708,0.345c-0.049,0.028-0.096,0.059-0.145,0.088c-0.022,0.013-0.042,0.029-0.064,0.042
	c-0.18,0.109-0.356,0.222-0.526,0.346c-0.067,0.049-0.133,0.098-0.199,0.148c-0.188,0.146-0.368,0.301-0.542,0.465
	c-0.04,0.038-0.084,0.073-0.123,0.112c-0.134,0.132-0.254,0.277-0.378,0.42c-0.067,0.077-0.141,0.148-0.205,0.228
	c-0.042,0.053-0.08,0.108-0.121,0.162c-0.143,0.189-0.278,0.385-0.404,0.588c-0.711,1.146-1.128,2.495-1.128,3.943v28.976
	l15.005,25.324V96.32c0-1.448-0.417-2.797-1.128-3.943c-0.126-0.204-0.261-0.4-0.405-0.588c-0.041-0.054-0.079-0.11-0.121-0.162
	c-0.183-0.228-0.376-0.444-0.582-0.647c-0.039-0.039-0.083-0.074-0.123-0.112c-0.153-0.144-0.313-0.279-0.477-0.409
	c-0.022-0.018-0.043-0.038-0.065-0.056c-0.065-0.051-0.132-0.1-0.199-0.149c-0.17-0.123-0.347-0.237-0.526-0.346
	c-0.022-0.013-0.042-0.029-0.064-0.042c-0.049-0.029-0.095-0.06-0.145-0.088c-0.114-0.064-0.236-0.114-0.353-0.172
	c-0.151-0.075-0.298-0.157-0.455-0.221c-0.021-0.009-0.044-0.015-0.065-0.024c-0.118-0.048-0.243-0.081-0.363-0.123
	c-0.134-0.045-0.265-0.097-0.402-0.135c-0.073-0.021-0.147-0.039-0.222-0.057c-0.129-0.032-0.262-0.053-0.393-0.078
	c-0.092-0.018-0.184-0.041-0.277-0.055c-0.078-0.012-0.156-0.026-0.235-0.036c-0.297-0.036-0.596-0.059-0.9-0.059
	c-0.303,0-0.603,0.023-0.9,0.059C254.794,88.884,254.716,88.898,254.638,88.91z"/>
<g>
	<path style="fill:#3A4D51;" d="M352.786,118.561c-10.091-11.136-21.889-20.339-34.841-27.338h48.023
		c4.144,0,7.503-3.359,7.503-7.503c0-4.144-3.358-7.503-7.503-7.503h-97.123c-3.091-0.044-5.83,1.818-6.992,4.576
		c-0.023,0.054-0.04,0.112-0.062,0.167c-0.066,0.169-0.133,0.337-0.187,0.512c-0.052,0.167-0.092,0.339-0.133,0.51
		c-0.016,0.068-0.038,0.134-0.052,0.204c-0.051,0.244-0.09,0.493-0.116,0.746c0,0.002-0.001,0.004-0.001,0.006l0,0
		c-0.015,0.144-0.017,0.292-0.024,0.439c-0.005,0.113-0.017,0.227-0.017,0.34c0,0.001,0,0.002,0,0.004
		c0,0.038,0.005,0.074,0.006,0.111c0.003,0.217,0.011,0.434,0.033,0.647c0.007,0.072,0.022,0.142,0.031,0.213
		c0.023,0.175,0.045,0.35,0.08,0.521c0.025,0.126,0.061,0.247,0.093,0.37c0.029,0.112,0.053,0.227,0.087,0.337
		c0.05,0.163,0.111,0.321,0.172,0.479c0.026,0.067,0.046,0.135,0.074,0.201c0.075,0.18,0.16,0.353,0.248,0.525
		c0.021,0.041,0.039,0.085,0.061,0.125c0.094,0.175,0.197,0.344,0.304,0.51c0.023,0.036,0.042,0.073,0.066,0.108
		c0.107,0.161,0.224,0.315,0.343,0.467c0.029,0.037,0.056,0.077,0.086,0.114c0.116,0.142,0.24,0.277,0.366,0.41
		c0.04,0.042,0.076,0.087,0.116,0.128c0.123,0.124,0.253,0.24,0.384,0.355c0.05,0.044,0.097,0.091,0.148,0.134
		c0.134,0.112,0.275,0.215,0.417,0.317c0.054,0.039,0.104,0.081,0.159,0.119c0.157,0.107,0.321,0.205,0.487,0.3
		c0.043,0.025,0.084,0.054,0.128,0.078c0.198,0.109,0.403,0.208,0.612,0.299c0.013,0.006,0.026,0.013,0.039,0.019
		c0.697,0.3,1.448,0.497,2.236,0.573c28.29,2.974,54.438,16.272,73.63,37.452c19.341,21.34,29.991,48.968,29.991,77.793
		c0,4.144,3.358,7.503,7.503,7.503s7.503-3.358,7.503-7.503C386.663,173.873,374.632,142.667,352.786,118.561z"/>
	<path style="fill:#3A4D51;" d="M248.743,88.265c0.097-0.127,0.195-0.253,0.283-0.386c0.044-0.066,0.082-0.137,0.124-0.204
		c0.085-0.136,0.171-0.272,0.247-0.414c0.042-0.079,0.077-0.162,0.117-0.242c0.066-0.135,0.135-0.269,0.193-0.408
		c0.047-0.113,0.085-0.23,0.126-0.345c0.04-0.111,0.085-0.22,0.12-0.334c0.053-0.172,0.094-0.349,0.135-0.526
		c0.014-0.061,0.033-0.12,0.046-0.181c0.139-0.682,0.18-1.395,0.12-2.124c-0.004-0.05-0.003-0.102-0.008-0.152
		c0-0.003,0-0.007-0.001-0.01c-0.011-0.105-0.033-0.205-0.048-0.309c-0.021-0.145-0.038-0.292-0.068-0.434
		c-0.03-0.144-0.071-0.283-0.109-0.423c-0.026-0.097-0.046-0.197-0.076-0.293c-0.063-0.201-0.137-0.396-0.216-0.589
		c-0.012-0.031-0.022-0.063-0.035-0.094c-1.164-2.761-3.91-4.627-7-4.578h-97.116c-4.144,0-7.503,3.358-7.503,7.503
		c0,4.143,3.358,7.503,7.503,7.503h48.022c-12.951,6.999-24.748,16.203-34.841,27.337c-21.846,24.106-33.878,55.313-33.878,87.871
		c0,4.144,3.359,7.503,7.503,7.503c4.144,0,7.503-3.358,7.503-7.503c0-28.826,10.651-56.454,29.991-77.794
		c19.195-21.179,45.342-34.478,73.632-37.451c0.785-0.076,1.536-0.272,2.231-0.571c0.035-0.015,0.067-0.034,0.102-0.049
		c0.187-0.084,0.371-0.171,0.549-0.269c0.066-0.036,0.128-0.079,0.193-0.117c0.142-0.084,0.285-0.167,0.421-0.26
		c0.077-0.052,0.148-0.111,0.222-0.166c0.119-0.088,0.239-0.174,0.353-0.268c0.073-0.061,0.139-0.127,0.21-0.191
		c0.109-0.098,0.219-0.194,0.322-0.298c0.062-0.062,0.117-0.13,0.177-0.195c0.104-0.113,0.209-0.224,0.306-0.342
		C248.648,88.396,248.694,88.329,248.743,88.265z"/>
</g>
<g>
	<path style="fill:#FFD039;" d="M392.39,199.081h-25.979c-4.144,0-7.503,3.358-7.503,7.503v25.979c0,4.144,3.358,7.503,7.503,7.503
		h25.979c4.144,0,7.503-3.358,7.503-7.503v-25.979C399.893,202.44,396.534,199.081,392.39,199.081z"/>
	<path style="fill:#FFD039;" d="M145.589,199.081h-25.98c-4.144,0-7.503,3.358-7.503,7.503v25.979c0,4.144,3.358,7.503,7.503,7.503
		h25.98c4.144,0,7.503-3.358,7.503-7.503v-25.979C153.092,202.44,149.734,199.081,145.589,199.081z"/>
	<path style="fill:#FFD039;" d="M268.762,62.299h-25.98c-4.144,0-7.503,3.358-7.503,7.503v25.98c0,4.144,3.358,7.503,7.503,7.503
		h25.98c4.143,0,7.503-3.358,7.503-7.503v-25.98C276.265,65.657,272.906,62.299,268.762,62.299z"/>
</g>
<g>
	<path style="fill:#FF6137;" d="M378.951,62.849c-11.296,0-20.486,9.191-20.486,20.486s9.19,20.486,20.486,20.486
		c11.296,0,20.486-9.19,20.486-20.486S390.247,62.849,378.951,62.849z"/>
	<path style="fill:#FF6137;" d="M132.594,62.849c-11.296,0-20.486,9.191-20.486,20.486s9.191,20.486,20.486,20.486
		c11.295,0,20.486-9.19,20.486-20.486S143.89,62.849,132.594,62.849z"/>
</g>
<g>
</g>
<g>
</g>
<g>
</g>
<g>
</g>
<g>
</g>
<g>
</g>
<g>
</g>
<g>
</g>
<g>
</g>
<g>
</g>
<g>
</g>
<g>
</g>
<g>
</g>
<g>
</g>
<g>
</g>
</svg>
