<?xml version="1.0" encoding="iso-8859-1"?>
<!-- Generator: Adobe Illustrator 19.0.0, SVG Export Plug-In . SVG Version: 6.00 Build 0)  -->
<svg version="1.1" id="Capa_1" xmlns="http://www.w3.org/2000/svg" xmlns:xlink="http://www.w3.org/1999/xlink" x="0px" y="0px"
	 viewBox="0 0 512 512" style="enable-background:new 0 0 512 512;" xml:space="preserve">
<g>
	<rect x="58.112" y="57.131" style="fill:#546F7A;" width="79.347" height="79.347"/>
	<rect x="216.326" y="57.131" style="fill:#546F7A;" width="79.347" height="79.347"/>
	<rect x="374.54" y="57.131" style="fill:#546F7A;" width="79.347" height="79.347"/>
	<rect x="137.219" y="136.478" style="fill:#546F7A;" width="79.347" height="79.347"/>
	<rect x="295.433" y="136.478" style="fill:#546F7A;" width="79.347" height="79.347"/>
	<rect x="58.112" y="215.826" style="fill:#546F7A;" width="79.347" height="79.347"/>
	<rect x="216.326" y="215.826" style="fill:#546F7A;" width="79.347" height="79.347"/>
	<rect x="374.54" y="215.826" style="fill:#546F7A;" width="79.347" height="79.347"/>
	<rect x="137.219" y="295.173" style="fill:#546F7A;" width="79.347" height="79.347"/>
	<rect x="295.433" y="295.173" style="fill:#546F7A;" width="79.347" height="79.347"/>
	<rect x="58.112" y="374.52" style="fill:#546F7A;" width="79.347" height="79.347"/>
	<rect x="216.326" y="374.52" style="fill:#546F7A;" width="79.347" height="79.347"/>
	<rect x="374.54" y="374.52" style="fill:#546F7A;" width="79.347" height="79.347"/>
</g>
<g>
	<rect x="137.219" y="215.826" style="fill:#E0E0E0;" width="79.347" height="79.347"/>
	<rect x="295.433" y="215.826" style="fill:#E0E0E0;" width="79.347" height="79.347"/>
	<rect x="58.112" y="295.173" style="fill:#E0E0E0;" width="79.347" height="79.347"/>
	<rect x="216.326" y="295.173" style="fill:#E0E0E0;" width="79.347" height="79.347"/>
	<rect x="374.54" y="295.173" style="fill:#E0E0E0;" width="79.347" height="79.347"/>
	<rect x="374.54" y="136.598" style="fill:#E0E0E0;" width="79.347" height="79.347"/>
	<rect x="137.219" y="374.52" style="fill:#E0E0E0;" width="79.347" height="79.347"/>
	<rect x="295.433" y="374.52" style="fill:#E0E0E0;" width="79.347" height="79.347"/>
	<rect x="137.219" y="57.131" style="fill:#E0E0E0;" width="79.347" height="79.347"/>
	<rect x="295.433" y="57.131" style="fill:#E0E0E0;" width="79.347" height="79.347"/>
	<rect x="58.112" y="136.478" style="fill:#E0E0E0;" width="79.347" height="79.347"/>
	<rect x="216.326" y="136.478" style="fill:#E0E0E0;" width="79.347" height="79.347"/>
</g>
<g>
	<path style="fill:#FFD039;" d="M504.495,438.229h-58.72c-4.146,0-7.505,3.359-7.505,7.505v58.721c0,4.146,3.359,7.505,7.505,7.505
		h58.72c4.146,0,7.505-3.359,7.505-7.505v-58.721C512,441.589,508.64,438.229,504.495,438.229z"/>
	<path style="fill:#FFD039;" d="M66.226,438.229H7.505c-4.146,0-7.505,3.359-7.505,7.505v58.721c0,4.146,3.359,7.505,7.505,7.505
		h58.72c4.146,0,7.505-3.359,7.505-7.505v-58.721C73.731,441.589,70.371,438.229,66.226,438.229z"/>
	<path style="fill:#FFD039;" d="M504.495,0.039h-58.72c-4.146,0-7.505,3.36-7.505,7.505v58.72c0,4.146,3.359,7.505,7.505,7.505
		h58.72c4.146,0,7.505-3.359,7.505-7.505V7.544C512,3.399,508.64,0.039,504.495,0.039z"/>
	<path style="fill:#FFD039;" d="M66.226,0.039H7.505C3.359,0.039,0,3.399,0,7.544v58.72c0,4.146,3.359,7.505,7.505,7.505h58.72
		c4.146,0,7.505-3.359,7.505-7.505V7.544C73.731,3.399,70.371,0.039,66.226,0.039z"/>
</g>
<g>
</g>
<g>
</g>
<g>
</g>
<g>
</g>
<g>
</g>
<g>
</g>
<g>
</g>
<g>
</g>
<g>
</g>
<g>
</g>
<g>
</g>
<g>
</g>
<g>
</g>
<g>
</g>
<g>
</g>
</svg>
