<?xml version="1.0" encoding="iso-8859-1"?>
<!-- Generator: Adobe Illustrator 19.0.0, SVG Export Plug-In . SVG Version: 6.00 Build 0)  -->
<svg version="1.1" id="Capa_1" xmlns="http://www.w3.org/2000/svg" xmlns:xlink="http://www.w3.org/1999/xlink" x="0px" y="0px"
	 viewBox="0 0 512 512" style="enable-background:new 0 0 512 512;" xml:space="preserve">
<path style="fill:#E0E0E0;" d="M489.511,50.992H22.488C10.088,50.992,0,61.081,0,73.481v365.038c0,12.4,10.088,22.488,22.488,22.488
	h467.023c12.401,0,22.488-10.089,22.488-22.488V73.481C512,61.081,501.912,50.992,489.511,50.992z"/>
<path style="fill:#C6C5CA;" d="M489.511,50.992h-32.043c12.401,0,22.488,10.089,22.488,22.488v365.038
	c0,12.4-10.088,22.488-22.488,22.488h32.043c12.401,0,22.488-10.089,22.488-22.488V73.481C512,61.081,501.912,50.992,489.511,50.992
	z"/>
<g>
	<path style="fill:#FFD039;" d="M156.858,370.886l-16.288-7.3c-5.073-2.274-9.12-6.32-11.393-11.392l-7.3-16.289
		c-1.208-2.696-3.887-4.431-6.84-4.431s-5.632,1.734-6.84,4.431l-7.3,16.289c-2.273,5.072-6.319,9.118-11.392,11.392l-16.289,7.3
		c-2.696,1.207-4.431,3.887-4.431,6.84s1.735,5.633,4.431,6.84l16.288,7.3c5.074,2.274,9.12,6.321,11.393,11.393l7.3,16.288
		c1.208,2.696,3.887,4.431,6.84,4.431s5.632-1.734,6.84-4.431l7.3-16.288c2.273-5.072,6.32-9.119,11.392-11.393l16.289-7.3
		c2.696-1.207,4.431-3.887,4.431-6.84C161.288,374.773,159.553,372.093,156.858,370.886z"/>
	<path style="fill:#FFD039;" d="M414.621,362.478l-16.288-7.3c-5.073-2.274-9.12-6.32-11.392-11.392l-7.3-16.289
		c-1.208-2.696-3.887-4.431-6.84-4.431c-2.954,0-5.632,1.734-6.84,4.431l-7.3,16.289c-2.273,5.072-6.32,9.118-11.392,11.392
		l-16.288,7.3c-2.696,1.207-4.431,3.887-4.431,6.84s1.735,5.633,4.431,6.84l16.288,7.3c5.073,2.274,9.12,6.321,11.393,11.393
		l7.3,16.288c1.208,2.696,3.887,4.431,6.84,4.431s5.632-1.734,6.84-4.431l7.301-16.289c2.273-5.071,6.319-9.118,11.392-11.392
		l16.289-7.3c2.696-1.207,4.431-3.887,4.431-6.84C419.052,366.365,417.316,363.685,414.621,362.478z"/>
	<path style="fill:#FFD039;" d="M471.848,207.799l-16.289-7.3c-5.072-2.273-9.118-6.32-11.392-11.392l-7.3-16.289
		c-1.208-2.696-3.887-4.431-6.841-4.431c-2.954,0-5.632,1.734-6.84,4.431l-7.3,16.289c-2.274,5.073-6.32,9.119-11.392,11.392
		l-16.288,7.3c-2.696,1.207-4.431,3.887-4.431,6.84c0,2.953,1.735,5.633,4.431,6.84l16.288,7.3
		c5.073,2.274,9.12,6.321,11.393,11.393l7.3,16.289c1.208,2.696,3.887,4.431,6.84,4.431c2.954,0,5.632-1.734,6.841-4.431l7.3-16.289
		c2.273-5.072,6.32-9.119,11.392-11.393l16.289-7.3c2.696-1.207,4.431-3.887,4.431-6.84
		C476.277,211.686,474.543,209.007,471.848,207.799z"/>
</g>
<path style="fill:#546F7A;" d="M489.511,50.992H22.488C10.069,50.992,0,61.061,0,73.481v67.433h512V73.481
	C512,61.061,501.932,50.992,489.511,50.992z"/>
<path style="fill:#475D63;" d="M489.511,50.992h-32.043c12.401,0,22.488,10.089,22.488,22.488v67.433H512V73.481
	C512,61.081,501.912,50.992,489.511,50.992z"/>
<path style="fill:#FF434D;" d="M53.031,107.791c-6.929,0-12.566-5.637-12.566-12.566c0-6.929,5.637-12.566,12.566-12.566
	c6.929,0,12.566,5.637,12.566,12.566C65.596,102.155,59.96,107.791,53.031,107.791z"/>
<path style="fill:#FFD039;" d="M90.629,107.791c-6.929,0-12.566-5.637-12.566-12.566c0-6.929,5.637-12.566,12.566-12.566
	c6.929,0,12.566,5.637,12.566,12.566C103.195,102.155,97.558,107.791,90.629,107.791z"/>
<path style="fill:#00B76C;" d="M128.226,107.791c-6.929,0-12.566-5.637-12.566-12.566c0-6.929,5.637-12.566,12.566-12.566
	c6.929,0,12.566,5.637,12.566,12.566C140.793,102.155,135.156,107.791,128.226,107.791z"/>
<path style="fill:#F75C6C;" d="M260.913,421.103l-63.479-151.254l27.49-69.031c0.92-2.309,0.635-4.923-0.76-6.979
	c-1.395-2.058-3.719-3.289-6.205-3.289h-21.126c-1.056,0-2.101,0.224-3.065,0.656l-15.261,6.84h-1.958l-1.364,1.595
	c-7.356,3.915-13.216,10.154-16.646,17.807l-0.955,2.131c-1.001-0.767-2.197-1.28-3.485-1.466c-2.544-0.37-5.095,0.593-6.766,2.545
	l-37.992,44.393c-2.45,2.863-2.395,7.098,0.129,9.895l138.966,154.08c1.466,1.625,3.506,2.476,5.57,2.476
	c1.382,0,2.776-0.382,4.014-1.167C261.105,428.374,262.329,424.473,260.913,421.103z"/>
<path style="fill:#DD3646;" d="M398.662,265.049l-61.514-71.878c-1.424-1.663-3.505-2.622-5.695-2.622h-41.41
	c-2.486,0-4.81,1.231-6.205,3.289c-1.394,2.057-1.679,4.672-0.76,6.979l27.49,69.031l-63.478,151.253
	c-1.414,3.37-0.192,7.27,2.895,9.229c1.238,0.786,2.632,1.167,4.014,1.167c2.064,0,4.104-0.851,5.57-2.476l138.964-154.079
	C401.057,272.147,401.112,267.912,398.662,265.049z"/>
<path style="fill:#FF434D;" d="M325.631,267.151l-28.624-71.878c-1.135-2.853-3.895-4.724-6.964-4.724H217.96
	c-3.069,0-5.828,1.871-6.964,4.724l-28.624,71.878c-0.727,1.825-0.708,3.862,0.052,5.674l64.611,153.953
	c0.718,1.804,2.132,3.33,4.064,4.142c0.948,0.397,1.931,0.586,2.898,0.586c0.002,0,0.004-0.001,0.008,0
	c0.966,0,1.95-0.189,2.898-0.586c1.933-0.812,3.347-2.339,4.065-4.144l64.61-153.951
	C326.339,271.013,326.358,268.976,325.631,267.151z"/>
<path style="fill:#FFD039;" d="M199.901,191.206l-16.288-7.3c-5.073-2.274-9.119-6.321-11.393-11.393l-7.3-16.289
	c-1.208-2.696-3.887-4.431-6.84-4.431c-2.954,0-5.632,1.734-6.84,4.431l-7.3,16.289c-2.274,5.072-6.32,9.119-11.392,11.393
	l-16.288,7.3c-2.696,1.207-4.431,3.887-4.431,6.84c0,2.953,1.735,5.633,4.431,6.84l16.289,7.3c5.072,2.273,9.118,6.32,11.392,11.392
	l7.3,16.289c1.208,2.696,3.887,4.431,6.84,4.431c2.954,0,5.632-1.734,6.84-4.431l7.3-16.289c2.274-5.072,6.32-9.119,11.392-11.392
	l16.289-7.3c2.696-1.207,4.431-3.887,4.431-6.84C204.331,195.092,202.596,192.412,199.901,191.206z"/>
<g>
</g>
<g>
</g>
<g>
</g>
<g>
</g>
<g>
</g>
<g>
</g>
<g>
</g>
<g>
</g>
<g>
</g>
<g>
</g>
<g>
</g>
<g>
</g>
<g>
</g>
<g>
</g>
<g>
</g>
</svg>
