<?xml version="1.0" encoding="iso-8859-1"?>
<!-- Generator: Adobe Illustrator 19.0.0, SVG Export Plug-In . SVG Version: 6.00 Build 0)  -->
<svg version="1.1" id="Capa_1" xmlns="http://www.w3.org/2000/svg" xmlns:xlink="http://www.w3.org/1999/xlink" x="0px" y="0px"
	 viewBox="0 0 512 512" style="enable-background:new 0 0 512 512;" xml:space="preserve">
<path style="fill:#919191;" d="M457.957,67.919H54.043c-20.636,0-37.423,16.788-37.423,37.423V382.55
	c0,4.135,3.351,7.485,7.485,7.485h463.791c4.134,0,7.485-3.35,7.485-7.485V105.342C495.38,84.706,478.592,67.919,457.957,67.919z"/>
<path style="fill:#727272;" d="M457.957,67.919h-32.858c20.636,0,37.423,16.788,37.423,37.423V382.55
	c0,4.135-3.351,7.485-7.485,7.485h32.858c4.134,0,7.485-3.35,7.485-7.485V105.342C495.38,84.706,478.592,67.919,457.957,67.919z"/>
<path style="fill:#39A4FA;" d="M447.648,109.48H64.352c-4.134,0-7.485,3.35-7.485,7.485v265.587c0,4.135,3.351,7.485,7.485,7.485
	h383.295c4.134,0,7.485-3.35,7.485-7.485V116.964C455.132,112.83,451.781,109.48,447.648,109.48z"/>
<path style="fill:#0091E2;" d="M447.648,109.48h-24.949v280.556h24.949c4.134,0,7.485-3.35,7.485-7.485V116.964
	C455.132,112.83,451.781,109.48,447.648,109.48z"/>
<polygon style="fill:#FFFFFF;" points="323.278,184.577 323.278,168.314 188.722,168.314 188.722,184.577 172.459,184.577 
	172.459,319.133 188.722,319.133 188.722,335.395 323.278,335.395 323.278,319.133 339.54,319.133 339.54,184.577 "/>
<path style="fill:#3A4D51;" d="M323.278,342.88H188.722c-4.134,0-7.485-3.35-7.485-7.485v-8.778h-8.777
	c-4.134,0-7.485-3.35-7.485-7.485V184.577c0-4.135,3.351-7.485,7.485-7.485h8.777v-8.777c0-4.135,3.351-7.485,7.485-7.485h134.556
	c4.134,0,7.485,3.35,7.485,7.485v8.777h8.777c4.134,0,7.485,3.35,7.485,7.485v134.556c0,4.135-3.351,7.485-7.485,7.485h-8.777v8.778
	C330.763,339.529,327.411,342.88,323.278,342.88z M196.207,327.911h119.586v-8.778c0-4.135,3.351-7.485,7.485-7.485h8.777V192.062
	h-8.777c-4.134,0-7.485-3.35-7.485-7.485V175.8H196.207v8.777c0,4.135-3.351,7.485-7.485,7.485h-8.777v119.586h8.777
	c4.134,0,7.485,3.35,7.485,7.485V327.911z"/>
<path style="fill:#E0E0E0;" d="M504.515,375.066H7.485c-4.134,0-7.485,3.35-7.485,7.485c0,33.929,27.603,61.531,61.531,61.531
	h388.938c33.929,0,61.531-27.603,61.531-61.531C512,378.417,508.649,375.066,504.515,375.066z"/>
<g>
	<path style="fill:#C6C5CA;" d="M504.515,375.066h-37.208c4.134,0,7.485,3.35,7.485,7.485c0,33.929-27.603,61.531-61.531,61.531
		h37.208c33.929,0,61.531-27.603,61.531-61.531C512,378.417,508.649,375.066,504.515,375.066z"/>
	<path style="fill:#C6C5CA;" d="M319.276,375.066H192.724c-4.134,0-7.485,3.35-7.485,7.485c0,17.715,14.413,32.126,32.127,32.126
		h77.268c17.715,0,32.127-14.412,32.127-32.126C326.761,378.417,323.41,375.066,319.276,375.066z"/>
</g>
<g>
	<path style="fill:#FFD039;" d="M188.722,144.568h-32.524c-4.134,0-7.485,3.35-7.485,7.485v32.524c0,4.135,3.351,7.485,7.485,7.485
		h32.524c4.134,0,7.485-3.35,7.485-7.485v-32.524C196.207,147.918,192.856,144.568,188.722,144.568z"/>
	<path style="fill:#FFD039;" d="M355.802,144.568h-32.524c-4.134,0-7.485,3.35-7.485,7.485v32.524c0,4.135,3.351,7.485,7.485,7.485
		h32.524c4.134,0,7.485-3.35,7.485-7.485v-32.524C363.287,147.918,359.936,144.568,355.802,144.568z"/>
	<path style="fill:#FFD039;" d="M355.802,311.648h-32.524c-4.134,0-7.485,3.35-7.485,7.485v32.524c0,4.135,3.351,7.485,7.485,7.485
		h32.524c4.134,0,7.485-3.35,7.485-7.485v-32.524C363.287,314.998,359.936,311.648,355.802,311.648z"/>
	<path style="fill:#FFD039;" d="M188.722,311.648h-32.524c-4.134,0-7.485,3.35-7.485,7.485v32.524c0,4.135,3.351,7.485,7.485,7.485
		h32.524c4.134,0,7.485-3.35,7.485-7.485v-32.524C196.207,314.998,192.856,311.648,188.722,311.648z"/>
</g>
<g>
</g>
<g>
</g>
<g>
</g>
<g>
</g>
<g>
</g>
<g>
</g>
<g>
</g>
<g>
</g>
<g>
</g>
<g>
</g>
<g>
</g>
<g>
</g>
<g>
</g>
<g>
</g>
<g>
</g>
</svg>
