<?xml version="1.0" encoding="iso-8859-1"?>
<!-- Generator: Adobe Illustrator 19.0.0, SVG Export Plug-In . SVG Version: 6.00 Build 0)  -->
<svg version="1.1" id="Capa_1" xmlns="http://www.w3.org/2000/svg" xmlns:xlink="http://www.w3.org/1999/xlink" x="0px" y="0px"
	 viewBox="0 0 512 512" style="enable-background:new 0 0 512 512;" xml:space="preserve">
<path style="fill:#919191;" d="M458.055,130.973l-403.913-0.249c-20.636-0.013-37.433,16.765-37.446,37.401l-0.172,277.208
	c-0.003,4.135,3.346,7.487,7.48,7.49l463.791,0.287c4.135,0.003,7.487-3.346,7.49-7.48l0.172-277.208
	C495.469,147.784,478.691,130.986,458.055,130.973z"/>
<g>
	<path style="fill:#727272;" d="M458.055,130.973h-32.474c20.636,0.013,37.413,16.812,37.401,37.446l-0.172,277.208
		c-0.002,4-3.144,7.255-7.091,7.46l32.076,0.02c4.135,0.003,7.487-3.346,7.49-7.48l0.172-277.208
		C495.469,147.784,478.691,130.986,458.055,130.973z"/>
	<path style="fill:#727272;" d="M141.67,233.748c0.013,0.02,0.025,0.039,0.038,0.058c0.326,0.502,0.651,1.004,0.985,1.5
		c38.736,59.064,51.994,96.23,51.994,96.23h0.263v40.289v25.821c0,9.974,8.084,18.058,18.058,18.058h41.487
		c-9.974,0-18.058-8.085-18.058-18.058v-25.821v-40.289l0,0c0,0-13.521-37.166-52.257-96.23c-0.334-0.496-0.659-0.999-0.985-1.5
		c-0.013-0.02-0.025-0.039-0.038-0.058c-11.042-17.022-17.464-37.343-17.464-59.17c0-12.711,4.617-32.519,8.615-43.854H132.82
		c-3.999,11.336-8.615,31.143-8.615,43.854C124.206,196.406,130.628,216.726,141.67,233.748z"/>
</g>
<path style="fill:#39A4FA;" d="M447.649,172.408H64.351c-4.135,0-7.485,3.35-7.485,7.485V445.48c0,4.135,3.35,7.485,7.485,7.485
	h383.296c4.134,0,7.485-3.35,7.485-7.485V179.893C455.133,175.76,451.782,172.408,447.649,172.408z"/>
<g>
	<path style="fill:#0091E2;" d="M124.253,172.408c-0.027,0.74-0.047,1.47-0.047,2.17c0,21.828,6.422,42.148,17.464,59.17
		c0.013,0.02,0.025,0.039,0.038,0.058c0.326,0.502,0.651,1.004,0.985,1.5c38.736,59.064,51.994,96.23,51.994,96.23h0.263v40.289
		v25.821c0,9.974,8.084,18.058,18.058,18.058h41.487c-9.974,0-18.058-8.085-18.058-18.058v-25.821v-40.289
		c0,0-13.521-37.166-52.257-96.23c-0.334-0.496-0.659-0.999-0.985-1.5c-0.013-0.02-0.025-0.039-0.038-0.058
		c-11.042-17.022-17.464-37.343-17.464-59.17c0-0.7,0.019-1.429,0.047-2.17L124.253,172.408L124.253,172.408z"/>
	<path style="fill:#0091E2;" d="M447.649,172.408h-24.95v280.556h24.95c4.134,0,7.485-3.35,7.485-7.485V179.893
		C455.133,175.76,451.782,172.408,447.649,172.408z"/>
</g>
<path style="fill:#E0E0E0;" d="M504.515,437.995H7.485c-4.135,0-7.485,3.35-7.485,7.485c0,33.929,27.603,61.531,61.531,61.531
	h388.938c33.929,0,61.531-27.603,61.531-61.531C512,441.346,508.649,437.995,504.515,437.995z"/>
<path style="fill:#C6C5CA;" d="M504.515,437.995h-37.891c4.135,0,7.485,3.35,7.485,7.485c0,33.929-27.603,61.531-61.531,61.531
	h37.891c33.929,0,61.531-27.603,61.531-61.531C512,441.346,508.649,437.995,504.515,437.995z"/>
<path style="fill:#FF434D;" d="M257.324,58.511c-63.771,0-115.653,52.068-115.653,116.067c0,22.548,6.456,44.417,18.713,63.311
	l0.149,0.228c0.298,0.46,0.598,0.92,0.852,1.296c37.682,57.456,51.074,94.28,51.202,94.639c1.063,2.98,3.886,4.97,7.051,4.97h75.376
	c3.165,0,5.987-1.99,7.05-4.97c0.129-0.362,13.395-36.99,51.15-94.562c0.306-0.454,0.605-0.914,0.903-1.374l0.188-0.288
	c0.001-0.002,0.003-0.004,0.004-0.006c12.214-18.827,18.67-40.696,18.67-63.244C372.977,110.579,321.095,58.511,257.324,58.511z
	 M348.028,233.748L348.028,233.748L348.028,233.748L348.028,233.748z"/>
<path style="fill:#DD3646;" d="M257.324,58.511c-5.137,0-10.197,0.342-15.16,0.998c56.633,7.475,100.493,56.226,100.493,115.069
	c0,22.548-6.456,44.417-18.67,63.244c-0.001,0.002-0.003,0.004-0.004,0.006l-0.189,0.288c-0.298,0.46-0.598,0.92-0.903,1.374
	c-37.756,57.571-51.022,94.199-51.15,94.562c-1.063,2.98-3.886,4.97-7.05,4.97h30.32c3.165,0,5.987-1.99,7.05-4.97
	c0.129-0.362,13.395-36.99,51.15-94.562c0.306-0.454,0.605-0.914,0.903-1.374l0.188-0.288c0.001-0.002,0.003-0.004,0.004-0.006
	c12.214-18.827,18.67-40.696,18.67-63.244C372.977,110.579,321.095,58.511,257.324,58.511z"/>
<path style="fill:#C6C5CA;" d="M319.276,437.995H192.723c-4.135,0-7.485,3.35-7.485,7.485c0,17.715,14.412,32.126,32.127,32.126
	h77.268c17.715,0,32.126-14.412,32.126-32.126C326.761,441.346,323.41,437.995,319.276,437.995z"/>
<path style="fill:#FFD039;" d="M212.419,216.05c0,0.027-0.004,0.054-0.004,0.081v115.406c0,4.135,3.35,7.485,7.485,7.485h74.85
	c4.135,0,7.485-3.35,7.485-7.485V216.132c0-0.027-0.004-0.054-0.004-0.081h-89.811V216.05z"/>
<path style="fill:#FFC89F;" d="M302.18,216.05c0-1.101-0.228-2.204-0.718-3.228l-37.386-78.182c-1.243-2.6-3.87-4.256-6.753-4.256
	c-2.883,0-5.509,1.656-6.753,4.256l-37.387,78.182c-0.489,1.024-0.718,2.128-0.718,3.228L302.18,216.05L302.18,216.05z"/>
<path style="fill:#F7B081;" d="M264.077,134.641c-1.243-2.6-3.87-4.256-6.753-4.256c-2.883,0-5.509,1.656-6.753,4.256l-9.372,19.597
	l29.559,61.813h31.421c0-1.101-0.228-2.204-0.718-3.228L264.077,134.641z"/>
<path style="fill:#FFA304;" d="M270.797,339.022h23.951c4.135,0,7.485-3.35,7.485-7.485V216.132l0,0h-31.436V339.022z"/>
<path style="fill:#3C5156;" d="M286.647,181.838l-22.57-47.198c-1.243-2.6-3.87-4.256-6.753-4.256c-2.883,0-5.509,1.656-6.753,4.256
	l-22.57,47.198H286.647z"/>
<path style="fill:#304144;" d="M254.399,181.838h32.248l-22.57-47.198c-1.243-2.6-3.87-4.256-6.753-4.256
	c-2.883,0-5.509,1.656-6.753,4.256l-9.372,19.597L254.399,181.838z"/>
<g>
	<path style="fill:#FF6137;" d="M257.325,47.94c-4.135,0-7.485-3.35-7.485-7.485V12.473c0-4.135,3.35-7.485,7.485-7.485
		c4.135,0,7.485,3.35,7.485,7.485v27.982C264.81,44.589,261.458,47.94,257.325,47.94z"/>
	<path style="fill:#FF6137;" d="M370.919,95.065c-2.598,0-5.121-1.352-6.504-3.768c-2.053-3.589-0.808-8.161,2.779-10.213
		l24.288-13.895c3.589-2.054,8.161-0.809,10.213,2.779c2.053,3.589,0.808,8.161-2.779,10.213l-24.288,13.895
		C373.457,94.746,372.179,95.065,370.919,95.065z"/>
	<path style="fill:#FF6137;" d="M321.921,60.127c-1.587,0-3.186-0.503-4.545-1.542c-3.282-2.514-3.905-7.211-1.392-10.494
		l17.011-22.217c2.512-3.282,7.21-3.904,10.494-1.393c3.282,2.514,3.905,7.211,1.393,10.494L327.87,57.193
		C326.397,59.118,324.171,60.127,321.921,60.127z"/>
	<path style="fill:#FF6137;" d="M141.079,95.065c-1.26,0-2.538-0.318-3.71-0.989l-24.287-13.895
		c-3.588-2.053-4.832-6.625-2.779-10.213c2.053-3.588,6.624-4.833,10.213-2.779l24.288,13.895c3.588,2.053,4.832,6.625,2.779,10.213
		C146.201,93.711,143.677,95.065,141.079,95.065z"/>
	<path style="fill:#FF6137;" d="M190.079,60.127c-2.25,0-4.475-1.01-5.949-2.934l-17.012-22.217
		c-2.513-3.281-1.89-7.98,1.392-10.494c3.283-2.512,7.981-1.889,10.494,1.393l17.012,22.217c2.513,3.281,1.889,7.98-1.393,10.494
		C193.266,59.625,191.666,60.127,190.079,60.127z"/>
	<path style="fill:#FF6137;" d="M302.234,324.052h-89.819v40.289c0,4.134,3.351,7.485,7.485,7.485h74.85
		c4.134,0,7.485-3.351,7.485-7.485V324.052z"/>
</g>
<path style="fill:#E04F32;" d="M270.797,371.826h23.951c4.134,0,7.485-3.351,7.485-7.485v-40.289h-31.436V371.826z"/>
<path style="fill:#546F7A;" d="M302.234,356.856h-89.819v33.305c0,14.107,11.437,25.544,25.544,25.544h38.732
	c14.107,0,25.544-11.437,25.544-25.544L302.234,356.856L302.234,356.856z"/>
<path style="fill:#475D63;" d="M270.901,356.856v33.305c0,14.107-11.437,25.544-25.544,25.544h31.332
	c14.107,0,25.544-11.437,25.544-25.544v-33.305H270.901z"/>
<g>
</g>
<g>
</g>
<g>
</g>
<g>
</g>
<g>
</g>
<g>
</g>
<g>
</g>
<g>
</g>
<g>
</g>
<g>
</g>
<g>
</g>
<g>
</g>
<g>
</g>
<g>
</g>
<g>
</g>
</svg>
