<?xml version="1.0" encoding="iso-8859-1"?>
<!-- Generator: Adobe Illustrator 19.0.0, SVG Export Plug-In . SVG Version: 6.00 Build 0)  -->
<svg version="1.1" id="Capa_1" xmlns="http://www.w3.org/2000/svg" xmlns:xlink="http://www.w3.org/1999/xlink" x="0px" y="0px"
	 viewBox="0 0 512.001 512.001" style="enable-background:new 0 0 512.001 512.001;" xml:space="preserve">
<path style="fill:#E0E0E0;" d="M442.368,0H69.633c-4.142,0-7.501,3.357-7.501,7.501v409.176c0,1.989,0.79,3.897,2.197,5.305
	l87.823,87.824c1.406,1.406,3.314,2.196,5.304,2.196h284.912c4.143,0,7.501-3.357,7.501-7.501V7.501
	C449.869,3.357,446.511,0,442.368,0z"/>
<path style="fill:#C6C5CA;" d="M442.368,0h-25.003v512h25.003c4.143,0,7.501-3.357,7.501-7.501V7.501
	C449.869,3.357,446.511,0,442.368,0z"/>
<path style="fill:#919191;" d="M157.456,409.177H69.633c-3.034,0-5.769,1.827-6.93,4.631c-1.161,2.803-0.519,6.029,1.626,8.175
	l87.823,87.823c1.435,1.434,3.353,2.196,5.306,2.196c0.966,0,1.941-0.187,2.869-0.571c2.803-1.16,4.631-3.896,4.631-6.93v-87.823
	C164.957,412.534,161.598,409.177,157.456,409.177z"/>
<path style="fill:#FFFFFF;" d="M395.792,231.4c-0.632-0.896-15.757-22.215-40.331-43.794c-33.036-29.009-67.428-44.343-99.46-44.343
	c-32.031,0-66.423,15.334-99.46,44.343c-24.575,21.578-39.699,42.898-40.33,43.794c-1.825,2.591-1.825,6.049,0,8.64
	c0.631,0.896,15.756,22.215,40.33,43.794c33.037,29.009,67.428,44.342,99.46,44.342s66.424-15.333,99.46-44.342
	c24.575-21.578,39.699-42.898,40.331-43.794C397.616,237.449,397.616,233.992,395.792,231.4z"/>
<path style="fill:#546F7A;" d="M256.001,174.014c-34.025,0-61.706,27.681-61.706,61.706s27.681,61.705,61.706,61.705
	s61.706-27.681,61.706-61.705C317.706,201.695,290.025,174.014,256.001,174.014z"/>
<circle style="fill:#3C5156;" cx="255.999" cy="235.716" r="31.013"/>
<g>
</g>
<g>
</g>
<g>
</g>
<g>
</g>
<g>
</g>
<g>
</g>
<g>
</g>
<g>
</g>
<g>
</g>
<g>
</g>
<g>
</g>
<g>
</g>
<g>
</g>
<g>
</g>
<g>
</g>
</svg>
