<?xml version="1.0" encoding="iso-8859-1"?>
<!-- Generator: Adobe Illustrator 19.0.0, SVG Export Plug-In . SVG Version: 6.00 Build 0)  -->
<svg version="1.1" id="Capa_1" xmlns="http://www.w3.org/2000/svg" xmlns:xlink="http://www.w3.org/1999/xlink" x="0px" y="0px"
	 viewBox="0 0 511.999 511.999" style="enable-background:new 0 0 511.999 511.999;" xml:space="preserve">
<path style="fill:#FFD039;" d="M322.82,84.435c0,0.027-0.004,0.052-0.004,0.079v98.365c0,4.146,3.36,7.505,7.505,7.505h78.01
	c4.145,0,7.505-3.359,7.505-7.505V84.514c0-0.027-0.004-0.052-0.004-0.079H322.82z"/>
<path style="fill:#FFC89F;" d="M415.781,84.435c0-1.16-0.255-2.322-0.797-3.391l-38.964-76.93C374.742,1.591,372.154,0,369.326,0
	c-2.829,0-5.417,1.591-6.695,4.114l-38.965,76.93c-0.541,1.069-0.797,2.23-0.797,3.391H415.781z"/>
<path style="fill:#FF6137;" d="M180.237,33.13c-8.623-15.846-17.105-29.116-17.462-29.673C161.395,1.303,159.013,0,156.455,0
	s-4.94,1.303-6.319,3.457c-0.357,0.557-8.839,13.827-17.462,29.673C114.57,66.393,114.57,76.763,114.57,80.171
	c0,13.977,6.934,26.98,18.549,34.785c1.238,0.832,2.695,1.275,4.186,1.275h38.3c1.491,0,2.948-0.443,4.186-1.275
	c11.614-7.805,18.549-20.808,18.549-34.785C198.339,76.764,198.339,66.394,180.237,33.13z"/>
<path style="fill:#E04F32;" d="M180.237,33.13c-8.623-15.846-17.105-29.116-17.462-29.673C161.395,1.303,159.013,0,156.455,0
	s-4.94,1.303-6.319,3.457c-0.25,0.389-4.475,7-9.94,16.357c2.35,4.024,4.928,8.551,7.522,13.315
	c18.103,33.263,18.103,43.633,18.103,47.041c0,13.977-6.934,26.98-18.549,34.785c-1.238,0.832-2.695,1.275-4.186,1.275h32.521
	c1.491,0,2.948-0.443,4.186-1.275c11.614-7.805,18.549-20.808,18.549-34.785C198.339,76.764,198.339,66.394,180.237,33.13z"/>
<path style="fill:#FFAE47;" d="M198.247,182.877l-7.502-47.256c-0.578-3.645-3.721-6.328-7.412-6.328h-53.758
	c-3.69,0-6.833,2.684-7.412,6.328l-7.502,47.256c-0.344,2.168,0.278,4.38,1.704,6.05c1.426,1.67,3.512,2.632,5.708,2.632h68.761
	c2.195,0,4.282-0.962,5.708-2.632C197.968,187.257,198.592,185.045,198.247,182.877z"/>
<path style="fill:#E29440;" d="M167.011,191.558h23.824c2.195,0,4.282-0.962,5.708-2.632c1.426-1.67,2.048-3.881,1.704-6.05
	l-7.502-47.256c-0.578-3.645-3.721-6.328-7.412-6.328h-26.208L167.011,191.558z"/>
<path style="fill:#E0E0E0;" d="M190.835,101.221h-68.761c-4.145,0-7.505,3.359-7.505,7.505v28.072c0,4.146,3.36,7.505,7.505,7.505
	h68.761c4.145,0,7.505-3.359,7.505-7.505v-28.072C198.339,104.581,194.979,101.221,190.835,101.221z"/>
<path style="fill:#C6C5CA;" d="M190.835,101.221h-25.016v43.081h25.016c4.145,0,7.505-3.359,7.505-7.505v-28.072
	C198.339,104.581,194.979,101.221,190.835,101.221z"/>
<g>
	<path style="fill:#FFD039;" d="M300.574,0h-77.027c-4.145,0-7.505,3.359-7.505,7.505v176.548c0,4.146,3.36,7.505,7.505,7.505
		h77.027c4.145,0,7.505-3.359,7.505-7.505V7.505C308.079,3.359,304.719,0,300.574,0z"/>
	<path style="fill:#FFD039;" d="M507.459,40.072l-16.306-7.309c-5.079-2.276-9.131-6.327-11.406-11.405l-7.309-16.307
		c-1.21-2.699-3.891-4.436-6.848-4.436c-2.957,0-5.639,1.736-6.848,4.436l-7.309,16.307c-2.275,5.078-6.327,9.129-11.405,11.405
		l-16.307,7.309c-2.699,1.209-4.436,3.891-4.436,6.848c0,2.957,1.737,5.64,4.436,6.848l16.306,7.309
		c5.079,2.276,9.13,6.327,11.405,11.405l7.309,16.307c1.21,2.699,3.891,4.436,6.848,4.436c2.957,0,5.639-1.736,6.848-4.436
		l7.309-16.307c2.275-5.078,6.327-9.129,11.405-11.405l16.306-7.309c2.699-1.209,4.436-3.891,4.436-6.848
		C511.893,43.964,510.156,41.281,507.459,40.072z"/>
</g>
<path style="fill:#FFA304;" d="M300.574,0h-25.016v191.558h25.016c4.145,0,7.505-3.359,7.505-7.505V7.505
	C308.079,3.359,304.719,0,300.574,0z"/>
<path style="fill:#F7B081;" d="M376.021,4.114C374.742,1.591,372.154,0,369.326,0c-2.829,0-5.417,1.591-6.695,4.114l-10.019,19.782
	l30.662,60.539h32.508c0-1.16-0.255-2.322-0.797-3.391L376.021,4.114z"/>
<path style="fill:#FFA304;" d="M383.415,84.465l-0.218,105.919h25.134c4.145,0,7.505-3.359,7.505-7.505V84.532L383.415,84.465z"/>
<path style="fill:#3C5156;" d="M376.021,4.114C374.742,1.591,372.154,0,369.326,0c-2.829,0-5.417,1.591-6.695,4.114l-23.566,46.529
	c0.86,0.169,1.746,0.267,2.652,0.267h55.22c0.906,0,1.792-0.098,2.652-0.267L376.021,4.114z"/>
<path style="fill:#304144;" d="M366.294,50.91h30.641c0.906,0,1.792-0.098,2.652-0.267l-23.566-46.53
	C374.742,1.591,372.154,0,369.326,0c-2.829,0-5.417,1.591-6.695,4.114l-10.019,19.782L366.294,50.91z"/>
<g>
	<path style="fill:#C96E14;" d="M308.079,147.612h-40.731c-4.145,0-7.505,3.359-7.505,7.505c0,4.146,3.36,7.505,7.505,7.505h40.731
		V147.612z"/>
	<path style="fill:#C96E14;" d="M308.079,114.196h-31.166c-4.145,0-7.505,3.359-7.505,7.505s3.36,7.505,7.505,7.505h31.166V114.196z
		"/>
	<path style="fill:#C96E14;" d="M308.079,80.781h-40.731c-4.145,0-7.505,3.359-7.505,7.505s3.36,7.505,7.505,7.505h40.731V80.781z"
		/>
	<path style="fill:#C96E14;" d="M308.079,47.367h-31.166c-4.145,0-7.505,3.359-7.505,7.505s3.36,7.505,7.505,7.505h31.166V47.367z"
		/>
</g>
<path style="fill:#FFC89F;" d="M394.094,383.374c49.762-72.798,75.12-140.217,75.372-200.417c0.008-1.995-0.779-3.912-2.187-5.326
	c-1.408-1.414-3.322-2.209-5.317-2.209H89.433c-3.1,0-5.881,1.905-6.999,4.796c-11.283,29.159-32.215,79.818-43.689,107.419
	c-2.478,5.96-1.819,12.724,1.763,18.092c3.584,5.371,9.581,8.578,16.041,8.578h23.61c3.449,17.787,13.724,68.946,21.74,90.107
	c7.524,19.865,25.312,31.441,51.442,33.479c10.939,0.853,21.1-0.151,27.746-1.156l12.242,69.066c0.635,3.584,3.75,6.195,7.39,6.195
	h204.498c2.19,0,4.272-0.957,5.698-2.62c1.426-1.663,2.053-3.865,1.719-6.031L394.094,383.374z"/>
<path style="fill:#F7B081;" d="M394.094,383.374c49.762-72.798,75.12-140.217,75.372-200.417c0.008-1.995-0.779-3.912-2.187-5.326
	c-1.408-1.414-3.322-2.209-5.317-2.209h-33.192c1.996,0,3.909,0.796,5.317,2.209s2.195,3.331,2.187,5.326
	c-0.252,60.2-25.61,127.619-75.372,200.417l18.537,119.974c0.334,2.165-0.293,4.368-1.719,6.031c-1.426,1.663-3.507,2.62-5.698,2.62
	h33.192c2.19,0,4.272-0.957,5.698-2.62c1.426-1.663,2.053-3.865,1.719-6.031L394.094,383.374z"/>
<path style="fill:#FFA304;" d="M308.583,263.334l-18.263-8.185c-5.89-2.641-10.588-7.338-13.226-13.227l-8.185-18.263
	c-1.21-2.699-3.891-4.436-6.848-4.436c-2.958,0-5.639,1.736-6.848,4.436l-8.185,18.263c-2.64,5.89-7.337,10.587-13.226,13.227
	l-18.264,8.185c-2.699,1.209-4.436,3.891-4.436,6.848c0,2.957,1.737,5.64,4.436,6.848l18.264,8.185
	c5.89,2.641,10.587,7.338,13.226,13.227l8.185,18.263c1.21,2.699,3.891,4.436,6.848,4.436c2.958,0,5.639-1.736,6.848-4.436
	l8.185-18.263c2.64-5.89,7.337-10.587,13.226-13.227l18.263-8.185c2.699-1.209,4.436-3.891,4.436-6.848
	C313.018,267.226,311.281,264.543,308.583,263.334z"/>
<path style="fill:#FFD039;" d="M97.588,72.644l-18.264-8.185c-5.89-2.641-10.587-7.338-13.226-13.227l-8.185-18.263
	c-1.209-2.699-3.89-4.436-6.848-4.436c-2.957,0-5.639,1.736-6.848,4.436l-8.185,18.263c-2.64,5.89-7.337,10.588-13.226,13.227
	L4.542,72.644c-2.699,1.209-4.436,3.891-4.436,6.848s1.737,5.64,4.436,6.848l18.263,8.185c5.89,2.64,10.587,7.338,13.226,13.227
	l8.185,18.263c1.21,2.699,3.891,4.436,6.848,4.436s5.639-1.736,6.848-4.436l8.186-18.263c2.64-5.89,7.336-10.587,13.226-13.227
	l18.264-8.185c2.699-1.209,4.436-3.891,4.436-6.848S100.287,73.853,97.588,72.644z"/>
<g>
</g>
<g>
</g>
<g>
</g>
<g>
</g>
<g>
</g>
<g>
</g>
<g>
</g>
<g>
</g>
<g>
</g>
<g>
</g>
<g>
</g>
<g>
</g>
<g>
</g>
<g>
</g>
<g>
</g>
</svg>
