<?xml version="1.0" encoding="iso-8859-1"?>
<!-- Generator: Adobe Illustrator 19.0.0, SVG Export Plug-In . SVG Version: 6.00 Build 0)  -->
<svg version="1.1" id="Capa_1" xmlns="http://www.w3.org/2000/svg" xmlns:xlink="http://www.w3.org/1999/xlink" x="0px" y="0px"
	 viewBox="0 0 512.001 512.001" style="enable-background:new 0 0 512.001 512.001;" xml:space="preserve">
<circle style="fill:#FF434D;" cx="245.886" cy="266.785" r="245.215"/>
<circle style="fill:#E0E0E0;" cx="245.886" cy="266.785" r="183.346"/>
<circle style="fill:#FF434D;" cx="245.886" cy="266.785" r="123.418"/>
<path style="fill:#DD3646;" d="M245.887,21.567c-5.552,0-11.056,0.203-16.516,0.566c127.725,8.497,228.701,114.773,228.701,244.65
	S357.096,502.936,229.37,511.433c5.461,0.363,10.964,0.566,16.516,0.566c135.43,0,245.216-109.788,245.216-245.216
	S381.317,21.567,245.887,21.567z"/>
<circle style="fill:#E0E0E0;" cx="245.886" cy="266.785" r="62.069"/>
<g>
	<path style="fill:#FFC89F;" d="M243.645,210.195c-0.003,0.007-0.007,0.014-0.009,0.021l-26.137,74.043
		c-0.962,2.725-0.273,5.76,1.77,7.804c1.433,1.432,3.351,2.198,5.307,2.198c0.837,0,1.681-0.14,2.496-0.428l74.043-26.137
		c0.015-0.005,0.029-0.013,0.044-0.019L243.645,210.195z"/>
	<path style="fill:#FFC89F;" d="M301.198,267.659c0.599-0.219,1.16-0.51,1.673-0.863L301.198,267.659z"/>
</g>
<path style="fill:#F7B081;" d="M224.575,294.26c0.837,0,1.681-0.14,2.496-0.428l74.043-26.137c0.015-0.005,0.029-0.013,0.044-0.019
	l-22.494-22.482l-54.12,19.104l-7.045,19.959c-0.962,2.725-0.273,5.76,1.77,7.804C220.7,293.493,222.618,294.26,224.575,294.26z"/>
<path style="fill:#3C5156;" d="M227.071,293.832L272.6,277.76l-38.934-39.3l-16.167,45.798c-0.962,2.725-0.273,5.76,1.77,7.804
	c1.433,1.432,3.351,2.198,5.307,2.198C225.412,294.26,226.255,294.12,227.071,293.832z"/>
<path style="fill:#304144;" d="M250.267,255.219l-25.723,9.08l-7.045,19.959c-0.962,2.725-0.273,5.76,1.77,7.804
	c1.433,1.432,3.351,2.198,5.307,2.198c0.837,0,1.681-0.14,2.496-0.428l45.528-16.072L250.267,255.219z"/>
<path style="fill:#FFD039;" d="M464.151,95.136L416.195,47.18c-2.931-2.93-7.682-2.93-10.613,0l-160.15,160.151
	c-0.785,0.786-1.415,1.814-1.789,2.861l57.517,57.485c1.067-0.371,2.039-0.98,2.839-1.781l160.15-160.15
	C467.08,102.817,467.08,98.066,464.151,95.136z"/>
<path style="fill:#FFAE47;" d="M464.152,105.746c2.928-2.93,2.927-7.68-0.002-10.61L446.47,77.456L278.757,245.171l-0.088,0.023
	l8.414,8.414l14.078,14.07c1.067-0.371,2.039-0.98,2.838-1.78L464.152,105.746z"/>
<rect x="422.882" y="24.236" transform="matrix(0.7071 -0.7071 0.7071 0.7071 84.1132 334.3674)" style="fill:#FF6137;" width="45.584" height="82.828"/>
<rect x="440.667" y="67.186" transform="matrix(-0.7071 0.7071 -0.7071 -0.7071 850.1766 -185.2684)" style="fill:#E04F32;" width="45.584" height="32.515"/>
<path style="fill:#546F7A;" d="M504.352,31.794L479.536,6.979c-9.305-9.305-24.448-9.305-33.752,0L427.203,25.56
	c0,0-0.001,0.001-0.002,0.002l-5.417,5.417l58.68,58.455l13.924-13.924l9.965-9.965C513.656,56.24,513.656,41.1,504.352,31.794z"/>
<path style="fill:#3C5156;" d="M504.352,31.794l-23.04-22.939c9.304,9.305,9.304,24.447,0,33.751l-9.965,9.965l-13.917,13.917
	l23.034,22.946l13.924-13.924l9.965-9.965C513.656,56.24,513.656,41.1,504.352,31.794z"/>
<g>
</g>
<g>
</g>
<g>
</g>
<g>
</g>
<g>
</g>
<g>
</g>
<g>
</g>
<g>
</g>
<g>
</g>
<g>
</g>
<g>
</g>
<g>
</g>
<g>
</g>
<g>
</g>
<g>
</g>
</svg>
