<?xml version="1.0" encoding="iso-8859-1"?>
<!-- Generator: Adobe Illustrator 19.0.0, SVG Export Plug-In . SVG Version: 6.00 Build 0)  -->
<svg version="1.1" id="Capa_1" xmlns="http://www.w3.org/2000/svg" xmlns:xlink="http://www.w3.org/1999/xlink" x="0px" y="0px"
	 viewBox="0 0 512 512" style="enable-background:new 0 0 512 512;" xml:space="preserve">
<path style="fill:#E0E0E0;" d="M222.005,353.89C100.875,342.635,7.518,271.592,7.518,185.631
	C7.518,91.847,118.64,15.82,255.716,15.82s248.198,76.027,248.198,169.811c0,46.766-27.632,89.118-72.335,119.827"/>
<circle style="fill:#B2B1B5;" cx="89.878" cy="269.002" r="35.306"/>
<path style="fill:#3A4D51;" d="M435.463,59.351c-48.116-32.92-111.951-51.05-179.747-51.05s-131.632,18.13-179.748,51.05
	C26.979,92.868,0,137.716,0,185.631c0,43.701,22.987,85.635,64.724,118.08c5.432,4.223,11.141,8.24,17.084,12.057
	c18.317,13.353,64.107,54.584,58.82,86.749c-2.851,17.342-20.41,31.163-52.192,41.08c-3.964,1.237-6.174,5.452-4.937,9.417
	c1.003,3.218,3.972,5.281,7.174,5.281c0.741,0,1.496-0.11,2.241-0.343c37.667-11.753,58.713-29.591,62.552-53.015
	c3.734-22.776-10.038-46.29-25.863-64.949c28.132,11.041,59.228,18.37,91.703,21.387c0.236,0.022,0.471,0.033,0.704,0.033
	c3.838,0,7.115-2.925,7.477-6.824c0.384-4.135-2.655-7.797-6.79-8.182c-44.724-4.155-86.601-16.794-121.064-36.232
	c17.913-5.122,31.067-21.632,31.067-41.168c0-23.612-19.21-42.822-42.823-42.822c-22.747,0-41.4,17.829-42.737,40.244
	c-20.891-24.456-32.105-52.292-32.105-80.795c0-89.489,107.968-162.293,240.68-162.293s240.68,72.804,240.68,162.293
	c0,42.675-24.531,83.03-69.074,113.631c-3.422,2.351-4.29,7.031-1.94,10.453c2.352,3.423,7.031,4.293,10.454,1.94
	c48.749-33.49,75.596-78.247,75.596-126.024C511.432,137.716,484.452,92.869,435.463,59.351z M89.88,241.218
	c15.321,0,27.786,12.465,27.786,27.785s-12.465,27.785-27.786,27.785s-27.786-12.465-27.786-27.785S74.559,241.218,89.88,241.218z"
	/>
<path style="fill:#FF434D;" d="M509.602,367.774L226.942,104.815c-2.19-2.037-5.378-2.583-8.124-1.388
	c-2.742,1.194-4.516,3.901-4.516,6.893V496.18c0,3.011,1.796,5.732,4.566,6.915c0.951,0.406,1.955,0.603,2.95,0.603
	c1.901,0,3.774-0.721,5.201-2.087l116.653-111.678l161.234-9.149c3.008-0.17,5.623-2.12,6.646-4.954
	C512.576,372.997,511.807,369.826,509.602,367.774z"/>
<path style="fill:#DD3646;" d="M511.553,375.831c1.023-2.834,0.255-6.005-1.951-8.056l-22.463-20.898l-160.588,9.112
	l-112.249,107.46v32.731c0,3.011,1.796,5.732,4.566,6.915c0.951,0.406,1.955,0.603,2.95,0.603c1.901,0,3.774-0.721,5.201-2.087
	l116.653-111.678l161.234-9.149C507.915,380.614,510.53,378.665,511.553,375.831z"/>
<g>
</g>
<g>
</g>
<g>
</g>
<g>
</g>
<g>
</g>
<g>
</g>
<g>
</g>
<g>
</g>
<g>
</g>
<g>
</g>
<g>
</g>
<g>
</g>
<g>
</g>
<g>
</g>
<g>
</g>
</svg>
