<?xml version="1.0" encoding="iso-8859-1"?>
<!-- Generator: Adobe Illustrator 19.0.0, SVG Export Plug-In . SVG Version: 6.00 Build 0)  -->
<svg version="1.1" id="Capa_1" xmlns="http://www.w3.org/2000/svg" xmlns:xlink="http://www.w3.org/1999/xlink" x="0px" y="0px"
	 viewBox="0 0 512 512" style="enable-background:new 0 0 512 512;" xml:space="preserve">
<path style="fill:#919191;" d="M330.213,471.572l-6.002-52.285c-0.435-3.787-3.641-6.647-7.454-6.647H195.243
	c-3.812,0-7.019,2.859-7.454,6.647l-6.002,52.285c-0.244,2.125,0.431,4.252,1.855,5.849c1.423,1.597,3.46,2.509,5.6,2.509H322.76
	c2.139,0,4.175-0.913,5.6-2.509C329.782,475.826,330.457,473.697,330.213,471.572z"/>
<path style="fill:#777777;" d="M298.612,479.931h24.147c2.139,0,4.175-0.913,5.6-2.509c1.423-1.597,2.098-3.724,1.855-5.849
	l-6.002-52.285c-0.435-3.787-3.641-6.647-7.454-6.647h-25.87L298.612,479.931z"/>
<path style="fill:#E0E0E0;" d="M504.497,343.531H7.503c-4.143,0-7.503,3.359-7.503,7.503v54.105
	c0,12.411,10.096,22.508,22.508,22.508h466.985c12.411,0,22.508-10.096,22.508-22.508v-54.105
	C512,346.89,508.641,343.531,504.497,343.531z"/>
<path style="fill:#C6C5CA;" d="M504.497,343.531H480.19v7.503v54.105c0,12.411-10.096,22.508-22.508,22.508h31.81
	c12.411,0,22.508-10.096,22.508-22.508v-54.105C512,346.89,508.641,343.531,504.497,343.531z"/>
<path style="fill:#39A4FA;" d="M489.492,49.182H22.508C10.077,49.182,0,59.259,0,71.689v286.846h512V71.689
	C512,59.259,501.924,49.182,489.492,49.182z"/>
<path style="fill:#0091E2;" d="M489.492,49.182h-31.81c12.411,0,22.508,10.096,22.508,22.508v279.344v7.503H512V71.689
	C512,59.259,501.924,49.182,489.492,49.182z"/>
<path style="fill:#FFC89F;" d="M133.689,189.227h93.597c0-1.159-0.255-2.322-0.796-3.39L187.168,108.2
	c-1.277-2.523-3.865-4.112-6.693-4.112s-5.416,1.59-6.693,4.112l-39.323,77.637c-0.64,1.264-0.885,2.66-0.768,4.027L133.689,189.227
	L133.689,189.227z"/>
<path style="fill:#F7B081;" d="M187.168,108.2c-1.277-2.523-3.865-4.112-6.693-4.112s-5.416,1.59-6.693,4.112l-9.995,19.736
	l31.044,61.292h32.457c0-1.159-0.255-2.322-0.796-3.39L187.168,108.2z"/>
<rect x="133.685" y="189.224" style="fill:#FFCA10;" width="93.612" height="169.308"/>
<rect x="194.826" y="189.224" style="fill:#FFA304;" width="32.47" height="169.208"/>
<path style="fill:#FFD039;" d="M120.237,185.351l-18.258-8.183c-5.888-2.639-10.584-7.335-13.222-13.223l-8.183-18.257
	c-1.209-2.698-3.89-4.435-6.846-4.435c-2.957,0-5.637,1.737-6.846,4.435l-8.183,18.257c-2.639,5.888-7.334,10.584-13.222,13.223
	l-18.257,8.183c-2.698,1.209-4.435,3.89-4.435,6.846c0,2.957,1.736,5.637,4.435,6.846l18.257,8.184
	c5.888,2.639,10.584,7.335,13.222,13.223l8.183,18.258c1.209,2.698,3.89,4.435,6.846,4.435c2.957,0,5.637-1.737,6.846-4.435
	l8.183-18.258c2.639-5.888,7.334-10.584,13.222-13.223l18.257-8.183c2.698-1.208,4.435-3.889,4.435-6.846
	C124.67,189.24,122.935,186.56,120.237,185.351z"/>
<path style="fill:#3C5156;" d="M211.035,155.324L187.168,108.2c-1.277-2.523-3.865-4.112-6.693-4.112s-5.416,1.59-6.693,4.112
	l-23.868,47.124H211.035z"/>
<path style="fill:#304144;" d="M177.657,155.324h33.377L187.168,108.2c-1.277-2.523-3.865-4.112-6.693-4.112
	s-5.416,1.59-6.693,4.112l-9.995,19.736L177.657,155.324z"/>
<path style="fill:#FFCA10;" d="M383.735,358.536V111.59c0-2.943-1.729-5.708-4.625-6.934c-0.964-0.408-2.017-0.568-3.064-0.568
	L277,104.088c-4.143,0-7.503,3.359-7.503,7.503v246.946h114.238V358.536z"/>
<path style="fill:#FFA304;" d="M379.111,104.655c-0.964-0.408-2.017-0.568-3.064-0.568h-24.822v254.449h32.511V111.59
	C383.735,108.647,382.007,105.882,379.111,104.655z"/>
<g>
	<path style="fill:#C96E14;" d="M383.735,304.198h-50.307c-4.143,0-7.503,3.359-7.503,7.503s3.359,7.503,7.503,7.503h50.307V304.198
		z"/>
	<path style="fill:#C96E14;" d="M383.735,258.899h-37.985c-4.143,0-7.503,3.359-7.503,7.503c0,4.143,3.359,7.503,7.503,7.503h37.985
		L383.735,258.899L383.735,258.899z"/>
	<path style="fill:#C96E14;" d="M383.735,213.6h-50.307c-4.143,0-7.503,3.359-7.503,7.503c0,4.143,3.359,7.503,7.503,7.503h50.307
		V213.6z"/>
	<path style="fill:#C96E14;" d="M383.735,168.3h-37.985c-4.143,0-7.503,3.359-7.503,7.503c0,4.143,3.359,7.503,7.503,7.503h37.985
		L383.735,168.3L383.735,168.3z"/>
</g>
<g>
	<path style="fill:#FFD039;" d="M483.582,344.084l-18.257-8.183c-5.888-2.639-10.585-7.335-13.222-13.223l-8.183-18.257
		c-1.209-2.698-3.89-4.435-6.846-4.435c-2.957,0-5.637,1.737-6.846,4.435l-8.183,18.257c-2.639,5.888-7.334,10.584-13.222,13.223
		l-18.257,8.183c-2.698,1.209-4.435,3.89-4.435,6.846s1.736,5.637,4.435,6.846l18.257,8.184c5.888,2.639,10.584,7.335,13.222,13.223
		l8.183,18.257c1.209,2.698,3.89,4.435,6.846,4.435c2.957,0,5.637-1.737,6.846-4.435l8.183-18.257
		c2.639-5.888,7.335-10.584,13.222-13.223l18.257-8.183c2.698-1.208,4.435-3.889,4.435-6.846S486.28,345.293,483.582,344.084z"/>
	<path style="fill:#FFD039;" d="M288.774,49.838l-18.257-8.183c-5.888-2.639-10.584-7.334-13.223-13.222l-8.183-18.257
		c-1.209-2.698-3.889-4.435-6.846-4.435s-5.637,1.737-6.846,4.435l-8.183,18.257c-2.639,5.888-7.334,10.584-13.222,13.222
		l-18.257,8.183c-2.698,1.209-4.435,3.89-4.435,6.846c0,2.957,1.737,5.637,4.435,6.846l18.257,8.183
		c5.888,2.639,10.584,7.334,13.222,13.222l8.183,18.257c1.209,2.698,3.89,4.435,6.846,4.435c2.956,0,5.637-1.737,6.846-4.435
		l8.184-18.258c2.639-5.888,7.335-10.584,13.223-13.222l18.257-8.183c2.698-1.209,4.435-3.89,4.435-6.846
		C293.209,53.728,291.472,51.047,288.774,49.838z"/>
</g>
<path style="fill:#E0E0E0;" d="M365.072,464.926H146.929c-4.143,0-7.503,3.359-7.503,7.503v26.328c0,4.143,3.359,7.503,7.503,7.503
	h218.143c4.143,0,7.503-3.359,7.503-7.503v-26.328C372.575,468.284,369.215,464.926,365.072,464.926z"/>
<path style="fill:#C6C5CA;" d="M365.072,464.926h-25.009v41.333h25.009c4.143,0,7.503-3.359,7.503-7.503v-26.328
	C372.575,468.284,369.215,464.926,365.072,464.926z"/>
<g>
</g>
<g>
</g>
<g>
</g>
<g>
</g>
<g>
</g>
<g>
</g>
<g>
</g>
<g>
</g>
<g>
</g>
<g>
</g>
<g>
</g>
<g>
</g>
<g>
</g>
<g>
</g>
<g>
</g>
</svg>
