<?xml version="1.0" encoding="iso-8859-1"?>
<!-- Generator: Adobe Illustrator 19.0.0, SVG Export Plug-In . SVG Version: 6.00 Build 0)  -->
<svg version="1.1" id="Capa_1" xmlns="http://www.w3.org/2000/svg" xmlns:xlink="http://www.w3.org/1999/xlink" x="0px" y="0px"
	 viewBox="0 0 512 512" style="enable-background:new 0 0 512 512;" xml:space="preserve">
<path style="fill:#E0E0E0;" d="M504.377,0H272.49c-4.144,0-7.502,3.359-7.502,7.502v277.759c0,4.143,3.358,7.503,7.502,7.503
	h231.887c4.144,0,7.503-3.359,7.503-7.503V7.502C511.879,3.359,508.521,0,504.377,0z"/>
<rect x="479.37" y="7.502" style="fill:#C6C5CA;" width="25.008" height="277.762"/>
<path style="fill:#E0E0E0;" d="M503.774,310.46H271.886c-4.144,0-7.503,3.359-7.503,7.502v186.535c0,4.143,3.358,7.502,7.503,7.502
	h231.888c4.144,0,7.502-3.359,7.502-7.502V317.963C511.276,313.818,507.917,310.46,503.774,310.46z"/>
<rect x="478.769" y="317.966" style="fill:#C6C5CA;" width="25.008" height="186.532"/>
<path style="fill:#FF434D;" d="M387.829,333.98c-42.596,0-77.251,34.655-77.251,77.251c0,42.595,34.655,77.251,77.251,77.251
	s77.251-34.655,77.251-77.251C465.08,368.634,430.426,333.98,387.829,333.98z"/>
<path style="fill:#DD3646;" d="M387.829,333.98c-5.629,0-11.114,0.621-16.403,1.77c34.741,7.544,60.846,38.514,60.846,75.48
	s-26.107,67.937-60.846,75.48c5.29,1.148,10.775,1.77,16.403,1.77c42.596,0,77.251-34.655,77.251-77.251
	C465.08,368.634,430.426,333.98,387.829,333.98z"/>
<path style="fill:#E0E0E0;" d="M239.51,0H7.623C3.479,0,0.121,3.359,0.121,7.502v496.933c0,4.143,3.358,7.502,7.502,7.502H239.51
	c4.144,0,7.502-3.359,7.502-7.502V7.502C247.012,3.359,243.653,0,239.51,0z"/>
<path style="fill:#C6C5CA;" d="M239.51,0h-25.008v511.938h25.008c4.144,0,7.502-3.359,7.502-7.502V7.502
	C247.012,3.359,243.653,0,239.51,0z"/>
<path style="fill:#39A4FA;" d="M468.114,44.347H308.753c-4.144,0-7.503,3.359-7.503,7.502v110.257c0,4.143,3.358,7.502,7.503,7.502
	h159.362c4.143,0,7.502-3.359,7.502-7.502V51.849C475.616,47.705,472.258,44.347,468.114,44.347z"/>
<path style="fill:#008950;" d="M473.109,139.545l-54.581-48.701c-2.845-2.539-7.145-2.539-9.989,0l-32.482,28.983
	c-1.596,1.423-2.508,3.46-2.508,5.598s0.912,4.174,2.508,5.598l41.111,36.68c1.374,1.226,3.152,1.905,4.995,1.905h45.952
	c4.143,0,7.502-3.359,7.502-7.502v-16.963C475.616,143.004,474.704,140.968,473.109,139.545z"/>
<path style="fill:#00B76C;" d="M361.543,97.962c-2.845-2.539-7.145-2.539-9.989,0l-47.795,42.646
	c-1.596,1.423-2.508,3.46-2.508,5.598v15.9c0,4.143,3.358,7.502,7.503,7.502h133.429L361.543,97.962z"/>
<path style="fill:#FFD039;" d="M381.474,62.075c-11.088,0-20.108,9.02-20.108,20.107s9.02,20.107,20.108,20.107
	c11.087,0,20.107-9.02,20.107-20.107S392.561,62.075,381.474,62.075z"/>
<path style="fill:#FFFFFF;" d="M410.917,403.727h-15.585v-15.585c0-4.143-3.358-7.503-7.503-7.503s-7.502,3.359-7.502,7.503v15.585
	h-15.584c-4.144,0-7.503,3.359-7.503,7.503s3.358,7.502,7.503,7.502h15.584v15.584c0,4.143,3.358,7.503,7.502,7.503
	s7.503-3.359,7.503-7.503v-15.584h15.584c4.144,0,7.503-3.359,7.503-7.502S415.06,403.727,410.917,403.727z"/>
<g>
	<path style="fill:#919191;" d="M468.114,204.302H308.753c-4.144,0-7.503-3.359-7.503-7.502s3.358-7.502,7.503-7.502h159.362
		c4.143,0,7.502,3.359,7.502,7.502C475.616,200.943,472.258,204.302,468.114,204.302z"/>
	<path style="fill:#919191;" d="M468.114,242.415H308.753c-4.144,0-7.503-3.359-7.503-7.503s3.358-7.502,7.503-7.502h159.362
		c4.143,0,7.502,3.359,7.502,7.502C475.616,239.057,472.258,242.415,468.114,242.415z"/>
	<path style="fill:#919191;" d="M203.247,221.99H43.886c-4.144,0-7.502-3.359-7.502-7.502s3.358-7.502,7.502-7.502h159.361
		c4.144,0,7.502,3.359,7.502,7.502S207.391,221.99,203.247,221.99z"/>
	<path style="fill:#919191;" d="M203.247,260.103H43.886c-4.144,0-7.502-3.359-7.502-7.503s3.358-7.502,7.502-7.502h159.361
		c4.144,0,7.502,3.359,7.502,7.502S207.391,260.103,203.247,260.103z"/>
	<path style="fill:#919191;" d="M203.247,298.217H43.886c-4.144,0-7.502-3.359-7.502-7.502s3.358-7.503,7.502-7.503h159.361
		c4.144,0,7.502,3.359,7.502,7.503S207.391,298.217,203.247,298.217z"/>
	<path style="fill:#919191;" d="M203.247,336.331H43.886c-4.144,0-7.502-3.359-7.502-7.503s3.358-7.502,7.502-7.502h159.361
		c4.144,0,7.502,3.359,7.502,7.502S207.391,336.331,203.247,336.331z"/>
	<path style="fill:#919191;" d="M203.247,374.444H43.886c-4.144,0-7.502-3.359-7.502-7.503s3.358-7.503,7.502-7.503h159.361
		c4.144,0,7.502,3.359,7.502,7.503S207.391,374.444,203.247,374.444z"/>
	<path style="fill:#919191;" d="M203.247,412.558H43.886c-4.144,0-7.502-3.359-7.502-7.502s3.358-7.503,7.502-7.503h159.361
		c4.144,0,7.502,3.359,7.502,7.503S207.391,412.558,203.247,412.558z"/>
	<path style="fill:#919191;" d="M203.247,450.672H43.886c-4.144,0-7.502-3.359-7.502-7.503s3.358-7.502,7.502-7.502h159.361
		c4.144,0,7.502,3.359,7.502,7.502S207.391,450.672,203.247,450.672z"/>
</g>
<path style="fill:#3A4D51;" d="M179.302,62.034h-55.737H67.831c-4.144,0-7.502,3.359-7.502,7.502v17.728
	c0,4.143,3.358,7.502,7.502,7.502s7.502-3.359,7.502-7.502V77.039h40.731v88.925h-14.83c-4.144,0-7.502,3.359-7.502,7.502
	s3.358,7.503,7.502,7.503h22.332H145.9c4.144,0,7.503-3.359,7.503-7.503s-3.358-7.502-7.503-7.502h-14.831V77.039h40.732v10.225
	c0,4.143,3.358,7.502,7.502,7.502s7.502-3.359,7.502-7.502V69.536C186.805,65.393,183.446,62.034,179.302,62.034z"/>
<g>
</g>
<g>
</g>
<g>
</g>
<g>
</g>
<g>
</g>
<g>
</g>
<g>
</g>
<g>
</g>
<g>
</g>
<g>
</g>
<g>
</g>
<g>
</g>
<g>
</g>
<g>
</g>
<g>
</g>
</svg>
