<?xml version="1.0" encoding="iso-8859-1"?>
<!-- Generator: Adobe Illustrator 19.0.0, SVG Export Plug-In . SVG Version: 6.00 Build 0)  -->
<svg version="1.1" id="Capa_1" xmlns="http://www.w3.org/2000/svg" xmlns:xlink="http://www.w3.org/1999/xlink" x="0px" y="0px"
	 viewBox="0 0 511.999 511.999" style="enable-background:new 0 0 511.999 511.999;" xml:space="preserve">
<polygon style="fill:#FFD039;" points="85.32,47.666 85.32,47.666 85.32,137.107 85.32,137.107 188.261,137.107 188.261,47.666 "/>
<path style="fill:#FFC89F;" d="M85.32,47.681c-1.105,0-2.213,0.228-3.241,0.72L4.273,85.608C1.662,86.856,0,89.493,0,92.386
	c0,2.893,1.661,5.53,4.273,6.778l77.806,37.206c1.028,0.492,2.136,0.735,3.241,0.735V47.681z"/>
<path style="fill:#F7B081;" d="M4.273,85.608C1.662,86.856,0,89.493,0,92.386c0,2.893,1.661,5.53,4.273,6.778l77.806,37.206
	c1.028,0.492,2.136,0.735,3.241,0.735v-32.56L24.994,75.7L4.273,85.608z"/>
<path style="fill:#FFD039;" d="M412.864,47.628h-50.218c-4.15,0-7.514,3.364-7.514,7.514v74.49c0,4.15,3.364,7.514,7.514,7.514
	h50.218c4.151,0,7.514-3.364,7.514-7.514v-74.49C420.377,50.992,417.014,47.628,412.864,47.628z"/>
<g>
	<polygon style="fill:#FFAE47;" points="85.32,104.547 85.32,137.107 85.32,137.107 188.261,137.107 188.261,104.547 	"/>
	<path style="fill:#FFAE47;" d="M355.131,104.547v25.046c0,4.15,3.364,7.514,7.514,7.514h50.218c4.151,0,7.514-3.364,7.514-7.514
		v-25.046C420.377,104.547,355.131,104.547,355.131,104.547z"/>
</g>
<path style="fill:#F7B081;" d="M203.289,119.598V92.268c0-25.662-20.877-46.54-46.54-46.54c-4.151,0-7.514,3.364-7.514,7.514
	v158.181c0,16.63,7.007,32.638,19.223,43.92l11.469,10.591v238.177c0,4.15,3.363,7.514,7.514,7.514H330.79
	c4.15,0,7.514-3.364,7.514-7.514V265.307l13.859-17.117c11.5-14.206,17.835-32.096,17.835-50.375v-78.217L203.289,119.598z"/>
<g>
	<path style="fill:#DD9A76;" d="M362.483,112.084c-4.151,0-7.514,3.364-7.514,7.514h-17.532v78.217
		c0,16.618-5.704,32.731-16.161,45.646l-15.533,19.186v248.98h25.046c4.15,0,7.514-3.364,7.514-7.514V265.307l13.859-17.117
		c11.5-14.206,17.835-32.096,17.835-50.375v-78.217C369.997,115.448,366.634,112.084,362.483,112.084z"/>
	<path style="fill:#DD9A76;" d="M211.274,119.598l20.963,25.511c9.307,3.691,19.009,8.733,27.278,15.569
		c7.833-0.267,14.87-3.723,19.845-9.116c5.182,5.616,12.596,9.142,20.821,9.142s15.641-3.525,20.821-9.142
		c5.181,5.616,12.596,9.142,20.821,9.142c8.141,0,15.486-3.456,20.66-8.973v-32.133
		C362.483,119.598,211.274,119.598,211.274,119.598z"/>
</g>
<path style="fill:#3C5156;" d="M51.337,63.102L4.273,85.608C1.662,86.856,0,89.493,0,92.386c0,2.893,1.661,5.53,4.273,6.778
	l47.066,22.506L51.337,63.102L51.337,63.102z"/>
<path style="fill:#304144;" d="M51.337,88.297L24.994,75.7L4.273,85.608C1.662,86.856,0,89.493,0,92.386
	c0,2.893,1.661,5.53,4.273,6.778l47.066,22.506L51.337,88.297L51.337,88.297z"/>
<path style="fill:#C18468;" d="M280.876,211.815c-4.151,0-7.514-3.364-7.514-7.514c0-21.346-12.736-38.043-37.856-49.626
	c-19.935-9.192-40.345-11.523-40.549-11.545c-3.808-0.42-6.696-3.638-6.696-7.469V92.268c0-4.15,3.363-7.514,7.514-7.514
	c4.151,0,7.514,3.364,7.514,7.514v36.929c8.302,1.47,23.163,4.809,38.163,11.671c30.707,14.049,46.938,35.984,46.938,63.432
	C288.39,208.451,285.026,211.815,280.876,211.815z"/>
<path style="fill:#FFC89F;" d="M341.824,31.468c-15.625,0-28.335,12.711-28.335,28.335v56.534c0,15.624,12.711,28.335,28.335,28.335
	c15.625,0,28.335-12.711,28.335-28.335V59.804C370.159,44.18,357.449,31.468,341.824,31.468z"/>
<path style="fill:#F7B081;" d="M341.824,31.468c-4.01,0-7.825,0.843-11.286,2.351c10.022,4.37,17.049,14.37,17.049,25.984v56.534
	c0,11.614-7.026,21.614-17.049,25.984c3.46,1.509,7.276,2.351,11.286,2.351c15.625,0,28.335-12.711,28.335-28.335V59.804
	C370.159,44.18,357.449,31.468,341.824,31.468z"/>
<path style="fill:#FFC89F;" d="M300.181,9.996c-15.625,0-28.335,12.711-28.335,28.335v78.007c0,15.624,12.711,28.335,28.335,28.335
	s28.335-12.711,28.335-28.335V38.332C328.516,22.707,315.806,9.996,300.181,9.996z"/>
<path style="fill:#F7B081;" d="M300.181,9.996c-4.049,0-7.899,0.86-11.386,2.396c9.969,4.393,16.949,14.363,16.949,25.939v78.007
	c0,11.575-6.98,21.546-16.949,25.939c3.487,1.537,7.337,2.396,11.386,2.396c15.625,0,28.335-12.711,28.335-28.335V38.332
	C328.516,22.707,315.806,9.996,300.181,9.996z"/>
<path style="fill:#FFC89F;" d="M258.54,0.372c-15.625,0-28.335,12.711-28.335,28.335v87.63c0,15.624,12.711,28.335,28.335,28.335
	s28.334-12.711,28.334-28.335V28.708C286.874,13.084,274.162,0.372,258.54,0.372z"/>
<path style="fill:#F7B081;" d="M258.54,0.372c-4.023,0-7.85,0.849-11.32,2.366c10.004,4.378,17.015,14.368,17.015,25.969v87.63
	c0,11.6-7.011,21.59-17.015,25.969c3.469,1.519,7.296,2.366,11.32,2.366c15.624,0,28.334-12.711,28.334-28.335V28.708
	C286.874,13.084,274.162,0.372,258.54,0.372z"/>
<path style="fill:#FFC89F;" d="M216.747,9.996c-15.707,0-28.485,12.711-28.485,28.335v78.007c0,15.624,12.779,28.335,28.485,28.335
	s28.485-12.711,28.485-28.335V38.332C245.231,22.707,232.454,9.996,216.747,9.996z"/>
<path style="fill:#F7B081;" d="M216.747,9.996c-4.066,0-7.934,0.858-11.436,2.391c10.027,4.391,17.049,14.364,17.049,25.944v78.007
	c0,11.579-7.022,21.553-17.049,25.943c3.502,1.534,7.37,2.391,11.436,2.391c15.707,0,28.485-12.711,28.485-28.335V38.332
	C245.231,22.707,232.454,9.996,216.747,9.996z"/>
<path style="fill:#546F7A;" d="M486.514,47.628h-33.349c-4.151,0-7.514,3.364-7.514,7.514v74.49c0,4.15,3.363,7.514,7.514,7.514
	h33.349c14.052,0,25.485-11.433,25.485-25.486V73.114C512,59.061,500.567,47.628,486.514,47.628z"/>
<path style="fill:#3C5156;" d="M486.514,104.547h-33.349c-4.151,0-7.514-3.364-7.514-7.514v32.598c0,4.15,3.363,7.514,7.514,7.514
	h33.349c14.052,0,25.485-11.433,25.485-25.486V79.061C512,93.114,500.567,104.547,486.514,104.547z"/>
<rect x="405.346" y="47.628" style="fill:#FF6137;" width="55.332" height="89.515"/>
<rect x="405.346" y="104.552" style="fill:#E04F32;" width="55.332" height="32.598"/>
<g>
</g>
<g>
</g>
<g>
</g>
<g>
</g>
<g>
</g>
<g>
</g>
<g>
</g>
<g>
</g>
<g>
</g>
<g>
</g>
<g>
</g>
<g>
</g>
<g>
</g>
<g>
</g>
<g>
</g>
</svg>
