<?xml version="1.0" encoding="iso-8859-1"?>
<!-- Generator: Adobe Illustrator 19.0.0, SVG Export Plug-In . SVG Version: 6.00 Build 0)  -->
<svg version="1.1" id="Capa_1" xmlns="http://www.w3.org/2000/svg" xmlns:xlink="http://www.w3.org/1999/xlink" x="0px" y="0px"
	 viewBox="0 0 512 512" style="enable-background:new 0 0 512 512;" xml:space="preserve">
<path style="fill:#E0E0E0;" d="M511.972,139.857H0.046c0,0,0.4,279.42-0.001,294.881c-0.003,0.132-0.003,0.266,0.001,0.398
	c0.403,14.877,6.498,28.799,17.162,39.201c10.688,10.424,24.796,16.165,39.729,16.165h398.145c14.932,0,29.042-5.74,39.729-16.165
	c10.665-10.401,16.76-24.324,17.161-39.202c0.004-0.132,0.004-0.266,0-0.397C511.571,419.277,511.972,139.857,511.972,139.857z"/>
<g>
	<path style="fill:#C6C5CA;" d="M110.53,371.249l102.126-231.392h-26.398L75.723,367.705C87,373.133,99.273,374.076,110.53,371.249z
		"/>
	<path style="fill:#C6C5CA;" d="M317.538,343.664c10.787,22.41,35.69,33.449,58.901,27.584
		c-14.298-3.589-26.959-13.263-33.852-27.584l-86.364-177.85c-0.071,0.001-0.142,0.004-0.214,0.005l-12.431,25.537L317.538,343.664z
		"/>
</g>
<g>
	<path style="fill:#3A4D51;" d="M304.445,257.602h-42.339v-15.334c0-4.15-3.364-7.515-7.514-7.515c-4.15,0-7.515,3.365-7.515,7.515
		v15.334h-38.183c-4.15,0-7.515,3.365-7.515,7.515s3.365,7.515,7.515,7.515h38.183v22.95c0,4.15,3.365,7.515,7.515,7.515
		c4.15,0,7.514-3.365,7.514-7.515v-22.95h42.339c4.151,0,7.515-3.365,7.515-7.515S308.595,257.602,304.445,257.602z"/>
	<path style="fill:#3A4D51;" d="M150.595,257.602h-33.096c-4.15,0-7.515,3.365-7.515,7.515s3.365,7.515,7.515,7.515h33.097
		c4.15,0,7.515-3.365,7.515-7.515C158.11,260.967,154.745,257.602,150.595,257.602z"/>
	<path style="fill:#3A4D51;" d="M391.684,257.602h-30.166c-4.151,0-7.515,3.365-7.515,7.515s3.364,7.515,7.515,7.515h30.166
		c4.151,0,7.515-3.365,7.515-7.515S395.835,257.602,391.684,257.602z"/>
</g>
<path style="fill:#546F7A;" d="M262.352,161.792c-1.398-2.202-3.843-3.522-6.447-3.486l-0.647,0.018
	c-15.422-0.002-29.841-8.296-37.633-21.646c-1.399-2.397-4.015-3.831-6.776-3.721c-2.772,0.105-5.261,1.73-6.474,4.226
	L94.013,364.422c-0.873,1.797-0.994,3.867-0.337,5.754c0.657,1.887,2.038,3.434,3.837,4.3c8.222,3.958,16.913,5.83,25.48,5.829
	c21.953-0.001,43.064-12.304,53.195-33.352l86.577-177.844C263.907,166.764,263.75,163.993,262.352,161.792z"/>
<path style="fill:#475D63;" d="M262.352,161.792c-1.398-2.202-3.843-3.522-6.447-3.486l-0.647,0.018
	c-6.25-0.001-12.325-1.384-17.871-3.893l-93.724,192.522c-7.574,15.735-21.286,26.581-36.897,31.055
	c5.359,1.547,10.817,2.297,16.227,2.297c21.953-0.001,43.064-12.304,53.195-33.352l86.577-177.844
	C263.907,166.764,263.75,163.993,262.352,161.792z"/>
<path style="fill:#546F7A;" d="M418.007,364.427L307.071,135.569c-1.231-2.542-3.785-4.178-6.611-4.235
	c-2.796-0.041-5.442,1.475-6.776,3.965c-7.446,13.898-21.854,22.712-37.6,23.004c-2.564,0.047-4.927,1.399-6.267,3.585
	c-1.341,2.186-1.474,4.905-0.354,7.211l86.353,177.826c6.829,14.189,18.776,24.87,33.638,30.074
	c6.377,2.233,12.964,3.343,19.527,3.343c8.732,0,17.424-1.965,25.524-5.864c1.799-0.866,3.179-2.412,3.837-4.297
	C418.999,368.293,418.879,366.223,418.007,364.427z"/>
<path style="fill:#475D63;" d="M392.819,380.201c7.431-0.492,14.774-2.398,21.685-5.724c1.799-0.866,3.179-2.412,3.837-4.297
	s0.537-3.955-0.334-5.751L307.071,135.57c-1.231-2.542-3.785-4.178-6.611-4.235c-2.796-0.041-5.442,1.475-6.776,3.965
	c-3.301,6.163-7.978,11.32-13.527,15.185L392.819,380.201z"/>
<path style="fill:#C6C5CA;" d="M511.963,139.857h-83.828v237.797c12.69,1.605,24.47,7.264,33.757,16.334
	c11.077,10.815,17.396,25.287,17.797,40.749c0.004,0.132,0.004,0.266,0,0.398c-0.403,14.877-6.498,28.799-17.163,39.201
	C451.84,484.76,437.73,490.5,422.799,490.5h32.274c14.931,0,29.041-5.74,39.728-16.165c10.664-10.401,16.76-24.324,17.163-39.201
	c0.004-0.132,0-0.53,0-0.398C511.963,435.136,511.963,139.857,511.963,139.857z"/>
<g>
	<path style="fill:#919191;" d="M56.604,376.25c3.419,0,6.762,0.318,10.016,0.894V65.512c0-4.15-3.364-7.515-7.515-7.515
		C26.515,57.997,0,84.512,0,117.103v308.641C3.732,397.805,27.643,376.25,56.604,376.25z"/>
	<path style="fill:#919191;" d="M452.895,57.997c-4.151,0-7.515,3.365-7.515,7.515v311.531c3.079-0.513,6.236-0.795,9.46-0.795
		c31.55,0,57.126,25.576,57.126,57.126c0,1.621-0.084,3.222-0.216,4.808c0.158-0.606,0.25-1.239,0.25-1.896V117.103
		C512,84.512,485.485,57.997,452.895,57.997z"/>
</g>
<path style="fill:#3A4D51;" d="M255.265,71.203c-4.15,0-7.515-3.365-7.515-7.515V29.014c0-4.15,3.365-7.515,7.515-7.515
	s7.514,3.365,7.514,7.515v34.675C262.779,67.839,259.415,71.203,255.265,71.203z"/>
<path style="fill:#FFD039;" d="M255.265,56.174c-32.307,0-58.59,26.283-58.59,58.59s26.283,58.589,58.59,58.589
	s58.589-26.283,58.589-58.589C313.854,82.456,287.572,56.174,255.265,56.174z"/>
<path style="fill:#FFA304;" d="M255.265,56.174c-5.611,0-11.034,0.81-16.176,2.288c24.462,7.039,42.415,29.606,42.415,56.301
	s-17.953,49.262-42.415,56.301c5.142,1.48,10.564,2.288,16.176,2.288c32.307,0,58.589-26.283,58.589-58.589
	C313.854,82.456,287.572,56.174,255.265,56.174z"/>
<g>
</g>
<g>
</g>
<g>
</g>
<g>
</g>
<g>
</g>
<g>
</g>
<g>
</g>
<g>
</g>
<g>
</g>
<g>
</g>
<g>
</g>
<g>
</g>
<g>
</g>
<g>
</g>
<g>
</g>
</svg>
