<?xml version="1.0" encoding="iso-8859-1"?>
<!-- Generator: Adobe Illustrator 19.0.0, SVG Export Plug-In . SVG Version: 6.00 Build 0)  -->
<svg version="1.1" id="Capa_1" xmlns="http://www.w3.org/2000/svg" xmlns:xlink="http://www.w3.org/1999/xlink" x="0px" y="0px"
	 viewBox="0 0 512.001 512.001" style="enable-background:new 0 0 512.001 512.001;" xml:space="preserve">
<path style="fill:#E0E0E0;" d="M442.836,0H70.128c-4.142,0-7.5,3.358-7.5,7.5l-0.963,409.182c0,1.989,0.79,3.896,2.197,5.303
	l87.816,87.817c1.406,1.407,3.314,2.197,5.303,2.197h284.892c4.142,0,7.5-3.358,7.5-7.5L450.336,7.5
	C450.336,3.358,446.978,0,442.836,0z"/>
<path style="fill:#C6C5CA;" d="M442.836,0h-25.001l-0.963,512h25.001c4.142,0,7.5-3.358,7.5-7.5L450.336,7.5
	C450.336,3.358,446.978,0,442.836,0z"/>
<path style="fill:#FFAE47;" d="M255.519,86.901c-51.995,0-94.297,42.301-94.297,94.297v21.857c0,4.142,3.358,7.5,7.5,7.5h25.23
	c4.142,0,7.5-3.358,7.5-7.5v-21.857c0-29.812,24.254-54.065,54.066-54.065s54.066,24.254,54.066,54.065v21.857
	c0,4.142,3.358,7.5,7.5,7.5h25.23c4.142,0,7.5-3.358,7.5-7.5v-21.857C349.817,129.203,307.515,86.901,255.519,86.901z"/>
<path style="fill:#FFD039;" d="M355.97,195.554h-200.9c-4.142,0-7.5,3.358-7.5,7.5v152.087c0,4.142,3.358,7.5,7.5,7.5h200.9
	c4.142,0,7.5-3.358,7.5-7.5V203.055C363.47,198.912,360.112,195.554,355.97,195.554z"/>
<path style="fill:#FFAE47;" d="M355.97,195.554h-25.001v167.087h25.001c4.142,0,7.5-3.358,7.5-7.5V203.055
	C363.47,198.912,360.112,195.554,355.97,195.554z"/>
<path style="fill:#546F7A;" d="M255.519,228.239c-16.222,0-29.42,13.197-29.42,29.42c0,8.773,3.816,16.888,10.384,22.437v25.108
	c0,10.495,8.539,19.035,19.035,19.035c10.496,0,19.035-8.539,19.035-19.035v-25.108c6.569-5.548,10.384-13.662,10.384-22.437
	C284.939,241.437,271.741,228.239,255.519,228.239z"/>
<path style="fill:#919191;" d="M156.981,409.184H69.165c-3.034,0-5.768,1.827-6.929,4.63c-1.161,2.803-0.519,6.028,1.626,8.173
	l87.816,87.816c1.435,1.435,3.353,2.197,5.305,2.197c0.966,0,1.941-0.186,2.869-0.571c2.803-1.161,4.63-3.895,4.63-6.929v-87.815
	C164.482,412.542,161.124,409.184,156.981,409.184z"/>
<g>
</g>
<g>
</g>
<g>
</g>
<g>
</g>
<g>
</g>
<g>
</g>
<g>
</g>
<g>
</g>
<g>
</g>
<g>
</g>
<g>
</g>
<g>
</g>
<g>
</g>
<g>
</g>
<g>
</g>
</svg>
