<?xml version="1.0" encoding="iso-8859-1"?>
<!-- Generator: Adobe Illustrator 19.0.0, SVG Export Plug-In . SVG Version: 6.00 Build 0)  -->
<svg version="1.1" id="Capa_1" xmlns="http://www.w3.org/2000/svg" xmlns:xlink="http://www.w3.org/1999/xlink" x="0px" y="0px"
	 viewBox="0 0 512 512" style="enable-background:new 0 0 512 512;" xml:space="preserve">
<path style="fill:#E0E0E0;" d="M511.963,130.752H0.037v294.881c-0.004,0.132-0.004,0.265,0,0.397
	c0.402,14.877,6.497,28.799,17.162,39.202c10.687,10.424,24.796,16.165,39.729,16.165h398.145c14.931,0,29.041-5.74,39.728-16.165
	c10.664-10.401,16.759-24.323,17.163-39.201c0.004-0.132,0.004-0.266,0-0.398C511.563,410.172,511.963,130.752,511.963,130.752z"/>
<g>
	<path style="fill:#C6C5CA;" d="M511.963,130.752h-83.828V368.55c12.69,1.605,24.47,7.265,33.757,16.334
		c11.077,10.815,17.396,25.287,17.797,40.749c0.004,0.132,0.004,0.266,0,0.398c-0.403,14.877-6.498,28.799-17.163,39.201
		c-10.687,10.424-24.796,16.165-39.728,16.165h32.274c14.931,0,29.041-5.74,39.728-16.165
		c10.664-10.401,16.759-24.323,17.163-39.201c0.004-0.132,0-0.53,0-0.398C511.963,426.032,511.963,130.752,511.963,130.752z"/>
	<path style="fill:#C6C5CA;" d="M227.269,432.351v-73.89c0-1.617-0.511-3.115-1.381-4.341c-3.183-8.279-17.703-43.615-52.368-96.473
		c-0.26-0.386-0.514-0.778-0.768-1.168l-0.186-0.287c-10.679-16.462-16.324-35.591-16.324-55.318
		c0-21.009,6.338-41.167,18.331-58.297c1.608-2.295,1.805-5.294,0.51-7.78c-1.294-2.485-3.863-4.045-6.665-4.045h-17.091
		l-9.027,11.824c-11.992,17.129-18.331,37.288-18.331,58.297c0,19.728,5.645,38.856,16.324,55.318l0.187,0.287
		c0.255,0.391,0.508,0.783,0.769,1.168c34.666,52.858,49.185,88.194,52.368,96.473c0.87,1.226,1.381,2.724,1.381,4.341v73.889
		c0,5.853,4.762,10.617,10.617,10.617h32.274C232.031,442.967,227.269,438.204,227.269,432.351z"/>
</g>
<g>
	<path style="fill:#FF6137;" d="M257.329,73.728c-4.151,0-7.515-3.365-7.515-7.515V38.119c0-4.15,3.364-7.515,7.515-7.515
		c4.15,0,7.515,3.365,7.515,7.515v28.094C264.843,70.363,261.48,73.728,257.329,73.728z"/>
	<path style="fill:#FF6137;" d="M371.379,121.042c-2.608,0-5.142-1.359-6.53-3.784c-2.061-3.602-0.812-8.193,2.79-10.254
		l24.386-13.95c3.602-2.061,8.194-0.812,10.254,2.791c2.061,3.602,0.812,8.193-2.79,10.254l-24.386,13.95
		C373.927,120.722,372.645,121.042,371.379,121.042z"/>
	<path style="fill:#FF6137;" d="M322.185,85.964c-1.593,0-3.199-0.505-4.563-1.549c-3.295-2.523-3.921-7.24-1.398-10.535
		l17.079-22.306c2.523-3.294,7.239-3.923,10.536-1.398c3.295,2.523,3.921,7.24,1.399,10.535l-17.079,22.306
		C326.678,84.949,324.444,85.964,322.185,85.964z"/>
	<path style="fill:#FF6137;" d="M140.62,121.042c-1.265,0-2.548-0.32-3.725-0.994l-24.385-13.95
		c-3.602-2.061-4.851-6.652-2.79-10.254c2.06-3.602,6.65-4.852,10.254-2.79l24.385,13.95c3.602,2.061,4.851,6.652,2.79,10.254
		C145.762,119.683,143.227,121.042,140.62,121.042z"/>
	<path style="fill:#FF6137;" d="M189.815,85.964c-2.259,0-4.493-1.014-5.973-2.947l-17.08-22.306
		c-2.523-3.295-1.897-8.012,1.399-10.535c3.296-2.525,8.013-1.898,10.536,1.398l17.08,22.306c2.523,3.294,1.898,8.012-1.398,10.535
		C193.015,85.459,191.408,85.964,189.815,85.964z"/>
</g>
<path style="fill:#FF434D;" d="M257.329,84.343c-64.026,0-116.117,52.275-116.117,116.531c0,22.637,6.482,44.594,18.788,63.563
	l0.149,0.229c0.3,0.462,0.6,0.923,0.856,1.301c37.833,57.689,51.278,94.658,51.407,95.02c1.067,2.992,3.901,4.99,7.078,4.99h75.678
	c3.173,0,6.006-1.998,7.077-4.985c0.131-0.367,13.576-37.336,51.357-94.945c0.308-0.457,0.608-0.918,0.907-1.38l0.146-0.224
	c0.008-0.012,0.034-0.053,0.042-0.065c0.001-0.002,0.003-0.004,0.004-0.005c12.263-18.903,18.745-40.86,18.745-63.497
	C373.446,136.618,321.356,84.343,257.329,84.343z M348.396,260.281L348.396,260.281L348.396,260.281L348.396,260.281z"/>
<path style="fill:#DD3646;" d="M257.329,84.343c-5.718,0-11.339,0.424-16.839,1.229c56.076,8.211,99.279,56.785,99.279,115.301
	c0,22.637-6.482,44.594-18.745,63.497c-0.001,0.002-0.003,0.004-0.004,0.005c-0.008,0.012-0.034,0.053-0.042,0.065l-0.146,0.224
	c-0.3,0.462-0.6,0.923-0.907,1.38c-37.781,57.61-51.226,94.579-51.357,94.945c-1.07,2.987-3.904,4.985-7.077,4.985h33.677
	c3.173,0,6.006-1.998,7.077-4.985c0.131-0.367,13.576-37.336,51.357-94.945c0.308-0.457,0.608-0.918,0.907-1.38l0.146-0.224
	c0.008-0.012,0.034-0.053,0.042-0.065c0.001-0.002,0.003-0.004,0.004-0.005c12.263-18.903,18.745-40.86,18.745-63.497
	C373.446,136.618,321.356,84.343,257.329,84.343z"/>
<path style="fill:#FFC89F;" d="M302.365,242.512c0-1.105-0.228-2.213-0.72-3.241l-37.535-78.494
	c-1.248-2.611-3.886-4.273-6.78-4.273c-2.895,0-5.531,1.662-6.78,4.273l-37.536,78.494c-0.491,1.028-0.72,2.136-0.72,3.241H302.365z
	"/>
<path style="fill:#F7B081;" d="M264.11,160.776c-1.248-2.611-3.886-4.273-6.78-4.273s-5.531,1.662-6.78,4.273l-9.91,20.723
	l29.176,61.013h32.549c0-1.105-0.228-2.213-0.72-3.241L264.11,160.776z"/>
<path style="fill:#3C5156;" d="M264.11,160.776c-1.248-2.611-3.886-4.273-6.78-4.273s-5.531,1.662-6.78,4.273l-22.657,47.381
	c0.048,0,0.095,0.007,0.144,0.007h58.586c0.049,0,0.095-0.006,0.144-0.007L264.11,160.776z"/>
<path style="fill:#304144;" d="M253.391,208.163h33.232c0.049,0,0.095-0.006,0.144-0.007l-22.657-47.381
	c-1.248-2.611-3.886-4.273-6.78-4.273s-5.531,1.662-6.78,4.273l-9.91,20.723L253.391,208.163z"/>
<g>
	<path style="fill:#919191;" d="M56.604,367.145c3.419,0,6.762,0.318,10.016,0.894V56.408c0-4.15-3.364-7.515-7.515-7.515
		C26.515,48.893,0,75.408,0,107.997v308.642C3.732,388.701,27.643,367.145,56.604,367.145z"/>
	<path style="fill:#919191;" d="M452.895,48.893c-4.151,0-7.515,3.365-7.515,7.515v311.531c3.079-0.513,6.236-0.795,9.46-0.795
		c31.55,0,57.126,25.576,57.126,57.126c0,1.621-0.084,3.222-0.216,4.808c0.158-0.606,0.25-1.239,0.25-1.896V107.997
		C512,75.408,485.485,48.893,452.895,48.893z"/>
</g>
<path style="fill:#546F7A;" d="M294.904,383.882h-75.15c-4.151,0-7.515,3.365-7.515,7.515v25.924
	c0,14.141,11.504,25.646,25.646,25.646h38.887c14.141,0,25.646-11.504,25.646-25.646v-25.924
	C302.419,387.247,299.055,383.882,294.904,383.882z"/>
<path style="fill:#3C5156;" d="M294.904,383.882H262.34c4.15,0,7.515,3.365,7.515,7.515v25.924
	c0,14.141-11.505,25.646-25.646,25.646h32.564c14.141,0,25.646-11.504,25.646-25.646v-25.924
	C302.419,387.247,299.055,383.882,294.904,383.882z"/>
<rect x="212.295" y="350.946" style="fill:#FF6137;" width="90.076" height="47.966"/>
<rect x="269.857" y="350.946" style="fill:#E04F32;" width="32.51" height="47.966"/>
<rect x="212.235" y="242.514" style="fill:#FFD039;" width="90.176" height="123.461"/>
<rect x="269.857" y="242.594" style="fill:#FFAE47;" width="32.51" height="123.381"/>
<g>
</g>
<g>
</g>
<g>
</g>
<g>
</g>
<g>
</g>
<g>
</g>
<g>
</g>
<g>
</g>
<g>
</g>
<g>
</g>
<g>
</g>
<g>
</g>
<g>
</g>
<g>
</g>
<g>
</g>
</svg>
