<?xml version="1.0" encoding="iso-8859-1"?>
<!-- Generator: Adobe Illustrator 19.0.0, SVG Export Plug-In . SVG Version: 6.00 Build 0)  -->
<svg version="1.1" id="Capa_1" xmlns="http://www.w3.org/2000/svg" xmlns:xlink="http://www.w3.org/1999/xlink" x="0px" y="0px"
	 viewBox="0 0 512.001 512.001" style="enable-background:new 0 0 512.001 512.001;" xml:space="preserve">
<g>
	<path style="fill:#3A4D51;" d="M267.905,209.888H134.749c-4.163,0-7.536-3.374-7.536-7.536c0-4.162,3.373-7.536,7.536-7.536
		h133.156c4.163,0,7.536,3.374,7.536,7.536C275.441,206.514,272.068,209.888,267.905,209.888z"/>
	<path style="fill:#3A4D51;" d="M436.647,209.888H303.492c-4.163,0-7.536-3.374-7.536-7.536c0-4.162,3.373-7.536,7.536-7.536
		h133.155c4.163,0,7.536,3.374,7.536,7.536C444.183,206.514,440.81,209.888,436.647,209.888z"/>
</g>
<path style="fill:#FFD039;" d="M360.309,83.251l-28.572-48.082c-1.358-2.285-3.82-3.685-6.478-3.685h-79.122
	c-2.659,0-5.12,1.401-6.478,3.685l-28.571,48.082c-1.525,2.566-1.392,5.789,0.339,8.22l68.132,95.702
	c1.413,1.986,3.7,3.165,6.138,3.165c2.438,0,4.725-1.18,6.138-3.165l68.132-95.702C361.701,89.04,361.833,85.817,360.309,83.251z
	 M273.875,98.973c0-6.53,5.294-11.823,11.824-11.823c6.53,0,11.824,5.293,11.824,11.823s-5.294,11.824-11.824,11.824
	C279.168,110.796,273.875,105.503,273.875,98.973z"/>
<path style="fill:#FFAE47;" d="M279.56,187.174c1.413,1.986,3.7,3.165,6.138,3.165c2.438,0,4.725-1.18,6.138-3.165l68.132-95.702
	c1.731-2.431,1.864-5.655,0.34-8.22L331.736,35.17c-1.358-2.285-3.82-3.685-6.478-3.685h-29.597l33.05,55.617l-60.14,84.64
	L279.56,187.174z"/>
<path style="fill:#39A4FA;" d="M429.688,353.282c-0.902-78.362-64.928-141.827-143.499-141.827
	c-50.39,0-97.132,26.564-123.037,69.617c-20.436,0.858-39.862,8.817-55.053,22.629c-14.504,13.188-24.08,30.705-27.352,49.828
	c-17.34,3.017-33.218,11.703-45.212,24.842c-13.446,14.731-20.852,33.837-20.852,53.798c0,44.019,35.812,79.831,79.832,79.831
	h322.972c44.019,0,79.832-35.812,79.832-79.832C497.318,392.546,468.145,359.19,429.688,353.282z"/>
<path style="fill:#0091E2;" d="M417.487,479.491H94.514c-38.437,0-70.612-27.308-78.156-63.539
	c-1.095,5.294-1.676,10.721-1.676,16.218c0,44.019,35.812,79.831,79.832,79.831h322.972c44.019,0,79.832-35.812,79.832-79.832
	c0-5.546-0.591-10.963-1.68-16.204C488.091,452.19,455.919,479.491,417.487,479.491z"/>
<path style="fill:#E89842;" d="M286.771,190.253c0.209-0.03,0.416-0.065,0.62-0.113c0.079-0.018,0.158-0.04,0.237-0.061
	c0.198-0.052,0.394-0.113,0.586-0.181c0.073-0.026,0.147-0.051,0.218-0.079c0.203-0.079,0.402-0.168,0.597-0.264
	c0.054-0.027,0.111-0.051,0.165-0.079c0.489-0.256,0.949-0.567,1.373-0.926c0.063-0.053,0.122-0.111,0.183-0.166
	c0.145-0.131,0.285-0.266,0.419-0.408c0.063-0.067,0.126-0.136,0.186-0.205c0.135-0.153,0.262-0.312,0.385-0.476
	c0.934-1.255,1.494-2.805,1.494-4.49v-74.72c-2.046,1.694-4.671,2.713-7.536,2.713c-2.865,0-5.49-1.019-7.536-2.714v74.72
	c0,1.685,0.56,3.235,1.494,4.49c0.123,0.165,0.25,0.324,0.384,0.476c0.061,0.069,0.124,0.139,0.187,0.206
	c0.134,0.142,0.273,0.276,0.417,0.406c0.062,0.056,0.122,0.115,0.185,0.168c0.423,0.359,0.882,0.668,1.37,0.924
	c0.056,0.029,0.115,0.054,0.171,0.082c0.193,0.095,0.389,0.183,0.59,0.261c0.073,0.029,0.149,0.055,0.223,0.081
	c0.191,0.067,0.385,0.127,0.581,0.179c0.079,0.021,0.16,0.043,0.24,0.062c0.203,0.046,0.41,0.082,0.617,0.113
	c0.074,0.011,0.148,0.025,0.223,0.034c0.281,0.032,0.566,0.051,0.852,0.051s0.571-0.019,0.852-0.051
	C286.625,190.279,286.698,190.264,286.771,190.253z"/>
<path style="fill:#CE843C;" d="M286.771,190.253c0.209-0.03,0.416-0.065,0.62-0.113c0.079-0.018,0.158-0.04,0.237-0.061
	c0.036-0.01,0.07-0.023,0.106-0.033c0.162-0.045,0.323-0.092,0.48-0.148c0.073-0.026,0.147-0.051,0.218-0.079
	c0.041-0.016,0.079-0.036,0.121-0.053c0.161-0.066,0.32-0.135,0.477-0.211c0.054-0.027,0.111-0.051,0.165-0.079
	c0.489-0.256,0.949-0.567,1.373-0.926c0.063-0.053,0.122-0.111,0.183-0.166c0.066-0.06,0.128-0.125,0.192-0.187
	c0.076-0.073,0.155-0.145,0.228-0.222c0.063-0.067,0.126-0.136,0.186-0.205c0.135-0.153,0.262-0.312,0.385-0.477
	c0.934-1.255,1.494-2.805,1.494-4.49v-45.769l-15.071,21.211v24.558c0,1.685,0.56,3.235,1.494,4.49
	c0.043,0.058,0.091,0.113,0.137,0.169c0.081,0.103,0.161,0.209,0.248,0.307c0.061,0.069,0.124,0.139,0.187,0.206
	c0.134,0.142,0.273,0.276,0.417,0.406c0.062,0.056,0.122,0.115,0.185,0.168c0.423,0.359,0.882,0.668,1.37,0.924
	c0.056,0.029,0.115,0.054,0.171,0.082c0.193,0.095,0.389,0.183,0.59,0.261c0.073,0.029,0.149,0.055,0.223,0.081
	c0.02,0.007,0.04,0.012,0.06,0.019c0.172,0.059,0.345,0.114,0.52,0.161c0.079,0.021,0.159,0.043,0.24,0.061
	c0.116,0.027,0.234,0.043,0.352,0.064c0.088,0.015,0.177,0.035,0.266,0.048c0.074,0.011,0.148,0.025,0.222,0.034
	c0.281,0.032,0.566,0.051,0.852,0.051c0.286,0,0.571-0.019,0.852-0.051C286.625,190.279,286.698,190.264,286.771,190.253z"/>
<path style="fill:#546F7A;" d="M337.305,0H234.093c-4.163,0-7.536,3.374-7.536,7.536v31.49c0,4.162,3.373,7.536,7.536,7.536h103.213
	c4.162,0,7.536-3.374,7.536-7.536V7.536C344.84,3.374,341.467,0,337.305,0z"/>
<path style="fill:#3C5156;" d="M337.305,0h-25.118v46.561h25.118c4.162,0,7.536-3.374,7.536-7.536V7.536
	C344.84,3.374,341.467,0,337.305,0z"/>
<path style="fill:#FFD039;" d="M303.492,175.751h-35.587c-4.163,0-7.536,3.374-7.536,7.536v35.587c0,4.162,3.373,7.536,7.536,7.536
	h35.587c4.163,0,7.536-3.374,7.536-7.536v-35.587C311.028,179.125,307.655,175.751,303.492,175.751z"/>
<g>
	<path style="fill:#FF6137;" d="M116.964,176.504c-13.962,0-25.32,11.359-25.32,25.321c0,13.962,11.36,25.32,25.32,25.32
		s25.32-11.359,25.32-25.32C142.285,187.863,130.925,176.504,116.964,176.504z"/>
	<path style="fill:#FF6137;" d="M454.434,176.504c-13.962,0-25.321,11.359-25.321,25.321c0,13.962,11.36,25.32,25.321,25.32
		s25.32-11.359,25.32-25.32C479.754,187.863,468.395,176.504,454.434,176.504z"/>
</g>
<g>
</g>
<g>
</g>
<g>
</g>
<g>
</g>
<g>
</g>
<g>
</g>
<g>
</g>
<g>
</g>
<g>
</g>
<g>
</g>
<g>
</g>
<g>
</g>
<g>
</g>
<g>
</g>
<g>
</g>
</svg>
