<?xml version="1.0" encoding="iso-8859-1"?>
<!-- Generator: Adobe Illustrator 19.0.0, SVG Export Plug-In . SVG Version: 6.00 Build 0)  -->
<svg version="1.1" id="Capa_1" xmlns="http://www.w3.org/2000/svg" xmlns:xlink="http://www.w3.org/1999/xlink" x="0px" y="0px"
	 viewBox="0 0 512 512" style="enable-background:new 0 0 512 512;" xml:space="preserve">
<path style="fill:#DD3646;" d="M440.191,16.295c-21.727-21.727-57.08-21.727-78.808,0L312.29,65.389
	c-2.931,2.931-2.931,7.684,0,10.614l68.194,68.194c1.407,1.408,3.316,2.199,5.307,2.199c1.991,0,3.9-0.791,5.307-2.199
	l49.093-49.094C461.918,73.376,461.918,38.024,440.191,16.295z"/>
<path style="fill:#931F25;" d="M440.191,16.295c-4.835-4.835-10.347-8.587-16.231-11.27c12.051,21.256,9.042,48.801-9.056,66.899
	l-49.093,49.094c-1.407,1.408-3.316,2.199-5.307,2.199c-0.367,0-0.731-0.036-1.09-0.089l21.071,21.071
	c1.407,1.408,3.316,2.199,5.307,2.199c1.991,0,3.9-0.791,5.307-2.199l49.093-49.094C461.918,73.376,461.918,38.024,440.191,16.295z"
	/>
<path style="fill:#E0E0E0;" d="M362.49,162.19l-68.194-68.194c-2.931-2.931-7.684-2.931-10.614,0L110.073,267.604
	c-15.084,15.084-20.137,36.915-13.526,56.845l-33.694,33.694c-9.784,9.784-9.784,25.705,0,35.489
	c4.893,4.893,11.318,7.338,17.745,7.338s12.853-2.446,17.744-7.338l33.694-33.694c19.929,6.61,41.761,1.558,56.845-13.526
	L362.49,172.804C365.421,169.874,365.421,165.121,362.49,162.19z"/>
<path style="fill:#C6C5CA;" d="M362.49,162.19l-17.489-17.489c-0.36,1.04-0.947,2.02-1.777,2.849L169.615,321.159
	c-15.084,15.084-36.916,20.136-56.845,13.526l-33.694,33.694c-4.893,4.893-11.318,7.338-17.745,7.338
	c-1.946,0-3.892-0.228-5.796-0.678c-0.224,6.706,2.211,13.485,7.318,18.593c4.893,4.893,11.318,7.338,17.745,7.338
	s12.853-2.446,17.744-7.338l33.694-33.694c19.929,6.61,41.761,1.558,56.845-13.526l173.608-173.609
	C365.421,169.874,365.421,165.121,362.49,162.19z"/>
<g>
	<path style="fill:#39A4FA;" d="M135.759,429.198c-8.741-12.489-17.352-22.445-17.714-22.862c-1.425-1.643-3.495-2.588-5.67-2.588
		c-2.176,0-4.244,0.944-5.67,2.588c-0.362,0.417-8.974,10.373-17.714,22.862C76.481,447.073,70.4,460.428,70.4,470.026
		C70.4,493.17,89.229,512,112.374,512c23.144,0,41.974-18.829,41.974-41.974C154.349,460.428,148.269,447.074,135.759,429.198z"/>
	<path style="fill:#39A4FA;" d="M235.109,342.059c-1.426-1.643-3.495-2.588-5.669-2.588s-4.244,0.944-5.67,2.588
		c-4.388,5.06-42.875,50.142-42.875,74.895c0,26.768,21.777,48.545,48.545,48.545s48.545-21.777,48.545-48.545
		C277.985,392.201,239.499,347.118,235.109,342.059z"/>
</g>
<g>
	<path style="fill:#0091E2;" d="M135.759,429.198c-8.741-12.489-17.352-22.445-17.714-22.862c-1.425-1.643-3.495-2.588-5.67-2.588
		c-2.176,0-4.244,0.944-5.67,2.588c-0.265,0.305-4.953,5.728-10.87,13.503c2.17,2.85,4.499,6.007,6.844,9.359
		c12.509,17.875,18.591,31.23,18.591,40.828c0,17.274-10.491,32.14-25.435,38.572c5.079,2.186,10.669,3.402,16.539,3.402
		c23.144,0,41.974-18.829,41.974-41.974C154.349,460.428,148.269,447.074,135.759,429.198z"/>
	<path style="fill:#0091E2;" d="M235.109,342.059c-1.426-1.643-3.495-2.588-5.669-2.588s-4.244,0.944-5.67,2.588
		c-1.29,1.487-5.529,6.437-10.87,13.31c12.825,16.503,32.006,44.11,32.006,61.585c0,20.963-13.357,38.861-32.006,45.641
		c5.165,1.877,10.734,2.905,16.539,2.905c26.768,0,48.545-21.777,48.545-48.545C277.985,392.201,239.499,347.118,235.109,342.059z"
		/>
</g>
<path style="fill:#FF434D;" d="M413.469,155.953L300.532,43.017c-2.931-2.931-7.684-2.931-10.615,0L261.31,71.626
	c-2.931,2.931-2.931,7.684,0,10.614l112.937,112.937c1.407,1.408,3.316,2.199,5.307,2.199c1.991,0,3.9-0.791,5.307-2.199
	l28.607-28.608C416.4,163.637,416.4,158.884,413.469,155.953z"/>
<path style="fill:#39A4FA;" d="M308.857,226.438l12.813-12.813H164.053l-2.199,2.199l-51.782,51.782
	c-15.084,15.084-20.137,36.915-13.526,56.845l-33.694,33.694c-3.057,3.057-5.16,6.714-6.306,10.596
	c-0.229,0.777-0.42,1.562-0.573,2.353c-0.153,0.792-0.267,1.588-0.344,2.389c-0.076,0.801-0.115,1.603-0.115,2.407
	c0,6.426,2.446,12.853,7.338,17.745c2.141,2.141,4.574,3.813,7.173,5.017c0.371,0.172,0.746,0.334,1.124,0.487
	c3.021,1.223,6.235,1.834,9.447,1.834c4.326,0,8.651-1.114,12.509-3.332c1.872-1.076,3.637-2.409,5.235-4.007l33.694-33.694
	c5.605,1.859,11.36,2.795,17.074,2.846c14.601,0.129,28.929-5.53,39.771-16.372l119.977-119.975
	C308.856,226.438,308.857,226.438,308.857,226.438z"/>
<path style="fill:#DD3646;" d="M413.469,166.568c2.931-2.931,2.931-7.684,0-10.614l-21.982-21.982l-39.222,39.222l21.982,21.982
	c1.407,1.408,3.316,2.199,5.307,2.199c1.991,0,3.9-0.791,5.307-2.199L413.469,166.568z"/>
<path style="fill:#0091E2;" d="M169.615,321.159c-15.084,15.084-36.916,20.136-56.845,13.526l-33.694,33.694
	c-4.893,4.893-11.318,7.338-17.745,7.338c-1.946,0-3.892-0.228-5.796-0.678c-0.224,6.706,2.211,13.485,7.318,18.593
	c4.893,4.893,11.318,7.338,17.745,7.338s12.853-2.446,17.744-7.338l33.694-33.694c19.929,6.61,41.761,1.558,56.845-13.526
	L321.67,213.625h-44.52L169.615,321.159z"/>
<g>
</g>
<g>
</g>
<g>
</g>
<g>
</g>
<g>
</g>
<g>
</g>
<g>
</g>
<g>
</g>
<g>
</g>
<g>
</g>
<g>
</g>
<g>
</g>
<g>
</g>
<g>
</g>
<g>
</g>
</svg>
