<?xml version="1.0" encoding="iso-8859-1"?>
<!-- Generator: Adobe Illustrator 19.0.0, SVG Export Plug-In . SVG Version: 6.00 Build 0)  -->
<svg version="1.1" id="Capa_1" xmlns="http://www.w3.org/2000/svg" xmlns:xlink="http://www.w3.org/1999/xlink" x="0px" y="0px"
	 viewBox="0 0 512 512" style="enable-background:new 0 0 512 512;" xml:space="preserve">
<path style="fill:#39A4FA;" d="M507.459,355.883l-124.248-53.388c-1.883-0.809-4.013-0.812-5.899-0.011L256,354.094l-121.311-51.611
	c-1.887-0.803-4.017-0.799-5.9,0.011L4.541,355.883c-2.76,1.185-4.547,3.902-4.541,6.906c0.006,3.003,1.802,5.714,4.565,6.89
	l248.497,105.719c0.939,0.399,1.939,0.599,2.938,0.599c0.999,0,1.999-0.2,2.938-0.599L507.435,369.68
	c2.764-1.175,4.56-3.886,4.565-6.89C512.006,359.785,510.219,357.068,507.459,355.883z"/>
<path style="fill:#0091E2;" d="M256,387.255l163.043-69.365l-35.833-15.397c-1.883-0.809-4.013-0.812-5.899-0.011l-121.312,51.611
	l-121.311-51.611c-1.887-0.803-4.017-0.799-5.9,0.011l-35.833,15.397L256,387.255z"/>
<path style="fill:#546F7A;" d="M507.459,249.636l-124.248-53.388c-1.883-0.809-4.013-0.812-5.899-0.011L256,247.847l-121.311-51.611
	c-1.887-0.803-4.017-0.798-5.9,0.011L4.541,249.636c-2.76,1.185-4.547,3.902-4.541,6.906c0.006,3.004,1.802,5.714,4.565,6.89
	l248.497,105.719c0.939,0.399,1.939,0.599,2.938,0.599c0.999,0,1.999-0.2,2.938-0.599l248.497-105.719
	c2.764-1.175,4.56-3.886,4.565-6.89C512.006,253.538,510.219,250.821,507.459,249.636z"/>
<path style="fill:#475D63;" d="M256,281.008l163.043-69.365l-35.833-15.397c-1.883-0.809-4.013-0.812-5.899-0.011l-121.312,51.611
	l-121.311-51.611c-1.887-0.803-4.017-0.798-5.9,0.011l-35.833,15.397L256,281.008z"/>
<path style="fill:#E0E0E0;" d="M507.459,143.389L258.962,36.612c-1.892-0.813-4.032-0.813-5.924,0L4.541,143.389
	c-2.76,1.185-4.547,3.902-4.541,6.906c0.006,3.003,1.802,5.714,4.565,6.89l248.497,105.719c0.939,0.399,1.939,0.599,2.938,0.599
	c0.999,0,1.999-0.2,2.938-0.599l248.497-105.719c2.764-1.175,4.56-3.886,4.565-6.89
	C512.006,147.291,510.219,144.574,507.459,143.389z"/>
<g>
</g>
<g>
</g>
<g>
</g>
<g>
</g>
<g>
</g>
<g>
</g>
<g>
</g>
<g>
</g>
<g>
</g>
<g>
</g>
<g>
</g>
<g>
</g>
<g>
</g>
<g>
</g>
<g>
</g>
</svg>
