<?xml version="1.0" encoding="iso-8859-1"?>
<!-- Generator: Adobe Illustrator 19.0.0, SVG Export Plug-In . SVG Version: 6.00 Build 0)  -->
<svg version="1.1" id="Capa_1" xmlns="http://www.w3.org/2000/svg" xmlns:xlink="http://www.w3.org/1999/xlink" x="0px" y="0px"
	 viewBox="0 0 512.002 512.002" style="enable-background:new 0 0 512.002 512.002;" xml:space="preserve">
<g>
	<path style="fill:#FFAE47;" d="M267.767,171.465L98.499,2.198C97.092,0.79,95.183,0,93.193,0c-1.99,0-3.898,0.79-5.307,2.198
		L2.438,87.647c-2.93,2.93-2.93,7.682,0,10.611l169.268,169.268c1.408,1.408,3.316,2.198,5.307,2.198c1.99,0,3.898-0.79,5.307-2.198
		l85.448-85.449C270.697,179.147,270.697,174.396,267.767,171.465z"/>
	<path style="fill:#FFAE47;" d="M509.695,413.393l-169.05-169.049c-2.931-2.93-7.682-2.93-10.612,0l-85.449,85.449
		c-1.407,1.407-2.197,3.316-2.197,5.306s0.79,3.899,2.197,5.306l169.05,169.05c1.466,1.465,3.387,2.198,5.307,2.198
		c1.92,0,3.841-0.732,5.307-2.198l85.449-85.449c1.407-1.407,2.197-3.316,2.197-5.306
		C511.892,416.708,511.102,414.799,509.695,413.393z"/>
</g>
<g>
	<path style="fill:#FF9017;" d="M267.767,182.078c2.93-2.93,2.93-7.682,0-10.611l-17.274-17.274l-96.41,95.711l17.623,17.623
		c1.408,1.408,3.316,2.198,5.307,2.198c1.99,0,3.898-0.79,5.307-2.198L267.767,182.078z"/>
	<path style="fill:#FF9017;" d="M359.404,263.103l-18.76-18.76c-2.931-2.93-7.682-2.93-10.612,0l-85.449,85.449
		c-1.407,1.407-2.197,3.316-2.197,5.306s0.79,3.899,2.197,5.306l18.761,18.761L359.404,263.103z"/>
</g>
<g>
	<path style="fill:#C96E14;" d="M427.423,415.451l42.214-42.116l-10.612-10.612l-42.215,42.116c-2.93,2.93-2.93,7.682,0,10.612
		c1.466,1.465,3.387,2.198,5.307,2.198C424.036,417.649,425.957,416.915,427.423,415.451z"/>
	<path style="fill:#C96E14;" d="M426.985,330.684l-31.601,31.508c-2.93,2.93-2.93,7.682,0,10.611
		c1.466,1.465,3.387,2.198,5.307,2.198c1.92,0,3.841-0.732,5.307-2.198l31.601-31.507L426.985,330.684z"/>
	<path style="fill:#C96E14;" d="M394.854,298.552l-42.117,42.213c-2.93,2.93-2.93,7.682,0,10.612
		c1.466,1.465,3.387,2.198,5.307,2.198c1.92,0,3.841-0.732,5.307-2.198l42.117-42.213L394.854,298.552z"/>
	<path style="fill:#C96E14;" d="M362.987,266.685l-31.676,31.432c-2.93,2.93-2.93,7.682,0,10.612
		c1.466,1.465,3.387,2.198,5.307,2.198c1.92,0,3.841-0.732,5.307-2.198l31.676-31.432L362.987,266.685z"/>
	<path style="fill:#C96E14;" d="M234.796,138.495l-42.245,42.085c-2.93,2.93-2.93,7.682,0,10.611
		c1.466,1.465,3.387,2.198,5.307,2.198s3.841-0.732,5.307-2.198l42.244-42.084L234.796,138.495z"/>
	<path style="fill:#C96E14;" d="M181.737,148.545l31.592-31.516l-10.611-10.611l-31.592,31.516
		c-2.931,2.93-2.931,7.681-0.001,10.611c1.466,1.466,3.386,2.198,5.307,2.198C178.351,150.742,180.272,150.009,181.737,148.545z"/>
	<path style="fill:#C96E14;" d="M170.725,74.424l-42.249,42.082c-2.931,2.93-2.931,7.682,0,10.611
		c1.466,1.466,3.386,2.198,5.307,2.198c1.92,0,3.841-0.732,5.307-2.198l42.248-42.081L170.725,74.424z"/>
	<path style="fill:#C96E14;" d="M138.739,42.438l-31.687,31.421c-2.93,2.93-2.93,7.682,0,10.611
		c1.466,1.465,3.387,2.198,5.307,2.198c1.92,0,3.841-0.732,5.307-2.198l31.687-31.421L138.739,42.438z"/>
</g>
<path style="fill:#FFD039;" d="M81.647,346.974c-2.93,2.93-2.93,7.682,0,10.611l72.877,72.877c1.408,1.408,3.316,2.198,5.307,2.198
	c1.99,0,3.898-0.79,5.307-2.198l303.706-303.706l-83.49-83.489L81.647,346.974z"/>
<path style="fill:#FFC89F;" d="M508.603,3.507c-2.044-2.044-5.08-2.732-7.804-1.77l-112.522,39.72
	c-1.111,0.392-2.083,1.041-2.877,1.859l83.394,83.394c0.818-0.794,1.467-1.767,1.858-2.876l39.72-112.522
	C511.336,8.585,510.646,5.55,508.603,3.507z"/>
<path style="fill:#F7B081;" d="M508.603,3.507c-2.044-2.044-5.08-2.732-7.804-1.77l-21.63,7.636l-33.28,94.276l22.98,22.98
	c0.781-0.779,1.404-1.722,1.783-2.795l39.72-112.522C511.336,8.585,510.646,5.55,508.603,3.507z"/>
<path style="fill:#FFAE47;" d="M468.842,126.758l-22.993-22.993L136.838,412.776l17.686,17.686c1.408,1.408,3.316,2.198,5.307,2.198
	c1.989,0,3.895-0.789,5.304-2.195l254.239-254.239L468.842,126.758z"/>
<path style="fill:#3C5156;" d="M508.603,3.507c-2.045-2.044-5.08-2.731-7.804-1.77l-63.653,22.469l50.699,50.922l3.52-9.971
	l0.002-0.011c0.002-0.003,0.004-0.007,0.005-0.011l19.001-53.825C511.336,8.585,510.646,5.55,508.603,3.507z"/>
<path style="fill:#304144;" d="M508.603,3.507c-2.045-2.044-5.08-2.731-7.804-1.77l-21.63,7.636l-14.866,42.111l23.541,23.645
	l1.473-4.173l2.047-5.798l0.002-0.011c0.002-0.003,0.004-0.007,0.005-0.011l19.001-53.825C511.336,8.585,510.646,5.55,508.603,3.507
	z"/>
<rect x="44.757" y="373.045" transform="matrix(-0.7071 -0.7071 0.7071 -0.7071 -111.8061 770.5444)" style="fill:#FF6137;" width="117.849" height="70.765"/>
<rect x="98.514" y="422.44" transform="matrix(0.7071 -0.7071 0.7071 0.7071 -270.9493 223.1544)" style="fill:#E04F32;" width="70.765" height="32.403"/>
<path style="fill:#546F7A;" d="M130.935,464.505l-43.678-43.677l-23.249-23.249l-16.201-16.604l-4.853,4.793
	c-0.256,0.197-0.504,0.404-0.735,0.635L9.591,419.032c-6.114,6.113-9.482,14.242-9.482,22.889s3.367,16.776,9.481,22.889
	l37.711,37.711c6.114,6.114,14.243,9.482,22.89,9.482s16.776-3.368,22.889-9.482L130.935,464.505z"/>
<g>
	<polygon style="fill:#475D63;" points="61.861,395.377 47.807,380.973 47.63,381.147 	"/>
	<path style="fill:#475D63;" d="M108.022,441.592l-37.828,37.987c-6.113,6.114-14.242,9.482-22.889,9.482s-16.776-3.368-22.89-9.482
		l22.887,22.94c6.114,6.114,14.243,9.482,22.89,9.482s16.776-3.368,22.889-9.482l37.854-38.014L108.022,441.592z"/>
</g>
<g>
</g>
<g>
</g>
<g>
</g>
<g>
</g>
<g>
</g>
<g>
</g>
<g>
</g>
<g>
</g>
<g>
</g>
<g>
</g>
<g>
</g>
<g>
</g>
<g>
</g>
<g>
</g>
<g>
</g>
</svg>
