<?xml version="1.0" encoding="iso-8859-1"?>
<!-- Generator: Adobe Illustrator 19.0.0, SVG Export Plug-In . SVG Version: 6.00 Build 0)  -->
<svg version="1.1" id="Capa_1" xmlns="http://www.w3.org/2000/svg" xmlns:xlink="http://www.w3.org/1999/xlink" x="0px" y="0px"
	 viewBox="0 0 512 512" style="enable-background:new 0 0 512 512;" xml:space="preserve">
<path style="fill:#546F7A;" d="M364.299,32.517h-67.812c-4.148,0-7.509,3.362-7.509,7.509v78.113c0,4.147,3.361,7.509,7.509,7.509
	h67.812c4.148,0,7.509-3.362,7.509-7.509V40.026C371.808,35.879,368.447,32.517,364.299,32.517z"/>
<path style="fill:#475D63;" d="M364.299,32.517h-25.03v93.131h25.03c4.148,0,7.509-3.362,7.509-7.509V40.026
	C371.808,35.879,368.447,32.517,364.299,32.517z"/>
<path style="fill:#E0E0E0;" d="M411.308,110.63H249.479c-4.148,0-7.509,3.362-7.509,7.509v53.513c0,4.147,3.361,7.509,7.509,7.509
	h161.83c4.148,0,7.509-3.362,7.509-7.509v-53.513C418.817,113.992,415.456,110.63,411.308,110.63z"/>
<path style="fill:#C6C5CA;" d="M411.308,110.63h-25.03v68.531h25.03c4.148,0,7.509-3.362,7.509-7.509v-53.513
	C418.817,113.992,415.456,110.63,411.308,110.63z"/>
<path style="fill:#39A4FA;" d="M438.266,164.142H222.521c-4.148,0-7.509,3.362-7.509,7.509v332.84c0,4.147,3.361,7.509,7.509,7.509
	h215.746c4.147,0,7.509-3.362,7.509-7.509v-332.84C445.775,167.504,442.414,164.142,438.266,164.142z"/>
<path style="fill:#0091E2;" d="M438.266,164.142h-25.03V512h25.03c4.147,0,7.509-3.362,7.509-7.509v-332.84
	C445.775,167.504,442.414,164.142,438.266,164.142z"/>
<path style="fill:#FFD039;" d="M380.622,248.126h-165.61v179.89h165.611c4.389,0,7.946-3.362,7.946-7.509V255.635
	C388.569,251.488,385.011,248.126,380.622,248.126z"/>
<path style="fill:#FFAE47;" d="M380.622,248.126H356.03v179.89h24.592c4.389,0,7.946-3.362,7.946-7.509V255.635
	C388.569,251.488,385.011,248.126,380.622,248.126z"/>
<g>
	<path style="fill:#39A4FA;" d="M241.566,84.194h-32.264c-4.148,0-7.509-3.362-7.509-7.509c0-4.147,3.361-7.509,7.509-7.509h32.264
		c4.148,0,7.509,3.362,7.509,7.509C249.075,80.832,245.714,84.194,241.566,84.194z"/>
	<path style="fill:#39A4FA;" d="M150.175,84.194H117.91c-4.148,0-7.509-3.362-7.509-7.509c0-4.147,3.361-7.509,7.509-7.509h32.264
		c4.148,0,7.509,3.362,7.509,7.509C157.684,80.832,154.323,84.194,150.175,84.194z"/>
	<path style="fill:#39A4FA;" d="M197.389,62.403h-32.264c-4.148,0-7.509-3.362-7.509-7.509s3.361-7.509,7.509-7.509h32.264
		c4.148,0,7.509,3.362,7.509,7.509S201.537,62.403,197.389,62.403z"/>
	<path style="fill:#39A4FA;" d="M105.997,62.403H73.734c-4.148,0-7.509-3.362-7.509-7.509s3.361-7.509,7.509-7.509h32.264
		c4.148,0,7.509,3.362,7.509,7.509C113.506,59.041,110.145,62.403,105.997,62.403z"/>
	<path style="fill:#39A4FA;" d="M150.175,37.604H117.91c-4.148,0-7.509-3.362-7.509-7.509s3.361-7.509,7.509-7.509h32.264
		c4.148,0,7.509,3.362,7.509,7.509S154.323,37.604,150.175,37.604z"/>
	<path style="fill:#39A4FA;" d="M150.175,130.786H117.91c-4.148,0-7.509-3.362-7.509-7.509c0-4.147,3.361-7.509,7.509-7.509h32.264
		c4.148,0,7.509,3.362,7.509,7.509C157.684,127.424,154.323,130.786,150.175,130.786z"/>
	<path style="fill:#39A4FA;" d="M197.389,109.789h-32.264c-4.148,0-7.509-3.362-7.509-7.509c0-4.147,3.361-7.509,7.509-7.509h32.264
		c4.148,0,7.509,3.362,7.509,7.509C204.898,106.427,201.537,109.789,197.389,109.789z"/>
	<path style="fill:#39A4FA;" d="M105.997,109.789H73.734c-4.148,0-7.509-3.362-7.509-7.509c0-4.147,3.361-7.509,7.509-7.509h32.264
		c4.148,0,7.509,3.362,7.509,7.509C113.506,106.427,110.145,109.789,105.997,109.789z"/>
	<path style="fill:#39A4FA;" d="M105.997,15.018H73.734c-4.148,0-7.509-3.362-7.509-7.509S69.586,0,73.734,0h32.264
		c4.148,0,7.509,3.362,7.509,7.509S110.145,15.018,105.997,15.018z"/>
	<path style="fill:#39A4FA;" d="M105.997,157.174H73.734c-4.148,0-7.509-3.362-7.509-7.509s3.361-7.509,7.509-7.509h32.264
		c4.148,0,7.509,3.362,7.509,7.509C113.506,153.812,110.145,157.174,105.997,157.174z"/>
</g>
<g>
</g>
<g>
</g>
<g>
</g>
<g>
</g>
<g>
</g>
<g>
</g>
<g>
</g>
<g>
</g>
<g>
</g>
<g>
</g>
<g>
</g>
<g>
</g>
<g>
</g>
<g>
</g>
<g>
</g>
</svg>
