<?xml version="1.0" encoding="iso-8859-1"?>
<!-- Generator: Adobe Illustrator 19.0.0, SVG Export Plug-In . SVG Version: 6.00 Build 0)  -->
<svg version="1.1" id="Capa_1" xmlns="http://www.w3.org/2000/svg" xmlns:xlink="http://www.w3.org/1999/xlink" x="0px" y="0px"
	 viewBox="0 0 512 512" style="enable-background:new 0 0 512 512;" xml:space="preserve">
<path style="fill:#FFC89F;" d="M452.685,97.931C420.974,37.525,351.921,0,272.474,0C213.591,0,167.43,20.833,135.272,61.92
	c-25.974,33.187-36.031,70.938-41.434,91.218c-1.057,3.968-1.97,7.394-2.7,9.587c-6.351,19.056-37.126,93.496-50.062,124.615
	c-2.482,5.969-1.822,12.741,1.765,18.116c3.589,5.379,9.594,8.591,16.062,8.591h23.641c3.454,17.811,13.742,69.037,21.769,90.226
	c7.535,19.89,25.346,31.482,51.51,33.523c10.953,0.855,21.128-0.152,27.781-1.158l12.259,69.158
	c0.636,3.588,3.755,6.203,7.399,6.203H408.03c2.193,0,4.277-0.959,5.705-2.623c1.428-1.665,2.056-3.872,1.721-6.039l-18.56-120.135
	c39.347-57.567,63.594-112.199,72.08-162.415C476.764,174.696,471.283,133.36,452.685,97.931z"/>
<path style="fill:#F7B081;" d="M452.685,97.931C420.974,37.525,351.921,0,272.474,0c-5.715,0-11.306,0.202-16.781,0.594
	c72.248,4.92,133.88,41.258,163.32,97.337c18.599,35.429,24.08,76.764,16.291,122.857c-8.486,50.216-32.733,104.848-72.08,162.415
	l18.561,120.135c0.335,2.167-0.294,4.374-1.721,6.039c-1.428,1.665-3.512,2.623-5.705,2.623h33.672c2.193,0,4.277-0.959,5.705-2.623
	c1.428-1.665,2.056-3.872,1.721-6.039l-18.56-120.135c39.347-57.567,63.594-112.199,72.08-162.415
	C476.764,174.696,471.283,133.36,452.685,97.931z"/>
<path style="fill:#FFD039;" d="M278.473,129.523c-53.553,0-97.121,43.721-97.121,97.462c0,18.931,5.422,37.295,15.709,53.153
	c0.007,0.011,0.016,0.024,0.025,0.038l0.082,0.127c0.258,0.397,0.516,0.795,0.729,1.109c26.013,39.665,38.002,67.397,41.297,75.596
	h78.557c3.295-8.205,15.278-35.923,41.244-75.517c0.273-0.405,0.539-0.814,0.805-1.222l0.063-0.097
	c0.013-0.02,0.034-0.051,0.053-0.081c10.257-15.811,15.678-34.174,15.678-53.105C375.594,173.244,332.026,129.523,278.473,129.523z"
	/>
<path style="fill:#FFAE47;" d="M278.473,129.523c-5.57,0-11.03,0.48-16.345,1.388c45.796,7.822,80.776,47.924,80.776,96.075
	c0,18.931-5.422,37.295-15.678,53.105c-0.019,0.03-0.04,0.061-0.053,0.081l-0.063,0.097c-0.266,0.409-0.532,0.818-0.805,1.222
	c-25.966,39.594-37.948,67.312-41.244,75.517h32.691c3.295-8.205,15.278-35.923,41.244-75.517c0.273-0.405,0.539-0.814,0.805-1.222
	l0.063-0.097c0.013-0.02,0.034-0.051,0.053-0.081c10.257-15.811,15.678-34.174,15.678-53.105
	C375.594,173.244,332.026,129.523,278.473,129.523z"/>
<path style="fill:#FF6137;" d="M287.08,364.522c-0.01,0-0.021,0-0.031,0c-4.15-0.017-7.501-3.395-7.485-7.545
	c0.004-1.006,0.127-24.929,2.469-50.245c0.26-2.82,0.541-5.652,0.851-8.475c-2.897,0.134-5.948,0.128-8.837-0.018
	c0.31,2.828,0.591,5.668,0.853,8.493c2.343,25.315,2.465,49.238,2.469,50.245c0.017,4.15-3.333,7.528-7.484,7.545
	c-0.01,0-0.021,0-0.031,0c-4.136,0-7.497-3.344-7.515-7.484c-0.001-0.232-0.122-23.563-2.302-47.79
	c-0.441-4.901-0.919-9.331-1.42-13.331c-13.177-3.521-22.645-10.717-26.562-20.673c-3.647-9.272-1.473-19.481,5.54-26.008
	c7.298-6.792,13.74-5.49,16.928-4.109c9.519,4.122,14.503,19.601,17.495,37.923c2.078,0.18,4.29,0.276,6.642,0.276
	c2.205,0,4.286-0.086,6.247-0.247c2.992-18.334,7.976-33.827,17.5-37.951c3.189-1.381,9.63-2.683,16.928,4.109
	c7.028,6.541,9.206,16.777,5.547,26.078c-3.926,9.98-13.404,17.179-26.577,20.668c-0.501,4.007-0.979,8.444-1.42,13.355
	c-2.174,24.225-2.293,47.47-2.294,47.701C294.578,361.178,291.216,364.522,287.08,364.522z M307.966,259.319
	c-1.149,1.235-4.099,5.619-6.981,19.832c5.424-2.577,8.606-6.016,9.913-9.338c1.424-3.621,0.751-7.2-1.799-9.575
	C308.62,259.792,308.243,259.504,307.966,259.319z M248.969,259.319c-0.277,0.184-0.654,0.473-1.133,0.919
	c-2.535,2.36-3.205,5.913-1.793,9.504c1.304,3.315,4.479,6.744,9.889,9.328C253.056,264.922,250.115,260.553,248.969,259.319z"/>
<path style="fill:#546F7A;" d="M239.795,357.007c0,0.009-0.001,0.017-0.001,0.026v24.916c0,21.328,17.352,38.68,38.68,38.68
	c21.329,0,38.68-17.352,38.68-38.68v-24.916c0-0.009-0.001-0.017-0.001-0.026H239.795z"/>
<path style="fill:#475D63;" d="M317.152,357.007h-33.045c0,0.009,0.001,0.017,0.001,0.026v24.916
	c0,15.42-9.073,28.756-22.157,34.964c5.014,2.379,10.614,3.715,16.522,3.715c21.329,0,38.68-17.352,38.68-38.68v-24.916
	C317.153,357.025,317.152,357.016,317.152,357.007z"/>
<path style="fill:#3A4D51;" d="M318.927,389.545H238.02c-4.15,0-7.515-3.365-7.515-7.515c0-4.15,3.365-7.515,7.515-7.515h80.907
	c4.15,0,7.515,3.365,7.515,7.515C326.442,386.18,323.077,389.545,318.927,389.545z"/>
<g>
	<path style="fill:#FF6137;" d="M278.473,103.76c-4.15,0-7.515-3.365-7.515-7.515V65.942c0-4.15,3.365-7.515,7.515-7.515
		c4.15,0,7.515,3.365,7.515,7.515v30.303C285.988,100.395,282.623,103.76,278.473,103.76z"/>
	<path style="fill:#FF6137;" d="M337.127,117.047c-0.745,0-1.504-0.111-2.252-0.347c-3.96-1.243-6.162-5.461-4.92-9.42l9.076-28.911
		c1.242-3.96,5.461-6.162,9.42-4.92c3.96,1.243,6.162,5.461,4.92,9.42l-9.076,28.911
		C343.287,114.992,340.323,117.047,337.127,117.047z"/>
	<path style="fill:#FF6137;" d="M376.836,146.995c-2.242,0-4.461-0.999-5.942-2.908c-2.545-3.278-1.95-8,1.329-10.544l23.939-18.58
		c3.279-2.545,8-1.95,10.544,1.329c2.545,3.278,1.95,8-1.329,10.544l-23.939,18.58C380.069,146.48,378.447,146.995,376.836,146.995z
		"/>
	<path style="fill:#FF6137;" d="M219.82,117.047c-3.196,0-6.16-2.055-7.168-5.266l-9.076-28.911c-1.243-3.96,0.96-8.177,4.92-9.42
		c3.962-1.24,8.178,0.96,9.42,4.92l9.076,28.911c1.243,3.96-0.96,8.177-4.92,9.42C221.324,116.934,220.566,117.047,219.82,117.047z"
		/>
	<path style="fill:#FF6137;" d="M180.11,146.995c-1.61,0-3.232-0.515-4.602-1.579l-23.939-18.58
		c-3.278-2.545-3.874-7.266-1.329-10.544c2.544-3.278,7.265-3.874,10.544-1.329l23.939,18.58c3.278,2.545,3.874,7.265,1.329,10.544
		C184.571,145.995,182.352,146.995,180.11,146.995z"/>
</g>
<g>
</g>
<g>
</g>
<g>
</g>
<g>
</g>
<g>
</g>
<g>
</g>
<g>
</g>
<g>
</g>
<g>
</g>
<g>
</g>
<g>
</g>
<g>
</g>
<g>
</g>
<g>
</g>
<g>
</g>
</svg>
