<?xml version="1.0" encoding="iso-8859-1"?>
<!-- Generator: Adobe Illustrator 19.0.0, SVG Export Plug-In . SVG Version: 6.00 Build 0)  -->
<svg version="1.1" id="Capa_1" xmlns="http://www.w3.org/2000/svg" xmlns:xlink="http://www.w3.org/1999/xlink" x="0px" y="0px"
	 viewBox="0 0 512 512" style="enable-background:new 0 0 512 512;" xml:space="preserve">
<g>
	<path style="fill:#3A4D51;" d="M427.77,140.029c-24.181-26.682-53.874-47.119-86.681-60.106h115.264
		c4.147,0,7.509-3.362,7.509-7.509s-3.362-7.509-7.509-7.509H279.321c-0.539-0.005-1.066,0.047-1.578,0.152
		c-0.04,0.008-0.077,0.021-0.117,0.029c-0.198,0.044-0.394,0.091-0.587,0.151c-0.117,0.036-0.229,0.082-0.343,0.123
		c-0.112,0.041-0.226,0.077-0.335,0.123c-0.145,0.061-0.285,0.132-0.426,0.201c-0.074,0.037-0.152,0.069-0.225,0.108
		c-0.144,0.077-0.282,0.164-0.421,0.25c-0.066,0.041-0.135,0.078-0.2,0.121c-0.127,0.085-0.247,0.178-0.368,0.27
		c-0.071,0.054-0.145,0.104-0.215,0.161c-0.103,0.084-0.199,0.176-0.298,0.265c-0.081,0.073-0.165,0.143-0.242,0.22
		c-0.079,0.078-0.15,0.162-0.226,0.244c-0.089,0.096-0.181,0.191-0.266,0.292c-0.058,0.069-0.109,0.144-0.164,0.215
		c-0.093,0.12-0.187,0.239-0.273,0.365c-0.044,0.065-0.082,0.134-0.123,0.2c-0.088,0.138-0.176,0.275-0.255,0.419
		c-0.04,0.073-0.072,0.149-0.109,0.224c-0.072,0.142-0.145,0.283-0.208,0.431c-0.041,0.096-0.073,0.197-0.11,0.295
		c-0.049,0.13-0.102,0.259-0.144,0.393c-0.044,0.139-0.076,0.284-0.112,0.427c-0.024,0.098-0.055,0.193-0.075,0.292
		c-0.037,0.18-0.061,0.364-0.086,0.549c-0.009,0.067-0.024,0.131-0.031,0.198c0,0.002,0,0.004,0,0.007
		c-0.01,0.099-0.01,0.201-0.016,0.301c-0.01,0.159-0.024,0.318-0.024,0.476v0.001c0,0.012,0.002,0.023,0.002,0.034
		c0.001,0.244,0.012,0.487,0.036,0.726c0.007,0.069,0.022,0.135,0.03,0.203c0.023,0.178,0.046,0.355,0.081,0.53
		c0.027,0.134,0.065,0.263,0.099,0.394c0.027,0.104,0.049,0.21,0.08,0.312c0.055,0.178,0.121,0.351,0.188,0.524
		c0.02,0.051,0.036,0.104,0.057,0.155c0.081,0.194,0.172,0.382,0.268,0.568c0.014,0.028,0.026,0.057,0.04,0.084
		c0.102,0.191,0.214,0.376,0.332,0.557c0.013,0.02,0.024,0.042,0.038,0.062c0.117,0.176,0.244,0.345,0.375,0.512
		c0.018,0.023,0.034,0.048,0.053,0.07c0.128,0.157,0.264,0.306,0.404,0.454c0.027,0.028,0.051,0.058,0.078,0.086
		c0.137,0.139,0.282,0.269,0.43,0.397c0.035,0.03,0.067,0.063,0.102,0.093c0.15,0.126,0.309,0.243,0.47,0.357
		c0.036,0.026,0.07,0.055,0.107,0.08c0.177,0.122,0.362,0.233,0.551,0.34c0.022,0.012,0.042,0.027,0.064,0.039
		c0.876,0.484,1.857,0.797,2.902,0.896c53.066,5.566,102.113,30.505,138.111,70.226c36.264,40.016,56.236,91.82,56.236,145.871
		c0,4.147,3.362,7.509,7.509,7.509c4.147,0,7.509-3.362,7.509-7.509C487.896,238.199,466.543,182.812,427.77,140.029z"/>
	<path style="fill:#3A4D51;" d="M237.827,77.039c0.12-0.153,0.237-0.308,0.345-0.471c0.024-0.036,0.044-0.074,0.067-0.11
		c0.106-0.166,0.21-0.333,0.303-0.508c0.025-0.047,0.045-0.096,0.069-0.143c0.085-0.166,0.167-0.334,0.24-0.508
		c0.032-0.076,0.055-0.155,0.085-0.231c0.056-0.148,0.114-0.295,0.161-0.449c0.041-0.133,0.071-0.271,0.105-0.407
		c0.024-0.1,0.055-0.197,0.075-0.299c0.044-0.214,0.075-0.433,0.1-0.654c0.003-0.027,0.009-0.053,0.012-0.08
		c0.046-0.455,0.046-0.919,0.007-1.391c-0.004-0.049-0.003-0.098-0.008-0.146c0-0.004,0-0.008-0.001-0.012
		c-0.013-0.127-0.039-0.249-0.058-0.374c-0.019-0.122-0.032-0.245-0.057-0.365c-0.035-0.171-0.083-0.337-0.13-0.504
		c-0.02-0.07-0.034-0.143-0.055-0.213c-0.069-0.221-0.149-0.436-0.237-0.648c-0.005-0.012-0.008-0.024-0.013-0.036
		c-0.472-1.118-1.204-2.087-2.113-2.844c-0.011-0.009-0.02-0.019-0.031-0.028c-0.16-0.131-0.326-0.253-0.497-0.371
		c-0.029-0.021-0.057-0.044-0.087-0.064c-0.157-0.106-0.321-0.202-0.487-0.296c-0.046-0.026-0.089-0.056-0.135-0.081
		c-0.165-0.089-0.337-0.168-0.51-0.245c-0.049-0.022-0.096-0.048-0.146-0.069c-0.192-0.081-0.39-0.151-0.59-0.216
		c-0.032-0.01-0.063-0.024-0.095-0.034c-0.727-0.226-1.497-0.343-2.291-0.336H54.819c-4.147,0-7.509,3.362-7.509,7.509
		s3.362,7.509,7.509,7.509h115.263c-32.808,12.987-62.501,33.424-86.681,60.106c-38.773,42.783-60.127,98.169-60.127,155.954
		c0,4.147,3.362,7.509,7.509,7.509s7.509-3.362,7.509-7.509c0-54.051,19.972-105.855,56.237-145.871
		c35.998-39.721,85.045-64.66,138.111-70.226c1.044-0.099,2.024-0.411,2.899-0.894c0.033-0.018,0.064-0.04,0.097-0.059
		c0.176-0.101,0.35-0.205,0.518-0.32c0.048-0.033,0.091-0.07,0.138-0.103c0.149-0.107,0.297-0.215,0.438-0.332
		c0.046-0.038,0.088-0.081,0.133-0.121c0.136-0.119,0.271-0.24,0.398-0.368c0.038-0.038,0.071-0.08,0.108-0.119
		c0.129-0.136,0.256-0.273,0.374-0.419C237.773,77.113,237.798,77.075,237.827,77.039z"/>
</g>
<g>
	<path style="fill:#FF6137;" d="M31.164,40.55C13.98,40.55,0,54.53,0,71.713c0,17.184,13.98,31.164,31.164,31.164
		s31.164-13.98,31.164-31.164C62.327,54.53,48.347,40.55,31.164,40.55z"/>
	<path style="fill:#FF6137;" d="M480.006,40.55c-17.184,0-31.164,13.98-31.164,31.164s13.98,31.164,31.164,31.164
		c17.184,0,31.164-13.98,31.164-31.164S497.19,40.55,480.006,40.55z"/>
</g>
<g>
	<path style="fill:#FFD039;" d="M54.84,288.752H7.509c-4.147,0-7.509,3.362-7.509,7.509v47.331c0,4.147,3.362,7.509,7.509,7.509
		H54.84c4.147,0,7.509-3.362,7.509-7.509v-47.331C62.348,292.114,58.987,288.752,54.84,288.752z"/>
	<path style="fill:#FFD039;" d="M504.491,288.752h-47.332c-4.147,0-7.509,3.362-7.509,7.509v47.331c0,4.147,3.362,7.509,7.509,7.509
		h47.332c4.147,0,7.509-3.362,7.509-7.509v-47.331C512,292.114,508.638,288.752,504.491,288.752z"/>
	<path style="fill:#FFD039;" d="M391.827,309.533L262.037,91.527c-1.354-2.274-3.805-3.667-6.451-3.667s-5.098,1.394-6.451,3.667
		L119.343,309.533c-1.408,2.365-1.41,5.31-0.003,7.677l54.428,91.593c1.354,2.277,3.806,3.672,6.455,3.672h150.725
		c2.649,0,5.102-1.396,6.455-3.672l54.428-91.593C393.237,314.843,393.235,311.898,391.827,309.533z M255.586,268.234
		c12.439,0,22.523,10.084,22.523,22.523s-10.084,22.523-22.523,22.523s-22.523-10.084-22.523-22.523
		C233.062,278.319,243.146,268.234,255.586,268.234z"/>
</g>
<path style="fill:#FFAE47;" d="M391.827,309.533L262.037,91.527c-1.354-2.274-3.805-3.667-6.451-3.667s-5.098,1.394-6.451,3.667
	l-10.432,17.522l121.645,204.325l-58.89,99.101h29.49c2.649,0,5.102-1.396,6.455-3.672l54.428-91.593
	C393.237,314.843,393.235,311.898,391.827,309.533z"/>
<path style="fill:#546F7A;" d="M353.893,397.448H157.277c-4.147,0-7.509,3.362-7.509,7.509v59.986c0,4.147,3.362,7.509,7.509,7.509
	h196.616c4.147,0,7.509-3.362,7.509-7.509v-59.986C361.402,400.81,358.04,397.448,353.893,397.448z"/>
<path style="fill:#475D63;" d="M353.893,397.448h-25.029v75.003h25.029c4.147,0,7.509-3.362,7.509-7.509v-59.986
	C361.402,400.81,358.04,397.448,353.893,397.448z"/>
<path style="fill:#E89842;" d="M254.447,87.955c-0.225,0.035-0.449,0.078-0.668,0.132c-0.075,0.019-0.15,0.037-0.224,0.058
	c-0.257,0.072-0.51,0.156-0.757,0.255c-0.025,0.01-0.051,0.017-0.076,0.028c-0.276,0.114-0.545,0.246-0.805,0.391
	c-0.052,0.029-0.101,0.062-0.152,0.092c-0.199,0.118-0.393,0.245-0.582,0.381c-0.07,0.05-0.139,0.102-0.206,0.154
	c-0.184,0.143-0.361,0.295-0.532,0.457c-0.044,0.041-0.09,0.078-0.132,0.12c-0.205,0.202-0.398,0.418-0.58,0.645
	c-0.044,0.055-0.084,0.113-0.126,0.169c-0.141,0.186-0.274,0.379-0.399,0.581c-0.713,1.148-1.131,2.499-1.131,3.95v172.866
	c0,0.426,0.044,0.842,0.112,1.248c2.318-0.806,4.804-1.248,7.396-1.248c2.592,0,5.079,0.443,7.396,1.248
	c0.068-0.408,0.112-0.823,0.112-1.248V95.368c0-1.452-0.418-2.801-1.131-3.95c-0.124-0.201-0.258-0.394-0.399-0.581
	c-0.043-0.056-0.082-0.114-0.126-0.169c-0.182-0.226-0.374-0.442-0.58-0.644c-0.043-0.042-0.09-0.08-0.134-0.121
	c-0.17-0.16-0.347-0.312-0.531-0.456c-0.068-0.053-0.137-0.104-0.206-0.154c-0.188-0.136-0.382-0.263-0.582-0.381
	c-0.051-0.03-0.1-0.063-0.152-0.092c-0.26-0.146-0.529-0.277-0.805-0.391c-0.025-0.01-0.051-0.018-0.076-0.028
	c-0.246-0.098-0.5-0.182-0.757-0.254c-0.074-0.021-0.15-0.039-0.225-0.058c-0.219-0.054-0.442-0.098-0.668-0.132
	c-0.079-0.012-0.157-0.027-0.237-0.036c-0.296-0.036-0.597-0.059-0.9-0.059c-0.303,0-0.603,0.023-0.9,0.059
	C254.605,87.929,254.527,87.943,254.447,87.955z"/>
<path style="fill:#CE843C;" d="M254.447,87.955c-0.104,0.016-0.205,0.041-0.307,0.061c-0.12,0.024-0.242,0.042-0.36,0.071
	c-0.075,0.019-0.15,0.037-0.224,0.058c-0.018,0.005-0.035,0.013-0.053,0.018c-0.238,0.069-0.475,0.145-0.704,0.237
	c-0.025,0.01-0.051,0.017-0.075,0.028c-0.276,0.114-0.545,0.246-0.805,0.391c-0.052,0.029-0.101,0.062-0.152,0.092
	c-0.138,0.082-0.27,0.174-0.403,0.264c-0.059,0.04-0.121,0.075-0.178,0.117c-0.069,0.051-0.138,0.101-0.206,0.154
	c-0.184,0.143-0.361,0.296-0.533,0.457c-0.043,0.041-0.09,0.078-0.132,0.119c-0.205,0.202-0.398,0.418-0.581,0.645
	c-0.044,0.055-0.083,0.112-0.126,0.168c-0.083,0.109-0.156,0.225-0.233,0.339c-0.055,0.081-0.114,0.158-0.166,0.242
	c-0.713,1.148-1.131,2.499-1.131,3.95v29.428l15.017,25.224V95.368c0-1.452-0.418-2.801-1.131-3.95
	c-0.052-0.084-0.111-0.16-0.166-0.242c-0.077-0.114-0.151-0.23-0.233-0.339c-0.042-0.056-0.082-0.114-0.126-0.168
	c-0.182-0.226-0.374-0.443-0.58-0.645c-0.042-0.042-0.089-0.079-0.132-0.12c-0.102-0.095-0.21-0.182-0.316-0.271
	c-0.072-0.061-0.141-0.127-0.216-0.185c-0.068-0.053-0.137-0.104-0.206-0.154c-0.058-0.042-0.12-0.077-0.178-0.117
	c-0.133-0.091-0.264-0.183-0.403-0.264c-0.051-0.03-0.1-0.063-0.152-0.092c-0.26-0.146-0.529-0.277-0.805-0.391
	c-0.024-0.01-0.049-0.017-0.073-0.027c-0.141-0.056-0.288-0.098-0.434-0.146c-0.109-0.036-0.215-0.079-0.326-0.11
	c-0.074-0.021-0.15-0.039-0.225-0.058c-0.219-0.054-0.443-0.098-0.668-0.132c-0.079-0.012-0.157-0.027-0.237-0.036
	c-0.297-0.036-0.597-0.059-0.9-0.059c-0.303,0-0.604,0.023-0.9,0.059C254.604,87.929,254.526,87.943,254.447,87.955z"/>
<path style="fill:#FFD039;" d="M279.251,39.549h-47.331c-4.147,0-7.509,3.362-7.509,7.509v47.331c0,4.147,3.362,7.509,7.509,7.509
	h47.331c4.147,0,7.509-3.362,7.509-7.509V47.058C286.759,42.911,283.397,39.549,279.251,39.549z"/>
<g>
</g>
<g>
</g>
<g>
</g>
<g>
</g>
<g>
</g>
<g>
</g>
<g>
</g>
<g>
</g>
<g>
</g>
<g>
</g>
<g>
</g>
<g>
</g>
<g>
</g>
<g>
</g>
<g>
</g>
</svg>
