<?xml version="1.0" encoding="utf-8"?>
<!-- Generator: Adobe Illustrator 18.1.1, SVG Export Plug-In . SVG Version: 6.00 Build 0)  -->
<!DOCTYPE svg PUBLIC "-//W3C//DTD SVG 1.1//EN" "http://www.w3.org/Graphics/SVG/1.1/DTD/svg11.dtd">
<svg version="1.1" id="analyticsIcon" xmlns="http://www.w3.org/2000/svg" xmlns:xlink="http://www.w3.org/1999/xlink" x="0px"
	 y="0px" width="75px" height="75px" viewBox="0 0 75 75" enable-background="new 0 0 75 75" xml:space="preserve">
<g id="gearAll">
	
	<g>
		<path id="gearRed" fill="#F17046" d="M41.1,33.4l-1.4-0.7L39.6,31l1.4-0.8l0,0c-0.1-0.6-0.4-1.2-0.6-1.7l0,0l-1.6,0.2l-1-1.2
			l0.6-1.5l0,0c-0.2-0.2-0.5-0.4-0.8-0.6c-0.3-0.2-0.5-0.3-0.8-0.5l0,0l-1.1,1.1l-1.5-0.4l-0.4-1.5l0,0c-0.6,0-1.2,0-1.8,0.1l0,0
			l-0.3,1.6l-1.5,0.5l-1.2-1l0,0c-0.5,0.3-1,0.7-1.4,1.1l0,0l0.7,1.4l-0.9,1.3L25.8,29l0,0c-0.2,0.6-0.4,1.2-0.5,1.8l0,0l1.4,0.8
			l0.1,1.6l-1.4,0.8l0,0c0.1,0.6,0.4,1.2,0.6,1.7l0,0l1.6-0.2l1,1.3L28,38.1l0,0c0.2,0.2,0.5,0.4,0.8,0.6c0.2,0.2,0.5,0.3,0.8,0.5
			l0,0l1.1-1.1l1.5,0.4l0.4,1.5l0,0c0.6,0,1.2,0,1.9-0.1l0,0l0.3-1.6l1.5-0.5l1.2,1l0,0c0.5-0.3,1-0.7,1.5-1.1h0l-0.7-1.4L39,35
			l1.6,0.1l0,0C40.9,34.6,41,34,41.1,33.4L41.1,33.4z M30.6,36c-2.2-1.5-2.8-4.4-1.3-6.6c1.5-2.2,4.4-2.8,6.6-1.3
			c2.2,1.5,2.8,4.4,1.3,6.6C35.7,36.9,32.8,37.5,30.6,36z"/>
		<path fill="#B55435" d="M33.2,27c-2.8,0-5.1,2.3-5.1,5.1c0,2.8,2.3,5.1,5.1,5.1c2.8,0,5.1-2.3,5.1-5.1C38.3,29.2,36.1,27,33.2,27z
			 M33.2,35.5c-1.9,0-3.5-1.6-3.5-3.5c0-1.9,1.6-3.5,3.5-3.5c1.9,0,3.5,1.6,3.5,3.5C36.7,34,35.1,35.5,33.2,35.5z"/>
	</g>
</g>
<g id="magnifierAll">
	<g id="handle">
		
			<rect x="41.1" y="37.9" transform="matrix(0.7416 -0.6708 0.6708 0.7416 -17.1872 38.9804)" fill="#444" width="1.8" height="7.9"/>
		<path fill="#2D4255" d="M58.6,56.2c0.1,0.2,0,0.6-0.4,0.9l-2.7,2.5c-0.4,0.3-0.8,0.5-0.9,0.3L41.4,45.4c-0.1-0.2,0-0.6,0.4-0.9
			l2.7-2.5c0.4-0.3,0.8-0.5,1-0.3L58.6,56.2z"/>
	</g>
	<path id="glare" opacity="0.5" fill="#FFFFFF" d="M26.3,24.6c-2,1.8-3.1,4.3-3.1,6.8l18.6,3.7c1.2-3.3,0.6-7-1.9-9.8
		C36.3,21.4,30.2,21.1,26.3,24.6z"/>
	<path id="glassHolder" fill="#2D4255" d="M25.8,23.9c-4.4,4-4.7,10.7-0.7,15c4,4.4,10.7,4.7,15.1,0.7c4.4-3.9,4.7-10.7,0.7-15
		C36.9,20.3,30.2,20,25.8,23.9z M38.5,38c-3.4,3.1-8.6,2.8-11.6-0.6c-3.1-3.4-2.8-8.6,0.6-11.7c3.4-3.1,8.6-2.8,11.6,0.6
		C42.2,29.7,41.9,34.9,38.5,38z"/>
</g>
<g id="maskMagnifier01_1_">
	<defs>
		<polygon id="maskMagnifierMask01_1_" points="33.2,32 51.9,32 51.9,13.9 17.6,13.9 		"/>
	</defs>
	<clipPath id="maskMagnifierMask01_2_">
		<use xlink:href="#maskMagnifierMask01_1_"  overflow="visible"/>
	</clipPath>
	<g clip-path="url(#maskMagnifierMask01_2_)">
		<path id="spinner4" fill="#FFFCF5" d="M44.5,32c-0.1,6.2-5.2,11.2-11.4,11.2c-6.2,0-11.3-5-11.4-11.2h-5.4
			c0.1,9.2,7.6,16.6,16.8,16.6S49.8,41.2,49.9,32H44.5z"/>
		<path id="spinner3" fill="#F17046" d="M44.5,32c-0.1,6.2-5.2,11.2-11.4,11.2c-6.2,0-11.3-5-11.4-11.2h-5.4
			c0.1,9.2,7.6,16.6,16.8,16.6S49.8,41.2,49.9,32H44.5z"/>
		<path id="spinner2" fill="#689DA8" d="M44.5,32c-0.1,6.2-5.2,11.2-11.4,11.2c-6.2,0-11.3-5-11.4-11.2h-5.4
			c0.1,9.2,7.6,16.6,16.8,16.6S49.8,41.2,49.9,32H44.5z"/>
	</g>
</g>
<g id="maskMagnifier01">
	<defs>
		<rect id="maskMagnifierMask01" x="10.4" y="13.1" width="22.9" height="37.7"/>
	</defs>
	<clipPath id="maskMagnifierMask01_3_">
		<use xlink:href="#maskMagnifierMask01"  overflow="visible"/>
	</clipPath>
	<g clip-path="url(#maskMagnifierMask01_3_)">
		<path id="spinner1" fill="#405262" d="M33.3,20.4c6.2,0.1,11.2,5.2,11.2,11.4c0,6.2-5,11.3-11.2,11.4v5.4
			c9.2-0.1,16.6-7.6,16.6-16.8S42.5,15.1,33.3,15V20.4z"/>
	</g>
</g>

</svg>
