<?xml version="1.0" encoding="utf-8"?>
<!-- Generator: Adobe Illustrator 19.0.0, SVG Export Plug-In . SVG Version: 6.00 Build 0)  -->
<svg version="1.1" id="articleMarketingIcon" xmlns="http://www.w3.org/2000/svg" xmlns:xlink="http://www.w3.org/1999/xlink"
	 x="0px" y="0px" viewBox="-212 88 75 75" style="enable-background:new -212 88 75 75;" xml:space="preserve">
<style type="text/css">
	.st0{fill:none;stroke:#000000;stroke-width:1.17;stroke-linecap:round;stroke-linejoin:round;stroke-miterlimit:10;}
</style>
<g>
	<g>
		<path id="path0" class="st0" d="M-179.6,145.7l-4.3,4.6c-1.3,1.3-3.7-0.4-2-2l0,0l4.3-4.5l0,0"/>
		<path id="path7" class="st0" d="M-188.9,145.7v-33.4c0,0-0.2-2.1,2.6-2.1c10.1,0,5.1,0,15.2,0v8.9h10.8c0,0,0,11.3,0,30.1
			c-4.9,0-12.7,0-17.6,0"/>
		<path id="path5" class="st0" d="M-168.6,115.2v-4.9c2.8,2.1,5.5,4.3,8.3,6.4c-2.3,0-4.7,0-7,0
			C-168.3,116.6-168.6,116.1-168.6,115.2z"/>
		<path id="path4" class="st0" d="M-180.8,135.4L-180.8,135.4c1.5-3.6,5.6-5,9-3.5l0,0c3.5,1.5,4.9,5.7,3.4,9l0,0
			c-1.5,3.6-5.6,5-9,3.5l0,0C-180.8,143-182.6,139-180.8,135.4z"/>
		<path id="path6" class="st0" d="M-178.7,140.1l2.1-2c0.4-0.4,1-0.3,1.2,0.1l0.5,0.7c0.3,0.5,0.9,0.5,1.2,0.1l2.9-3.1"/>
		<path id="path1" class="st0" d="M-166.6,127.7c-9.4,0-7.5,0-15.7,0"/>
		<path id="path2" class="st0" d="M-166.6,125c-9.4,0-7.5,0-15.7,0"/>
		<path id="path3" class="st0" d="M-166.6,122.2c-9.4,0-7.5,0-15.7,0"/>
	</g>
	<g id="stars_1_">
		<path id="star5" d="M-196.9,121.9c-1.3,0-2.2,1-2.2,2.2c0,1.3,1,2.2,2.2,2.2c1.3,0,2.2-1,2.2-2.2S-195.6,121.9-196.9,121.9z
			 M-196.9,125.7c-0.9,0-1.6-0.7-1.6-1.6s0.7-1.6,1.6-1.6s1.6,0.7,1.6,1.6S-195.9,125.7-196.9,125.7z"/>
		<path id="star4" d="M-193.5,135.8c-0.9,0-1.7,0.7-1.7,1.7s0.7,1.7,1.7,1.7s1.7-0.7,1.7-1.7S-192.6,135.8-193.5,135.8z
			 M-193.5,138.8c-0.7,0-1.3-0.5-1.3-1.3s0.5-1.3,1.3-1.3c0.7,0,1.3,0.5,1.3,1.3S-192.9,138.8-193.5,138.8z"/>
		<path id="star3" d="M-149.8,133.8c-2.4,0-3.2-0.7-3.2-3.2c0-0.2-0.1-0.3-0.3-0.3s-0.3,0.1-0.3,0.3c0,2.4-0.8,3.2-3.2,3.2
			c-0.2,0-0.3,0.1-0.3,0.3s0.1,0.3,0.3,0.3c2.4,0,3.2,0.7,3.2,3.2c0,0.2,0.1,0.3,0.3,0.3s0.3-0.1,0.3-0.3c0-2.4,0.7-3.2,3.2-3.2
			c0.2,0,0.3-0.1,0.3-0.3C-149.4,133.9-149.6,133.8-149.8,133.8z M-153.3,135.5c-0.3-0.7-0.7-1.2-1.4-1.4c0.7-0.3,1.2-0.7,1.4-1.4
			c0.3,0.7,0.7,1.2,1.4,1.4C-152.6,134.4-153.1,134.8-153.3,135.5z"/>
		<path id="star2" d="M-144.8,125.9c-2,0-2.6-0.6-2.6-2.6c0-0.2-0.1-0.2-0.2-0.2c-0.2,0-0.2,0.1-0.2,0.2c0,2-0.6,2.6-2.6,2.6
			c-0.2,0-0.2,0.1-0.2,0.2s0.1,0.2,0.2,0.2c2,0,2.6,0.6,2.6,2.6c0,0.2,0.1,0.2,0.2,0.2c0.2,0,0.2-0.1,0.2-0.2c0-2,0.6-2.6,2.6-2.6
			c0.2,0,0.2-0.1,0.2-0.2S-144.8,125.9-144.8,125.9z M-147.6,127.3c-0.2-0.6-0.6-1-1.2-1.2c0.6-0.2,1-0.6,1.2-1.2
			c0.2,0.6,0.6,1,1.2,1.2C-147,126.4-147.5,126.7-147.6,127.3z"/>
		<path id="star1" d="M-199.2,133.5c-1.8,0-2.3-0.5-2.3-2.3c0-0.1-0.1-0.2-0.2-0.2s-0.2,0.1-0.2,0.2c0,1.8-0.5,2.3-2.3,2.3
			c-0.1,0-0.2,0.1-0.2,0.2c0,0.1,0.1,0.2,0.2,0.2c1.8,0,2.3,0.5,2.3,2.3c0,0.1,0.1,0.2,0.2,0.2s0.2-0.1,0.2-0.2
			c0-1.8,0.5-2.3,2.3-2.3c0.1,0,0.2-0.1,0.2-0.2S-199.1,133.5-199.2,133.5z M-201.7,134.8c-0.2-0.5-0.5-0.8-1.1-1
			c0.5-0.2,0.8-0.5,1.1-1.1c0.2,0.5,0.5,0.9,1,1.1C-201.3,133.9-201.5,134.3-201.7,134.8z"/>
	</g>
</g>
</svg>
