<?xml version="1.0" encoding="utf-8"?>
<!-- Generator: Adobe Illustrator 18.1.1, SVG Export Plug-In . SVG Version: 6.00 Build 0)  -->
<!DOCTYPE svg PUBLIC "-//W3C//DTD SVG 1.1//EN" "http://www.w3.org/Graphics/SVG/1.1/DTD/svg11.dtd">
<svg version="1.1" id="awardsIcon" xmlns="http://www.w3.org/2000/svg" xmlns:xlink="http://www.w3.org/1999/xlink" x="0px" y="0px"
	 width="75px" height="75px" viewBox="0 0 75 75" enable-background="new 0 0 75 75" xml:space="preserve">
<g>
	<g id="ribbonLeft">
		<polygon fill="#E58553" points="24.1,12.4 24.1,28.2 34.1,36.3 37.5,36.3 37.5,12.4 		"/>
		<polygon fill="#FFFFFF" points="27.8,31.2 30.9,33.8 30.9,12.4 27.8,12.4 		"/>
	</g>
	<g id="ribbonRight">
		<polygon fill="#EA9D75" points="37.3,12.4 37.3,36.3 41.3,36.3 50.6,27.7 50.6,12.4 		"/>
		<polygon fill="#FFFFFF" points="43.7,34.2 46.8,31.2 46.8,12.4 43.7,12.4 		"/>
	</g>
	<g id="starAward">
		<path fill="#F2D34F" d="M37.3,37.1l-2.6,5.4l8.2,8.2l-0.1-0.3l5.4-5.4c0,0,0,0,0,0l-7.6-1L37.3,37.1z"/>
		<polygon fill="#F0C100" points="34.7,42.5 34,44 26.4,45.2 31.9,50.5 30.7,58.1 37.5,54.5 44.3,58 44.3,58 43,50.7 		"/>
	</g>
	<g id="awardCircle">
		<path fill="#F0C100" d="M44.3,58L44.3,58L44.3,58c-1.9,1.5-4.3,2.3-6.9,2.3c-6.4,0-11.6-5.2-11.6-11.6c0-4.1,2.2-7.7,5.4-9.8
			l-1.7-1.7c-3.6,2.5-6,6.7-6,11.4c0,7.7,6.2,13.9,13.9,13.9c4.8,0,8.9-2.4,11.4-6l-1.7-1.7C46.4,56.1,45.4,57.1,44.3,58z"/>
		<path fill="#F2D34F" d="M37.4,34.8c-2.9,0-5.6,0.9-7.9,2.4l1.7,1.7c1.8-1.1,3.9-1.8,6.2-1.8c5.1,0,9.5,3.3,11,7.9l0,0l0,0
			c0.4,1.1,0.6,2.4,0.6,3.6c0,2.3-0.7,4.4-1.8,6.2l1.7,1.7c1.5-2.2,2.4-4.9,2.4-7.9C51.2,41,45,34.8,37.4,34.8z"/>
	</g>
</g>
<g id="stars">
	<path id="star3" fill="#FFFFFF" d="M30.4,43.9c-3.3,0.4-3.6,0.8-4,4c-0.4-3.3-0.8-3.6-4-4c3.3-0.4,3.6-0.8,4-4
		C26.8,43.2,27.2,43.5,30.4,43.9z"/>
	<path id="star2" fill="#FFFFFF" d="M25.1,38.4c-2.4,0.3-2.6,0.6-2.9,2.9c-0.3-2.4-0.6-2.6-2.9-2.9c2.4-0.3,2.6-0.6,2.9-2.9
		C22.5,37.8,22.8,38.1,25.1,38.4z"/>
	<path id="star1" fill="#FFFFFF" d="M22.2,46.7c-1.5,0.2-1.7,0.4-1.9,1.9c-0.2-1.5-0.4-1.7-1.9-1.9c1.5-0.2,1.7-0.4,1.9-1.9
		C20.6,46.4,20.7,46.5,22.2,46.7z"/>
</g>

</svg>
