<?xml version="1.0" encoding="utf-8"?>
<!-- Generator: Adobe Illustrator 15.0.0, SVG Export Plug-In . SVG Version: 6.00 Build 0)  -->
<!DOCTYPE svg PUBLIC "-//W3C//DTD SVG 1.1//EN" "http://www.w3.org/Graphics/SVG/1.1/DTD/svg11.dtd">
<svg version="1.1" id="Layer_1" xmlns="http://www.w3.org/2000/svg" xmlns:xlink="http://www.w3.org/1999/xlink" x="0px" y="0px"
	 width="240px" height="215px" viewBox="0 0.25 240 215" enable-background="new 0 0.25 240 215" xml:space="preserve">
<polygon fill="#D89C87" points="61.332,42.594 61.44,45.981 62.715,54.911 69.944,55.761 74.48,50.942 72.938,42.349 "/>
<path fill="#F4C398" d="M57.604,28.769l1.286,9.107c0,0,0.636,4.33,2.441,4.718c0,0,7.832,5.159,11.607-0.246
	c0,0,1.115-1.398,1.396-12.155L74.14,22.89C74.14,22.891,62.169,13.416,57.604,28.769z"/>
<path fill="#E2B38D" d="M60.872,33.366c0,0,1.562,9.213,3.757,10.701c0,0-1.914-0.425-3.898-1.63
	c-1.985-1.205-2.551-9.78-2.551-9.78L60.872,33.366z"/>
<path fill="#F4C398" d="M56.903,29.893c0,0-0.708,4.253,2.198,5.6l-0.568-5.245L56.903,29.893z"/>
<polygon fill="#49300B" points="61.591,27.292 60.511,35.4 56.903,29.893 54.949,25.762 "/>
<path fill="#FFE651" d="M54.301,26.456l8.86,3.521c0,0,14.17,4.064,15.938-0.882c0,0,0.021-2.063-2.329-2.615
	c0,0-6.553-19.249-19.806-8.993C56.963,17.488,53.985,19.561,54.301,26.456z"/>
<path fill="none" stroke="#FAB340" stroke-miterlimit="10" d="M76.769,26.481c-3.739,3.622-13.572,1.88-13.572,1.88"/>
<line fill="none" stroke="#FAB340" stroke-miterlimit="10" x1="63.446" y1="28.51" x2="54.882" y2="25.742"/>
<path fill="none" stroke="#FAB340" stroke-miterlimit="10" d="M60.34,15.831c0,0,11.386,5.972,9.498,13.321"/>
<line fill="none" stroke="#D6AA84" stroke-miterlimit="10" x1="64.629" y1="33.579" x2="67.747" y2="33.65"/>
<line fill="none" stroke="#D6AA84" stroke-miterlimit="10" x1="71.077" y1="33.862" x2="73.203" y2="33.792"/>
<line fill="none" stroke="#D6AA84" stroke-miterlimit="10" x1="69.306" y1="35.067" x2="69.234" y2="39.673"/>
<path fill="#E7E6E8" d="M81.991,47.682c-1.629-1.646-9.071-2.552-9.071-2.552l-4.393,8.363l-6.946-8.363l-14.74,3.828l-3.827,26.931
	l4.252,5.952l8.787,0.567l6.521,4.82l16.3-0.993c0,0,0.638-10.913,1.701-15.308C82.25,64,87.5,53.25,81.991,47.682z"/>
<polyline fill="#1572B8" points="80.808,78.837 83,89.667 87.803,104.378 94.891,131.025 96.024,179.5 83.551,179.217 
	81.566,131.309 70.511,102.394 63.424,177.8 50.667,177.232 54.353,97.292 54.636,89.637 55.214,82.333 "/>
<path opacity="0.15" enable-background="new    " d="M51.5,178c0,0,1.75,5.945,7.25,8.25c0,0,1.5,4.25,4.25,5
	c0,0,5.25-1.443,8.75-3.5c0,0,7-0.744,10.5-0.25c0,0,2.5,0.753,12.5,1c0,0,10.5,4.25,16.75-1.25c0,0,3.75-3.25,1.75-7.75
	c0,0-5.5-1.206-9.5-1.5c0,0-18.25,1.85-22.5,3c0,0-5.75-0.5-9.25-1C72,180,63.5,177.014,51.5,178z"/>
<polygon fill="#0B679B" points="70.368,102.678 71.856,96.582 88.795,131.663 83.479,134.427 88.37,135.064 91.771,179.075 
	83.267,178.648 81.282,133.01 "/>
<polygon fill="#0B679B" points="54.671,91.479 82.701,87.653 84.402,93.605 54.353,97.292 "/>
<polygon fill="#0B679B" points="54.458,96.37 61.724,94.456 59.674,128.9 57.222,131.45 59.403,133.471 56.797,177.268 
	50.667,177.232 "/>
<polygon fill="#106489" points="62.077,96.44 61.37,97.574 54.353,99.027 54.353,97.292 "/>
<path fill="#F5C397" d="M47.266,81.841l11.763,20.481c0,0,3.331,10.135,8.646,9.072c0,0,2.766,0.425,4.183-1.914
	c0,0,0.885-0.852,0.778-1.56c-0.058-0.392-2.125-2.02-2.729-2.304c-0.253-0.119,2.445,1.807,2.658,1.312
	c0.145-0.337-0.57-2.302-1.771-2.799c-1.529-0.634-2.645-1.575-5.387-2.02L55.344,81.912L47.266,81.841z"/>
<polygon fill="#CACBCD" points="55.344,63.486 55.487,77.093 56.903,61.006 "/>
<polygon fill="#CACBCD" points="49.321,48.39 45.139,75.604 47.902,80.003 54.99,81 47.266,81 43.014,75.468 46.841,48.747 "/>
<g>
	<polygon opacity="0.15" enable-background="new    " points="129.75,187.25 156,185.75 164.5,189.5 137.125,195.375 	"/>
	<polygon fill="#875F41" points="127,113 127,189 137.125,195.375 136.875,114.875 	"/>
	<polygon fill="#A97D53" points="139.625,115.5 139.5,195.125 137.125,195.375 136.875,114.875 	"/>
	<polygon fill="#BC8858" points="151.833,108.167 160,112.083 119.916,118.917 108.833,114.25 	"/>
	<polygon fill="#A06F47" points="119.667,118.5 160,112.083 160,114 119.583,120.333 108.875,115.75 108.688,114 	"/>
</g>
<polygon fill="#FFDF92" points="43.333,107.042 201.253,102.247 203.583,110.5 43.875,115.708 "/>
<polygon fill="#EAAE02" points="43.333,116 203.625,112.208 203.583,110.5 44.167,114.458 43.417,106.875 42.833,110.083 "/>
<path fill="#444444" d="M88.167,184l9.5,6.583c0,0,5.333,1.708,7.333-1.625l-8.399-9.44l-13.392-0.783L83,181.217l3.225,4.116
	L88.167,184z"/>
<path fill="#444444" d="M51.667,176.5L63.5,177c0,0,2.333,11.5,0.167,14.333c0,0-5.833,1.5-7.833-2.333l-2-4.5l-1.667-2.833
	l-1.333-4.333L51.667,176.5z"/>
<polygon fill="#EAC471" points="76.167,110.333 102.667,109.833 76.5,111.333 "/>
<polygon fill="#EAC471" points="158.333,109.5 165,111.5 150,109 149.5,107 "/>
<polygon fill="#EAC471" points="202,105 185.32,106.362 202,106.333 "/>
<polygon fill="#EAC471" points="44,109 56,109 43.833,110.5 "/>
<polygon fill="#EAC471" points="120.333,110.667 144.333,110.167 120,112 "/>
<polygon fill="#EAC471" points="109.167,108.083 135,106.167 135,107 "/>
<g id="main_obj">
	<g id="leaver_2">
		<path fill="#F5C397" d="M87.526,83.592l28.916,13.819c0,0,3.826,4.081,7.229,4.719c0,0,11.693-0.467,5.104-9.822
			c0,0-5.74-2.126-8.291,1.275L93.691,78.277L87.526,83.592z"/>
		<g>
			<g>
				<line fill="none" stroke="#D5D4D9" stroke-miterlimit="10" x1="138.768" y1="109.265" x2="139.258" y2="109.351"/>
				
					<line fill="none" stroke="#D5D4D9" stroke-miterlimit="10" stroke-dasharray="0.9936,0.9936" x1="140.234" y1="109.524" x2="182.805" y2="117.012"/>
				<line fill="none" stroke="#D5D4D9" stroke-miterlimit="10" x1="183.293" y1="117.098" x2="183.785" y2="117.186"/>
			</g>
		</g>
		<path fill="#FB9324" d="M126.127,90.647l12.951,4.704l-6.799,8.779l-4.381,0.237l-6.775-3.082L126.127,90.647z M127.43,93.234
			l-3.688,6.898l3.799,1.619l3.78-7.234L127.43,93.234z"/>
		<path fill="#D5D4D9" d="M139.078,95.351l46.035,14.393l-1.172,7.335l-45.498-8.185c0,0,0.518-1.179-2.065-2.929l-4-2.083
			L139.078,95.351z"/>
		<path fill="#F5C397" d="M124.294,100.214c0,0-0.667,0.667-3.333-0.25c0,0,1.771-5.833,3.333-6.333c0,0,2.601,0.25,2.875,1.5
			c0,0,1.815,1.25,2,1.875l-2.471,3.375C126.698,100.381,125.711,100.964,124.294,100.214z"/>
		<path fill="#BC967A" d="M124.878,93.131l2.458,1.333l0.042,0.833c0,0-2.875-1.708-3.625-1.458L124.878,93.131z"/>
		<polygon fill="#BC967A" points="128.294,95.756 128.753,95.839 128.753,95.506 127.794,95.131 		"/>
		<polygon fill="#BC967A" points="124.086,99.423 124.878,100.298 124.461,100.214 		"/>
		<polygon fill="#C8C8CC" points="142.794,99.714 180.794,110.714 180.461,112.048 142.128,101.048 		"/>
		
			<ellipse transform="matrix(-0.5582 0.8297 -0.8297 -0.5582 297.5584 37.67)" fill="#A1A1A8" cx="138.75" cy="98.053" rx="0.86" ry="0.537"/>
		
			<ellipse transform="matrix(-0.489 0.8723 -0.8723 -0.489 292.2462 33.0039)" fill="#A1A1A8" cx="136.456" cy="102.107" rx="0.816" ry="0.439"/>
		<path fill="#BC967A" d="M121,97.333l2.333-3.583l-0.5,1.25c0,0-1.417,2.083-1,3.667L121,97.333z"/>
	</g>
	<g id="leaver_1">
		<g>
			<path fill="#E7E6E8" d="M81.369,73.308c-0.104,3.007,3.258,10.573,5.092,11.74c2.262,1.439,8.939-5.928,8.939-5.928l-1.856-5.489
				c0,0-7.867-22.945-10.759-23.568C77.294,48.881,81.669,64.631,81.369,73.308z"/>
			<path fill="#CACBCD" d="M82.25,62.881c0,5.749,1.102,10.5,1.102,10.5s0.194,3.031,1.275,5.75
				c0.945,2.375,2.932,6.159,1.833,5.417c-4.251-2.875-5-10-5-10s-0.864-5.792-0.943-10.792c-0.043-2.818-0.944-8.625-0.157-10.875
				C80.53,52.396,82.25,62.381,82.25,62.881z"/>
			<polygon fill="#CACBCD" points="91.961,79.214 85.877,82.381 86.211,83.381 			"/>
		</g>
	</g>
</g>
<g>
	<polygon fill="#1572B8" points="55.75,82.333 56.903,61.006 62.006,60.438 79.583,59.021 80.434,68.943 82.667,88 60.75,90.833 	
		"/>
	<path fill="#0B4E79" d="M62.29,72.345c0,0,12.757-1.701,14.458-0.283c1.701,1.417,2.834,9.354,1.417,11.055
		c-1.417,1.702-11.62,3.118-15.59,1.134C58.604,82.267,62.29,72.345,62.29,72.345z"/>
	<polygon fill="#1572B8" points="56.053,46.265 60.518,65.329 65.833,64.266 61.049,45.237 	"/>
	<polygon fill="#1572B8" points="75.613,45.981 75.4,63.415 79.582,63.274 79.299,46.831 	"/>
	<circle fill="#E1F7FF" cx="62.378" cy="62.511" r="1.116"/>
	<circle fill="#E1F7FF" cx="77.473" cy="61.023" r="1.01"/>
	<polyline fill="#0B679B" points="61.345,90.568 82.701,87.653 84.402,93.605 63.734,96.141 	"/>
</g>

</svg>
