<?xml version="1.0" encoding="utf-8"?>
<!-- Generator: Adobe Illustrator 15.0.0, SVG Export Plug-In . SVG Version: 6.00 Build 0)  -->
<!DOCTYPE svg PUBLIC "-//W3C//DTD SVG 1.1//EN" "http://www.w3.org/Graphics/SVG/1.1/DTD/svg11.dtd">
<svg version="1.1" id="Layer_1" xmlns="http://www.w3.org/2000/svg" xmlns:xlink="http://www.w3.org/1999/xlink"  viewBox="0 0 240 228" xml:space="preserve">
<polygon fill="#D89C87" points="51.332,37.594 51.44,40.981 52.715,49.911 59.944,50.761 64.48,45.942 62.938,37.349 "/>
<path fill="#F4C398" d="M47.604,23.769l1.286,9.107c0,0,0.636,4.33,2.441,4.718c0,0,7.832,5.159,11.607-0.246
	c0,0,1.115-1.398,1.396-12.155L64.14,17.89C64.14,17.891,52.169,8.416,47.604,23.769z"/>
<path fill="#E2B38D" d="M50.872,28.366c0,0,1.562,9.213,3.757,10.701c0,0-1.914-0.425-3.898-1.63
	c-1.985-1.205-2.551-9.78-2.551-9.78L50.872,28.366z"/>
<path fill="#F4C398" d="M46.903,24.893c0,0-0.708,4.253,2.198,5.6l-0.568-5.245L46.903,24.893z"/>
<polygon fill="#49300B" points="51.591,22.292 50.511,30.4 46.903,24.893 44.949,20.762 "/>
<path fill="#FFE651" d="M44.301,21.456l8.86,3.521c0,0,14.17,4.064,15.938-0.882c0,0,0.021-2.063-2.329-2.615
	c0,0-6.553-19.249-19.806-8.993C46.963,12.488,43.985,14.561,44.301,21.456z"/>
<path fill="none" stroke="#FAB340" stroke-miterlimit="10" d="M66.769,21.481c-3.739,3.622-13.572,1.88-13.572,1.88"/>
<line fill="none" stroke="#FAB340" stroke-miterlimit="10" x1="53.446" y1="23.51" x2="44.882" y2="20.742"/>
<path fill="none" stroke="#FAB340" stroke-miterlimit="10" d="M50.34,10.831c0,0,11.386,5.972,9.498,13.321"/>
<line fill="none" stroke="#D6AA84" stroke-miterlimit="10" x1="54.629" y1="28.579" x2="57.747" y2="28.65"/>
<line fill="none" stroke="#D6AA84" stroke-miterlimit="10" x1="61.077" y1="28.862" x2="63.203" y2="28.792"/>
<line fill="none" stroke="#D6AA84" stroke-miterlimit="10" x1="59.306" y1="30.067" x2="59.234" y2="34.673"/>
<path fill="#E7E6E8" d="M71.991,42.682c-1.629-1.646-9.071-2.552-9.071-2.552l-4.393,8.363l-6.946-8.363l-14.74,3.828l-3.827,26.931
	l4.252,5.952l8.787,0.567l6.521,4.82l16.3-0.993c0,0,0.638-10.913,1.701-15.308C72.25,59,77.5,48.25,71.991,42.682z"/>
<polyline fill="#1572B8" points="70.808,73.837 73,84.667 77.803,99.378 84.891,126.025 86.024,174.5 73.551,174.217 
	71.566,126.309 60.511,97.394 53.424,172.8 40.667,172.232 44.353,92.292 44.636,84.637 45.214,77.333 "/>
<path opacity="0.15" enable-background="new    " d="M41.5,173c0,0,1.75,5.945,7.25,8.25c0,0,1.5,4.25,4.25,5
	c0,0,5.25-1.443,8.75-3.5c0,0,7-0.744,10.5-0.25c0,0,2.5,0.753,12.5,1c0,0,10.5,4.25,16.75-1.25c0,0,3.75-3.25,1.75-7.75
	c0,0-5.5-1.206-9.5-1.5c0,0-18.25,1.85-22.5,3c0,0-5.75-0.5-9.25-1C62,175,53.5,172.014,41.5,173z"/>
<polygon fill="#0B679B" points="60.368,97.678 61.856,91.582 78.795,126.663 73.479,129.427 78.37,130.064 81.771,174.075 
	73.267,173.648 71.282,128.01 "/>
<polygon fill="#0B679B" points="44.671,86.479 72.701,82.653 74.402,88.605 44.353,92.292 "/>
<polygon fill="#0B679B" points="44.458,91.37 51.724,89.456 49.674,123.9 47.222,126.45 49.403,128.471 46.797,172.268 
	40.667,172.232 "/>
<polygon fill="#106489" points="52.077,91.44 51.37,92.574 44.353,94.027 44.353,92.292 "/>
<path fill="#F5C397" d="M37.266,76.841l11.763,20.481c0,0,3.331,10.135,8.646,9.072c0,0,2.766,0.425,4.183-1.914
	c0,0,0.885-0.852,0.778-1.56c-0.058-0.392-2.125-2.02-2.729-2.304c-0.253-0.119,2.445,1.807,2.658,1.312
	c0.145-0.337-0.57-2.302-1.771-2.799c-1.529-0.634-2.645-1.575-5.387-2.02L45.344,76.912L37.266,76.841z"/>
<polygon fill="#CACBCD" points="45.344,58.486 45.487,72.093 46.903,56.006 "/>
<polygon fill="#CACBCD" points="39.321,43.39 35.139,70.604 37.902,75.003 44.99,76 37.266,76 33.014,70.468 36.841,43.747 "/>
<g>
	<polygon opacity="0.15" enable-background="new    " points="119.75,182.25 146,180.75 154.5,184.5 127.125,190.375 	"/>
	<polygon fill="#875F41" points="117,108 117,184 127.125,190.375 126.875,109.875 	"/>
	<polygon fill="#A97D53" points="129.625,110.5 129.5,190.125 127.125,190.375 126.875,109.875 	"/>
	<polygon fill="#BC8858" points="141.833,103.167 150,107.083 109.916,113.917 98.833,109.25 	"/>
	<polygon fill="#A06F47" points="109.667,113.5 150,107.083 150,109 109.583,115.333 98.875,110.75 98.688,109 	"/>
</g>
<polygon fill="#FFDF92" points="33.333,102.042 191.253,97.247 193.583,105.5 33.875,110.708 "/>
<polygon fill="#EAAE02" points="33.333,111 193.625,107.208 193.583,105.5 34.167,109.458 33.417,101.875 32.833,105.083 "/>
<path fill="#444444" d="M78.167,179l9.5,6.583c0,0,5.333,1.708,7.333-1.625l-8.399-9.44l-13.392-0.783L73,176.217l3.225,4.116
	L78.167,179z"/>
<path fill="#444444" d="M41.667,171.5L53.5,172c0,0,2.333,11.5,0.167,14.333c0,0-5.833,1.5-7.833-2.333l-2-4.5l-1.667-2.833
	l-1.333-4.333L41.667,171.5z"/>
<polygon fill="#EAC471" points="66.167,105.333 92.667,104.833 66.5,106.333 "/>
<polygon fill="#EAC471" points="148.333,104.5 155,106.5 140,104 139.5,102 "/>
<polygon fill="#EAC471" points="192,100 175.32,101.362 192,101.333 "/>
<polygon fill="#EAC471" points="34,104 46,104 33.833,105.5 "/>
<polygon fill="#EAC471" points="110.333,105.667 134.333,105.167 110,107 "/>
<polygon fill="#EAC471" points="99.167,103.083 125,101.167 125,102 "/>

<g id="main_obj" transform="translate( 70, 43)">
	
	<g id="leaver_2">
			<path fill="#F5C397" d="M7.526,33.592l28.915,13.819c0,0,3.826,4.081,7.229,4.719c0,0,11.694-0.467,5.103-9.822
			c0,0-5.74-2.126-8.291,1.275L13.691,28.277L7.526,33.592z"/>
		<g>
			<g>
				<line fill="none" stroke="#D5D4D9" stroke-miterlimit="10" x1="58.767" y1="59.265" x2="59.258" y2="59.351"/>
				
					<line fill="none" stroke="#D5D4D9" stroke-miterlimit="10" stroke-dasharray="0.9936,0.9936" x1="60.235" y1="59.524" x2="102.804" y2="67.012"/>
				<line fill="none" stroke="#D5D4D9" stroke-miterlimit="10" x1="103.293" y1="67.098" x2="103.785" y2="67.186"/>
			</g>
		</g>
		<path fill="#FB9324" d="M46.127,40.647l12.951,4.704L52.28,54.13l-4.381,0.237l-6.776-3.082L46.127,40.647z M47.429,43.234
			l-3.688,6.898l3.799,1.619l3.781-7.234L47.429,43.234z"/>
		<path fill="#D5D4D9" d="M59.078,45.351l46.036,14.393l-1.172,7.335l-45.498-8.185c0,0,0.517-1.179-2.066-2.929l-4-2.083
			L59.078,45.351z"/>
		<path fill="#F5C397" d="M44.294,50.214c0,0-0.667,0.667-3.333-0.25c0,0,1.771-5.833,3.333-6.333c0,0,2.6,0.25,2.875,1.5
			c0,0,1.816,1.25,2,1.875l-2.471,3.375C46.698,50.381,45.711,50.964,44.294,50.214z"/>
		<path fill="#BC967A" d="M44.878,43.131l2.458,1.333l0.042,0.833c0,0-2.875-1.708-3.625-1.458L44.878,43.131z"/>
		<polygon fill="#BC967A" points="48.294,45.756 48.753,45.839 48.753,45.506 47.794,45.131 		"/>
		<polygon fill="#BC967A" points="44.086,49.423 44.878,50.298 44.461,50.214 		"/>
		<polygon fill="#C8C8CC" points="62.794,49.714 100.794,60.714 100.461,62.048 62.128,51.048 		"/>
		
			<ellipse transform="matrix(-0.8295 -0.5585 0.5585 -0.8295 80.6454 120.7239)" fill="#A1A1A8" cx="58.749" cy="48.053" rx="0.537" ry="0.86"/>
		
			<ellipse transform="matrix(-0.8724 -0.4888 0.4888 -0.8724 80.2324 125.1603)" fill="#A1A1A8" cx="56.451" cy="52.109" rx="0.439" ry="0.816"/>
		<path fill="#BC967A" d="M41,47.333l2.333-3.583l-0.5,1.25c0,0-1.417,2.083-1,3.667L41,47.333z"/>
	</g>
	
	<g id="leaver_1">
		<g>
			<path fill="#E7E6E8" d="M1.369,23.308c-0.104,3.007,3.258,10.573,5.092,11.74C8.723,36.487,15.4,29.12,15.4,29.12l-1.856-5.489
				c0,0-7.867-22.945-10.759-23.568C-2.706-1.119,1.669,14.631,1.369,23.308z"/>
			<path fill="#CACBCD" d="M2.25,12.881c0,5.749,1.102,10.5,1.102,10.5s0.194,3.031,1.275,5.75c0.945,2.375,2.932,6.159,1.833,5.417
				c-4.251-2.875-5-10-5-10s-0.864-5.792-0.943-10.792C0.474,10.938-0.427,5.131,0.36,2.881C0.53,2.396,2.25,12.381,2.25,12.881z"/>
			<polygon fill="#CACBCD" points="11.961,29.214 5.877,32.381 6.211,33.381 	"/>
		</g>
	
	</g>
	
	
</g>

<g>
	<polygon fill="#1572B8" points="45.75,77.333 46.903,56.006 52.006,55.438 69.583,54.021 70.434,63.943 72.667,83 50.75,85.833 	
		"/>
	<path fill="#0B4E79" d="M52.29,67.345c0,0,12.757-1.701,14.458-0.283c1.701,1.417,2.834,9.354,1.417,11.055
		c-1.417,1.702-11.62,3.118-15.59,1.134C48.604,77.267,52.29,67.345,52.29,67.345z"/>
	<polygon fill="#1572B8" points="46.053,41.265 50.518,60.329 55.833,59.266 51.049,40.237 	"/>
	<polygon fill="#1572B8" points="65.613,40.981 65.4,58.415 69.582,58.274 69.299,41.831 	"/>
	<circle fill="#E1F7FF" cx="52.378" cy="57.511" r="1.116"/>
	<circle fill="#E1F7FF" cx="67.473" cy="56.023" r="1.01"/>
	<polyline fill="#0B679B" points="51.345,85.568 72.701,82.653 74.402,88.605 53.734,91.141 	"/>
</g>


<script  type="text/javascript">
	<![CDATA[
			
			var endInterval = 0
			
			var rot1_1 = 0, rot1_2 = 35, rot1_3 = 0, rot1_4 = 0, rot1_5 = 20;
			var rot2_1 = 0, rot2_2 = -30, rot2_3 = 0, rot2_4 = 20, rot2_5 = 50;	
			var rot3_1 = 0, rot3_2 = 50, rot3_3 = -20, rot3_4 = 120, rot3_5 = 0;	
			
		
			var fast_ = 50, fast_2 = 50, fast_3 = 50, fast_4 = 50, fast_5 = 50, fast_6 = 50, fast_7 = 50;

			var rota = 0;			
			var aniPoints = 0;
			
			var nextStep = false;
			
			var endAnimation = false;	
			
			var main_obj = document.getElementById("main_obj");
			var leaver_1 = document.getElementById("leaver_1");
			var leaver_2 = document.getElementById("leaver_2");			
			
			var obj3 = document.getElementById("obj3");
			
			var Interval = null;
			
			function startAnimation() {
				if(Interval == null) {
					Interval = setInterval(animate, 20);
				}
			}
			function stopAnimation() {
				if(Interval != null){
					clearInterval(Interval);
					Interval = null;
				}
			}					
			function animate() {		
				
				rota = rota + 1;
				
				aniPoints = aniPoints +1;
				
				if(aniPoints > 10 && aniPoints < 30){
					endAnimation = false;
					fast_ += (2 - fast_)/10;
					rot1_1 += (rot1_2 - rot1_1)/fast_;				
					rot2_1 += (rot2_2 - rot2_1)/fast_;
					leaver_1.setAttribute("transform",  "rotate("+ rot1_1 +" 0  0)");
					leaver_2.setAttribute("transform",  "translate("+ rot2_1 +" 0)");
				}
				
				
				if(aniPoints > 30 && aniPoints < 50){		
					endAnimation = false;
					fast_2 += (2 - fast_2)/7;		
					rot1_1 += (rot1_3 - rot1_1)/fast_2;				
					rot2_1 += (rot2_3 - rot2_1)/fast_2;
					leaver_1.setAttribute("transform",  "rotate("+ rot1_1 +" 0  0)");
					leaver_2.setAttribute("transform",  "translate("+ rot2_1 +" 0)");					
					rota = rota +1;
				}
				
				if(aniPoints > 50+(Math.round(Math.random()*3)*10) && !endAnimation){
					endAnimation = true;
					aniPoints = 0;
					fast_ = 50, fast_2 = 50, fast_3 = 50, fast_4 = 50, fast_5 = 50, fast_6 = 50, fast_7 = 50;					
				}

			}
			
			main_obj.setAttribute("transform",  "translate( 70, 43)");			
				
			startAnimation();			
			
		
		]]>
</script>

</svg>
