<?xml version="1.0" encoding="utf-8"?>
<!-- Generator: Adobe Illustrator 15.0.0, SVG Export Plug-In . SVG Version: 6.00 Build 0)  -->
<!DOCTYPE svg PUBLIC "-//W3C//DTD SVG 1.1//EN" "http://www.w3.org/Graphics/SVG/1.1/DTD/svg11.dtd">
<svg version="1.1" id="Layer_1" xmlns="http://www.w3.org/2000/svg" xmlns:xlink="http://www.w3.org/1999/xlink" x="0px" y="0px"
	 width="240px" height="150px" viewBox="0 0.25 240 150" enable-background="new 0 0.25 240 150" xml:space="preserve">
<g>
	<path opacity="0.25" enable-background="new    " d="M35.25,120c0,0,17.734,2.911,86,2.625c49.584-0.208,88.25-1.125,77.5-4.125
		c0,0-53.875-1.375-78.5-0.625C96.206,118.607,31,115.875,35.25,120z"/>
	<path opacity="0.5" enable-background="new    " d="M53.964,119.908c0,0,3.309,1.32,16.033,0.841
		c8.816-0.332,10.503-0.119,12.795-0.835c0,0-8.392-0.928-12.982-0.688C65.328,119.461,55.958,118.768,53.964,119.908z"/>
	<path opacity="0.5" enable-background="new    " d="M130.875,119.625c0,0,1.777,1.604,14.5,1.125
		c8.816-0.332,10.333-0.159,12.625-0.875c0,0-7.725-1.182-12.314-0.939C141.203,119.169,132.87,118.484,130.875,119.625z"/>
	<path opacity="0.5" enable-background="new    " d="M161.5,119.375c0,0,1.277,1.354,14,0.875c8.816-0.332,11.5,0.125,12.625-0.875
		c0,0-1.625-1.25-12.314-0.939C171.324,118.564,161.375,118.25,161.5,119.375z"/>
</g>
<polygon fill="#474747" points="91.674,67.776 105.251,64.366 107.932,75.035 94.354,78.446 89.662,76.188 88.572,71.849 "/>
<rect x="95.711" y="66.052" transform="matrix(-0.9699 0.2434 -0.2434 -0.9699 209.4223 120.2213)" fill="#888888" width="3.143" height="13.999"/>
<polygon fill="#474747" points="92.38,74.566 88.53,75.785 87.799,72.875 91.648,71.656 "/>
<rect x="97" y="73.5" fill="#505050" width="4" height="22"/>
<path fill="#505050" d="M102.982,80.5c0,0,3.018,14,24.018,10v5h-24h-3v-18L102.982,80.5z"/>
<g id="main_obj">
	<path fill="#EFC71D" d="M189.928,39.984c2.638,8.431-3.876,25.349-16.445,29.28l-46.922,14.681
		c-12.57,3.936-17.695-2.401-20.333-10.833l-4.538-14.504c-2.638-8.431-1.791-15.767,10.778-19.7l46.923-14.681
		c12.572-3.935,27.07,4.672,29.708,13.104L189.928,39.984z"/>
	
		<rect x="116.399" y="30.485" transform="matrix(0.9544 -0.2986 0.2986 0.9544 -9.6261 45.165)" fill="#CE9113" width="53.156" height="47.192"/>
	<polygon fill="#EFC71D" points="197.251,43.609 182.865,56.969 174.088,28.917 193.05,30.178 	"/>
	
		<rect x="168.291" y="22.203" transform="matrix(0.9545 -0.2983 0.2983 0.9545 -5.946 52.6477)" fill="#D6AF0B" width="2.367" height="47.194"/>
	
		<rect x="117.555" y="38.078" transform="matrix(0.9544 -0.2984 0.2984 0.9544 -12.9948 38.2463)" fill="#D6AF0B" width="2.363" height="47.19"/>
	<polygon fill="#D6AF0B" points="198.627,44.048 196.293,44.501 191.781,30.085 193.923,29.011 	"/>
	<polygon fill="#D6AF0B" points="190.539,49.842 188.924,52.735 181.232,28.018 184.199,29.59 	"/>
	<g>
		<g id="tank_lines">
			
				<rect x="109.912" y="31.565" transform="matrix(0.9544 -0.2986 0.2986 0.9544 -3.8325 42.2891)" fill="#EFC71D" width="53.158" height="4.246"/>
			
				<rect x="112.994" y="41.035" transform="matrix(0.9544 -0.2986 0.2986 0.9544 -6.5196 43.6399)" fill="#EFC71D" width="53.158" height="4.246"/>
			
				<rect x="116.289" y="51.582" transform="matrix(0.9544 -0.2985 0.2985 0.9544 -9.5179 45.0928)" fill="#EFC71D" width="53.155" height="4.247"/>
			
				<rect x="119.591" y="62.103" transform="matrix(0.9544 -0.2986 0.2986 0.9544 -12.509 46.5734)" fill="#EFC71D" width="53.158" height="4.247"/>
			
				<rect x="122.887" y="72.638" transform="matrix(0.9544 -0.2986 0.2986 0.9544 -15.5054 48.0428)" fill="#EFC71D" width="53.157" height="4.248"/>
		</g>
	</g>
</g>
<path fill="#AA7313" d="M177,30.5h7c0,0,2.625,0.25,3.875,1s2.125,2,2.125,2l7.834,17.333l-9.084,10.86l2.854,30.807H172
	l-0.333-20.833L177,30.5z"/>
<polygon fill="#EFBA47" points="180.166,33.5 175,66.488 175,92.5 178,92.333 179.875,66.444 184.75,33.5 "/>
<rect x="69" y="97.5" fill="#848484" width="123" height="9"/>
<rect x="113" y="86.5" fill="#505050" width="4" height="8"/>
<polygon fill="#2B2B29" points="192,103.5 69,103.5 69,94.5 192,90.5 "/>
<path fill="#505050" d="M128.479,106.333c0-7.75,6.113-14.034,13.658-14.034c7.543,0,13.657,6.283,13.657,14.034"/>
<path fill="#505050" d="M159.729,106.333c0-7.75,6.281-14.034,14.033-14.034c7.75,0,14.032,6.283,14.032,14.034"/>
<rect x="78" y="57.5" fill="#505050" width="5" height="50"/>
<rect x="75" y="57.5" fill="#232323" width="5" height="50"/>
<polygon fill="#CE9113" points="42,57.5 79,57.5 79,107.5 34,107.5 34,81.5 "/>
<rect x="42" y="80.5" fill="#B7841D" width="37" height="2"/>
<rect x="42" y="88.5" fill="#B7841D" width="28" height="2"/>
<rect x="68" y="80.5" fill="#EFBA47" width="2" height="27"/>
<rect x="42" y="87.5" fill="#EFBA47" width="37" height="2"/>
<polygon fill="#77AEFF" points="42,57.5 49,57.5 43,81.5 34,84.333 34,81.5 "/>
<path fill="#EFC71D" d="M79,57.5H42c0,0-2.188-0.125-2.813,1S39,60.5,39,60.5h6l-5.156,19.417L34,81.5l-1,24h9l1-24l5.667-21H79
	V57.5z"/>
<rect x="33" y="102.5" width="18" height="5"/>
<path fill="#77AEFF" d="M51.75,64.125c-0.78,0.64-1.475,3.068-1.475,3.068L47.167,79.5H67v-16H55
	C55,63.5,52.917,63.167,51.75,64.125z"/>
<path fill="#77AEFF" d="M71.5,63.917c-0.542,0.542-0.5,1.625-0.5,1.625V79.5h5v-16h-2.917C73.083,63.5,72.042,63.375,71.5,63.917z"
	/>
<line fill="none" stroke="#4C4C4C" stroke-miterlimit="10" x1="33" y1="91" x2="37" y2="91"/>
<line fill="none" stroke="#4C4C4C" stroke-miterlimit="10" x1="33" y1="93" x2="37" y2="93"/>
<line fill="none" stroke="#4C4C4C" stroke-miterlimit="10" x1="33" y1="95" x2="37" y2="95"/>
<line fill="none" stroke="#4C4C4C" stroke-miterlimit="10" x1="33" y1="97" x2="37" y2="97"/>
<path fill="#505050" d="M85,55.5c0,1.657-1.343,3-3,3H72c-1.657,0-3-1.343-3-3v-1c0-1.657,1.343-3,3-3h10c1.657,0,3,1.343,3,3V55.5z
	"/>
<rect x="42" y="79.5" fill="#EFBA47" width="37" height="2"/>
<path fill="#C0DDFF" d="M53.565,65.625c-0.546,0.38-0.973,2.024-0.973,2.024l-3.05,11.118h5.083l3.219-13.554l-2.25-0.151
	C55.594,65.063,54.375,65.063,53.565,65.625z"/>
<path fill="#8FC2FF" d="M73.578,78.502L72,78.5V66.542c0,0-0.027-1.084,0.328-1.625c0.355-0.542,1.172-0.386,1.172-0.386
	L73.578,78.502z"/>
<polygon fill="#8FC2FF" points="66,78.5 63.183,78.502 65.26,65.527 66,65.5 "/>
<polygon fill="#C0DDFF" points="36.656,78.502 34.999,78.502 39.913,63.763 41.818,63.865 "/>
<rect x="51" y="105.5" fill="#EFBA47" width="32" height="2"/>
<line fill="none" stroke="#4C4C4C" stroke-miterlimit="10" x1="62" y1="92" x2="66" y2="92"/>
<g>
	<path fill="#878787" d="M111.333,106.553c0,0.774-0.628,1.402-1.401,1.402H89.068c-0.774,0-1.402-0.628-1.402-1.402V96.447
		c0-0.774,0.628-1.402,1.402-1.402h20.864c0.773,0,1.401,0.628,1.401,1.402V106.553z"/>
	<path fill="#6D6D6D" d="M111.333,107.41c0,0.301-0.628,0.545-1.401,0.545H89.068c-0.774,0-1.402-0.245-1.402-0.545v-3.932
		c0-0.301,0.628-0.543,1.402-0.543h20.864c0.773,0,1.401,0.244,1.401,0.543V107.41z"/>
	<line fill="none" stroke="#A5A5A5" stroke-width="2" stroke-miterlimit="10" x1="93" y1="95.5" x2="93" y2="105.5"/>
	<line fill="none" stroke="#A5A5A5" stroke-width="2" stroke-miterlimit="10" x1="106" y1="95.5" x2="106" y2="105.5"/>
	<line fill="none" stroke="#A5A5A5" stroke-width="2" stroke-miterlimit="10" x1="93" y1="99.5" x2="106" y2="99.5"/>
	<line fill="none" stroke="#A5A5A5" stroke-width="2" stroke-miterlimit="10" x1="100" y1="99.5" x2="100" y2="105.5"/>
</g>
<rect x="116" y="86.5" fill="#EFBA47" width="59" height="3"/>
<polygon fill="#AA7313" points="178.415,90.941 116,92.973 116,88.5 175,89.5 "/>
<circle fill="#A56B15" cx="181.85" cy="36.017" r="4.183"/>
<circle fill="#FFCE2E" cx="181.85" cy="36.017" r="2.23"/>
<circle fill="#232323" cx="97.849" cy="74.017" r="2.308"/>
<path fill="#A5A5A5" d="M50.728,107.333c0-8.854,7.178-16.034,16.033-16.034s16.033,7.178,16.033,16.034"/>
<path fill="#505050" d="M52.728,107.333c0-7.75,6.283-14.034,14.033-14.034s14.033,6.283,14.033,14.034"/>
<circle fill="#898989" cx="97.849" cy="74.017" r="1.231"/>
<g>
	<circle fill="#1F1F21" cx="66.761" cy="107.333" r="12.367"/>
	<circle fill="#4C4C4C" cx="66.761" cy="107.333" r="7.217"/>
	<circle fill="#BCBCBC" cx="66.761" cy="107.333" r="6.138"/>
	<circle fill="#333333" cx="66.761" cy="107.333" r="2.656"/>
	<path fill="none" stroke="#383838" stroke-width="2" stroke-miterlimit="10" d="M76.167,106.738
		c0.021-5.641-4.396-10.031-10.512-9.07"/>
	<path fill="none" stroke="#383838" stroke-width="2" stroke-miterlimit="10" d="M56.861,106.784
		c-0.688,4.946,4.125,9.894,7.695,9.894"/>
	
		<circle fill="none" stroke="#3D3D3D" stroke-width="0.5" stroke-linecap="round" stroke-miterlimit="1" stroke-dasharray="1,4" cx="66.761" cy="107.333" r="4.649"/>
</g>
<g>
	<circle fill="#1F1F21" cx="173.762" cy="107.333" r="12.366"/>
	<circle fill="#4C4C4C" cx="173.762" cy="107.333" r="7.217"/>
	<circle fill="#BCBCBC" cx="173.762" cy="107.333" r="6.138"/>
	<circle fill="#333333" cx="173.762" cy="107.333" r="2.656"/>
	<path fill="none" stroke="#383838" stroke-width="2" stroke-miterlimit="10" d="M183.168,106.738
		c0.021-5.641-4.396-10.031-10.512-9.07"/>
	<path fill="none" stroke="#383838" stroke-width="2" stroke-miterlimit="10" d="M163.861,106.784
		c-0.688,4.946,4.125,9.894,7.695,9.894"/>
	
		<circle fill="none" stroke="#3D3D3D" stroke-width="0.5" stroke-linecap="round" stroke-miterlimit="1" stroke-dasharray="1,4" cx="173.762" cy="107.333" r="4.649"/>
</g>
<g>
	<circle fill="#1F1F21" cx="142.762" cy="107.333" r="12.366"/>
	<circle fill="#4C4C4C" cx="142.762" cy="107.333" r="7.217"/>
	<circle fill="#BCBCBC" cx="142.762" cy="107.333" r="6.138"/>
	<circle fill="#333333" cx="142.762" cy="107.333" r="2.656"/>
	<path fill="none" stroke="#383838" stroke-width="2" stroke-miterlimit="10" d="M152.168,106.738
		c0.021-5.641-4.396-10.031-10.512-9.07"/>
	<path fill="none" stroke="#383838" stroke-width="2" stroke-miterlimit="10" d="M132.861,106.784
		c-0.688,4.946,4.125,9.894,7.695,9.894"/>
	
		<circle fill="none" stroke="#3D3D3D" stroke-width="0.5" stroke-linecap="round" stroke-miterlimit="1" stroke-dasharray="1,4" cx="142.762" cy="107.333" r="4.649"/>
</g>
<path fill="none" stroke="#848484" stroke-width="2" stroke-miterlimit="10" d="M156.622,104.448
	C154.438,89.753,132,87.5,127.657,104.994"/>
<path fill="none" stroke="#848484" stroke-width="2" stroke-miterlimit="10" d="M187.622,104.448
	C185.438,89.753,163,87.5,158.657,104.994"/>
<g>
	<rect x="178.5" y="44" fill="none" stroke="#3D3D3D" stroke-miterlimit="10" width="8" height="47"/>
	<line fill="none" stroke="#3D3D3D" stroke-miterlimit="10" x1="179" y1="83" x2="187" y2="83"/>
	<line fill="none" stroke="#3D3D3D" stroke-miterlimit="10" x1="179" y1="75" x2="187" y2="75"/>
	<line fill="none" stroke="#3D3D3D" stroke-miterlimit="10" x1="179" y1="68" x2="187" y2="68"/>
	<line fill="none" stroke="#3D3D3D" stroke-miterlimit="10" x1="179" y1="59" x2="187" y2="59"/>
	<line fill="none" stroke="#3D3D3D" stroke-miterlimit="10" x1="179" y1="52" x2="187" y2="52"/>
</g>

</svg>
