<?xml version="1.0" encoding="utf-8"?>
<!-- Generator: Adobe Illustrator 15.0.0, SVG Export Plug-In . SVG Version: 6.00 Build 0)  -->
<!DOCTYPE svg PUBLIC "-//W3C//DTD SVG 1.1//EN" "http://www.w3.org/Graphics/SVG/1.1/DTD/svg11.dtd">
<svg version="1.1" id="Layer_1" xmlns="http://www.w3.org/2000/svg" xmlns:xlink="http://www.w3.org/1999/xlink" viewBox="0 0 240 143" xml:space="preserve">

<g>
	<path opacity="0.25" d="M35.25,111.5c0,0,17.734,2.911,86,2.625c49.584-0.208,88.25-1.125,77.5-4.125c0,0-53.875-1.375-78.5-0.625
		C96.206,110.107,31,107.375,35.25,111.5z"/>
	<path opacity="0.5" d="M53.964,111.408c0,0,3.309,1.32,16.033,0.841c8.816-0.332,10.503-0.119,12.795-0.835
		c0,0-8.392-0.928-12.982-0.688C65.328,110.961,55.958,110.268,53.964,111.408z"/>
	<path opacity="0.5" d="M130.875,111.125c0,0,1.777,1.604,14.5,1.125c8.816-0.332,10.333-0.159,12.625-0.875
		c0,0-7.725-1.181-12.314-0.94C141.203,110.669,132.87,109.984,130.875,111.125z"/>
	<path opacity="0.5" d="M161.5,110.875c0,0,1.277,1.354,14,0.875c8.816-0.332,11.5,0.125,12.625-0.875c0,0-1.625-1.25-12.314-0.94
		C171.324,110.064,161.375,109.75,161.5,110.875z"/>
</g>
	 
<polygon fill="#474747" points="91.674,59.276 105.251,55.866 107.932,66.535 94.354,69.946 89.662,67.688 88.572,63.349 "/>
<rect x="95.714" y="57.552" transform="matrix(0.9699 -0.2434 0.2434 0.9699 -12.7866 25.6222)" fill="#888888" width="3.143" height="13.999"/>
<polygon fill="#474747" points="92.38,66.066 88.53,67.285 87.799,64.375 91.648,63.156 "/>
<rect x="97" y="65" fill="#505050" width="4" height="22"/>
<path fill="#505050" d="M102.982,72c0,0,3.018,14,24.018,10v5h-24h-3V69L102.982,72z"/>

<g id="main_obj" transform="translate( 106, 18) rotate( -15  56  30)">
	<path fill="#EFC71D" d="M89.667,24.298c-0.024,8.834-11.332,23.004-24.501,22.966l-49.165-0.133
		C2.83,47.095-0.149,39.511-0.125,30.675l0.042-15.197C-0.059,6.644,2.959-0.096,16.129-0.06l49.166,0.134
		C78.468,0.11,89.7,12.684,89.675,21.519L89.667,24.298z"/>
	
		<rect x="14.073" y="0.002" transform="matrix(-1 -0.0027 0.0027 -1 81.2377 47.3054)" fill="#CE9113" width="53.156" height="47.192"/>
	<polygon fill="#EFC71D" points="95.558,29.961 77.816,38.366 77.896,8.974 95.598,15.887 	"/>
	
		<rect x="67.229" y="0.088" transform="matrix(-1 -0.0031 0.0031 -1 136.7501 47.5794)" fill="#D6AF0B" width="2.365" height="47.193"/>
	
		<rect x="14.067" y="-0.06" transform="matrix(-1 -0.0029 0.0029 -1 30.4294 47.1158)" fill="#D6AF0B" width="2.363" height="47.191"/>
	<polygon fill="#D6AF0B" points="96.738,30.794 94.376,30.523 94.417,15.418 96.781,15.038 	"/>
	<polygon fill="#D6AF0B" points="87.281,33.883 84.869,36.154 84.98,10.269 87.336,12.661 	"/>
	
	<defs>
	  <mask id="mask2" x="0" y="0" width="100" height="100" >
		<rect id="maskObj" x="0" y="0" width="70" height="47" style="stroke:none; fill: #ffffff"/>
	  </mask>
	</defs>
	
	<g style="mask: url(#mask2)" >	
		<g id="tank_lines">
		<rect x="14.117" y="-31.031" transform="matrix(-1 -0.0027 0.0027 -1 81.4682 -57.8124)" fill="#EFC71D" width="53.157" height="4.14"/>
	
		<rect x="14.08" y="-20.256" transform="matrix(-1 -0.0028 0.0028 -1 81.3657 -36.2582)" fill="#EFC71D" width="53.155" height="4.141"/>
	
		<rect x="14.059" y="-9.505" transform="matrix(-1 -0.0027 0.0027 -1 81.2958 -14.7608)" fill="#EFC71D" width="53.157" height="4.139"/>
		<rect x="14.03" y="1.259" transform="matrix(-1 -0.0027 0.0027 -1 81.2077 6.767)" fill="#EFC71D" width="53.157" height="4.14"/>
	
		<rect x="14.117" y="10.969" transform="matrix(-1 -0.0027 0.0027 -1 81.3548 26.1875)" fill="#EFC71D" width="53.157" height="4.14"/>
	
		<rect x="14.08" y="21.744" transform="matrix(-1 -0.0028 0.0028 -1 81.2492 47.7416)" fill="#EFC71D" width="53.155" height="4.141"/>
	
		<rect x="14.059" y="32.495" transform="matrix(-1 -0.0027 0.0027 -1 81.183 69.2388)" fill="#EFC71D" width="53.157" height="4.14"/>
	
		<rect x="14.03" y="43.259" transform="matrix(-1 -0.0027 0.0027 -1 81.0951 90.767)" fill="#EFC71D" width="53.157" height="4.141"/>
		</g>
	</g>



</g>


<path fill="#AA7313" d="M177,22h7c0,0,2.625,0.25,3.875,1S190,25,190,25l7.834,17.333l-9.084,10.86L191.604,84H172l-0.333-20.833
	L177,22z"/>
<polygon fill="#EFBA47" points="180.166,25 175,57.988 175,84 178,83.833 179.875,57.944 184.75,25 "/>
<rect x="69" y="89" fill="#848484" width="123" height="9"/>
<rect x="113" y="78" fill="#505050" width="4" height="8"/>
<polygon fill="#2B2B29" points="192,95 69,95 69,86 192,82 "/>
<path fill="#505050" d="M128.478,97.833c0-7.75,6.114-14.034,13.658-14.034s13.658,6.283,13.658,14.034"/>
<path fill="#505050" d="M159.728,97.833c0-7.75,6.282-14.034,14.033-14.034s14.033,6.283,14.033,14.034"/>
<rect x="78" y="49" fill="#505050" width="5" height="50"/>
<rect x="75" y="49" fill="#232323" width="5" height="50"/>
<polygon fill="#CE9113" points="42,49 79,49 79,99 34,99 34,73 "/>
<rect x="42" y="72" fill="#B7841D" width="37" height="2"/>
<rect x="42" y="80" fill="#B7841D" width="28" height="2"/>
<rect x="68" y="72" fill="#EFBA47" width="2" height="27"/>
<rect x="42" y="79" fill="#EFBA47" width="37" height="2"/>
<polygon fill="#77AEFF" points="42,49 49,49 43,73 34,75.833 34,73 "/>
<path fill="#EFC71D" d="M79,49H42c0,0-2.188-0.125-2.813,1S39,52,39,52h6l-5.156,19.417L34,73l-1,24h9l1-24l5.667-21H79V49z"/>
<rect x="33" y="94" width="18" height="5"/>
<path fill="#77AEFF" d="M51.75,55.625c-0.78,0.64-1.475,3.068-1.475,3.068L47.167,71H67V55H55C55,55,52.917,54.667,51.75,55.625z"/>
<path fill="#77AEFF" d="M71.5,55.417c-0.542,0.542-0.5,1.625-0.5,1.625V71h5V55h-2.917C73.083,55,72.042,54.875,71.5,55.417z"/>
<line fill="none" stroke="#4C4C4C" stroke-miterlimit="10" x1="33" y1="82.5" x2="37" y2="82.5"/>
<line fill="none" stroke="#4C4C4C" stroke-miterlimit="10" x1="33" y1="84.5" x2="37" y2="84.5"/>
<line fill="none" stroke="#4C4C4C" stroke-miterlimit="10" x1="33" y1="86.5" x2="37" y2="86.5"/>
<line fill="none" stroke="#4C4C4C" stroke-miterlimit="10" x1="33" y1="88.5" x2="37" y2="88.5"/>
<path fill="#505050" d="M85,47c0,1.657-1.343,3-3,3H72c-1.657,0-3-1.343-3-3v-1c0-1.657,1.343-3,3-3h10c1.657,0,3,1.343,3,3V47z"/>
<rect x="42" y="71" fill="#EFBA47" width="37" height="2"/>
<path fill="#C0DDFF" d="M53.565,57.125c-0.546,0.38-0.973,2.024-0.973,2.024l-3.05,11.118h5.083l3.219-13.554l-2.25-0.151
	C55.594,56.563,54.375,56.563,53.565,57.125z"/>
<path fill="#8FC2FF" d="M73.578,70.002L72,70V58.042c0,0-0.027-1.084,0.328-1.625c0.355-0.542,1.172-0.386,1.172-0.386
	L73.578,70.002z"/>
<polygon fill="#8FC2FF" points="66,70 63.183,70.002 65.26,57.027 66,57 "/>
<polygon fill="#C0DDFF" points="36.656,70.002 34.999,70.002 39.913,55.263 41.818,55.365 "/>
<rect x="51" y="97" fill="#EFBA47" width="32" height="2"/>
<line fill="none" stroke="#4C4C4C" stroke-miterlimit="10" x1="62" y1="83.5" x2="66" y2="83.5"/>
<g>
	<path fill="#878787" d="M111.333,98.053c0,0.774-0.628,1.402-1.401,1.402H89.068c-0.774,0-1.402-0.628-1.402-1.402V87.947
		c0-0.774,0.628-1.402,1.402-1.402h20.864c0.773,0,1.401,0.628,1.401,1.402V98.053z"/>
	<path fill="#6D6D6D" d="M111.333,98.91c0,0.301-0.628,0.545-1.401,0.545H89.068c-0.774,0-1.402-0.245-1.402-0.545v-3.931
		c0-0.301,0.628-0.544,1.402-0.544h20.864c0.773,0,1.401,0.244,1.401,0.544V98.91z"/>
	<line fill="none" stroke="#A5A5A5" stroke-width="2" stroke-miterlimit="10" x1="93" y1="87" x2="93" y2="97"/>
	<line fill="none" stroke="#A5A5A5" stroke-width="2" stroke-miterlimit="10" x1="106" y1="87" x2="106" y2="97"/>
	<line fill="none" stroke="#A5A5A5" stroke-width="2" stroke-miterlimit="10" x1="93" y1="91" x2="106" y2="91"/>
	<line fill="none" stroke="#A5A5A5" stroke-width="2" stroke-miterlimit="10" x1="100" y1="91" x2="100" y2="97"/>
</g>
<rect x="116" y="78" fill="#EFBA47" width="59" height="3"/>
<polygon fill="#AA7313" points="178.415,82.442 116,84.472 116,80 175,81 "/>
<circle fill="#A56B15" cx="181.849" cy="27.517" r="4.183"/>
<circle fill="#FFCE2E" cx="181.85" cy="27.517" r="2.23"/>
<circle fill="#232323" cx="97.849" cy="65.517" r="2.308"/>
<path fill="#A5A5A5" d="M50.728,98.833c0-8.855,7.178-16.034,16.033-16.034s16.033,7.178,16.033,16.034"/>
<path fill="#505050" d="M52.728,98.833c0-7.75,6.283-14.034,14.033-14.034s14.033,6.283,14.033,14.034"/>
<circle fill="#898989" cx="97.849" cy="65.517" r="1.231"/>
<g>
	<circle fill="#1F1F21" cx="66.761" cy="98.833" r="12.367"/>
	<circle fill="#4C4C4C" cx="66.761" cy="98.833" r="7.217"/>
	<circle fill="#BCBCBC" cx="66.761" cy="98.833" r="6.138"/>
	<circle fill="#333333" cx="66.761" cy="98.833" r="2.656"/>
	<path fill="none" stroke="#383838" stroke-width="2" stroke-miterlimit="10" d="M76.167,98.238
		c0.021-5.641-4.396-10.031-10.512-9.07"/>
	<path fill="none" stroke="#383838" stroke-width="2" stroke-miterlimit="10" d="M56.861,98.284
		c-0.688,4.947,4.125,9.894,7.695,9.894"/>
	
		<circle fill="none" stroke="#3D3D3D" stroke-width="0.5" stroke-linecap="round" stroke-miterlimit="1" stroke-dasharray="1,4" cx="66.761" cy="98.833" r="4.649"/>
</g>
<g>
	<circle fill="#1F1F21" cx="173.761" cy="98.833" r="12.366"/>
	<circle fill="#4C4C4C" cx="173.761" cy="98.833" r="7.217"/>
	<circle fill="#BCBCBC" cx="173.761" cy="98.833" r="6.138"/>
	<circle fill="#333333" cx="173.761" cy="98.833" r="2.656"/>
	<path fill="none" stroke="#383838" stroke-width="2" stroke-miterlimit="10" d="M183.168,98.238
		c0.021-5.641-4.396-10.031-10.512-9.07"/>
	<path fill="none" stroke="#383838" stroke-width="2" stroke-miterlimit="10" d="M163.861,98.284
		c-0.688,4.947,4.125,9.894,7.695,9.894"/>
	
		<circle fill="none" stroke="#3D3D3D" stroke-width="0.5" stroke-linecap="round" stroke-miterlimit="1" stroke-dasharray="1,4" cx="173.761" cy="98.833" r="4.649"/>
</g>
<g>
	<circle fill="#1F1F21" cx="142.761" cy="98.833" r="12.366"/>
	<circle fill="#4C4C4C" cx="142.761" cy="98.833" r="7.217"/>
	<circle fill="#BCBCBC" cx="142.761" cy="98.833" r="6.138"/>
	<circle fill="#333333" cx="142.761" cy="98.833" r="2.656"/>
	<path fill="none" stroke="#383838" stroke-width="2" stroke-miterlimit="10" d="M152.168,98.238
		c0.021-5.641-4.396-10.031-10.512-9.07"/>
	<path fill="none" stroke="#383838" stroke-width="2" stroke-miterlimit="10" d="M132.861,98.284
		c-0.688,4.947,4.125,9.894,7.695,9.894"/>
	
		<circle fill="none" stroke="#3D3D3D" stroke-width="0.5" stroke-linecap="round" stroke-miterlimit="1" stroke-dasharray="1,4" cx="142.761" cy="98.833" r="4.649"/>
</g>
<path fill="none" stroke="#848484" stroke-width="2" stroke-miterlimit="10" d="M156.622,95.948
	C154.438,81.253,132,79,127.657,96.494"/>
<path fill="none" stroke="#848484" stroke-width="2" stroke-miterlimit="10" d="M187.622,95.948
	C185.438,81.253,163,79,158.657,96.494"/>
<g>
	<rect x="178.5" y="35.5" fill="none" stroke="#3D3D3D" stroke-miterlimit="10" width="8" height="47"/>
	<line fill="none" stroke="#3D3D3D" stroke-miterlimit="10" x1="179" y1="74.5" x2="187" y2="74.5"/>
	<line fill="none" stroke="#3D3D3D" stroke-miterlimit="10" x1="179" y1="66.5" x2="187" y2="66.5"/>
	<line fill="none" stroke="#3D3D3D" stroke-miterlimit="10" x1="179" y1="59.5" x2="187" y2="59.5"/>
	<line fill="none" stroke="#3D3D3D" stroke-miterlimit="10" x1="179" y1="50.5" x2="187" y2="50.5"/>
	<line fill="none" stroke="#3D3D3D" stroke-miterlimit="10" x1="179" y1="43.5" x2="187" y2="43.5"/>
</g>



	<script  type="text/javascript">
	<![CDATA[
			
			var aniPoints = 0;	
			
			var main_obj = document.getElementById("main_obj");
			var tank_lines = document.getElementById("tank_lines");
			
			var Interval = null;
			
			function startAnimation() {
				if(Interval == null) {
					Interval = setInterval(animate, 50);
				}
			}
			function stopAnimation() {
				if(Interval != null){
					clearInterval(Interval);
					Interval = null;
				}
			}					
			function animate() {		
				
				aniPoints = aniPoints + 1;
				if(aniPoints > 20){
					aniPoints = 0;
				}
				
				tank_lines.setAttribute("transform",  "translate( 0,"+ aniPoints +")");
			
			}
			
			main_obj.setAttribute("transform",  "translate( 106, 18)" + "rotate("+ -15 +" 56  30)" );			
				
			startAnimation();			
			
		
		]]>
</script>
</svg>
