<?xml version="1.0" encoding="utf-8"?>
<!-- Generator: Adobe Illustrator 18.1.1, SVG Export Plug-In . SVG Version: 6.00 Build 0)  -->
<!DOCTYPE svg PUBLIC "-//W3C//DTD SVG 1.1//EN" "http://www.w3.org/Graphics/SVG/1.1/DTD/svg11.dtd">
<svg version="1.1" id="computerIcon" xmlns="http://www.w3.org/2000/svg" xmlns:xlink="http://www.w3.org/1999/xlink" x="0px"
	 y="0px" width="75px" height="75px" viewBox="0 0 75 75" enable-background="new 0 0 75 75" xml:space="preserve">
<g id="stars">
	<path id="star1" fill="#FFFFFF" d="M30.4,13.2c-1.5,0.2-1.7,0.4-1.9,1.9c-0.2-1.5-0.4-1.7-1.9-1.9c1.5-0.2,1.7-0.4,1.9-1.9
		C28.7,12.9,28.8,13,30.4,13.2z"/>
	<path id="star2" fill="#FFFFFF" d="M22.9,10.3c-2.3,0.3-2.6,0.6-2.9,2.9c-0.3-2.3-0.6-2.6-2.9-2.9c2.3-0.3,2.6-0.5,2.9-2.9
		C20.3,9.8,20.6,10,22.9,10.3z"/>
	<path id="star3" fill="#FFFFFF" d="M30.8,6.8c-2.9,0.4-3.2,0.7-3.6,3.6c-0.4-2.9-0.7-3.2-3.6-3.6c2.9-0.4,3.2-0.7,3.6-3.6
		C27.6,6.1,28,6.4,30.8,6.8z"/>
</g>
<g id="stand">
	<polygon fill="#A7A9AC" points="46.1,46.8 30.4,46.8 29.2,61.2 47.6,61.2 	"/>
	<polygon fill="#F1F2F2" points="46.2,46.6 30.5,46.6 29.4,61 47.8,61 	"/>
	<polygon fill="#E6E7E8" points="47.1,55.2 46.3,46.6 30.6,46.6 29.7,57.3 	"/>
	<g id="base">
		<rect x="25.9" y="60.6" fill="#A7A9AC" width="25" height="3"/>
		<rect x="26.1" y="60.4" fill="#D1D3D4" width="25" height="3"/>
	</g>
</g>
<g id="monitor">
	<g id="frame">
		<path fill="#939598" d="M70.2,48.1V17.6c0-1.5-1.2-2.6-2.6-2.6H9.2c-1.4,0-2.6,1.2-2.6,2.6v30.5c0,1.2,0,2.3,0,2.3v0.4l0,0
			c0,1.7,1.5,3.1,3.2,3.1h57.1c1.8,0,3.3-1.4,3.3-3.1l0,0v-0.3C70.2,50.4,70.2,49.3,70.2,48.1z"/>
		<path fill="#F2F2F2" d="M70.4,47.8V17.4c0-1.5-1.2-2.6-2.6-2.6H9.4c-1.4,0-2.6,1.2-2.6,2.6v30.5c0,1.2,0,2.3,0,2.3v0.4l0,0
			c0,1.7,1.5,3.1,3.2,3.1h57.1c1.8,0,3.3-1.4,3.3-3.1l0,0v-0.3C70.4,50.1,70.4,49.1,70.4,47.8z"/>
	</g>
	<path id="screenEdges" fill="#353C4F" d="M68.9,18.5c0-1.2-1-2.2-2.1-2.2H10.4c-1.2,0-2.1,1-2.1,2.2v29.4c0,1.2,0,2.2,0,2.2h60.6
		c0,0,0-1,0-2.2C68.9,47.9,68.9,18.5,68.9,18.5z"/>
	<g>
		<g>
			<g>
				<defs>
					<rect id="computerIconMask" x="10" y="18.2" width="57.4" height="30"/>
				</defs>
				<clipPath id="computerIconMask_1_">
					<use xlink:href="#computerIconMask"  overflow="visible"/>
				</clipPath>
				<g clip-path="url(#computerIconMask_1_)">
					<rect id="backgound" x="10" y="18.2" fill="#FFFFFF" width="57.4" height="30"/>
					<g id="website">
						<rect x="38.6" y="18.2" fill="#FACB6B" width="27.2" height="30"/>
						<rect x="40.8" y="22.2" fill="#7A8190" width="22.8" height="10.4"/>
						<rect x="43.1" y="34.6" fill="#FFFFFF" width="19.3" height="0.9"/>
						<rect x="47.6" y="37.1" fill="#FFFFFF" width="10.5" height="0.6"/>
						<rect x="47.6" y="38.5" fill="#FFFFFF" width="10.5" height="0.6"/>
						<rect x="47.6" y="40" fill="#FFFFFF" width="10.5" height="0.6"/>
						<rect x="41.1" y="42" fill="#7A8190" width="4.8" height="4.8"/>
						<rect x="50" y="42" fill="#596274" width="4.8" height="4.8"/>
						<rect x="58.9" y="42" fill="#FFFFFF" width="4.8" height="4.8"/>
						
							<rect x="52.1" y="14.8" transform="matrix(0.4147 0.91 -0.91 0.4147 55.442 -31.4576)" fill="#FFFFFF" width="0.2" height="25.1"/>
						
							<rect x="39.6" y="27.2" transform="matrix(0.91 0.4147 -0.4147 0.91 16.0189 -19.1879)" fill="#FFFFFF" width="25.1" height="0.2"/>
						<rect x="10" y="18.2" fill="none" width="57.4" height="30"/>
					</g>
					<g id="gearBottom">
						<path fill="#B55435" d="M24.2,48.1c0-4.6,3.8-8.2,8.4-8.2s8.2,3.8,8.2,8.4l0,0h3.9l0,0c0.1-6.7-5.3-12.2-12.1-12.3
							c-6.7-0.1-12.2,5.3-12.3,12.1c0,0.1,0,0.2,0,0.2h3.9C24.2,48.2,24.2,48.2,24.2,48.1z"/>
						<path id="gearRed" fill="#F17046" d="M51.2,51.8L47.9,50v-1.6l0,0l-0.2-2.5l3.2-2H51c-0.3-1.4-0.8-2.8-1.5-4.2v0.1l-3.8,0.5
							l-2.3-3l1.5-3.5H45c-0.6-0.5-1.2-0.9-1.8-1.4c-0.6-0.4-1.2-0.8-1.9-1.1v0.1L38.6,34l-3.7-1.1L34,29.2l0,0
							c-1.5-0.1-2.9-0.1-4.4,0.1l0,0L28.9,33l-3.6,1.3l-2.7-2.4v-0.1c-1.2,0.7-2.3,1.6-3.4,2.6h0.1l1.6,3.4l-2.2,3.1L15,40.7v-0.1
							c-0.6,1.4-1,2.8-1.3,4.2h0.1l3.3,1.9v1.7l0,0l0.1,2.4l-3.2,2h-0.1c0.3,1.4,0.8,2.8,1.5,4.1v-0.1l3.8-0.5l2.3,3L20,62.8h-0.1
							c0.6,0.5,1.2,0.9,1.8,1.4c0.6,0.4,1.2,0.8,1.9,1.1v-0.1l2.7-2.6l3.6,1.1l0.9,3.7l0,0c1.5,0.1,2.9,0.1,4.4-0.1l0,0l0.7-3.7
							l3.6-1.3l2.9,2.4v0.1c1.2-0.7,2.3-1.6,3.4-2.6h-0.1L44,58.7l2.2-3.1l3.8,0.3V56C50.6,54.6,51,53.2,51.2,51.8L51.2,51.8z
							 M41.8,54.8c-3.5,5.1-10.5,6.5-15.7,3c-3.2-2.2-5-5.4-4.9-9.4l0,0c0-2,0.6-4.5,1.9-6.5c3.5-5.1,10.5-6.4,15.7-2.9
							c3.2,2.2,5,5.5,4.9,9.5l0,0C43.8,50.4,43.1,52.8,41.8,54.8z"/>
					</g>
					<g id="gearTop">
						<path fill="#2D313A" d="M17.6,18.1c0,3,2.5,5.4,5.4,5.3c3,0,5.4-2.5,5.3-5.4l0,0h2.5l0,0c0,4.4-3.5,7.9-7.8,8
							c-4.4,0-7.9-3.5-8-7.8c0-0.1,0-0.1,0-0.1h2.5C17.6,18,17.6,18.1,17.6,18.1z"/>
						<path id="gearBlack" fill="#596274" d="M34,12.6L34,12.6c-0.3-0.8-0.9-1.6-1.5-2.4l0,0l-2.3,0.9l-1.9-1.5l0.4-2.4l0,0
							c-0.9-0.5-1.7-0.8-2.6-1l0,0l-1.4,2.1l-2.4-0.1l-1.1-2.3l0,0c-0.9,0.2-1.9,0.3-2.8,0.7l0,0l0.1,2.5l-1.9,1.3l-2.2-1.1l0,0
							c-0.3,0.3-0.6,0.7-1,1c-0.3,0.4-0.6,0.8-0.9,1.2l0,0l1.5,2l-0.9,2.2l-2.4,0.4l0,0c-0.1,1-0.2,1.9-0.2,2.9l0,0l2.4,0.8l0.5,1.6
							l0,0l0.3,1l-1.8,1.5v-0.1c0.4,0.8,0.9,1.6,1.5,2.4l0,0l2.3-0.9l1.9,1.5l-0.4,2.4l0,0c0.9,0.5,1.7,0.8,2.6,1l0,0l1.4-2.1
							l2.4,0.1l1.1,2.2l0,0c0.9-0.2,1.9-0.3,2.8-0.7l0,0l-0.1-2.5l2.1-1.3l2.2,1.1l0,0c0.3-0.3,0.6-0.7,1-1c0.3-0.4,0.6-0.8,0.9-1.2
							l0,0l-1.5-2l0.9-2.2l2.4-0.4l0,0c0.1-1,0.2-1.9,0.2-2.9l0,0L33,17.1l-0.4-1.4l0,0l-0.3-1.2L34,12.6z M30.1,16.3
							c0.6,1.9,0.2,4.7-1.4,6.7c-2.5,3.1-7.2,3.6-10.3,1c-1.2-1-2.1-2.6-2.4-3.6l0,0c-0.8-2.9-0.3-4.9,1.3-6.8
							c2.5-3.1,7.2-3.5,10.4-0.9C28.8,13.6,29.5,14.4,30.1,16.3L30.1,16.3z"/>
					</g>
				</g>
			</g>
		</g>
	</g>
	<path id="glare" opacity="0.3" fill="#FFFFFF" enable-background="new    " d="M53.6,14.8H9.4c-1.4,0-2.6,1.2-2.6,2.6L6.7,50.9
		L53.6,14.8z"/>
</g>
</svg>
