<?xml version="1.0" encoding="utf-8"?>
<!-- Generator: Adobe Illustrator 18.1.1, SVG Export Plug-In . SVG Version: 6.00 Build 0)  -->
<!DOCTYPE svg PUBLIC "-//W3C//DTD SVG 1.1//EN" "http://www.w3.org/Graphics/SVG/1.1/DTD/svg11.dtd">
<svg version="1.1" id="digitalMarketingIcon" xmlns="http://www.w3.org/2000/svg" xmlns:xlink="http://www.w3.org/1999/xlink"
	 x="0px" y="0px" width="75px" height="75px" viewBox="0 0 75 75" enable-background="new 0 0 75 75" xml:space="preserve">
<g id="megaphoneAll">
	<g id="bullhorn">
		<g>
			<defs>
				<rect id="megaphoneHandleMaskads" x="14.8" y="40.5" width="10.9" height="12.3"/>
			</defs>
			<clipPath id="megaphoneHandleMaskads_1_">
				<use xlink:href="#megaphoneHandleMaskads"  overflow="visible"/>
			</clipPath>
			<g clip-path="url(#megaphoneHandleMaskads_1_)">
				<g id="handle" >
					<polygon fill="#FFFFFF" points="23.1,41.8 24.6,46.7 23.1,47.2 21.4,43.5 				"/>
					<path fill="#E58553" d="M23.1,41.8v10.7c0,0.1-0.1,0.3-0.3,0.3H18c-0.1,0-0.3-0.1-0.3-0.3l0-10.7L23.1,41.8z"/>
					<rect x="16.4" y="40.5" fill="#AC643E" width="7.9" height="1.3"/>
					<path fill="#AC643E" d="M19.8,43.1h-2.3v1.8l2.3,0c0.6,0,0.9-0.4,0.9-0.9C20.7,43.4,20.4,43.1,19.8,43.1z"/>
					<path fill="#AC643E" d="M19.8,46.2h-2.3V48h2.3c0.6,0,0.9-0.4,0.9-0.9C20.7,46.7,20.3,46.2,19.8,46.2z"/>
					<path fill="#AC643E" d="M19.8,49.3h-2.3v1.8h2.3c0.6,0,0.9-0.4,0.9-0.9C20.7,49.8,20.3,49.4,19.8,49.3z"/>
				</g>
			</g>
		</g>
		<g id="core">
			<path id="bottom" fill="#E58553" d="M15.6,39.4c-2.3,0-4.2-1.9-4.2-4.2s1.9-4.2,4.2-4.2L15.6,39.4z"/>
			<rect x="14.8" y="29.7" fill="#FFFFFF" width="10.8" height="10.8"/>
			<rect x="14.9" y="35.1" fill="#E6E7E8" width="10.8" height="5.4"/>
		</g>
		<g id="phone">
			<path id="ball" fill="#E58553" d="M46.7,38.8c2.1,0,3.8-1.7,3.9-3.9c0-2.1-1.7-3.8-3.9-3.9V38.8z"/>
			<polygon fill="#EA9D75" points="46.7,21.9 25.7,29.7 25.7,34.9 46.8,34.9 			"/>
			<polygon fill="#E58553" points="25.7,34.9 25.6,40.5 46.7,48 46.8,34.9 			"/>
		</g>
		<rect id="rim" x="46.7" y="21.9" fill="#FFFFFF" width="2" height="26.1"/>
	</g>
	<path id="sound2" fill="#FFFFFF" d="M51.9,37c-0.1-0.1-0.1-0.2,0-0.3c0.1-0.1,0.2-0.2,0.4-0.1l14.1,7.6c0.1,0.1,0.2,0.2,0.1,0.4
		c-0.1,0.1-0.2,0.2-0.4,0.1L51.9,37L51.9,37z"/>
	<path id="sound1" fill="#FFFFFF" d="M52,35.1c-0.1-0.1-0.1-0.1-0.1-0.2c0-0.1,0.1-0.3,0.3-0.3l16.1,0.1c0.1,0,0.3,0.1,0.3,0.3
		s-0.1,0.3-0.3,0.3l-16.1-0.1C52.1,35.2,52.1,35.1,52,35.1z"/>
	<path id="sound0" fill="#FFFFFF" d="M51.6,33.4C51.6,33.4,51.5,33.3,51.6,33.4c-0.1-0.1-0.1-0.4,0.1-0.4l14-7.8
		c0.1-0.1,0.3,0,0.4,0.1c0.1,0.1,0,0.3-0.1,0.4l-14,7.8C51.7,33.5,51.6,33.4,51.6,33.4z"/>
</g>
</svg>
