<?xml version="1.0" encoding="utf-8"?>
<!-- Generator: Adobe Illustrator 19.0.0, SVG Export Plug-In . SVG Version: 6.00 Build 0)  -->
<svg version="1.1" id="emailmarketingIcon" xmlns="http://www.w3.org/2000/svg" xmlns:xlink="http://www.w3.org/1999/xlink" x="0px"
	 y="0px" viewBox="-212 88 75 75" style="enable-background:new -212 88 75 75;" xml:space="preserve">
<style type="text/css">
	.st0{fill:none;stroke:#000000;stroke-width:1.17;stroke-linecap:round;stroke-linejoin:round;stroke-miterlimit:10;}
</style>
<g>
	<g>
		<path id="path4" class="st0" d="M-165.1,132.1l9.5-6.2l-4.2-2.5l4.2,2.5c0.6,0.4,0.9,1.1,0.9,1.6v17.3c0,1.1-1.1,2-2.3,2h-35.1
			c-1.3,0-2.3-0.9-2.3-2v-17.3c0-0.6,0.4-1.2,0.9-1.6l3.7-2.3l-3.7,2.3l9.4,6.2"/>
		<path id="path3" class="st0" d="M-193.3,146.3l9.8-5 M-165.2,140.8l9.9,5.3"/>
		<path id="path1" class="st0" d="M-182.1,115.5h15"/>
		<path id="path2" class="st0" d="M-182.1,119h15"/>
		<path id="path7" class="st0" d="M-182.1,119C-167.1,119-182.1,119-182.1,119"/>
		<path id="path0" class="st0" d="M-182.1,122.2h15"/>
		<path id="path5" class="st0" d="M-185.6,127.3v-15.9c0-1.3,1.1-2.4,2.4-2.4h17.2c1.3,0,2.4,1,2.4,2.4v15.9"/>
		<path id="path6" class="st0" d="M-170.4,141.3c-3.4,2.8-9.6,0.9-10.4-3.7c-0.9-3.9,2.1-7.8,6.3-7.8c3.4,0,5.6,1.9,6.4,4.9
			c0.3,1.3,0.2,3.6-1.3,4s-2.2-1-2.4-2.3c0-2.7-3.3-3.8-4.9-1.6c-1.3,1.8,0.2,5.3,3.5,4.2"/>
	</g>
	<g id="stars">
		<path id="star5" d="M-194.4,114.6c-1.3,0-2.2,1-2.2,2.2s1,2.2,2.2,2.2s2.2-1,2.2-2.2C-192.2,115.5-193.2,114.6-194.4,114.6z
			 M-194.4,118.4c-0.9,0-1.6-0.7-1.6-1.6s0.7-1.6,1.6-1.6s1.6,0.7,1.6,1.6S-193.5,118.4-194.4,118.4z"/>
		<path id="star4" d="M-147.3,122.5c-0.9,0-1.7,0.7-1.7,1.7s0.7,1.7,1.7,1.7s1.7-0.7,1.7-1.7C-145.6,123.1-146.4,122.5-147.3,122.5z
			 M-147.3,125.5c-0.7,0-1.3-0.5-1.3-1.3s0.5-1.3,1.3-1.3s1.3,0.5,1.3,1.3S-146.7,125.5-147.3,125.5z"/>
		<path id="star3" d="M-153.7,117c-2,0-2.6-0.6-2.6-2.7c0-0.2-0.1-0.2-0.3-0.2s-0.2,0.1-0.2,0.2c0,2-0.6,2.7-2.7,2.7
			c-0.2,0-0.2,0.2-0.2,0.2c0,0.2,0.1,0.2,0.2,0.2c2,0,2.7,0.6,2.7,2.7c0,0.2,0.2,0.2,0.3,0.2c0.2,0,0.2-0.1,0.2-0.2
			c0-2,0.5-2.7,2.6-2.7c0.2,0,0.3,0,0.3-0.2C-153.4,117.1-153.6,117-153.7,117z M-156.6,118.4c-0.2-0.6-0.6-1-1.2-1.2
			c0.6-0.2,1-0.6,1.2-1.2c0.2,0.6,0.6,1,1.2,1.2C-156,117.4-156.5,117.9-156.6,118.4z"/>
		<path id="star2" d="M-197.6,135.5c-2,0-2.6-0.6-2.6-2.6c0-0.2-0.1-0.2-0.2-0.2c-0.2,0-0.2,0.1-0.2,0.2c0,2-0.6,2.6-2.6,2.6
			c-0.2,0-0.2,0.1-0.2,0.2c0,0.1,0.1,0.2,0.2,0.2c2,0,2.6,0.6,2.6,2.6c0,0.2,0.1,0.2,0.2,0.2c0.2,0,0.2-0.1,0.2-0.2
			c0-2,0.6-2.6,2.6-2.6c0.2,0,0.2-0.1,0.2-0.2S-197.5,135.5-197.6,135.5z M-200.4,136.9c-0.2-0.6-0.6-1-1.2-1.2
			c0.6-0.2,1-0.6,1.2-1.2c0.2,0.6,0.6,1,1.2,1.2C-199.8,135.8-200.2,136.2-200.4,136.9z"/>
		<path id="star1" d="M-183.2,105.3c0-0.1-0.2-0.1-0.3-0.1c-0.2,0-0.4,0-0.6,0s-0.4-0.1-0.5-0.2c-0.1-0.1-0.2-0.3-0.3-0.5
			c0-0.2,0-0.4,0-0.6v-0.1l-0.1-0.1c-0.1,0-0.1,0.1-0.1,0.2c0,0.2,0,0.4-0.1,0.6c0,0.2-0.1,0.4-0.3,0.5c-0.1,0.1-0.3,0.2-0.5,0.3
			c-0.2,0-0.4,0.1-0.6,0.1h-0.1l-0.1,0.1c0,0.1,0.1,0.1,0.1,0.1c0.2,0,0.4,0,0.7,0c0.2,0,0.4,0.1,0.6,0.3c0.1,0.1,0.2,0.3,0.2,0.5
			s0.1,0.4,0.1,0.6v0.1l0.1,0.1c0.1,0,0.1-0.1,0.1-0.2c0-0.2,0-0.4,0.1-0.7c0.1-0.2,0.2-0.4,0.3-0.5c0.2-0.2,0.6-0.2,0.9-0.2
			C-183.4,105.4-183.2,105.4-183.2,105.3 M-185,106c-0.2-0.4-0.4-0.5-0.7-0.6c0.4-0.2,0.5-0.4,0.7-0.7c0.1,0.4,0.5,0.6,0.7,0.7
			C-184.6,105.5-184.8,105.8-185,106z"/>
	</g>
</g>
</svg>
