<?xml version="1.0" encoding="utf-8"?>
<!-- Generator: Adobe Illustrator 15.0.0, SVG Export Plug-In . SVG Version: 6.00 Build 0)  -->
<!DOCTYPE svg PUBLIC "-//W3C//DTD SVG 1.1//EN" "http://www.w3.org/Graphics/SVG/1.1/DTD/svg11.dtd">
<svg version="1.1" id="Layer_1" xmlns="http://www.w3.org/2000/svg" xmlns:xlink="http://www.w3.org/1999/xlink" viewBox="0 0 560 300" xml:space="preserve">

<g opacity="0.5">
	<path opacity="0.5" d="M176.484,256.284c0,0,5.375,4.568-74.605,3.243c0,0-86.513,0.896-83.021-3.243c0,0-2.058-6.082,82.646-4.055
		C101.504,252.229,181.532,251.283,176.484,256.284z"/>
</g>	 
	 
<g>
	<path fill="#3F2601" d="M449.834,238.833c0,0-11-5.333-25-10c-9.675-3.226-22.334-4.666-28.334-5s-17.666,0.333-23.666,0
		s-21.334-0.333-34,1.667c-11.895,1.878-44.82,4.887-54.334,5.667c-31.5,2.583-27.667,16-27.667,16L449.834,238.833z"/>
	<path fill="#563100" d="M343,228.5c24.5-0.5,51.25-5.25,77.5,0c10,2-20.333-12.333-26.333-12.667s-9.333,5.667-15.333,5.334
		s-27.785-12.854-39.334-4c-10,7.666-27.508,1.477-37.333,4.333C283.25,227,269.5,233.75,269.5,233.75S321.825,228.933,343,228.5z"
		/>
	<path fill="#281601" d="M263.5,242.167c0,0-13.5-6.417,12.75-5.917s28.584,3.917,28.584,3.917l21-2.334L342,238.334l14.5-2.167
		c0,0,13.667-0.666,14.667-1s14.667-3,16-3s25.422-1.019,24.833-3.667c-2.5-11.25,24.75,4.25,24.75,4.25l6.417,3.417l-19.333-1.334
		l-25-0.666l-12,0.333l-5,0.667l-6.334,1l-7.666,1.666l-11,1l-33.167,0.667l-21.167,3.667l-17.666,0.333L263.5,242.167z"/>
</g>







<g id="sand" transform =  "translate( 215, 165)">
	<defs>
	  <mask id="mask2" x="0" y="0" width="100" height="100" >
		<rect id="maskObj" x="0" y="0" width="100" height="0"
			style="stroke:none; fill: #ffffff"/>
	  </mask>
	</defs>

	<path id="sand_flow" style="mask: url(#mask2)" fill="#CE8936"  d="M2.01,7.855l0.337,16.011c0,0-6.218,10.542,1.587,20.037c0,0,7.737,12.828,6.975,17.48
		c0,0,9.709,14.203,7.456-5.848c0,0-8.851-23.521-7.38-30.158c0,0-3.766-11.414-0.31-17.344C10.675,8.034,13.044-9.922,2.01,7.855z"
		 />
</g>
	
<g>
	<path fill="#CE8936" d="M174.167,156.834c0,0-11.333-2.668-16.667,6c-4.218,6.854-17.144,6.954-18,10.666c0,0-4.667,5.334-9.333,16
		c0,0-6.666,12.667-7.333,33.334c0,0-7.333,17.333-16,23.333c0,0,23.333-1.334,49.333,1.333c0,0,52.333,29,93.333,4
		c0,0,12-2,19.333-12c0,0,4-7.334-24-23.334c0,0-15.583-17.166-26.333-29.666c0,0-9.25-6.25-22-15.75
		C189.032,165.186,189.5,160,174.167,156.834z"/>
	<polygon fill="#A86926" points="150.833,184.834 148.167,191.5 151.5,192.166 158.833,187.5 	"/>
	<polygon fill="#A86926" points="148.833,218.834 148.833,224.166 154.167,222.166 151.5,215.5 146.833,212.166 	"/>
	<polygon fill="#A86926" points="192.167,218.834 193.5,222.834 196.167,228.166 200.167,224.166 196.167,220.166 192.167,212.834 	
		"/>
	<polygon fill="#A86926" points="244.833,226.166 250.167,226.834 247.5,230.166 240.167,226.166 	"/>
	<polygon fill="#A86926" points="198.167,180.834 199.5,186.166 203.5,183.5 201.5,178.166 	"/>
	<polygon fill="#A86926" points="177,235.166 176.667,236.5 179.333,236.666 178.333,234 177.667,231.834 177.333,234.5 	"/>
	<polygon fill="#A86926" points="170.833,164.5 170.5,166.166 171.833,167.166 172.333,164.166 	"/>
	<polygon fill="#A86926" points="176.5,160.166 176.833,162 178.333,161.334 177.167,158.666 175.667,158 	"/>
	<polygon fill="#A86926" points="128.333,203 128,204.166 127.667,206 127.667,207.5 128.5,209.666 128.5,207.666 128.5,205 
		128,202 	"/>
	<path fill="#A86926" d="M226.5,201.666l1.834,9.334l0.5-1.5v-4c0,0-0.168-2.166-1.334-7S226.5,201.666,226.5,201.666z"/>
	<path fill="#A86926" d="M225.834,237c0,0-0.333-4-1.5-7.166c-1.167-3.168-4-6.834-4-6.834s0.667,0.667,0.5,3.834
		c0,0,0.666,3.5,3.833,6.5C224.667,233.334,224.501,236.166,225.834,237z"/>
</g>

	

<g id="main_obj" transform="translate( 100, 10)">
	<g id="leaver_1">
		<g>
			<g>
				
				<polygon fill="#C3C6C9" points="116.878,14.687 119.921,17.285 71.182,67.864 68.139,65.267 				"/>
				<polygon fill="#4D4C4D" points="56.2,88.505 50.115,83.311 88.925,37.375 95.011,42.562 				"/>
			</g>
			<path fill="#FE9400" d="M124.649,39.405c0,0-59.759,49.123-63.547,58.322c0,0-20.24,30.999-4.234,70.656l-32.822,2.352
				c0,0-15.127-60.324,29.674-95.41c0,0,40.857-32.637,65.53-46.581c1.918-1.084,5.208-2.65,7.668,0.685
				C128.375,31.4,129.158,34.793,124.649,39.405z"/>
			<circle fill="#262626" cx="89.132" cy="43.026" r="1.838"/>
		</g>
		<g id="leaver_2">
			<g>
				
					<rect x="158.312" y="42.691" transform="matrix(0.9707 -0.2402 0.2402 0.9707 -14.9148 40.8988)" fill="#C3C6C9" width="4.002" height="77.88"/>
				<polygon fill="#4D4C4D" points="150.492,25.407 142.727,27.329 148.761,52.903 156.521,50.982 				"/>
			</g>
			<polygon fill="#4D4C4D" points="160.675,107.163 165.648,107.671 171.989,109.575 173.958,119.826 165.807,128.293 			"/>
			<g  id="leaver_3">
				<g>
					<polygon fill="#909190" points="133.985,133.703 123.053,138.733 128.257,139.601 141.536,134.745 					"/>
					<polyline fill="none" stroke="#606060" stroke-miterlimit="10" points="139.442,135.127 131.224,135.997 123.977,139.082 					
						"/>
					<path fill="#4D4D4D" d="M162.913,116.454l-24.962,19.111l-6.468,0.721l-8.429,2.447c0,0,28.084,19.07,35.583,18.349
						c16.595-3.299,13.17-17.952,13.17-17.952l-2.704-16.953C169.104,122.177,167.809,112.565,162.913,116.454z"/>
					<line fill="none" stroke="#606060" stroke-miterlimit="10" x1="142.038" y1="147.335" x2="153.428" y2="153.758"/>
					<line fill="none" stroke="#606060" stroke-miterlimit="10" x1="169.104" y1="122.177" x2="133.215" y2="144.964"/>
					<path fill="none" stroke="#606060" stroke-miterlimit="10" d="M152.421,153.285c0,0,6.93,4.191,16.183-1.891"/>
					<circle fill="#333333" cx="164.761" cy="119.472" r="1.783"/>
					<circle fill="#333333" cx="166.683" cy="145.401" r="1.783"/>
					<line fill="none" stroke="#606060" stroke-miterlimit="10" x1="131.482" y1="136.286" x2="142.217" y2="147.523"/>
				</g>
			</g>
			<path fill="#FFB700" d="M114.999,7.159l38.616,18.958l1.092,7.613l-12.574,2.329l20.243,75.981l1.761,3.477l3.614,0.497
				l3.287,6.491l-2.744,4.01l-10.516-2.246l-4.084-15.117l1.661-4.336l-20.66-40.796l-4.507-0.047L112.817,29.67
				C112.819,29.67,106.163,4.79,114.999,7.159z"/>
			<circle fill="#262626" cx="151.763" cy="47.178" r="1.838"/>
			<circle fill="#4D4C4D" cx="120.769" cy="34.046" r="3.115"/>
		</g>

	</g>
</g>



<path fill="#D8D8D8" d="M430.167,246.5c-1,4.333-8,6.667-19,10s-36.667,5-45,6s-27.333,1.667-37,2s-33,1.667-42,0
	s-24.333-5.667-25-10c-0.26-1.688,7.333-3,54.667-4c23.614-0.499,60-4.41,76-8.333C420.617,235.355,430.532,244.916,430.167,246.5z"
	/>


<path fill="#3F3E44" d="M57.829,216.994l80.004-0.494l-6.646,13.563l33.313,0.777c0,0,6.151,2.615,6.167,10.66
	c0.015,7.572-6.167,11.666-6.167,11.666l-136.103-0.08c0,0-5.909-5.26-6.397-11.086c0.267-7.005,6.424-11.5,6.424-11.5l36.015-1.211
	L57.829,216.994z"/>
<g>
	<circle fill="#1F1F21" cx="134.86" cy="241.334" r="11.143"/>
	<circle fill="#4C4C4C" cx="134.86" cy="241.334" r="6.502"/>
	<circle fill="#CECECE" cx="134.86" cy="241.334" r="5.529"/>
	<circle fill="#4F4F4F" cx="134.86" cy="241.334" r="2.395"/>
	
		<circle fill="none" stroke="#3D3D3D" stroke-width="0.5" stroke-linecap="round" stroke-miterlimit="1" stroke-dasharray="1,4" cx="134.86" cy="241.334" r="4.188"/>
</g>
<g>
	<circle fill="#1F1F21" cx="109.461" cy="241.334" r="11.143"/>
	<circle fill="#4C4C4C" cx="109.461" cy="241.334" r="6.502"/>
	<circle fill="#CECECE" cx="109.461" cy="241.334" r="5.529"/>
	<circle fill="#4F4F4F" cx="109.461" cy="241.334" r="2.395"/>
	
		<circle fill="none" stroke="#3D3D3D" stroke-width="0.5" stroke-linecap="round" stroke-miterlimit="1" stroke-dasharray="1,4" cx="109.461" cy="241.334" r="4.188"/>
</g>
<g>
	<circle fill="#1F1F21" cx="84.061" cy="241.334" r="11.143"/>
	<circle fill="#4C4C4C" cx="84.061" cy="241.334" r="6.502"/>
	<circle fill="#CECECE" cx="84.061" cy="241.334" r="5.529"/>
	<circle fill="#4F4F4F" cx="84.061" cy="241.334" r="2.395"/>
	
		<circle fill="none" stroke="#3D3D3D" stroke-width="0.5" stroke-linecap="round" stroke-miterlimit="1" stroke-dasharray="1,4" cx="84.061" cy="241.334" r="4.188"/>
</g>
<g>
	<circle fill="#1F1F21" cx="59.011" cy="241.334" r="11.143"/>
	<circle fill="#4C4C4C" cx="59.011" cy="241.334" r="6.502"/>
	<circle fill="#CECECE" cx="59.011" cy="241.334" r="5.529"/>
	<circle fill="#4F4F4F" cx="59.011" cy="241.334" r="2.395"/>
	
		<circle fill="none" stroke="#3D3D3D" stroke-width="0.5" stroke-linecap="round" stroke-miterlimit="1" stroke-dasharray="1,4" cx="59.011" cy="241.334" r="4.188"/>
</g>
<g>
	<circle fill="#1F1F21" cx="160.261" cy="241.334" r="11.143"/>
	<circle fill="#4C4C4C" cx="160.261" cy="241.334" r="6.502"/>
	<circle fill="#CECECE" cx="160.261" cy="241.334" r="5.529"/>
	<circle fill="#4F4F4F" cx="160.261" cy="241.334" r="2.395"/>
	
		<circle fill="none" stroke="#3D3D3D" stroke-width="0.5" stroke-linecap="round" stroke-miterlimit="1" stroke-dasharray="1,4" cx="160.261" cy="241.334" r="4.188"/>
</g>
<g>
	<circle fill="#1F1F21" cx="33.261" cy="241.334" r="11.141"/>
	<circle fill="#4C4C4C" cx="33.261" cy="241.334" r="6.502"/>
	<circle fill="#CECECE" cx="33.261" cy="241.334" r="5.529"/>
	<circle fill="#4F4F4F" cx="33.261" cy="241.334" r="2.395"/>
	
		<circle fill="none" stroke="#3D3D3D" stroke-width="0.5" stroke-linecap="round" stroke-miterlimit="1" stroke-dasharray="1,4" cx="33.261" cy="241.334" r="4.188"/>
</g>
<rect x="74.5" y="166.5" fill="#1F1F1F" width="3" height="13"/>
<polygon fill="#4D4D4D" points="77.5,166.5 74.75,167.833 72.7,164.9 74.5,162.5 "/>
<path fill="#303030" d="M96.5,179.5c0,3.313-2.687,6-6,6h-33c-3.313,0-6-2.688-6-6l0,0c0-3.313,2.687-6,6-6h33
	C93.813,173.5,96.5,176.188,96.5,179.5L96.5,179.5z"/>
<path fill="#4D4D4E" d="M110.5,193.5c0,1.657-1.244,3-2.778,3H46.278c-1.534,0-2.778-1.343-2.778-3v-11c0-1.657,1.244-3,2.778-3
	h61.444c1.534,0,2.778,1.343,2.778,3V193.5z"/>
<path fill="#4D4D4E" d="M102.5,194.5c0,2.761,2.238,5,5,5l47-2c2.762,0,5-2.239,5-5l-5-34c0-2.761-2.238-5-5-5h-26
	c-2.762,0-6,2.125-7,5L102.5,194.5z"/>
<path fill="#77AEFF" d="M112.5,197.5c0,2.761,2.499,5,5.582,5h36.837c3.082,0,5.581-2.239,5.581-5l-4.465-34
	c0-2.761-2.499-5-5.582-5h-18.977c-3.083,0-6.14,0-6.697,3L112.5,197.5z"/>
<path fill="#C0DDFF" d="M122.731,191.646c0,1.896,1.845,3.104,4.006,3.104h11.852c2.16,0,3.911-1.539,3.911-3.438l1.337-23.375
	c0-1.898-0.384-3.293-3.912-3.438h-5.701c-2.16,0-4.072-0.104-4.693,2.063L122.731,191.646z"/>
<g>
	<path fill="none" stroke="#3F3E44" stroke-miterlimit="10" d="M148.609,200.531"/>
	<line fill="none" stroke="#3F3E44" stroke-miterlimit="10" x1="148.609" y1="199.5" x2="116.573" y2="199.5"/>
	<line fill="none" stroke="#3F3E44" stroke-miterlimit="10" x1="116.934" y1="199.871" x2="116.997" y2="188.783"/>
	<line fill="none" stroke="#3F3E44" stroke-miterlimit="10" x1="124.757" y1="199.916" x2="124.819" y2="188.828"/>
	<line fill="none" stroke="#3F3E44" stroke-miterlimit="10" x1="132.577" y1="199.96" x2="132.64" y2="188.873"/>
	<line fill="none" stroke="#3F3E44" stroke-miterlimit="10" x1="140.399" y1="200.003" x2="140.463" y2="188.917"/>
	<path fill="none" stroke="#3F3E44" stroke-miterlimit="10" d="M116.93,200.498"/>
	<line fill="none" stroke="#3F3E44" stroke-miterlimit="10" x1="148.644" y1="189.061" x2="116.573" y2="189.061"/>
</g>
<polygon fill="#FFB600" points="91.75,183.5 117.565,184.5 131.032,197.771 159.26,195.882 159.43,220.5 79.75,221.025 "/>
<path fill="#C0DDFF" d="M148.454,192.516c0.203,1.89,1.051,3.361,1.896,3.289l4.196-0.361c0.845-0.072,1.364-1.666,1.162-3.555
	l-1.982-23.313c-0.202-1.889-0.366-2.889-1.364-3.135h-2.324c-0.844,0.072-1.618,0.559-1.613,2.211L148.454,192.516z"/>
<path fill="#E9A703" d="M97.883,220.5c-75.883,1.057-28.383,1.057-60.717,1c-3.172-0.006-5,0-7-1.826
	c-1.83-1.672-0.81-7.174-0.81-7.174l3.143-15c0-2.761,2.239-5,5-5l53-9c7.383,0,6.625,3.5,6.924,8.164L97.883,220.5z"/>
<line fill="none" stroke="#FFB600" stroke-miterlimit="10" x1="36.536" y1="202.51" x2="97.425" y2="191.664"/>
<line fill="none" stroke="#FFB600" stroke-miterlimit="10" x1="36.536" y1="208.51" x2="97.425" y2="197.664"/>
<line fill="none" stroke="#CE8E00" stroke-miterlimit="10" x1="36.536" y1="203.51" x2="97.425" y2="192.664"/>
<line fill="none" stroke="#CE8E00" stroke-miterlimit="10" x1="36.536" y1="209.51" x2="97.425" y2="198.664"/>
<line fill="none" stroke="#CE8E00" stroke-miterlimit="10" x1="36.536" y1="214.51" x2="97.425" y2="203.664"/>
<line fill="none" stroke="#FFB600" stroke-miterlimit="10" x1="36.536" y1="213.51" x2="97.425" y2="202.664"/>
<path fill="#303030" d="M40.5,192.5c-2.761,0-7.417-0.333-8,5l-3.143,15c0,0-1.02,5.502,0.81,7.174c2,1.826,3.833,2.012,7,1.826"/>
<g>
	<g>
		<path fill="#494949" d="M28.397,214.125c1.66,0,3.32,0,4.98,0c1.451,0,1.451-2.25,0-2.25c-1.66,0-3.32,0-4.98,0
			C26.946,211.875,26.946,214.125,28.397,214.125L28.397,214.125z"/>
	</g>
</g>
<g>
	<g>
		<path fill="#494949" d="M28.848,210c1.735,0.063,3.47,0.125,5.206,0.188c1.452,0.054,1.447-2.196,0-2.25
			c-1.735-0.063-3.47-0.125-5.206-0.188C27.396,207.698,27.401,209.948,28.848,210L28.848,210z"/>
	</g>
</g>
<g>
	<g>
		<path fill="#494949" d="M30.724,206.313c1.271,0.084,2.541,0.168,3.812,0.25c1.449,0.097,1.44-2.154,0-2.25
			c-1.271-0.082-2.541-0.166-3.812-0.25C29.275,203.967,29.284,206.218,30.724,206.313L30.724,206.313z"/>
	</g>
</g>
<path fill="none" stroke="#FFB612" stroke-miterlimit="10" d="M97.744,191.408"/>
<path fill="none" stroke="#FFB612" stroke-miterlimit="10" d="M134.47,219.1"/>
<path fill="none" stroke="#FFB612" stroke-miterlimit="10" d="M97.344,197.398"/>
<path fill="none" stroke="#EA9C00" stroke-miterlimit="10" d="M97.112,192.184"/>
<path fill="none" stroke="#EA9C00" stroke-miterlimit="10" d="M96.683,198.148"/>
<path fill="none" stroke="#EA9C00" stroke-miterlimit="10" d="M96.348,203.432"/>
<polyline fill="none" stroke="#E9A703" stroke-width="5" stroke-miterlimit="10" points="37.167,220.496 98.833,218.999 
	159.305,218.504 "/>
<polyline fill="none" stroke="#FFB600" stroke-width="4" stroke-miterlimit="10" points="37.167,217.496 98.831,215.999 
	159.305,215.504 "/>
<g>
	<path fill="none" stroke="#3F3E44" stroke-miterlimit="10" d="M159.247,188.5"/>
	<line fill="none" stroke="#3F3E44" stroke-miterlimit="10" x1="158.62" y1="188.477" x2="159.013" y2="220.543"/>
	<line fill="none" stroke="#3F3E44" stroke-miterlimit="10" x1="159.059" y1="212.359" x2="147.972" y2="212.495"/>
	<line fill="none" stroke="#3F3E44" stroke-miterlimit="10" x1="158.963" y1="204.539" x2="147.876" y2="204.674"/>
	<line fill="none" stroke="#3F3E44" stroke-miterlimit="10" x1="158.866" y1="196.717" x2="147.78" y2="196.854"/>
	<line fill="none" stroke="#3F3E44" stroke-miterlimit="10" x1="158.771" y1="188.896" x2="147.684" y2="189.032"/>
	<path fill="none" stroke="#3F3E44" stroke-miterlimit="10" d="M159.781,220.174"/>
	<line fill="none" stroke="#3F3E44" stroke-miterlimit="10" x1="147.431" y1="188.695" x2="148.352" y2="220.734"/>
</g>
<path fill="none" stroke="#888888" stroke-width="3" stroke-miterlimit="10" d="M172,242c0,6.627-5.373,12-12,12H33
	c-6.627,0-12-5.373-12-12l0,0c0-6.627,5.373-12,12-12h127C166.627,230,172,235.373,172,242L172,242z"/>	
<g>
	<path fill="#8C5300" d="M438.167,231.167c8.667,3.333,17,3.333,22.333,11c3.01,4.327-9.666,5-44.666,16
		c-8.006,2.517-99,8.013-108.667,7.667c-28-1-48.667-2.334-56.333-10.001c-6.472-6.473,12.167-28.833,12-17
		c-0.024,1.708,9.333-1.666,56.667-2.666c23.614-0.499,59.667-6.667,77.334-7.334C425.42,227.754,436.649,230.584,438.167,231.167z"
		/>
	<path fill="#AD6B15" d="M425.5,232.167c13.833,4.167,23,7.667,47,11.667c6.18,1.03-15.959,3.24-51.666,11.666
		c-44.5,10.5-97.667,10.68-107.334,10.334c-28-1-85.26-6.611-75.5-11.334c15.5-7.5,8.5-14,28-13c12.964,0.665,41.5,4,65-0.5
		c26.519-5.078,48.411,0.111,65-6C415,228,423.943,231.698,425.5,232.167z"/>
	<path fill="#CE8936" d="M440.5,248.167c25-6.667,32.667-5.333,44,0.333c5.069,2.534-29.626,6.828-65.333,10.667
		c-44.5,4.783-96,8.825-105.667,8.667c-28.881-0.47-97.524-3.652-88-8c15.333-7,17.5-4.455,37-4c12.964,0.303,44.5,5.05,68,3
		c26.519-2.313,54.411-3.55,71-6.334C420.5,249.311,438.943,248.582,440.5,248.167z"/>
</g>




<script  type="text/javascript">
	<![CDATA[
	/**/	
			
			var endInterval = 0
			
			var rot1_1 = 0, rot1_2 = 15, rot1_3 = 40, rot1_4 = -5;
			var rot2_1 = 0, rot2_2 = -60, rot2_3 = -30, rot2_4 = 20;	
			var rot3_1 = 0, rot3_2 = -70, rot3_3 = 30, rot3_4 = -70;	
			
			var sand_1 = 0, sand_2 = 0;
			
			var fast_ = 50, fast_2 = 50, fast_3 = 50, fast_4 = 50, fast_5 = 50, fast_6 = 50;

			var rota = 0;
			
			var endAnimation = false;			
			
			var aniPoints = 0;
			
			var main_obj = document.getElementById("main_obj");
			var leaver_1 = document.getElementById("leaver_1");
			var leaver_2 = document.getElementById("leaver_2");
			var leaver_3 = document.getElementById("leaver_3");
			
			var sand_flow = document.getElementById("maskObj");
			
			
			var obj3 = document.getElementById("obj3");
			
			var Interval = null;
			
			function startAnimation() {
				if(Interval == null) {
					Interval = setInterval(animate, 50);
				}
			}
			function stopAnimation() {
				if(Interval != null){
					clearInterval(Interval);
					Interval = null;
				}
			}	
			
			function animate() {	
				
				rota = rota + 1;
				
				aniPoints = aniPoints +1;
				
				if(aniPoints > 10 && aniPoints < 40){
					endAnimation = false;
					fast_ += (2 - fast_)/10;
					rot1_1 += (rot1_2 - rot1_1)/fast_;				
					rot2_1 += (rot2_2 - rot2_1)/fast_;
					leaver_1.setAttribute("transform",  "rotate("+ rot1_1 +" 20  156)");
					leaver_2.setAttribute("transform",  "rotate("+ rot2_1 +" 120  35)");
				}
				
				if(aniPoints > 30 && aniPoints < 50){					
					fast_2 += (2 - fast_2)/10;					
					rot3_1 += (rot3_2 - rot3_1)/fast_2;					
					leaver_3.setAttribute("transform",  "rotate("+ rot3_1 +" 165  120)");
				}
				
				if(aniPoints > 50 && aniPoints < 80){					
					fast_3 += (2 - fast_3)/10;						
					rot1_1 += (rot1_3 - rot1_1)/fast_3;					
					leaver_1.setAttribute("transform",  "rotate("+ rot1_1 +" 20  156)");
				}
				
				if(aniPoints > 80 && aniPoints < 120){						
					fast_4 += (2 - fast_4)/10;						
					rot3_1 += (rot3_3 - rot3_1)/fast_4;	
					rot2_1 += (rot2_3 - rot2_1)/fast_4;					
					leaver_3.setAttribute("transform",  "rotate("+ rot3_1 +" 165  120)");
					leaver_2.setAttribute("transform",  "rotate("+ rot2_1 +" 120  35)");
				}
				
				if(aniPoints > 120 && aniPoints < 150){					
					
					fast_5 += (2 - fast_5)/10;						
					rot1_1 += (rot1_4 - rot1_1)/fast_5;	
					rot2_1 += (rot2_4 - rot2_1)/fast_5;						
					leaver_1.setAttribute("transform",  "rotate("+ rot1_1 +" 20  156)");
					leaver_2.setAttribute("transform",  "rotate("+ rot2_1 +" 120  35)");
				}

				
				if(aniPoints > 160 && aniPoints < 190){					
					fast_6 += (2 - fast_6)/10;	
					rot3_1 += (rot3_4 - rot3_1)/fast_6;									
					leaver_3.setAttribute("transform",  "rotate("+ rot3_1 +" 165  120)");
					
				}
				
				if(aniPoints > 185 && aniPoints < 220){
					sand_1 += (100 - sand_1)/10;									
					sand_flow.setAttribute("height",  sand_1 );
				}
				
				if(aniPoints > 220 && aniPoints < 240){
					sand_2 += (40 - sand_2)/2;									
					sand_flow.setAttribute("transform",  "translate( 0, "+sand_2+")");
				}
				
				
				if(aniPoints > 260 && !endAnimation){					
					endAnimation = true;
					aniPoints = 0;
					fast_ = 50, fast_2 = 50, fast_3 = 50, fast_4 = 50, fast_5 = 50, fast_6 = 50;
					sand_1 = 0;
					sand_2 = 0;
					sand_flow.setAttribute("height",  0 );
					sand_flow.setAttribute("transform",  "translate( 0, "+0+")");
				}
				
			}			

			document.getElementById("sand").setAttribute("transform",  "translate( 215, 165)");
			
			main_obj.setAttribute("transform",  "translate( 100, 10)");			
				
			startAnimation();			
			
		
		]]>
</script>

</svg>
