<?xml version="1.0" encoding="utf-8"?>
<!-- Generator: Adobe Illustrator 15.0.0, SVG Export Plug-In . SVG Version: 6.00 Build 0)  -->
<!DOCTYPE svg PUBLIC "-//W3C//DTD SVG 1.1//EN" "http://www.w3.org/Graphics/SVG/1.1/DTD/svg11.dtd">
<svg version="1.1" id="Layer_1" xmlns="http://www.w3.org/2000/svg" xmlns:xlink="http://www.w3.org/1999/xlink" x="0px" y="0px"
	 width="240px" height="165px" viewBox="0 1.75 240 165" enable-background="new 0 1.75 240 165" xml:space="preserve">
<g opacity="0.5">
	<path opacity="0.5" enable-background="new    " d="M83.636,131.551c0,0,2.303,1.957-31.974,1.389c0,0-37.077,0.385-35.581-1.389
		c0,0-0.882-2.607,35.42-1.738C51.502,129.813,85.799,129.407,83.636,131.551z"/>
</g>
<g>
	<path fill="#3F2601" d="M200.786,124.071c0,0-4.714-2.286-10.714-4.286c-4.146-1.383-9.572-2-12.144-2.143s-7.571,0.143-10.143,0
		s-9.144-0.143-14.571,0.715c-5.098,0.805-19.209,2.094-23.286,2.428c-13.5,1.107-11.857,6.857-11.857,6.857L200.786,124.071z"/>
	<path fill="#563100" d="M155,119.643c10.5-0.214,21.965-2.25,33.215,0c4.285,0.857-8.715-5.285-11.286-5.428
		c-2.571-0.145-4,2.428-6.571,2.285s-11.908-5.509-16.857-1.715c-4.285,3.286-11.789,0.634-16,1.857c-8.107,2.357-14,5.25-14,5.25
		S145.925,119.828,155,119.643z"/>
	<path fill="#281601" d="M120.929,125.5c0,0-5.786-2.75,5.464-2.535c11.25,0.214,12.25,1.678,12.25,1.678l9-1l6.929,0.215
		l6.214-0.929c0,0,5.857-0.286,6.287-0.429c0.428-0.143,6.285-1.285,6.856-1.285s10.896-0.438,10.643-1.572
		c-1.071-4.821,10.607,1.822,10.607,1.822l2.75,1.464l-8.286-0.571l-10.714-0.285l-5.143,0.143l-2.144,0.285l-2.714,0.429
		l-3.286,0.714l-4.714,0.429l-14.214,0.286l-9.072,1.571l-7.57,0.143L120.929,125.5z"/>
</g>
<g>
	<path fill="#CE8936" d="M82.643,88.929c0,0-4.857-1.144-7.143,2.571c-1.808,2.938-7.348,2.98-7.714,4.571c0,0-2,2.286-4,6.857
		c0,0-2.856,5.429-3.143,14.286c0,0-3.143,7.428-6.857,10c0,0,10-0.572,21.143,0.57c0,0,22.428,12.43,40,1.715
		c0,0,5.143-0.857,8.286-5.143c0,0,1.713-3.144-10.287-10c0,0-6.678-7.357-11.285-12.715c0,0-3.964-2.678-9.429-6.75
		C89.014,92.508,89.214,90.285,82.643,88.929z"/>
	<polygon fill="#A86926" points="72.643,100.929 71.5,103.785 72.929,104.071 76.071,102.071 	"/>
	<polygon fill="#A86926" points="71.786,115.5 71.786,117.785 74.072,116.928 72.929,114.071 70.928,112.643 	"/>
	<polygon fill="#A86926" points="90.357,115.5 90.929,117.215 92.072,119.5 93.786,117.785 92.072,116.071 90.357,112.929 	"/>
	<polygon fill="#A86926" points="112.928,118.643 115.214,118.929 114.071,120.357 110.929,118.643 	"/>
	<polygon fill="#A86926" points="92.929,99.215 93.5,101.5 95.214,100.357 94.357,98.071 	"/>
	<polygon fill="#A86926" points="83.857,122.5 83.714,123.071 84.857,123.143 84.428,122 84.143,121.072 84,122.215 	"/>
	<polygon fill="#A86926" points="81.214,92.215 81.071,92.928 81.643,93.357 81.857,92.071 	"/>
	<polygon fill="#A86926" points="83.643,90.357 83.786,91.143 84.428,90.857 83.929,89.714 83.286,89.429 	"/>
	<polygon fill="#A86926" points="63,108.715 62.857,109.214 62.714,110 62.714,110.643 63.071,111.571 63.071,110.714 
		63.071,109.571 62.857,108.285 	"/>
	<path fill="#A86926" d="M105.071,108.143l0.786,4l0.214-0.643v-1.715c0,0-0.072-0.928-0.572-3
		C105,104.714,105.071,108.143,105.071,108.143z"/>
	<path fill="#A86926" d="M104.786,123.285c0,0-0.143-1.714-0.643-3.07c-0.5-1.357-1.714-2.93-1.714-2.93s0.286,0.287,0.214,1.644
		c0,0,0.286,1.5,1.643,2.786C104.286,121.715,104.215,122.928,104.786,123.285z"/>
</g>
<g id="main_obj">
	<g id="leaver_1">
		<g>
			<g>
				<polygon fill="#C3C6C9" points="99.091,25.009 100.395,26.122 79.506,47.799 78.203,46.686 				"/>
				<polygon fill="#4D4C4D" points="73.086,56.645 70.478,54.419 87.111,34.732 89.719,36.955 				"/>
			</g>
			<path fill="#FE9400" d="M102.421,35.602c0,0-25.611,21.053-27.234,24.995c0,0-8.674,13.286-1.814,30.282l-14.066,1.008
				c0,0-6.483-25.854,12.717-40.89c0,0,17.51-13.987,28.084-19.963c0.822-0.465,2.232-1.136,3.287,0.293
				C104.018,32.171,104.354,33.625,102.421,35.602z"/>
			<circle fill="#262626" cx="87.199" cy="37.154" r="0.788"/>
		</g>
		<g id="leaver_2">
			<g>
				
					<rect x="116.846" y="37.011" transform="matrix(-0.9708 0.24 -0.24 -0.9708 244.855 77.5805)" fill="#C3C6C9" width="1.715" height="33.376"/>
				<polygon fill="#4D4C4D" points="113.497,29.603 110.169,30.427 112.755,41.387 116.081,40.563 				"/>
			</g>
			<polygon fill="#4D4C4D" points="117.861,64.641 119.992,64.859 122.709,65.675 123.553,70.068 120.06,73.697 			"/>
			<g id="leaver_3">
				<g>
					<polygon fill="#909190" points="106.422,76.016 101.737,78.171 103.967,78.543 109.658,76.462 					"/>
					<polyline fill="none" stroke="#606060" stroke-miterlimit="10" points="108.761,76.626 105.239,76.999 102.133,78.321 					"/>
					<path fill="#4D4D4D" d="M118.82,68.623l-10.698,8.19l-2.772,0.309l-3.612,1.049c0,0,12.036,8.172,15.25,7.864
						c7.112-1.414,5.644-7.694,5.644-7.694l-1.158-7.266C121.473,71.076,120.918,66.957,118.82,68.623z"/>
					<line fill="none" stroke="#606060" stroke-miterlimit="10" x1="109.874" y1="81.858" x2="114.755" y2="84.61"/>
					<line fill="none" stroke="#606060" stroke-miterlimit="10" x1="121.473" y1="71.076" x2="106.092" y2="80.842"/>
					<path fill="none" stroke="#606060" stroke-miterlimit="10" d="M114.323,84.408c0,0,2.97,1.796,6.936-0.811"/>
					<circle fill="#333333" cx="119.612" cy="69.917" r="0.764"/>
					<circle fill="#333333" cx="120.436" cy="81.029" r="0.764"/>
					<line fill="none" stroke="#606060" stroke-miterlimit="10" x1="105.35" y1="77.123" x2="109.95" y2="81.938"/>
				</g>
			</g>
			<path fill="#FFB700" d="M98.285,21.782l16.55,8.125l0.468,3.263l-5.389,0.998l8.676,32.563l0.754,1.49l1.548,0.213l1.409,2.782
				l-1.176,1.719l-4.507-0.962l-1.75-6.479l0.712-1.858l-8.854-17.484l-1.932-0.02L97.35,31.43
				C97.351,31.43,94.499,20.767,98.285,21.782z"/>
			<circle fill="#262626" cx="114.042" cy="38.933" r="0.788"/>
			<circle fill="#4D4C4D" cx="100.758" cy="33.305" r="1.335"/>
		</g>
	</g>
</g>
<path fill="#D8D8D8" d="M192.357,127.357c-0.429,1.857-3.429,2.857-8.143,4.285c-4.715,1.429-15.715,2.143-19.286,2.572
	c-3.571,0.428-11.714,0.714-15.856,0.856c-4.144,0.144-14.144,0.714-18,0c-3.857-0.714-10.43-2.429-10.715-4.286
	c-0.111-0.723,3.143-1.285,23.429-1.714c10.12-0.214,25.714-1.89,32.571-3.571C188.265,122.58,192.514,126.678,192.357,127.357z"/>
<path fill="#3F3E44" d="M32.784,114.712l34.288-0.212l-2.848,5.813l14.277,0.333c0,0,2.636,1.121,2.643,4.569
	c0.006,3.244-2.643,4.999-2.643,4.999l-58.33-0.034c0,0-2.532-2.254-2.741-4.751c0.114-3.003,2.753-4.929,2.753-4.929l15.435-0.52
	L32.784,114.712z"/>
<g>
	<circle fill="#1F1F21" cx="65.797" cy="125.143" r="4.776"/>
	<circle fill="#4C4C4C" cx="65.797" cy="125.143" r="2.787"/>
	<circle fill="#CECECE" cx="65.797" cy="125.143" r="2.37"/>
	<circle fill="#4F4F4F" cx="65.797" cy="125.144" r="1.026"/>
	
		<circle fill="none" stroke="#3D3D3D" stroke-width="0.5" stroke-linecap="round" stroke-miterlimit="1" stroke-dasharray="1,4" cx="65.797" cy="125.143" r="1.795"/>
</g>
<g>
	<circle fill="#1F1F21" cx="54.912" cy="125.143" r="4.776"/>
	<circle fill="#4C4C4C" cx="54.912" cy="125.143" r="2.787"/>
	<circle fill="#CECECE" cx="54.912" cy="125.143" r="2.37"/>
	<circle fill="#4F4F4F" cx="54.912" cy="125.144" r="1.026"/>
	
		<circle fill="none" stroke="#3D3D3D" stroke-width="0.5" stroke-linecap="round" stroke-miterlimit="1" stroke-dasharray="1,4" cx="54.912" cy="125.143" r="1.795"/>
</g>
<g>
	<circle fill="#1F1F21" cx="44.026" cy="125.143" r="4.776"/>
	<circle fill="#4C4C4C" cx="44.026" cy="125.143" r="2.787"/>
	<circle fill="#CECECE" cx="44.026" cy="125.143" r="2.37"/>
	<circle fill="#4F4F4F" cx="44.026" cy="125.144" r="1.026"/>
	
		<circle fill="none" stroke="#3D3D3D" stroke-width="0.5" stroke-linecap="round" stroke-miterlimit="1" stroke-dasharray="1,4" cx="44.026" cy="125.143" r="1.795"/>
</g>
<g>
	<circle fill="#1F1F21" cx="33.291" cy="125.143" r="4.776"/>
	<circle fill="#4C4C4C" cx="33.291" cy="125.143" r="2.787"/>
	<circle fill="#CECECE" cx="33.291" cy="125.143" r="2.37"/>
	<circle fill="#4F4F4F" cx="33.291" cy="125.144" r="1.026"/>
	
		<circle fill="none" stroke="#3D3D3D" stroke-width="0.5" stroke-linecap="round" stroke-miterlimit="1" stroke-dasharray="1,4" cx="33.291" cy="125.143" r="1.795"/>
</g>
<g>
	<circle fill="#1F1F21" cx="76.683" cy="125.143" r="4.776"/>
	<circle fill="#4C4C4C" cx="76.683" cy="125.143" r="2.787"/>
	<circle fill="#CECECE" cx="76.683" cy="125.143" r="2.37"/>
	<circle fill="#4F4F4F" cx="76.683" cy="125.144" r="1.026"/>
	
		<circle fill="none" stroke="#3D3D3D" stroke-width="0.5" stroke-linecap="round" stroke-miterlimit="1" stroke-dasharray="1,4" cx="76.683" cy="125.143" r="1.795"/>
</g>
<g>
	<circle fill="#1F1F21" cx="22.255" cy="125.144" r="4.774"/>
	<circle fill="#4C4C4C" cx="22.255" cy="125.143" r="2.787"/>
	<circle fill="#CECECE" cx="22.255" cy="125.143" r="2.37"/>
	<circle fill="#4F4F4F" cx="22.255" cy="125.144" r="1.026"/>
	
		<circle fill="none" stroke="#3D3D3D" stroke-width="0.5" stroke-linecap="round" stroke-miterlimit="1" stroke-dasharray="1,4" cx="22.255" cy="125.143" r="1.795"/>
</g>
<rect x="39.929" y="93.071" fill="#1F1F1F" width="1.286" height="5.571"/>
<polygon fill="#4D4D4D" points="41.214,93.071 40.036,93.643 39.157,92.386 39.929,91.357 "/>
<path fill="#303030" d="M49.357,98.643c0,1.42-1.151,2.572-2.571,2.572H32.643c-1.42,0-2.572-1.152-2.572-2.572l0,0
	c0-1.42,1.152-2.571,2.572-2.571h14.143C48.206,96.071,49.357,97.224,49.357,98.643L49.357,98.643z"/>
<path fill="#4D4D4E" d="M55.357,104.643c0,0.711-0.533,1.286-1.19,1.286H27.833c-0.658,0-1.19-0.575-1.19-1.286v-4.714
	c0-0.71,0.533-1.286,1.19-1.286h26.333c0.658,0,1.19,0.576,1.19,1.286V104.643z"/>
<path fill="#4D4D4E" d="M51.929,105.071c0,1.184,0.959,2.144,2.143,2.144l20.143-0.857c1.184,0,2.143-0.96,2.143-2.143
	l-2.143-14.572c0-1.184-0.959-2.143-2.143-2.143H60.929c-1.184,0-2.572,0.91-3,2.143L51.929,105.071z"/>
<path fill="#77AEFF" d="M56.214,106.357c0,1.184,1.071,2.143,2.392,2.143h15.788c1.321,0,2.392-0.959,2.392-2.143l-1.914-14.572
	c0-1.183-1.071-2.143-2.392-2.143h-8.133c-1.321,0-2.631,0-2.87,1.286L56.214,106.357z"/>
<path fill="#C0DDFF" d="M60.599,103.848c0,0.813,0.791,1.331,1.717,1.331h5.08c0.925,0,1.676-0.659,1.676-1.474l0.573-10.018
	c0-0.813-0.165-1.412-1.677-1.474h-2.443c-0.926,0-1.745-0.044-2.011,0.884L60.599,103.848z"/>
<g>
	<path fill="none" stroke="#3F3E44" stroke-miterlimit="10" d="M71.689,107.656"/>
	<line fill="none" stroke="#3F3E44" stroke-miterlimit="10" x1="71.689" y1="107.215" x2="57.96" y2="107.215"/>
	<line fill="none" stroke="#3F3E44" stroke-miterlimit="10" x1="58.115" y1="107.373" x2="58.142" y2="102.621"/>
	<line fill="none" stroke="#3F3E44" stroke-miterlimit="10" x1="61.467" y1="107.393" x2="61.494" y2="102.641"/>
	<line fill="none" stroke="#3F3E44" stroke-miterlimit="10" x1="64.819" y1="107.412" x2="64.846" y2="102.66"/>
	<line fill="none" stroke="#3F3E44" stroke-miterlimit="10" x1="68.171" y1="107.43" x2="68.198" y2="102.679"/>
	<path fill="none" stroke="#3F3E44" stroke-miterlimit="10" d="M58.113,107.643"/>
	<line fill="none" stroke="#3F3E44" stroke-miterlimit="10" x1="71.705" y1="102.74" x2="57.96" y2="102.74"/>
</g>
<polygon fill="#FFB600" points="47.321,100.357 58.385,100.785 64.157,106.473 76.254,105.664 76.327,116.215 42.179,116.439 "/>
<path fill="#C0DDFF" d="M71.623,104.221c0.087,0.811,0.451,1.441,0.813,1.41l1.798-0.154c0.362-0.031,0.584-0.715,0.498-1.523
	l-0.849-9.992c-0.087-0.81-0.157-1.238-0.585-1.344h-0.996c-0.361,0.031-0.693,0.24-0.691,0.947L71.623,104.221z"/>
<path fill="#E9A703" d="M49.95,116.215c-32.521,0.453-12.164,0.453-26.021,0.428c-1.359-0.002-2.143,0-3-0.782
	c-0.784-0.717-0.347-3.075-0.347-3.075l1.347-6.428c0-1.184,0.959-2.143,2.143-2.143l22.714-3.857c3.164,0,2.839,1.5,2.968,3.498
	L49.95,116.215z"/>
<line fill="none" stroke="#FFB600" stroke-miterlimit="10" x1="23.658" y1="108.504" x2="49.753" y2="103.855"/>
<line fill="none" stroke="#FFB600" stroke-miterlimit="10" x1="23.658" y1="111.076" x2="49.753" y2="106.428"/>
<line fill="none" stroke="#CE8E00" stroke-miterlimit="10" x1="23.658" y1="108.933" x2="49.753" y2="104.285"/>
<line fill="none" stroke="#CE8E00" stroke-miterlimit="10" x1="23.658" y1="111.504" x2="49.753" y2="106.855"/>
<line fill="none" stroke="#CE8E00" stroke-miterlimit="10" x1="23.658" y1="113.646" x2="49.753" y2="108.999"/>
<line fill="none" stroke="#FFB600" stroke-miterlimit="10" x1="23.658" y1="113.219" x2="49.753" y2="108.57"/>
<path fill="#303030" d="M25.357,104.215c-1.183,0-3.179-0.143-3.428,2.143l-1.347,6.428c0,0-0.437,2.358,0.347,3.075
	c0.857,0.782,1.643,0.862,3,0.782"/>
<g>
	<g>
		<path fill="#494949" d="M20.17,113.482c0.711,0,1.423,0,2.134,0c0.622,0,0.622-0.965,0-0.965c-0.711,0-1.423,0-2.134,0
			C19.548,112.518,19.548,113.482,20.17,113.482L20.17,113.482z"/>
	</g>
</g>
<g>
	<g>
		<path fill="#494949" d="M20.363,111.715c0.744,0.026,1.487,0.053,2.231,0.08c0.622,0.023,0.62-0.941,0-0.965
			c-0.744-0.026-1.487-0.053-2.231-0.08C19.741,110.728,19.743,111.691,20.363,111.715L20.363,111.715z"/>
	</g>
</g>
<g>
	<g>
		<path fill="#494949" d="M21.167,110.135c0.544,0.035,1.089,0.071,1.634,0.106c0.621,0.042,0.617-0.923,0-0.964
			c-0.545-0.035-1.089-0.071-1.634-0.107C20.546,109.129,20.55,110.094,21.167,110.135L21.167,110.135z"/>
	</g>
</g>
<path fill="none" stroke="#FFB612" stroke-miterlimit="10" d="M49.89,103.746"/>
<path fill="none" stroke="#FFB612" stroke-miterlimit="10" d="M65.63,115.614"/>
<path fill="none" stroke="#FFB612" stroke-miterlimit="10" d="M49.719,106.313"/>
<path fill="none" stroke="#EA9C00" stroke-miterlimit="10" d="M49.62,104.079"/>
<path fill="none" stroke="#EA9C00" stroke-miterlimit="10" d="M49.436,106.635"/>
<path fill="none" stroke="#EA9C00" stroke-miterlimit="10" d="M49.292,108.899"/>
<polyline fill="none" stroke="#E9A703" stroke-width="5" stroke-miterlimit="10" points="23.929,116.213 50.357,115.57 
	76.273,115.359 "/>
<polyline fill="none" stroke="#FFB600" stroke-width="4" stroke-miterlimit="10" points="23.929,114.927 50.356,114.285 
	76.273,114.073 "/>
<g>
	<path fill="none" stroke="#3F3E44" stroke-miterlimit="10" d="M76.249,102.5"/>
	<line fill="none" stroke="#3F3E44" stroke-miterlimit="10" x1="75.98" y1="102.49" x2="76.148" y2="116.232"/>
	<line fill="none" stroke="#3F3E44" stroke-miterlimit="10" x1="76.168" y1="112.725" x2="71.417" y2="112.783"/>
	<line fill="none" stroke="#3F3E44" stroke-miterlimit="10" x1="76.127" y1="109.374" x2="71.375" y2="109.432"/>
	<line fill="none" stroke="#3F3E44" stroke-miterlimit="10" x1="76.085" y1="106.021" x2="71.334" y2="106.08"/>
	<line fill="none" stroke="#3F3E44" stroke-miterlimit="10" x1="76.045" y1="102.67" x2="71.293" y2="102.729"/>
	<path fill="none" stroke="#3F3E44" stroke-miterlimit="10" d="M76.478,116.074"/>
	<line fill="none" stroke="#3F3E44" stroke-miterlimit="10" x1="71.185" y1="102.584" x2="71.58" y2="116.314"/>
</g>
<path fill="none" stroke="#888888" stroke-width="3" stroke-miterlimit="10" d="M81.714,125.429c0,2.84-2.303,5.143-5.143,5.143
	H22.143c-2.84,0-5.143-2.303-5.143-5.143l0,0c0-2.841,2.303-5.144,5.143-5.144h54.428C79.412,120.285,81.714,122.588,81.714,125.429
	L81.714,125.429z"/>
<g>
	<path fill="#8C5300" d="M195.785,120.785c3.715,1.43,7.287,1.43,9.572,4.715c1.289,1.854-4.143,2.143-19.143,6.857
		c-3.432,1.078-42.429,3.434-46.572,3.285c-12-0.428-20.857-1-24.142-4.285c-2.774-2.774,5.214-12.357,5.142-7.286
		c-0.01,0.731,4-0.714,24.287-1.143c10.119-0.214,25.57-2.857,33.143-3.144C190.322,119.323,195.135,120.536,195.785,120.785z"/>
	<path fill="#AD6B15" d="M190.357,121.215c5.928,1.785,9.857,3.285,20.143,5c2.648,0.441-6.84,1.389-22.143,5
		c-19.071,4.5-41.857,4.576-46,4.428c-12-0.428-36.54-2.832-32.357-4.857c6.643-3.214,3.643-6,12-5.57
		c5.557,0.285,17.785,1.714,27.857-0.215c11.365-2.176,20.747,0.047,27.857-2.571C185.857,119.429,189.689,121.014,190.357,121.215z
		"/>
	<path fill="#CE8936" d="M196.785,128.072c10.715-2.857,14-2.286,18.857,0.143c2.173,1.086-12.697,2.926-28,4.57
		c-19.07,2.051-41.143,3.783-45.285,3.715c-12.378-0.201-41.796-1.564-37.714-3.428c6.571-3,7.5-1.91,15.857-1.715
		c5.557,0.13,19.071,2.164,29.143,1.285c11.365-0.99,23.319-1.521,30.429-2.714C188.215,128.563,196.119,128.25,196.785,128.072z"/>
</g>

</svg>
