<?xml version="1.0" encoding="utf-8"?>
<!-- Generator: Adobe Illustrator 15.0.0, SVG Export Plug-In . SVG Version: 6.00 Build 0)  -->
<!DOCTYPE svg PUBLIC "-//W3C//DTD SVG 1.1//EN" "http://www.w3.org/Graphics/SVG/1.1/DTD/svg11.dtd">
<svg version="1.1" id="Layer_1" xmlns="http://www.w3.org/2000/svg" xmlns:xlink="http://www.w3.org/1999/xlink" x="0px" y="0px"
	 width="240px" height="250px" viewBox="0 2.25 240 250" enable-background="new 0 2.25 240 250" xml:space="preserve">
<path opacity="0.25" enable-background="new    " d="M96.25,214.18c0,2.379-10.69,2.153-22.963,2.153
	c-12.272,0-17.037-0.853-17.037-3.229c0-2.379,6.246-1.078,18.519-1.078C87.041,212.025,96.25,211.8,96.25,214.18z"/>
<path opacity="0.25" enable-background="new    " d="M87,215.154c0,1.441-7.951,1.306-17.08,1.306c-9.127,0-12.67-0.517-12.67-1.959
	s4.646-0.653,13.773-0.653C80.151,213.848,87,213.711,87,215.154z"/>
<rect x="64" y="52" fill="#CC9B6E" width="15" height="164"/>
<line fill="none" stroke="#AA907E" stroke-miterlimit="10" x1="69.5" y1="52" x2="69.5" y2="216"/>
<line fill="none" stroke="#AA907E" stroke-miterlimit="10" x1="69" y1="64.5" x2="79" y2="64.5"/>
<line fill="none" stroke="#AA907E" stroke-miterlimit="10" x1="64" y1="73.5" x2="69" y2="73.5"/>
<line fill="none" stroke="#AA907E" stroke-miterlimit="10" x1="70" y1="88.5" x2="79" y2="88.5"/>
<line fill="none" stroke="#AA907E" stroke-miterlimit="10" x1="64" y1="98.5" x2="70" y2="98.5"/>
<line fill="none" stroke="#AA907E" stroke-miterlimit="10" x1="70" y1="109.5" x2="79" y2="109.5"/>
<line fill="none" stroke="#AA907E" stroke-miterlimit="10" x1="64.083" y1="125.583" x2="70" y2="125.5"/>
<line fill="none" stroke="#AA907E" stroke-miterlimit="10" x1="69" y1="135.5" x2="79" y2="135.5"/>
<line fill="none" stroke="#AA907E" stroke-miterlimit="10" x1="70" y1="147.5" x2="64" y2="147.5"/>
<line fill="none" stroke="#AA907E" stroke-miterlimit="10" x1="69" y1="160.5" x2="79" y2="160.5"/>
<line fill="none" stroke="#AA907E" stroke-miterlimit="10" x1="69" y1="169.5" x2="64" y2="169.5"/>
<line fill="none" stroke="#AA907E" stroke-miterlimit="10" x1="69" y1="180.5" x2="79" y2="180.5"/>
<line fill="none" stroke="#AA907E" stroke-miterlimit="10" x1="69" y1="197.5" x2="64" y2="197.5"/>
<line fill="none" stroke="#AA907E" stroke-miterlimit="10" x1="69" y1="210.5" x2="79" y2="210.5"/>
<g id="main_obj">
	<g id="leaver_1">
		<path opacity="0.25" enable-background="new    " d="M159.992,202.333c0,0-13.666-1.333-29.333-1c0,0-13.203-3.063-20,6
			c-1.167,1.558,7.036,3.69,18,4.167c11.5,0.5,18.831,0.359,20.25,0.5c6.018,0.594,17.129,0.518,20.5,0.25
			c0,0,19.917-3.917,11.583-6.583C180.992,205.667,168.326,202.333,159.992,202.333z"/>
		<polygon fill="#DB9A7F" points="146.087,65.951 149.124,73.404 159.542,69.642 151.296,58.717 		"/>
		<path fill="#F3C297" d="M135.38,52.87L134.366,62h2.313c0,0-1.447,8.523,7.523,5.051c0,0,9.117-6.083,10.854-15.056
			c0,0,0.578-10.994-9.84-6.653C145.221,45.342,139.721,46.213,135.38,52.87z"/>
		<path fill="#49300B" d="M148.979,51.699l0.437,2.025l-1.733,0.145l-0.437-2.895l0.146-2.46c0,0,5.498-5.209,7.522-1.736
			c0,0,1.737,4.919,1.157,6.367c0,0-3.038,6.077-4.484,5.933c-1.156-0.724-1.156-3.039-1.156-3.039S153.32,50.831,148.979,51.699"/>
		<path fill="#E2B38D" d="M134.943,54.101L134.366,62h1.733c0,0,0.289,5.412,1.738,5.558c0,0,3.471,1.475,6.365-0.406l-3.473-1.902
			c0,0-3.039-0.553-3.474-7.064c-0.026-0.37,2.42-0.613,2.313-1.001c-0.106-0.399-0.241-0.418-0.326-0.862
			c-0.086-0.458-2.835,0.386-2.893-0.119c-0.104-0.937-0.146-2.057-0.108-3.161L134.943,54.101z"/>
		<path fill="#FFE651" d="M158.893,49.384c0,0-23.877,5.86-31.256,5.643c0,0,2.82-4.341,7.379-5.643c0,0-3.689-17.364,17.364-13.24
			C152.38,36.144,160.122,37.518,158.893,49.384z"/>
		<path fill="none" stroke="#FCAF44" stroke-miterlimit="10" d="M137.262,38.965c0,0,20.545-10.708,21.702,8.393
			c-6.366,2.894-23.946,2.025-23.946,2.025"/>
		<path fill="#414042" d="M175.896,201.318l0.145,1.736c0,0-10.273,1.881-11.287,3.905c0,0-0.869,2.024,0.145,2.46L185.88,210
			l-1.157-5.209L175.896,201.318z"/>
		<path fill="#1572B8" d="M137.837,81.797c0,0,4.634-16.352,19.825-15.049c0,0,4.341,1.013,3.326,17.943
			c0,0,0.291,15.917-0.145,22.139c0,0-0.291,5.208-2.604,8.971c0,0-1.738,6.801,0.146,12.011c0,0,4.192,25.756,6.075,30.676
			c0,0,20.112,44.279,20.836,47.027l-8.682-3.328c0,0-32.701-58.459-34.729-66.853c0,0-10.42,25.179-11.143,30.821l-3.327,35.596
			l-7.813,0.579l2.025-43.699c0,0,6.367-27.349,7.959-34.149c0,0,2.313-7.233,4.629-9.694c0,0-0.724-14.18-1.014-18.666
			C133.206,96.122,131.762,87.15,137.837,81.797z"/>
		<polygon fill="#0B679B" points="149.702,144.018 156.648,159.936 163.16,163.842 158.677,164.709 180.814,203.489 
			176.184,202.186 155.201,166.59 141.889,135.335 		"/>
		<path fill="#0B679B" d="M134.366,114.209c3.184-0.291,19.247,5.499,21.271,5.209l-4.342,1.736l-13.891-2.604l-2.604,5.354
			l-4.922,13.891l-3.614,8.826l-3.185,54.986l-3.476,0.723l1.736-31.109l-0.289-24.601
			C121.055,146.622,132.723,114.359,134.366,114.209z"/>
		<path fill="#0B4E79" d="M133.934,90.623c0,0,5.063,4.631,2.748,16.207l-2.314,2.75l-1.158-14.759L133.934,90.623z"/>
		<path fill="#CACBCD" d="M140.732,82.52c0,0,7.232-14.615,15.049-12.734c0,0,3.326,1.013,2.171,15.772c0,0-1.593,5.645-5.646,7.525
			C152.309,93.083,142.036,91.347,140.732,82.52z"/>
		<path fill="#414042" d="M119.316,201.752c0,0-8.391,1.592-9.403,3.184c0,0-4.053,4.485,4.918,2.896c0,0,12.879,0.435,14.903-1.015
			c0,0,0-5.787-3.473-5.498C122.654,201.618,119.316,201.752,119.316,201.752z"/>
	</g>
	<g id="leaver_2">
		<path fill="#F1C499" d="M105.199,94.855c0,0-4.861,0.108-4.861,3.147c0,0-0.964,5.932,2.069,6.62c0,0,5.586,1.736,9.104-1.085
			l16.342,2.279l1.758-6.512l-3.827-1.736l-12.724,1.411"/>
		<path fill="#DEB18D" d="M107.128,102.669l3.705-0.868l13.634-0.109l3.91-1.682l2.264,2.659l-2.727,3.147l-16.104-2.388
			c0,0-3.498,2.333-4.99,1.411L107.128,102.669z"/>
		<polygon fill="#E7E6E8" points="136.991,84.763 124.292,97.677 127.928,106.033 139.052,92.25 		"/>
		<path fill="#1572B8" d="M139,98.25c-0.75,1.25-10.512,1.151-8.25-6.625c0,0-1.134-0.987,6.241-6.862l1.259,1.987l0.875,2.75
			C140.375,95.5,140.5,95.75,139,98.25z"/>
		<path fill="#0B4E79" d="M130.75,93.125c0,0,1.125-0.25,2.25,0s2.5,1.625,2.5,1.625l-4.5,1C131,95.75,130,94,130.75,93.125z"/>
		<path fill="#CACBCD" d="M140.211,84.039c0,0,7.232-14.615,15.048-12.734c0,0,3.327,1.013,2.171,15.772
			c0,0-1.593,5.645-5.645,7.525C151.786,94.602,141.514,92.866,140.211,84.039z"/>
		<path fill="#E7E6E8" d="M144.887,82.144c0-1.125,0.125-2.75,0.125-2.75s-0.5-1.25,0.605-3.422c1.357-2.668,5.102-4.07,5.102-4.07
			s6.449-3.635,6.756,3.69c0,0,2.246,2.228-5.567,21.619l-6.771-3.767l0.125-8.425C145.262,85.019,145.137,83.394,144.887,82.144z"
			/>
		<path fill="#F4C296" d="M147.877,91.853l-21.414,5.209c0,0-4.486-6.078-9.26-1.158c0,0-1.592,1.88-0.869,6.946
			c0,0,3.689,4.92,9.551-1.013l25.646-3.075l1.029-3.527L147.877,91.853z"/>
		<path fill="#DEB18D" d="M126.463,97.062c0,0,0.324,3.328,0.107,4.521c0,0,1.736-3.907,1.52-4.666L126.463,97.062z"/>
		<path fill="#D0D2D3" d="M151.262,71.577c0,0,0.271,18.178-0.6,22.085c0,0,1.521,1.736,1.086,4.124l6.389-16.767
			C158.137,81.019,160.637,68.269,151.262,71.577z"/>
		<polygon fill="#DEB18D" points="112.212,100.462 111.994,102.632 113.441,98.798 112.246,98.979 		"/>
		<g>
			<polygon fill="#F2F4F1" points="88.137,84.519 81.75,84.519 79,86.164 81.75,87.519 88.137,87.519 			"/>
			<path fill="#BDBFC0" d="M93.616,83.09l-4.921-0.403c0,0-3.764,3.832,0.289,6.832h5.5L93.616,83.09z"/>
			<path fill="#D1D2D4" d="M99.115,80.519h-5.211c0,0-4.92,4.581,0.146,10.369l5.5-0.336L99.115,80.519z"/>
			<rect x="104.137" y="89.519" fill="#771322" width="4" height="13"/>
			<rect x="118.137" y="89.519" fill="#771322" width="3" height="13"/>
			<polygon fill="#BF1E2E" points="120.387,91.326 120.241,102.519 121.688,102.519 121.834,91.279 			"/>
			<polygon fill="#BF1E2E" points="106.35,91.47 106.279,102.519 107.797,102.519 108.086,91.279 			"/>
			<path fill="#BF1E2E" d="M99.407,77.528c-4.923,0.868-6.367,13.312,0.868,14.759l22.135-0.243c0,0,1.738,0.243,3.186-0.625
				c1.445-0.868,1.348-0.48,1.668-2.06c0.323-1.579,0.639-3.678,0.603-5.761c-0.041-2.278,0.479-3.177-1.113-4.769
				c-1.887-1.886-2.854-1.388-5.935-1.479C114.073,77.154,102.783,76.932,99.407,77.528z"/>
			<path fill="none" stroke="#91293D" stroke-width="0.5" stroke-miterlimit="10" d="M105.77,77.817c0,0-3.473,6.656,0.869,14.036"
				/>
			
				<line fill="none" stroke="#91293D" stroke-width="0.5" stroke-miterlimit="10" x1="96.512" y1="87.946" x2="127.62" y2="87.512"/>
			
				<line fill="none" stroke="#91293D" stroke-width="0.5" stroke-miterlimit="10" x1="105.48" y1="82.014" x2="127.62" y2="82.158"/>
			<path fill="#771322" d="M107.869,101.258c0,0.6,0.048,2.03-1.665,2.17c-1.989,0.163-1.935-1.083-1.935-1.683
				c0-0.599,0.143,0.236,1.86,0.236C107.85,101.982,107.869,100.659,107.869,101.258z"/>
			<path fill="#771322" d="M121.762,101.258c0,0.6,0.047,2.03-1.666,2.17c-1.99,0.163-1.936-1.083-1.936-1.683
				c0-0.599,0.143,0.236,1.861,0.236C121.741,101.982,121.762,100.659,121.762,101.258z"/>
		</g>
		<path fill="#F4C296" d="M117.889,96.917c0,0,3.689,0.651,4.885-0.543c0.978,0,1.845,6.729-2.713,7.922
			C120.061,104.297,116.044,102.995,117.889,96.917z"/>
		<path fill="#DEB18D" d="M123.75,96.374c0,0-4.559,1.194-5.861,0.543c0,0,0,1.845,2.496,1.736
			C120.385,98.653,122.773,97.894,123.75,96.374z"/>
		<path fill="#F1C499" d="M112.246,98.979l-2.496-1.845c0,0-5.645-8.03-7.055-3.581l1.41,2.171"/>
		<path fill="#E0B189" d="M104.215,96.157c0,0,0.65,6.295-1.845,7.38c0,0,3.038-0.217,3.256-5.969l-0.325-0.977
			c0,0,1.844,1.954,2.93,0.542c0,0-2.93-1.302-3.58-2.063C104.65,95.072,103.998,95.398,104.215,96.157z"/>
		<line fill="none" x1="104.866" y1="96.7" x2="108.23" y2="97.134"/>
		<polygon fill="#771322" points="105.301,77.491 110.076,75.32 122.122,75.755 122.991,77.6 		"/>
	</g>
</g>


</svg>
