<?xml version="1.0" encoding="utf-8"?>
<!-- Generator: Adobe Illustrator 15.0.0, SVG Export Plug-In . SVG Version: 6.00 Build 0)  -->
<!DOCTYPE svg PUBLIC "-//W3C//DTD SVG 1.1//EN" "http://www.w3.org/Graphics/SVG/1.1/DTD/svg11.dtd">
<svg version="1.1" id="Layer_1" xmlns="http://www.w3.org/2000/svg" xmlns:xlink="http://www.w3.org/1999/xlink"  viewBox="0 0 240 220" enable-background="new 0 0 240 220" xml:space="preserve">

<path opacity="0.25" enable-background="new    " d="M99.25,194.18c0,2.379-10.69,2.153-22.963,2.153
	c-12.272,0-17.037-0.853-17.037-3.229c0-2.379,6.246-1.078,18.519-1.078C90.041,192.025,99.25,191.8,99.25,194.18z"/>
<path opacity="0.25" enable-background="new    " d="M90,195.154c0,1.441-7.951,1.306-17.08,1.306c-9.127,0-12.67-0.517-12.67-1.959
	s4.646-0.653,13.773-0.653C83.151,193.848,90,193.711,90,195.154z"/>
	
<rect x="67" y="32" fill="#CC9B6E" width="15" height="164"/>
<line fill="none" stroke="#AA907E" stroke-miterlimit="10" x1="72.5" y1="32" x2="72.5" y2="196"/>
<line fill="none" stroke="#AA907E" stroke-miterlimit="10" x1="72" y1="44.5" x2="82" y2="44.5"/>
<line fill="none" stroke="#AA907E" stroke-miterlimit="10" x1="67" y1="53.5" x2="72" y2="53.5"/>
<line fill="none" stroke="#AA907E" stroke-miterlimit="10" x1="73" y1="68.5" x2="82" y2="68.5"/>
<line fill="none" stroke="#AA907E" stroke-miterlimit="10" x1="67" y1="78.5" x2="73" y2="78.5"/>
<line fill="none" stroke="#AA907E" stroke-miterlimit="10" x1="73" y1="89.5" x2="82" y2="89.5"/>
<line fill="none" stroke="#AA907E" stroke-miterlimit="10" x1="67.083" y1="105.583" x2="73" y2="105.5"/>
<line fill="none" stroke="#AA907E" stroke-miterlimit="10" x1="72" y1="115.5" x2="82" y2="115.5"/>
<line fill="none" stroke="#AA907E" stroke-miterlimit="10" x1="73" y1="127.5" x2="67" y2="127.5"/>
<line fill="none" stroke="#AA907E" stroke-miterlimit="10" x1="72" y1="140.5" x2="82" y2="140.5"/>
<line fill="none" stroke="#AA907E" stroke-miterlimit="10" x1="72" y1="149.5" x2="67" y2="149.5"/>
<line fill="none" stroke="#AA907E" stroke-miterlimit="10" x1="72" y1="160.5" x2="82" y2="160.5"/>
<line fill="none" stroke="#AA907E" stroke-miterlimit="10" x1="72" y1="177.5" x2="67" y2="177.5"/>
<line fill="none" stroke="#AA907E" stroke-miterlimit="10" x1="72" y1="190.5" x2="82" y2="190.5"/>


<g id="main_obj">
 <g id="leaver_1" transform="translate( 0, 0)">
	<path opacity="0.25" enable-background="new    " d="M50.992,182.333c0,0-13.666-1.333-29.333-1c0,0-13.203-3.063-20,6
		c-1.167,1.558,7.037,3.69,18,4.167c11.5,0.5,18.831,0.359,20.25,0.5c6.018,0.594,17.129,0.518,20.5,0.25
		c0,0,19.917-3.917,11.583-6.583C71.992,185.667,59.326,182.333,50.992,182.333z"/>
	<polygon fill="#DB9A7F" points="37.087,45.951 40.124,53.404 50.542,49.642 42.296,38.717 	"/>
	<path fill="#F3C297" d="M26.38,32.87L25.366,42h2.314c0,0-1.447,8.523,7.523,5.051c0,0,9.117-6.083,10.854-15.056
		c0,0,0.578-10.994-9.84-6.653C36.22,25.342,30.72,26.213,26.38,32.87z"/>
	<path fill="#49300B" d="M39.979,31.699l0.436,2.025l-1.734,0.145l-0.436-2.895l0.145-2.46c0,0,5.498-5.209,7.523-1.736
		c0,0,1.738,4.919,1.158,6.367c0,0-3.039,6.077-4.485,5.933c-1.157-0.724-1.157-3.039-1.157-3.039S44.321,30.831,39.979,31.699"/>
	<path fill="#E2B38D" d="M25.944,34.101L25.366,42h1.734c0,0,0.289,5.412,1.738,5.558c0,0,3.471,1.475,6.365-0.406l-3.472-1.902
		c0,0-3.04-0.553-3.474-7.064c-0.026-0.37,2.42-0.613,2.314-1.001c-0.107-0.399-0.242-0.418-0.327-0.862
		c-0.086-0.458-2.835,0.386-2.892-0.119c-0.104-0.937-0.146-2.057-0.109-3.161L25.944,34.101z"/>
	<path fill="#FFE651" d="M49.892,29.384c0,0-23.877,5.86-31.256,5.643c0,0,2.821-4.341,7.379-5.643c0,0-3.689-17.364,17.365-13.24
		C43.38,16.144,51.122,17.518,49.892,29.384z"/>
	<path fill="none" stroke="#FCAF44" stroke-miterlimit="10" d="M28.261,18.965c0,0,20.545-10.708,21.703,8.393
		c-6.367,2.894-23.947,2.025-23.947,2.025"/>
	<path fill="#414042" d="M66.896,181.318l0.145,1.736c0,0-10.273,1.881-11.287,3.906c0,0-0.869,2.025,0.145,2.46L76.88,190
		l-1.158-5.209L66.896,181.318z"/>
	<path fill="#1572B8" d="M28.837,61.797c0,0,4.633-16.352,19.825-15.049c0,0,4.341,1.013,3.327,17.943c0,0,0.29,15.917-0.145,22.139
		c0,0-0.291,5.208-2.604,8.971c0,0-1.738,6.801,0.146,12.011c0,0,4.193,25.756,6.076,30.676c0,0,20.112,44.279,20.836,47.027
		l-8.682-3.328c0,0-32.701-58.459-34.729-66.852c0,0-10.42,25.178-11.143,30.821l-3.327,35.596l-7.813,0.579l2.025-43.699
		c0,0,6.367-27.349,7.959-34.149c0,0,2.313-7.233,4.629-9.694c0,0-0.724-14.18-1.014-18.666
		C24.206,76.122,22.761,67.15,28.837,61.797z"/>
	<polygon fill="#0B679B" points="40.702,124.018 47.649,139.936 54.16,143.842 49.677,144.709 71.815,183.489 67.183,182.186 
		46.201,146.59 32.888,115.335 	"/>
	<path fill="#0B679B" d="M25.366,94.209c3.184-0.291,19.247,5.499,21.271,5.209l-4.342,1.736L28.404,98.55l-2.604,5.354
		l-4.922,13.891l-3.615,8.826l-3.184,54.986l-3.475,0.723l1.736-31.109l-0.289-24.601C12.054,126.622,23.722,94.359,25.366,94.209z"
		/>
	<path fill="#0B4E79" d="M24.933,70.623c0,0,5.063,4.631,2.748,16.207l-2.314,2.75l-1.158-14.759L24.933,70.623z"/>
	<path fill="#CACBCD" d="M31.733,62.52c0,0,7.232-14.615,15.048-12.734c0,0,3.327,1.013,2.171,15.772c0,0-1.593,5.645-5.645,7.525
		C43.308,73.083,33.036,71.347,31.733,62.52z"/>
	<path fill="#414042" d="M10.317,181.752c0,0-8.391,1.592-9.404,3.184c0,0-4.053,4.485,4.918,2.895c0,0,12.879,0.434,14.904-1.014
		c0,0,0-5.787-3.473-5.498C13.655,181.618,10.317,181.752,10.317,181.752z"/>
	</g>

	<g id="leaver_2" transform="translate( -30, 50)">

	<path fill="#F1C499" d="M26.199,23.855c0,0-4.861,0.108-4.861,3.147c0,0-0.964,5.932,2.069,6.62c0,0,5.586,1.736,9.104-1.085
		l16.342,2.279l1.759-6.512l-3.828-1.736l-12.723,1.411"/>
	<path fill="#DEB18D" d="M28.128,31.669l3.705-0.868l13.634-0.109l3.91-1.682l2.264,2.659l-2.727,3.147L32.81,32.428
		c0,0-3.497,2.333-4.989,1.411L28.128,31.669z"/>
	<polygon fill="#E7E6E8" points="57.991,13.763 45.292,26.677 48.928,35.033 60.052,21.25 	"/>
	<path fill="#1572B8" d="M60,27.25c-0.75,1.25-10.511,1.151-8.25-6.625c0,0-1.134-0.987,6.241-6.862l1.259,1.987l0.875,2.75
		C61.375,24.5,61.5,24.75,60,27.25z"/>
	<path fill="#0B4E79" d="M51.75,22.125c0,0,1.125-0.25,2.25,0s2.5,1.625,2.5,1.625l-4.5,1C52,24.75,51,23,51.75,22.125z"/>
	<path fill="#CACBCD" d="M61.211,13.039c0,0,7.232-14.615,15.048-12.734c0,0,3.327,1.013,2.171,15.772c0,0-1.593,5.645-5.645,7.525
		C72.786,23.602,62.514,21.866,61.211,13.039z"/>
	<path fill="#E7E6E8" d="M65.887,11.144c0-1.125,0.125-2.75,0.125-2.75s-0.5-1.25,0.605-3.422c1.358-2.668,5.102-4.07,5.102-4.07
		s6.449-3.635,6.756,3.69c0,0,2.246,2.228-5.568,21.619l-6.77-3.767l0.125-8.425C66.262,14.019,66.137,12.394,65.887,11.144z"/>
	<path fill="#F4C296" d="M68.877,20.853l-21.414,5.209c0,0-4.486-6.078-9.26-1.158c0,0-1.592,1.88-0.869,6.946
		c0,0,3.689,4.92,9.551-1.013l25.646-3.075l1.03-3.527L68.877,20.853z"/>
	<path fill="#DEB18D" d="M47.463,26.062c0,0,0.324,3.328,0.107,4.521c0,0,1.736-3.907,1.52-4.666L47.463,26.062z"/>
	<path fill="#D0D2D3" d="M72.261,0.577c0,0,0.271,18.178-0.599,22.085c0,0,1.521,1.736,1.086,4.124l6.389-16.767
		C79.137,10.019,81.637-2.731,72.261,0.577z"/>
	<polygon fill="#DEB18D" points="33.212,29.462 32.994,31.632 34.442,27.798 33.246,27.979 	"/>
	<g>
		<polygon fill="#F2F4F1" points="9.137,13.519 2.75,13.519 0,15.164 2.75,16.519 9.137,16.519 		"/>
		<path fill="#BDBFC0" d="M14.616,12.09l-4.92-0.403c0,0-3.764,3.832,0.289,6.832h5.499L14.616,12.09z"/>
		<path fill="#D1D2D4" d="M20.115,9.519h-5.21c0,0-4.92,4.581,0.145,10.369l5.5-0.336L20.115,9.519z"/>
		<rect x="25.137" y="18.519" fill="#771322" width="4" height="13"/>
		<rect x="39.137" y="18.519" fill="#771322" width="3" height="13"/>
		<polygon fill="#BF1E2E" points="41.387,20.326 41.241,31.519 42.688,31.519 42.834,20.279 		"/>
		<polygon fill="#BF1E2E" points="27.35,20.47 27.28,31.519 28.797,31.519 29.086,20.279 		"/>
		<path fill="#BF1E2E" d="M20.407,6.528c-4.922,0.868-6.367,13.312,0.868,14.759l22.135-0.243c0,0,1.738,0.243,3.185-0.625
			c1.446-0.868,1.349-0.48,1.669-2.06c0.323-1.579,0.639-3.678,0.602-5.761c-0.041-2.278,0.479-3.177-1.113-4.769
			c-1.887-1.886-2.854-1.388-5.934-1.479C35.073,6.154,23.783,5.932,20.407,6.528z"/>
		<path fill="none" stroke="#91293D" stroke-width="0.5" stroke-miterlimit="10" d="M26.77,6.817c0,0-3.473,6.656,0.869,14.036"/>
		<line fill="none" stroke="#91293D" stroke-width="0.5" stroke-miterlimit="10" x1="17.512" y1="16.946" x2="48.62" y2="16.512"/>
		<line fill="none" stroke="#91293D" stroke-width="0.5" stroke-miterlimit="10" x1="26.481" y1="11.014" x2="48.62" y2="11.158"/>
		<path fill="#771322" d="M28.869,30.258c0,0.6,0.048,2.03-1.665,2.17c-1.989,0.163-1.935-1.083-1.935-1.683
			c0-0.599,0.143,0.236,1.861,0.236C28.849,30.982,28.869,29.659,28.869,30.258z"/>
		<path fill="#771322" d="M42.761,30.258c0,0.6,0.047,2.03-1.665,2.17c-1.99,0.163-1.936-1.083-1.936-1.683
			c0-0.599,0.143,0.236,1.861,0.236C42.741,30.982,42.761,29.659,42.761,30.258z"/>
	</g>
	<path fill="#F4C296" d="M38.889,25.917c0,0,3.689,0.651,4.885-0.543c0.977,0,1.844,6.729-2.714,7.922
		C41.06,33.297,37.044,31.995,38.889,25.917z"/>
	<path fill="#DEB18D" d="M44.75,25.374c0,0-4.559,1.194-5.861,0.543c0,0,0,1.845,2.496,1.736
		C41.385,27.653,43.774,26.894,44.75,25.374z"/>
	<path fill="#F1C499" d="M33.246,27.979l-2.496-1.845c0,0-5.644-8.03-7.055-3.581l1.411,2.171"/>
	<path fill="#E0B189" d="M25.215,25.157c0,0,0.65,6.295-1.845,7.38c0,0,3.038-0.217,3.256-5.969l-0.325-0.977
		c0,0,1.844,1.954,2.93,0.542c0,0-2.93-1.302-3.581-2.063C25.65,24.072,24.998,24.398,25.215,25.157z"/>
	<line fill="none" x1="25.866" y1="25.7" x2="29.231" y2="26.134"/>
	<polygon fill="#771322" points="26.301,6.491 31.076,4.32 43.122,4.755 43.991,6.6 	"/>

</g>	

</g> 




<g id="particales">

<g id="particales0">
	<polygon fill="#CC9B6E" points="2.477,9.439 2.167,11.651 3.715,11.651 4.025,9.218 	"/>
	<polygon fill="#CC9B6E" points="2.711,21.022 3.121,23.26 4.215,23.056 3.94,21.633 2.985,20.209 	"/>
	<polygon fill="#CC9B6E" points="7.888,25.393 10.01,27.87 9.656,24.686 	"/>
	<polygon fill="#CC9B6E" points="9.041,5.037 8.378,5.965 9.438,7.16 10.501,5.833 	"/>
	<polygon fill="#CC9B6E" points="9.609,33.507 11.068,35.629 11.334,34.833 10.672,32.843 	"/>
	<polygon fill="#CC9B6E" points="6.139,17.404 7.333,18.333 6.537,16.211 	"/>
	<polygon fill="#CC9B6E" points="8.325,13.252 10.315,13.65 8.591,11.793 7.396,11.926 7.396,12.722 	"/>
	<polygon fill="#CC9B6E" points="17.167,0 16.371,0.796 16.9,1.725 17.564,1.062 18.361,0 	"/>
	<polygon fill="#CC9B6E" points="13.239,17.564 14.433,18.361 14.167,17.167 	"/>
	<polygon fill="#CC9B6E" points="0,16.914 0,17.975 0.928,17.975 	"/>
</g>
<g id="particales1">
	<polygon fill="#CC9B6E" points="13.764,17.457 13.612,18.508 14.374,18.508 14.526,17.353 	"/>
	<polygon fill="#CC9B6E" points="19.635,17.174 19.975,18.056 20.881,17.976 20.654,17.415 19.861,16.853 	"/>
	<polygon fill="#CC9B6E" points="14.878,30.815 16.875,33 16.541,30.191 	"/>
	<polygon fill="#CC9B6E" points="23.999,12.783 23.491,13.329 24.304,14.03 25.115,13.251 	"/>
	<polygon fill="#CC9B6E" points="26.834,37.833 28.293,39.956 28.559,39.16 27.895,37.17 	"/>
	<polygon fill="#CC9B6E" points="18.834,40.5 20.027,41.429 19.231,39.307 	"/>
	<polygon fill="#CC9B6E" points="24.511,22.542 26.5,22.939 24.775,21.083 23.582,21.215 23.582,22.011 	"/>
	<polygon fill="#CC9B6E" points="27.112,1.605 26.316,2.401 26.847,3.33 27.511,2.667 28.308,1.605 	"/>
	<polygon fill="#CC9B6E" points="16.749,26.245 17.942,27.041 17.677,25.847 	"/>
	<polygon fill="#CC9B6E" points="7.415,18.939 7.415,20 8.345,20 	"/>
	<polygon fill="#CC9B6E" points="3.498,17.099 3.359,19.04 4.051,19.04 4.19,16.905 	"/>
	<polygon fill="#CC9B6E" points="6.756,27.596 7.167,29.833 8.26,29.629 7.986,28.206 7.03,26.782 	"/>
	<polygon fill="#CC9B6E" points="17.866,7.322 19.75,8.625 19.435,6.95 	"/>
	<polygon fill="#CC9B6E" points="12.829,8.905 12.167,9.833 13.228,11.028 14.29,9.701 	"/>
	<polygon fill="#CC9B6E" points="11.108,23.841 12.567,25.963 12.834,25.167 12.17,23.177 	"/>
	<polygon fill="#CC9B6E" points="19.845,31.833 21.038,32.763 20.242,30.64 	"/>
	<polygon fill="#CC9B6E" points="7.011,11.833 9.001,12.231 7.275,10.375 6.081,10.506 6.081,11.303 	"/>
	<polygon fill="#CC9B6E" points="21.044,-0.187 20.248,0.609 20.778,1.538 21.442,0.875 22.239,-0.187 	"/>
	<polygon fill="#CC9B6E" points="16.816,11.87 18.011,12.667 17.745,11.472 	"/>
	<polygon fill="#CC9B6E" points="-0.989,20.744 -0.989,21.805 -0.061,21.805 	"/>
</g>
<g id="particales2">
	<polygon fill="#CC9B6E" points="7.571,10.927 7.339,13 8.5,13 8.733,10.72 	"/>
	<polygon fill="#CC9B6E" points="11.937,26.39 12.347,28.627 13.441,28.423 13.167,27 12.211,25.576 	"/>
	<polygon fill="#CC9B6E" points="16.331,21.46 18.453,23.937 18.1,20.753 	"/>
	<polygon fill="#CC9B6E" points="12.041,6.204 11.378,7.132 12.438,8.326 13.5,7 	"/>
	<polygon fill="#CC9B6E" points="19.041,34.544 20.5,36.667 20.766,35.871 20.102,33.881 	"/>
	<polygon fill="#CC9B6E" points="16.539,15.763 17.732,16.692 16.937,14.569 	"/>
	<polygon fill="#CC9B6E" points="19.41,9.726 21.401,10.123 19.675,8.266 18.481,8.398 18.481,9.195 	"/>
	<polygon fill="#CC9B6E" points="19.834,0 19.039,0.796 19.57,1.725 20.234,1.062 21.029,0 	"/>
	<polygon fill="#CC9B6E" points="25.306,3.871 26.5,4.667 26.233,3.473 	"/>
	<polygon fill="#CC9B6E" points="0,12.589 0,13.65 0.93,13.65 	"/>
	<polygon fill="#CC9B6E" points="6.262,4.142 5.951,5.939 7.5,5.939 7.811,3.963 	"/>
	<polygon fill="#CC9B6E" points="4.807,19.991 5.217,22.229 6.312,22.024 6.037,20.601 5.082,19.177 	"/>
	<polygon fill="#CC9B6E" points="9.013,17.466 11.078,19.549 10.734,16.871 	"/>
	<polygon fill="#CC9B6E" points="13.252,2.003 12.588,2.932 13.65,4.125 14.711,2.799 	"/>
	<polygon fill="#CC9B6E" points="1.55,8 1.55,9.062 2.479,9.062 	"/>
</g>
<g id="particales3">
	<polygon fill="#CC9B6E" points="22.834,20.021 22.525,22.232 24.073,22.232 24.383,19.8 	"/>
	<polygon fill="#CC9B6E" points="32.604,18.077 33.014,20.314 34.107,20.11 33.834,18.687 32.878,17.263 	"/>
	<polygon fill="#CC9B6E" points="11.5,29.5 13.622,31.977 13.268,28.792 	"/>
	<polygon fill="#CC9B6E" points="34.831,11.092 34.167,12.021 35.229,13.214 36.291,11.888 	"/>
	<polygon fill="#CC9B6E" points="31.834,41.354 33.293,43.477 33.559,42.68 32.895,40.69 	"/>
	<polygon fill="#CC9B6E" points="25.5,50.833 26.693,51.763 25.897,49.64 	"/>
	<polygon fill="#CC9B6E" points="34.569,29.479 36.559,29.877 34.834,28.021 33.641,28.153 33.641,28.949 	"/>
	<polygon fill="#CC9B6E" points="37.5,0.354 36.704,1.15 37.234,2.079 37.898,1.416 38.695,0.354 	"/>
	<polygon fill="#CC9B6E" points="27.834,31.021 29.027,31.817 28.762,30.623 	"/>
	<polygon fill="#CC9B6E" points="13.904,19.959 13.904,21.021 14.834,21.021 	"/>
	<polygon fill="#CC9B6E" points="5.929,15.622 5.62,17.833 7.167,17.833 7.478,15.401 	"/>
	<polygon fill="#CC9B6E" points="4.054,28.453 4.465,30.69 5.558,30.486 5.284,29.063 4.328,27.639 	"/>
	<polygon fill="#CC9B6E" points="24.73,8.47 26.854,10.946 26.498,7.762 	"/>
	<polygon fill="#CC9B6E" points="13.435,8.044 12.773,8.973 13.833,10.167 14.896,8.84 	"/>
	<polygon fill="#CC9B6E" points="19.438,28.497 20.897,30.62 21.164,29.823 20.5,27.833 	"/>
	<polygon fill="#CC9B6E" points="22.167,36.687 23.36,37.616 22.564,35.494 	"/>
	<polygon fill="#CC9B6E" points="13.5,16.354 15.49,16.751 13.765,14.895 12.57,15.027 12.57,15.823 	"/>
	<polygon fill="#CC9B6E" points="22.033,0 21.237,0.796 21.768,1.725 22.432,1.062 23.229,0 	"/>
	<polygon fill="#CC9B6E" points="17.806,12.057 19,12.854 18.734,11.659 	"/>
	<polygon fill="#CC9B6E" points="0,20.931 0,21.992 0.929,21.992 	"/>
</g>

</g>	 


<script  type="text/javascript">
	<![CDATA[
			
			var endInterval = 0
			
			var rot1_1 = 0, rot1_2 = 15, rot1_3 = 0, rot1_4 = 0, rot1_5 = 20;
			var rot2_1 = -30, rot2_2 = -26, rot2_3 = -30, rot2_4 = 20, rot2_5 = 50;	
			var rot3_1 = 0, rot3_2 = 50, rot3_3 = -20, rot3_4 = 120, rot3_5 = 0;	
			
			var sand_1 = 0, sand_2 = 0;			
			var fast_ = 50, fast_2 = 50, fast_3 = 50, fast_4 = 50, fast_5 = 50, fast_6 = 50, fast_7 = 50;

			var rota = 0;			
			var aniPoints = 0;
			
			var nextStep = false;
			
			var endAnimation = false;	
			
			var main_obj = document.getElementById("main_obj");
			var leaver_1 = document.getElementById("leaver_1");
			var leaver_2 = document.getElementById("leaver_2");
			
			var pari = -1;
			var pariSpd = 0;
			
			var Interval = null;
			
			function startAnimation() {
				if(Interval == null) {
					Interval = setInterval(animate, 10);
				}
			}
			
			function stopAnimation() {
				if(Interval != null){
					clearInterval(Interval);
					Interval = null;
				}
			}	
			
			function animate() {	
				
				rota = rota + 1;
				
				aniPoints = aniPoints +1;
				
				if(aniPoints > 10 && aniPoints < 12){
					endAnimation = false;
					fast_ += (2 - fast_)/2;
					rot1_1 += (rot1_2 - rot1_1)/2;				
					rot2_1 += (rot2_2 - rot2_1)/2;

					leaver_2.setAttribute("transform",  "translate("+ rot2_1 +" 50)");
				}
				
				if(aniPoints > 12 && aniPoints < 14){
					endAnimation = false;
					fast_ += (2 - fast_)/2;
					rot1_1 += (rot1_2 - rot1_1)/2;				
					rot2_1 += (rot2_3 - rot2_1)/2;

					leaver_2.setAttribute("transform",  "translate("+ rot2_1 +" 50)");
				}
				
				pariSpd = pariSpd +1;
				if( pariSpd > 3){
					pariSpd = 0;
					for(var i=0; i<4; i++){
						document.getElementById("particales"+i).setAttribute("visibility",  "hidden");
					}
					pari = Math.round(Math.random()*3);
					document.getElementById("particales"+pari ).setAttribute("visibility",  "visible");	
				}
				
				
				if(aniPoints > 14 && !endAnimation){					
					endAnimation = true;
					aniPoints = 0;
					fast_ = 50, fast_2 = 50, fast_3 = 50, fast_4 = 50, fast_5 = 50, fast_6 = 50, fast_7 = 50;
				}				
				
			}			

			leaver_1.setAttribute("transform",  "translate( 0, 0)");	
			leaver_2.setAttribute("transform",  "translate( -30, 50)");			
			main_obj.setAttribute("transform",  "translate( 110, 05)");
			
			document.getElementById("particales").setAttribute("transform",  "translate( 78, 53)");	
			
				
			startAnimation();			
			
		
		]]>
</script>


	 
</svg>
