<?xml version="1.0" encoding="utf-8"?>
<!-- Generator: Adobe Illustrator 19.0.0, SVG Export Plug-In . SVG Version: 6.00 Build 0)  -->
<svg version="1.1" id="keywordResearchIcon" xmlns="http://www.w3.org/2000/svg" xmlns:xlink="http://www.w3.org/1999/xlink"
	 x="0px" y="0px" viewBox="-212 88 75 75" style="enable-background:new -212 88 75 75;" xml:space="preserve">
<style type="text/css">
	.st0{fill:none;stroke:#000000;stroke-width:1.17;stroke-linecap:round;stroke-linejoin:round;stroke-miterlimit:10;}
	.st1{fill:none;}
</style>
<g>
	<g>
		<path id="path4" class="st0" d="M-154.9,115.4l-2.3,3.3l-2.3-3.3h-0.4l-2.5,3.3l-2.5-3.2l-2.5,3.2l-2.6-3.3h-3.1
			c-1.8-3.2-5.4-5.2-9.4-4.5c-4,0.5-7.1,3.9-7.6,7.8c-0.5,5.6,3.7,10.1,9.1,10.1c3.4,0,6.5-2,7.9-4.7h18.1l3.9-4.4L-154.9,115.4z"/>
		<path id="path0" class="st0" d="M-186.5,119.8c-0.1-3.1,2.3-5.6,5.1-5.7c2.3-0.1,4.8,1.4,5.6,3.6s-0.1,4.9-1.9,6.3
			c-0.8,0.7-1.9,1-2.9,1.1C-183.7,125.4-186.4,123-186.5,119.8z"/>
		<path id="path1" class="st0" d="M-179.1,119.6c0,1-0.8,1.9-1.9,1.9s-1.9-0.8-1.9-1.9c0-1,0.8-1.9,1.9-1.9
			C-180.1,117.6-179.1,118.5-179.1,119.6z"/>
		<path id="path5" class="st0" d="M-179.1,119.6c0,1.3-0.9,1.9-1.9,1.9c-1.3,0-1.9-0.9-1.9-1.9c0-1.3,0.9-1.9,1.9-1.9
			C-179.7,117.7-179.1,118.8-179.1,119.6z"/>
		<path id="path3" class="st0" d="M-185.6,136.2c-2.5,5-2.7,6-5.2,11.1c-0.9,1.9-2.7,2-3.7,1.3c-1.1-0.5-1.9-2.1-1-3.7
			c2.5-5.1,2.8-6.1,5.2-11.2"/>
		<path id="path2" class="st0" d="M-168.8,127.2c-3.9,6-11.7,8.3-18.2,5.3c-7.3-3.5-10.2-12.6-6.3-19.7c3.8-6.9,12.6-8.8,18.7-5.9
			c2.8,1.4,4.6,3.4,5.8,5.4"/>
		<path id="path6" class="st0" d="M-168.8,127.2c-3.9,6-11.7,8.3-18.2,5.3c-7.3-3.5-10.2-12.6-6.3-19.7c3.8-6.9,12.6-8.8,18.7-5.9
			c2.8,1.4,4.6,3.4,5.8,5.4"/>
		<path id="path7" class="st1" d="M-179.2,118.9c0.4,0.7,0.1,2.5-1.7,2.6c-1.9,0-2.3-1.9-1.7-2.9c0.3-0.6,1.1-0.9,1.6-0.9
			c1,0,1.6,0.6,1.6,0.9"/>
	</g>
	<g id="stars_1_">
		<path id="star5" d="M-165.3,104.9c-1.3,0-2.2,1-2.2,2.2c0,1.3,1,2.2,2.2,2.2c1.3,0,2.2-1,2.2-2.2S-164.2,104.9-165.3,104.9z
			 M-165.3,108.7c-0.9,0-1.6-0.7-1.6-1.6s0.7-1.6,1.6-1.6s1.6,0.7,1.6,1.6C-163.7,107.9-164.4,108.7-165.3,108.7z"/>
		<path id="star4" d="M-196.8,130.7c-0.9,0-1.7,0.7-1.7,1.7s0.7,1.7,1.7,1.7s1.7-0.7,1.7-1.7S-195.9,130.7-196.8,130.7z
			 M-196.8,133.7c-0.7,0-1.3-0.5-1.3-1.3c0-0.7,0.5-1.3,1.3-1.3c0.7,0,1.3,0.5,1.3,1.3C-195.5,133.1-196,133.7-196.8,133.7z"/>
		<path id="star3" d="M-160.4,132.2c-2.4,0-3.2-0.7-3.2-3.2c0-0.2-0.1-0.3-0.3-0.3s-0.3,0.1-0.3,0.3c0,2.4-0.8,3.2-3.2,3.2
			c-0.2,0-0.3,0.1-0.3,0.3s0.1,0.3,0.3,0.3c2.4,0,3.2,0.7,3.2,3.2c0,0.2,0.1,0.3,0.3,0.3s0.3-0.1,0.3-0.3c0-2.4,0.7-3.2,3.2-3.2
			c0.2,0,0.3-0.1,0.3-0.3C-160.1,132.2-160.3,132.2-160.4,132.2z M-163.9,133.9c-0.3-0.7-0.7-1.2-1.4-1.4c0.7-0.3,1.2-0.7,1.4-1.4
			c0.3,0.7,0.7,1.2,1.4,1.4C-163.2,132.7-163.7,133.1-163.9,133.9z"/>
		<path id="star2" d="M-190.7,104.2c-2,0-2.6-0.6-2.6-2.6c0-0.2-0.1-0.2-0.2-0.2c-0.2,0-0.2,0.1-0.2,0.2c0,2-0.6,2.6-2.6,2.6
			c-0.2,0-0.2,0.1-0.2,0.2s0.1,0.2,0.2,0.2c2,0,2.6,0.6,2.6,2.6c0,0.2,0.1,0.2,0.2,0.2c0.2,0,0.2-0.1,0.2-0.2c0-2,0.6-2.6,2.6-2.6
			c0.2,0,0.2-0.1,0.2-0.2S-190.7,104.2-190.7,104.2z M-193.5,105.6c-0.2-0.6-0.6-1-1.2-1.2c0.6-0.2,1-0.6,1.2-1.2
			c0.2,0.6,0.6,1,1.2,1.2C-193,104.6-193.3,105-193.5,105.6z"/>
		<path id="star1" d="M-168.4,136.7c-1.8,0-2.3-0.5-2.3-2.3c0-0.1-0.1-0.2-0.2-0.2s-0.2,0.1-0.2,0.2c0,1.8-0.5,2.3-2.3,2.3
			c-0.1,0-0.2,0.1-0.2,0.2s0.1,0.2,0.2,0.2c1.8,0,2.3,0.5,2.3,2.3c0,0.1,0.1,0.2,0.2,0.2s0.2-0.1,0.2-0.2c0-1.8,0.5-2.3,2.3-2.3
			c0.1,0,0.2-0.1,0.2-0.2C-168.2,136.7-168.3,136.7-168.4,136.7z M-170.9,138c-0.2-0.5-0.5-0.8-1.1-1c0.5-0.2,0.8-0.5,1.1-1.1
			c0.2,0.5,0.5,0.9,1,1.1C-170.5,137.2-170.8,137.6-170.9,138z"/>
	</g>
</g>
</svg>
