<?xml version="1.0" encoding="utf-8"?>
<!-- Generator: Adobe Illustrator 19.0.0, SVG Export Plug-In . SVG Version: 6.00 Build 0)  -->
<svg version="1.1" id="localSeoIcon" xmlns="http://www.w3.org/2000/svg" xmlns:xlink="http://www.w3.org/1999/xlink" x="0px"
	 y="0px" viewBox="-212 88 75 75" style="enable-background:new -212 88 75 75;" xml:space="preserve">
<style type="text/css">
	.st0{fill:none;stroke:#000000;stroke-width:1.17;stroke-linecap:round;stroke-linejoin:round;stroke-miterlimit:10;}
</style>
<g>
	<g id="stars_1_">
		<path id="star5" d="M-188.9,120.3c-1.3,0-2.2,1-2.2,2.2s1,2.2,2.2,2.2s2.2-1,2.2-2.2C-186.8,121.3-187.7,120.3-188.9,120.3z
			 M-188.9,124.1c-0.9,0-1.6-0.7-1.6-1.6s0.7-1.6,1.6-1.6s1.6,0.7,1.6,1.6S-188,124.1-188.9,124.1z"/>
		<path id="star4" d="M-152.5,124.8c-0.9,0-1.7,0.7-1.7,1.7s0.7,1.7,1.7,1.7s1.7-0.7,1.7-1.7S-151.6,124.8-152.5,124.8z
			 M-152.5,127.8c-0.7,0-1.3-0.5-1.3-1.3s0.5-1.3,1.3-1.3s1.3,0.5,1.3,1.3S-151.8,127.8-152.5,127.8z"/>
		<path id="star3" d="M-155.6,117.7c-2.4,0-3.2-0.7-3.2-3.2c0-0.2-0.1-0.3-0.3-0.3s-0.3,0.1-0.3,0.3c0,2.4-0.8,3.2-3.2,3.2
			c-0.2,0-0.3,0.1-0.3,0.3s0.1,0.3,0.3,0.3c2.4,0,3.2,0.7,3.2,3.2c0,0.2,0.1,0.3,0.3,0.3s0.3-0.1,0.3-0.3c0-2.4,0.7-3.2,3.2-3.2
			c0.2,0,0.3-0.1,0.3-0.3C-155.3,117.8-155.5,117.7-155.6,117.7z M-159.1,119.5c-0.3-0.7-0.7-1.2-1.4-1.4c0.7-0.3,1.2-0.7,1.4-1.4
			c0.3,0.7,0.7,1.2,1.4,1.4C-158.4,118.3-158.9,118.7-159.1,119.5z"/>
		<path id="star2" d="M-176.9,105.6c-2,0-2.6-0.6-2.6-2.6c0-0.2-0.1-0.2-0.2-0.2c-0.2,0-0.2,0.1-0.2,0.2c0,2-0.6,2.6-2.6,2.6
			c-0.2,0-0.2,0.1-0.2,0.2c0,0.1,0.1,0.2,0.2,0.2c2,0,2.6,0.6,2.6,2.6c0,0.2,0.1,0.2,0.2,0.2c0.2,0,0.2-0.1,0.2-0.2
			c0-2,0.6-2.6,2.6-2.6c0.2,0,0.2-0.1,0.2-0.2C-176.7,105.6-176.9,105.6-176.9,105.6z M-179.7,107c-0.2-0.6-0.6-1-1.2-1.2
			c0.6-0.2,1-0.6,1.2-1.2c0.2,0.6,0.6,1,1.2,1.2C-179.2,106-179.6,106.4-179.7,107z"/>
		<path id="star1" d="M-196.1,130.5c-1.8,0-2.3-0.5-2.3-2.3c0-0.1-0.1-0.2-0.2-0.2s-0.2,0.1-0.2,0.2c0,1.8-0.5,2.3-2.3,2.3
			c-0.1,0-0.2,0.1-0.2,0.2s0.1,0.2,0.2,0.2c1.8,0,2.3,0.5,2.3,2.3c0,0.1,0.1,0.2,0.2,0.2s0.2-0.1,0.2-0.2c0-1.8,0.5-2.3,2.3-2.3
			c0.1,0,0.2-0.1,0.2-0.2S-196,130.5-196.1,130.5z M-198.6,131.7c-0.2-0.5-0.5-0.8-1.1-1c0.5-0.2,0.8-0.5,1.1-1.1
			c0.2,0.5,0.5,0.9,1,1.1C-198.2,130.9-198.5,131.2-198.6,131.7z"/>
	</g>
	<g>
		<path id="path4" class="st0" d="M-169.4,130.9c2.2,6.2,3.5,10.2,5.6,16.6"/>
		<path id="path5" class="st0" d="M-180.1,128.5c-0.4,6.2-0.6,10.4-0.8,16.6"/>
		<path id="path6" class="st0" d="M-193.6,136.1l13.2-2.3c0.1,0,0.3,0,0.4,0l12.5,2.3c0.1,0,0.3,0,0.4,0c4-0.8,6.5-1.5,10.5-2.2"/>
		<path id="path7" class="st0" d="M-195.8,142l15.1-2.5c0.1,0,0.2,0,0.3,0l14.7,2.3c0.1,0,0.2,0,0.3,0c4.4-0.8,8.5-1.6,12.9-2.3"/>
		<path id="path3" class="st0" d="M-177.9,128.9c-0.7-0.2-1.5-0.3-2.3-0.4c-3.8,0.7-7.7,1.5-11.4,2.3c-2.1,5.6-4.2,11.2-6.2,16.8
			c5.7-0.8,11.3-1.6,17-2.4c5.7,0.7,11.3,1.5,17,2.3c5.1-0.7,10.4-1.5,15.6-2.3c-4.1-5.6-8.2-10.9-12.3-16.6c-3,0.7-6,1.5-9,2.3
			c-0.6-0.2-1.2-0.3-1.8-0.5"/>
		<path id="path0" class="st0" d="M-171.3,130.3c-0.8,1.4-1.4,2.1-1.8,2.8c-0.5,0.9-1.4,0.9-1.9,0c-0.7-1-1.8-2.4-2.9-4.2"/>
		<path id="path2" class="st0" d="M-171.3,130.3c2.1-3.5,4.6-8.3,4.6-11.4c0-4-3.3-7.2-7.4-7.2s-7.4,3.4-7.4,7.3
			c0,2.8,1.8,6.6,3.6,9.9"/>
		<path id="path1" class="st0" d="M-174.3,114.8c2.5-0.2,4.7,1.9,4.7,4.7c0,2.3-1.9,4.3-4.2,4.4c-2.2,0.1-4.7-1.8-4.7-4.4
			S-176.8,114.9-174.3,114.8z"/>
	</g>
</g>
</svg>
