<?xml version="1.0" encoding="utf-8"?>
<!-- Generator: Adobe Illustrator 19.0.0, SVG Export Plug-In . SVG Version: 6.00 Build 0)  -->
<svg version="1.1" id="mobileOptimizationIcon" xmlns="http://www.w3.org/2000/svg" xmlns:xlink="http://www.w3.org/1999/xlink"
	 x="0px" y="0px" viewBox="-212 88 75 75" style="enable-background:new -212 88 75 75;" xml:space="preserve">
<style type="text/css">
	.st0{fill:none;stroke:#000000;stroke-width:1.17;stroke-linecap:round;stroke-linejoin:round;stroke-miterlimit:10;}
</style>
<g>
	<path id="path0" class="st0" d="M-167.3,111.6v-4.9c0-1.8-1.3-3.1-2.9-3.1H-188c-1.4,0-2.9,1.3-2.9,3.1v37.5c0,1.6,1.3,3.1,2.9,3.1
		h17.8c1.4,0,2.9-1.3,2.9-3.1v-3.8v-1.9"/>
	<path id="path5" class="st0" d="M-177,144.9h-4.1H-177z"/>
	<path id="path4" class="st0" d="M-167.3,108.9h-23.6"/>
	<path id="path3" class="st0" d="M-190.9,141.9h23.5"/>
	<path id="path2" class="st0" d="M-162.9,131.4c0.8-0.5,1.3-1.2,1.5-1.8l2,0.7l1.3-3.2l-2.1-1c0.2-0.8,0.4-1.8,0.1-2.5l1.9-0.9
		l-1.4-3.4l-1.9,0.9c-0.5-0.8-1.2-1.3-1.8-1.5l1-2.1l-3.2-1.3l-0.7,2c-0.8-0.2-1.7-0.1-2.5-0.1l-0.9-1.9l-3.4,1.4l0.9,1.9
		c-0.8,0.5-1.3,1.2-1.5,1.8l-2.1-1l-1.3,3.2l2.1,1c-0.2,0.8-0.4,1.8-0.1,2.5l-1.9,0.9l1.4,3.4l1.9-0.9c0.5,0.8,1.2,1.3,1.8,1.5
		l-1,2.1l3.2,1.3l0.7-2c0.8,0.2,1.7,0.1,2.5,0.1l0.9,1.9l3.4-1.4L-162.9,131.4z"/>
	<path id="path1" class="st0" d="M-169,120.9c2.2-0.8,4.9,0.4,5.7,2.7c0.8,2.2-0.4,4.8-2.7,5.6c-2.2,0.8-4.9-0.4-5.7-2.7
		C-172.5,124.1-171.3,121.9-169,120.9z"/>
	<path id="path6" class="st0" d="M-162.9,131.4c0.8-0.5,1.3-1.2,1.5-1.8l2,0.7l1.3-3.2l-2.1-1c0.2-0.8,0.4-1.8,0.1-2.5l1.9-0.9
		l-1.4-3.4l-1.9,0.9c-0.5-0.8-1.2-1.3-1.8-1.5l1-2.1l-3.2-1.3l-0.7,2c-0.8-0.2-1.7-0.1-2.5-0.1l-0.9-1.9l-3.4,1.4l0.9,1.9
		c-0.8,0.5-1.3,1.2-1.5,1.8l-2.1-1l-1.3,3.2l2.1,1c-0.2,0.8-0.4,1.8-0.1,2.5l-1.9,0.9l1.4,3.4l1.9-0.9c0.5,0.8,1.2,1.3,1.8,1.5
		l-1,2.1l3.2,1.3l0.7-2c0.8,0.2,1.7,0.1,2.5,0.1l0.9,1.9l3.4-1.4L-162.9,131.4z"/>
	<path id="path7" class="st0" d="M-169,120.9c2.2-0.8,4.9,0.4,5.7,2.7c0.8,2.2-0.4,4.8-2.7,5.6c-2.2,0.8-4.9-0.4-5.7-2.7
		C-172.5,124.1-171.3,121.9-169,120.9z"/>
</g>
<g id="stars">
	<path id="star4" d="M-200.7,117.1c-0.9,0-1.7,0.7-1.7,1.7s0.7,1.7,1.7,1.7s1.7-0.7,1.7-1.7S-199.8,117.1-200.7,117.1z
		 M-200.7,120.1c-0.7,0-1.3-0.5-1.3-1.3s0.5-1.3,1.3-1.3s1.3,0.5,1.3,1.3C-199.4,119.5-200,120.1-200.7,120.1z"/>
	<path id="star5" d="M-148.8,122.6c-1.3,0-2.2,1-2.2,2.2s1,2.2,2.2,2.2s2.2-1,2.2-2.2S-147.5,122.6-148.8,122.6z M-148.8,126.4
		c-0.9,0-1.6-0.7-1.6-1.6c0-0.9,0.7-1.6,1.6-1.6s1.6,0.7,1.6,1.6C-147.2,125.7-147.9,126.4-148.8,126.4z"/>
	<path id="star3" d="M-193.7,128.1c-2.4,0-3.2-0.7-3.2-3.2c0-0.2-0.1-0.3-0.3-0.3s-0.3,0.1-0.3,0.3c0,2.4-0.8,3.2-3.2,3.2
		c-0.2,0-0.3,0.1-0.3,0.3s0.1,0.3,0.3,0.3c2.4,0,3.2,0.7,3.2,3.2c0,0.2,0.1,0.3,0.3,0.3s0.3-0.1,0.3-0.3c0-2.4,0.7-3.2,3.2-3.2
		c0.2,0,0.3-0.1,0.3-0.3C-193.5,128.2-193.6,128.1-193.7,128.1z M-197.2,129.8c-0.3-0.7-0.7-1.2-1.4-1.4c0.7-0.3,1.2-0.7,1.4-1.4
		c0.3,0.7,0.7,1.2,1.4,1.4C-196.4,128.6-197,129.1-197.2,129.8z"/>
	<path id="star2" d="M-155.4,138.6c-2,0-2.6-0.6-2.6-2.6c0-0.2-0.1-0.2-0.2-0.2s-0.2,0.1-0.2,0.2c0,2-0.6,2.6-2.6,2.6
		c-0.2,0-0.2,0.1-0.2,0.2c0,0.2,0.1,0.2,0.2,0.2c2,0,2.6,0.6,2.6,2.6c0,0.2,0.1,0.2,0.2,0.2s0.2-0.1,0.2-0.2c0-2,0.6-2.6,2.6-2.6
		c0.1,0,0.2-0.1,0.2-0.2C-155.2,138.7-155.2,138.6-155.4,138.6z M-158.2,140c-0.2-0.6-0.6-1-1.2-1.2c0.6-0.2,1-0.6,1.2-1.2
		c0.2,0.6,0.6,1,1.2,1.2C-157.6,139.1-158.1,139.4-158.2,140z"/>
	<path id="star1" d="M-154.4,111.4c-1.5,0-2-0.4-2-2c0-0.1-0.1-0.2-0.2-0.2s-0.2,0.1-0.2,0.2c0,1.5-0.4,2-2,2
		c-0.1,0-0.2,0.1-0.2,0.2c0,0.1,0.1,0.2,0.2,0.2c1.5,0,2,0.5,2,2c0,0.1,0.1,0.2,0.2,0.2s0.2-0.1,0.2-0.2c0-1.5,0.4-2,2-2
		c0.1,0,0.2-0.1,0.2-0.2C-154.2,111.4-154.3,111.4-154.4,111.4z M-156.6,112.4c-0.2-0.4-0.4-0.6-0.9-0.8c0.4-0.2,0.7-0.4,0.9-0.8
		c0.2,0.4,0.5,0.6,0.8,0.8C-156.1,111.8-156.5,112.1-156.6,112.4z"/>
</g>
</svg>
