<?xml version="1.0" encoding="utf-8"?>
<!-- Generator: Adobe Illustrator 19.0.0, SVG Export Plug-In . SVG Version: 6.00 Build 0)  -->
<svg version="1.1" id="monitoringIcon" xmlns="http://www.w3.org/2000/svg" xmlns:xlink="http://www.w3.org/1999/xlink" x="0px"
	 y="0px" viewBox="-212 88 75 75" style="enable-background:new -212 88 75 75;" xml:space="preserve">
<style type="text/css">
	.st0{fill:none;stroke:#000000;stroke-width:1.17;stroke-linecap:round;stroke-linejoin:round;stroke-miterlimit:10;}
</style>
<g>
	<g>
		<path id="path0" class="st0" d="M-172.9,130.5c5-3.6,6-4.1,10.3-7.1"/>
		<path id="path1" class="st0" d="M-183.4,127.9c3.3,1.3,3.9,1.7,6.7,2.9"/>
		<path id="path4" class="st0" d="M-162.9,121.9c0.1-1,0.8-1.6,1.7-1.6c1,0,1.8,0.8,1.8,1.7c0.1,1-0.7,1.9-1.8,1.9
			C-162.2,123.9-163.1,123.1-162.9,121.9z"/>
		<path id="path2" class="st0" d="M-186.4,126.4c0.1-1,0.8-1.6,1.7-1.6c1,0,1.8,0.8,1.8,1.7c0.1,1-0.7,1.9-1.8,1.9
			C-185.6,128.3-186.4,127.5-186.4,126.4z"/>
		<path id="path6" class="st0" d="M-176.8,131.4c0.1-1,0.8-1.6,1.7-1.6c1,0,1.8,0.8,1.8,1.7c0.1,1-0.7,1.9-1.8,1.9
			C-175.9,133.4-176.9,132.6-176.8,131.4z"/>
		<path id="path7" class="st0" d="M-152.2,113.9h-41.6c-0.9,0-1.6,0.7-1.6,1.6v27c0,0.9,0.7,1.6,1.6,1.6h14.7
			c-0.3,2.9-1.2,3.6-2.9,5v1h17.3v-1c-1.9-1.2-2.8-1.9-2.9-5h15.6c0.9,0,1.6-0.7,1.6-1.6v-27C-150.4,114.7-151.2,113.9-152.2,113.9z
			"/>
		<path id="path5" class="st0" d="M-195.4,139.9c44.6,0,44.6,0,44.6,0"/>
		<path id="path3" class="st0" d="M-195.4,139.9c44.6,0,45,0,45,0"/>
	</g>
	<g id="stars_1_">
		<path id="star5" d="M-191.9,105.6c-1.2,0-2,0.9-2,2c0,1.2,0.9,2,2,2s2-0.9,2-2S-190.9,105.6-191.9,105.6z M-191.9,109
			c-0.8,0-1.4-0.6-1.4-1.4c0-0.8,0.6-1.4,1.4-1.4c0.6,0,1,0.3,1.3,0.8c0.2,0.4,0.2,1-0.1,1.4C-191,108.8-191.4,109-191.9,109z"/>
		<path id="star4" d="M-144.9,121.4c-0.8,0-1.7,0.7-1.7,1.7s0.8,1.7,1.7,1.7s1.7-0.5,1.7-1.7C-143.2,121.9-144.1,121.4-144.9,121.4z
			 M-145,124.4c-0.7,0-1.2-0.6-1.2-1.3s0.6-1.3,1.2-1.3c0.7,0,1.4,0.4,1.4,1.4C-143.6,123.9-144.3,124.4-145,124.4z"/>
		<path id="star3" d="M-159.2,103.9c-2.4,0-3.2-0.7-3.2-3.2c0-0.2-0.1-0.3-0.3-0.3c-0.2,0-0.3,0.1-0.3,0.3c0,2.4-0.8,3.2-3.2,3.2
			c-0.2,0-0.3,0.1-0.3,0.3s0.1,0.3,0.3,0.3c2.4,0,3.2,0.7,3.2,3.2c0,0.2,0.1,0.3,0.3,0.3c0.2,0,0.3-0.1,0.3-0.3
			c0-2.4,0.7-3.2,3.2-3.2c0.2,0,0.3-0.1,0.3-0.3C-158.9,104-159.2,103.9-159.2,103.9z M-162.8,105.6c-0.3-0.7-0.7-1.2-1.4-1.4
			c0.7-0.3,1.2-0.7,1.4-1.4c0.3,0.7,0.7,1.2,1.4,1.4C-162,104.4-162.5,105-162.8,105.6z"/>
		<path id="star2" d="M-199.9,117.5c-2,0-2.6-0.6-2.6-2.6c0-0.2-0.1-0.2-0.2-0.2c-0.2,0-0.2,0.1-0.2,0.2c0,2-0.6,2.6-2.6,2.6
			c-0.2,0-0.2,0.1-0.2,0.2s0.1,0.2,0.2,0.2c2,0,2.6,0.6,2.6,2.6c0,0.2,0.1,0.2,0.2,0.2c0.2,0,0.2-0.1,0.2-0.2c0-2,0.6-2.6,2.6-2.6
			c0.1,0,0.2-0.1,0.2-0.2C-199.8,117.5-199.9,117.5-199.9,117.5z M-202.8,118.9c-0.2-0.6-0.6-1-1.2-1.2c0.6-0.2,1-0.6,1.2-1.2
			c0.2,0.6,0.6,1,1.2,1.2C-202,117.9-202.4,118.2-202.8,118.9z"/>
		<path id="star1" d="M-150.2,107.5c-1.8,0-2.3-0.5-2.3-2.3c0-0.1-0.1-0.2-0.2-0.2s-0.2,0.1-0.2,0.2c0,1.8-0.5,2.3-2.3,2.3
			c-0.1,0-0.2,0.1-0.2,0.2s0.1,0.2,0.2,0.2c1.8,0,2.3,0.5,2.3,2.3c0,0.1,0.1,0.2,0.2,0.2s0.2-0.1,0.2-0.2c0-1.8,0.5-2.3,2.3-2.3
			c0.1,0,0.2-0.1,0.2-0.2C-150,107.5-150.2,107.5-150.2,107.5z M-152.8,108.7c-0.2-0.5-0.5-0.8-1.1-1c0.5-0.2,0.8-0.5,1.1-1.1
			c0.2,0.5,0.5,0.9,1,1.1C-152.3,107.9-152.6,108.3-152.8,108.7z"/>
	</g>
</g>
</svg>
