<?xml version="1.0" encoding="utf-8"?>
<!-- Generator: Adobe Illustrator 18.1.1, SVG Export Plug-In . SVG Version: 6.00 Build 0)  -->
<!DOCTYPE svg PUBLIC "-//W3C//DTD SVG 1.1//EN" "http://www.w3.org/Graphics/SVG/1.1/DTD/svg11.dtd">
<svg version="1.1" id="networkIcon" xmlns="http://www.w3.org/2000/svg" xmlns:xlink="http://www.w3.org/1999/xlink" x="0px"
	 y="0px" width="75px" height="75px" viewBox="0 0 75 75" enable-background="new 0 0 75 75" xml:space="preserve">
<g id="computer0">
	<polygon fill="#A7A9AC" points="39.8,21 35.7,21 35.4,24.7 40.2,24.7 	"/>
	<rect x="34.5" y="24.5" fill="#A7A9AC" width="6.5" height="0.8"/>
	<polygon fill="#F1F2F2" points="39.8,20.9 35.7,20.9 35.4,24.6 40.2,24.6 	"/>
	<rect x="34.6" y="24.5" fill="#D1D3D4" width="6.5" height="0.8"/>
	<polygon fill="#E6E7E8" points="40,23.1 39.8,20.9 35.8,20.9 35.5,23.7 	"/>
	<path fill="#939598" d="M46,21.3v-7.9c0-0.4-0.3-0.7-0.7-0.7H30.2c-0.4,0-0.7,0.3-0.7,0.7v7.9c0,0.3,0,0.6,0,0.6V22h0
		c0,0.4,0.4,0.8,0.8,0.8h14.8c0.5,0,0.8-0.4,0.8-0.8h0v-0.1C46,21.9,46,21.6,46,21.3z"/>
	<path fill="#F2F2F2" d="M46.1,21.2v-7.9c0-0.4-0.3-0.7-0.7-0.7H30.3c-0.4,0-0.7,0.3-0.7,0.7v7.9c0,0.3,0,0.6,0,0.6v0.1h0
		c0,0.4,0.4,0.8,0.8,0.8h14.8c0.5,0,0.8-0.4,0.8-0.8h0v-0.1C46.1,21.8,46.1,21.6,46.1,21.2z"/>
	<path fill="#353C4F" d="M45.7,13.6c0-0.3-0.2-0.6-0.5-0.6H30.5c-0.3,0-0.5,0.3-0.5,0.6v7.6c0,0.3,0,0.6,0,0.6l15.7,0
		c0,0,0-0.3,0-0.6V13.6z"/>
	<rect x="30.4" y="13.6" fill="#E58553" width="14.9" height="7.8"/>
	<path opacity="0.3" fill="#FFFFFF" d="M41.7,12.7H30.3c-0.4,0-0.7,0.3-0.7,0.7l0,8.7L41.7,12.7z"/>
</g>
<g id="computer1">
	<polygon fill="#A7A9AC" points="26.6,38.7 22.5,38.7 22.2,42.4 27,42.4 	"/>
	<rect x="21.4" y="42.2" fill="#A7A9AC" width="6.5" height="0.8"/>
	<polygon fill="#F1F2F2" points="26.6,38.6 22.6,38.6 22.3,42.3 27.1,42.3 	"/>
	<rect x="21.4" y="42.2" fill="#D1D3D4" width="6.5" height="0.8"/>
	<polygon fill="#E6E7E8" points="26.9,40.8 26.7,38.6 22.6,38.6 22.4,41.4 	"/>
	<path fill="#939598" d="M32.9,39v-7.9c0-0.4-0.3-0.7-0.7-0.7H17.1c-0.4,0-0.7,0.3-0.7,0.7V39c0,0.3,0,0.6,0,0.6v0.1h0
		c0,0.4,0.4,0.8,0.8,0.8H32c0.5,0,0.8-0.4,0.8-0.8h0v-0.1C32.9,39.6,32.9,39.3,32.9,39z"/>
	<path fill="#F2F2F2" d="M32.9,38.9V31c0-0.4-0.3-0.7-0.7-0.7H17.1c-0.4,0-0.7,0.3-0.7,0.7v7.9c0,0.3,0,0.6,0,0.6v0.1h0
		c0,0.4,0.4,0.8,0.8,0.8h14.8c0.5,0,0.8-0.4,0.8-0.8h0v-0.1C32.9,39.5,32.9,39.3,32.9,38.9z"/>
	<path fill="#353C4F" d="M32.5,31.3c0-0.3-0.2-0.6-0.5-0.6H17.4c-0.3,0-0.5,0.3-0.5,0.6V39c0,0.3,0,0.6,0,0.6l15.7,0
		c0,0,0-0.3,0-0.6V31.3z"/>
	<rect x="17.3" y="31.3" fill="#E58553" width="14.9" height="7.8"/>
	<path opacity="0.3" fill="#FFFFFF" d="M28.6,30.4H17.1c-0.4,0-0.7,0.3-0.7,0.7l0,8.7L28.6,30.4z"/>
</g>
<g id="computer2">
	<polygon fill="#A7A9AC" points="52.6,38.7 48.6,38.7 48.3,42.4 53,42.4 	"/>
	<rect x="47.4" y="42.2" fill="#A7A9AC" width="6.5" height="0.8"/>
	<polygon fill="#F1F2F2" points="52.7,38.6 48.6,38.6 48.3,42.3 53.1,42.3 	"/>
	<rect x="47.5" y="42.2" fill="#D1D3D4" width="6.5" height="0.8"/>
	<polygon fill="#E6E7E8" points="52.9,40.8 52.7,38.6 48.6,38.6 48.4,41.4 	"/>
	<path fill="#939598" d="M58.9,39v-7.9c0-0.4-0.3-0.7-0.7-0.7H43.1c-0.4,0-0.7,0.3-0.7,0.7V39c0,0.3,0,0.6,0,0.6v0.1h0
		c0,0.4,0.4,0.8,0.8,0.8h14.8c0.5,0,0.8-0.4,0.8-0.8l0,0v-0.1C58.9,39.6,58.9,39.3,58.9,39z"/>
	<path fill="#F2F2F2" d="M59,38.9V31c0-0.4-0.3-0.7-0.7-0.7H43.2c-0.4,0-0.7,0.3-0.7,0.7v7.9c0,0.3,0,0.6,0,0.6v0.1h0
		c0,0.4,0.4,0.8,0.8,0.8h14.8c0.5,0,0.8-0.4,0.8-0.8h0v-0.1C59,39.5,59,39.3,59,38.9z"/>
	<path fill="#353C4F" d="M58.6,31.3c0-0.3-0.2-0.6-0.5-0.6H43.4c-0.3,0-0.5,0.3-0.5,0.6V39c0,0.3,0,0.6,0,0.6l15.7,0
		c0,0,0-0.3,0-0.6V31.3z"/>
	<rect x="43.3" y="31.3" fill="#E58553" width="14.9" height="7.8"/>
	<path opacity="0.3" fill="#FFFFFF" d="M54.6,30.4H43.2c-0.4,0-0.7,0.3-0.7,0.7l0,8.7L54.6,30.4z"/>
</g>
<g id="computer3">
	<polygon fill="#A7A9AC" points="13,58 9,58 8.6,61.7 13.4,61.7 	"/>
	<rect x="7.8" y="61.6" fill="#A7A9AC" width="6.5" height="0.8"/>
	<polygon fill="#F1F2F2" points="13.1,57.9 9,57.9 8.7,61.7 13.5,61.7 	"/>
	<rect x="7.8" y="61.5" fill="#D1D3D4" width="6.5" height="0.8"/>
	<polygon fill="#E6E7E8" points="13.3,60.2 13.1,57.9 9,57.9 8.8,60.7 	"/>
	<path fill="#939598" d="M19.3,58.3v-7.9c0-0.4-0.3-0.7-0.7-0.7H3.5c-0.4,0-0.7,0.3-0.7,0.7v7.9c0,0.3,0,0.6,0,0.6V59h0
		c0,0.4,0.4,0.8,0.8,0.8h14.8c0.5,0,0.8-0.4,0.8-0.8h0v-0.1C19.3,58.9,19.3,58.6,19.3,58.3z"/>
	<path fill="#F2F2F2" d="M19.3,58.3v-7.9c0-0.4-0.3-0.7-0.7-0.7H3.5c-0.4,0-0.7,0.3-0.7,0.7v7.9c0,0.3,0,0.6,0,0.6v0.1h0
		c0,0.4,0.4,0.8,0.8,0.8h14.8c0.5,0,0.8-0.4,0.8-0.8h0v-0.1C19.3,58.8,19.3,58.6,19.3,58.3z"/>
	<path fill="#353C4F" d="M19,50.7c0-0.3-0.2-0.6-0.5-0.6H3.8c-0.3,0-0.5,0.3-0.5,0.6v7.6c0,0.3,0,0.6,0,0.6l15.7,0c0,0,0-0.3,0-0.6
		V50.7z"/>
	<rect x="3.7" y="50.6" fill="#E58553" width="14.9" height="7.8"/>
	<path opacity="0.3" fill="#FFFFFF" d="M15,49.7H3.5c-0.4,0-0.7,0.3-0.7,0.7l0,8.7L15,49.7z"/>
</g>
<g id="computer4">
	<polygon fill="#A7A9AC" points="39.4,58 35.4,58 35.1,61.7 39.9,61.7 	"/>
	<rect x="34.2" y="61.6" fill="#A7A9AC" width="6.5" height="0.8"/>
	<polygon fill="#F1F2F2" points="39.5,57.9 35.4,57.9 35.1,61.7 39.9,61.7 	"/>
	<rect x="34.3" y="61.5" fill="#D1D3D4" width="6.5" height="0.8"/>
	<polygon fill="#E6E7E8" points="39.7,60.2 39.5,57.9 35.4,57.9 35.2,60.7 	"/>
	<path fill="#939598" d="M45.7,58.3v-7.9c0-0.4-0.3-0.7-0.7-0.7H29.9c-0.4,0-0.7,0.3-0.7,0.7v7.9c0,0.3,0,0.6,0,0.6V59h0
		c0,0.4,0.4,0.8,0.8,0.8h14.8c0.5,0,0.8-0.4,0.8-0.8h0v-0.1C45.7,58.9,45.7,58.6,45.7,58.3z"/>
	<path fill="#F2F2F2" d="M45.8,58.3v-7.9c0-0.4-0.3-0.7-0.7-0.7H30c-0.4,0-0.7,0.3-0.7,0.7v7.9c0,0.3,0,0.6,0,0.6v0.1h0
		c0,0.4,0.4,0.8,0.8,0.8h14.8c0.5,0,0.8-0.4,0.8-0.8h0v-0.1C45.8,58.8,45.8,58.6,45.8,58.3z"/>
	<path fill="#353C4F" d="M45.4,50.7c0-0.3-0.2-0.6-0.5-0.6H30.2c-0.3,0-0.5,0.3-0.5,0.6v7.6c0,0.3,0,0.6,0,0.6l15.7,0
		c0,0,0-0.3,0-0.6V50.7z"/>
	<rect x="30.1" y="50.6" fill="#E58553" width="14.9" height="7.8"/>
	<path opacity="0.3" fill="#FFFFFF" d="M41.4,49.7H30c-0.4,0-0.7,0.3-0.7,0.7l0,8.7L41.4,49.7z"/>
</g>
<g id="computer5">
	<polygon fill="#A7A9AC" points="65.9,58 61.8,58 61.5,61.7 66.3,61.7 	"/>
	<rect x="60.6" y="61.6" fill="#A7A9AC" width="6.5" height="0.8"/>
	<polygon fill="#F1F2F2" points="65.9,57.9 61.8,57.9 61.5,61.7 66.3,61.7 	"/>
	<rect x="60.7" y="61.5" fill="#D1D3D4" width="6.5" height="0.8"/>
	<polygon fill="#E6E7E8" points="66.1,60.2 65.9,57.9 61.9,57.9 61.6,60.7 	"/>
	<path fill="#939598" d="M72.1,58.3v-7.9c0-0.4-0.3-0.7-0.7-0.7H56.3c-0.4,0-0.7,0.3-0.7,0.7v7.9c0,0.3,0,0.6,0,0.6V59h0
		c0,0.4,0.4,0.8,0.8,0.8h14.8c0.5,0,0.8-0.4,0.8-0.8h0v-0.1C72.1,58.9,72.1,58.6,72.1,58.3z"/>
	<path fill="#F2F2F2" d="M72.2,58.3v-7.9c0-0.4-0.3-0.7-0.7-0.7H56.4c-0.4,0-0.7,0.3-0.7,0.7v7.9c0,0.3,0,0.6,0,0.6v0.1h0
		c0,0.4,0.4,0.8,0.8,0.8h14.8c0.5,0,0.8-0.4,0.8-0.8h0v-0.1C72.2,58.8,72.2,58.6,72.2,58.3z"/>
	<path fill="#353C4F" d="M71.8,50.7c0-0.3-0.2-0.6-0.5-0.6H56.6c-0.3,0-0.5,0.3-0.5,0.6v7.6c0,0.3,0,0.6,0,0.6l15.7,0
		c0,0,0-0.3,0-0.6V50.7z"/>
	<rect x="56.5" y="50.6" fill="#E58553" width="14.9" height="7.8"/>
	<path opacity="0.3" fill="#FFFFFF" d="M67.8,49.7H56.4c-0.4,0-0.7,0.3-0.7,0.7l0,8.7L67.8,49.7z"/>
</g>
<path id="link0" fill="#FFFFFF" d="M25,29.5h-0.5V18.3c0-0.7,0.5-1.2,1.2-1.2h3v0.5h-3c-0.4,0-0.7,0.3-0.7,0.7V29.5z"/>
<path id="link1" fill="#FFFFFF" d="M51,29.5h-0.5V18.3c0-0.4-0.3-0.7-0.7-0.7h-3v-0.5h3c0.7,0,1.2,0.5,1.2,1.2V29.5z"/>
<path id="link2" fill="#FFFFFF" d="M11.8,47.5h-0.5V36.2c0-0.7,0.5-1.2,1.2-1.2h3v0.5h-3c-0.4,0-0.7,0.3-0.7,0.7V47.5z"/>
<path id="link3" fill="#FFFFFF" d="M38.2,35c-0.4,0-0.7,0.2-0.9,0.5c-0.2-0.3-0.5-0.5-0.9-0.5h-3v0.5h3c0.4,0,0.7,0.3,0.7,0.6
	c0,0,0,0.1,0,0.1v11.2h0h0.4h0V36.2c0,0,0-0.1,0-0.1c0-0.4,0.3-0.6,0.7-0.6h3V35H38.2z"/>
<path id="link4" fill="#FFFFFF" d="M64.1,47.5h-0.5V36.2c0-0.4-0.3-0.7-0.7-0.7h-3V35h3c0.7,0,1.2,0.5,1.2,1.2V47.5z"/>

</svg>
