<?xml version="1.0" encoding="utf-8"?>
<!-- Generator: Adobe Illustrator 19.0.0, SVG Export Plug-In . SVG Version: 6.00 Build 0)  -->
<svg version="1.1" id="pageSpeedIcon" xmlns="http://www.w3.org/2000/svg" xmlns:xlink="http://www.w3.org/1999/xlink" x="0px"
	 y="0px" viewBox="-212 88 75 75" style="enable-background:new -212 88 75 75;" xml:space="preserve">
<style type="text/css">
	.st0{fill:none;stroke:#000000;stroke-width:1.17;stroke-linecap:round;stroke-linejoin:round;stroke-miterlimit:10;}
</style>
<g>
	<path id="path1" class="st0" d="M-195.8,112.7c0.5,0,0.5,0,0.5,0"/>
	<path id="path0" class="st0" d="M-198.5,112.7c0.5,0,0.5,0,0.5,0"/>
	<path id="path4" class="st0" d="M-197.1,132.8h12.8 M-184.1,135H-197 M-189.6,137.1h-7.5"/>
	<path id="path5" class="st0" d="M-201.1,114.7c26.4,0,22.2,0,22.2,0"/>
	<path id="path7" class="st0" d="M-173.6,140.1c-9.2,0-15.9,0-25,0c-1.3,0-2.5-0.5-2.5-2.6c0-7.6,0-17.4,0-25c0-0.1,0-1,0.6-1.6
		c0.6-0.4,1.5-0.4,1.5-0.4c9.3,0,15.7,0,25.1,0"/>
	<path id="path3" class="st0" d="M-193.2,112.7c0.4,0,0.5,0,0.5,0"/>
	<path id="path6" class="st0" d="M-201.1,129.1c22.7,0-2.8,0,20,0H-201.1z"/>
	<path id="path2" class="st0" d="M-162.8,110.7c8.1,0,14.9,6.6,14.9,14.9c0,8.1-6.6,14.9-14.9,14.9s-15-6.6-15-14.9
		S-171.1,110.7-162.8,110.7z M-168.4,130.6l-2.8,2.5c-1.8-2-3-4.7-3-7.7c0-6.3,5.1-11.3,11.3-11.3c6.3,0,11.3,5,11.3,11.3
		c0,2.9-1.1,5.4-2.7,7.3l-2.6-2.1 M-162.9,114.2v2.9 M-174.1,125.2h3.3 M-155.1,125.2h3.5 M-171.1,117.8l2,1.9 M-154.8,117.6
		l-2.2,2.2 M-159.4,128.6l-2.5-2.1 M-162.9,123.8c0.9,0,1.5,0.6,1.5,1.5s-0.6,1.5-1.5,1.5s-1.5-0.6-1.5-1.5
		S-163.8,123.8-162.9,123.8z M-161.4,125.3c0,0.3-0.1,0.6-0.3,0.9c-0.2,0.3-0.6,0.5-1.1,0.6c-0.4,0-0.8-0.1-1.1-0.4
		c-0.7-0.6-0.6-1.7,0-2.3c0.3-0.2,0.6-0.3,1-0.3C-162.1,123.8-161.4,124.5-161.4,125.3z"/>
</g>
<g id="stars_1_">
	<path id="star5" d="M-192.6,102.7c-1.3,0-2.2,1-2.2,2.2c0,1.3,1,2.2,2.2,2.2c1.3,0,2.2-1,2.2-2.2S-191.5,102.7-192.6,102.7z
		 M-192.6,106.5c-0.9,0-1.6-0.7-1.6-1.6c0-0.9,0.7-1.6,1.6-1.6s1.6,0.7,1.6,1.6S-191.7,106.5-192.6,106.5z"/>
	<path id="star4" d="M-169.8,143.2c-0.9,0-1.7,0.7-1.7,1.7s0.7,1.7,1.7,1.7s1.7-0.7,1.7-1.7C-168.1,143.8-169,143.2-169.8,143.2z
		 M-169.8,146.2c-0.7,0-1.3-0.5-1.3-1.3s0.5-1.3,1.3-1.3c0.7,0,1.3,0.5,1.3,1.3S-169.2,146.2-169.8,146.2z"/>
	<path id="star3" d="M-172.1,104.5c-2.4,0-3.1-0.7-3.1-3.2c0-0.2-0.1-0.3-0.3-0.3s-0.3,0.1-0.3,0.3c0,2.4-0.8,3.2-3.2,3.2
		c-0.2,0-0.3,0.1-0.3,0.3s0.1,0.3,0.3,0.3c2.4,0,3.2,0.7,3.2,3.2c0,0.2,0.1,0.3,0.3,0.3s0.3-0.1,0.3-0.3c0-2.4,0.6-3.2,3.1-3.2
		c0.2,0,0.4-0.1,0.4-0.3S-171.9,104.5-172.1,104.5z M-175.5,106.1c-0.3-0.7-0.7-1.2-1.4-1.4c0.7-0.3,1.2-0.7,1.4-1.4
		c0.3,0.7,0.7,1.2,1.4,1.4C-174.6,104.9-175.2,105.4-175.5,106.1z"/>
	<path id="star2" d="M-154.4,106.3c-2,0-2.6-0.6-2.6-2.6c0-0.2-0.1-0.2-0.2-0.2c-0.2,0-0.2,0.1-0.2,0.2c0,2-0.6,2.6-2.6,2.6
		c-0.2,0-0.2,0.1-0.2,0.2s0.1,0.2,0.2,0.2c2,0,2.6,0.6,2.6,2.6c0,0.2,0.1,0.2,0.2,0.2c0.2,0,0.2-0.1,0.2-0.2c0-2,0.6-2.6,2.6-2.6
		c0.2,0,0.2-0.1,0.2-0.2S-154.2,106.3-154.4,106.3z M-157.2,107.7c-0.2-0.6-0.6-1-1.2-1.2c0.6-0.2,1-0.6,1.2-1.2
		c0.2,0.6,0.6,1,1.2,1.2C-156.5,106.7-156.9,107.1-157.2,107.7z"/>
	<path id="star1" d="M-180.6,147.1c-1.8,0-2.3-0.5-2.3-2.3c0-0.1-0.1-0.2-0.2-0.2s-0.2,0.1-0.2,0.2c0,1.8-0.5,2.3-2.3,2.3
		c-0.1,0-0.2,0.1-0.2,0.2s0.1,0.2,0.2,0.2c1.8,0,2.3,0.5,2.3,2.3c0,0.1,0.1,0.2,0.2,0.2s0.2-0.1,0.2-0.2c0-1.8,0.5-2.3,2.3-2.3
		c0.1,0,0.2-0.1,0.2-0.2C-180.4,147.2-180.5,147.1-180.6,147.1z M-183.1,148.4c-0.2-0.5-0.5-0.8-1.1-1c0.5-0.2,0.8-0.5,1.1-1.1
		c0.2,0.5,0.5,0.9,1,1.1C-182.6,147.5-182.9,147.9-183.1,148.4z"/>
</g>
</svg>
