<?xml version="1.0" encoding="utf-8"?>
<!-- Generator: Adobe Illustrator 19.0.0, SVG Export Plug-In . SVG Version: 6.00 Build 0)  -->
<svg version="1.1" id="payperClickIcon" xmlns="http://www.w3.org/2000/svg" xmlns:xlink="http://www.w3.org/1999/xlink" x="0px"
	 y="0px" viewBox="-212 88 75 75" style="enable-background:new -212 88 75 75;" xml:space="preserve">
<style type="text/css">
	.st0{fill:none;stroke:#000000;stroke-width:1.17;stroke-linecap:round;stroke-linejoin:round;stroke-miterlimit:10;}
</style>
<g>
	<g>
		<path id="path2" class="st0" d="M-152.1,149.5l-2.5-2.5l2.1-2.1c0.1-0.1,0.1-0.2,0.1-0.3l0,0c0,0,0-0.1-0.1-0.1
			c0,0-0.1-0.1-0.2-0.1l-9.5-3.4c-0.1,0-0.2,0-0.2,0.1c-0.1,0.1-0.1,0.2-0.1,0.2l3.4,9.6c0,0.1,0.1,0.2,0.2,0.2s0.2,0,0.3-0.1
			l2.1-2.1l2.5,2.6"/>
		<path id="path3" class="st0" d="M-168.3,139.4c-1.8,0.7-3.6,1.2-5.6,1.2c-7.5,0-13.5-6.2-13.5-13.5c0-7.4,6.2-13.5,13.5-13.5
			c7.3,0,13.5,6.2,13.5,13.6c0,3.2-1.1,6.2-2.9,8.4"/>
		<path id="path4" class="st0" d="M-158,139.4c2.6-3.3,4.1-7.7,4.1-12.3c0-11-8.9-20-20-20c-11,0-19.9,8.8-19.9,20s8.9,20,19.9,20
			c3.2,0,6.5-0.8,9.3-2.2"/>
		<path id="path7" class="st0" d="M-173.7,136.6c0-0.5,0-2.4,0-3.6 M-173.7,117.7c0,1,0,2.4,0,3.3"/>
		<path id="path5" class="st0" d="M-173.7,121c1.9,0,4.1,0.7,4.3,3C-169.6,121.7-171.8,121-173.7,121c-1.3,0-2.6,0.7-3.2,2
			c-0.6,1.4,0.3,2.6,1.5,3.2c0.9,0.4,1.9,0.7,2.9,1c1.6,0.5,3.2,1,3.2,2.9c0,1-0.4,1.5-1,2.1c-0.7,0.6-1.7,0.8-2.9,0.8
			c-0.7,0-2.4-0.4-3.1-1.1c-0.8-0.6-1.2-1.9-1.2-2.3c0,0,0,3,4.3,3.4"/>
		<path id="path6" class="st0" d="M-168.2,142.2c3.4,0.1,2.7,0.1,2.7,0.1"/>
		<path id="path1" class="st0" d="M-160.9,136.5c0-0.1,0-0.6,0.1,2.3"/>
		<path id="path0" class="st0" d="M-165.8,137.7c-0.1-0.1-0.4-0.5,1.5,1.8"/>
	</g>
	<g id="stars_1_">
		<path id="star5" d="M-195.3,108c-1.3,0-2.2,1-2.2,2.2c0,1.3,1,2.2,2.2,2.2c1.3,0,2.2-1,2.2-2.2S-194.1,108-195.3,108z
			 M-195.3,111.8c-0.9,0-1.6-0.7-1.6-1.6s0.7-1.6,1.6-1.6c0.9,0,1.6,0.7,1.6,1.6S-194.4,111.8-195.3,111.8z"/>
		<path id="star4" d="M-149.3,125.4c-0.9,0-1.7,0.7-1.7,1.7c0,1,0.7,1.7,1.7,1.7s1.7-0.7,1.7-1.7
			C-147.6,126.1-148.4,125.4-149.3,125.4z M-149.3,128.4c-0.7,0-1.3-0.5-1.3-1.3s0.5-1.3,1.3-1.3c0.7,0,1.3,0.5,1.3,1.3
			S-148.7,128.4-149.3,128.4z"/>
		<path id="star3" d="M-152.5,108.5c-2.4,0-3.2-0.7-3.2-3.2c0-0.2-0.1-0.3-0.3-0.3c-0.2,0-0.3,0.1-0.3,0.3c0,2.4-0.8,3.2-3.2,3.2
			c-0.2,0-0.3,0.1-0.3,0.3s0.1,0.3,0.3,0.3c2.4,0,3.2,0.7,3.2,3.2c0,0.2,0.1,0.3,0.3,0.3c0.2,0,0.3-0.1,0.3-0.3
			c0-2.4,0.7-3.2,3.2-3.2c0.2,0,0.3-0.1,0.3-0.3C-152.3,108.6-152.5,108.5-152.5,108.5z M-156,110.2c-0.3-0.7-0.7-1.2-1.4-1.4
			c0.7-0.3,1.2-0.7,1.4-1.4c0.3,0.7,0.7,1.2,1.4,1.4C-155.3,109-155.9,109.4-156,110.2z"/>
		<path id="star2" d="M-195.6,120.1c-2,0-2.6-0.6-2.6-2.6c0-0.2-0.1-0.2-0.2-0.2c-0.2,0-0.2,0.1-0.2,0.2c0,2-0.6,2.6-2.6,2.6
			c-0.2,0-0.2,0.1-0.2,0.2s0.1,0.2,0.2,0.2c2,0,2.6,0.6,2.6,2.6c0,0.2,0.1,0.2,0.2,0.2c0.2,0,0.2-0.1,0.2-0.2c0-2,0.6-2.6,2.6-2.6
			c0.2,0,0.2-0.1,0.2-0.2S-195.5,120.1-195.6,120.1z M-198.4,121.5c-0.2-0.6-0.6-1-1.2-1.2c0.6-0.2,1-0.6,1.2-1.2
			c0.2,0.6,0.6,1,1.2,1.2C-197.8,120.5-198.2,120.9-198.4,121.5z"/>
		<path id="star1" d="M-174.9,101.4c-1.8,0-2.3-0.5-2.3-2.3c0-0.1-0.1-0.2-0.2-0.2s-0.2,0.1-0.2,0.2c0,1.8-0.5,2.3-2.3,2.3
			c-0.1,0-0.2,0.1-0.2,0.2s0.1,0.2,0.2,0.2c1.8,0,2.3,0.5,2.3,2.3c0,0.1,0.1,0.2,0.2,0.2c0.1,0,0.2-0.1,0.2-0.2
			c0-1.8,0.5-2.3,2.3-2.3c0.1,0,0.2-0.1,0.2-0.2S-174.8,101.4-174.9,101.4z M-177.4,102.6c-0.2-0.5-0.5-0.8-1.1-1
			c0.5-0.2,0.8-0.5,1.1-1.1c0.2,0.5,0.5,0.9,1,1.1C-176.9,101.8-177.3,102.2-177.4,102.6z"/>
	</g>
</g>
</svg>
