<?xml version="1.0" encoding="utf-8"?>
<!-- Generator: Adobe Illustrator 18.1.1, SVG Export Plug-In . SVG Version: 6.00 Build 0)  -->
<!DOCTYPE svg PUBLIC "-//W3C//DTD SVG 1.1//EN" "http://www.w3.org/Graphics/SVG/1.1/DTD/svg11.dtd">
<svg version="1.1" id="ppcIcon" xmlns="http://www.w3.org/2000/svg" xmlns:xlink="http://www.w3.org/1999/xlink" x="0px" y="0px"
	 width="75px" height="75px" viewBox="0 0 75 75" enable-background="new 0 0 75 75" xml:space="preserve">
<g>
	<defs>
		<rect id="websiteMask1988" x="12" y="20.4" width="53.8" height="34"/>
	</defs>
	<clipPath id="websiteMask1988_1_">
		<use xlink:href="#websiteMask1988"  overflow="visible"/>
	</clipPath>
	<g clip-path="url(#websiteMask1988_1_)">
		<g id="website" >
			<polygon id="background" fill="#FFFFFF" points="65.5,54.7 12,54.7 12,20.4 61.4,20.4 65.6,25 		"/>
			<g id="header">
				<polygon fill="#92D9DD" points="64.3,23.7 12,23.7 12,20.4 61.4,20.4 			"/>
				<circle fill="#FFFFFF" cx="14.3" cy="21.8" r="0.6"/>
				<circle fill="#FFFFFF" cx="16.9" cy="21.8" r="0.6"/>
				<circle fill="#FFFFFF" cx="19.5" cy="21.8" r="0.6"/>
				<rect x="21.5" y="21.3" fill="#FFFFFF" width="40.4" height="1.2"/>
			</g>
			<rect id="webpageImage" x="15.7" y="32.3" fill="#E58553" width="15.8" height="15.8"/>
			<g id="textAll">
				<rect id="text0" x="15.7" y="28" fill="#92D9DD" width="14.4" height="1.3"/>
				<rect id="text1" x="31.5" y="28" fill="#92D9DD" width="7.2" height="1.3"/>
				<rect id="text2" x="40.2" y="28" fill="#92D9DD" width="15.4" height="1.3"/>
				<rect id="text3" x="33" y="32.3" fill="#D1D3D4" width="12.1" height="1.1"/>
				<rect id="text4" x="45.9" y="32.3" fill="#D1D3D4" width="1.9" height="1.1"/>
				<rect id="text5" x="49" y="32.3" fill="#D1D3D4" width="13.3" height="1.1"/>
				<rect id="text6" x="33" y="34.3" fill="#D1D3D4" width="8.9" height="1.1"/>
				<rect id="text7" x="43.6" y="34.3" fill="#D1D3D4" width="13.2" height="1.1"/>
				<rect id="text8" x="57.3" y="34.3" fill="#D1D3D4" width="5" height="1.1"/>
				<rect id="text9" x="33" y="36.4" fill="#D1D3D4" width="5.7" height="1.1"/>
				<rect id="text10" x="41.2" y="36.4" fill="#D1D3D4" width="6.7" height="1.1"/>
				<rect id="text11" x="49" y="36.4" fill="#D1D3D4" width="13.3" height="1.1"/>
				<rect id="text12" x="33" y="38.4" fill="#D1D3D4" width="3" height="1.1"/>
				<rect id="text13" x="36.8" y="38.4" fill="#D1D3D4" width="11" height="1.1"/>
				<rect id="text14" x="49" y="38.4" fill="#D1D3D4" width="13.3" height="1.1"/>
				<rect id="text15" x="33" y="40.5" fill="#D1D3D4" width="12.1" height="1.1"/>
				<rect id="text16" x="45.9" y="40.5" fill="#D1D3D4" width="12.3" height="1.1"/>
				<rect id="text17" x="59" y="40.5" fill="#D1D3D4" width="3.3" height="1.1"/>
				<rect id="text18" x="33" y="42.5" fill="#D1D3D4" width="12.1" height="1.1"/>
				<rect id="text19" x="45.9" y="42.5" fill="#D1D3D4" width="10.4" height="1.1"/>
				<rect id="text20" x="33" y="44.5" fill="#D1D3D4" width="8.1" height="1.1"/>
				<rect id="text21" x="42.7" y="44.5" fill="#D1D3D4" width="6.2" height="1.1"/>
				<rect id="text22" x="49.6" y="44.5" fill="#D1D3D4" width="9.7" height="1.1"/>
				<rect id="text23" x="33" y="46.6" fill="#D1D3D4" width="4.4" height="1.1"/>
				<rect id="text24" x="38.7" y="46.6" fill="#D1D3D4" width="12.2" height="1.1"/>
				<rect id="text25" x="52.4" y="46.6" fill="#D1D3D4" width="5.8" height="1.1"/>
			</g>
			<g id="fold">
				<polygon fill="#BCBEC0" points="65.6,29.6 65.6,25 61.5,25 			"/>
				<polygon fill="#E58553" points="61.5,25 65.6,25 61.5,20.3 			"/>
			</g>
		</g>
	</g>
</g>
<g id="coins">
	<g id="coin0">
		<path fill="#A7A9AC" d="M22.2,39.1c-0.7,0.2-1.1,0.9-0.9,1.5c0.2,0.7,0.9,1.1,1.5,0.9c0.7-0.2,1.1-0.9,0.9-1.5
			C23.5,39.3,22.9,39,22.2,39.1z"/>
		<g>
			<circle fill="#FACB6B" cx="22.6" cy="40.2" r="1.2"/>
			<path fill="#BC9850" d="M23.6,40c0.2,0.6-0.2,1.2-0.8,1.3c-0.6,0.2-1.2-0.2-1.3-0.8c-0.2-0.6,0.2-1.2,0.8-1.3
				C22.9,39,23.5,39.4,23.6,40z"/>
			<circle fill="#FACB6B" cx="22.6" cy="40.2" r="1"/>
			<g>
				<path fill="#231F20" d="M22.7,40.8L22.7,40.8c-0.1-0.1-0.2-0.1-0.2-0.1v-0.1c0.1,0,0.1,0,0.2,0s0.1-0.1,0.1-0.2
					c0-0.1-0.1-0.1-0.2-0.1c-0.2,0-0.3-0.1-0.3-0.2c0-0.1,0-0.2,0.1-0.3v-0.1h0.1v0.1c0.1,0,0.1,0,0.2,0v0.1c0,0-0.1,0-0.2,0
					s-0.1,0.1-0.1,0.2c0,0.1,0.1,0.1,0.2,0.1c0.2,0,0.2,0.1,0.3,0.2C22.9,40.5,22.9,40.6,22.7,40.8L22.7,40.8L22.7,40.8z"/>
			</g>
		</g>
	</g>
	<g id="coin1">
		<path fill="#A7A9AC" d="M25,34.7c-0.8,0.2-1.3,1.1-1.1,1.9c0.2,0.8,1.1,1.3,1.9,1.1s1.3-1.1,1.1-1.9C26.7,35,25.8,34.5,25,34.7z"
			/>
		<g>
			<path fill="#FACB6B" d="M27,35.7c0.2,0.8-0.3,1.7-1.1,1.9c-0.8,0.2-1.7-0.3-1.9-1.1c-0.2-0.8,0.3-1.7,1.1-1.9
				C25.9,34.4,26.7,34.9,27,35.7z"/>
			<path fill="#BC9850" d="M26.7,35.8c0.2,0.7-0.2,1.5-1,1.7c-0.7,0.2-1.5-0.2-1.7-1c-0.2-0.7,0.2-1.5,1-1.7S26.6,35.1,26.7,35.8z"
				/>
			<circle fill="#FACB6B" cx="25.4" cy="36.1" r="1.2"/>
			<g>
				<path fill="#231F20" d="M25.6,36.8v-0.2c-0.1,0-0.2,0-0.3,0v-0.1c0.1,0,0.2,0,0.3,0c0.1,0,0.2-0.1,0.2-0.2
					c0-0.1-0.1-0.1-0.3-0.2c-0.2,0-0.3-0.1-0.4-0.2c0-0.1,0-0.3,0.2-0.3v-0.2h0.1v0.2c0.1,0,0.2,0,0.2,0v0.1c0,0-0.1,0-0.2,0
					s-0.2,0.1-0.1,0.2c0,0.1,0.1,0.1,0.3,0.1c0.2,0,0.3,0.1,0.3,0.2c0,0.1,0,0.3-0.2,0.4v0.2H25.6z"/>
			</g>
		</g>
	</g>
	<g id="coin2">
		<path fill="#A7A9AC" d="M31.7,32.8c-1.3,0.3-2,1.6-1.7,2.9c0.3,1.3,1.6,2,2.9,1.7c1.3-0.3,2-1.6,1.7-2.9
			C34.3,33.2,33,32.4,31.7,32.8z"/>
		<g>
			<path fill="#FACB6B" d="M34.7,34.3c0.3,1.3-0.4,2.6-1.7,2.9c-1.3,0.3-2.6-0.4-2.9-1.7s0.4-2.6,1.7-2.9
				C33.1,32.2,34.4,33,34.7,34.3z"/>
			<path fill="#BC9850" d="M34.4,34.4c0.3,1.1-0.4,2.2-1.5,2.5c-1.1,0.3-2.2-0.4-2.5-1.5s0.4-2.2,1.5-2.5
				C33,32.6,34.1,33.3,34.4,34.4z"/>
			<path fill="#FACB6B" d="M34.3,34.4c0.3,1-0.3,2.1-1.4,2.3c-1,0.3-2.1-0.3-2.3-1.4c-0.3-1,0.3-2.1,1.4-2.3
				C32.9,32.8,34,33.4,34.3,34.4z"/>
			<g>
				<path fill="#231F20" d="M32.6,36l-0.1-0.3c-0.2,0-0.3,0-0.4,0v-0.2c0.1,0,0.3,0.1,0.4,0c0.2,0,0.3-0.2,0.2-0.3
					c0-0.1-0.2-0.2-0.4-0.2c-0.3,0-0.5-0.1-0.6-0.3s0.1-0.4,0.3-0.5l-0.1-0.3h0.2l0.1,0.3c0.2,0,0.3,0,0.4,0v0.2c-0.1,0-0.2,0-0.4,0
					C32,34.5,32,34.6,32,34.7s0.2,0.2,0.4,0.2c0.3,0,0.5,0.1,0.5,0.4C33,35.5,32.9,35.7,32.6,36l0.1,0.2L32.6,36z"/>
			</g>
		</g>
	</g>
	<g id="coin3">
		<path fill="#A7A9AC" d="M15.7,40.7c-1,0.3-1.6,1.3-1.3,2.2c0.3,1,1.3,1.6,2.2,1.3c1-0.3,1.6-1.3,1.3-2.2
			C17.7,41,16.7,40.5,15.7,40.7z"/>
		<g>
			<circle fill="#FACB6B" cx="16.3" cy="42.3" r="1.8"/>
			<circle fill="#BC9850" cx="16.3" cy="42.3" r="1.6"/>
			<path fill="#FACB6B" d="M17.7,42c0.2,0.8-0.3,1.6-1,1.8c-0.8,0.2-1.6-0.3-1.8-1c-0.2-0.8,0.3-1.6,1-1.8
				C16.7,40.7,17.5,41.2,17.7,42z"/>
			<g>
				<path fill="#231F20" d="M16.4,43.2V43c-0.1,0-0.2,0-0.3,0v-0.1c0.1,0,0.2,0,0.3,0c0.1,0,0.2-0.1,0.2-0.3c0-0.1-0.1-0.2-0.3-0.2
					c-0.2,0-0.4-0.1-0.4-0.3s0-0.3,0.2-0.4L16,41.5h0.1l0.1,0.2c0.1,0,0.2,0,0.3,0v0.1c0,0-0.1,0-0.3,0C16,41.9,16,42,16,42.1
					s0.1,0.1,0.3,0.2c0.2,0,0.4,0.1,0.4,0.3s0,0.3-0.2,0.4l0.1,0.2H16.4z"/>
			</g>
		</g>
	</g>
	<g id="coin4">
		<path fill="#A7A9AC" d="M21.1,44.9c-1.4,0.4-2.3,1.8-1.9,3.2s1.8,2.3,3.3,1.9c1.4-0.4,2.3-1.8,1.9-3.3
			C24,45.4,22.5,44.5,21.1,44.9z"/>
		<g>
			<path fill="#FACB6B" d="M24.5,46.6c0.4,1.4-0.5,2.9-1.9,3.3c-1.4,0.4-2.9-0.5-3.3-1.9s0.5-2.9,1.9-3.3S24.1,45.1,24.5,46.6z"/>
			<path fill="#BC9850" d="M24.1,46.7c0.3,1.2-0.4,2.5-1.6,2.8s-2.5-0.4-2.8-1.6c-0.3-1.2,0.4-2.5,1.6-2.8
				C22.5,44.7,23.8,45.4,24.1,46.7z"/>
			<path fill="#FACB6B" d="M23.9,46.7c0.3,1.1-0.4,2.3-1.5,2.6s-2.3-0.4-2.6-1.5c-0.3-1.1,0.4-2.3,1.5-2.6
				C22.5,44.9,23.6,45.6,23.9,46.7z"/>
			<g>
				<path fill="#231F20" d="M22.1,48.5L22,48.2c-0.2,0-0.4,0-0.5,0V48c0.1,0,0.3,0.1,0.5,0s0.3-0.2,0.3-0.4s-0.2-0.2-0.4-0.3
					c-0.3,0-0.5-0.1-0.6-0.4c-0.1-0.2,0.1-0.5,0.3-0.6L21.5,46h0.2l0.1,0.3c0.2,0,0.3,0,0.4,0v0.2c-0.1,0-0.2-0.1-0.4,0
					c-0.2,0.1-0.3,0.2-0.2,0.3c0,0.2,0.2,0.2,0.5,0.2s0.5,0.2,0.6,0.4s0,0.5-0.3,0.6l0.1,0.3L22.1,48.5z"/>
			</g>
		</g>
	</g>
	<g id="coin5">
		<path fill="#A7A9AC" d="M28.1,26.1c-1.1-1.2-3-1.2-4.2-0.1c-1.2,1.2-1.2,3-0.1,4.2c1.2,1.2,3,1.2,4.2,0.1
			C29.2,29.2,29.2,27.3,28.1,26.1z"/>
		<g>
			<circle fill="#FACB6B" cx="26.2" cy="28.2" r="3"/>
			<path fill="#BC9850" d="M28,30c-1,1-2.6,1-3.6,0s-1-2.6,0-3.6s2.6-1,3.6,0S29,29,28,30z"/>
			<path fill="#FACB6B" d="M27.8,29.9c-0.9,0.9-2.4,0.9-3.4,0c-0.9-0.9-0.9-2.4,0-3.4c0.9-0.9,2.4-0.9,3.4,0
				C28.8,27.5,28.8,29,27.8,29.9z"/>
			<g>
				<path fill="#231F20" d="M25.1,29.1l0.2-0.2c-0.1-0.1-0.2-0.3-0.3-0.5l0.2-0.1c0,0.1,0.1,0.3,0.2,0.5c0.2,0.2,0.4,0.2,0.5,0.1
					s0.1-0.3,0-0.6c-0.1-0.3-0.2-0.6,0-0.8c0.2-0.2,0.5-0.2,0.7,0l0.2-0.2l0.1,0.2H27c0.1,0.1,0.2,0.3,0.2,0.4L27,28
					c0-0.1-0.1-0.2-0.2-0.4c-0.2-0.2-0.4-0.1-0.5-0.1c-0.1,0.1-0.1,0.3,0,0.6c0.1,0.3,0.1,0.6-0.1,0.8c-0.2,0.2-0.5,0.2-0.8,0
					L25.1,29.1L25.1,29.1z"/>
			</g>
		</g>
	</g>
	<g id="coin6">
		<path fill="#A7A9AC" d="M12.2,46.3c-2,0.5-3.3,2.6-2.7,4.7c0.5,2,2.6,3.3,4.7,2.7c2-0.5,3.3-2.6,2.7-4.7
			C16.3,46.9,14.2,45.7,12.2,46.3z"/>
		<g>
			<path fill="#FACB6B" d="M17,48.7c0.5,2-0.7,4.1-2.7,4.7c-2,0.5-4.1-0.7-4.7-2.7c-0.5-2,0.7-4.1,2.7-4.7
				C14.4,45.4,16.5,46.6,17,48.7z"/>
			<path fill="#BC9850" d="M16.5,48.8c0.5,1.8-0.6,3.6-2.3,4c-1.8,0.5-3.6-0.6-4-2.3c-0.5-1.8,0.6-3.6,2.3-4
				C14.2,46,16,47,16.5,48.8z"/>
			<path fill="#FACB6B" d="M16.3,48.9c0.4,1.6-0.5,3.3-2.2,3.7c-1.6,0.4-3.3-0.5-3.7-2.2c-0.4-1.6,0.5-3.3,2.2-3.7
				C14.2,46.3,15.8,47.2,16.3,48.9z"/>
			<g>
				<path fill="#231F20" d="M13.6,51.4L13.5,51c-0.2,0-0.5,0-0.7,0v-0.3c0.2,0.1,0.4,0.1,0.7,0s0.5-0.3,0.4-0.5s-0.3-0.3-0.6-0.4
					c-0.5-0.1-0.8-0.2-0.9-0.5c-0.1-0.3,0.1-0.7,0.5-0.8l-0.1-0.4l0.3-0.1l0.1,0.4c0.3-0.1,0.4,0,0.6,0v0.3c-0.1,0-0.3-0.1-0.6,0
					s-0.4,0.3-0.3,0.5c0.1,0.2,0.2,0.3,0.7,0.3c0.5,0.1,0.8,0.2,0.9,0.6c0.1,0.3-0.1,0.7-0.5,0.9l0.1,0.4H13.6z"/>
			</g>
		</g>
	</g>
	<g id="coin7">
		<path fill="#A7A9AC" d="M34.7,23.7c-1.7,1.3-2,3.7-0.7,5.4c1.3,1.7,3.7,2,5.4,0.7s2-3.7,0.7-5.4C38.8,22.7,36.4,22.4,34.7,23.7z"
			/>
		<g>
			<path fill="#FACB6B" d="M40.2,24.1c1.3,1.7,1,4.1-0.7,5.4s-4.1,1-5.4-0.7c-1.3-1.7-1-4.1,0.7-5.4C36.4,22.1,38.9,22.4,40.2,24.1z
				"/>
			<path fill="#BC9850" d="M39.7,24.4c1.1,1.5,0.9,3.6-0.6,4.7c-1.5,1.1-3.6,0.9-4.7-0.6c-1.1-1.5-0.9-3.6,0.6-4.7
				S38.6,22.9,39.7,24.4z"/>
			<path fill="#FACB6B" d="M39.5,24.6c1,1.4,0.8,3.3-0.6,4.3c-1.3,1-3.3,0.8-4.3-0.6c-1-1.3-0.8-3.3,0.6-4.3
				C36.6,23,38.5,23.2,39.5,24.6z"/>
			<g>
				<path fill="#231F20" d="M38.1,28l-0.3-0.4c-0.2,0.2-0.5,0.3-0.7,0.3L37,27.6c0.2,0,0.4-0.1,0.6-0.2c0.2-0.2,0.3-0.5,0.2-0.7
					c-0.2-0.2-0.4-0.2-0.7-0.1c-0.5,0.1-0.8,0.1-1-0.2c-0.2-0.3-0.2-0.7,0.1-1L35.9,25l0.2-0.2l0.3,0.3c0.2-0.2,0.4-0.2,0.5-0.2
					l0.1,0.3c-0.1,0-0.3,0-0.5,0.2c-0.3,0.2-0.2,0.4-0.1,0.6c0.1,0.2,0.3,0.2,0.7,0.1c0.5-0.1,0.8-0.1,1,0.2c0.2,0.3,0.2,0.7-0.1,1
					l0.3,0.4L38.1,28z"/>
			</g>
		</g>
	</g>
</g>
<g id="cursor">
	<polygon opacity="0.22" enable-background="new    " points="35.1,43 29.7,41.6 24.3,40.1 25.8,45.5 27.2,50.9 29.3,48.8 
		32.3,51.8 36,48.1 33,45.1 	"/>
	<polygon fill="#414042" points="35.1,42.1 29.7,40.7 24.3,39.2 25.8,44.6 27.2,50 29.3,47.9 32.3,50.9 36,47.2 33,44.2 	"/>
</g>
</svg>
