<?xml version="1.0" encoding="utf-8"?>
<!-- Generator: Adobe Illustrator 19.0.0, SVG Export Plug-In . SVG Version: 6.00 Build 0)  -->
<svg version="1.1" id="rankingIcon" xmlns="http://www.w3.org/2000/svg" xmlns:xlink="http://www.w3.org/1999/xlink" x="0px"
	 y="0px" viewBox="-212 88 75 75" style="enable-background:new -212 88 75 75;" xml:space="preserve">
<style type="text/css">
	.st0{fill:none;stroke:#000000;stroke-width:1.17;stroke-linecap:round;stroke-linejoin:round;stroke-miterlimit:10;}
</style>
<g>
	<g>
		<path id="path7" class="st0" d="M-164.3,140.9c5.6,1.1,10.2,2.8,13.4,4.3c1.3,0.4-2.8-6.7-2.8-6.7c0.1-0.3,6.6-2.5,6.6-2.5
			c-2.8-1.7-7.4-3.4-13.3-4.5"/>
		<path id="path4" class="st0" d="M-189.1,131.3c-5.8,1-10.2,2.6-12.8,4.2l6.5,2.8l-3.2,6.6c3.2-1.4,7.9-3.2,13.7-4.2"/>
		<path id="path3" class="st0" d="M-184.9,140.8l0.6-4.3c0-0.2,0-0.4-0.2-0.5l-4.6-4.7"/>
		<path id="path2" class="st0" d="M-160.5,131.5l-4.4,4.3c-0.2,0.2-0.3,0.4-0.2,0.6l0.7,4.4"/>
		<path id="path1" class="st0" d="M-184.9,140.8l-1.1,6.8c-0.1,0.5,0.5,1,1,0.7l9.9-5.1c0.2-0.1,0.5-0.1,0.6,0l10.2,5.1
			c0.5,0.3,1.1-0.2,1-0.7l-1.1-6.7"/>
		<path id="path0" class="st0" d="M-189.1,131.3l-3.5-3.5c-0.4-0.4-0.2-1.1,0.4-1.2l11.2-1.7c0.2,0,0.4-0.2,0.5-0.4l5.1-10.2
			c0.4-0.6,1.1-0.6,1.3-0.1l5.1,10.2c0.1,0.2,0.3,0.4,0.5,0.4l11.2,1.7c0.5,0.1,0.7,0.7,0.4,1.2l-3.6,3.8"/>
		<path id="path5" class="st0" d="M-181.2,132.7c0.2-3.3,3-5.9,6.3-5.9c3.7-0.1,6.5,3,6.7,6.2c0.2,3.5-2.6,6.9-6.4,6.9
			C-178.3,139.9-181.4,136.4-181.2,132.7z"/>
		<path id="path6" class="st0" d="M-176.7,130.9l2.1-1.6c0.4-0.1,0.5,0.2,0.5,0.5v7.5"/>
	</g>
	<g id="stars_1_">
		<path id="star5" d="M-157,117.4c-1.4,0-2.3,1.1-2.3,2.3c0,1.3,1.1,2.3,2.3,2.3c1.4,0,2.3-1.1,2.3-2.3
			C-154.7,118.4-155.8,117.4-157,117.4z M-157,121.4c-1,0-1.7-0.7-1.7-1.7s0.7-1.7,1.7-1.7s1.7,0.7,1.7,1.7S-156.1,121.4-157,121.4z
			"/>
		<path id="star4" d="M-184.1,115.1c-0.8,0-1.5,0.6-1.5,1.5s0.6,1.5,1.5,1.5s1.5-0.6,1.5-1.5C-182.6,115.7-183.3,115.1-184.1,115.1z
			 M-184.1,117.8c-0.6,0-1.2-0.4-1.2-1.2c0-0.6,0.5-1.2,1.2-1.2c0.6,0,1.2,0.4,1.2,1.2S-183.5,117.8-184.1,117.8z"/>
		<path id="star3" d="M-159.7,110.8c-2.5,0-3.4-0.7-3.4-3.4c0-0.2-0.1-0.4-0.4-0.4c-0.2,0-0.3,0.1-0.3,0.4c0,2.5-0.9,3.4-3.4,3.4
			c-0.2,0-0.3,0.1-0.3,0.3s0.1,0.4,0.3,0.4c2.5,0,3.4,0.7,3.4,3.4c0,0.2,0.1,0.3,0.3,0.3c0.2,0,0.4-0.1,0.4-0.3
			c0-2.5,0.7-3.4,3.4-3.4c0.2,0,0.4-0.1,0.4-0.4S-159.6,110.8-159.7,110.8z M-163.5,112.6c-0.4-0.7-0.7-1.2-1.5-1.5
			c0.7-0.3,1.3-0.7,1.5-1.5c0.3,0.7,0.7,1.2,1.5,1.5C-162.7,111.4-163.2,111.9-163.5,112.6z"/>
		<path id="star2" d="M-176.1,105.4c-2.3,0-3.1-0.7-3.1-3.1c0-0.3-0.1-0.3-0.3-0.3c-0.3,0-0.3,0.1-0.3,0.3c0,2.3-0.7,3.1-3.1,3.1
			c-0.3,0-0.3,0.1-0.3,0.3c0,0.1,0.1,0.3,0.3,0.3c2.3,0,3.1,0.7,3.1,3.1c0,0.3,0.1,0.3,0.3,0.3c0.3,0,0.3-0.1,0.3-0.3
			c0-2.3,0.7-3.1,3.1-3.1c0.3,0,0.3-0.1,0.3-0.3C-175.8,105.5-175.9,105.4-176.1,105.4z M-179.5,107c-0.3-0.7-0.7-1.2-1.4-1.3
			c0.7-0.3,1.2-0.7,1.4-1.4c0.3,0.7,0.7,1.2,1.4,1.4C-178.9,105.9-179.2,106.3-179.5,107z"/>
		<path id="star1" d="M-192.4,122c-1.6,0-2.1-0.4-2.1-2.1c0-0.1-0.1-0.2-0.2-0.2s-0.2,0.1-0.2,0.2c0,1.6-0.5,2.1-2.1,2.1
			c-0.1,0-0.2,0.1-0.2,0.2s0.1,0.2,0.2,0.2c1.6,0,2.1,0.4,2.1,2.1c0,0.1,0.1,0.2,0.2,0.2s0.2-0.1,0.2-0.2c0-1.6,0.5-2.1,2.1-2.1
			c0.1,0,0.2-0.1,0.2-0.2S-192.3,122-192.4,122z M-194.7,123.1c-0.2-0.4-0.5-0.7-1-0.9c0.5-0.2,0.7-0.4,1-1c0.2,0.5,0.4,0.8,0.9,1
			C-194.3,122.4-194.6,122.7-194.7,123.1z"/>
	</g>
</g>
</svg>
