<?xml version="1.0" encoding="utf-8"?>
<!-- Generator: Adobe Illustrator 15.0.0, SVG Export Plug-In . SVG Version: 6.00 Build 0)  -->
<!DOCTYPE svg PUBLIC "-//W3C//DTD SVG 1.1//EN" "http://www.w3.org/Graphics/SVG/1.1/DTD/svg11.dtd">
<svg version="1.1" id="Layer_1" xmlns="http://www.w3.org/2000/svg" xmlns:xlink="http://www.w3.org/1999/xlink" x="0px" y="0px"
	 width="240px" height="230px" viewBox="0 1.75 240 230" enable-background="new 0 1.75 240 230" xml:space="preserve">
<g>
	<polygon fill="#DE9D03" points="140,113.042 137.5,137.917 147.5,138.667 149.25,113.667 	"/>
	<polygon fill="#9B752A" points="139.334,120.417 139.166,122.5 148.5,123.333 148.666,121.167 	"/>
	<polyline fill="#AA7535" points="149.25,113.667 150.125,114.292 148.5,137.167 147.5,138.667 149.25,113.667 	"/>
</g>
<g>
	<polygon fill="#DE9D03" points="90,107.042 87.5,131.917 97.5,132.667 99.25,107.667 	"/>
	<polygon fill="#9B752A" points="89.333,114.417 89.167,116.5 98.5,117.333 98.667,115.167 	"/>
	<polyline fill="#AA7535" points="99.25,107.667 100.125,108.292 98.5,131.167 97.5,132.667 99.25,107.667 	"/>
</g>
<g>
	<path opacity="0.25" enable-background="new    " d="M100.167,185.167c0.11,1.505-3.646,3.11-15.182,3.771
		c-9.692,0.559-12.365-0.813-12.109-1.461c0.826-2.09,3.156-2.346,8.467-2.813C92.853,183.654,100.056,183.662,100.167,185.167z"/>
	<path opacity="0.5" fill="#050505" enable-background="new    " d="M88.917,186.833c-0.667,2.667-3.219,2.291-5.979,2.146
		c-7.021-0.369-10.063-0.209-9.688-2.125c0.178-0.912,2.481-0.742,7.083-0.742C84.936,186.111,89.142,185.932,88.917,186.833z"/>
	<polygon fill="#F9CB42" points="81.666,123 73,188.333 84.333,189 92.166,123.5 	"/>
	<polyline fill="#EAAE02" points="84.333,189 86,186.333 93.333,125.333 92.166,123.5 	"/>
	<polygon fill="#E8AC25" points="81.75,134.333 76.333,181.167 77,181.167 83.333,132.5 	"/>
	<polygon fill="#E8AC25" points="85.167,153 81.833,183.667 82.5,183.333 86.5,148.833 	"/>
	<polyline fill="#E8AC25" points="84,138.167 82.5,152.833 83.333,151 84.5,140.333 84,137.5 	"/>
</g>
<g>
	<path opacity="0.25" fill="#020202" enable-background="new    " d="M151.547,194.887c0.11,1.506-4.381,3.564-14.761,4.141
		c-8.724,0.482-11.14-0.903-10.914-1.551c0.729-2.082,2.825-2.318,7.603-2.748C143.83,193.803,151.438,193.383,151.547,194.887z"/>
	<path opacity="0.5" fill="#020202" enable-background="new    " d="M141.916,196.833c-0.666,2.667-3.219,2.291-5.979,2.146
		c-7.021-0.369-10.063-0.209-9.688-2.125c0.178-0.912,2.479-0.742,7.083-0.742S142.143,195.932,141.916,196.833z"/>
	<polygon fill="#F9CB42" points="134.666,133 126,198.333 137.333,199 145.166,133.5 	"/>
	<polyline fill="#EAAE02" points="137.333,199 139,196.333 146.333,135.333 145.166,133.5 	"/>
	<polygon fill="#E8AC25" points="134.5,145.333 129.334,183.333 130.5,181.833 134.834,148.333 	"/>
	<polygon fill="#E8AC25" points="141.667,140.333 137.667,167.333 139.667,165.5 140.083,162.5 142.5,142 	"/>
	<polygon fill="#E8AC25" points="134.334,187.5 132.667,198.167 134,198.167 	"/>
</g>
<g>
	<path opacity="0.25" fill="#020202" enable-background="new    " d="M125.334,179.334c0.161,1.262-0.811,2.682-12.52,4.025
		c-9.838,1.131-12.602,0.158-12.363-0.403c0.772-1.815,3.133-2.192,8.519-2.948C120.641,178.371,125.173,178.072,125.334,179.334z"
		/>
	<path opacity="0.5" fill="#020202" enable-background="new    " d="M113.668,181.954c-0.561,2.241-2.707,1.927-5.027,1.805
		c-5.903-0.312-8.461-0.176-8.146-1.786c0.15-0.768,2.086-0.625,5.956-0.625C110.321,181.348,113.857,181.195,113.668,181.954z"/>
	<polygon fill="#FFDF92" points="93.833,123.167 100.5,182.667 109.167,184.167 102.833,122.167 	"/>
	<polyline fill="#EAAE02" points="109,184.167 110.5,182.333 104.5,123.5 102.833,122.167 	"/>
	<polygon fill="#EAC471" points="97.5,131.167 98.333,142.167 98.5,133.333 	"/>
	<polygon fill="#EAC471" points="103.503,148.633 104.77,161.141 105.506,160.87 103.741,144.688 103.525,146.541 	"/>
	<polygon fill="#EAC471" points="99.5,152 102.333,182.5 103.833,182.833 99.333,145 	"/>
</g>
<g>
	<polygon fill="#EEAD09" points="60.583,111.833 178,125.5 182,77.5 62.667,70.833 	"/>
	<polygon fill="#9E710E" points="178,125.5 180.667,122.833 185,76.5 66.667,69.167 62.667,70.833 181.667,78.167 	"/>
	<polygon fill="#D39B0D" points="180.334,98.5 178.334,123.167 179.667,122.833 	"/>
	<polygon fill="#D39B0D" points="181.667,79.167 182,97.167 183.334,78.5 	"/>
	<polygon fill="#D39B0D" points="111.334,72.167 168,77.042 169.625,76.542 	"/>
	<polygon fill="#D39B0D" points="78.5,94.667 157,99.667 179.5,103.917 88.833,96.667 	"/>
	<polygon fill="#D39B0D" points="120.667,110 176.334,115.333 175.834,118.333 104.167,110.333 	"/>
	<polygon fill="#D39B0D" points="62.667,76.5 88,79 62.417,77.917 	"/>
	<polygon fill="#D39B0D" points="179.202,110.102 151.948,109.367 179.3,111.54 	"/>
	<polygon fill="#D39B0D" points="150.622,80 180,81.5 179.486,83.833 142.167,80.333 	"/>
</g>
<g>
	<path opacity="0.25" enable-background="new    " d="M173.021,188.592c0.162,1.262-3.541,3.199-12.285,4.162
		c-7.353,0.811-9.453-0.246-9.293-0.797c0.521-1.786,2.281-2.085,6.3-2.665C166.451,188.036,172.859,187.332,173.021,188.592z"/>
	<path opacity="0.5" enable-background="new    " d="M164.668,190.954c-0.561,2.241-2.707,1.927-5.027,1.805
		c-5.898-0.312-8.461-0.176-8.146-1.786c0.149-0.768,2.086-0.625,5.956-0.625C161.32,190.348,164.857,190.195,164.668,190.954z"/>
	<polygon fill="#FFDF92" points="145.833,132.167 152.5,191.667 161.167,193.167 154.833,131.167 	"/>
	<polygon fill="#EAC471" points="150.167,137.667 151.667,160.833 152.334,158.971 151.334,138.908 	"/>
	<polyline fill="#EAAE02" points="154.833,131.167 156.5,132.5 162.5,191.333 161,193.167 	"/>
	<polygon fill="#EAC471" points="153,180.333 154,191.5 154.834,191 153.5,178.333 	"/>
</g>
<g>
	<polygon fill="#EAAE02" points="65.166,138.417 169.666,150.833 172.167,130.167 67,118.5 	"/>
	<polygon fill="#D39B0D" points="73.5,125.167 162,132 161.5,134.833 72.833,127.667 	"/>
	<polygon fill="#D39B0D" points="113.667,139 169.334,144.333 168.834,147.333 97.167,139.333 	"/>
	<polygon fill="#D39B0D" points="172.167,130.167 67,118.5 71.667,117.833 173.834,128.5 171.334,150 169.666,150.833 	"/>
	<g>
		<polygon fill="#050102" points="66.875,122.042 171.311,133.691 170,145.167 65.915,133.361 		"/>
		<polygon fill="#FAEC31" points="70.579,134.434 65.827,133.909 74.824,123.064 79.575,123.589 		"/>
		<polygon fill="#FAEC31" points="82.935,135.794 78.183,135.27 87.179,124.427 91.932,124.952 		"/>
		<polygon fill="#FAEC31" points="94.339,137.052 89.587,136.527 98.584,125.686 103.336,126.208 		"/>
		<polygon fill="#FAEC31" points="105.745,138.309 100.993,137.786 109.99,126.943 114.742,127.465 		"/>
		<polygon fill="#FAEC31" points="117.148,139.566 112.397,139.043 121.395,128.2 126.146,128.723 		"/>
		<polygon fill="#FAEC31" points="128.555,140.825 123.803,140.301 132.8,129.458 137.552,129.98 		"/>
		<polygon fill="#FAEC31" points="139.959,142.083 135.207,141.557 144.205,130.714 148.958,131.239 		"/>
		<polygon fill="#FAEC31" points="151.363,143.339 146.613,142.814 155.609,131.971 160.361,132.497 		"/>
		<polygon fill="#FAEC31" points="162.77,144.596 158.018,144.073 167.016,133.229 171.768,133.752 		"/>
	</g>
</g>
<text transform="matrix(0.9957 0.0931 -0.0931 0.9957 93.4341 90.4663)" font-family="'Tahoma-Bold'" font-size="16.0014">UNDER</text>
<text transform="matrix(0.9957 0.0931 -0.0931 0.9957 70.8691 102.5396)" font-family="'Tahoma-Bold'" font-size="12.001">CONSTRUCTION</text>
<g>
	<polygon fill="#5A5832" points="160,72.389 160,75.896 153.898,75.516 153.823,71.348 	"/>
	<polygon fill="#6B6943" points="162.736,72.709 162.706,75.58 160,75.896 160,72.389 	"/>
	<path fill="#3F3F3E" d="M154.209,73.952c0,0,3.918,1.012,5.691,0.321c0,0,0.201-1.479-0.28-2.246c0,0-4.749,0.527-5.411,0
		C154.209,72.027,153.818,73.411,154.209,73.952z"/>
	<ellipse fill="#828065" cx="158.538" cy="66.888" rx="8.017" ry="6.863"/>
	<circle fill="#D1CFB0" cx="157.475" cy="66.216" r="7.155"/>
	<path fill="none" stroke="#EFECDA" stroke-width="0.5" stroke-miterlimit="10" d="M157.477,60.023c-3.422,0-6.19,2.773-6.19,6.193
		s2.771,6.193,6.19,6.193"/>
	<circle fill="#6B6B6B" stroke="#3F2900" stroke-miterlimit="10" cx="157.475" cy="66.216" r="5.591"/>
	<path opacity="0.3" fill="#FFFFFF" enable-background="new    " d="M162.465,68.922c0,0-1.502,3.487-5.771,2.465
		c0,0-4.207-0.66-4.81-4.088C151.884,67.299,156.093,70.245,162.465,68.922z"/>
	<circle fill="#6B5637" cx="157.295" cy="65.615" r="2.164"/>
	<path opacity="0.2" fill="#FFFFFF" enable-background="new    " d="M158.457,60.605c0,0,4.449,1.483,4.449,5.451
		c0,0-2.004-2.044-4.85-2.365c0,0-3.851-0.802-5.41-0.12C152.646,63.571,154.529,60.285,158.457,60.605z"/>
	<circle fill="none" stroke="#494949" stroke-width="0.5" stroke-miterlimit="10" cx="157.475" cy="66.216" r="5.591"/>
</g>
<g>
	<polygon fill="#5A5832" points="90,68.389 90,71.896 83.898,71.516 83.823,67.348 	"/>
	<polygon fill="#6B6943" points="92.736,68.709 92.706,71.58 90,71.896 90,68.389 	"/>
	<path fill="#3F3F3E" d="M84.209,69.952c0,0,3.918,1.012,5.691,0.321c0,0,0.201-1.479-0.28-2.246c0,0-4.749,0.527-5.411,0
		C84.209,68.027,83.818,69.411,84.209,69.952z"/>
	<ellipse fill="#828065" cx="88.538" cy="62.888" rx="8.017" ry="6.863"/>
	<circle fill="#D1CFB0" cx="87.475" cy="62.216" r="7.155"/>
	<path fill="none" stroke="#EFECDA" stroke-width="0.5" stroke-miterlimit="10" d="M87.477,56.023c-3.422,0-6.191,2.773-6.191,6.193
		s2.771,6.193,6.191,6.193"/>
	<circle fill="#6B6B6B" stroke="#3F2900" stroke-miterlimit="10" cx="87.475" cy="62.216" r="5.591"/>
	<path opacity="0.3" fill="#FFFFFF" enable-background="new    " d="M92.465,64.922c0,0-1.502,3.487-5.771,2.465
		c0,0-4.207-0.66-4.81-4.088C81.884,63.299,86.093,66.245,92.465,64.922z"/>
	<circle fill="#6B5637" cx="87.295" cy="61.615" r="2.164"/>
	<path opacity="0.2" fill="#FFFFFF" enable-background="new    " d="M88.457,56.605c0,0,4.449,1.483,4.449,5.451
		c0,0-2.004-2.044-4.85-2.365c0,0-3.85-0.802-5.41-0.12C82.646,59.571,84.529,56.285,88.457,56.605z"/>
	<circle fill="none" stroke="#494949" stroke-width="0.5" stroke-miterlimit="10" cx="87.475" cy="62.216" r="5.591"/>
</g>
<g id="lighting1">
	
		<radialGradient id="SVGID_1_" cx="530.041" cy="502.125" r="32.125" gradientTransform="matrix(1 0 0 1 -372 -436)" gradientUnits="userSpaceOnUse">
		<stop  offset="0.1515" style="stop-color:#FFB92E"/>
		<stop  offset="1" style="stop-color:#FFAC2E;stop-opacity:0"/>
	</radialGradient>
	<circle fill="url(#SVGID_1_)" cx="158.041" cy="66.125" r="32.125"/>
	<circle fill="#FAB534" cx="158.1" cy="66.382" r="5.591"/>
	<path opacity="0.5" fill="#FFFFFF" enable-background="new    " d="M163.09,69.088c0,0-1.502,3.487-5.771,2.465
		c0,0-4.207-0.66-4.81-4.088C152.509,67.465,156.718,70.411,163.09,69.088z"/>
	<circle fill="#FCCD49" cx="157.92" cy="65.781" r="1.414"/>
	<path fill="#F9CC9B" d="M159.082,60.771c0,0,4.449,1.483,4.449,5.451c0,0-2.004-2.044-4.85-2.365c0,0-3.851-0.802-5.41-0.12
		C153.271,63.737,155.154,60.451,159.082,60.771z"/>
	<path fill="none" stroke="#FFAD3F" stroke-width="0.5" stroke-miterlimit="10" d="M157.977,60.189
		c-3.422,0-6.192,2.773-6.192,6.193s2.771,6.193,6.192,6.193"/>
	<circle fill="none" stroke="#FFE79F" stroke-width="0.5" stroke-miterlimit="10" cx="157.975" cy="66.382" r="5.591"/>
</g>
<g id="lighting2">
	
		<radialGradient id="SVGID_2_" cx="460.041" cy="498.125" r="32.125" gradientTransform="matrix(1 0 0 1 -372 -436)" gradientUnits="userSpaceOnUse">
		<stop  offset="0.1515" style="stop-color:#FFB92E"/>
		<stop  offset="1" style="stop-color:#FFAC2E;stop-opacity:0"/>
	</radialGradient>
	<circle fill="url(#SVGID_2_)" cx="88.041" cy="62.125" r="32.125"/>
	<circle fill="#FAB534" cx="88.1" cy="62.382" r="5.591"/>
	<path opacity="0.5" fill="#FFFFFF" enable-background="new    " d="M93.09,65.088c0,0-1.502,3.487-5.771,2.465
		c0,0-4.207-0.66-4.81-4.088C82.509,63.465,86.718,66.411,93.09,65.088z"/>
	<circle fill="#FCCD49" cx="87.92" cy="61.781" r="1.414"/>
	<path fill="#F9CC9B" d="M89.082,56.771c0,0,4.449,1.483,4.449,5.451c0,0-2.004-2.044-4.85-2.365c0,0-3.849-0.802-5.41-0.12
		C83.271,59.737,85.154,56.451,89.082,56.771z"/>
	<path fill="none" stroke="#FFAD3F" stroke-width="0.5" stroke-miterlimit="10" d="M87.976,56.189c-3.422,0-6.193,2.773-6.193,6.193
		s2.771,6.193,6.193,6.193"/>
	<circle fill="none" stroke="#FFE79F" stroke-width="0.5" stroke-miterlimit="10" cx="87.974" cy="62.382" r="5.591"/>
</g>

</svg>
