<?xml version="1.0" encoding="utf-8"?>
<!-- Generator: Adobe Illustrator 15.0.0, SVG Export Plug-In . SVG Version: 6.00 Build 0)  -->
<!DOCTYPE svg PUBLIC "-//W3C//DTD SVG 1.1//EN" "http://www.w3.org/Graphics/SVG/1.1/DTD/svg11.dtd">
<svg version="1.1" id="Layer_1" xmlns="http://www.w3.org/2000/svg" xmlns:xlink="http://www.w3.org/1999/xlink" viewBox="0 0 240 328" xml:space="preserve">


<line fill="none" x1="508.001" y1="-101" x2="487.501" y2="-90.333"/>
<g id="leaver_1" opacity="0">
	<polygon fill="#F58B35" points="57.834,69.334 7.501,93.667 58.001,119.834 108.334,94.334 	"/>
	<polygon fill="#E2884B" points="7.501,93.667 7.834,97 57.001,122.834 108.501,96.667 108.334,94.334 58.167,118.334 	"/>
	<path fill="#FB8D2E" d="M54,8c0,0,3.5-5.416,7.25,0L89,92.5c0,0-25.834,20.584-61.75,2.5L54,8z"/>
	<path fill="#F1F1F3" d="M37.25,63.25c0,0,23.334,5.084,41.5-1.25l5.625,16.5c0,0-22.708,9.334-52.875,2.25L37.25,63.25z"/>
	<path fill="#F1F1F3" d="M46.438,32.521c0,0,16.063,2.313,22.708-0.521L72.5,42.75c0,0-15.749,4.333-29.5,0.5L46.438,32.521z"/>
	<path opacity="0.2" fill="#FFFFFF" enable-background="new    " d="M54.833,10.833l-21.166,86c0,0,8.499,5.166,11.166,3.832
		l12.5-89.833C57.333,10.833,55.999,8.667,54.833,10.833z"/>
	<path fill="none" stroke="#D36D1A" stroke-width="3" stroke-miterlimit="10" d="M27.25,95c0,0,30.083,18.666,61.75-2.5"/>
	<polygon opacity="0.2" fill="#FFFFFF" enable-background="new    " points="33.667,96.834 25.5,102.75 43.75,111 44.833,100.666 	
		"/>
	<path opacity="0.5" fill="#FCB972" enable-background="new    " d="M93.25,87c0,0,4,10.5-0.25,13.75l15.334-6.416L93.25,87z"/>
	<path opacity="0.1" fill="#995211" enable-background="new    " d="M61.75,27.5L76,96.75l1.5,12l13-6.25L83,94L63.25,26.5
		C63.25,26.5,61.5,24.25,61.75,27.5z"/>
	<path opacity="0.3" fill="#FCB972" enable-background="new    " d="M57.25,49.75l-1.25,51L55,116l3.167,2.334L63,115l-4-66.5
		C59,48.5,57.25,46.75,57.25,49.75z"/>
</g>
<g id="leaver_2" opacity="0">
	<polygon fill="#F58B35" points="183.834,88.334 133.501,112.667 184.001,138.834 234.334,113.334 	"/>
	<polygon fill="#E2884B" points="133.501,112.667 133.834,116 183.001,141.834 234.501,115.667 234.334,113.334 184.167,137.334 	
		"/>
	<path fill="#FB8D2E" d="M180,27c0,0,3.5-5.416,7.25,0L215,111.5c0,0-25.834,20.584-61.75,2.5L180,27z"/>
	<path fill="#F1F1F3" d="M163.25,82.25c0,0,23.334,5.084,41.5-1.25l5.625,16.5c0,0-22.708,9.334-52.875,2.25L163.25,82.25z"/>
	<path fill="#F1F1F3" d="M172.438,51.521c0,0,16.063,2.313,22.709-0.521l3.354,10.75c0,0-15.749,4.333-29.5,0.5L172.438,51.521z"/>
	<path opacity="0.2" fill="#FFFFFF" enable-background="new    " d="M180.833,29.833l-21.166,86c0,0,8.499,5.166,11.166,3.832
		l12.5-89.833C183.333,29.833,181.999,27.667,180.833,29.833z"/>
	<path fill="none" stroke="#D36D1A" stroke-width="3" stroke-miterlimit="10" d="M153.25,114c0,0,30.083,18.666,61.75-2.5"/>
	<polygon opacity="0.2" fill="#FFFFFF" enable-background="new    " points="159.667,115.834 151.5,121.75 169.75,130 
		170.833,119.666 	"/>
	<path opacity="0.5" fill="#FCB972" enable-background="new    " d="M219.25,106c0,0,4,10.5-0.25,13.75l15.334-6.416L219.25,106z"/>
	<path opacity="0.1" fill="#995211" enable-background="new    " d="M187.75,46.5L202,115.75l1.5,12l13-6.25L209,113l-19.75-67.5
		C189.25,45.5,187.5,43.25,187.75,46.5z"/>
	<path opacity="0.3" fill="#FCB972" enable-background="new    " d="M183.25,68.75l-1.25,51L181,135l3.167,2.334L189,134l-4-66.5
		C185,67.5,183.25,65.75,183.25,68.75z"/>
</g>


<g id="shine1" transform="translate( 14, 134 )">		
		<defs>
			<mask id="mask1" x="0" y="0" width="100" height="100" >
				<path fill="#00FFEC" d="M39.797,12.012c0,0,3.5-5.416,7.25,0l27.75,84.5c0,0-25.834,20.584-61.75,2.5L39.797,12.012z"/>				
			</mask>
		</defs>
		<g style="mask: url(#mask1)" >
			<polygon id="maskObj1" fill="url(#SVGID_1_)" points="8.689,108.482 -9.103,105.422 9.221,-1.181 27.014,1.878 	"/>	
			<linearGradient id="SVGID_1_" gradientUnits="userSpaceOnUse" x1="42.2168" y1="55.5757" x2="52.3843" y2="55.5757" gradientTransform="matrix(1.75 0.3008 -0.1694 0.9855 -64.4064 -15.3503)">
				<stop  offset="0" style="stop-color:#FFFFFF;stop-opacity:0"/>
				<stop  offset="0.4121" style="stop-color:#FFFFFF;stop-opacity:0.5"/>
				<stop  offset="0.5273" style="stop-color:#FFFFFF;stop-opacity:0.7"/>
				<stop  offset="0.6121" style="stop-color:#FFFFFF;stop-opacity:0.4"/>
				<stop  offset="1" style="stop-color:#FFFFFF;stop-opacity:0"/>
			</linearGradient>
		</g>		
</g>


<g id="shine2" transform="translate( 140, 142)">		
		<defs>
			<mask id="mask2" x="0" y="0" width="100" height="100" >
				<path fill="#00FFEC" d="M39.797,12.012c0,0,3.5-5.416,7.25,0l27.75,84.5c0,0-25.834,20.584-61.75,2.5L39.797,12.012z"/>				
			</mask>
		</defs>
		<g style="mask: url(#mask2)" >
			<polygon id="maskObj2" fill="url(#SVGID_2_)" points="8.689,108.482 -9.103,105.422 9.221,-1.181 27.014,1.878 	"/>	
			<linearGradient id="SVGID_2_" gradientUnits="userSpaceOnUse" x1="42.2168" y1="55.5757" x2="52.3843" y2="55.5757" gradientTransform="matrix(1.75 0.3008 -0.1694 0.9855 -64.4064 -15.3503)">
				<stop  offset="0" style="stop-color:#FFFFFF;stop-opacity:0"/>
				<stop  offset="0.4121" style="stop-color:#FFFFFF;stop-opacity:0.5"/>
				<stop  offset="0.5273" style="stop-color:#FFFFFF;stop-opacity:0.7"/>
				<stop  offset="0.6121" style="stop-color:#FFFFFF;stop-opacity:0.4"/>
				<stop  offset="1" style="stop-color:#FFFFFF;stop-opacity:0"/>
			</linearGradient>
		</g>		
</g>


<g id="main_obj" opacity="0">
	<g id="cap_obj">
		<path fill="#F6D047" d="M3.17,43.323c0,0-4.059,13.1-2.582,15.498c1.477,2.397,19.373,3.137,19.373,3.137
			s8.303,3.506,28.414-33.766c0,0,7.75-15.5-6.912-14.374C28.877,14.784,7.045,23.579,3.17,43.323z"/>
		<path fill="#FFEC71" d="M46.715,16.199c0,0-14.944-28.045-37.824-10.333c0,0-17.713,12.916-3.137,40.593
			c0,0,15.129,7.38,33.211-9.78C38.965,36.679,48.559,26.901,46.715,16.199z"/>
		<path fill="none" stroke="#FDF8B6" stroke-miterlimit="10" d="M25.844,0.102C20.891-0.418,15.193,0.988,8.891,5.867
			c0,0-11.53,9.207-8.211,27.124"/>
		<path fill="none" stroke="#E5AC2C" stroke-miterlimit="10" d="M46.715,16.199c0,0-7.847-14.725-20.871-16.097"/>
		<path fill="none" stroke="#FEF9B7" stroke-miterlimit="10" d="M3.655,42.883c0,0-4.543,13.539-3.066,15.938"/>
		<path fill="none" stroke="#F9C126" stroke-miterlimit="10" d="M5.754,46.459c0,0,15.129,7.38,33.211-9.78
			c0,0,9.594-9.778,7.75-20.48"/>
		<path fill="none" stroke="#FFDA88" stroke-miterlimit="10" d="M0.705,32.815c1.497,5.086,2.12,7.164,5.05,13.645"/>
		<path fill="none" stroke="#FDF8B6" stroke-miterlimit="10" d="M14.055,2.73c0,0-14.392,19.742,7.565,43.174"/>
		<path fill="none" stroke="#EFC36C" stroke-miterlimit="10" d="M15.164,2.73c0,0-14.392,19.742,7.565,43.174"/>
		<path fill="#FFDF5A" d="M15.418,34.719c0,0,19.118-7.818,25.207-26.27l6.09,8.672c0,0,0.737,20.112-23.434,28.784L15.418,34.719z"
			/>
		<path fill="none" stroke="#F8CD1C" stroke-miterlimit="10" d="M18.854,61.958c0,0,9.408,3.506,29.521-33.766
			c0,0,6.457-11.994-1.662-13.47"/>
		<path fill="none" stroke="#FFEEA9" stroke-miterlimit="10" d="M0.588,58.821c1.477,2.397,18.267,3.137,18.267,3.137"/>
		<path fill="none" stroke="#F8CD1C" stroke-miterlimit="10" d="M2.064,43.323"/>
		<path fill="none" stroke="#F8CD1C" stroke-miterlimit="10" d="M40.357,13.819"/>
		<path fill="#FFF5CC" d="M3.909,26.716c0,0-1.66,10.608,6.089,20.572l3.736,0.231c0,0-7.979-13.978-8.164-21.543
			C5.57,25.979,3.725,25.24,3.909,26.716z"/>
		<polygon fill="#FFDF78" points="10.413,48.166 5.754,60.02 11.612,60.85 13.411,48.719 	"/>
		<path fill="#F2C52E" d="M21.161,43.368c0,0,19.788-8.994,24.217-28.646l1.338,2.398c0,0,0.737,20.113-23.434,28.783L21.161,43.368z
			"/>
		<polygon fill="#FFDF78" points="16.488,48.549 14.754,61.02 16.654,61.049 17.988,48.715 	"/>
	</g>
</g>



<script  type="text/javascript">
	<![CDATA[
			
			var endInterval = 0
			
			var rot1_1 = 0, rot1_2 = 185, rot1_3 = 135, rot1_4 = 0, rot1_5 = 20;
			var rot2_1 = 0, rot2_2 = 175, rot2_3 = 125, rot2_4 = 20, rot2_5 = 50;	
			var rot3_1 = 0, rot3_2 = 50, rot3_3 = -20, rot3_4 = 120, rot3_5 = 0;	
			var rot4_1 = 0;
			var rot5_1 = 0;
			
			var opac = 0, opac2 = 1, opac3 = 0;
			
			var fast_ = 50, fast_2 = 50, fast_3 = 50, fast_4 = 50, fast_5 = 50, fast_6 = 50, fast_7 = 50;

			var rota = 0;			
			var aniPoints = 0;
			
			var nextStep = false;
			
			var endAnimation = false;	
			
			var main_obj = document.getElementById("main_obj");
			var leaver_1 = document.getElementById("leaver_1");
			var leaver_2 = document.getElementById("leaver_2");
			var cap_obj = document.getElementById("cap_obj");
			
			var shine1 = document.getElementById("shine1");
			var shineGradient = document.getElementById("maskObj1")
			var shine2 = document.getElementById("shine2");
			var shineGradient2 = document.getElementById("maskObj2")
			
			var obj3 = document.getElementById("obj3");
			
			var noLoop = true;

			
			var Interval = null;
			
			function startAnimation() {
				if(Interval == null) {
					Interval = setInterval(animate, 20);
				}
			}
			
			function stopAnimation() {
				if(Interval != null){
					clearInterval(Interval);
					Interval = null;
				}
			}	
			
			function animate() {		
				
				rota = rota + 1;				
				aniPoints = aniPoints +1;
				
				if(noLoop){
				
					if(aniPoints > 10 && aniPoints < 40){
						endAnimation = false;
						fast_ += (2 - fast_)/7;
						rot1_1 += (rot1_2 - rot1_1)/fast_;
						leaver_1.setAttribute("transform",  "translate(0 "+ rot1_1 +")");
						
						opac += (1 - opac)/fast_;	
						leaver_1.setAttribute("opacity",  opac);
					}
					
					
					if(aniPoints > 20 && aniPoints < 60){
						fast_2 += (2 - fast_2)/7;				
						rot2_1 += (rot2_2 - rot2_1)/fast_2;
						leaver_2.setAttribute("transform",  "translate( 0 "+ rot2_1 +")");
						opac += (1 - opac)/fast_2;	
						leaver_2.setAttribute("opacity",  opac);
					}
					
					
					if(aniPoints > 40 && aniPoints < 70){		

						fast_3 += (2 - fast_3)/10;		
						rot1_1 += (rot1_3 - rot1_1)/fast_3;				
						leaver_1.setAttribute("transform",  "translate(0 "+ rot1_1 +")");
					}
					
					if(aniPoints > 60 && aniPoints < 90){
						fast_4 += (2 - fast_4)/10;					
						rot2_1 += (rot2_3 - rot2_1)/fast_4;
						leaver_2.setAttribute("transform",  "translate( 0 "+ rot2_1 +")");
						
						rota = rota +1;
					}
					
					if(aniPoints > 80 && aniPoints < 120){
						fast_5 += (2 - fast_5)/5;					
						rot3_1 += (130 - rot3_1)/fast_5;					
						main_obj.setAttribute("transform",  "translate( 155 "+ rot3_1 +")");
						opac3 += (1 - opac3)/fast_5;	
						main_obj.setAttribute("opacity",  opac3);
					}
				
				}
				
				if(!noLoop){
					if(aniPoints > 20 && aniPoints < 120){
						
						if(aniPoints > 20 && aniPoints < 60){
							fast_6 += (2 - fast_6)/20;					
							rot4_1 += (90 - rot4_1)/fast_6;
							shineGradient.setAttribute("transform",  "translate( "+ rot4_1 +", 0 )");
						}
						if(aniPoints > 50 && aniPoints < 120){
							fast_7 += (2 - fast_7)/20;					
							rot5_1 += (90 - rot5_1)/fast_7;
							shineGradient2.setAttribute("transform",  "translate( "+ rot5_1 +", 0 )");
							
						}
						endAnimation = false;
					}
				}
				
				if(aniPoints > 140 && !endAnimation){
					endAnimation = true;
					aniPoints = 0;
					noLoop = false;
					shineGradient.setAttribute("transform",  "translate( "+ 0 +", 0 )");
					shineGradient2.setAttribute("transform",  "translate( "+ 0 +", 0 )");
					rot4_1 = 0, rot5_1 = 0;
					fast_ = 50, fast_2 = 50, fast_3 = 50, fast_4 = 50, fast_5 = 50, fast_6 = 50, fast_7 = 50;					
				}
				
			}
			
			main_obj.setAttribute("transform",  "translate( 155, 0)");
			main_obj.setAttribute("opacity",  "0");
			leaver_1.setAttribute("opacity",  "0");
			leaver_2.setAttribute("opacity",  "0");
			
			shine1.setAttribute("transform",  "translate( 14, 134 )");			
			shine2.setAttribute("transform",  "translate( 140, 142)");
			
			startAnimation();			
			
		
		]]>
</script>




</svg>
