<?xml version="1.0" encoding="utf-8"?>
<!-- Generator: Adobe Illustrator 15.0.0, SVG Export Plug-In . SVG Version: 6.00 Build 0)  -->
<!DOCTYPE svg PUBLIC "-//W3C//DTD SVG 1.1//EN" "http://www.w3.org/Graphics/SVG/1.1/DTD/svg11.dtd">
<svg version="1.1" id="Layer_1" xmlns="http://www.w3.org/2000/svg" xmlns:xlink="http://www.w3.org/1999/xlink" x="0px" y="0px"
	 width="240px" height="200px" viewBox="0 3.917 240 200" enable-background="new 0 3.917 240 200" xml:space="preserve">
<g id="leaver_1">
	<polygon fill="#F58B35" points="55.834,99.334 5.501,123.667 56.001,149.834 106.334,124.334 	"/>
	<polygon fill="#E2884B" points="5.501,123.667 5.834,127 55.001,152.834 106.501,126.667 106.334,124.334 56.167,148.334 	"/>
	<path fill="#FB8D2E" d="M52,38c0,0,3.5-5.416,7.25,0L87,122.5c0,0-25.834,20.584-61.75,2.5L52,38z"/>
	<path fill="#F1F1F3" d="M35.25,93.25c0,0,23.334,5.084,41.5-1.25l5.625,16.5c0,0-22.708,9.334-52.875,2.25L35.25,93.25z"/>
	<path fill="#F1F1F3" d="M44.438,62.521c0,0,16.063,2.313,22.708-0.521L70.5,72.75c0,0-15.749,4.333-29.5,0.5L44.438,62.521z"/>
	<path opacity="0.2" fill="#FFFFFF" enable-background="new    " d="M52.833,40.833l-21.166,86c0,0,8.499,5.166,11.166,3.832
		l12.5-89.833C55.333,40.833,53.999,38.667,52.833,40.833z"/>
	<path fill="none" stroke="#D36D1A" stroke-width="3" stroke-miterlimit="10" d="M25.25,125c0,0,30.083,18.666,61.75-2.5"/>
	<polygon opacity="0.2" fill="#FFFFFF" enable-background="new    " points="31.667,126.834 23.5,132.75 41.75,141 42.833,130.666 	
		"/>
	<path opacity="0.5" fill="#FCB972" enable-background="new    " d="M91.25,117c0,0,4,10.5-0.25,13.75l15.334-6.416L91.25,117z"/>
	<path opacity="0.1" fill="#995211" enable-background="new    " d="M59.75,57.5L74,126.75l1.5,12l13-6.25L81,124L61.25,56.5
		C61.25,56.5,59.5,54.25,59.75,57.5z"/>
	<path opacity="0.3" fill="#FCB972" enable-background="new    " d="M55.25,79.75l-1.25,51L53,146l3.167,2.334L61,145l-4-66.5
		C57,78.5,55.25,76.75,55.25,79.75z"/>
</g>
<g id="leaver_2">
	<polygon fill="#F58B35" points="181.834,118.334 131.501,142.667 182.001,168.834 232.334,143.334 	"/>
	<polygon fill="#E2884B" points="131.501,142.667 131.834,146 181.001,171.834 232.501,145.667 232.334,143.334 182.167,167.334 	
		"/>
	<path fill="#FB8D2E" d="M178,57c0,0,3.5-5.416,7.25,0L213,141.5c0,0-25.834,20.584-61.75,2.5L178,57z"/>
	<path fill="#F1F1F3" d="M161.25,112.25c0,0,23.334,5.084,41.5-1.25l5.625,16.5c0,0-22.708,9.334-52.875,2.25L161.25,112.25z"/>
	<path fill="#F1F1F3" d="M170.438,81.521c0,0,16.063,2.313,22.709-0.521l3.354,10.75c0,0-15.749,4.333-29.5,0.5L170.438,81.521z"/>
	<path opacity="0.2" fill="#FFFFFF" enable-background="new    " d="M178.833,59.833l-21.166,86c0,0,8.499,5.166,11.166,3.832
		l12.5-89.833C181.333,59.833,179.999,57.667,178.833,59.833z"/>
	<path fill="none" stroke="#D36D1A" stroke-width="3" stroke-miterlimit="10" d="M151.25,144c0,0,30.083,18.666,61.75-2.5"/>
	<polygon opacity="0.2" fill="#FFFFFF" enable-background="new    " points="157.667,145.834 149.5,151.75 167.75,160 
		168.833,149.666 	"/>
	<path opacity="0.5" fill="#FCB972" enable-background="new    " d="M217.25,136c0,0,4,10.5-0.25,13.75l15.334-6.416L217.25,136z"/>
	<path opacity="0.1" fill="#995211" enable-background="new    " d="M185.75,76.5L200,145.75l1.5,12l13-6.25L207,143l-19.75-67.5
		C187.25,75.5,185.5,73.25,185.75,76.5z"/>
	<path opacity="0.3" fill="#FCB972" enable-background="new    " d="M181.25,98.75l-1.25,51L179,165l3.167,2.334L187,164l-4-66.5
		C183,97.5,181.25,95.75,181.25,98.75z"/>
</g>
<g id="main_obj">
	<g id="cap_obj">
		<path fill="#F6D047" d="M153.17,78.323c0,0-4.059,13.1-2.582,15.498c1.477,2.397,19.373,3.137,19.373,3.137
			s8.303,3.506,28.414-33.766c0,0,7.75-15.5-6.912-14.374C178.877,49.784,157.045,58.579,153.17,78.323z"/>
		<path fill="#FFEC71" d="M196.715,51.199c0,0-14.943-28.045-37.824-10.333c0,0-17.713,12.916-3.137,40.593
			c0,0,15.129,7.38,33.211-9.78C188.965,71.679,198.559,61.901,196.715,51.199z"/>
		<path fill="none" stroke="#FDF8B6" stroke-miterlimit="10" d="M175.844,35.102c-4.953-0.52-10.65,0.886-16.953,5.765
			c0,0-11.529,9.207-8.211,27.124"/>
		<path fill="none" stroke="#E5AC2C" stroke-miterlimit="10" d="M196.715,51.199c0,0-7.847-14.725-20.871-16.097"/>
		<path fill="none" stroke="#FEF9B7" stroke-miterlimit="10" d="M153.654,77.883c0,0-4.543,13.539-3.065,15.938"/>
		<path fill="none" stroke="#F9C126" stroke-miterlimit="10" d="M155.754,81.459c0,0,15.129,7.38,33.211-9.78
			c0,0,9.594-9.778,7.75-20.48"/>
		<path fill="none" stroke="#FFDA88" stroke-miterlimit="10" d="M150.705,67.815c1.497,5.086,2.12,7.164,5.05,13.645"/>
		<path fill="none" stroke="#FDF8B6" stroke-miterlimit="10" d="M164.055,37.73c0,0-14.392,19.742,7.565,43.174"/>
		<path fill="none" stroke="#EFC36C" stroke-miterlimit="10" d="M165.164,37.73c0,0-14.393,19.742,7.564,43.174"/>
		<path fill="#FFDF5A" d="M165.418,69.719c0,0,19.118-7.818,25.207-26.27l6.09,8.672c0,0,0.737,20.112-23.434,28.784L165.418,69.719
			z"/>
		<path fill="none" stroke="#F8CD1C" stroke-miterlimit="10" d="M168.854,96.958c0,0,9.408,3.506,29.521-33.766
			c0,0,6.457-11.994-1.662-13.47"/>
		<path fill="none" stroke="#FFEEA9" stroke-miterlimit="10" d="M150.588,93.821c1.477,2.397,18.268,3.137,18.268,3.137"/>
		<path fill="none" stroke="#F8CD1C" stroke-miterlimit="10" d="M152.064,78.323"/>
		<path fill="none" stroke="#F8CD1C" stroke-miterlimit="10" d="M190.357,48.819"/>
		<path fill="#FFF5CC" d="M153.909,61.716c0,0-1.66,10.608,6.089,20.572l3.736,0.231c0,0-7.979-13.978-8.164-21.543
			C155.57,60.979,153.725,60.24,153.909,61.716z"/>
		<polygon fill="#FFDF78" points="160.413,83.166 155.754,95.02 161.611,95.85 163.411,83.719 		"/>
		<path fill="#F2C52E" d="M171.161,78.368c0,0,19.788-8.994,24.217-28.646l1.338,2.398c0,0,0.737,20.113-23.434,28.783
			L171.161,78.368z"/>
		<polygon fill="#FFDF78" points="166.488,83.549 164.754,96.02 166.654,96.049 167.988,83.715 		"/>
	</g>
</g>

</svg>
