<?xml version="1.0" encoding="utf-8"?>
<!-- Generator: Adobe Illustrator 15.0.0, SVG Export Plug-In . SVG Version: 6.00 Build 0)  -->
<!DOCTYPE svg PUBLIC "-//W3C//DTD SVG 1.1//EN" "http://www.w3.org/Graphics/SVG/1.1/DTD/svg11.dtd">
<svg version="1.1" id="Layer_1" xmlns="http://www.w3.org/2000/svg" xmlns:xlink="http://www.w3.org/1999/xlink" x="0px" y="0px"
	 width="240px" height="400px" viewBox="0 0 240 400" enable-background="new 0 0 240 400" xml:space="preserve">
<g id="main_object_masked">
	<g id="main_object" transform="matrix(1, 0, 0, 1, 0, 350)">
		<g id="rocketWithFire_holder" transform="translate(-13 0)">
			<g id="rocketWithFire">
				<g id="burning">
					<polygon fill="#B5BBBE" points="126.586,-148.881 143.998,-148.881 172.719,22.119 97.681,22.119 					"/>
					<polygon id="fireFade" fill="#FFFFFF" points="132.623,-148.881 114.884,22.119 156.98,22.119 137.958,-148.881 					"/>
				</g>
				<g>
					<path fill="#FBD254" d="M149.988-130.449c0,18.126-11.172,32.819-14.541,32.819c-4.606,0-14.541-14.692-14.541-32.819
						c0-18.125,9.753-21.09,14.541-21.09C141.654-151.54,149.988-148.574,149.988-130.449z"/>
					<path fill="#FF0C00" d="M145.861-134.889c0,14.31-8.188,25.91-10.662,25.91c-3.375,0-10.661-11.604-10.661-25.91
						c0-14.309,7.151-16.65,10.661-16.65C139.75-151.54,145.861-149.197,145.861-134.889z"/>
					<path id="fire" fill="#FFF2CD" d="M145.861-134.889c0,14.31-8.188,25.91-10.662,25.91c-3.375,0-10.661-11.604-10.661-25.91
						c0-14.309,7.151-16.65,10.661-16.65C139.75-151.54,145.861-149.197,145.861-134.889z"/>
					<path opacity="0.1" enable-background="new    " d="M135.447-151.54c6.207,0,14.541,2.966,14.541,21.091
						s-11.172,32.818-14.541,32.818"/>
				</g>
				<g id="rocket">
					<path fill="#6D0008" d="M117.832-140.412c-8.504,0.785-5.011-15.544-5.011-15.544l8.84-4.925h26.226l8.779,4.925
						c0,0,3.99,16.419-4.904,15.151C140.294-142.439,130.439-141.574,117.832-140.412z"/>
					<path fill="#EDECE7" d="M134.76-280.957c0,0-12.379-1.871-23.131,25.216c0,0-33.549,85.859,8.479,108.859h14.652V-280.957z"/>
					<path fill="#6D0008" d="M134.76-154.881h16.318l5.586-0.499c0,0,4.128,15.753-5.258,14.243
						c-5.201-0.837-9.043-0.825-15.166-0.799"/>
					<path fill="#F4F3EF" d="M134.76-280.957c0,0,12.33-1.871,23.057,25.216c0,0,33.451,85.859-8.479,108.859H134.76V-280.957z"/>
					<path fill="#C73937" d="M134.76-255.881v-25.076c0,0-12.368-2.196-23.12,24.893"/>
					<path fill="#E54545" d="M134.76-255.881v-25.076c0,0,12.341-2.196,23.066,24.893"/>
					<rect x="105.76" y="-178.881" fill="#3B515E" width="60" height="7"/>
					<circle fill="#A29B95" cx="135.07" cy="-217.915" r="15.162"/>
					<path opacity="0.1" enable-background="new    " d="M134.384-280.957c0,0,12.694-1.871,23.421,25.216
						c0,0,33.207,85.859-8.469,108.859h-14.952c0,0,18.885-6.049,23.585-34.055c4.256-25.357-0.564-57.072-9.045-78.473
						C141.476-278.205,134.384-280.957,134.384-280.957z"/>
					<path fill="#88171A" d="M119.701-142.763c-6.083,1.095-5.934-8.777-5.934-8.777c5.202,2.011,27.921,4.714,41.8,0.036
						c0.416,0.094,0.783,9.696-6.82,8.646C139.23-144.174,130.718-144.746,119.701-142.763z"/>
					<g>
						<g>
							<circle id="SVGID_1_" fill="#9FCFD1" cx="134.928" cy="-217.879" r="12.4"/>
						</g>
						<g>
							<g>
								<g>
									<g>
										<defs>
											<circle id="SVGID_2_" cx="134.928" cy="-217.879" r="12.4"/>
										</defs>
										<clipPath id="SVGID_3_">
											<use xlink:href="#SVGID_2_"  overflow="visible"/>
										</clipPath>
										<path clip-path="url(#SVGID_3_)" fill="#9FCFD1" d="M138.402-231.304c0,0,10.644,13.358-0.709,26.6
											c0,0,7.094-1.419,10.404-7.211c0,0,3.546-6.089-0.77-12.845C147.328-224.76,145.496-228.467,138.402-231.304z"/>
									</g>
								</g>
							</g>
						</g>
					</g>
					<g>
						<g>
							<g>
								<g>
									<g>
										<defs>
											<circle id="SVGID_4_" cx="134.928" cy="-217.879" r="12.4"/>
										</defs>
										<clipPath id="SVGID_6_">
											<use xlink:href="#SVGID_4_"  overflow="visible"/>
										</clipPath>
										<path clip-path="url(#SVGID_6_)" fill="#CAE6E9" d="M138.402-231.304c0,0,10.644,13.358-0.709,26.6
											c0,0,7.094-1.419,10.404-7.211c0,0,3.546-6.089-0.77-12.845C147.328-224.76,145.496-228.467,138.402-231.304z"/>
									</g>
								</g>
							</g>
						</g>
					</g>
					<rect x="105.76" y="-169.881" fill="#3B515E" width="60" height="3"/>
					<path fill="#C73937" d="M98.942-208.604c0,0-27.156,28.55-14.389,64.192c0,0,1.773,2.661,4.256-0.354
						c0,0,10.817-14.541,20.393-12.413C109.202-157.179,108.187-217.649,98.942-208.604z"/>
					<path fill="#E54545" d="M104.446-204.385c-0.972-4.633-3.192-6.481-5.504-4.22c0,0-27.156,28.55-14.389,64.192
						c0,0,1.773,2.661,4.256-0.354C88.809-144.766,78.346-173.492,104.446-204.385z"/>
					<path fill="#C73937" d="M171.199-208.604c0,0,27.156,28.55,14.388,64.192c0,0-1.772,2.661-4.257-0.354
						c0,0-10.817-14.541-20.396-12.413C160.938-157.179,161.953-217.649,171.199-208.604z"/>
					<path fill="#E54545" d="M165.695-204.385c0.976-4.633,3.191-6.481,5.504-4.22c0,0,27.156,28.55,14.391,64.192
						c0,0-1.771,2.661-4.26-0.354C181.33-144.766,191.794-173.492,165.695-204.385z"/>
					<circle fill="#CAE6E9" cx="131.802" cy="-222.448" r="3.27"/>
					<path fill="#C73937" d="M133.496-197.079c0,0-11.708-1.044,0.06,59.524c0.935,3.684,3.229,4.608,4.56,0
						C141.949-171.839,144.314-199.916,133.496-197.079z"/>
					<path fill="#E54545" d="M134.384-191.7c0,0,0.944-2.01,1.3,47.17c0.253,3.089,0.151,6.257,1.301-0.118
						C139.23-165.454,139.216-192.781,134.384-191.7z"/>
					<circle fill="#939393" cx="134.361" cy="-244.515" r="4.88"/>
					<g>
						<g>
							<circle id="SVGID_5_" fill="#9FCFD1" cx="134.316" cy="-244.503" r="3.992"/>
						</g>
						<g>
							<g>
								<g>
									<g>
										<defs>
											<circle id="SVGID_7_" cx="134.316" cy="-244.503" r="3.992"/>
										</defs>
										<clipPath id="SVGID_8_">
											<use xlink:href="#SVGID_7_"  overflow="visible"/>
										</clipPath>
										<path clip-path="url(#SVGID_8_)" fill="#9FCFD1" d="M135.434-248.824c0,0,3.426,4.301-0.229,8.563
											c0,0,2.283-0.457,3.349-2.321c0,0,1.144-1.96-0.247-4.135C138.307-246.718,137.718-247.912,135.434-248.824z"/>
									</g>
								</g>
							</g>
						</g>
					</g>
					<g>
						<g>
							<g>
								<g>
									<g>
										<defs>
											<circle id="SVGID_9_" cx="134.316" cy="-244.503" r="3.992"/>
										</defs>
										<clipPath id="SVGID_10_">
											<use xlink:href="#SVGID_9_"  overflow="visible"/>
										</clipPath>
										<path clip-path="url(#SVGID_10_)" fill="#CAE6E9" d="M135.434-248.824c0,0,3.426,4.301-0.229,8.563
											c0,0,2.283-0.457,3.349-2.321c0,0,1.144-1.96-0.247-4.135C138.307-246.718,137.718-247.912,135.434-248.824z"/>
									</g>
								</g>
							</g>
						</g>
					</g>
				</g>
			</g>
		</g>
		<g id="smoke">
			<path fill="#B5BBBE" d="M39.249,50.001c-3.495-4.647-5.533-10.238-5.533-16.253c0-16.152,14.703-29.248,32.84-29.248
				s32.84,13.096,32.84,29.248c0,6.014-2.038,11.604-5.532,16.252"/>
			<path fill="#B5BBBE" d="M74.406,49.995c-1.466-3.988-2.266-8.299-2.266-12.796c0-20.49,16.61-37.101,37.1-37.101
				s37.1,16.61,37.1,37.101c0,4.499-0.801,8.811-2.268,12.801"/>
			<path fill="#B5BBBE" d="M120.691,50.001c3.558-20.275,21.254-35.682,42.549-35.682c21.293,0,38.987,15.404,42.547,35.677"/>
			<path fill="#B5BBBE" d="M187.888,50.001c5.832-4.061,12.922-6.441,20.567-6.441s14.734,2.38,20.567,6.44"/>
			<path fill="#B5BBBE" d="M8.042,50c6.479-6.686,15.553-10.841,25.597-10.841c10.046,0,19.121,4.156,25.6,10.843"/>
		</g>
	</g>
</g>

</svg>
