<?xml version="1.0" encoding="utf-8"?>
<!-- Generator: Adobe Illustrator 19.0.0, SVG Export Plug-In . SVG Version: 6.00 Build 0)  -->
<svg version="1.1" id="seoPerformanceIcon" xmlns="http://www.w3.org/2000/svg" xmlns:xlink="http://www.w3.org/1999/xlink" x="0px"
	 y="0px" viewBox="-212 88 75 75" style="enable-background:new -212 88 75 75;" xml:space="preserve">
<style type="text/css">
	.st0{fill:none;stroke:#000000;stroke-width:1.17;stroke-linecap:round;stroke-linejoin:round;stroke-miterlimit:10;}
</style>
<g>
	<g>
		<path id="path7" class="st0" d="M-196.3,145.2v-13.7c0-1,0.8-1.8,1.8-1.8h2.8c1,0,1.8,0.8,1.8,1.8v13.7c0,1-0.8,1.8-1.8,1.8h-2.8
			C-195.4,147-196.3,146.2-196.3,145.2z"/>
		<path id="path6" class="st0" d="M-186.9,145.4v-22.8c0-0.9,0.7-1.6,1.6-1.6h3.3c0.9,0,1.6,0.7,1.6,1.6v22.8c0,0.9-0.7,1.6-1.6,1.6
			h-3.3C-186.3,147-186.9,146.3-186.9,145.4z"/>
		<path id="path5" class="st0" d="M-177.9,145.4v-18.9c0-0.9,0.7-1.6,1.6-1.6h3.3c0.9,0,1.6,0.7,1.6,1.6v18.9c0,0.9-0.7,1.6-1.6,1.6
			h-3.3C-177.3,147-177.9,146.3-177.9,145.4z"/>
		<path id="path4" class="st0" d="M-168.9,145.4v-25.6c0-0.9,0.7-1.6,1.6-1.6h3.3c0.9,0,1.6,0.7,1.6,1.6v25.6c0,0.9-0.7,1.6-1.6,1.6
			h-3.3C-168.2,147-168.9,146.3-168.9,145.4z"/>
		<path id="path3" class="st0" d="M-159.4,145.4v-31.1c0-0.9,0.7-1.6,1.6-1.6h3.2c0.9,0,1.6,0.7,1.6,1.6v31.1c0,0.9-0.7,1.6-1.6,1.6
			h-3.2C-158.8,147-159.4,146.3-159.4,145.4z"/>
		<path id="path2" class="st0" d="M-201.9,142.2c6.2-3,12.3-5.9,18.4-8.9c3,2.1,6,4.3,9,6.3c8.8-4.5,18.7-9.4,27.5-14"/>
		<path id="path1" class="st0" d="M-201.9,142.2c6.2-3,12.3-5.9,18.4-8.9c3,2.1,6,4.3,9,6.3c8.8-4.5,18.7-9.4,27.5-14"/>
		<path id="path0" class="st0" d="M-201.9,142.2c6.2-3,12.3-5.9,18.4-8.9c3,2.1,6,4.3,9,6.3c8.8-4.5,18.7-9.4,27.5-14"/>
	</g>
	<g id="stars_1_">
		<path id="star5" d="M-175.9,114.5c-1.1,0-2,0.9-2,2s0.9,2,2,2s2-0.9,2-2S-174.9,114.5-175.9,114.5z M-175.9,118
			c-0.8,0-1.5-0.6-1.5-1.5c0-0.8,0.6-1.5,1.5-1.5c0.8,0,1.5,0.6,1.5,1.5S-175.3,118-175.9,118z"/>
		<path id="star4" d="M-188.3,113.6c-0.8,0-1.5,0.6-1.5,1.5s0.6,1.5,1.5,1.5s1.5-0.6,1.5-1.5C-186.8,114.2-187.4,113.6-188.3,113.6z
			 M-188.3,116.2c-0.6,0-1.1-0.5-1.1-1.1s0.5-1.1,1.1-1.1s1.1,0.5,1.1,1.1S-187.8,116.2-188.3,116.2z"/>
		<path id="star3" d="M-163.9,106.5c-2.2,0-2.9-0.6-2.9-2.9c0-0.2-0.1-0.2-0.2-0.2c-0.2,0-0.2,0.1-0.2,0.2c0,2.2-0.7,2.9-2.9,2.9
			c-0.1,0-0.2,0.1-0.2,0.2s0.1,0.2,0.2,0.2c2.2,0,2.9,0.6,2.9,2.9c0,0.2,0.1,0.2,0.2,0.2c0.2,0,0.2-0.1,0.2-0.2
			c0-2.2,0.6-2.9,2.9-2.9c0.2,0,0.2-0.1,0.2-0.2C-163.8,106.5-163.9,106.5-163.9,106.5z M-167.1,108c-0.2-0.6-0.6-1.1-1.3-1.3
			c0.6-0.2,1.1-0.6,1.3-1.3c0.2,0.6,0.6,1.1,1.3,1.3C-166.3,106.9-166.8,107.2-167.1,108z"/>
		<path id="star2" d="M-192.3,120c-1.8,0-2.2-0.6-2.2-2.3c0-0.2-0.1-0.2-0.2-0.2c-0.2,0-0.2,0.1-0.2,0.2c0,1.8-0.6,2.3-2.3,2.3
			c-0.2,0-0.2,0.1-0.2,0.2s0.1,0.2,0.2,0.2c1.8,0,2.3,0.6,2.3,2.3c0,0.2,0.1,0.2,0.2,0.2c0.2,0,0.2-0.1,0.2-0.2
			c0-1.8,0.6-2.3,2.3-2.3c0.1,0,0.2-0.1,0.2-0.2S-192.2,120-192.3,120z M-194.8,121.3c-0.2-0.6-0.6-0.9-1.1-1.1
			c0.6-0.2,0.9-0.6,1.1-1.1c0.2,0.6,0.6,0.9,1.1,1.1C-194.3,120.4-194.6,120.8-194.8,121.3z"/>
		<path id="star1" d="M-148.3,108.3c-1.6,0-2.1-0.5-2.1-2.1c0-0.1-0.1-0.2-0.2-0.2s-0.2,0.1-0.2,0.2c0,1.6-0.5,2.1-2.1,2.1
			c-0.1,0-0.2,0.1-0.2,0.2s0.1,0.2,0.2,0.2c1.6,0,2.1,0.5,2.1,2.1c0,0.1,0.1,0.2,0.2,0.2s0.2-0.1,0.2-0.2c0-1.6,0.5-2.1,2.1-2.1
			c0.1,0,0.2-0.1,0.2-0.2S-148.3,108.3-148.3,108.3z M-150.6,109.4c-0.2-0.5-0.5-0.7-1-0.9c0.5-0.2,0.7-0.5,1-1
			c0.2,0.5,0.5,0.8,0.9,1C-150.2,108.7-150.4,109-150.6,109.4z"/>
	</g>
</g>
</svg>
