<?xml version="1.0" encoding="utf-8"?>
<!-- Generator: Adobe Illustrator 18.1.1, SVG Export Plug-In . SVG Version: 6.00 Build 0)  -->
<!DOCTYPE svg PUBLIC "-//W3C//DTD SVG 1.1//EN" "http://www.w3.org/Graphics/SVG/1.1/DTD/svg11.dtd">
<svg version="1.1" id="smartphoneIcon" xmlns="http://www.w3.org/2000/svg" xmlns:xlink="http://www.w3.org/1999/xlink" x="0px"
	 y="0px" width="75px" height="75px" viewBox="0 0 75 75" enable-background="new 0 0 75 75" xml:space="preserve">
<path id="phone" fill="#414042" d="M26.5,58.2c0,1.7,1.4,3.1,3.1,3.1h18.2c1.7,0,3.1-1.4,3.1-3.1V16.8c0-1.7-1.4-3.1-3.1-3.1H29.6
	c-1.7,0-3.1,1.4-3.1,3.1V58.2z"/>
<rect id="background" x="27.7" y="18.5" fill="#FFFFFF" width="22" height="37.8"/>
<path id="speaker" fill="#FFFFFF" d="M34.5,16.4c0,0.4,0.3,0.7,0.7,0.7h7.1c0.4,0,0.7-0.3,0.7-0.7l0,0c0-0.4-0.3-0.7-0.7-0.7h-7.1
	C34.8,15.8,34.5,16.1,34.5,16.4L34.5,16.4z"/>
<g id="gearBlueAll">
	<path id="gearBlueShadow" opacity="0.29" enable-background="new    " d="M61.2,39.7l-2-1.1l-0.1-2.3l1.9-1.2l0,0
		c-0.2-0.9-0.5-1.7-0.9-2.5l0,0l-2.2,0.3l-1.4-1.8l0.9-2.1l0,0c-0.3-0.3-0.7-0.6-1.1-0.8c-0.4-0.2-0.7-0.5-1.1-0.7l0,0l-1.6,1.6
		l-2.2-0.4l-0.6-2.2l0,0c-0.9-0.1-1.8,0-2.6,0.1l0,0l-0.4,2.2l-2.1,0.8L44,28.1l0,0c-0.7,0.4-1.4,1-2,1.6l0,0l1,2l-1.3,1.9l-2.3-0.2
		l0,0c-0.3,0.8-0.6,1.7-0.7,2.5l0,0l2,1.1l0.1,2.3l-1.9,1.2l0,0c0.2,0.9,0.5,1.7,0.9,2.5l0,0l2.2-0.3l1.4,1.8l-0.8,2.1l0,0
		c0.3,0.3,0.7,0.6,1.1,0.8c0.4,0.2,0.7,0.4,1.1,0.6l0,0l1.6-1.6l2.2,0.6l0.6,2.2l0,0c0.9,0.1,1.8,0,2.6-0.1l0,0l0.4-2.2l2.1-0.8
		l1.7,1.5l0,0c0.7-0.4,1.5-1,2.1-1.6l0,0l-1-2l1.3-1.9l2.3,0.2l0,0C60.9,41.4,61.1,40.6,61.2,39.7L61.2,39.7z M55,37.9
		c0,2.7-2.2,5-5,5c-2.7,0-5-2.2-5-5c0-2.7,2.2-5,5-5C52.7,32.9,55,35.1,55,37.9z"/>
	<path id="gearBlue" fill="#4ABFC6" d="M60.6,38.8l-2-1.1l-0.1-2.3l1.9-1.2l0,0c-0.2-0.9-0.5-1.7-0.9-2.5l0,0L57.3,32l-1.4-1.8
		l0.9-2.1l0,0c-0.3-0.3-0.7-0.6-1.1-0.8c-0.4-0.2-0.7-0.5-1.1-0.7l0,0L53,28.2l-2.2-0.6l-0.6-2.2l0,0c-0.9-0.1-1.8,0-2.6,0.1l0,0
		l-0.4,2.2l-2.1,0.8l-1.7-1.3l0,0c-0.7,0.4-1.4,1-2,1.6l0,0l1,2l-1.3,1.9l-2.3-0.2l0,0c-0.3,0.8-0.6,1.7-0.7,2.5l0,0l2,1.1l0.1,2.3
		l-1.8,1.1l0,0c0.2,0.9,0.5,1.7,0.9,2.5l0,0l2.2-0.3l1.4,1.8L42,45.6l0,0c0.3,0.3,0.7,0.6,1.1,0.8c0.4,0.2,0.7,0.4,1.1,0.6l0,0
		l1.6-1.6L48,46l0.5,2.2l0,0c0.9,0.1,1.8,0,2.6-0.1l0,0l0.4-2.2l2.1-0.8l1.7,1.5l0,0c0.7-0.4,1.5-1,2.1-1.6l0,0l-1-2l1.3-1.9
		l2.3,0.2l0,0C60.3,40.5,60.5,39.6,60.6,38.8L60.6,38.8z M45.7,42.5c-3.1-2.1-3.9-6.3-1.9-9.3c2.1-3.1,6.2-3.9,9.3-1.9
		c3.1,2.1,3.9,6.3,1.9,9.3C52.9,43.7,48.7,44.6,45.7,42.5z"/>
	<path fill="#388F95" d="M49.4,29.6c-4,0-7.3,3.3-7.3,7.3s3.3,7.3,7.3,7.3s7.3-3.3,7.3-7.3S53.4,29.6,49.4,29.6z M49.4,41.9
		c-2.7,0-5-2.2-5-5c0-2.7,2.2-5,5-5c2.7,0,4.9,2.2,4.9,5C54.4,39.6,52.1,41.9,49.4,41.9z"/>
</g>
<g>
	<g>
		<defs>
			<rect id="phonemask" x="27.7" y="18.5" width="22" height="37.8"/>
		</defs>
		<clipPath id="phonemask_1_">
			<use xlink:href="#phonemask"  overflow="visible"/>
		</clipPath>
		<g clip-path="url(#phonemask_1_)">
			<g id="gearRedAll">
				<path fill="#B55435" d="M33.7,16.4c2.5,2.5,2.6,6.5,0.2,9c-2.4,2.5-6.5,2.6-9,0.2l0,0l-2.1,2.2l0,0c3.7,3.6,9.7,3.5,13.3-0.2
					s3.5-9.7-0.2-13.3l-0.1-0.1L33.7,16.4C33.6,16.3,33.6,16.3,33.7,16.4z"/>
				<path id="gearRed" fill="#F17046" d="M43.9,20.9L41.1,20l-0.6-2.9l2.2-2l0,0c-0.5-1.1-1-2-1.7-2.9v0.1l-2.8,0.9l-0.9-0.9l0,0
					l-1.4-1.2l0.6-2.9l0,0c-1-0.6-2-1-3.1-1.4l0,0l-1.7,2.4L28.9,9l-1.2-2.7l0,0c-0.6,0.1-1.1,0.1-1.7,0.3c-0.6,0-1.1,0.2-1.6,0.4
					l0,0v2.9l-2.5,1.5l-2.5-1.5l0,0c-1,0.7-1.7,1.1-2.3,2.1h0.1l1.7,2.6l-1.2,2.8l-2.9,0.4l0,0c-0.3,1-0.4,2.1-0.4,3.2l0,0l2.8,0.9
					l0.6,2.9l-2.2,2l0,0c0.5,1.1,1,2,1.7,2.9v-0.1l2.8-0.9l0.9,0.9l0,0l1.4,1.2l-0.6,2.9l0,0c1,0.6,2,1,3.1,1.4l0,0l1.7-2.4l2.9,0.3
					l1.2,2.7l0,0c0.6-0.1,1.1-0.1,1.7-0.3c0.6-0.1,1.1-0.3,1.6-0.5l0,0V32l2.7-1.5l2.7,1.5l0,0c0-0.8,1.4-1.6,2.1-2.5h-0.2l-1.8-2.4
					l1.2-2.7l2.9-0.3l0,0C43.9,23.1,44,22,43.9,20.9L43.9,20.9z M31.1,29.5c-3,0.6-5.9-0.3-7.9-2.3l0,0c-1.3-1.2-2.2-2.7-2.6-4.5
					c-1-4.7,2-9.3,6.7-10.3c3-0.6,5.9,0.3,7.9,2.3l0,0c1.3,1.2,2.2,2.7,2.6,4.5C38.8,23.8,35.8,28.4,31.1,29.5z"/>
			</g>
		</g>
	</g>
</g>
<path id="glare" opacity="0.3" fill="#FFFFFF" enable-background="new    " d="M47.5,13.7H29.6c-1.7,0-3.1,1.4-3.1,3.1v34.5
	L47.5,13.7z"/>
<path id="star1" fill="#FFFFFF" d="M55.1,23c-1.4,0.2-1.5,0.3-1.7,1.7c-0.2-1.4-0.3-1.5-1.7-1.7c1.4-0.2,1.5-0.3,1.7-1.7
	C53.6,22.7,53.7,22.8,55.1,23z"/>
<path id="star2" fill="#FFFFFF" d="M65.3,21.5c-2.9,0.4-3.2,0.7-3.6,3.6c-0.4-2.9-0.7-3.2-3.6-3.6c2.9-0.4,3.2-0.7,3.6-3.6
	C62.1,20.8,62.4,21.1,65.3,21.5z"/>
<path id="star3" fill="#FFFFFF" d="M57.6,17c-2,0.3-2.2,0.5-2.5,2.5c-0.3-2-0.5-2.2-2.5-2.5c2-0.3,2.2-0.5,2.5-2.5
	C55.4,16.6,55.6,16.8,57.6,17z"/>
</svg>
