<?xml version="1.0" encoding="utf-8"?>
<!-- Generator: Adobe Illustrator 18.1.1, SVG Export Plug-In . SVG Version: 6.00 Build 0)  -->
<!DOCTYPE svg PUBLIC "-//W3C//DTD SVG 1.1//EN" "http://www.w3.org/Graphics/SVG/1.1/DTD/svg11.dtd">
<svg version="1.1" id="socialNetworkIcon" xmlns="http://www.w3.org/2000/svg" xmlns:xlink="http://www.w3.org/1999/xlink" x="0px"
	 y="0px" width="75px" height="75px" viewBox="0 0 75 75" enable-background="new 0 0 75 75" xml:space="preserve">
<g id="stars">
	<path id="star8" fill="#FFFFFF" d="M53.7,15.5c-1.5,0.2-1.6,0.3-1.8,1.8c-0.2-1.5-0.3-1.6-1.8-1.8c1.5-0.2,1.6-0.3,1.8-1.8
		C52.1,15.2,52.2,15.3,53.7,15.5z"/>
	<path id="star7" fill="#FFFFFF" d="M30,16.1c-2,0.3-2.3,0.5-2.5,2.5c-0.3-2-0.5-2.3-2.5-2.5c2-0.3,2.3-0.5,2.5-2.5
		C27.7,15.6,28,15.8,30,16.1z"/>
	<path id="star6" fill="#FFFFFF" d="M73.5,38.2c-1.9,0.3-2.1,0.5-2.4,2.4c-0.3-1.9-0.5-2.1-2.4-2.4c1.9-0.3,2.1-0.5,2.4-2.4
		C71.3,37.7,71.5,37.9,73.5,38.2z"/>
	<path id="star5" fill="#FFFFFF" d="M28,58.4c-1.9,0.3-2.1,0.5-2.4,2.4c-0.3-1.9-0.5-2.1-2.4-2.4c1.9-0.3,2.1-0.5,2.4-2.4
		C25.9,57.9,26.1,58.1,28,58.4z"/>
	<path id="star4" fill="#FFFFFF" d="M18.9,38.6c-1.9,0.3-2.1,0.5-2.4,2.4c-0.3-1.9-0.5-2.1-2.4-2.4c1.9-0.3,2.1-0.5,2.4-2.4
		C16.7,38.2,16.9,38.4,18.9,38.6z"/>
	<path id="star3" fill="#FFFFFF" d="M12.1,35.3c-2.1,0.3-2.3,0.5-2.6,2.6c-0.3-2.1-0.5-2.3-2.6-2.6C9,35,9.2,34.8,9.5,32.7
		C9.8,34.8,10,35.1,12.1,35.3z"/>
	<path id="star2" fill="#FFFFFF" d="M66.5,41.4c-2.6,0.3-2.9,0.6-3.2,3.2c-0.3-2.6-0.6-2.9-3.2-3.2c2.6-0.3,2.9-0.6,3.2-3.2
		C63.6,40.8,63.9,41,66.5,41.4z"/>
	<path id="star1" fill="#FFFFFF" d="M55.1,59.3c-2.6,0.3-2.9,0.6-3.2,3.2c-0.3-2.6-0.6-2.9-3.2-3.2c2.6-0.3,2.9-0.6,3.2-3.2
		C52.2,58.7,52.5,58.9,55.1,59.3z"/>
</g>
<g id="lines">
	
		<rect id="line0" x="6.3" y="29.1" transform="matrix(-0.8588 -0.5123 0.5123 -0.8588 29.5332 66.6778)" fill="#FFFFFF" width="35.3" height="0.3"/>
	
		<rect id="line1" x="51.8" y="18.5" transform="matrix(-0.4484 -0.8938 0.8938 -0.4484 46.8753 92.2493)" fill="#FFFFFF" width="0.3" height="26.3"/>
	
		<rect id="line2" x="27.2" y="31.8" transform="matrix(-0.3721 -0.9282 0.9282 -0.3721 -3.7912 86.3574)" fill="#FFFFFF" width="0.3" height="25.3"/>
	
		<rect id="line3" x="38.6" y="47.4" transform="matrix(-0.8768 -0.4808 0.4808 -0.8768 78.3543 115.1451)" fill="#FFFFFF" width="30.7" height="0.3"/>
</g>
<g>
	<g id="circle0">
		<path fill="#FFFFFF" d="M39.1,52.8L39.1,52.8c-0.4,0-0.7,0-1,0v-0.3c0.3,0,0.7,0,1,0V52.8z M40.1,52.8v-0.3c0.3,0,0.7-0.1,1-0.1
			v0.3C40.8,52.7,40.5,52.8,40.1,52.8z M37,52.7c-0.3,0-0.7-0.1-1-0.2l0.1-0.2c0.3,0.1,0.7,0.1,1,0.2L37,52.7z M42.2,52.5l-0.1-0.2
			c0.3-0.1,0.7-0.2,1-0.3l0.1,0.2C42.9,52.4,42.5,52.4,42.2,52.5z M35,52.3c-0.3-0.1-0.7-0.2-1-0.3l0.1-0.2c0.3,0.1,0.6,0.2,1,0.3
			L35,52.3z M44.2,51.9l-0.1-0.2c0.3-0.1,0.6-0.2,0.9-0.4l0.1,0.2C44.8,51.7,44.5,51.8,44.2,51.9z M33.1,51.5
			c-0.3-0.1-0.6-0.3-0.9-0.5l0.1-0.2c0.3,0.2,0.6,0.3,0.9,0.5L33.1,51.5z M46,51.1l-0.1-0.2c0.3-0.2,0.6-0.3,0.9-0.5l0.1,0.2
			C46.7,50.7,46.4,50.9,46,51.1z M31.2,50.5c-0.3-0.2-0.6-0.4-0.9-0.6l0.2-0.2c0.3,0.2,0.6,0.4,0.8,0.6L31.2,50.5z M47.8,49.9
			l-0.2-0.2c0.3-0.2,0.5-0.4,0.8-0.6l0.2,0.2C48.3,49.5,48.1,49.7,47.8,49.9z M29.6,49.3c-0.3-0.2-0.5-0.5-0.8-0.7l0.2-0.2
			c0.2,0.2,0.5,0.5,0.7,0.7L29.6,49.3z M49.4,48.6l-0.2-0.2c0.2-0.2,0.5-0.5,0.7-0.7l0.2,0.2C49.8,48.1,49.6,48.3,49.4,48.6z
			 M28.1,47.8c-0.2-0.3-0.4-0.5-0.7-0.8l0.2-0.2c0.2,0.3,0.4,0.5,0.6,0.8L28.1,47.8z M50.7,47l-0.2-0.2c0.2-0.3,0.4-0.6,0.6-0.8
			l0.2,0.1C51.1,46.5,50.9,46.7,50.7,47z M26.9,46.2c-0.2-0.3-0.4-0.6-0.5-0.9l0.2-0.1c0.2,0.3,0.3,0.6,0.5,0.9L26.9,46.2z
			 M51.8,45.3l-0.2-0.1c0.2-0.3,0.3-0.6,0.5-0.9l0.2,0.1C52.2,44.7,52,45,51.8,45.3z M25.9,44.4c-0.1-0.3-0.3-0.6-0.4-1l0.2-0.1
			c0.1,0.3,0.2,0.6,0.4,0.9L25.9,44.4z M52.7,43.4l-0.2-0.1c0.1-0.3,0.2-0.6,0.3-1l0.2,0.1C52.9,42.7,52.8,43.1,52.7,43.4z
			 M25.1,42.4c-0.1-0.3-0.2-0.7-0.3-1l0.2-0.1c0.1,0.3,0.2,0.7,0.3,1L25.1,42.4z M53.3,41.4L53,41.3c0.1-0.3,0.1-0.7,0.2-1h0.3
			C53.4,40.7,53.4,41.1,53.3,41.4z M24.7,40.4c0-0.3-0.1-0.7-0.1-1h0.3c0,0.3,0.1,0.7,0.1,1H24.7z M53.6,39.3h-0.3c0-0.3,0-0.7,0-1
			v-0.1h0.3v0.1C53.6,38.7,53.6,39,53.6,39.3z M24.5,38.3L24.5,38.3c0-0.4,0-0.7,0-1h0.3c0,0.3,0,0.7,0,1H24.5z M53.3,37.2
			c0-0.3-0.1-0.7-0.1-1h0.3c0.1,0.3,0.1,0.7,0.1,1H53.3z M24.9,36.3h-0.3c0-0.3,0.1-0.7,0.2-1l0.2,0.1C25,35.6,25,36,24.9,36.3z
			 M53,35.2c-0.1-0.3-0.2-0.7-0.3-1l0.2-0.1c0.1,0.3,0.2,0.7,0.3,1L53,35.2z M25.4,34.3l-0.2-0.1c0.1-0.3,0.2-0.7,0.3-1l0.2,0.1
			C25.6,33.7,25.5,34,25.4,34.3z M52.4,33.3c-0.1-0.3-0.3-0.6-0.4-0.9l0.2-0.1c0.1,0.3,0.3,0.6,0.4,1H52.4z M26.1,32.4l-0.2-0.1
			c0.1-0.3,0.3-0.6,0.5-0.9l0.2,0.1C26.4,31.8,26.2,32.1,26.1,32.4z M51.6,31.4c-0.2-0.3-0.3-0.6-0.5-0.9l0.2-0.1
			c0.2,0.3,0.4,0.6,0.5,0.9L51.6,31.4z M27,30.6l-0.2-0.1c0.2-0.3,0.4-0.6,0.6-0.9l0.2,0.2C27.4,30.1,27.2,30.3,27,30.6z M50.5,29.7
			c-0.2-0.3-0.4-0.5-0.6-0.8l0.2-0.2c0.2,0.3,0.4,0.5,0.7,0.8L50.5,29.7z M28.3,29l-0.2-0.2c0.2-0.3,0.5-0.5,0.7-0.8l0.2,0.2
			C28.7,28.5,28.5,28.7,28.3,29z M49.1,28.2c-0.2-0.2-0.5-0.5-0.7-0.7l0.2-0.2c0.3,0.2,0.5,0.5,0.8,0.7L49.1,28.2z M29.7,27.5
			l-0.2-0.2c0.3-0.2,0.5-0.4,0.8-0.7l0.2,0.2C30.2,27.1,30,27.3,29.7,27.5z M47.6,26.8c-0.3-0.2-0.6-0.4-0.8-0.6l0.1-0.2
			c0.3,0.2,0.6,0.4,0.9,0.6L47.6,26.8z M31.3,26.3l-0.1-0.2c0.3-0.2,0.6-0.4,0.9-0.5l0.1,0.2C31.9,26,31.6,26.1,31.3,26.3z
			 M45.9,25.8c-0.3-0.2-0.6-0.3-0.9-0.5l0.1-0.2c0.3,0.1,0.6,0.3,0.9,0.5L45.9,25.8z M33.1,25.3L33,25.1c0.3-0.1,0.6-0.3,1-0.4
			l0.1,0.2C33.7,25.1,33.4,25.2,33.1,25.3z M44,24.9c-0.3-0.1-0.6-0.2-1-0.3l0.1-0.2c0.3,0.1,0.7,0.2,1,0.3L44,24.9z M35,24.6
			l-0.1-0.2c0.3-0.1,0.7-0.2,1-0.3l0.1,0.2C35.7,24.4,35.3,24.5,35,24.6z M42.1,24.3c-0.3-0.1-0.7-0.1-1-0.2v-0.3
			c0.3,0,0.7,0.1,1,0.2V24.3z M37,24.2v-0.3c0.3,0,0.7-0.1,1-0.1v0.3C37.7,24.1,37.3,24.1,37,24.2z M40,24.1c-0.3,0-0.6,0-1,0l0,0
			v-0.3l0,0c0.3,0,0.7,0,1,0V24.1z"/>
	</g>
	<g id="circle1">
		<path fill="#FFFFFF" d="M39.1,56.9L39.1,56.9c-0.5,0-0.9,0-1.3,0v-0.3c0.4,0,0.9,0,1.3,0V56.9z M40.4,56.8v-0.3
			c0.4,0,0.9-0.1,1.3-0.1v0.3C41.3,56.7,40.9,56.8,40.4,56.8z M36.4,56.7c-0.4-0.1-0.9-0.1-1.3-0.2l0.1-0.3c0.4,0.1,0.9,0.2,1.3,0.2
			L36.4,56.7z M43.1,56.4L43,56.1c0.4-0.1,0.9-0.2,1.3-0.3l0.1,0.3C43.9,56.2,43.5,56.3,43.1,56.4z M33.8,56.1
			c-0.4-0.1-0.8-0.3-1.3-0.4l0.1-0.3c0.4,0.2,0.8,0.3,1.2,0.4V56.1z M45.6,55.7l-0.1-0.3c0.4-0.2,0.8-0.3,1.2-0.5l0.1,0.3
			C46.4,55.4,46,55.5,45.6,55.7z M31.4,55.2c-0.4-0.2-0.8-0.4-1.2-0.6l0.2-0.3c0.4,0.2,0.8,0.4,1.2,0.6L31.4,55.2z M48,54.6
			l-0.2-0.3c0.4-0.2,0.8-0.4,1.1-0.7l0.2,0.3C48.8,54.1,48.4,54.4,48,54.6z M29,53.9c-0.4-0.2-0.7-0.5-1.1-0.8l0.2-0.3
			c0.3,0.3,0.7,0.5,1.1,0.7L29,53.9z M50.3,53.1l-0.2-0.3c0.3-0.3,0.7-0.5,1-0.8l0.2,0.2C51,52.6,50.6,52.9,50.3,53.1z M26.9,52.3
			c-0.3-0.3-0.7-0.6-1-0.9l0.2-0.2c0.3,0.3,0.6,0.6,1,0.9L26.9,52.3z M52.3,51.4L52,51.2c0.3-0.3,0.6-0.6,0.9-1l0.2,0.2
			C52.9,50.8,52.6,51.1,52.3,51.4z M25,50.4c-0.3-0.3-0.6-0.7-0.8-1l0.3-0.2c0.3,0.3,0.5,0.7,0.8,1L25,50.4z M54,49.4l-0.3-0.2
			c0.3-0.3,0.5-0.7,0.7-1.1l0.3,0.2C54.5,48.7,54.3,49,54,49.4z M23.4,48.3c-0.2-0.4-0.5-0.8-0.7-1.1L23,47c0.2,0.4,0.4,0.8,0.7,1.1
			L23.4,48.3z M55.4,47.1L55.2,47c0.2-0.4,0.4-0.8,0.6-1.2L56,46C55.9,46.4,55.7,46.8,55.4,47.1z M22.1,46c-0.2-0.4-0.4-0.8-0.5-1.2
			l0.3-0.1c0.2,0.4,0.3,0.8,0.5,1.2L22.1,46z M56.6,44.7l-0.3-0.1c0.2-0.4,0.3-0.8,0.4-1.2l0.3,0.1C56.8,43.9,56.7,44.3,56.6,44.7z
			 M21.2,43.5c-0.1-0.4-0.2-0.9-0.3-1.3l0.3-0.1c0.1,0.4,0.2,0.8,0.3,1.3L21.2,43.5z M57.3,42.2L57,42.1c0.1-0.4,0.2-0.9,0.2-1.3
			h0.3C57.5,41.3,57.4,41.7,57.3,42.2z M20.6,40.9c-0.1-0.4-0.1-0.9-0.1-1.3h0.3c0,0.4,0.1,0.9,0.1,1.3H20.6z M57.7,39.5h-0.3
			c0-0.4,0-0.9,0-1.3v-0.1h0.3v0.1C57.7,38.7,57.7,39.1,57.7,39.5z M20.4,38.3L20.4,38.3c0-0.5,0-0.9,0-1.3h0.3c0,0.4,0,0.8,0,1.3
			H20.4z M57.3,36.8c0-0.4-0.1-0.9-0.1-1.3h0.3c0.1,0.4,0.1,0.9,0.1,1.3H57.3z M20.9,35.7h-0.3c0.1-0.4,0.1-0.9,0.2-1.3l0.3,0.1
			C21.1,34.8,21,35.2,20.9,35.7z M57,34.2c-0.1-0.4-0.2-0.9-0.3-1.3l0.3-0.1c0.1,0.4,0.2,0.9,0.3,1.3L57,34.2z M21.5,33.1L21.2,33
			c0.1-0.4,0.3-0.9,0.4-1.3l0.3,0.1C21.7,32.3,21.6,32.7,21.5,33.1z M56.2,31.7c-0.2-0.4-0.3-0.8-0.5-1.2l0.3-0.1
			c0.2,0.4,0.4,0.8,0.5,1.2L56.2,31.7z M22.4,30.6l-0.3-0.1c0.2-0.4,0.4-0.8,0.6-1.2l0.3,0.2C22.8,29.9,22.6,30.3,22.4,30.6z
			 M55.1,29.4c-0.2-0.4-0.4-0.8-0.7-1.1l0.3-0.2c0.2,0.4,0.5,0.8,0.7,1.1L55.1,29.4z M23.6,28.3l-0.3-0.2c0.2-0.4,0.5-0.7,0.8-1.1
			l0.3,0.2C24.1,27.6,23.9,28,23.6,28.3z M53.7,27.2c-0.3-0.3-0.5-0.7-0.8-1l0.2-0.2c0.3,0.3,0.6,0.7,0.8,1L53.7,27.2z M25.2,26.3
			L25,26c0.3-0.3,0.6-0.7,0.9-1l0.2,0.2C25.8,25.6,25.5,25.9,25.2,26.3z M52,25.2c-0.3-0.3-0.6-0.6-1-0.9l0.2-0.2
			c0.3,0.3,0.7,0.6,1,0.9L52,25.2z M27,24.4l-0.2-0.2c0.3-0.3,0.7-0.6,1-0.8l0.2,0.3C27.7,23.8,27.4,24.1,27,24.4z M50,23.5
			c-0.3-0.3-0.7-0.5-1.1-0.7l0.2-0.3c0.4,0.2,0.7,0.5,1.1,0.8L50,23.5z M29.1,22.8L29,22.6c0.4-0.2,0.8-0.5,1.1-0.7l0.2,0.3
			C29.9,22.4,29.5,22.6,29.1,22.8z M47.8,22.1c-0.4-0.2-0.8-0.4-1.2-0.6l0.1-0.3c0.4,0.2,0.8,0.4,1.2,0.6L47.8,22.1z M31.4,21.6
			l-0.1-0.3c0.4-0.2,0.8-0.4,1.2-0.5l0.1,0.3C32.2,21.2,31.8,21.4,31.4,21.6z M45.4,21c-0.4-0.2-0.8-0.3-1.2-0.4l0.1-0.3
			c0.4,0.1,0.8,0.3,1.3,0.4L45.4,21z M33.9,20.7l-0.1-0.3c0.4-0.1,0.9-0.2,1.3-0.3l0.1,0.3C34.7,20.4,34.3,20.5,33.9,20.7z
			 M42.9,20.3c-0.4-0.1-0.9-0.2-1.3-0.2v-0.3c0.4,0.1,0.9,0.1,1.3,0.2V20.3z M36.4,20.1v-0.3c0.4-0.1,0.9-0.1,1.3-0.1V20
			C37.3,20,36.8,20,36.4,20.1z M40.3,19.9c-0.4,0-0.8,0-1.2,0H39v-0.3h0.1c0.4,0,0.9,0,1.3,0L40.3,19.9z"/>
	</g>
</g>
<g id="avatars">
	<g id="avatar0">
		<circle fill="#4ABFC6" cx="8.8" cy="21.1" r="8.6"/>
		<g>
			<path fill="#FFFFFF" d="M7.5,23c0,0,0,0.6-0.6,0.6c0,0,0.9,1.2,1.7,1.1c0,0,1.3,0.4,1.9-1.1c0,0-0.5,0.1-0.6-0.6H7.5z"/>
			<path fill="#FFFFFF" d="M11.7,19.5c0,1.8-1.3,3.8-3,3.8s-3-2-3-3.8s1.3-3.2,3-3.2S11.7,17.7,11.7,19.5z"/>
			<path fill="#1E1E1F" d="M13.7,27.1c0,0-1.3-3.6-2.2-3.6h-1.1c0,0.1-0.1,0.1-0.1,0.2c-0.1,0.1-0.2,0.2-0.3,0.3
				c-0.2,0.2-0.5,0.4-0.8,0.5s-0.7,0.1-1,0s-0.6-0.3-0.8-0.6c-0.1-0.1-0.2-0.2-0.3-0.4l0,0H6c-0.9,0-2.2,3.5-2.2,3.5
				C7.1,29.9,11.7,29.2,13.7,27.1z"/>
			<path fill="#FFFFFF" d="M11.6,20c0,0.1,0.1,0.2,0.2,0.2l0,0c0.1,0,0.2-0.1,0.2-0.2v-0.9c0-0.1-0.1-0.2-0.2-0.2l0,0
				c-0.1,0-0.2,0.1-0.2,0.2V20z"/>
			<path fill="#FFFFFF" d="M5.5,20c0,0.1,0.1,0.2,0.2,0.2l0,0c0.1,0,0.2-0.1,0.2-0.2v-0.9C5.8,19,5.8,19,5.7,19l0,0
				c-0.1,0-0.2,0.1-0.2,0.2V20z"/>
			<path fill="#FFAC15" d="M5.8,20.2H6c0,0-0.2-2,0.5-2.4s1.6-0.3,2.2-0.2c0,0,2.1-0.2,2.5,0.2c0.6,0.6,0.4,2.5,0.4,2.5h0.2
				c0,0,0.1-0.5,0-2.7c0,0,0.1-1.1-0.6-1.4c-0.3-0.1-0.4-0.6-0.2-0.6c0,0-0.9-0.2-1.2,0.2c0,0-0.6-0.9-0.4-1.4c0,0-0.7,0.6-0.7,1.5
				c0,0-0.1-1-0.6-1c0,0-0.3,0.4-0.6,0.9c0,0-0.6-0.5-1.3,0.1c0,0,0.4,0.2,0.5,0.4c0,0-1.2,0.5-0.9,1.7L5.8,20.2z"/>
			<path opacity="0.22" d="M8,14.7c0,0-0.3,0.4-0.6,0.9c0,0-0.6-0.5-1.3,0.1c0,0,0.4,0.2,0.5,0.4c0,0-1.2,0.5-0.9,1.7v1.1
				c0,0,0,0-0.1,0S5.4,19,5.4,19.1V20c0,0.1,0.1,0.2,0.2,0.2h0.1l0,0c0.3,1.1,1,2.3,1.9,2.8H7.5c0,0,0,0.6-0.6,0.6l0,0l0,0H6
				c-0.9,0-2.2,3.5-2.2,3.5c1.5,1.2,3.2,1.8,4.8,1.8V15.7C8.6,15.5,8.5,14.8,8,14.7z"/>
		</g>
	</g>
	<g id="avatar3">
		<circle fill="#596274" cx="39.1" cy="38.3" r="8.7"/>
		<g>
			<path fill="#FFFFFF" d="M37.8,39.8c0,0,0,0.7-0.7,0.6c0,0,1,1.3,1.8,1.2c0,0,1.4,0.4,2.1-1.2c0,0-0.5,0.1-0.6-0.7L37.8,39.8z"/>
			<path fill="#FFFFFF" d="M42.3,36.1c0,1.9-1.4,4.1-3.2,4.1s-3.2-2.1-3.2-4.1c0-1.9,1.4-3.5,3.2-3.5C40.9,32.6,42.3,34.1,42.3,36.1
				z"/>
			<path fill="#4E5659" d="M44.4,44.2c0,0-1.4-3.8-2.3-3.8h-1.2c0,0.1-0.1,0.1-0.1,0.2c-0.1,0.1-0.2,0.2-0.3,0.4
				c-0.3,0.2-0.5,0.4-0.9,0.5c-0.3,0.1-0.7,0.1-1.1,0c-0.3-0.1-0.6-0.4-0.9-0.6c-0.1-0.1-0.2-0.3-0.3-0.4l0,0h-1
				c-0.9,0-2.3,3.8-2.3,3.8C37.4,47.2,42.3,46.4,44.4,44.2z"/>
			<path fill="#FFFFFF" d="M42.1,36.8c0,0.1,0.1,0.2,0.2,0.2l0,0c0.1,0,0.2-0.1,0.2-0.2v-1c0-0.1-0.1-0.2-0.2-0.2l0,0
				c-0.1,0-0.2,0.1-0.2,0.2V36.8z"/>
			<path fill="#FFFFFF" d="M35.6,36.8c0,0.1,0.1,0.2,0.2,0.2l0,0c0.1,0,0.2-0.1,0.2-0.2v-1c0-0.1-0.1-0.2-0.2-0.2l0,0
				c-0.1,0-0.2,0.1-0.2,0.2V36.8z"/>
			<path fill="#FFAC15" d="M42.4,36.7h-0.2v-1.4c0,0-0.5-0.2-1.2-1.7c0,0-1,0.2-2,0c-0.4-0.1-1.3,0.8-1.9,1.5c0,0,0.4-1,0.6-1.2
				c0,0-1.4,0.7-1.7,1.1c-0.2,0.4-0.1,1.7-0.1,1.7h-0.2c0,0,0-1.3,0-2.8c0-1.9,3.7-4.1,5.5-2c0,0,1.1-0.4,1.1,2L42.4,36.7z"/>
			<path fill="#FFFFFF" d="M36.8,40.4h-0.6c-0.9,0-2.3,3.8-2.3,3.8c0.9,0.8,1.9,1.3,2.9,1.6C36.8,45.8,36.8,40.4,36.8,40.4z"/>
			<path fill="#FFFFFF" d="M41.3,40.4v5.5c1.3-0.3,2.4-0.9,3.1-1.7c0,0-1.4-3.8-2.3-3.8H41.3z"/>
			<path opacity="0.22" d="M35.8,33.9c0,0.6,0,1.2,0,1.7c-0.1,0-0.2,0.1-0.2,0.2v1c0,0.1,0.1,0.2,0.2,0.2c0,0,0.1,0,0.1-0.1
				c0.3,1.2,1,2.3,1.9,2.9h-0.1c0,0,0,0.6-0.6,0.6l0,0l0,0h-0.4h-0.6c-0.9,0-2.3,3.8-2.3,3.8c0.1,0.1,0.2,0.2,0.3,0.3l0.1,0.1
				c0.1,0.1,0.1,0.1,0.2,0.2c0,0,0.1,0,0.1,0.1c0.1,0.1,0.2,0.1,0.2,0.2c0,0,0.1,0,0.1,0.1c0.1,0.1,0.2,0.1,0.3,0.2c0,0,0,0,0.1,0
				c0.1,0.1,0.2,0.1,0.3,0.2l0,0c0.1,0.1,0.2,0.1,0.3,0.1l0,0c0.1,0,0.2,0.1,0.4,0.1l0,0c0.1,0,0.2,0.1,0.4,0.1l0,0
				c0.8,0.2,1.6,0.4,2.4,0.4V31.1C37.5,31.3,35.8,32.7,35.8,33.9z"/>
		</g>
	</g>
	<g id="avatar1">
		<circle fill="#FACB6B" cx="63.4" cy="26.2" r="6.9"/>
		<g>
			<path fill="#4E5659" d="M67.8,30.6c0,0-1.2-3.2-2-3.2h-1c0,0-0.1,0.1-0.1,0.2c-0.1,0.1-0.2,0.2-0.3,0.3c-0.2,0.2-0.5,0.4-0.8,0.4
				c-0.3,0.1-0.6,0.1-0.9,0c-0.3-0.1-0.5-0.3-0.8-0.5c-0.1-0.1-0.2-0.2-0.3-0.3l0,0h-0.8c-0.8,0-2,3.2-2,3.2
				C61.9,33.1,66,32.5,67.8,30.6z"/>
			<path fill="#FFFFFF" d="M60.4,24.5c0,0.1,0.1,0.2,0.2,0.2l0,0c0.1,0,0.2-0.1,0.2-0.2v-0.8c0-0.1-0.1-0.2-0.2-0.2l0,0
				c-0.1,0-0.2,0.1-0.2,0.2V24.5z"/>
			<path fill="#FFFFFF" d="M65.7,24.5c0,0.1,0.1,0.2,0.2,0.2l0,0c0.1,0,0.2-0.1,0.2-0.2v-0.8c0-0.1-0.1-0.2-0.2-0.2l0,0
				c-0.1,0-0.2,0.1-0.2,0.2V24.5z"/>
			<path fill="#FFFFFF" d="M62.3,26.9c0,0,0,0.5-0.5,0.5c0,0,0.8,1,1.4,0.9c0,0,1.1,0.4,1.7-0.9c0,0-0.4,0.1-0.5-0.5H62.3z"/>
			<path fill="#FFFFFF" d="M65.9,24.1c0,1.4-1.2,3-2.6,3s-2.6-1.6-2.6-3s1.2-2.8,2.6-2.8C64.7,21.4,65.9,22.7,65.9,24.1z"/>
			<path fill="#231F20" d="M62.2,25.8l0.1,1c0,0,0.6,0.3,1,0.2c0,0,0.8,0,1-0.3l0.2-0.9L64,26.5h-0.5l-0.2-0.4h-0.2l-0.2,0.4h-0.5
				L62.2,25.8z"/>
			<polygon fill="#231F20" points="63.4,25.1 63.4,25.5 62.2,25.7 			"/>
			<polygon fill="#231F20" points="63.4,25.1 63.4,25.5 64.6,25.7 			"/>
			<path fill="#DFECFF" d="M63.3,27.8L63.3,27.8L63.3,27.8L63,28.2l0.2,0.1c0,0,0,0,0.2,0s0.2-0.1,0.2-0.1L63.3,27.8z"/>
			<polygon fill="#A7A9AC" points="62.2,27.1 61.7,27.4 63.1,29.5 63.3,27.9 			"/>
			<polygon fill="#A7A9AC" points="64.3,27.1 64.8,27.4 63.5,29.5 63.3,27.9 			"/>
			<polygon fill="#FFFFFF" points="62.2,27.1 61.7,27.4 63.1,29.3 63.3,27.8 			"/>
			<polygon fill="#FFFFFF" points="64.3,27.1 64.9,27.4 63.6,29.3 63.3,27.8 			"/>
			<path fill="#231F20" d="M65.8,21.8c-0.4-0.6-1.6-1.6-2.6-1.6c-0.7,0-2.2,0.8-2.5,1.6c-0.3,0.7,0,2.8,0,2.8h0.1c0,0,0-0.6,0.1-1.2
				c0.3-0.3,1-1.1,1-1.1c0,0.3-0.2,0.8-0.2,0.8c0.7-0.5,0.9-1.1,1-1.5c0,0,0,0,0.1,0c0.1,0.2,0.5,0.8,1.5,1.2c0,0-0.1-0.7,0-0.9
				c0,0,0.2,0.5,0.9,1.1c0,0,0.1-1,0.4-0.1c0.1,0.7,0.1,1.5,0.1,1.5h0.2C65.9,24.5,66.2,22.4,65.8,21.8z"/>
			<path fill="none" d="M65.4,22.7c0.1,0.1,0.1,0.2,0.2,0.3C65.5,22.8,65.5,22.7,65.4,22.7z"/>
			<path opacity="0.22" d="M63.2,20.2c-0.7,0-2.2,0.8-2.5,1.6c-0.2,0.4-0.2,1.1-0.1,1.8c-0.1,0-0.1,0.1-0.1,0.2v0.8
				c0,0.1,0.1,0.2,0.2,0.2c0.1,0,0.1,0,0.1-0.1c0.2,0.9,0.8,1.8,1.5,2.2l0,0c0,0,0,0.1,0,0.2l0,0l-0.5,0.3l0,0l0,0l0,0l0,0H61
				c-0.8,0-2,3.2-2,3.2c1.3,1.1,2.9,1.6,4.5,1.7V20.2C63.3,20.2,63.3,20.2,63.2,20.2z"/>
		</g>
	</g>
	<g id="avatar2">
		<circle fill="#FACB6B" cx="15.7" cy="49.1" r="4.9"/>
		<g>
			<path fill="#414042" d="M18.2,51.3c-0.5-0.2-0.8-3.7-0.6-4.4c0-1.5-1.2-2.2-2-2.2c-0.8,0-1.9,0.9-1.9,2.2c0,1.5,0,3.8-0.6,4.6
				C12.4,52.6,18.2,51.3,18.2,51.3z"/>
			<path fill="#FFFFFF" d="M15,49.7c0,0-0.2,0.3-0.5,0.3c0,0-0.5,1.9,1.2,2c1.5,0.1,0.7-1.1,1.1-2c0,0-0.3,0.1-0.4-0.3H15z"/>
			<path fill="#FFFFFF" d="M17.3,47.7c0,1-0.7,2.2-1.7,2.2c-0.9,0-1.7-1.2-1.7-2.2s0.7-1.9,1.7-1.9C16.6,45.9,17.3,46.7,17.3,47.7z"
				/>
			<path fill="#01959F" d="M18.9,52.4c0,0-0.8-2.3-1.4-2.3h-0.7l-0.5,1.6h-1.1c0,0-0.5-1.5-0.6-1.6l0,0H14c-0.6,0-1.4,2.3-1.4,2.3
				C14.6,54.2,17.6,53.7,18.9,52.4z"/>
			<path fill="#D1D3D4" d="M14,47.3h0.6c0,0,0-0.3,0.1-0.3v0.3h0.8V47v0.3h0.8c0,0-0.1-0.2,0-0.3v0.3h0.8c0,0-0.1-1.5-1.6-1.8
				C15.7,45.6,14.1,45.7,14,47.3z"/>
			<path fill="#414042" d="M14,47.3h0.6c0,0,0-0.3,0.1-0.3v0.3h0.8V47v0.3h0.8c0,0-0.1-0.2,0-0.3v0.3h0.8c0,0-0.1-1.6-1.6-1.8
				C15.7,45.5,14.1,45.7,14,47.3z"/>
			<path fill="#FFFFFF" d="M13.8,48.1c0,0.1,0.1,0.1,0.1,0.1l0,0c0.1,0,0.1-0.1,0.1-0.1v-0.6c0-0.1-0.1-0.1-0.1-0.1l0,0
				c-0.1,0-0.1,0.1-0.1,0.1V48.1z"/>
			<path fill="#FFFFFF" d="M17.2,48.1c0,0.1,0.1,0.1,0.1,0.1l0,0c0.1,0,0.1-0.1,0.1-0.1v-0.6c0-0.1-0.1-0.1-0.1-0.1l0,0
				c-0.1,0-0.1,0.1-0.1,0.1V48.1z"/>
			<path opacity="0.22" d="M15.6,44.7c-0.8,0-1.9,0.9-1.9,2.2c0,1,0,2.4-0.2,3.5c-0.5,0.6-1,2-1,2c1,0.8,2.1,1.2,3.2,1.2L15.6,44.7
				L15.6,44.7z"/>
		</g>
	</g>
	<g id="avatar4">
		<circle fill="#4ABFC6" cx="67.4" cy="54.1" r="7.4"/>
		<g>
			<path fill="#754C29" d="M66.5,55.6c0,0,0,0.5-0.5,0.5c0,0,0.9,2.8,1.6,2.7c0,0,0.9-1.4,1.5-2.7c0,0-0.4,0.1-0.5-0.5H66.5z"/>
			<path fill="#754C29" d="M70,53c0,1.4-1.1,2.9-2.5,2.9S65,54.4,65,53s0.9-2.5,2.5-2.5C68.8,50.4,70,51.6,70,53z"/>
			<path fill="#231F20" d="M65,53.6c0,0-0.4-0.7,0.4-2.1c0.2-0.4,0.4-0.8,1.3-0.8c0.6,0,0.7,0.1,0.9,0.3c0,0,0.4-0.3,0.8-0.3
				c0.2,0,0.5,0.1,0.9,0.7c0.3,0.5,0.5,1,0.6,2c0,0,0.9-3.4-2.4-3.4C66.3,50,64.1,50.6,65,53.6z"/>
			<path fill="#E8613D" d="M64.9,51.5c0.1,0,0.1,0,0.2,0l0.5-0.7c0-0.1,0-0.1,0-0.2l0,0c-0.1,0-0.1,0-0.2,0l-0.5,0.7
				C64.8,51.4,64.8,51.5,64.9,51.5L64.9,51.5z"/>
			<path fill="#E8613D" d="M64.7,51.4c0.1,0,0.1,0,0.2,0l0.5-0.7c0-0.1,0-0.1,0-0.2l0,0c-0.1,0-0.1,0-0.2,0l-0.5,0.7
				C64.6,51.3,64.6,51.3,64.7,51.4L64.7,51.4z"/>
			<path fill="#231F20" d="M64.7,51.2c-0.5-0.8-1.6,0.2-2.1,0.9v-0.4l0.1-0.1h-0.1v-0.2l0.1-0.1h-0.1v-0.2l0.7-0.2L62.4,51v-0.2
				l0.2-0.1h-0.2v-0.2l0.5-0.1h-0.5v-0.3h0.3h-0.3v-0.3l0.2-0.1h-0.2v-0.2l0.5-0.1h-0.5v-0.1c0,0,1.5-0.3,2.8,1.2L64.7,51.2z"/>
			<path fill="#E8613D" d="M69.9,51.6c0,0-0.1,0-0.2,0l-0.5-0.7c0-0.1,0-0.1,0-0.2l0,0c0.1,0,0.1,0,0.2,0l0.5,0.7
				C70,51.5,70,51.5,69.9,51.6L69.9,51.6z"/>
			<path fill="#E8613D" d="M70.1,51.4c-0.1,0-0.1,0-0.2,0l-0.5-0.7c0-0.1,0-0.1,0-0.2l0,0c0.1,0,0.1,0,0.2,0l0.5,0.7
				C70.2,51.3,70.2,51.4,70.1,51.4L70.1,51.4z"/>
			<path fill="#231F20" d="M70.1,51.3c0.5-0.8,1.6,0.2,2.1,0.9v-0.4l-0.1-0.1h0.1v-0.2l-0.1-0.1h0.1v-0.2L71.5,51l0.7,0.1v-0.2
				L72,50.8h0.2v-0.2l-0.5-0.1h0.5v-0.3h-0.3h0.3v-0.3L72,49.8h0.2v-0.2L72,49.5h0.5v-0.1c0,0-1.5-0.3-2.8,1.2L70.1,51.3z"/>
			<path fill="#FFFBF5" d="M71.7,59.1c0,0-1.1-3-1.8-3H69c0,0-1.2,2-1.5,2.4l0,0c0,0-1.4-2.2-1.4-2.3l0,0h-0.8c-0.7,0-1.8,3-1.8,3
				C66.2,61.5,70,60.9,71.7,59.1z"/>
			<path fill="#754C29" d="M69.8,53.7c0,0.1,0.1,0.2,0.2,0.2l0,0c0.1,0,0.2-0.1,0.2-0.2v-0.8c0-0.1-0.1-0.2-0.2-0.2l0,0
				c-0.1,0-0.2,0.1-0.2,0.2V53.7z"/>
			<path fill="#754C29" d="M64.8,53.7c0,0.1,0.1,0.2,0.2,0.2l0,0c0.1,0,0.2-0.1,0.2-0.2v-0.8c0-0.1-0.1-0.2-0.2-0.2l0,0
				c-0.1,0-0.2,0.1-0.2,0.2V53.7z"/>
			<polygon fill="#F1582C" points="68.9,56.1 67.5,58.5 66,56.1 65.5,56.1 67.5,59.3 69.4,56.1 			"/>
			<path fill="none" d="M64.9,52.8C65,52.8,65,52.8,64.9,52.8C65,52.7,65,52.7,64.9,52.8C65,52.7,65,52.7,64.9,52.8L64.9,52.8z"/>
			<path opacity="0.22" d="M65.5,50.7L65.5,50.7c-0.1,0-0.1,0-0.2,0v-0.1c-0.1,0-0.1,0-0.2,0c-1.3-1.6-2.8-1.2-2.8-1.2v0.1h0.5
				l-0.5,0.1v0.2h0.2l-0.2,0.1v0.3h0.3h-0.3v0.3h0.5l-0.5,0.1v0.2h0.2l-0.2,0.1v0.2L63,51l-0.7,0.2v0.2h0.1l-0.1,0.1v0.2h0.1
				l-0.1,0.1v0.4c0.5-0.6,1.6-1.6,2.1-0.9c0,0.1,0,0.1,0,0.2c0,0,0.1,0,0.2,0v0.1c0,0,0,0,0.1,0c-0.1,0.3-0.1,0.8-0.1,1.3V53v0.8
				c0,0.1,0.1,0.2,0.2,0.2c0,0,0.1,0,0.1-0.1c0.2,0.8,0.8,1.5,1.4,1.9l0,0c0,0,0,0.5-0.5,0.5l0,0l0,0H65c-0.7,0-1.8,3-1.8,3
				c1.2,1,2.6,1.5,4,1.5V50C66.8,50.1,66,50.2,65.5,50.7z M65,52.8L65,52.8C64.9,52.8,64.9,52.8,65,52.8L65,52.8
				C65,52.7,65,52.7,65,52.8z"/>
		</g>
	</g>
</g>
</svg>
