<?xml version="1.0" encoding="utf-8"?>
<!-- Generator: Adobe Illustrator 19.0.0, SVG Export Plug-In . SVG Version: 6.00 Build 0)  -->
<svg version="1.1" id="targetAudienceIcon" xmlns="http://www.w3.org/2000/svg" xmlns:xlink="http://www.w3.org/1999/xlink" x="0px"
	 y="0px" viewBox="-212 88 75 75" style="enable-background:new -212 88 75 75;" xml:space="preserve">
<style type="text/css">
	.st0{fill:none;stroke:#000000;stroke-width:1.17;stroke-linecap:round;stroke-linejoin:round;stroke-miterlimit:10;}
</style>
<g>
	<g>
		<path id="path2" class="st0" d="M-160.8,111.6c-3.5-2.9-7.9-4.6-12.7-4.6c-10.9,0-19.7,8.8-19.7,19.7s8.7,19.7,19.6,19.7
			s19.7-8.8,19.7-19.7c0-3.6-1-7-2.7-10"/>
		<path id="path0" class="st0" d="M-160.7,120.8c0.8,1.8,1.4,3.8,1.4,6c0,7.9-6.5,14.3-14.3,14.3s-14.3-6.5-14.3-14.3
			s6.5-14.3,14.4-14.3c3.5,0,6.5,1.4,8.9,3.3"/>
		<path id="path3" class="st0" d="M-170.6,125.8l14.4-14.1"/>
		<path id="path4" class="st0" d="M-156.6,108.9l0.3,2.9l2.9,0.3l4.5-4.3l-2.9-0.3l-0.3-2.9L-156.6,108.9z"/>
		<path id="path1" class="st0" d="M-160.8,111.6c-3.5-2.9-7.9-4.6-12.7-4.6c-10.9,0-19.7,8.8-19.7,19.7s8.7,19.7,19.6,19.7
			s19.7-8.8,19.7-19.7c0-3.6-1-7-2.7-10"/>
		<path id="path5" class="st0" d="M-179.6,133.1c0.7-2.5,2.3-3.4,4.1-3.9c0.9-0.3,0.6-1.4,0.5-1.8c-0.6-1.2-0.7-1.6-0.6-2.8
			c0.2-1.4,1.2-2,2.5-2c1,0,2,0.9,2.3,2.1c0.1,1,0.1,1.5-0.6,2.5c-0.6,1.2-0.5,1.4,0.7,2.1c1.5,0.8,2.9,1.4,3.3,3.9"/>
		<path id="path6" class="st0" d="M-156.6,108.9l0.3,2.9l2.9,0.3l4.5-4.3l-2.9-0.3l-0.3-2.9L-156.6,108.9z"/>
		<path id="path7" class="st0" d="M-179.6,133.1c0.7-2.5,2.3-3.4,4.1-3.9c0.9-0.3,0.6-1.4,0.5-1.8c-0.6-1.2-0.7-1.6-0.6-2.8
			c0.2-1.4,1.2-2,2.5-2c1,0,2,0.9,2.3,2.1c0.1,1,0.1,1.5-0.6,2.5c-0.6,1.2-0.5,1.4,0.7,2.1c1.5,0.8,2.9,1.4,3.3,3.9
			c0,0,3.7-3,2.6-8.3c0.2,1.8,0.2,1.4,0.2,1.8c0,5-4.1,8.9-9,8.9c-3.9,0-7.4-2.6-8.7-6.2c-0.3-0.9-0.5-1.8-0.5-2.8
			c0-5,4.1-8.9,9-8.9c1.9,0,3.6,0.6,5.2,1.6"/>
	</g>
	<g id="stars_1_">
		<path id="star5" d="M-150.4,118.8c-1,0-1.7,0.7-1.7,1.7s0.7,1.7,1.7,1.7s1.7-0.7,1.7-1.7C-148.8,119.4-149.5,118.8-150.4,118.8z
			 M-150.4,121.8c-0.7,0-1.3-0.5-1.3-1.3c0-0.7,0.5-1.3,1.3-1.3c0.7,0,1.3,0.5,1.3,1.3S-149.7,121.8-150.4,121.8z"/>
		<path id="star4" d="M-199,127.8c-0.9,0-1.7,0.7-1.7,1.7s0.7,1.7,1.7,1.7s1.7-0.7,1.7-1.7S-198.1,127.8-199,127.8z M-199,130.8
			c-0.7,0-1.3-0.5-1.3-1.3c0-0.8,0.5-1.3,1.3-1.3s1.3,0.5,1.3,1.3C-197.7,130.3-198.4,130.8-199,130.8z"/>
		<path id="star3" d="M-192.3,138.8c-2.4,0-3.2-0.7-3.2-3.2c0-0.2-0.1-0.3-0.3-0.3c-0.2,0-0.3,0.1-0.3,0.3c0,2.4-0.8,3.2-3.2,3.2
			c-0.2,0-0.3,0.1-0.3,0.3c0,0.2,0.1,0.3,0.3,0.3c2.4,0,3.2,0.7,3.2,3.2c0,0.2,0.1,0.3,0.3,0.3c0.2,0,0.3-0.1,0.3-0.3
			c0-2.4,0.7-3.2,3.2-3.2c0.2,0,0.3-0.1,0.3-0.3C-192.1,138.8-192.3,138.8-192.3,138.8z M-195.8,140.5c-0.3-0.7-0.7-1.2-1.4-1.4
			c0.7-0.3,1.2-0.7,1.4-1.4c0.3,0.7,0.7,1.2,1.4,1.4C-195.1,139.2-195.7,139.7-195.8,140.5z"/>
		<path id="star2" d="M-149.1,139.8c-2,0-2.6-0.6-2.6-2.6c0-0.2-0.1-0.2-0.2-0.2c-0.2,0-0.2,0.1-0.2,0.2c0,2-0.6,2.6-2.6,2.6
			c-0.2,0-0.2,0.1-0.2,0.2c0,0.1,0.1,0.2,0.2,0.2c2,0,2.6,0.6,2.6,2.6c0,0.2,0.1,0.2,0.2,0.2c0.2,0,0.2-0.1,0.2-0.2
			c0-2,0.6-2.6,2.6-2.6c0.2,0,0.2-0.1,0.2-0.2S-149,139.8-149.1,139.8z M-151.9,141.2c-0.2-0.6-0.6-1-1.2-1.2c0.6-0.2,1-0.6,1.2-1.2
			c0.2,0.6,0.6,1,1.2,1.2C-151.4,140.2-151.7,140.4-151.9,141.2z"/>
		<path id="star1" d="M-190.9,113.9c-1.5,0-2.1-0.4-2.1-2.1c0-0.1-0.1-0.2-0.2-0.2s-0.2,0.1-0.2,0.2c0,1.5-0.4,2.1-2.1,2.1
			c-0.1,0-0.2,0.1-0.2,0.2c0,0.1,0.1,0.2,0.2,0.2c1.5,0,2.1,0.4,2.1,2.1c0,0.1,0.1,0.2,0.2,0.2s0.2-0.1,0.2-0.2
			c0-1.5,0.4-2.1,2.1-2.1c0.1,0,0.2-0.1,0.2-0.2C-190.7,114.1-190.8,113.9-190.9,113.9z M-193.2,115c-0.2-0.5-0.4-0.7-0.9-0.9
			c0.4-0.2,0.7-0.4,0.9-0.9c0.2,0.5,0.5,0.8,0.9,0.9C-192.8,114.2-193.1,114.5-193.2,115z"/>
	</g>
</g>
</svg>
