<?xml version="1.0" encoding="utf-8"?>
<!-- Generator: Adobe Illustrator 15.0.0, SVG Export Plug-In . SVG Version: 6.00 Build 0)  -->
<!DOCTYPE svg PUBLIC "-//W3C//DTD SVG 1.1//EN" "http://www.w3.org/Graphics/SVG/1.1/DTD/svg11.dtd">
<svg version="1.1" id="Layer_1" xmlns="http://www.w3.org/2000/svg" xmlns:xlink="http://www.w3.org/1999/xlink" x="0px" y="0px"
	 width="240px" height="150px" viewBox="0 -0.75 240 150" enable-background="new 0 -0.75 240 150" xml:space="preserve">
<g>
	<path opacity="0.25" enable-background="new    " d="M26.503,114.5c0,0-1.592-1.45,58.28-2.8c0,0,39.914,0.2,48.546,0.75
		c0,0,13.896,3.05-52.954,4.249C80.376,116.699,24.789,118.1,26.503,114.5z"/>
	<path opacity="0.5" enable-background="new    " d="M44.44,113.95c0,0-2.926-0.812,19.191-1.311c0,0,8.989-0.365,11.295,0.41
		c0,0,0.674,0.95-14.386,1.751C60.541,114.801,44.379,115,44.44,113.95z"/>
	<path opacity="0.5" enable-background="new    " d="M101.62,113.5c0,0,0.061-0.7,16.712-0.7c0,0,6.734-0.601,11.57-0.05
		c0,0,6.918,0.85-10.713,1.75C119.189,114.5,99.38,115.052,101.62,113.5z"/>
</g>
<g>
	<path fill="#CE8936" d="M151.408,86.371c0,0-5.793-0.719-8.52,1.615c-2.156,1.845-8.765,1.872-9.203,2.871
		c0,0-2.385,1.437-4.77,4.309c0,0-3.408,3.41-3.75,8.975c0,0-4.665,2.96-8.179,6.283c0,0,0.822,2.958,14.113,3.676
		c0,0,37.861,4.49,58.82-2.24c0,0,6.135-0.538,9.884-3.23c0,0,2.045-1.975-12.27-6.283c0,0-7.966-4.622-13.462-7.988
		c0,0-4.729-1.683-11.246-4.24C159.008,88.619,159.246,87.223,151.408,86.371z"/>
	<polygon fill="#A86926" points="140.051,95.051 138.116,95.705 139.82,95.884 143.569,94.627 	"/>
	<polygon fill="#A86926" points="139.951,103.7 140.75,105.801 141.184,103.961 139.6,102.601 137.435,101.269 	"/>
	<polygon fill="#A86926" points="160.61,103.063 161.291,104.141 163.101,104.551 165.051,104.6 162.655,103.422 160.61,101.448 	
		"/>
	<polygon fill="#A86926" points="187.534,105.038 190.262,105.219 188.75,105.851 185.148,105.038 	"/>
	<polygon fill="#A86926" points="160.078,93.434 160.76,94.868 162.451,95.7 162.051,93.95 	"/>
	<polygon fill="#A86926" points="152.856,107.461 152.688,107.82 154.049,107.865 153.537,107.147 153.197,106.564 153.027,107.282 
			"/>
	<polygon fill="#A86926" points="149.704,88.436 149.533,88.883 150.215,89.152 150.471,88.346 	"/>
	<polygon fill="#A86926" points="152.602,87.268 153.4,88.451 154.351,90.15 152.941,86.863 152.175,86.685 	"/>
	<polygon fill="#A86926" points="127.977,98.801 127.807,99.114 127.637,99.609 127.637,100.013 128.063,100.596 128.063,100.057 
		128.063,99.34 127.807,98.531 	"/>
	<path fill="#A86926" d="M179.15,100.9l0.511,3.441l0.095-2.891v-1.077c-0.02-0.132-0.277-0.362-1.056-0.874
		C177.504,98.713,179.15,100.9,179.15,100.9z"/>
	<path fill="#A86926" d="M177.821,107.955c0,0-0.17-1.077-0.767-1.93s-2.045-1.84-2.045-1.84s0.341,0.18,0.256,1.033
		c0,0,0.34,0.941,1.96,1.75C177.225,106.968,177.14,107.73,177.821,107.955z"/>
</g>
<g>
	<path fill="#3F2601" d="M207.783,109.519c0,0-3.779-1.069-9.559-1.719c-3.992-0.448-9.98-0.321-12.457-0.368
		c-2.592-0.656-7.115-0.411-9.593-0.457c-2.476-0.046-9.171-0.053-14.399,0.226c-6,0-18.885,1.159-22.239,1.252
		c-13.003,0.359-11.42,2.225-11.42,2.225L207.783,109.519z"/>
	<path fill="#563100" d="M163.875,107.425c10.112-0.069,20.948,0.227,31.799,0.656c4.276,0.169-5.922-1.885-8.398-1.931
		c-2.477-0.047-5.624-0.18-8.101-0.226c-2.478-0.046-9.702-0.023-15.375,0.075c-4.834-0.099-12.145,0.053-16.2,0.45
		c-7.809,0.765-14.256,2.361-14.256,2.361S155.135,107.485,163.875,107.425z"/>
	<path fill="#281601" d="M130.942,110.082c0,0-5.572-0.893,5.263-0.823c10.836,0.069,12.211-0.308,12.211-0.308l9.064-0.114
		l6.344-0.152l6.799-0.153c0,0,2.491-0.303,6.776-0.531c0.415-0.022,5.199-0.25,5.75-0.25c0.55,0,6.476-0.324,8.851-0.274
		c2.25-0.275,10.457,1.296,10.457,1.296l2.648,0.476l-7.98-0.187l-10.319-0.092l-4.954,0.047l-2.063,0.092l-2.614,0.139
		l-3.164,0.232l-4.539,0.139l-13.691,0.093l-8.737,0.511l-7.292,0.046L130.942,110.082z"/>
</g>
<g id="main_obj">
	<g id="leaver_1">
		<g>
			<path fill="#FFCD2E" d="M139,47.6c-1.193,1.194-4.8,7.65-4.8,7.65s-9.601,14.984-8.4,19.117s0.9,4.883,4.5,4.133
				c3.601-0.75,14.031-22.512,16.65-25.95c0,0,1.95-4.2-1.351-6.15C142.316,43.733,139,47.6,139,47.6z"/>
		</g>
		<g id="leaver_2">
			<g id="leaver_3">
				<polygon fill="#909190" points="170.636,25.963 177.85,25.692 175.3,27.567 166.875,28.567 				"/>
				<polyline fill="none" stroke="#606060" stroke-miterlimit="10" points="168.1,28.205 172.735,26.442 177.45,26.129 				"/>
				<path fill="#4D4D4D" d="M150.475,24.571l18.542,3.463l3.658-1.368l5.175-0.975c0,0-9.863,17.82-14.072,19.467
					c-9.777,2.733-11.916-6.038-11.916-6.038l-3.148-9.808C148.713,29.313,146.8,23.817,150.475,24.571z"/>
				<line fill="none" stroke="#606060" stroke-miterlimit="10" x1="170.02" y1="35.442" x2="165.664" y2="41.968"/>
				<line fill="none" stroke="#606060" stroke-miterlimit="10" x1="148.713" y1="29.313" x2="174.1" y2="31.783"/>
				<path fill="none" stroke="#606060" stroke-miterlimit="10" d="M166.075,41.442c0,0-2.574,4.122-9.175,3.375"/>
				<circle fill="#333333" cx="150.303" cy="26.688" r="1.07"/>
				<circle fill="#333333" cx="156.303" cy="41.088" r="1.07"/>
				<line fill="none" stroke="#606060" stroke-miterlimit="10" x1="172.675" y1="26.667" x2="169.975" y2="35.592"/>
			</g>
			<g>
				<g>
					<path fill="#E9A703" d="M139,47.75c1.6-2.433,6.45-3.108,6.45-3.108l13.756-3.325c0,0,3.194-0.631,3.494,1.868
						c0,1.7-5.5,4.241-5.5,4.241s-7.5,3.989-11.75,5.941c0,0-3.45,1.95-5.601,0C137.253,50.796,139,47.75,139,47.75z"/>
					<circle fill="#A56B15" cx="142.81" cy="50.077" r="2.51"/>
					<circle fill="#FFCE2E" cx="142.811" cy="50.077" r="1.338"/>
					<circle fill="#A56B15" cx="161.3" cy="42.767" r="3"/>
					<circle fill="#FFCE2E" cx="161.301" cy="42.767" r="1.6"/>
				</g>
			</g>
		</g>
	</g>
</g>
<polygon fill="#3F3E44" points="80.6,88.684 30.6,94.4 30.2,73.4 80.6,73.4 "/>
<polygon fill="#A46812" points="128.468,85.1 73.576,89 66.712,66.938 103.456,67.584 117.656,68 126.121,71.139 "/>
<path fill="#4D4D4E" d="M86.6,66.2c0,0.994-0.746,1.8-1.667,1.8H48.066c-0.92,0-1.667-0.806-1.667-1.8v-6.6
	c0-0.994,0.746-1.8,1.667-1.8h36.867c0.92,0,1.667,0.806,1.667,1.8V66.2z"/>
<polygon fill="#775603" points="108.05,91.4 80.6,87.2 78.879,82.4 112.996,87.221 "/>
<polygon fill="#3F3E44" points="110.071,91.4 80.6,88.684 80.6,85.1 109,88.234 "/>
<path fill="#A6640B" d="M131,75.73c0,1.163-0.78,1.869-1.893,1.869h-8.739c-1.112,0-1.367-0.705-1.367-1.869v-0.701
	c0-1.164,0.927-1.629,2.04-1.629h8.066c1.112,0,1.893,0.465,1.893,1.629V75.73L131,75.73z"/>
<path fill="#FFCD2E" d="M82.4,66.8c0,1.657,1.343,3,3,3l28.2-1.2c1.658,0,3-1.343,3-3l-3-20.4c0-1.657-1.342-3-3-3H95
	c-1.657,0-3.6,1.275-4.2,3L82.4,66.8z"/>
<path fill="#77AEFF" d="M87.2,68.6c0,1.657,1.343,3,3,3H110c1.658,0,3-1.343,3-3l-2.4-20.4c0-1.657-1.342-3-3-3H97.4
	c-1.657,0-3.3,0-3.6,1.8L87.2,68.6z"/>
<path fill="#C0DDFF" d="M92.699,65.088c0,1.139,0.991,1.862,2.153,1.862h6.37c1.163,0,2.103-0.923,2.103-2.063l0.718-14.025
	c0-1.139-0.207-1.975-2.103-2.063h-3.063c-1.162,0-2.188-0.063-2.523,1.238L92.699,65.088z"/>
<path fill="#FFB600" d="M66.2,62.6c1.722-2.664,7.8-1.8,7.8-1.8h16.839l8.08,7.962l16.937-1.197L133,91.4h-22.929L99.2,81.2
	l-22.396-2.821L68,69.762l-1.288-2.825C66.712,66.938,65.034,64.404,66.2,62.6z"/>
<path fill="#C0DDFF" d="M106.525,65.608c0.109,1.134,0.564,2.018,1.019,1.974l2.255-0.217c0.454-0.043,0.734-0.999,0.625-2.132
	l-1.064-13.988c-0.109-1.133-0.197-1.733-0.734-1.881h-1.249c-0.454,0.044-0.869,0.335-0.866,1.327L106.525,65.608z"/>
<path fill="#E9A703" d="M72.43,74.15c-46.558,0-23.03,19.154-41.83,20.25c-1.9,0.111-3,0-4.2-1.096
	C25.301,92.301,25.914,89,25.914,89l1.886-19.8c0-1.657,1.343-3,3-3l38.4-3c1.657,0,2,0.559,2.955,2.499L72.43,74.15z"/>
<g>
	<circle fill="#1F1F21" cx="59.457" cy="96.7" r="17.056"/>
	<circle fill="#4C4C4C" cx="59.457" cy="96.7" r="9.954"/>
	<circle fill="#EEAA05" cx="59.457" cy="96.7" r="8.466"/>
	<circle fill="#774A0E" cx="59.457" cy="96.7" r="3.665"/>
	<path fill="none" stroke="#383838" stroke-width="2" stroke-miterlimit="10" d="M72.43,95.879
		c0.029-7.779-6.064-13.835-14.498-12.508"/>
	<path fill="none" stroke="#383838" stroke-width="2" stroke-miterlimit="10" d="M45.803,95.941
		c-0.947,6.822,5.689,13.646,10.613,13.646"/>
	
		<circle fill="none" stroke="#3D3D3D" stroke-width="0.5" stroke-linecap="round" stroke-miterlimit="1" stroke-dasharray="1,4" cx="59.457" cy="96.7" r="6.413"/>
</g>
<g>
	<circle fill="#1F1F21" cx="117.656" cy="96.7" r="17.056"/>
	<circle fill="#4C4C4C" cx="117.656" cy="96.7" r="9.954"/>
	<circle fill="#EEAA05" cx="117.656" cy="96.7" r="8.464"/>
	<circle fill="#774A0E" cx="117.656" cy="96.7" r="3.663"/>
	<path fill="none" stroke="#383838" stroke-width="2" stroke-miterlimit="10" d="M130.629,95.879
		c0.031-7.779-6.063-13.835-14.496-12.508"/>
	<path fill="none" stroke="#383838" stroke-width="2" stroke-miterlimit="10" d="M104.003,95.941
		c-0.948,6.822,5.688,13.646,10.613,13.646"/>
	
		<circle fill="none" stroke="#3D3D3D" stroke-width="0.5" stroke-linecap="round" stroke-miterlimit="1" stroke-dasharray="1,4" cx="117.656" cy="96.7" r="6.413"/>
</g>
<g>
	<line fill="none" stroke="#3F3E44" stroke-miterlimit="10" x1="84.952" y1="59.336" x2="79.935" y2="70.539"/>
	<line fill="none" stroke="#3F3E44" stroke-miterlimit="10" x1="84.952" y1="59.336" x2="112.379" y2="59.336"/>
	<line fill="none" stroke="#3F3E44" stroke-miterlimit="10" x1="112.044" y1="59.797" x2="112.044" y2="70.4"/>
	<line fill="none" stroke="#3F3E44" stroke-miterlimit="10" x1="105.355" y1="59.797" x2="105.355" y2="70.4"/>
	<line fill="none" stroke="#3F3E44" stroke-miterlimit="10" x1="98.665" y1="59.797" x2="98.665" y2="70.4"/>
	<line fill="none" stroke="#3F3E44" stroke-miterlimit="10" x1="91.975" y1="59.797" x2="91.975" y2="70.4"/>
	<line fill="none" stroke="#3F3E44" stroke-miterlimit="10" x1="85.287" y1="59.797" x2="85.287" y2="70.4"/>
	<line fill="none" stroke="#3F3E44" stroke-miterlimit="10" x1="112.044" y1="59.197" x2="118.065" y2="70.4"/>
	<line fill="none" stroke="#3F3E44" stroke-miterlimit="10" x1="79.6" y1="70.4" x2="118.4" y2="70.4"/>
</g>
<path fill="#1F1F1F" d="M32.6,66.2c-1.656,0-4.45-0.2-4.8,3L25.914,89c0,0-0.612,3.302,0.486,4.305c1.2,1.096,2.3,1.207,4.2,1.096"
	/>
<path fill="#4D4D4D" d="M34.4,87.801c0,0.994-0.806,1.799-1.8,1.799H26c-0.995,0-1.8-0.805-1.8-1.799v-2.4
	c0-0.994,0.806-1.801,1.8-1.801h6.6c0.995,0,1.8,0.807,1.8,1.801V87.801z"/>
<rect x="57.8" y="45.8" fill="#1F1F1F" width="3" height="12"/>
<polygon fill="#4D4D4D" points="60.8,45.8 57.8,46.4 55.4,44 57.2,41.6 "/>
<circle fill="#E9A703" cx="128.4" cy="75.4" r="1.123"/>
<g>
	<path fill="#8C5300" d="M202.967,108.584c3.578,0.633,7.018,0.633,9.219,2.09c1.242,0.822-3.99,0.949-18.438,3.041
		c-3.305,0.479-40.865,1.521-44.855,1.457c-11.559-0.189-20.089-0.443-23.254-1.9c-2.671-1.23,5.023-5.48,4.953-3.23
		c-0.009,0.324,3.854-0.317,23.392-0.508c9.747-0.094,24.63-1.268,31.923-1.395C197.705,107.936,202.34,108.473,202.967,108.584z"/>
	<path fill="#AD6B15" d="M197.738,108.773c5.711,0.793,9.494,1.457,19.4,2.217c2.551,0.195-6.587,0.615-21.326,2.217
		c-18.369,1.996-40.315,2.029-44.307,1.965c-11.558-0.19-35.193-1.258-31.165-2.154c6.398-1.426,3.508-2.662,11.559-2.471
		c5.35,0.127,17.205,1.474,26.906,0.618c11.495-0.052,21.549,0.417,27.111-0.835C193.762,109,197.096,108.684,197.738,108.773z"/>
	<path fill="#CE8936" d="M203.93,111.814c10.32-1.268,13.485-1.014,18.163,0.063c2.093,0.482-15.353,4.492-30.093,5.223
		c-18.368,0.908-33.899,1.8-49.1,1.6c-24-1.399-31.4-4.399-27.718-4.668c6.329-1.331,7.224-0.848,15.272-0.76
		c5.352,0.057,21.145,1.816,30.846,1.428c10.275-0.412,19.008-1.481,26.531-2.063C195.674,112.031,203.287,111.894,203.93,111.814z"
		/>
</g>

</svg>
