<?xml version="1.0" encoding="utf-8"?>
<!-- Generator: Adobe Illustrator 15.0.0, SVG Export Plug-In . SVG Version: 6.00 Build 0)  -->
<!DOCTYPE svg PUBLIC "-//W3C//DTD SVG 1.1//EN" "http://www.w3.org/Graphics/SVG/1.1/DTD/svg11.dtd">
<svg version="1.1" id="Layer_1" xmlns="http://www.w3.org/2000/svg" xmlns:xlink="http://www.w3.org/1999/xlink" x="0px" y="0px"
	 width="240px" height="220px" viewBox="0 0 240 220" enable-background="new 0 0 240 220" xml:space="preserve">
<path opacity="0.65" enable-background="new    " d="M8.6,177.4c0,0,1.6-2.134,33.066-1.601c0,0,18.4-0.267,30.4,0.267
	c0,0,20,0,20.267,2.134c0,0-1.333,2.933-46.4,2.667C45.933,180.867,6.733,180.334,8.6,177.4z"/>
<g id="main_obj">
	<g id="leaver_1">
		<g id="leaver_2">
			<g id="leaver_3">
				<g id="leaver_4">
					
						<line id="thread" fill="none" stroke="#666666" stroke-width="2" stroke-miterlimit="10" x1="150.738" y1="48.602" x2="150.738" y2="66.667"/>
					<g id="leaver_5">
						<g>
							<path fill="#4D4D4E" d="M146.639,80.902c0.272,3.261,3.569,4.722,6.167,2.715c2.913-2.251,0.7-6.692-2.447-7
								c0.267,0.267,0.533,0.533,0.8,0.8c0.055-1.229,0.109-2.458,0.164-3.687c0.047-1.032-1.555-1.028-1.6,0
								c-0.056,1.229-0.109,2.458-0.164,3.687c-0.021,0.467,0.382,0.759,0.8,0.8c1.855,0.182,2.503,2.053,1.832,3.601
								c-0.944,2.174-3.785,1.102-3.952-0.915C148.153,79.882,146.553,79.873,146.639,80.902L146.639,80.902z"/>
						</g>
						<g id="liftBlock">
							<g>
								<path fill="#707070" d="M152.589,83.374c7.212,5.674,14.425,11.349,21.638,17.022c0.4,0.314,0.971-0.247,0.565-0.567
									c-7.211-5.674-14.425-11.348-21.637-17.022C152.753,82.493,152.184,83.056,152.589,83.374L152.589,83.374z"/>
							</g>
							<g>
								<path fill="#707070" d="M149.611,83.253c-6.119,5.526-12.236,11.052-18.355,16.578c-0.385,0.347,0.184,0.91,0.566,0.567
									c6.119-5.526,12.236-11.054,18.355-16.579C150.561,83.472,149.992,82.908,149.611,83.253L149.611,83.253z"/>
							</g>
							<g>
								<rect x="112.337" y="99.269" fill="#E2A437" width="77.333" height="12"/>
								<circle fill="#6B4803" cx="118.738" cy="105.135" r="2.387"/>
								<circle fill="#6B4803" cx="128.033" cy="105.135" r="2.387"/>
								<circle fill="#6B4803" cx="137.328" cy="105.135" r="2.387"/>
								<circle fill="#6B4803" cx="146.623" cy="105.135" r="2.387"/>
								<circle fill="#6B4803" cx="156.07" cy="105.135" r="2.387"/>
								<circle fill="#6B4803" cx="165.213" cy="105.135" r="2.387"/>
								<circle fill="#6B4803" cx="174.509" cy="105.135" r="2.387"/>
								<circle fill="#6B4803" cx="183.805" cy="105.135" r="2.387"/>
							</g>
						</g>
						<g>
							
								<rect x="146.449" y="65.107" transform="matrix(-0.7071 -0.7071 0.7071 -0.7071 207.9999 224.4178)" fill="#FFB600" width="8.053" height="8.053"/>
							<circle fill="#8C6206" cx="150.48" cy="69.124" r="1.75"/>
						</g>
					</g>
				</g>
				
					<line fill="none" stroke="#666666" stroke-width="2" stroke-miterlimit="10" x1="142.138" y1="20.091" x2="153.138" y2="38.825"/>
				
					<line fill="none" stroke="#2B2B2B" stroke-width="5" stroke-miterlimit="10" x1="153.465" y1="39.741" x2="151.039" y2="48.252"/>
				<path fill="#4D4D4E" d="M151.793,44.994c1.359,1.347,1.369,3.542,0.022,4.902l0,0c-1.347,1.36-3.543,1.37-4.901,0.022
					l-16-14.161c-2.18-2.158-1.252-5.18-0.123-6.316l0,0c1.5-1.515,4.516-2.095,6.504-0.124L151.793,44.994z"/>
				<circle fill="#383838" cx="150.49" cy="48.806" r="3.814"/>
				<circle fill="#BABABA" cx="150.49" cy="48.806" r="1.619"/>
				<g>
					<circle fill="#383838" cx="153.09" cy="40.12" r="2.251"/>
					<circle fill="#BABABA" cx="153.09" cy="40.12" r="1.081"/>
				</g>
			</g>
			<g>
				
					<line fill="none" stroke="#2B2B2B" stroke-width="5" stroke-miterlimit="10" x1="140.713" y1="17.478" x2="134.455" y2="28.869"/>
				<g>
					
						<rect x="99.001" y="12.867" transform="matrix(-0.4484 -0.8938 0.8938 -0.4484 107.597 157.7358)" fill="none" stroke="#515151" stroke-width="2" stroke-miterlimit="10" width="6.934" height="65.604"/>
					<polyline fill="none" stroke="#515151" stroke-width="2" stroke-miterlimit="10" points="130.354,28.102 128.813,35.735 
						121.893,32.644 119.875,40.22 112.478,37.368 109.507,45.421 101.632,42.808 99.376,50.503 91.86,47.71 89.963,55.289 
						81.967,52.609 79.713,60.43 71.599,57.278 					"/>
				</g>
				<circle fill="#383838" cx="132.18" cy="31.427" r="4.549"/>
				<circle fill="#BABABA" cx="132.18" cy="31.427" r="2.222"/>
				
					<line fill="none" stroke="#666666" stroke-width="2" stroke-miterlimit="10" x1="64.071" y1="55.291" x2="137.338" y2="18.691"/>
				<g>
					<circle fill="#383838" cx="139.646" cy="19.16" r="3.16"/>
					<circle fill="#BABABA" cx="139.646" cy="19.16" r="1.518"/>
				</g>
			</g>
		</g>
		<g>
			<line fill="none" stroke="#2B2B2B" stroke-width="5" stroke-miterlimit="10" x1="63.002" y1="57.135" x2="71.088" y2="60.76"/>
			<g>
				<polygon fill="none" stroke="#515151" stroke-width="2" stroke-miterlimit="10" points="68.737,126.104 55.076,123.725 
					70.016,59.74 76.321,60.838 				"/>
				<polyline fill="none" stroke="#515151" stroke-width="2" stroke-miterlimit="10" points="70.016,59.74 75.25,66.231 
					68.23,69.985 73.958,77.606 65.319,81.663 72.399,89.66 62.136,95.031 71.115,103.389 58.888,108.809 69.287,118.076 
					55.728,123.838 				"/>
			</g>
			<circle fill="#383838" cx="74.046" cy="60.76" r="5.358"/>
			<circle fill="#BABABA" cx="74.046" cy="60.76" r="2.498"/>
			<line fill="none" stroke="#666666" stroke-width="2" stroke-miterlimit="10" x1="54.333" y1="124" x2="61.849" y2="58.825"/>
			<g>
				<circle fill="#383838" cx="62.846" cy="57.027" r="3.16"/>
				<circle fill="#BABABA" cx="62.846" cy="57.027" r="1.518"/>
			</g>
		</g>
	</g>
</g>
<path fill="#3F3E44" d="M30.375,156.508l42.669-0.264l-3.545,7.234l17.767,0.413c0,0,3.281,1.396,3.289,5.686
	c0.008,4.038-3.289,6.222-3.289,6.222l-72.588-0.043c0,0-3.151-2.805-3.412-5.912c0.143-3.736,3.426-6.133,3.426-6.133l19.208-0.646
	L30.375,156.508z"/>
<g>
	<circle fill="#1F1F21" cx="71.458" cy="169.489" r="5.942"/>
	<circle fill="#4C4C4C" cx="71.458" cy="169.489" r="3.468"/>
	<circle fill="#CECECE" cx="71.458" cy="169.489" r="2.948"/>
	<circle fill="#4F4F4F" cx="71.458" cy="169.489" r="1.276"/>
	
		<circle fill="none" stroke="#3D3D3D" stroke-width="0.5" stroke-linecap="round" stroke-miterlimit="1" stroke-dasharray="1,4" cx="71.458" cy="169.489" r="2.233"/>
</g>
<g>
	<circle fill="#1F1F21" cx="57.913" cy="169.489" r="5.942"/>
	<circle fill="#4C4C4C" cx="57.913" cy="169.489" r="3.468"/>
	<circle fill="#CECECE" cx="57.913" cy="169.489" r="2.948"/>
	<circle fill="#4F4F4F" cx="57.913" cy="169.489" r="1.276"/>
	
		<circle fill="none" stroke="#3D3D3D" stroke-width="0.5" stroke-linecap="round" stroke-miterlimit="1" stroke-dasharray="1,4" cx="57.913" cy="169.489" r="2.233"/>
</g>
<g>
	<circle fill="#1F1F21" cx="44.366" cy="169.489" r="5.942"/>
	<circle fill="#4C4C4C" cx="44.366" cy="169.489" r="3.468"/>
	<circle fill="#CECECE" cx="44.366" cy="169.489" r="2.948"/>
	<circle fill="#4F4F4F" cx="44.366" cy="169.489" r="1.276"/>
	
		<circle fill="none" stroke="#3D3D3D" stroke-width="0.5" stroke-linecap="round" stroke-miterlimit="1" stroke-dasharray="1,4" cx="44.366" cy="169.489" r="2.233"/>
</g>
<g>
	<circle fill="#1F1F21" cx="31.006" cy="169.489" r="5.942"/>
	<circle fill="#4C4C4C" cx="31.006" cy="169.489" r="3.468"/>
	<circle fill="#CECECE" cx="31.006" cy="169.489" r="2.948"/>
	<circle fill="#4F4F4F" cx="31.006" cy="169.489" r="1.276"/>
	
		<circle fill="none" stroke="#3D3D3D" stroke-width="0.5" stroke-linecap="round" stroke-miterlimit="1" stroke-dasharray="1,4" cx="31.006" cy="169.489" r="2.233"/>
</g>
<g>
	<circle fill="#1F1F21" cx="85.006" cy="169.489" r="5.942"/>
	<circle fill="#4C4C4C" cx="85.006" cy="169.489" r="3.468"/>
	<circle fill="#CECECE" cx="85.006" cy="169.489" r="2.948"/>
	<circle fill="#4F4F4F" cx="85.006" cy="169.489" r="1.276"/>
	
		<circle fill="none" stroke="#3D3D3D" stroke-width="0.5" stroke-linecap="round" stroke-miterlimit="1" stroke-dasharray="1,4" cx="85.006" cy="169.489" r="2.233"/>
</g>
<g>
	<circle fill="#1F1F21" cx="17.272" cy="169.489" r="5.942"/>
	<circle fill="#4C4C4C" cx="17.272" cy="169.489" r="3.468"/>
	<circle fill="#CECECE" cx="17.272" cy="169.489" r="2.948"/>
	<circle fill="#4F4F4F" cx="17.272" cy="169.489" r="1.276"/>
	
		<circle fill="none" stroke="#3D3D3D" stroke-width="0.5" stroke-linecap="round" stroke-miterlimit="1" stroke-dasharray="1,4" cx="17.272" cy="169.489" r="2.233"/>
</g>
<rect x="39.267" y="129.578" fill="#1F1F1F" width="1.6" height="6.933"/>
<polygon fill="#4D4D4D" points="40.867,129.578 39.4,130.289 38.307,128.724 39.267,127.444 "/>
<path fill="#303030" d="M51,136.511c0,1.767-1.433,3.2-3.2,3.2H30.2c-1.767,0-3.2-1.434-3.2-3.2l0,0c0-1.767,1.433-3.2,3.2-3.2h17.6
	C49.567,133.311,51,134.744,51,136.511L51,136.511z"/>
<path fill="#4D4D4E" d="M58.467,143.978c0,0.884-0.664,1.601-1.482,1.601h-32.77c-0.818,0-1.481-0.717-1.481-1.601v-5.866
	c0-0.884,0.664-1.601,1.481-1.601h32.77c0.818,0,1.482,0.717,1.482,1.601V143.978z"/>
<path fill="#4D4D4E" d="M42.467,144.511c0,1.474,1.193,2.667,2.667,2.667l25.067-1.066c1.473,0,2.667-1.193,2.667-2.667
	L70.2,125.311c0-1.473-1.194-2.666-2.667-2.666H53.667c-1.473,0-3.2,1.133-3.733,2.666L42.467,144.511z"/>
<path fill="#77AEFF" d="M47.8,146.111c0,1.473,1.333,2.666,2.977,2.666h19.646c1.644,0,2.977-1.193,2.977-2.666l-2.381-18.134
	c0-1.474-1.333-2.667-2.977-2.667H57.92c-1.644,0-3.274,0-3.572,1.601L47.8,146.111z"/>
<path fill="#C0DDFF" d="M66.976,143.452c0.108,1.009,0.561,1.793,1.011,1.755l2.238-0.193c0.451-0.038,0.728-0.887,0.62-1.895
	l-1.057-12.434c-0.107-1.008-0.195-1.541-0.728-1.673H67.82c-0.45,0.038-0.863,0.299-0.86,1.179L66.976,143.452z"/>
<path fill="#C0DDFF" d="M53.256,142.988c0,1.013,0.984,1.656,2.137,1.656h6.321c1.152,0,2.085-0.821,2.085-1.834l0.713-12.467
	c0-1.012-0.205-1.755-2.086-1.834h-3.041c-1.152,0-2.172-0.055-2.503,1.102L53.256,142.988z"/>
<path fill="#E6F3FF" d="M68.671,144.832c0.005,0.413-0.167,0.752-0.384,0.754l0,0c-0.216,0.002-0.396-0.33-0.401-0.745
	l-0.161-13.486c-0.004-0.413,0.167-0.751,0.384-0.753l0,0c0.215-0.003,0.395,0.33,0.401,0.744L68.671,144.832z"/>
<g>
	<path fill="none" stroke="#3F3E44" stroke-miterlimit="10" d="M78.792,147.728"/>
	<line fill="none" stroke="#3F3E44" stroke-miterlimit="10" x1="78.792" y1="147.178" x2="61.706" y2="147.178"/>
	<line fill="none" stroke="#3F3E44" stroke-miterlimit="10" x1="61.898" y1="147.375" x2="61.932" y2="141.462"/>
	<line fill="none" stroke="#3F3E44" stroke-miterlimit="10" x1="66.07" y1="147.399" x2="66.104" y2="141.486"/>
	<line fill="none" stroke="#3F3E44" stroke-miterlimit="10" x1="70.241" y1="147.423" x2="70.275" y2="141.51"/>
	<line fill="none" stroke="#3F3E44" stroke-miterlimit="10" x1="74.413" y1="147.445" x2="74.447" y2="141.533"/>
	<path fill="none" stroke="#3F3E44" stroke-miterlimit="10" d="M61.896,147.71"/>
	<line fill="none" stroke="#3F3E44" stroke-miterlimit="10" x1="78.81" y1="141.611" x2="61.706" y2="141.611"/>
</g>
<path fill="#E6F3FF" d="M56.887,140.266c-0.061,0.277-0.344,0.451-0.631,0.388l0,0c-0.288-0.063-0.471-0.339-0.411-0.616
	l1.988-9.049c0.062-0.277,0.344-0.451,0.631-0.388l0,0c0.288,0.063,0.472,0.341,0.411,0.616L56.887,140.266z"/>
<path fill="#FFB600" d="M21.667,139.267c0.765-0.503,3.733-0.444,3.733-0.444l38.213,0.418l7.673,7.047l7.909,0.688
	c0,0,2.425,0.206,3.611,1.475c1.187,1.27,1.434,3.435,1.434,3.435l0.048,7.027H19.667l0.823-17.063
	C20.489,141.848,20.434,140.078,21.667,139.267z"/>
<polygon fill="#9E700A" points="84.003,150.765 51,151.184 51,150.377 83.712,150.151 "/>
<path fill="#E9A703" d="M51.738,158.377c-40.471,0.564-15.138,0.564-32.383,0.534c-1.691-0.003-2.667,0-3.733-0.974
	c-0.976-0.893-0.432-3.826-0.432-3.826l1.676-8c0-1.475,1.194-2.667,2.667-2.667h28.267c3.938,0,3.534,3.467,3.693,5.954
	l31.905-0.125l0.474,1.072l-32.05,0.388L51.738,158.377z"/>
<path fill="#303030" d="M20.6,143.444c-1.473,0-3.422-0.179-3.733,2.667l-1.676,8c0,0-0.544,2.934,0.432,3.826
	c1.066,0.974,1.511,1.072,3.2,0.974"/>
<g>
	<g>
		<path fill="#494949" d="M14.678,154.978c0.886,0,1.771,0,2.656,0c0.774,0,0.774-1.2,0-1.2c-0.885,0-1.771,0-2.656,0
			C13.904,153.777,13.904,154.978,14.678,154.978L14.678,154.978z"/>
	</g>
</g>
<g>
	<g>
		<path fill="#494949" d="M14.919,152.777c0.925,0.033,1.851,0.066,2.776,0.101c0.774,0.028,0.772-1.173,0-1.2
			c-0.925-0.033-1.851-0.066-2.776-0.1C14.145,151.549,14.147,152.75,14.919,152.777L14.919,152.777z"/>
	</g>
</g>
<g>
	<g>
		<path fill="#494949" d="M15.919,150.811c0.678,0.045,1.355,0.09,2.033,0.134c0.773,0.051,0.768-1.149,0-1.2
			c-0.678-0.045-1.355-0.09-2.033-0.133C15.146,149.561,15.151,150.761,15.919,150.811L15.919,150.811z"/>
	</g>
</g>
<path fill="none" stroke="#FFB612" stroke-miterlimit="10" d="M51.664,142.861"/>
<path fill="none" stroke="#FFB612" stroke-miterlimit="10" d="M71.25,157.631"/>
<path fill="none" stroke="#FFB612" stroke-miterlimit="10" d="M51.45,146.057"/>
<path fill="none" stroke="#EA9C00" stroke-miterlimit="10" d="M51.326,143.276"/>
<path fill="none" stroke="#EA9C00" stroke-miterlimit="10" d="M51.098,146.457"/>
<path fill="none" stroke="#EA9C00" stroke-miterlimit="10" d="M50.919,149.273"/>
<polyline fill="none" stroke="#E9A703" stroke-width="5" stroke-miterlimit="10" points="19.356,158.375 52.139,157.577 
	84.287,157.631 "/>
<polyline fill="none" stroke="#FFB600" stroke-width="4" stroke-miterlimit="10" points="19.356,156.775 52.243,155.977 
	84.266,155.715 "/>
<g>
	<path fill="none" stroke="#3F3E44" stroke-miterlimit="10" d="M80.732,141.311"/>
	<line fill="none" stroke="#3F3E44" stroke-miterlimit="10" x1="80.397" y1="141.299" x2="80.607" y2="158.4"/>
	<line fill="none" stroke="#3F3E44" stroke-miterlimit="10" x1="80.631" y1="154.035" x2="74.718" y2="154.108"/>
	<line fill="none" stroke="#3F3E44" stroke-miterlimit="10" x1="80.58" y1="149.865" x2="74.667" y2="149.938"/>
	<line fill="none" stroke="#3F3E44" stroke-miterlimit="10" x1="80.528" y1="145.693" x2="74.616" y2="145.766"/>
	<line fill="none" stroke="#3F3E44" stroke-miterlimit="10" x1="80.478" y1="141.521" x2="74.565" y2="141.595"/>
	<path fill="none" stroke="#3F3E44" stroke-miterlimit="10" d="M81.017,158.203"/>
	<line fill="none" stroke="#3F3E44" stroke-miterlimit="10" x1="74.43" y1="141.414" x2="74.921" y2="158.503"/>
</g>
<path fill="none" stroke="#888888" stroke-width="3" stroke-miterlimit="10" d="M91.267,169.844c0,3.535-2.866,6.4-6.4,6.4H17.133
	c-3.534,0-6.4-2.865-6.4-6.4l0,0c0-3.533,2.866-6.399,6.4-6.399h67.733C88.401,163.444,91.267,166.311,91.267,169.844
	L91.267,169.844z"/>
<g>
	<path fill="none" stroke="#0C0C0C" stroke-width="2" stroke-miterlimit="10" stroke-dasharray="10.1181,10.1181" d="
		M92.333,169.844c0,4.271-3.212,7.734-7.174,7.734H16.84c-3.962,0-7.174-3.463-7.174-7.734c0-4.271,3.212-7.732,7.174-7.732H85.16
		C89.122,162.111,92.333,165.573,92.333,169.844z"/>
</g>
<g>
	<g>
		<rect x="173.992" y="178.74" fill="#E2A437" width="59.4" height="8.526"/>
		<ellipse fill="#6B4803" cx="178.908" cy="182.909" rx="1.833" ry="1.696"/>
		<ellipse fill="#6B4803" cx="186.049" cy="182.909" rx="1.834" ry="1.696"/>
		<ellipse fill="#6B4803" cx="193.188" cy="182.909" rx="1.834" ry="1.696"/>
		<ellipse fill="#6B4803" cx="200.328" cy="182.909" rx="1.833" ry="1.696"/>
		<ellipse fill="#6B4803" cx="207.584" cy="182.909" rx="1.834" ry="1.696"/>
		<ellipse fill="#6B4803" cx="214.607" cy="182.909" rx="1.834" ry="1.696"/>
		<ellipse fill="#6B4803" cx="221.746" cy="182.909" rx="1.834" ry="1.696"/>
		<ellipse fill="#6B4803" cx="228.887" cy="182.909" rx="1.834" ry="1.696"/>
	</g>
	<g>
		<rect x="173.992" y="170.781" fill="#724805" width="59.4" height="8.526"/>
		<rect x="204" y="170.781" fill="#E2A437" width="7.098" height="8.526"/>
		<rect x="189.456" y="170.781" fill="#E2A437" width="7.478" height="8.526"/>
		<rect x="173.992" y="170.781" fill="#E2A437" width="8.192" height="8.526"/>
		<ellipse fill="#6B4803" cx="178.908" cy="174.95" rx="1.833" ry="1.696"/>
		<ellipse fill="#3D2804" cx="186.049" cy="174.95" rx="1.834" ry="1.696"/>
		<ellipse fill="#6B4803" cx="193.188" cy="174.95" rx="1.834" ry="1.696"/>
		<ellipse fill="#3D2804" cx="200.328" cy="174.95" rx="1.833" ry="1.696"/>
		<ellipse fill="#6B4803" cx="207.584" cy="174.95" rx="1.834" ry="1.696"/>
		<ellipse fill="#3D2804" cx="214.607" cy="174.95" rx="1.834" ry="1.696"/>
		<rect x="218.031" y="170.781" fill="#E2A437" width="7.258" height="8.526"/>
		<ellipse fill="#6B4803" cx="221.746" cy="174.95" rx="1.834" ry="1.696"/>
		<ellipse fill="#3D2804" cx="228.887" cy="174.95" rx="1.834" ry="1.696"/>
	</g>
	<g>
		<rect x="173.992" y="162.443" fill="#E2A437" width="59.4" height="8.527"/>
		<ellipse fill="#6B4803" cx="178.908" cy="166.612" rx="1.833" ry="1.696"/>
		<ellipse fill="#6B4803" cx="186.049" cy="166.612" rx="1.834" ry="1.696"/>
		<ellipse fill="#6B4803" cx="193.188" cy="166.612" rx="1.834" ry="1.696"/>
		<ellipse fill="#6B4803" cx="200.328" cy="166.612" rx="1.833" ry="1.696"/>
		<ellipse fill="#6B4803" cx="207.584" cy="166.612" rx="1.834" ry="1.696"/>
		<ellipse fill="#6B4803" cx="214.607" cy="166.612" rx="1.834" ry="1.696"/>
		<ellipse fill="#6B4803" cx="221.746" cy="166.612" rx="1.834" ry="1.696"/>
		<ellipse fill="#6B4803" cx="228.887" cy="166.612" rx="1.834" ry="1.696"/>
	</g>
	<line fill="none" stroke="#494640" stroke-miterlimit="10" x1="173.992" y1="179.498" x2="233.492" y2="179.498"/>
	<line fill="none" stroke="#494640" stroke-miterlimit="10" x1="173.992" y1="171.16" x2="233.492" y2="171.16"/>
	<g>
		<rect x="173.992" y="153.727" fill="#724805" width="59.4" height="8.527"/>
		<rect x="204" y="153.727" fill="#E2A437" width="7.098" height="8.527"/>
		<rect x="189.456" y="153.727" fill="#E2A437" width="7.478" height="8.527"/>
		<rect x="173.992" y="153.727" fill="#E2A437" width="8.192" height="8.527"/>
		<ellipse fill="#6B4803" cx="178.908" cy="157.896" rx="1.833" ry="1.696"/>
		<ellipse fill="#3D2804" cx="186.049" cy="157.896" rx="1.834" ry="1.696"/>
		<ellipse fill="#6B4803" cx="193.188" cy="157.896" rx="1.834" ry="1.696"/>
		<ellipse fill="#3D2804" cx="200.328" cy="157.896" rx="1.833" ry="1.696"/>
		<ellipse fill="#6B4803" cx="207.584" cy="157.896" rx="1.834" ry="1.696"/>
		<ellipse fill="#3D2804" cx="214.607" cy="157.896" rx="1.834" ry="1.696"/>
		<rect x="218.031" y="153.727" fill="#E2A437" width="7.258" height="8.527"/>
		<ellipse fill="#6B4803" cx="221.746" cy="157.896" rx="1.834" ry="1.696"/>
		<ellipse fill="#3D2804" cx="228.887" cy="157.896" rx="1.834" ry="1.696"/>
	</g>
	<line fill="none" stroke="#494640" stroke-miterlimit="10" x1="173.992" y1="162.443" x2="233.492" y2="162.443"/>
</g>
<g>
	<g>
		
			<rect x="91.645" y="161.767" transform="matrix(-0.9704 -0.2417 0.2417 -0.9704 206.1595 358.4182)" fill="#E2A437" width="66.834" height="9.595"/>
		
			<ellipse transform="matrix(-0.2418 0.9703 -0.9703 -0.2418 276.7183 103.2477)" fill="#6B4803" cx="98.021" cy="159.734" rx="1.908" ry="2.064"/>
		
			<ellipse transform="matrix(-0.2416 0.9704 -0.9704 -0.2416 288.2424 98.0331)" fill="#6B4803" cx="105.811" cy="161.658" rx="1.908" ry="2.063"/>
		
			<ellipse transform="matrix(-0.2416 0.9704 -0.9704 -0.2416 299.8256 92.853)" fill="#6B4803" cx="113.627" cy="163.595" rx="1.908" ry="2.063"/>
		
			<ellipse transform="matrix(-0.2416 0.9704 -0.9704 -0.2416 311.3619 87.7017)" fill="#6B4803" cx="121.408" cy="165.527" rx="1.908" ry="2.062"/>
		
			<ellipse transform="matrix(-0.242 0.9703 -0.9703 -0.242 323.1426 82.5575)" fill="#6B4803" cx="129.323" cy="167.502" rx="1.909" ry="2.064"/>
		
			<ellipse transform="matrix(-0.2418 0.9703 -0.9703 -0.2418 334.5472 77.4717)" fill="#6B4803" cx="137.006" cy="169.439" rx="1.908" ry="2.063"/>
		
			<ellipse transform="matrix(-0.2419 0.9703 -0.9703 -0.2419 346.1125 72.3192)" fill="#6B4803" cx="144.806" cy="171.364" rx="1.909" ry="2.063"/>
		
			<ellipse transform="matrix(-0.2417 0.9704 -0.9704 -0.2417 357.623 67.1143)" fill="#6B4803" cx="152.587" cy="173.294" rx="1.909" ry="2.063"/>
	</g>
	<g>
		
			<rect x="105.649" y="156.6" transform="matrix(0.9988 0.0485 -0.0485 0.9988 7.9739 -6.4571)" fill="#E2A437" width="62.832" height="9.018"/>
		
			<ellipse transform="matrix(0.0487 -0.9988 0.9988 0.0487 -7.0134 317.6156)" fill="#6B4803" cx="163.238" cy="162.49" rx="1.794" ry="1.94"/>
		<path fill="#6B4803" d="M157.652,162.207c-0.048,0.99-0.954,1.75-2.023,1.699c-1.07-0.053-1.897-0.896-1.85-1.887
			s0.954-1.752,2.023-1.699C156.873,160.371,157.7,161.217,157.652,162.207z"/>
		
			<ellipse transform="matrix(0.0484 -0.9988 0.9988 0.0484 -20.5792 301.8926)" fill="#6B4803" cx="148.155" cy="161.747" rx="1.794" ry="1.939"/>
		
			<ellipse transform="matrix(0.0484 -0.9988 0.9988 0.0484 -27.3853 294.0121)" fill="#6B4803" cx="140.616" cy="161.379" rx="1.794" ry="1.941"/>
		
			<ellipse transform="matrix(0.0484 -0.9988 0.9988 0.0484 -34.3309 286.0022)" fill="#6B4803" cx="132.938" cy="161.019" rx="1.795" ry="1.94"/>
		
			<ellipse transform="matrix(0.0482 -0.9988 0.9988 0.0482 -40.9774 278.2936)" fill="#6B4803" cx="125.531" cy="160.647" rx="1.794" ry="1.94"/>
		
			<ellipse transform="matrix(0.0483 -0.9988 0.9988 0.0483 -47.8149 270.385)" fill="#6B4803" cx="117.982" cy="160.284" rx="1.794" ry="1.939"/>
		
			<ellipse transform="matrix(0.0483 -0.9988 0.9988 0.0483 -54.6163 262.5048)" fill="#6B4803" cx="110.448" cy="159.914" rx="1.794" ry="1.939"/>
	</g>
	<g>
		
			<rect x="99.217" y="153.125" transform="matrix(0.8737 -0.4864 0.4864 0.8737 -60.388 81.5785)" fill="#E2A437" width="55.435" height="7.956"/>
		<path fill="#6B4803" d="M148.685,145.102c0.426,0.764,0.101,1.756-0.726,2.215c-0.824,0.461-1.84,0.215-2.266-0.549
			c-0.424-0.764-0.1-1.756,0.727-2.217C147.244,144.092,148.259,144.338,148.685,145.102z"/>
		<path fill="#6B4803" d="M142.865,148.333c0.426,0.766,0.102,1.756-0.723,2.216c-0.826,0.459-1.84,0.213-2.265-0.551
			c-0.427-0.766-0.103-1.758,0.724-2.217C141.427,147.322,142.44,147.568,142.865,148.333z"/>
		<path fill="#6B4803" d="M137.037,151.589c0.426,0.765,0.102,1.755-0.724,2.215c-0.825,0.458-1.84,0.213-2.265-0.55
			c-0.426-0.766-0.101-1.757,0.724-2.216C135.599,150.576,136.611,150.825,137.037,151.589z"/>
		<path fill="#6B4803" d="M131.217,154.828c0.425,0.766,0.101,1.757-0.725,2.217c-0.825,0.461-1.84,0.213-2.266-0.551
			c-0.426-0.765-0.101-1.755,0.725-2.215C129.777,153.818,130.791,154.066,131.217,154.828z"/>
		
			<ellipse transform="matrix(-0.4866 -0.8736 0.8736 -0.4866 45.1784 344.4742)" fill="#6B4803" cx="123.806" cy="158.962" rx="1.583" ry="1.712"/>
		
			<ellipse transform="matrix(-0.4867 -0.8735 0.8735 -0.4867 33.9317 344.2103)" fill="#6B4803" cx="118.087" cy="162.137" rx="1.583" ry="1.711"/>
		
			<ellipse transform="matrix(-0.4866 -0.8736 0.8736 -0.4866 22.3944 343.9437)" fill="#6B4803" cx="112.26" cy="165.392" rx="1.584" ry="1.711"/>
		
			<ellipse transform="matrix(-0.4864 -0.8738 0.8738 -0.4864 10.8589 343.6471)" fill="#6B4803" cx="106.436" cy="168.632" rx="1.584" ry="1.712"/>
	</g>
	<g>
		<polygon fill="#724805" points="111.005,179.524 177.664,156.778 180.607,165.979 113.95,188.725 		"/>
		<polygon fill="#E2A437" points="144.679,168.033 152.645,165.316 155.588,174.518 147.623,177.234 		"/>
		<polygon fill="#E2A437" points="128.359,173.604 136.75,170.74 139.693,179.939 131.304,182.803 		"/>
		<polygon fill="#E2A437" points="111.005,179.524 120.2,176.388 123.144,185.588 113.95,188.725 		"/>
		<path fill="#6B4803" d="M117.375,180.31c1.137-0.389,2.322,0.118,2.644,1.128c0.322,1.011-0.336,2.145-1.473,2.532
			c-1.136,0.388-2.32-0.118-2.644-1.128C115.581,181.832,116.239,180.697,117.375,180.31z"/>
		<path fill="#3D2804" d="M125.389,177.576c1.137-0.389,2.32,0.117,2.644,1.126c0.323,1.011-0.335,2.146-1.473,2.534
			c-1.136,0.387-2.319-0.118-2.643-1.129C123.594,179.098,124.252,177.965,125.389,177.576z"/>
		<path fill="#6B4803" d="M133.4,174.841c1.137-0.386,2.32,0.119,2.643,1.129c0.322,1.011-0.336,2.146-1.472,2.532
			c-1.138,0.388-2.321-0.117-2.644-1.128C131.604,176.363,132.263,175.23,133.4,174.841z"/>
		<path fill="#3D2804" d="M141.412,172.108c1.137-0.389,2.32,0.116,2.644,1.128c0.322,1.01-0.337,2.145-1.473,2.531
			c-1.136,0.389-2.319-0.117-2.643-1.127C139.616,173.629,140.276,172.496,141.412,172.108z"/>
		<path fill="#6B4803" d="M149.556,169.329c1.137-0.388,2.321,0.117,2.644,1.127c0.324,1.011-0.336,2.146-1.473,2.532
			c-1.137,0.389-2.32-0.116-2.644-1.127C147.76,170.852,148.418,169.717,149.556,169.329z"/>
		<path fill="#3D2804" d="M157.436,166.639c1.137-0.387,2.32,0.118,2.645,1.129c0.322,1.011-0.336,2.145-1.473,2.531
			c-1.138,0.389-2.32-0.118-2.643-1.127C155.641,168.162,156.301,167.027,157.436,166.639z"/>
		<polygon fill="#E2A437" points="160.426,162.66 168.57,159.881 171.514,169.082 163.367,171.861 		"/>
		<path fill="#6B4803" d="M165.449,163.906c1.137-0.389,2.319,0.117,2.643,1.127c0.323,1.012-0.335,2.145-1.473,2.533
			c-1.137,0.387-2.319-0.117-2.643-1.128C163.652,165.428,164.312,164.293,165.449,163.906z"/>
		<path fill="#3D2804" d="M173.461,161.172c1.136-0.388,2.319,0.117,2.643,1.127c0.324,1.012-0.336,2.145-1.472,2.533
			c-1.136,0.388-2.32-0.117-2.644-1.128C171.666,162.693,172.324,161.561,173.461,161.172z"/>
	</g>
	<g>
		
			<rect x="94.229" y="163.577" transform="matrix(0.9328 -0.3604 0.3604 0.9328 -52.1264 56.7554)" fill="#724805" width="63.798" height="9.158"/>
		
			<rect x="118.455" y="165.065" transform="matrix(0.9328 -0.3605 0.3605 0.9328 -52.9355 55.4837)" fill="#E2A437" width="7.623" height="9.16"/>
		
			<rect x="132.638" y="159.513" transform="matrix(0.9328 -0.3604 0.3604 0.9328 -49.9528 60.2735)" fill="#E2A437" width="8.032" height="9.158"/>
		
			<rect x="147.392" y="153.66" transform="matrix(0.9328 -0.3604 0.3604 0.9328 -46.8283 65.3393)" fill="#E2A437" width="8.798" height="9.158"/>
		
			<ellipse transform="matrix(-0.3603 -0.9328 0.9328 -0.3603 57.4027 356.6703)" fill="#6B4803" cx="151" cy="158.652" rx="1.822" ry="1.97"/>
		
			<ellipse transform="matrix(-0.3605 -0.9328 0.9328 -0.3605 45.1175 353.7761)" fill="#3D2804" cx="143.833" cy="161.422" rx="1.822" ry="1.97"/>
		
			<ellipse transform="matrix(-0.3603 -0.9328 0.9328 -0.3603 32.7909 350.8467)" fill="#6B4803" cx="136.697" cy="164.18" rx="1.822" ry="1.968"/>
		
			<ellipse transform="matrix(-0.3601 -0.9329 0.9329 -0.3601 20.4286 347.9102)" fill="#3D2804" cx="129.536" cy="166.949" rx="1.82" ry="1.969"/>
		<path fill="#6B4803" d="M122.924,171.455c-1.015,0.391-2.131-0.053-2.494-0.99c-0.363-0.939,0.166-2.017,1.182-2.409
			c1.014-0.392,2.131,0.05,2.494,0.989C124.467,169.983,123.939,171.061,122.924,171.455z"/>
		<path fill="#3D2804" d="M115.89,174.172c-1.015,0.391-2.132-0.051-2.495-0.989s0.165-2.017,1.18-2.409
			c1.015-0.391,2.131,0.051,2.494,0.988C117.432,172.701,116.904,173.779,115.89,174.172z"/>
		
			<rect x="104.232" y="170.527" transform="matrix(0.9328 -0.3605 0.3605 0.9328 -55.8582 50.7591)" fill="#E2A437" width="7.796" height="9.159"/>
		
			<ellipse transform="matrix(-0.3605 -0.9327 0.9327 -0.3605 -16.4282 339.2167)" fill="#6B4803" cx="108.065" cy="175.24" rx="1.822" ry="1.97"/>
		
			<ellipse transform="matrix(-0.3605 -0.9327 0.9327 -0.3605 -28.7388 336.3023)" fill="#3D2804" cx="100.911" cy="178.002" rx="1.822" ry="1.969"/>
	</g>
	<g>
		
			<rect x="108.655" y="169.917" transform="matrix(-0.9995 0.0328 -0.0328 -0.9995 289.7984 344.6732)" fill="#E2A437" width="66.833" height="9.594"/>
		
			<ellipse transform="matrix(0.0326 0.9995 -0.9995 0.0326 285.9017 55.6843)" fill="#6B4803" cx="114.185" cy="175.537" rx="1.908" ry="2.064"/>
		
			<ellipse transform="matrix(0.0325 0.9995 -0.9995 0.0325 293.4039 47.4185)" fill="#6B4803" cx="122.209" cy="175.257" rx="1.909" ry="2.062"/>
		
			<ellipse transform="matrix(0.0328 0.9995 -0.9995 0.0328 300.8726 39.0731)" fill="#6B4803" cx="130.249" cy="174.983" rx="1.908" ry="2.063"/>
		
			<ellipse transform="matrix(0.0328 0.9995 -0.9995 0.0328 308.3673 30.798)" fill="#6B4803" cx="138.271" cy="174.721" rx="1.907" ry="2.063"/>
		
			<ellipse transform="matrix(0.033 0.9995 -0.9995 0.033 315.9529 22.3406)" fill="#6B4803" cx="146.431" cy="174.45" rx="1.908" ry="2.063"/>
		
			<ellipse transform="matrix(0.0325 0.9995 -0.9995 0.0325 323.4441 14.3158)" fill="#6B4803" cx="154.328" cy="174.224" rx="1.908" ry="2.063"/>
		
			<ellipse transform="matrix(0.0327 0.9995 -0.9995 0.0327 330.8801 5.9704)" fill="#6B4803" cx="162.355" cy="173.934" rx="1.909" ry="2.064"/>
		
			<ellipse transform="matrix(0.0327 0.9995 -0.9995 0.0327 338.3858 -2.3107)" fill="#6B4803" cx="170.387" cy="173.67" rx="1.909" ry="2.063"/>
	</g>
	<g>
		
			<rect x="120.418" y="157.804" transform="matrix(0.6307 0.776 -0.776 0.6307 179.4126 -53.9488)" fill="#E2A437" width="51.943" height="7.456"/>
		
			<ellipse transform="matrix(0.776 -0.6308 0.6308 0.776 -76.699 140.8891)" fill="#6B4803" cx="159.988" cy="178.418" rx="1.483" ry="1.604"/>
		
			<ellipse transform="matrix(0.7759 -0.6309 0.6309 0.7759 -74.5142 137.3515)" fill="#6B4803" cx="156.071" cy="173.558" rx="1.485" ry="1.603"/>
		
			<ellipse transform="matrix(0.776 -0.6308 0.6308 0.776 -72.3378 133.7502)" fill="#6B4803" cx="152.119" cy="168.709" rx="1.483" ry="1.603"/>
		
			<ellipse transform="matrix(0.776 -0.6308 0.6308 0.776 -70.1749 130.1857)" fill="#6B4803" cx="148.182" cy="163.882" rx="1.483" ry="1.603"/>
		
			<ellipse transform="matrix(0.776 -0.6308 0.6308 0.776 -67.9561 126.5556)" fill="#6B4803" cx="144.181" cy="158.943" rx="1.483" ry="1.605"/>
		
			<ellipse transform="matrix(0.776 -0.6308 0.6308 0.776 -65.8252 123.0475)" fill="#6B4803" cx="140.308" cy="154.189" rx="1.483" ry="1.604"/>
		
			<ellipse transform="matrix(0.776 -0.6308 0.6308 0.776 -63.6526 119.4768)" fill="#6B4803" cx="136.368" cy="149.346" rx="1.483" ry="1.603"/>
		
			<ellipse transform="matrix(0.7758 -0.631 0.631 0.7758 -61.4745 115.9538)" fill="#6B4803" cx="132.431" cy="144.483" rx="1.483" ry="1.603"/>
	</g>
	<g>
		<polygon fill="#724805" points="95.689,164.711 164.859,177.982 162.857,187.434 93.688,174.16 		"/>
		<polygon fill="#E2A437" points="130.633,171.414 138.896,173.001 136.895,182.452 128.631,180.865 		"/>
		<polygon fill="#E2A437" points="113.697,168.167 122.404,169.836 120.401,179.286 111.695,177.615 		"/>
		<polygon fill="#E2A437" points="95.689,164.711 105.23,166.542 103.228,175.99 93.688,174.16 		"/>
		<path fill="#6B4803" d="M100.833,168.549c1.18,0.227,1.958,1.252,1.738,2.29c-0.22,1.037-1.354,1.696-2.534,1.47
			c-1.179-0.227-1.957-1.252-1.737-2.289C98.52,168.981,99.654,168.322,100.833,168.549z"/>
		<path fill="#3D2804" d="M109.148,170.145c1.179,0.227,1.957,1.251,1.737,2.289s-1.354,1.697-2.534,1.471
			c-1.179-0.227-1.957-1.252-1.737-2.29C106.834,170.576,107.969,169.919,109.148,170.145z"/>
		<path fill="#6B4803" d="M117.461,171.74c1.179,0.227,1.956,1.252,1.736,2.289c-0.22,1.038-1.354,1.697-2.533,1.47
			c-1.18-0.226-1.958-1.251-1.738-2.29C115.147,172.171,116.282,171.514,117.461,171.74z"/>
		<path fill="#3D2804" d="M125.775,173.336c1.179,0.225,1.957,1.251,1.737,2.289c-0.22,1.037-1.354,1.696-2.534,1.47
			c-1.179-0.227-1.957-1.251-1.736-2.288C123.461,173.768,124.596,173.109,125.775,173.336z"/>
		<path fill="#6B4803" d="M134.226,174.957c1.179,0.227,1.958,1.252,1.738,2.289c-0.22,1.038-1.355,1.697-2.534,1.471
			c-1.181-0.227-1.958-1.252-1.738-2.29C131.912,175.389,133.045,174.73,134.226,174.957z"/>
		<path fill="#3D2804" d="M142.403,176.525c1.18,0.227,1.957,1.252,1.737,2.29s-1.354,1.695-2.533,1.47
			c-1.18-0.227-1.956-1.252-1.736-2.289C140.09,176.958,141.225,176.301,142.403,176.525z"/>
		<polygon fill="#E2A437" points="146.971,174.551 155.423,176.172 153.42,185.623 144.967,184 		"/>
		<path fill="#6B4803" d="M150.718,178.121c1.179,0.227,1.956,1.252,1.737,2.289c-0.221,1.039-1.354,1.697-2.534,1.472
			c-1.179-0.228-1.957-1.251-1.736-2.29C148.404,178.553,149.537,177.895,150.718,178.121z"/>
		<path fill="#3D2804" d="M159.031,179.717c1.18,0.227,1.957,1.251,1.738,2.289c-0.221,1.038-1.354,1.696-2.533,1.471
			c-1.18-0.227-1.958-1.252-1.738-2.29C156.719,180.148,157.852,179.49,159.031,179.717z"/>
	</g>
	<line fill="none" stroke="#BF9852" stroke-miterlimit="10" x1="93.56" y1="174.322" x2="162.852" y2="187.588"/>
	<line fill="none" stroke="#BF9852" stroke-miterlimit="10" x1="95.689" y1="164.711" x2="164.975" y2="178.006"/>
	<g>
		
			<rect x="102.044" y="163.099" transform="matrix(-0.9299 -0.3679 0.3679 -0.9299 199.6541 373.8515)" fill="#E2A437" width="66.833" height="9.595"/>
		
			<ellipse transform="matrix(-0.368 0.9298 -0.9298 -0.368 296.3909 113.6643)" fill="#6B4803" cx="109.568" cy="157.556" rx="1.908" ry="2.063"/>
		
			<ellipse transform="matrix(-0.3679 0.9298 -0.9298 -0.3679 309.324 110.7112)" fill="#6B4803" cx="117.035" cy="160.485" rx="1.908" ry="2.063"/>
		
			<ellipse transform="matrix(-0.3677 0.9299 -0.9299 -0.3677 322.2906 107.7611)" fill="#6B4803" cx="124.511" cy="163.445" rx="1.908" ry="2.062"/>
		
			<ellipse transform="matrix(-0.3679 0.9299 -0.9299 -0.3679 335.248 104.9075)" fill="#6B4803" cx="131.967" cy="166.4" rx="1.907" ry="2.062"/>
		
			<ellipse transform="matrix(-0.3677 0.9299 -0.9299 -0.3677 348.4276 101.8985)" fill="#6B4803" cx="139.573" cy="169.399" rx="1.908" ry="2.063"/>
		
			<ellipse transform="matrix(-0.3679 0.9298 -0.9298 -0.3679 361.2295 99.1204)" fill="#6B4803" cx="146.927" cy="172.331" rx="1.908" ry="2.064"/>
		
			<ellipse transform="matrix(-0.3679 0.9298 -0.9298 -0.3679 374.157 96.1807)" fill="#6B4803" cx="154.39" cy="175.255" rx="1.908" ry="2.064"/>
		
			<ellipse transform="matrix(-0.368 0.9298 -0.9298 -0.368 387.1546 93.3304)" fill="#6B4803" cx="161.86" cy="178.234" rx="1.908" ry="2.062"/>
	</g>
	<line fill="none" stroke="#BF9852" stroke-miterlimit="10" x1="106.154" y1="151.143" x2="168.398" y2="175.769"/>
	<line fill="none" stroke="#BF9852" stroke-miterlimit="10" x1="102.511" y1="159.85" x2="164.757" y2="184.478"/>
	<g>
		<rect x="90.733" y="178.467" fill="#E2A437" width="83.594" height="12"/>
		<ellipse fill="#6B4803" cx="97.652" cy="184.333" rx="2.581" ry="2.388"/>
		<ellipse fill="#6B4803" cx="107.7" cy="184.333" rx="2.581" ry="2.388"/>
		<ellipse fill="#6B4803" cx="117.747" cy="184.333" rx="2.581" ry="2.388"/>
		<ellipse fill="#6B4803" cx="127.795" cy="184.333" rx="2.58" ry="2.388"/>
		<ellipse fill="#6B4803" cx="138.008" cy="184.333" rx="2.581" ry="2.388"/>
		<ellipse fill="#6B4803" cx="147.891" cy="184.333" rx="2.58" ry="2.388"/>
		<ellipse fill="#6B4803" cx="157.938" cy="184.333" rx="2.58" ry="2.388"/>
		<ellipse fill="#6B4803" cx="167.986" cy="184.333" rx="2.58" ry="2.388"/>
	</g>
</g>

</svg>
