<?xml version="1.0" encoding="utf-8"?>
<!-- Generator: Adobe Illustrator 19.0.0, SVG Export Plug-In . SVG Version: 6.00 Build 0)  -->
<svg version="1.1" id="voiceSearchIcon" xmlns="http://www.w3.org/2000/svg" xmlns:xlink="http://www.w3.org/1999/xlink" x="0px"
	 y="0px" viewBox="-212 88 75 75" style="enable-background:new -212 88 75 75;" xml:space="preserve">
<style type="text/css">
	.st0{fill:none;stroke:#000000;stroke-width:1.17;stroke-linecap:round;stroke-linejoin:round;stroke-miterlimit:10;}
</style>
<g>
	<path id="path5" class="st0" d="M-176.5,146.7c0,3.1,0,4,0,6.7"/>
	<path id="path7" class="st0" d="M-177.9,130.4c-3.1,0-2.5,0-5.2,0"/>
	<path id="path6" class="st0" d="M-177.9,126c-3.1,0-2.5,0-5.2,0"/>
	<path id="path4" class="st0" d="M-177.9,121.6c-3.1,0-2.5,0-5.2,0"/>
	<path id="path2" class="st0" d="M-167,141.1c0,0-3.5,5.2-9.5,5.2c-7.2,0-9.5-5.2-9.5-5.2"/>
	<path id="path3" class="st0" d="M-169,119.8c1.5,0,2.9,0.7,3.9,1.7s1.7,2.4,1.8,3.9c0.1,1.6-0.6,3.1-1.6,4.2c-1,1.1-2.5,1.8-4,1.8
		c-1.7,0.1-3.2-0.6-4.3-1.7c-1.1-1.1-1.8-2.6-1.7-4.3c0.1-1.6,0.8-3,1.8-4C-172,120.4-170.5,119.8-169,119.8z"/>
	<path id="path1" class="st0" d="M-162.5,130.4l4.9,4.6c1.4,1.3-0.5,3.9-2.1,2.1l0,0l-4.8-4.6l0,0"/>
	<path id="path0" class="st0" d="M-169.8,134.4c0,3.9,0-2.1,0,1.6c0,3.2-2.7,5.7-5.7,6.2c-3.4,0.5-7.8-1.6-7.8-5.4
		c0-7.5,0-13,0-20.6c0-3.4,3.8-5.7,6.8-5.7c3.6,0,6.7,2.8,6.7,5.7c0,1.3,0,0,0,1.3"/>
	<g id="stars_1_">
		<path id="star5" d="M-190.5,114.6c-1.2,0-2,0.9-2,2s0.9,2,2,2s2-0.9,2-2C-188.5,115.4-189.5,114.6-190.5,114.6z M-190.5,118
			c-0.8,0-1.4-0.6-1.4-1.4s0.6-1.4,1.4-1.4s1.4,0.6,1.4,1.4S-189.7,118-190.5,118z"/>
		<path id="star4" d="M-160.8,121.2c-0.8,0-1.5,0.6-1.5,1.5s0.6,1.5,1.5,1.5s1.5-0.6,1.5-1.5S-160,121.2-160.8,121.2z M-160.8,123.9
			c-0.6,0-1.2-0.5-1.2-1.2c0-0.6,0.5-1.2,1.2-1.2c0.6,0,1.2,0.4,1.2,1.2S-160.2,123.9-160.8,123.9z"/>
		<path id="star3" d="M-180.1,106.3c-2.2,0-2.9-0.6-2.9-2.9c0-0.2-0.1-0.3-0.3-0.3s-0.3,0.1-0.3,0.3c0,2.2-0.7,2.9-2.9,2.9
			c-0.2,0-0.3,0.1-0.3,0.3s0.1,0.3,0.3,0.3c2.2,0,2.9,0.6,2.9,2.9c0,0.2,0.1,0.3,0.3,0.3s0.3-0.1,0.3-0.3c0-2.2,0.6-2.9,2.9-2.9
			c0.2,0,0.3-0.1,0.3-0.3S-180,106.3-180.1,106.3z M-183.3,107.8c-0.3-0.6-0.6-1.1-1.3-1.3c0.6-0.3,1.1-0.6,1.3-1.3
			c0.3,0.6,0.6,1.1,1.3,1.3C-182.6,106.8-183,107.2-183.3,107.8z"/>
		<path id="star2" d="M-164.2,111.5c-1.8,0-2.3-0.5-2.3-2.3c0-0.2-0.1-0.2-0.2-0.2c-0.2,0-0.2,0.1-0.2,0.2c0,1.8-0.5,2.3-2.3,2.3
			c-0.2,0-0.2,0.1-0.2,0.2s0.1,0.2,0.2,0.2c1.8,0,2.3,0.5,2.3,2.3c0,0.2,0.1,0.2,0.2,0.2c0.2,0,0.2-0.1,0.2-0.2
			c0-1.8,0.5-2.3,2.3-2.3c0.2,0,0.2-0.1,0.2-0.2S-164.1,111.5-164.2,111.5z M-166.7,112.8c-0.2-0.5-0.5-0.9-1.1-1.1
			c0.5-0.2,0.9-0.5,1.1-1.1c0.2,0.5,0.5,0.9,1.1,1.1C-166.2,111.9-166.5,112.2-166.7,112.8z"/>
		<path id="star1" d="M-186.2,128.6c-1.4,0-2-0.4-2-2c0-0.1-0.1-0.2-0.2-0.2s-0.2,0.1-0.2,0.2c0,1.4-0.5,2-2,2
			c-0.1,0-0.2,0.1-0.2,0.2c0,0.1,0.1,0.2,0.2,0.2c1.4,0,2,0.4,2,2c0,0.1,0.1,0.2,0.2,0.2s0.2-0.1,0.2-0.2c0-1.4,0.4-2,2-2
			c0.1,0,0.2-0.1,0.2-0.2C-186,128.7-186.1,128.6-186.2,128.6z M-188.4,129.6c-0.3-0.5-0.4-0.6-0.9-0.8c0.5-0.2,0.6-0.4,0.9-0.9
			c0.2,0.5,0.5,0.7,0.8,0.9C-188.1,129-188.3,129.3-188.4,129.6z"/>
	</g>
</g>
</svg>
