<?xml version="1.0" encoding="utf-8"?>
<!-- Generator: Adobe Illustrator 19.0.0, SVG Export Plug-In . SVG Version: 6.00 Build 0)  -->
<svg version="1.1" id="webDevelopmentIcon" xmlns="http://www.w3.org/2000/svg" xmlns:xlink="http://www.w3.org/1999/xlink" x="0px"
	 y="0px" viewBox="-212 88 75 75" style="enable-background:new -212 88 75 75;" xml:space="preserve">
<style type="text/css">
	.st0{fill:none;stroke:#000000;stroke-width:1.17;stroke-linecap:round;stroke-linejoin:round;stroke-miterlimit:10;}
	.st1{fill:none;stroke:#000000;stroke-width:1.1713;stroke-linecap:round;stroke-linejoin:round;stroke-miterlimit:10;}
</style>
<g>
	<g>
		<path id="path0" class="st0" d="M-192.3,109.8c0.9,0,0.9,0,0.9,0"/>
		<path id="path1" class="st0" d="M-188.8,109.8c0.9,0,0.9,0,0.9,0"/>
		<path id="path2" class="st0" d="M-185.3,109.8c0.9,0,0.9,0,0.9,0"/>
		<path id="path5" class="st1" d="M-155.9,128.8c0,0,0,0-39.8,0v-16.9c39.8,0,40.1,0,40.1,0v16.9H-155.9z"/>
		<path id="path7" class="st0" d="M-195.7,146.9v-36.3c0-1.4,1.2-2.6,2.6-2.6h34.9c1.4,0,2.6,1.2,2.6,2.6v36.3
			c0,1.4-1.1,2.6-2.6,2.6c-7.2,0-27.6,0.1-34.9,0.1C-194.6,149.5-195.7,148.2-195.7,146.9z"/>
		<path id="path4" class="st0" d="M-189.8,140.9h6.8 M-189.8,142.8h6.8 M-186.7,144.9h-3 M-178.9,140.9h6.8 M-178.9,142.8h6.8
			 M-175.8,144.9h-3 M-168.1,140.9h6.8 M-168.1,142.8h6.8 M-165.1,144.9h-3 M-182.9,133.5h-6.9v4.7h6.9V133.5z M-172.3,133.5h-6.9
			v4.7h6.9V133.5z M-161.4,133.5h-6.9v4.7h6.9V133.5z"/>
		<path id="path6" class="st0" d="M-162.7,128.6c0.5-0.7,1.1-1.6,1.1-2.4l2.1-0.1v-3.9l-2.1,0.1c-0.2-1-0.6-1.8-1.1-2.2l1.8-1.6
			l-2.5-2.6l-1.5,1.6c-0.7-0.5-1.7-0.8-2.4-1.1l-0.1-2.1h-3.9l0.1,2.1c-1,0.2-1.8,0.6-2.2,1.1l-1.6-1.8l-2.6,2.5l1.6,1.8
			c-0.5,0.7-1.1,1.6-1.1,2.4l-2.1,0.1v3.9l2.1-0.1c0.2,1,0.8,2.1,1.4,2.5"/>
		<path id="path3" class="st0" d="M-168.8,119.7c2.5,0.2,4.5,2.3,4.3,4.8s-2.3,4.5-4.8,4.3s-4.4-1.9-4.4-4.7
			C-173.8,121.4-171.3,119.5-168.8,119.7z"/>
	</g>
	<g id="stars_1_">
		<path id="star5" d="M-201.2,120.9c-1.3,0-2.2,1-2.2,2.2c0,1.3,1,2.2,2.2,2.2s2.2-1,2.2-2.2S-199.9,120.9-201.2,120.9z
			 M-201.2,124.7c-0.9,0-1.6-0.7-1.6-1.6c0-0.9,0.7-1.6,1.6-1.6s1.6,0.7,1.6,1.6C-199.6,123.9-200.3,124.7-201.2,124.7z"/>
		<path id="star4" d="M-185.8,101.3c-0.9,0-1.7,0.7-1.7,1.7s0.7,1.7,1.7,1.7s1.7-0.7,1.7-1.7S-184.8,101.3-185.8,101.3z
			 M-185.8,104.3c-0.7,0-1.3-0.5-1.3-1.3s0.5-1.3,1.3-1.3c0.7,0,1.3,0.5,1.3,1.3S-185.2,104.3-185.8,104.3z"/>
		<path id="star3" d="M-148.7,104.3c-2.4,0-3.2-0.7-3.2-3.2c0-0.2-0.1-0.3-0.3-0.3c-0.2,0-0.3,0.1-0.3,0.3c0,2.4-0.8,3.2-3.2,3.2
			c-0.2,0-0.3,0.1-0.3,0.3s0.1,0.3,0.3,0.3c2.4,0,3.2,0.7,3.2,3.2c0,0.2,0.1,0.3,0.3,0.3c0.2,0,0.3-0.1,0.3-0.3
			c0-2.4,0.7-3.2,3.2-3.2c0.2,0,0.3-0.1,0.3-0.3S-148.6,104.3-148.7,104.3z M-152.2,106c-0.3-0.7-0.7-1.2-1.4-1.4
			c0.7-0.3,1.2-0.7,1.4-1.4c0.3,0.7,0.7,1.2,1.4,1.4C-151.4,104.8-151.9,105.3-152.2,106z"/>
		<path id="star2" d="M-196.2,104.1c-2,0-2.6-0.6-2.6-2.6c0-0.2-0.1-0.2-0.2-0.2c-0.2,0-0.2,0.1-0.2,0.2c0,2-0.6,2.6-2.6,2.6
			c-0.2,0-0.2,0.1-0.2,0.2c0,0.1,0.1,0.2,0.2,0.2c2,0,2.6,0.6,2.6,2.6c0,0.2,0.1,0.2,0.2,0.2c0.2,0,0.2-0.1,0.2-0.2
			c0-2,0.6-2.6,2.6-2.6c0.2,0,0.2-0.1,0.2-0.2C-196,104.1-196.1,104.1-196.2,104.1z M-199,105.5c-0.2-0.6-0.6-1-1.2-1.2
			c0.6-0.2,1-0.6,1.2-1.2c0.2,0.6,0.6,1,1.2,1.2C-198.4,104.5-198.9,104.8-199,105.5z"/>
		<path id="star1" d="M-145.8,117.9c-1.8,0-2.3-0.5-2.3-2.3c0-0.1-0.1-0.2-0.2-0.2s-0.2,0.1-0.2,0.2c0,1.8-0.5,2.3-2.3,2.3
			c-0.1,0-0.2,0.1-0.2,0.2c0,0.1,0.1,0.2,0.2,0.2c1.8,0,2.3,0.5,2.3,2.3c0,0.1,0.1,0.2,0.2,0.2s0.2-0.1,0.2-0.2
			c0-1.8,0.5-2.3,2.3-2.3c0.1,0,0.2-0.1,0.2-0.2C-145.6,117.9-145.8,117.9-145.8,117.9z M-148.3,119.1c-0.2-0.5-0.5-0.8-1.1-1
			c0.5-0.2,0.8-0.5,1.1-1.1c0.2,0.5,0.5,0.9,1,1.1C-148,118.3-148.1,118.6-148.3,119.1z"/>
	</g>
</g>
</svg>
