<?xml version="1.0" encoding="utf-8"?>
<!-- Generator: Adobe Illustrator 15.0.0, SVG Export Plug-In . SVG Version: 6.00 Build 0)  -->
<!DOCTYPE svg PUBLIC "-//W3C//DTD SVG 1.1//EN" "http://www.w3.org/Graphics/SVG/1.1/DTD/svg11.dtd">
<svg version="1.1" id="Layer_1" xmlns="http://www.w3.org/2000/svg" xmlns:xlink="http://www.w3.org/1999/xlink" x="0px" y="0px"
	 width="240px" height="235px" viewBox="0 0.083 240 235" enable-background="new 0 0.083 240 235" xml:space="preserve">
<path opacity="0.25" enable-background="new    " d="M81.75,194.242c0,1.422-2.981,1.287-6.404,1.287
	c-3.423,0-4.752-0.508-4.752-1.93c0-1.424,1.742-0.646,5.165-0.646C79.182,192.956,81.75,192.822,81.75,194.242z"/>
<path opacity="0.25" enable-background="new    " d="M79.17,194.825c0,0.862-2.218,0.78-4.764,0.78c-2.545,0-3.533-0.312-3.533-1.17
	c0-0.861,1.295-0.394,3.841-0.394C77.26,194.045,79.17,193.963,79.17,194.825z"/>
<path opacity="0.25" enable-background="new    " d="M142.876,189.619c0,0-12.158-1.143-26.096-0.856c0,0-11.746-2.623-17.792,5.139
	c-1.038,1.333,6.26,3.16,16.013,3.568c10.23,0.428,16.753,0.308,18.015,0.428c5.354,0.508,15.238,0.443,18.237,0.214
	c0,0,17.719-3.354,10.305-5.639C161.558,192.473,150.29,189.619,142.876,189.619z"/>
<path fill="#F1C499" d="M75.35,80.836c0,0-6.112,0.108-6.112,3.147c0,0-1.212,5.932,2.602,6.62c0,0,6.702,1.855,10.285-1.228l24,1
	l-0.082-5.09l-1.543-2.91l-21.813,1.938"/>
<polygon fill="#7A500E" points="73,68.5 72.969,194.688 77,194.667 77,68.5 "/>
<path fill="#DEB18D" d="M77.125,88.75l4.833-0.875l17.62-0.202l4.916-1.682l5.882-0.741l-4.25,5.125L82.042,89.5
	c0,0-3.041,2.297-4.917,1.375V88.75z"/>
<polygon fill="#E7E6E8" points="131.375,64.063 104,82.563 105.938,90.875 131.5,79.75 "/>
<polygon fill="#DB9A7F" points="134.428,53.451 137.465,60.904 147.883,57.142 139.637,46.217 "/>
<path fill="#F3C297" d="M123.721,40.37l-1.014,9.13h2.314c0,0-1.447,8.523,7.521,5.051c0,0,9.117-6.083,10.854-15.056
	c0,0,0.578-10.994-9.84-6.653C133.561,32.842,128.061,33.713,123.721,40.37z"/>
<path fill="#49300B" d="M137.32,39.199l0.436,2.025l-1.734,0.145l-0.436-2.895l0.145-2.46c0,0,5.498-5.209,7.523-1.736
	c0,0,1.738,4.919,1.158,6.367c0,0-3.039,6.077-4.484,5.933c-1.158-0.724-1.158-3.039-1.158-3.039S141.662,38.331,137.32,39.199"/>
<path fill="#E2B38D" d="M123.285,41.601l-0.578,7.899h1.734c0,0,0.289,5.412,1.738,5.558c0,0,3.471,1.475,6.363-0.406l-3.473-1.902
	c0,0-3.039-0.553-3.475-7.064c-0.025-0.37,2.42-0.613,2.314-1.001c-0.107-0.399-0.242-0.418-0.327-0.862
	c-0.086-0.458-2.835,0.386-2.892-0.119c-0.104-0.937-0.146-2.057-0.109-3.161L123.285,41.601z"/>
<path fill="#FFE651" d="M147.232,36.884c0,0-23.877,5.86-31.256,5.643c0,0,2.822-4.341,7.379-5.643c0,0-3.689-17.364,17.365-13.24
	C140.721,23.644,148.463,25.018,147.232,36.884z"/>
<path fill="none" stroke="#FCAF44" stroke-miterlimit="10" d="M125.602,26.465c0,0,20.545-10.708,21.703,8.393
	c-6.367,2.894-23.947,2.025-23.947,2.025"/>
<path fill="#414042" d="M133.236,186.818l0.145,1.736c0,0-10.273,1.881-11.287,3.903c0,0-0.869,2.024,0.145,2.461l20.982,0.578
	l-1.158-5.209L133.236,186.818z"/>
<path fill="#1572B8" d="M126.178,69.297c0,0,4.633-16.352,19.825-15.049c0,0,4.341,1.013,3.327,17.943c0,0,0.29,15.917-0.145,22.139
	c0,0-0.291,5.208-2.604,8.971c0,0,0.752,7.199,0.146,12.012c0,0-2.06,20.854-3.727,31.521c0,0-1.057,41.25-0.333,44l-10-1.667
	c0,0-0.411-57.938-2.438-66.332c0,0-9.172,19.188-9.896,24.832l-4.574,41.585l-7.813,0.579l2.025-43.699
	c0,0,6.367-27.349,7.959-34.149c0,0,2.312-7.23,4.628-9.691c0,0-0.104-13.968-0.394-18.455
	C122.167,83.833,122.334,76,126.178,69.297z"/>
<polygon fill="#0B679B" points="133.667,126.833 134,150.833 139,153.167 134.333,154.167 137.333,189.5 132.667,189.167 
	130.667,152.833 130.229,122.835 "/>
<path fill="#0B679B" d="M122.707,101.709c3.184-0.291,19.247,5.499,21.271,5.209l-4.342,1.736l-13.894-2.604l-2.604,5.354
	l-4.922,13.891l-4.886,12.372l-3.834,52l-3.833,0.667L108,159.167l1.667-22.667C109.667,136.5,121.063,101.859,122.707,101.709z"/>
<path fill="#0B4E79" d="M123.167,77c0,0,6.333-4.833,1.854,17.33l-2.314,2.75l-0.873-11.412L123.167,77z"/>
<path fill="#CACBCD" d="M133.375,66.625c0,0,2.934-11.22,10.747-9.339c0,0,3.327,1.013,2.171,15.772c0,0,0.008,2.311-4.043,4.191
	C142.25,77.25,135.875,78,133.375,66.625z"/>
<path fill="#414042" d="M107.658,189.252c0,0-8.391,1.594-9.404,3.184c0,0-4.053,4.485,4.918,2.896c0,0,12.879,0.436,14.904-1.016
	c0,0,0-5.787-3.473-5.498C110.996,189.118,107.658,189.252,107.658,189.252z"/>
<polygon fill="#DEB18D" points="82.625,85.708 82.625,88.271 83.25,84.271 82.563,84.333 "/>
<g>
	<path fill="none" stroke="#91293D" stroke-width="0.5" stroke-miterlimit="10" d="M77.161,77.834"/>
</g>
<path fill="#F1C499" d="M84.211,84.96l-3.138-1.845c0,0-7.096-8.03-8.87-3.581l1.774,2.171"/>
<path fill="#E0B189" d="M74.113,82.138c0,0,0.818,6.295-2.319,7.38c0,0,3.82-0.217,4.094-5.969l-0.409-0.977
	c0,0,2.318,1.954,3.684,0.542c0,0-3.684-1.302-4.503-2.063C74.66,81.053,73.841,81.379,74.113,82.138z"/>
<line fill="none" x1="74.931" y1="82.681" x2="79.163" y2="83.115"/>
<line fill="none" x1="86" y1="195.5" x2="83" y2="195.5"/>
<path fill="#F1C499" d="M71.029,82.625c0,0,0.982-1.099,3.084-0.487c0,0,1.746,5.398-2.319,7.38c0,0-1.551-0.768-1.865-2.768
	C69.929,86.75,70.086,82.875,71.029,82.625z"/>
<g id="main_obj">
	<g id="leaver_1">
		<g id="leaver_2">
			<polygon fill="#26252B" points="72.512,55.619 101.823,80.399 103.612,77.291 74.302,52.509 			"/>
			<path fill="#C16522" d="M72.642,58.668c1.593-2.296,4.865-7.132,5.261-7.567c0.4-0.441,1.192,0.464,1.192,0.464l1.709-1.401
				l1.303,0.978l-1.072,1.963c0,0,1.145,1.825,0.932,2.276c-0.216,0.451-3.064,5.255-4.616,7.314
				C75.938,64.577,71.191,60.761,72.642,58.668z"/>
			<polygon fill="#964814" points="80.201,52.362 81.318,53.874 82.108,51.14 			"/>
			<path fill="#964814" d="M76.077,63.189c0,0,1.355-0.407,2.344-2.328l3.544-5.48l-0.049,1.15l-3.247,5.424
				C78.669,61.957,77.761,63.139,76.077,63.189z"/>
			<path fill="#F3C297" d="M96.146,65.03c0,0-9.13-5.542-11.523-0.957c0,0-1.327,3.647,2.83,7.026c0,0,1.55,2.334,7.818-0.955"/>
			<g>
				<path fill="#F3C297" d="M92.338,70.135l29.433,3.182l2.717-3.629l-3.599-4.937L95.121,65.01"/>
				<path fill="#E2B79A" d="M95.832,65.064l23.572,1.712c0,0,1.819,0.126,3.692,1.757c0,0,0.596-1.725-2.479-3.771L95.832,65.064z"
					/>
				<path fill="#E2B79A" d="M93.564,69.358l1.567-4.283L96.93,65.1C96.929,65.101,94.484,68.89,93.564,69.358z"/>
				<path fill="#E2B79A" d="M105.599,71.436c0,0,13.383,2.36,16.171,1.881c0,0,1.8-2.156,1.264-2.852
					C123.033,70.463,123.151,73.886,105.599,71.436z"/>
			</g>
		</g>
		<path fill="#E7E6E8" d="M133.562,59.165c2.403-0.227,2.856-0.375,6.489-0.304c3.709,0.642,4.604,2.604,4.604,2.604
			s2.729,3.19-1.242,7.638c0,0-7.309,5.991-24.031,4.929l-2.786-10.118l9.879-3.368C126.477,60.543,128.985,59.826,133.562,59.165z"
			/>
		<path fill="#D0D2D3" d="M144.018,68.277c0,0-20.519,2.17-25.36,2.964c0,0,0.363,1.925,0.787,2.799c0,0,10.433,0.516,17.146-1.62
			C138.326,71.869,142.83,70.369,144.018,68.277z"/>
	</g>
</g>

</svg>
