<?xml version="1.0" encoding="utf-8"?>
<!-- Generator: Adobe Illustrator 15.0.0, SVG Export Plug-In . SVG Version: 6.00 Build 0)  -->
<!DOCTYPE svg PUBLIC "-//W3C//DTD SVG 1.1//EN" "http://www.w3.org/Graphics/SVG/1.1/DTD/svg11.dtd">
<svg version="1.1" id="Layer_1" xmlns="http://www.w3.org/2000/svg" xmlns:xlink="http://www.w3.org/1999/xlink"  viewBox="0 0 240 260" xml:space="preserve">
<path opacity="0.25" enable-background="new    " d="M78.75,216.242c0,1.422-2.981,1.287-6.404,1.287
	c-3.423,0-4.752-0.508-4.752-1.93c0-1.423,1.742-0.645,5.165-0.645C76.182,214.956,78.75,214.822,78.75,216.242z"/>
<path opacity="0.25" enable-background="new    " d="M76.17,216.825c0,0.862-2.218,0.78-4.764,0.78c-2.545,0-3.533-0.311-3.533-1.17
	c0-0.861,1.295-0.393,3.841-0.393C74.26,216.045,76.17,215.963,76.17,216.825z"/>
<path opacity="0.25" enable-background="new    " d="M145.333,211.834c0,0-13.666-1.334-29.333-1c0,0-13.203-3.063-20,6
	c-1.167,1.557,7.037,3.689,18,4.166c11.5,0.5,18.831,0.359,20.25,0.5c6.018,0.594,17.129,0.518,20.5,0.25
	c0,0,19.917-3.916,11.583-6.584C166.333,215.166,153.667,211.834,145.333,211.834z"/>
<path fill="#F1C499" d="M72.35,102.836c0,0-6.112,0.108-6.112,3.147c0,0-1.212,5.932,2.602,6.62c0,0,6.702,1.855,10.285-1.228l24,1
	l-0.082-5.09l-1.543-2.91l-21.813,1.938"/>
<polygon fill="#7A500E" points="70,90.5 69.969,216.688 74,216.667 74,90.5 "/>
<path fill="#DEB18D" d="M74.125,110.75l4.833-0.875l17.62-0.202l4.916-1.682l5.882-0.741l-4.25,5.125L79.042,111.5
	c0,0-3.041,2.297-4.917,1.375V110.75z"/>
<polygon fill="#E7E6E8" points="128.375,86.063 101,104.563 102.938,112.875 128.5,101.75 "/>
<polygon fill="#DB9A7F" points="131.428,75.451 134.465,82.904 144.883,79.142 136.637,68.217 "/>
<path fill="#F3C297" d="M120.721,62.37l-1.014,9.13h2.314c0,0-1.447,8.523,7.522,5.051c0,0,9.117-6.083,10.854-15.056
	c0,0,0.578-10.994-9.84-6.653C130.561,54.842,125.061,55.713,120.721,62.37z"/>
<path fill="#49300B" d="M134.32,61.199l0.436,2.025l-1.734,0.145l-0.436-2.895l0.145-2.46c0,0,5.498-5.209,7.523-1.736
	c0,0,1.738,4.919,1.158,6.367c0,0-3.039,6.077-4.484,5.933c-1.158-0.724-1.158-3.039-1.158-3.039S138.662,60.331,134.32,61.199"/>
<path fill="#E2B38D" d="M120.285,63.601l-0.578,7.899h1.734c0,0,0.289,5.412,1.738,5.558c0,0,3.471,1.475,6.364-0.406l-3.472-1.902
	c0,0-3.04-0.553-3.475-7.064c-0.025-0.37,2.42-0.613,2.314-1.001c-0.107-0.399-0.242-0.418-0.327-0.862
	c-0.086-0.458-2.835,0.386-2.892-0.119c-0.104-0.937-0.146-2.057-0.109-3.161L120.285,63.601z"/>
<path fill="#FFE651" d="M144.232,58.884c0,0-23.876,5.86-31.256,5.643c0,0,2.822-4.341,7.38-5.643c0,0-3.69-17.364,17.365-13.24
	C137.721,45.644,145.463,47.018,144.232,58.884z"/>
<path fill="none" stroke="#FCAF44" stroke-miterlimit="10" d="M122.602,48.465c0,0,20.545-10.708,21.703,8.393
	c-6.367,2.894-23.948,2.025-23.948,2.025"/>
<path fill="#414042" d="M130.236,208.818l0.145,1.736c0,0-10.274,1.881-11.287,3.904c0,0-0.869,2.025,0.145,2.461l20.982,0.578
	l-1.158-5.209L130.236,208.818z"/>
<path fill="#1572B8" d="M123.178,91.297c0,0,4.633-16.352,19.825-15.049c0,0,4.341,1.013,3.327,17.943c0,0,0.29,15.917-0.145,22.139
	c0,0-0.291,5.208-2.604,8.971c0,0,0.752,7.199,0.146,12.012c0,0-2.06,20.854-3.727,31.521c0,0-1.057,41.25-0.333,44l-10-1.667
	c0,0-0.411-57.938-2.438-66.332c0,0-9.172,19.188-9.896,24.832l-4.574,41.585l-7.813,0.579l2.025-43.699
	c0,0,6.367-27.349,7.959-34.149c0,0,2.312-7.231,4.629-9.692c0,0-0.104-13.968-0.394-18.455
	C119.167,105.833,119.334,98,123.178,91.297z"/>
<polygon fill="#0B679B" points="130.667,148.833 131,172.833 136,175.167 131.333,176.167 134.333,211.5 129.667,211.167 
	127.667,174.833 127.229,144.835 "/>
<path fill="#0B679B" d="M119.707,123.709c3.184-0.291,19.247,5.499,21.271,5.209l-4.342,1.736l-13.893-2.604l-2.604,5.354
	l-4.922,13.891l-4.886,12.372l-3.834,52l-3.833,0.667L105,181.167l1.667-22.667C106.667,158.5,118.063,123.859,119.707,123.709z"/>
<path fill="#0B4E79" d="M120.167,99c0,0,6.333-4.833,1.854,17.33l-2.314,2.75l-0.873-11.412L120.167,99z"/>
<path fill="#CACBCD" d="M130.375,88.625c0,0,2.934-11.22,10.747-9.339c0,0,3.327,1.013,2.171,15.772c0,0,0.008,2.311-4.043,4.191
	C139.25,99.25,132.875,100,130.375,88.625z"/>
<path fill="#414042" d="M104.658,211.252c0,0-8.391,1.594-9.404,3.184c0,0-4.053,4.485,4.918,2.896c0,0,12.879,0.436,14.904-1.016
	c0,0,0-5.787-3.473-5.498C107.996,211.118,104.658,211.252,104.658,211.252z"/>
<polygon fill="#DEB18D" points="79.625,107.708 79.625,110.271 80.25,106.271 79.563,106.333 "/>
<g>
	<path fill="none" stroke="#91293D" stroke-width="0.5" stroke-miterlimit="10" d="M74.161,99.834"/>
</g>
<path fill="#F1C499" d="M81.211,106.96l-3.138-1.845c0,0-7.096-8.03-8.87-3.581l1.774,2.171"/>
<path fill="#E0B189" d="M71.113,104.138c0,0,0.818,6.295-2.319,7.38c0,0,3.82-0.217,4.094-5.969l-0.409-0.977
	c0,0,2.318,1.954,3.684,0.542c0,0-3.684-1.302-4.503-2.063C71.66,103.053,70.841,103.379,71.113,104.138z"/>
<line fill="none" x1="71.931" y1="104.681" x2="76.163" y2="105.115"/>
<line fill="none" x1="83" y1="217.5" x2="80" y2="217.5"/>
<path fill="none" stroke="#AA907E" stroke-miterlimit="10" d="M52.5,225.5"/>
<path fill="#F1C499" d="M68.029,104.625c0,0,0.982-1.099,3.084-0.487c0,0,1.746,5.398-2.319,7.38c0,0-1.551-0.768-1.865-2.768
	C66.929,108.75,67.086,104.875,68.029,104.625z"/>
	
<g id="main_obj" transform="translate( 69, 78 )">
	<g id="leaver_1">
		
		
		<g id="leaver_2">
			<polygon fill="#26252B" points="0,6.164 31.382,28.263 32.89,25.01 1.509,2.908 			"/>
			<path fill="#C16522" d="M0.398,9.19c1.384-2.428,4.217-7.534,4.573-8.001c0.361-0.475,1.229,0.357,1.229,0.357L7.779,0
				l1.384,0.86L8.268,2.909c0,0,1.301,1.717,1.129,2.186c-0.176,0.467-2.589,5.504-3.953,7.692
				C4.202,14.785-0.862,11.402,0.398,9.19z"/>
			<polygon fill="#964814" points="7.371,2.242 8.618,3.649 9.164,0.857 			"/>
			<path fill="#964814" d="M4.219,13.391c0,0,1.314-0.525,2.129-2.526l3.048-5.771l0.052,1.15l-2.756,5.689
				C6.693,11.934,5.892,13.192,4.219,13.391z"/>
			<path fill="#F3C297" d="M24.372,13.455c0,0-9.584-4.715-11.563,0.063c0,0-1,3.75,3.438,6.75c0,0,1.75,2.188,7.703-1.641"/>
			<g>
				<path fill="#F3C297" d="M21.029,18.875l29.6,0.575l2.385-3.855l-4.021-4.6l-25.644,2.53"/>
				<path fill="#E2B79A" d="M24.062,13.516l23.631-0.372c0,0,1.822-0.034,3.833,1.425c0,0,0.441-1.771-2.803-3.537L24.062,13.516z"/>
				<path fill="#E2B79A" d="M22.182,17.993l1.183-4.404l1.794-0.134C25.158,13.456,23.056,17.446,22.182,17.993z"/>
				<path fill="#E2B79A" d="M34.353,19.002c0,0,13.539,1.171,16.276,0.448c0,0,1.601-2.306,1.005-2.952
					C51.634,16.496,52.053,19.895,34.353,19.002z"/>
			</g>
			
		</g>
		
		<path fill="#E7E6E8" d="M61.125,4.313c2.375-0.438,2.813-0.625,6.438-0.875c3.75,0.313,4.813,2.188,4.813,2.188
			s3,2.938-0.563,7.719c0,0-6.753,6.611-23.503,7.028l-3.667-9.833l9.544-4.226C54.189,6.311,56.625,5.375,61.125,4.313z"/>
		<path fill="#D0D2D3" d="M72.344,12.469c0,0-20.247,3.97-25,5.188c0,0,0.531,1.885,1.031,2.719c0,0,10.438-0.406,16.938-3.125
			C66.99,16.548,71.344,14.656,72.344,12.469z"/>
	
	
	</g>
	
</g>


<script  type="text/javascript">
	<![CDATA[
			
			var endInterval = 0
			
			var rot1_1 = 0, rot1_2 = 90, rot1_3 = 0, rot1_4 = 0, rot1_5 = 20;
			var rot2_1 = 0, rot2_2 = 40, rot2_3 = 0, rot2_4 = 10, rot2_5 = 5;	
			var rot3_1 = 0, rot3_2 = 50, rot3_3 = -20, rot3_4 = 120, rot3_5 = 0;	
			
		
			var fast_ = 50, fast_2 = 50, fast_3 = 50, fast_4 = 50, fast_5 = 50, fast_6 = 50, fast_7 = 50;

			var rota = 0;			
			var aniPoints = 0;
			
			var nextStep = false;
			
			var endAnimation = false;	
			
			var main_obj = document.getElementById("main_obj");
			var leaver_1 = document.getElementById("leaver_1");
			var leaver_2 = document.getElementById("leaver_2");			
			
			var obj3 = document.getElementById("obj3");
			
			var Interval = null;
			
			function startAnimation() {
				if(Interval == null) {
					Interval = setInterval(animate, 20);
				}
			}
			
			function stopAnimation() {
				if(Interval != null){
					clearInterval(Interval);
					Interval = null;
				}
			}
			
			function animate() {		
				
				rota = rota + 1;
				
				aniPoints = aniPoints +1;
				
				if(aniPoints > 10 && aniPoints < 30){
					endAnimation = false;
					fast_ += (2 - fast_)/7;
					rot1_1 += (rot1_2 - rot1_1)/fast_;				
					rot2_1 += (rot2_2 - rot2_1)/fast_;
					leaver_1.setAttribute("transform",  "rotate("+ rot1_1 +" 70  7)");
					leaver_2.setAttribute("transform",  "rotate("+ rot2_1 +"  46  15)");
				}				
				
				if(aniPoints > 30 && aniPoints < 45){		
					fast_2 += (2 - fast_2)/2;		
					rot1_1 += (rot1_3 - rot1_1)/fast_2;				
					rot2_1 += (rot2_3 - rot2_1)/fast_2;
					leaver_1.setAttribute("transform",  "rotate("+ rot1_1 +" 70  7)");
					leaver_2.setAttribute("transform",  "rotate("+ rot2_1 +"  46  15)");
				}				
				
				if(aniPoints > 45 && aniPoints < 55){		
					endAnimation = false;
					fast_3 += (2 - fast_3)/5;		
					rot2_1 += (rot2_4 - rot2_1)/5;				
					leaver_2.setAttribute("transform",  "rotate("+ rot2_1 +"  46  15)");
				}
				
				if(aniPoints > 55 && aniPoints < 80){		
					endAnimation = false;
					fast_4 += (2 - fast_3)/5;		
					rot2_1 += (rot2_5 - rot2_1)/5;				
					leaver_2.setAttribute("transform",  "rotate("+ rot2_1 +"  46  15)");
				}				
				
				if(aniPoints > 70 && !endAnimation){
					endAnimation = true;
					aniPoints = 0;
					//stopAnimation()
					fast_ = 50, fast_2 = 50, fast_3 = 50, fast_4 = 50, fast_5 = 50, fast_6 = 50, fast_7 = 50;					
				}

			}
			
			main_obj.setAttribute("transform",  "translate( 69, 78 )");			
				
			startAnimation();			
			
		
		]]>
</script>
</svg>
