<?xml version="1.0" standalone="no"?>
<!DOCTYPE svg PUBLIC "-//W3C//DTD SVG 20010904//EN"
 "http://www.w3.org/TR/2001/REC-SVG-20010904/DTD/svg10.dtd">
<svg version="1.0" xmlns="http://www.w3.org/2000/svg" width="412.000000pt" height="634.000000pt" viewBox="0 0 412.000000 634.000000" preserveAspectRatio="xMidYMid meet">
<metadata>
Created by potrace 1.15, written by Peter Selinger 2001-2017
</metadata>
<g transform="translate(0.000000,634.000000) scale(0.100000,-0.100000)"
fill="#f7f9fc" stroke="none">
<path d="M0 5418 l0 -923 24 56 c61 150 171 309 265 386 106 87 239 131 353
119 112 -13 242 -70 562 -246 204 -112 289 -153 403 -199 269 -106 504 -123
741 -55 182 52 442 208 529 316 53 65 107 166 138 258 36 106 48 205 42 342
-6 139 -22 201 -91 349 -72 154 -78 224 -31 319 25 49 107 132 168 169 20 12
37 25 37 27 0 2 -706 4 -1570 4 l-1570 0 0 -922z"/>
<path d="M4110 1858 c0 -7 -24 -62 -53 -123 -122 -250 -285 -401 -472 -436
-148 -27 -272 17 -679 241 -82 45 -185 99 -229 121 -342 172 -632 214 -915
133 -182 -52 -442 -208 -529 -316 -53 -65 -107 -166 -138 -258 -36 -106 -48
-205 -42 -342 6 -139 22 -201 91 -349 50 -107 69 -185 60 -238 -16 -88 -88
-178 -204 -255 l-55 -36 1588 0 1587 0 0 935 c0 514 -2 935 -5 935 -3 0 -5 -6
-5 -12z"/>
</g>
</svg>
