<?xml version="1.0" encoding="utf-8"?>
<!-- Generator: Adobe Illustrator 19.0.0, SVG Export Plug-In . SVG Version: 6.00 Build 0)  -->
<svg version="1.1" id="cloudStorageIcon" xmlns="http://www.w3.org/2000/svg" xmlns:xlink="http://www.w3.org/1999/xlink" x="0px"
	 y="0px" viewBox="-212 88 75 75" style="enable-background:new -212 88 75 75;" xml:space="preserve">
<style type="text/css">
	.st0{fill:none;stroke:#000000;stroke-width:1.17;stroke-linecap:round;stroke-linejoin:round;stroke-miterlimit:10;}
</style>
<g>
	<g>
		<path id="path6" class="st0" d="M-164.3,117.8v4.2"/>
		<path id="path5" class="st0" d="M-165.6,118.8c1.3-2.1,1.3-2.1,1.3-2.1s0,0,1.4,2.1"/>
		<path id="path4" class="st0" d="M-159.7,121.2c0,0,0-0.9,0-4.8"/>
		<path id="path3" class="st0" d="M-158.3,119.8c-1.4,2.1-1.4,2.1-1.4,2.1s0,0-1.4-2.1"/>
		<path id="path2" class="st0" d="M-166.4,145.8h-19c-1,0-1.8-0.7-1.8-1.8v-13.2c0-1,0.7-1.8,1.8-1.8h6.1l2.3,2.4h10.5
			c1,0,1.8,0.7,1.8,1.8v10.7C-164.9,145.1-165.4,145.8-166.4,145.8z"/>
		<path id="path1" class="st0" d="M-164.7,134.8h-22.4"/>
		<path id="path0" class="st0" d="M-170.4,113.6c-1.2-0.4-2.6-0.7-4-0.7c-5.2,0-9.6,3.7-10.5,8.5c-0.5-0.2-1.2-0.4-2-0.4
			c-3.4,0-6.1,2.6-6.1,6.1c0,0.2,0,0.3,0,0.4c-3.2,0.3-5.6,2.9-5.6,6.1c0,3.3,2.8,6.1,6.1,6.1h2 M-161,140.1
			c4.2-0.5,7.5-4.2,7.5-8.7c0-1.9-0.4-3.4-1.3-4.7"/>
		<path id="path7" class="st0" d="M-169,119.8c-0.4-4,2.7-7.6,6.6-7.8c4.2-0.4,8,3.6,7.7,7.9c-0.4,3.5-3.4,6.6-7.2,6.5
			C-165.7,126.6-168.7,123.6-169,119.8z"/>
	</g>
	<g id="stars_1_">
		<path id="star5" d="M-187.6,110.8c-1.5,0-2.8,1.2-2.8,2.8c0,1.5,1.2,2.8,2.8,2.8s2.8-1.2,2.8-2.8S-186.1,110.8-187.6,110.8z
			 M-187.6,115.6c-1.1,0-2-0.9-2-2s0.9-2,2-2s2,0.9,2,2C-185.6,114.8-186.5,115.6-187.6,115.6z"/>
		<path id="star4" d="M-151.5,136.8c-0.9,0-1.7,0.7-1.7,1.7s0.7,1.7,1.7,1.7s1.7-0.7,1.7-1.7S-150.6,136.8-151.5,136.8z
			 M-151.5,139.8c-0.7,0-1.3-0.5-1.3-1.3c0-0.7,0.5-1.3,1.3-1.3s1.3,0.5,1.3,1.3S-150.8,139.8-151.5,139.8z"/>
		<path id="star3" d="M-166.1,105.6c-2.4,0-3.2-0.7-3.2-3.2c0-0.2-0.1-0.3-0.3-0.3s-0.3,0.1-0.3,0.3c0,2.4-0.8,3.2-3.2,3.2
			c-0.2,0-0.3,0.1-0.3,0.3s0.1,0.3,0.3,0.3c2.4,0,3.2,0.7,3.2,3.2c0,0.2,0.1,0.3,0.3,0.3s0.3-0.1,0.3-0.3c0-2.4,0.7-3.2,3.2-3.2
			c0.2,0,0.3-0.1,0.3-0.3C-165.8,105.6-166,105.6-166.1,105.6z M-169.6,107.1c-0.3-0.7-0.7-1.2-1.4-1.4c0.7-0.3,1.2-0.7,1.4-1.4
			c0.3,0.7,0.7,1.2,1.4,1.4C-168.9,106.1-169.4,106.8-169.6,107.1z"/>
		<path id="star2" d="M-193.4,122.1c-2,0-2.6-0.6-2.6-2.6c0-0.2-0.1-0.2-0.2-0.2c-0.2,0-0.2,0.1-0.2,0.2c0,2-0.6,2.6-2.6,2.6
			c-0.2,0-0.2,0.1-0.2,0.2c0,0.1,0.1,0.2,0.2,0.2c2,0,2.6,0.6,2.6,2.6c0,0.2,0.1,0.2,0.2,0.2c0.2,0,0.2-0.1,0.2-0.2
			c0-2,0.6-2.6,2.6-2.6c0.2,0,0.2-0.1,0.2-0.2C-193.2,122.2-193.3,122.1-193.4,122.1z M-196.2,123.4c-0.2-0.6-0.6-1-1.2-1.2
			c0.6-0.2,1-0.6,1.2-1.2c0.2,0.6,0.6,1,1.2,1.2C-195.7,122.6-196,122.9-196.2,123.4z"/>
		<path id="star1" d="M-157.4,146.1c-1.8,0-2.3-0.5-2.3-2.3c0-0.1-0.1-0.2-0.2-0.2s-0.2,0.1-0.2,0.2c0,1.8-0.5,2.3-2.3,2.3
			c-0.1,0-0.2,0.1-0.2,0.2c0,0.1,0.1,0.2,0.2,0.2c1.8,0,2.3,0.5,2.3,2.3c0,0.1,0.1,0.2,0.2,0.2s0.2-0.1,0.2-0.2
			c0-1.8,0.5-2.3,2.3-2.3c0.1,0,0.2-0.1,0.2-0.2C-157.2,146.1-157.3,146.1-157.4,146.1z M-159.9,147.2c-0.2-0.5-0.5-0.8-1.1-1
			c0.5-0.2,0.8-0.5,1.1-1.1c0.2,0.5,0.5,0.9,1,1.1C-159.5,146.6-159.9,146.8-159.9,147.2z"/>
	</g>
</g>
</svg>
