<?xml version="1.0" encoding="utf-8"?>
<!-- Generator: Adobe Illustrator 19.0.0, SVG Export Plug-In . SVG Version: 6.00 Build 0)  -->
<svg version="1.1" id="contentWritingIcon" xmlns="http://www.w3.org/2000/svg" xmlns:xlink="http://www.w3.org/1999/xlink" x="0px"
	 y="0px" viewBox="-212 88 75 75" style="enable-background:new -212 88 75 75;" xml:space="preserve">
<style type="text/css">
	.st0{fill:none;stroke:#000000;stroke-width:1.17;stroke-linecap:round;stroke-linejoin:round;stroke-miterlimit:10;}
</style>
<g>
	<g>
		<path id="path0" class="st0" d="M-195.1,112.4c1,0,1,0,1,0"/>
		<path id="path1" class="st0" d="M-191,112.4c1,0,1,0,1,0"/>
		<path id="path2" class="st0" d="M-186.8,112.4c1,0,1,0,1,0"/>
		<path id="path4" class="st0" d="M-193.8,131.7h19.1 M-193.8,134.7h15.7 M-181.4,137.9h-12.5 M-182.6,141.2h-11.3 M-193.8,125.4
			h27.6 M-193.8,128.6h23.2 M-193.8,122.5h27.6"/>
		<path id="path5" class="st0" d="M-199.8,115.1c39.1,0,39.1,0,39.1,0"/>
		<path id="path7" class="st0" d="M-199.8,149.6c0-13.8,0-23,0-36.7c0-1.2,0.4-3.1,3.1-3.1c11.4,0,21.1,0,32.6,0
			c1.4,0,2.1,0.3,2.8,0.9c0.6,0.6,0.7,1.2,0.7,2.3c0,0.9,0,8.4,0,8.4"/>
		<path id="path3" class="st0" d="M-178.9,141.2L-178.9,141.2c-0.2-0.3,2.7-4.3,2.7-4.3s19.1-13.9,19.7-14.3l0,0
			c0.9-0.6,2.1-0.4,2.7,0.4l0,0c0.6,0.9,0.4,2.1-0.5,2.7l0,0c-0.5,0.4-19.6,14.2-19.6,14.2S-178.7,141.4-178.9,141.2z"/>
		<path id="path6" class="st0" d="M-161,125.9c2.1,2.8,0.2,0.2,2.3,3"/>
	</g>
	<g id="stars_1_">
		<path id="star5" d="M-150.9,113.9c-1.3,0-2.2,1-2.2,2.2c0,1.3,1,2.2,2.2,2.2c1.3,0,2.2-1,2.2-2.2
			C-148.8,114.8-149.7,113.9-150.9,113.9z M-150.9,117.7c-0.9,0-1.6-0.7-1.6-1.6s0.7-1.6,1.6-1.6s1.6,0.7,1.6,1.6
			S-150,117.7-150.9,117.7z"/>
		<path id="star4" d="M-178.5,146.1c-0.9,0-1.7,0.7-1.7,1.7s0.7,1.7,1.7,1.7s1.7-0.7,1.7-1.7S-177.6,146.1-178.5,146.1z
			 M-178.5,149.1c-0.7,0-1.3-0.5-1.3-1.3s0.5-1.3,1.3-1.3c0.7,0,1.3,0.5,1.3,1.3S-177.9,149.1-178.5,149.1z"/>
		<path id="star3" d="M-152.7,135.5c-2.4,0-3.2-0.7-3.2-3.2c0-0.2-0.1-0.3-0.3-0.3s-0.3,0.1-0.3,0.3c0,2.4-0.8,3.2-3.2,3.2
			c-0.2,0-0.3,0.1-0.3,0.3s0.1,0.3,0.3,0.3c2.4,0,3.2,0.7,3.2,3.2c0,0.2,0.1,0.3,0.3,0.3s0.3-0.1,0.3-0.3c0-2.4,0.7-3.2,3.2-3.2
			c0.2,0,0.3-0.1,0.3-0.3S-152.6,135.5-152.7,135.5z M-156.2,137.2c-0.3-0.7-0.7-1.2-1.4-1.4c0.7-0.3,1.2-0.7,1.4-1.4
			c0.3,0.7,0.7,1.2,1.4,1.4C-155.5,136.1-156,136.5-156.2,137.2z"/>
		<path id="star2" d="M-159.1,103.6c-2,0-2.6-0.6-2.6-2.6c0-0.2-0.1-0.2-0.2-0.2c-0.2,0-0.2,0.1-0.2,0.2c0,2-0.6,2.6-2.6,2.6
			c-0.2,0-0.2,0.1-0.2,0.2s0.1,0.2,0.2,0.2c2,0,2.6,0.6,2.6,2.6c0,0.2,0.1,0.2,0.2,0.2c0.2,0,0.2-0.1,0.2-0.2c0-2,0.6-2.6,2.6-2.6
			c0.2,0,0.2-0.1,0.2-0.2S-159,103.6-159.1,103.6z M-161.9,105c-0.2-0.6-0.6-1-1.2-1.2c0.6-0.2,1-0.6,1.2-1.2c0.2,0.6,0.6,1,1.2,1.2
			C-161.3,104.1-161.7,104.4-161.9,105z"/>
		<path id="star1" d="M-160.4,142.7c-1.8,0-2.3-0.5-2.3-2.3c0-0.1-0.1-0.2-0.2-0.2s-0.2,0.1-0.2,0.2c0,1.8-0.5,2.3-2.3,2.3
			c-0.1,0-0.2,0.1-0.2,0.2c0,0.1,0.1,0.2,0.2,0.2c1.8,0,2.3,0.5,2.3,2.3c0,0.1,0.1,0.2,0.2,0.2s0.2-0.1,0.2-0.2
			c0-1.8,0.5-2.3,2.3-2.3c0.1,0,0.2-0.1,0.2-0.2S-160.3,142.7-160.4,142.7z M-162.9,143.9c-0.2-0.5-0.5-0.8-1.1-1
			c0.5-0.2,0.8-0.5,1.1-1.1c0.2,0.5,0.5,0.9,1,1.1C-162.4,143.1-162.8,143.4-162.9,143.9z"/>
	</g>
</g>
</svg>
