<?xml version="1.0" encoding="utf-8"?>
<!-- Generator: Adobe Illustrator 19.0.0, SVG Export Plug-In . SVG Version: 6.00 Build 0)  -->
<svg version="1.1" id="customCodingIcon" xmlns="http://www.w3.org/2000/svg" xmlns:xlink="http://www.w3.org/1999/xlink" x="0px"
	 y="0px" viewBox="-212 88 75 75" style="enable-background:new -212 88 75 75;" xml:space="preserve">
<style type="text/css">
	.st0{fill:none;stroke:#000000;stroke-width:1.17;stroke-linecap:round;stroke-linejoin:round;stroke-miterlimit:10;}
</style>
<g>
	<g>
		<path id="path0" class="st0" d="M-189.1,118.5h-0.4"/>
		<path id="path1" class="st0" d="M-186.6,118.5h-0.4"/>
		<path id="path2" class="st0" d="M-184.2,118.5h-0.4"/>
		<path id="path3" class="st0" d="M-194.1,120.8c41.2,0,41.4,0,41.4,0"/>
		<path id="path4" class="st0" d="M-180.1,129.2l-6.5,4.1c-0.5,0.3-0.5,0.9,0,1.2l6.5,4.1"/>
		<path id="path5" class="st0" d="M-166.2,129.2l6.5,4.1c0.4,0.3,0.4,0.9,0,1.2l-6.5,4.1"/>
		<path id="path7" class="st0" d="M-194.1,143.8v-25.5c0-1.5,1.2-2.7,2.7-2.7h36.2c1.5,0,2.7,1.2,2.7,2.7v25.4
			c0,1.5-1.1,2.7-2.7,2.7h-36.2C-192.8,146.4-194.1,145.4-194.1,143.8z"/>
		<path id="path6" class="st0" d="M-168.4,126.2c-3.1,5.1-6.4,10.3-9.5,15.3"/>
	</g>
	<g id="stars_1_">
		<path id="star5" d="M-166.1,108.4c-1.3,0-2.2,1-2.2,2.2s1,2.2,2.2,2.2s2.2-1,2.2-2.2C-163.9,109.4-164.9,108.4-166.1,108.4z
			 M-166.1,112.2c-0.9,0-1.6-0.7-1.6-1.6s0.7-1.6,1.6-1.6c0.9,0,1.6,0.7,1.6,1.6S-165.2,112.2-166.1,112.2z"/>
		<path id="star4" d="M-147.5,121.6c-0.9,0-1.7,0.7-1.7,1.7s0.7,1.7,1.7,1.7s1.7-0.7,1.7-1.7S-146.6,121.6-147.5,121.6z
			 M-147.5,124.6c-0.7,0-1.3-0.5-1.3-1.3c0-0.7,0.5-1.3,1.3-1.3c0.7,0,1.3,0.5,1.3,1.3C-146.3,124.1-146.9,124.6-147.5,124.6z"/>
		<path id="star3" d="M-146.7,108.1c-2.4,0-3.2-0.7-3.2-3.2c0-0.2-0.1-0.3-0.3-0.3s-0.3,0.1-0.3,0.3c0,2.4-0.8,3.2-3.2,3.2
			c-0.2,0-0.3,0.1-0.3,0.3c0,0.2,0.1,0.3,0.3,0.3c2.4,0,3.2,0.7,3.2,3.2c0,0.2,0.1,0.3,0.3,0.3s0.3-0.1,0.3-0.3
			c0-2.4,0.7-3.2,3.2-3.2c0.2,0,0.3-0.1,0.3-0.3C-146.5,108.2-146.6,108.1-146.7,108.1z M-150.2,109.8c-0.3-0.7-0.7-1.2-1.4-1.4
			c0.7-0.3,1.2-0.7,1.4-1.4c0.3,0.7,0.7,1.2,1.4,1.4C-149.5,108.7-150.1,109.1-150.2,109.8z"/>
		<path id="star2" d="M-186.7,106.8c-2,0-2.6-0.6-2.6-2.6c0-0.2-0.1-0.2-0.2-0.2c-0.2,0-0.2,0.1-0.2,0.2c0,2-0.6,2.6-2.6,2.6
			c-0.2,0-0.2,0.1-0.2,0.2s0.1,0.2,0.2,0.2c2,0,2.6,0.6,2.6,2.6c0,0.2,0.1,0.2,0.2,0.2c0.2,0,0.2-0.1,0.2-0.2c0-2,0.6-2.6,2.6-2.6
			c0.2,0,0.2-0.1,0.2-0.2S-186.6,106.8-186.7,106.8z M-189.5,108.2c-0.2-0.6-0.6-1-1.2-1.2c0.6-0.2,1-0.6,1.2-1.2
			c0.2,0.6,0.6,1,1.2,1.2C-189,107.1-189.3,107.5-189.5,108.2z"/>
		<path id="star1" d="M-198,120.5c-1.8,0-2.3-0.5-2.3-2.3c0-0.1-0.1-0.2-0.2-0.2s-0.2,0.1-0.2,0.2c0,1.8-0.5,2.3-2.3,2.3
			c-0.1,0-0.2,0.1-0.2,0.2s0.1,0.2,0.2,0.2c1.8,0,2.3,0.5,2.3,2.3c0,0.1,0.1,0.2,0.2,0.2c0.1,0,0.2-0.1,0.2-0.2
			c0-1.8,0.5-2.3,2.3-2.3c0.1,0,0.2-0.1,0.2-0.2C-197.8,120.5-197.9,120.5-198,120.5z M-200.5,121.7c-0.2-0.5-0.5-0.8-1.1-1
			c0.5-0.2,0.8-0.5,1.1-1.1c0.2,0.5,0.5,0.9,1,1.1C-200,120.9-200.4,121.3-200.5,121.7z"/>
	</g>
</g>
</svg>
