<?xml version="1.0" encoding="UTF-8"?>
<svg width="59px" height="45px" viewBox="0 0 59 45" version="1.1" xmlns="http://www.w3.org/2000/svg" xmlns:xlink="http://www.w3.org/1999/xlink">
    <!-- Generator: Sketch 50.2 (55047) - http://www.bohemiancoding.com/sketch -->
    <title>emailmarketingIcon</title>
    <desc>Created with Sketch.</desc>
    <defs></defs>
    <g id="Page-1" stroke="none" stroke-width="1" fill="none" fill-rule="evenodd">
        <g id="emailmarketingIcon">
            <g id="Group" transform="translate(9.000000, 6.000000)" stroke="#A6A6DA" stroke-linecap="round" stroke-linejoin="round" stroke-width="1.17">
                <path d="M29.9,23.1 L39.4,16.9 L35.2,14.4 L39.4,16.9 C40,17.3 40.3,18 40.3,18.5 L40.3,35.8 C40.3,36.9 39.2,37.8 38,37.8 L2.9,37.8 C1.6,37.8 0.6,36.9 0.6,35.8 L0.6,18.5 C0.6,17.9 1,17.3 1.5,16.9 L5.2,14.6 L1.5,16.9 L10.9,23.1" id="path4"></path>
                <path d="M1.7,37.3 L11.5,32.3 M29.8,31.8 L39.7,37.1" id="path3"></path>
                <path d="M12.9,6.5 L27.9,6.5" id="path1"></path>
                <path d="M12.9,10 L27.9,10" id="path2"></path>
                <path d="M12.9,10 C27.9,10 12.9,10 12.9,10" id="path7"></path>
                <path d="M12.9,13.2 L27.9,13.2" id="path0"></path>
                <path d="M9.4,18.3 L9.4,2.4 C9.4,1.1 10.5,-1.42108547e-14 11.8,-1.42108547e-14 L29,-1.42108547e-14 C30.3,-1.42108547e-14 31.4,1 31.4,2.4 L31.4,18.3" id="path5"></path>
                <path d="M24.6,32.3 C21.2,35.1 15,33.2 14.2,28.6 C13.3,24.7 16.3,20.8 20.5,20.8 C23.9,20.8 26.1,22.7 26.9,25.7 C27.2,27 27.1,29.3 25.6,29.7 C24.1,30.1 23.4,28.7 23.2,27.4 C23.2,24.7 19.9,23.6 18.3,25.8 C17,27.6 18.5,31.1 21.8,30" id="path6"></path>
            </g>
            <g id="stars" fill="#A6A6DA" fill-rule="nonzero">
                <path d="M9.6,11.6 C8.3,11.6 7.4,12.6 7.4,13.8 C7.4,15 8.4,16 9.6,16 C10.8,16 11.8,15 11.8,13.8 C11.8,12.5 10.8,11.6 9.6,11.6 Z M9.6,15.4 C8.7,15.4 8,14.7 8,13.8 C8,12.9 8.7,12.2 9.6,12.2 C10.5,12.2 11.2,12.9 11.2,13.8 C11.2,14.7 10.5,15.4 9.6,15.4 Z" id="star5"></path>
                <path d="M56.7,19.5 C55.8,19.5 55,20.2 55,21.2 C55,22.2 55.7,22.9 56.7,22.9 C57.7,22.9 58.4,22.2 58.4,21.2 C58.4,20.1 57.6,19.5 56.7,19.5 Z M56.7,22.5 C56,22.5 55.4,22 55.4,21.2 C55.4,20.4 55.9,19.9 56.7,19.9 C57.5,19.9 58,20.4 58,21.2 C58,22 57.3,22.5 56.7,22.5 Z" id="star4"></path>
                <path d="M50.3,14 C48.3,14 47.7,13.4 47.7,11.3 C47.7,11.1 47.6,11.1 47.4,11.1 C47.2,11.1 47.2,11.2 47.2,11.3 C47.2,13.3 46.6,14 44.5,14 C44.3,14 44.3,14.2 44.3,14.2 C44.3,14.4 44.4,14.4 44.5,14.4 C46.5,14.4 47.2,15 47.2,17.1 C47.2,17.3 47.4,17.3 47.5,17.3 C47.7,17.3 47.7,17.2 47.7,17.1 C47.7,15.1 48.2,14.4 50.3,14.4 C50.5,14.4 50.6,14.4 50.6,14.2 C50.6,14.1 50.4,14 50.3,14 Z M47.4,15.4 C47.2,14.8 46.8,14.4 46.2,14.2 C46.8,14 47.2,13.6 47.4,13 C47.6,13.6 48,14 48.6,14.2 C48,14.4 47.5,14.9 47.4,15.4 Z" id="star3"></path>
                <path d="M6.4,32.5 C4.4,32.5 3.8,31.9 3.8,29.9 C3.8,29.7 3.7,29.7 3.6,29.7 C3.4,29.7 3.4,29.8 3.4,29.9 C3.4,31.9 2.8,32.5 0.8,32.5 C0.6,32.5 0.6,32.6 0.6,32.7 C0.6,32.8 0.7,32.9 0.8,32.9 C2.8,32.9 3.4,33.5 3.4,35.5 C3.4,35.7 3.5,35.7 3.6,35.7 C3.8,35.7 3.8,35.6 3.8,35.5 C3.8,33.5 4.4,32.9 6.4,32.9 C6.6,32.9 6.6,32.8 6.6,32.7 C6.6,32.6 6.5,32.5 6.4,32.5 Z M3.6,33.9 C3.4,33.3 3,32.9 2.4,32.7 C3,32.5 3.4,32.1 3.6,31.5 C3.8,32.1 4.2,32.5 4.8,32.7 C4.2,32.8 3.8,33.2 3.6,33.9 Z" id="star2"></path>
                <path d="M20.8,2.3 C20.8,2.2 20.6,2.2 20.5,2.2 C20.3,2.2 20.1,2.2 19.9,2.2 C19.7,2.2 19.5,2.1 19.4,2 C19.3,1.9 19.2,1.7 19.1,1.5 C19.1,1.3 19.1,1.1 19.1,0.9 L19.1,0.8 L19,0.7 C18.9,0.7 18.9,0.8 18.9,0.9 C18.9,1.1 18.9,1.3 18.8,1.5 C18.8,1.7 18.7,1.9 18.5,2 C18.4,2.1 18.2,2.2 18,2.3 C17.8,2.3 17.6,2.4 17.4,2.4 L17.3,2.4 L17.2,2.5 C17.2,2.6 17.3,2.6 17.3,2.6 C17.5,2.6 17.7,2.6 18,2.6 C18.2,2.6 18.4,2.7 18.6,2.9 C18.7,3 18.8,3.2 18.8,3.4 C18.8,3.6 18.9,3.8 18.9,4 L18.9,4.1 L19,4.2 C19.1,4.2 19.1,4.1 19.1,4 C19.1,3.8 19.1,3.6 19.2,3.3 C19.3,3.1 19.4,2.9 19.5,2.8 C19.7,2.6 20.1,2.6 20.4,2.6 C20.6,2.4 20.8,2.4 20.8,2.3 Z M19,3 C18.8,2.6 18.6,2.5 18.3,2.4 C18.7,2.2 18.8,2 19,1.7 C19.1,2.1 19.5,2.3 19.7,2.4 C19.4,2.5 19.2,2.8 19,3 Z" id="star1"></path>
            </g>
        </g>
    </g>
</svg>