<?xml version="1.0" encoding="UTF-8"?>
<svg width="49px" height="49px" viewBox="0 0 49 49" version="1.1" xmlns="http://www.w3.org/2000/svg" xmlns:xlink="http://www.w3.org/1999/xlink">
    <!-- Generator: Sketch 50.2 (55047) - http://www.bohemiancoding.com/sketch -->
    <title>keywordResearchIcon</title>
    <desc>Created with Sketch.</desc>
    <defs></defs>
    <g id="Page-1" stroke="none" stroke-width="1" fill="none" fill-rule="evenodd">
        <g id="keywordResearchIcon">
            <g id="Group" transform="translate(3.000000, 4.000000)">
                <path d="M41.1,10.4 L38.8,13.7 L36.5,10.4 L36.1,10.4 L33.6,13.7 L31.1,10.5 L28.6,13.7 L26,10.4 L22.9,10.4 C21.1,7.2 17.5,5.2 13.5,5.9 C9.5,6.4 6.4,9.8 5.9,13.7 C5.4,19.3 9.6,23.8 15,23.8 C18.4,23.8 21.5,21.8 22.9,19.1 L41,19.1 L44.9,14.7 L41.1,10.4 Z" id="path4" stroke="#A6A6DA" stroke-width="1.17" stroke-linecap="round" stroke-linejoin="round"></path>
                <path d="M9.5,14.8 C9.4,11.7 11.8,9.2 14.6,9.1 C16.9,9 19.4,10.5 20.2,12.7 C21,14.9 20.1,17.6 18.3,19 C17.5,19.7 16.4,20 15.4,20.1 C12.3,20.4 9.6,18 9.5,14.8 Z" id="path0" stroke="#A6A6DA" stroke-width="1.17" stroke-linecap="round" stroke-linejoin="round"></path>
                <path d="M16.9,14.6 C16.9,15.6 16.1,16.5 15,16.5 C13.9,16.5 13.1,15.7 13.1,14.6 C13.1,13.6 13.9,12.7 15,12.7 C15.9,12.6 16.9,13.5 16.9,14.6 Z" id="path1" stroke="#A6A6DA" stroke-width="1.17" stroke-linecap="round" stroke-linejoin="round"></path>
                <path d="M16.9,14.6 C16.9,15.9 16,16.5 15,16.5 C13.7,16.5 13.1,15.6 13.1,14.6 C13.1,13.3 14,12.7 15,12.7 C16.3,12.7 16.9,13.8 16.9,14.6 Z" id="path5" stroke="#A6A6DA" stroke-width="1.17" stroke-linecap="round" stroke-linejoin="round"></path>
                <path d="M10.4,31.2 C7.9,36.2 7.7,37.2 5.2,42.3 C4.3,44.2 2.5,44.3 1.5,43.6 C0.4,43.1 -0.4,41.5 0.5,39.9 C3,34.8 3.3,33.8 5.7,28.7" id="path3" stroke="#A6A6DA" stroke-width="1.17" stroke-linecap="round" stroke-linejoin="round"></path>
                <path d="M27.2,22.2 C23.3,28.2 15.5,30.5 9,27.5 C1.7,24 -1.2,14.9 2.7,7.8 C6.5,0.9 15.3,-1 21.4,1.9 C24.2,3.3 26,5.3 27.2,7.3" id="path2" stroke="#A6A6DA" stroke-width="1.17" stroke-linecap="round" stroke-linejoin="round"></path>
                <path d="M27.2,22.2 C23.3,28.2 15.5,30.5 9,27.5 C1.7,24 -1.2,14.9 2.7,7.8 C6.5,0.9 15.3,-1 21.4,1.9 C24.2,3.3 26,5.3 27.2,7.3" id="path6" stroke="#A6A6DA" stroke-width="1.17" stroke-linecap="round" stroke-linejoin="round"></path>
                <path d="M16.8,13.9 C17.2,14.6 16.9,16.4 15.1,16.5 C13.2,16.5 12.8,14.6 13.4,13.6 C13.7,13 14.5,12.7 15,12.7 C16,12.7 16.6,13.3 16.6,13.6" id="path7"></path>
            </g>
            <g id="stars_1_" fill="#A6A6DA" fill-rule="nonzero">
                <path d="M33.7,3.9 C32.4,3.9 31.5,4.9 31.5,6.1 C31.5,7.4 32.5,8.3 33.7,8.3 C35,8.3 35.9,7.3 35.9,6.1 C35.9,4.9 34.8,3.9 33.7,3.9 Z M33.7,7.7 C32.8,7.7 32.1,7 32.1,6.1 C32.1,5.2 32.8,4.5 33.7,4.5 C34.6,4.5 35.3,5.2 35.3,6.1 C35.3,6.9 34.6,7.7 33.7,7.7 Z" id="star5"></path>
                <path d="M2.2,29.7 C1.3,29.7 0.5,30.4 0.5,31.4 C0.5,32.4 1.2,33.1 2.2,33.1 C3.2,33.1 3.9,32.4 3.9,31.4 C3.9,30.4 3.1,29.7 2.2,29.7 Z M2.2,32.7 C1.5,32.7 0.9,32.2 0.9,31.4 C0.9,30.7 1.4,30.1 2.2,30.1 C2.9,30.1 3.5,30.6 3.5,31.4 C3.5,32.1 3,32.7 2.2,32.7 Z" id="star4"></path>
                <path d="M38.6,31.2 C36.2,31.2 35.4,30.5 35.4,28 C35.4,27.8 35.3,27.7 35.1,27.7 C34.9,27.7 34.8,27.8 34.8,28 C34.8,30.4 34,31.2 31.6,31.2 C31.4,31.2 31.3,31.3 31.3,31.5 C31.3,31.7 31.4,31.8 31.6,31.8 C34,31.8 34.8,32.5 34.8,35 C34.8,35.2 34.9,35.3 35.1,35.3 C35.3,35.3 35.4,35.2 35.4,35 C35.4,32.6 36.1,31.8 38.6,31.8 C38.8,31.8 38.9,31.7 38.9,31.5 C38.9,31.2 38.7,31.2 38.6,31.2 Z M35.1,32.9 C34.8,32.2 34.4,31.7 33.7,31.5 C34.4,31.2 34.9,30.8 35.1,30.1 C35.4,30.8 35.8,31.3 36.5,31.5 C35.8,31.7 35.3,32.1 35.1,32.9 Z" id="star3"></path>
                <path d="M8.3,3.2 C6.3,3.2 5.7,2.6 5.7,0.6 C5.7,0.4 5.6,0.4 5.5,0.4 C5.3,0.4 5.3,0.5 5.3,0.6 C5.3,2.6 4.7,3.2 2.7,3.2 C2.5,3.2 2.5,3.3 2.5,3.4 C2.5,3.5 2.6,3.6 2.7,3.6 C4.7,3.6 5.3,4.2 5.3,6.2 C5.3,6.4 5.4,6.4 5.5,6.4 C5.7,6.4 5.7,6.3 5.7,6.2 C5.7,4.2 6.3,3.6 8.3,3.6 C8.5,3.6 8.5,3.5 8.5,3.4 C8.5,3.3 8.3,3.2 8.3,3.2 Z M5.5,4.6 C5.3,4 4.9,3.6 4.3,3.4 C4.9,3.2 5.3,2.8 5.5,2.2 C5.7,2.8 6.1,3.2 6.7,3.4 C6,3.6 5.7,4 5.5,4.6 Z" id="star2"></path>
                <path d="M30.6,35.7 C28.8,35.7 28.3,35.2 28.3,33.4 C28.3,33.3 28.2,33.2 28.1,33.2 C28,33.2 27.9,33.3 27.9,33.4 C27.9,35.2 27.4,35.7 25.6,35.7 C25.5,35.7 25.4,35.8 25.4,35.9 C25.4,36 25.5,36.1 25.6,36.1 C27.4,36.1 27.9,36.6 27.9,38.4 C27.9,38.5 28,38.6 28.1,38.6 C28.2,38.6 28.3,38.5 28.3,38.4 C28.3,36.6 28.8,36.1 30.6,36.1 C30.7,36.1 30.8,36 30.8,35.9 C30.8,35.7 30.7,35.7 30.6,35.7 Z M28.1,37 C27.9,36.5 27.6,36.2 27,36 C27.5,35.8 27.8,35.5 28.1,34.9 C28.3,35.4 28.6,35.8 29.1,36 C28.5,36.2 28.2,36.6 28.1,37 Z" id="star1"></path>
            </g>
        </g>
    </g>
</svg>