<?xml version="1.0" encoding="utf-8"?>
<!-- Generator: Adobe Illustrator 19.0.0, SVG Export Plug-In . SVG Version: 6.00 Build 0)  -->
<svg version="1.1" id="linkBuildingIcon" xmlns="http://www.w3.org/2000/svg" xmlns:xlink="http://www.w3.org/1999/xlink" x="0px"
	 y="0px" viewBox="-212 88 75 75" style="enable-background:new -212 88 75 75;" xml:space="preserve">
<style type="text/css">
	.st0{fill:none;stroke:#000000;stroke-width:1.17;stroke-linecap:round;stroke-linejoin:round;stroke-miterlimit:10;}
</style>
<g>
	<g>
		<path id="path6" class="st0" d="M-183.7,121.3c0-1.9,0-3.7,0-5.7"/>
		<path id="path5" class="st0" d="M-180.8,118.5c-1.9,0-3.8,0-5.7,0"/>
		<path id="path0" class="st0" d="M-180.9,128.1c-2.3,2.4-4.6,4.7-6.9,7c-2.6,2.7-1.9,6.5,0.6,8.9c2.2,2.2,6.1,3.1,8.3,0.9
			c2.7-2.8,5.5-5.5,8.1-8.3c0.3-0.3,2.6-2,2.6-5.1c-0.1-2.4-1.3-4.4-3.4-5.4"/>
		<path id="path1" class="st0" d="M-188.7,118c0.2-2.7,2.3-4.6,4.9-4.6c2.9-0.1,5.1,2.4,5.2,4.8c0.2,2.8-2,5.4-5,5.4
			C-186.4,123.5-189,121.2-188.7,118z"/>
		<path id="path7" class="st0" d="M-163.6,129.3c2.3-2.4,4.6-4.7,6.9-7c2.6-2.6,1.9-6.5-0.6-8.9c-2.2-2.2-6.1-3.1-8.3-0.9
			c-2.7,2.8-5.5,5.5-8.1,8.3c-0.3,0.3-2.6,2-2.6,5.1c0.1,2.4,1.3,4.4,3.4,5.4"/>
		<path id="path4" class="st0" d="M-163.6,129.3c2.3-2.4,4.6-4.7,6.9-7c2.6-2.6,1.9-6.5-0.6-8.9c-2.2-2.2-6.1-3.1-8.3-0.9
			c-2.7,2.8-5.5,5.5-8.1,8.3c-0.3,0.3-2.6,2-2.6,5.1c0.1,2.4,1.3,4.4,3.4,5.4"/>
		<path id="path3" class="st0" d="M-159.2,129l-4.6,1c-0.4,0.1-0.7-0.3-0.6-0.6l0.9-4.7"/>
		<path id="path2" class="st0" d="M-185.4,128.4l4.6-1c0.4-0.1,0.7,0.3,0.6,0.6l-0.9,4.7"/>
	</g>
	<g id="stars_1_">
		<path id="star5" d="M-171.4,106.6c-1.3,0-2.2,1-2.2,2.2s1,2.2,2.2,2.2s2.2-1,2.2-2.2S-170.2,106.6-171.4,106.6z M-171.4,110.4
			c-0.9,0-1.6-0.7-1.6-1.6c0-0.9,0.7-1.6,1.6-1.6s1.6,0.7,1.6,1.6C-169.8,109.7-170.4,110.4-171.4,110.4z"/>
		<path id="star4" d="M-152.6,125c-0.9,0-1.7,0.7-1.7,1.7s0.7,1.7,1.7,1.7s1.7-0.7,1.7-1.7S-151.7,125-152.6,125z M-152.6,128
			c-0.7,0-1.3-0.5-1.3-1.3c0-0.7,0.5-1.3,1.3-1.3s1.3,0.5,1.3,1.3S-151.9,128-152.6,128z"/>
		<path id="star3" d="M-159.2,138.1c-2.4,0-3.2-0.7-3.2-3.2c0-0.2-0.1-0.3-0.3-0.3s-0.3,0.1-0.3,0.3c0,2.4-0.8,3.2-3.2,3.2
			c-0.2,0-0.3,0.1-0.3,0.3s0.1,0.3,0.3,0.3c2.4,0,3.2,0.7,3.2,3.2c0,0.2,0.1,0.3,0.3,0.3s0.3-0.1,0.3-0.3c0-2.4,0.7-3.2,3.2-3.2
			c0.2,0,0.3-0.1,0.3-0.3C-158.9,138.1-159.2,138.1-159.2,138.1z M-162.7,139.8c-0.3-0.7-0.7-1.2-1.4-1.4c0.7-0.3,1.2-0.7,1.4-1.4
			c0.3,0.7,0.7,1.2,1.4,1.4C-161.9,138.7-162.4,139.1-162.7,139.8z"/>
		<path id="star2" d="M-176.9,151.2c-0.2,0-0.7,0-0.9-0.1c-0.3,0-0.6-0.1-0.9-0.3c-0.5-0.3-0.7-0.9-0.8-1.5c0-0.2,0-0.5,0-0.7
			s-0.1-0.3-0.2-0.3c-0.2,0-0.2,0.2-0.2,0.3c0,2-0.6,2.6-2.6,2.6c-0.2,0-0.2,0.1-0.2,0.2c0,0.1,0.1,0.2,0.2,0.2c2,0,2.6,0.6,2.6,2.6
			c0,0.2,0.1,0.2,0.2,0.2c0.2,0,0.2-0.1,0.2-0.2c0-2,0.6-2.6,2.6-2.6c0.1,0,0.2-0.1,0.2-0.2C-176.7,151.3-176.8,151.2-176.9,151.2z
			 M-179.7,152.6c-0.2-0.6-0.6-1-1.2-1.2c0.6-0.2,1-0.6,1.2-1.2c0.2,0.6,0.6,1,1.2,1.2C-179.2,151.7-179.4,151.9-179.7,152.6z"/>
		<path id="star1" d="M-193,128.6c-0.2-0.1-2.4,0.3-2.2-2.3c0-0.1-0.1-0.2-0.2-0.2s-0.2,0.1-0.2,0.2c0,1.8-0.5,2.3-2.3,2.3
			c-0.1,0-0.2,0.1-0.2,0.2c0,0.1,0.1,0.2,0.2,0.2c1.8,0,2.3,0.5,2.3,2.3c0,0.1,0.1,0.2,0.2,0.2s0.2-0.1,0.2-0.2
			c0-0.6,0.1-1.2,0.4-1.7c0.4-0.5,1.5-0.5,1.7-0.5c0.3,0,0.3-0.1,0.3-0.2C-192.8,128.7-192.9,128.7-193,128.6z M-195.4,129.8
			c-0.2-0.5-0.5-0.8-1.1-1c0.5-0.2,0.8-0.5,1.1-1.1c0.2,0.5,0.5,0.9,1,1.1C-194.9,129-195.2,129.3-195.4,129.8z"/>
	</g>
</g>
</svg>
