<svg xmlns="http://www.w3.org/2000/svg" viewBox="0 0 320.55 301.99"><defs><style>.cls-1{fill:none;stroke:#fff;stroke-miterlimit:10;stroke-width:1.5px;}</style></defs><title>资源 1</title><g id="图层_2" data-name="图层 2"><g id="图层_1-2" data-name="图层 1"><g id="图层_2-2" data-name="图层 2"><g id="Style_1" data-name="Style 1"><polygon class="cls-1" points="89.07 78.61 0.75 27.62 0.75 1.3 89.07 52.29 89.07 78.61"/><polygon class="cls-1" points="37.79 111.5 74.82 86.83 37.79 65.45 0.75 90.12 0.75 116.44 89.07 167.42 89.07 141.11 37.79 111.5"/><polygon class="cls-1" points="131.8 103.28 103.31 86.83 103.31 60.51 131.8 76.96 131.8 103.28"/><path class="cls-1" d="M205.87,198.68c0,20-14,28.08-31.34,18.09L131.8,192.1l-28.49-16.45V103.28l28.49,16.44,2.85,1.65,29.91,17.27c3.93,2.27,7.12.43,7.12-4.11a15.76,15.76,0,0,0-7.12-12.34L146,111.5V85.18l27.07,15.63c16.52,9.54,29.91,32.73,29.91,51.81,0,7.42-2,13.09-5.48,16.73C202.69,178.78,205.87,189.2,205.87,198.68Zm-34.19-19.74c0-5.45-3.82-12.08-8.54-14.81L131.8,146v19.74l31.34,18.09c4.72,2.77,8.54.56,8.54-4.89Z"/><path class="cls-1" d="M217.52,176.39c2.59-28.41,24.45-39.11,51-23.77,22.33,12.9,41.3,40.33,48.34,67.39l-32.48-18.75c-3.87-8.29-9.54-15.38-15.86-19-11.8-6.81-21.37.92-21.37,17.27A53,53,0,0,0,251,218.58C236.89,206.39,225,191.32,217.52,176.39Z"/><path class="cls-1" d="M268.55,182.23c-11.8-6.81-21.37.92-21.37,17.27A53.11,53.11,0,0,0,251,218.58c-14.11-12.19-26-27.26-33.48-42.19,2.59-28.41,24.45-39.11,51-23.77,22.33,12.9,41.3,40.33,48.34,67.39l-32.48-18.75C280.54,193,274.87,185.88,268.55,182.23Z"/><path class="cls-1" d="M316.89,220l-32.48-18.75c-3.87-8.29-9.54-15.38-15.86-19-11.8-6.81-21.37.92-21.37,17.27A53,53,0,0,0,251,218.58c-14.11-12.19-26-27.26-33.48-42.19,2.59-28.41,24.45-39.11,51-23.77C290.88,165.52,309.85,193,316.89,220Z"/><path class="cls-1" d="M319.51,234.68l-13.93-8-16.21-9.36-9.43-5.45v19.74l7.72,4.46a15,15,0,0,1-2.45,3.88c-3.67,4.29-9.26,5.31-15.55,2.14a.66.66,0,0,1-.29-.17l-.25-.14c-.63-.33-1.26-.73-1.88-1.12l-.15-.08a144.31,144.31,0,0,1-49.6-52.39c2.54,31.43,24.42,67.52,51.06,82.9,14.55,8.4,27.72,9,37,3.12v18.26l14.25,8.22V234.86Z"/></g></g></g></g></svg>