<?xml version="1.0" encoding="UTF-8"?>
<svg width="57px" height="45px" viewBox="0 0 57 45" version="1.1" xmlns="http://www.w3.org/2000/svg" xmlns:xlink="http://www.w3.org/1999/xlink">
    <!-- Generator: Sketch 50.2 (55047) - http://www.bohemiancoding.com/sketch -->
    <title>mobileOptimizationIcon</title>
    <desc>Created with Sketch.</desc>
    <defs></defs>
    <g id="Page-1" stroke="none" stroke-width="1" fill="none" fill-rule="evenodd">
        <g id="mobileOptimizationIcon">
            <g id="Group" transform="translate(12.000000, 0.000000)" stroke="#A6A6DA" stroke-linecap="round" stroke-linejoin="round" stroke-width="1.17">
                <path d="M23.7,8.6 L23.7,3.7 C23.7,1.9 22.4,0.6 20.8,0.6 L3,0.6 C1.6,0.6 0.1,1.9 0.1,3.7 L0.1,41.2 C0.1,42.8 1.4,44.3 3,44.3 L20.8,44.3 C22.2,44.3 23.7,43 23.7,41.2 L23.7,37.4 L23.7,35.5" id="path0"></path>
                <path d="M14,41.9 L9.9,41.9 L14,41.9 Z" id="path5"></path>
                <path d="M23.7,5.9 L0.1,5.9" id="path4"></path>
                <path d="M0.1,38.9 L23.6,38.9" id="path3"></path>
                <path d="M28.1,28.4 C28.9,27.9 29.4,27.2 29.6,26.6 L31.6,27.3 L32.9,24.1 L30.8,23.1 C31,22.3 31.2,21.3 30.9,20.6 L32.8,19.7 L31.4,16.3 L29.5,17.2 C29,16.4 28.3,15.9 27.7,15.7 L28.7,13.6 L25.5,12.3 L24.8,14.3 C24,14.1 23.1,14.2 22.3,14.2 L21.4,12.3 L18,13.7 L18.9,15.6 C18.1,16.1 17.6,16.8 17.4,17.4 L15.3,16.4 L14,19.6 L16.1,20.6 C15.9,21.4 15.7,22.4 16,23.1 L14.1,24 L15.5,27.4 L17.4,26.5 C17.9,27.3 18.6,27.8 19.2,28 L18.2,30.1 L21.4,31.4 L22.1,29.4 C22.9,29.6 23.8,29.5 24.6,29.5 L25.5,31.4 L28.9,30 L28.1,28.4 Z" id="path2"></path>
                <path d="M22,17.9 C24.2,17.1 26.9,18.3 27.7,20.6 C28.5,22.8 27.3,25.4 25,26.2 C22.8,27 20.1,25.8 19.3,23.5 C18.5,21.1 19.7,18.9 22,17.9 Z" id="path1"></path>
                <path d="M28.1,28.4 C28.9,27.9 29.4,27.2 29.6,26.6 L31.6,27.3 L32.9,24.1 L30.8,23.1 C31,22.3 31.2,21.3 30.9,20.6 L32.8,19.7 L31.4,16.3 L29.5,17.2 C29,16.4 28.3,15.9 27.7,15.7 L28.7,13.6 L25.5,12.3 L24.8,14.3 C24,14.1 23.1,14.2 22.3,14.2 L21.4,12.3 L18,13.7 L18.9,15.6 C18.1,16.1 17.6,16.8 17.4,17.4 L15.3,16.4 L14,19.6 L16.1,20.6 C15.9,21.4 15.7,22.4 16,23.1 L14.1,24 L15.5,27.4 L17.4,26.5 C17.9,27.3 18.6,27.8 19.2,28 L18.2,30.1 L21.4,31.4 L22.1,29.4 C22.9,29.6 23.8,29.5 24.6,29.5 L25.5,31.4 L28.9,30 L28.1,28.4 Z" id="path6"></path>
                <path d="M22,17.9 C24.2,17.1 26.9,18.3 27.7,20.6 C28.5,22.8 27.3,25.4 25,26.2 C22.8,27 20.1,25.8 19.3,23.5 C18.5,21.1 19.7,18.9 22,17.9 Z" id="path7"></path>
            </g>
            <g id="stars" transform="translate(0.000000, 6.000000)" fill="#A6A6DA" fill-rule="nonzero">
                <path d="M2.3,8.1 C1.4,8.1 0.6,8.8 0.6,9.8 C0.6,10.8 1.3,11.5 2.3,11.5 C3.3,11.5 4,10.8 4,9.8 C4,8.8 3.2,8.1 2.3,8.1 Z M2.3,11.1 C1.6,11.1 1,10.6 1,9.8 C1,9 1.5,8.5 2.3,8.5 C3.1,8.5 3.6,9 3.6,9.8 C3.6,10.5 3,11.1 2.3,11.1 Z" id="star4"></path>
                <path d="M54.2,13.6 C52.9,13.6 52,14.6 52,15.8 C52,17 53,18 54.2,18 C55.4,18 56.4,17 56.4,15.8 C56.4,14.6 55.5,13.6 54.2,13.6 Z M54.2,17.4 C53.3,17.4 52.6,16.7 52.6,15.8 C52.6,14.9 53.3,14.2 54.2,14.2 C55.1,14.2 55.8,14.9 55.8,15.8 C55.8,16.7 55.1,17.4 54.2,17.4 Z" id="star5"></path>
                <path d="M9.3,19.1 C6.9,19.1 6.1,18.4 6.1,15.9 C6.1,15.7 6,15.6 5.8,15.6 C5.6,15.6 5.5,15.7 5.5,15.9 C5.5,18.3 4.7,19.1 2.3,19.1 C2.1,19.1 2,19.2 2,19.4 C2,19.6 2.1,19.7 2.3,19.7 C4.7,19.7 5.5,20.4 5.5,22.9 C5.5,23.1 5.6,23.2 5.8,23.2 C6,23.2 6.1,23.1 6.1,22.9 C6.1,20.5 6.8,19.7 9.3,19.7 C9.5,19.7 9.6,19.6 9.6,19.4 C9.5,19.2 9.4,19.1 9.3,19.1 Z M5.8,20.8 C5.5,20.1 5.1,19.6 4.4,19.4 C5.1,19.1 5.6,18.7 5.8,18 C6.1,18.7 6.5,19.2 7.2,19.4 C6.6,19.6 6,20.1 5.8,20.8 Z" id="star3"></path>
                <path d="M47.6,29.6 C45.6,29.6 45,29 45,27 C45,26.8 44.9,26.8 44.8,26.8 C44.7,26.8 44.6,26.9 44.6,27 C44.6,29 44,29.6 42,29.6 C41.8,29.6 41.8,29.7 41.8,29.8 C41.8,30 41.9,30 42,30 C44,30 44.6,30.6 44.6,32.6 C44.6,32.8 44.7,32.8 44.8,32.8 C44.9,32.8 45,32.7 45,32.6 C45,30.6 45.6,30 47.6,30 C47.7,30 47.8,29.9 47.8,29.8 C47.8,29.7 47.8,29.6 47.6,29.6 Z M44.8,31 C44.6,30.4 44.2,30 43.6,29.8 C44.2,29.6 44.6,29.2 44.8,28.6 C45,29.2 45.4,29.6 46,29.8 C45.4,30.1 44.9,30.4 44.8,31 Z" id="star2"></path>
                <path d="M48.6,2.4 C47.1,2.4 46.6,2 46.6,0.4 C46.6,0.3 46.5,0.2 46.4,0.2 C46.3,0.2 46.2,0.3 46.2,0.4 C46.2,1.9 45.8,2.4 44.2,2.4 C44.1,2.4 44,2.5 44,2.6 C44,2.7 44.1,2.8 44.2,2.8 C45.7,2.8 46.2,3.3 46.2,4.8 C46.2,4.9 46.3,5 46.4,5 C46.5,5 46.6,4.9 46.6,4.8 C46.6,3.3 47,2.8 48.6,2.8 C48.7,2.8 48.8,2.7 48.8,2.6 C48.8,2.4 48.7,2.4 48.6,2.4 Z M46.4,3.4 C46.2,3 46,2.8 45.5,2.6 C45.9,2.4 46.2,2.2 46.4,1.8 C46.6,2.2 46.9,2.4 47.2,2.6 C46.9,2.8 46.5,3.1 46.4,3.4 Z" id="star1"></path>
            </g>
        </g>
    </g>
</svg>