<?xml version="1.0" encoding="UTF-8"?>
<svg width="55px" height="49px" viewBox="0 0 55 49" version="1.1" xmlns="http://www.w3.org/2000/svg" xmlns:xlink="http://www.w3.org/1999/xlink">
    <!-- Generator: Sketch 50.2 (55047) - http://www.bohemiancoding.com/sketch -->
    <title>pageSpeedIcon</title>
    <desc>Created with Sketch.</desc>
    <defs></defs>
    <g id="Page-1" stroke="none" stroke-width="1" fill="none" fill-rule="evenodd">
        <g id="pageSpeedIcon">
            <g id="Group" transform="translate(0.000000, 9.000000)" stroke="#A6A6DA" stroke-linecap="round" stroke-linejoin="round" stroke-width="1.17">
                <path d="M6.2,2.7 C6.7,2.7 6.7,2.7 6.7,2.7" id="path1"></path>
                <path d="M3.5,2.7 C4,2.7 4,2.7 4,2.7" id="path0"></path>
                <path d="M4.9,22.8 L17.7,22.8 M17.9,25 L5,25 M12.4,27.1 L4.9,27.1" id="path4"></path>
                <path d="M0.9,4.7 C27.3,4.7 23.1,4.7 23.1,4.7" id="path5"></path>
                <path d="M28.4,30.1 C19.2,30.1 12.5,30.1 3.4,30.1 C2.1,30.1 0.9,29.6 0.9,27.5 C0.9,19.9 0.9,10.1 0.9,2.5 C0.9,2.4 0.9,1.5 1.5,0.9 C2.1,0.5 3,0.5 3,0.5 C12.3,0.5 18.7,0.5 28.1,0.5" id="path7"></path>
                <path d="M8.8,2.7 C9.2,2.7 9.3,2.7 9.3,2.7" id="path3"></path>
                <path d="M0.9,19.1 C23.6,19.1 -1.9,19.1 20.9,19.1 L0.9,19.1 Z" id="path6"></path>
                <path d="M39.2,0.7 C47.3,0.7 54.1,7.3 54.1,15.6 C54.1,23.7 47.5,30.5 39.2,30.5 C30.9,30.5 24.2,23.9 24.2,15.6 C24.2,7.3 30.9,0.7 39.2,0.7 Z M33.6,20.6 L30.8,23.1 C29,21.1 27.8,18.4 27.8,15.4 C27.8,9.1 32.9,4.1 39.1,4.1 C45.4,4.1 50.4,9.1 50.4,15.4 C50.4,18.3 49.3,20.8 47.7,22.7 L45.1,20.6 L33.6,20.6 Z M39.1,4.2 L39.1,7.1 L39.1,4.2 Z M27.9,15.2 L31.2,15.2 L27.9,15.2 Z M46.9,15.2 L50.4,15.2 L46.9,15.2 Z M30.9,7.8 L32.9,9.7 L30.9,7.8 Z M47.2,7.6 L45,9.8 L47.2,7.6 Z M42.6,18.6 L40.1,16.5 L42.6,18.6 Z M39.1,13.8 C40,13.8 40.6,14.4 40.6,15.3 C40.6,16.2 40,16.8 39.1,16.8 C38.2,16.8 37.6,16.2 37.6,15.3 C37.6,14.4 38.2,13.8 39.1,13.8 Z M40.6,15.3 C40.6,15.6 40.5,15.9 40.3,16.2 C40.1,16.5 39.7,16.7 39.2,16.8 C38.8,16.8 38.4,16.7 38.1,16.4 C37.4,15.8 37.5,14.7 38.1,14.1 C38.4,13.9 38.7,13.8 39.1,13.8 C39.9,13.8 40.6,14.5 40.6,15.3 Z" id="path2"></path>
            </g>
            <g id="stars_1_" transform="translate(7.000000, 0.000000)" fill="#A6A6DA" fill-rule="nonzero">
                <path d="M2.4,1.7 C1.1,1.7 0.2,2.7 0.2,3.9 C0.2,5.2 1.2,6.1 2.4,6.1 C3.7,6.1 4.6,5.1 4.6,3.9 C4.6,2.7 3.5,1.7 2.4,1.7 Z M2.4,5.5 C1.5,5.5 0.8,4.8 0.8,3.9 C0.8,3 1.5,2.3 2.4,2.3 C3.3,2.3 4,3 4,3.9 C4,4.8 3.3,5.5 2.4,5.5 Z" id="star5"></path>
                <path d="M25.2,42.2 C24.3,42.2 23.5,42.9 23.5,43.9 C23.5,44.9 24.2,45.6 25.2,45.6 C26.2,45.6 26.9,44.9 26.9,43.9 C26.9,42.8 26,42.2 25.2,42.2 Z M25.2,45.2 C24.5,45.2 23.9,44.7 23.9,43.9 C23.9,43.1 24.4,42.6 25.2,42.6 C25.9,42.6 26.5,43.1 26.5,43.9 C26.5,44.7 25.8,45.2 25.2,45.2 Z" id="star4"></path>
                <path d="M22.9,3.5 C20.5,3.5 19.8,2.8 19.8,0.3 C19.8,0.1 19.7,0 19.5,0 C19.3,0 19.2,0.1 19.2,0.3 C19.2,2.7 18.4,3.5 16,3.5 C15.8,3.5 15.7,3.6 15.7,3.8 C15.7,4 15.8,4.1 16,4.1 C18.4,4.1 19.2,4.8 19.2,7.3 C19.2,7.5 19.3,7.6 19.5,7.6 C19.7,7.6 19.8,7.5 19.8,7.3 C19.8,4.9 20.4,4.1 22.9,4.1 C23.1,4.1 23.3,4 23.3,3.8 C23.3,3.6 23.1,3.5 22.9,3.5 Z M19.5,5.1 C19.2,4.4 18.8,3.9 18.1,3.7 C18.8,3.4 19.3,3 19.5,2.3 C19.8,3 20.2,3.5 20.9,3.7 C20.4,3.9 19.8,4.4 19.5,5.1 Z" id="star3"></path>
                <path d="M40.6,5.3 C38.6,5.3 38,4.7 38,2.7 C38,2.5 37.9,2.5 37.8,2.5 C37.6,2.5 37.6,2.6 37.6,2.7 C37.6,4.7 37,5.3 35,5.3 C34.8,5.3 34.8,5.4 34.8,5.5 C34.8,5.6 34.9,5.7 35,5.7 C37,5.7 37.6,6.3 37.6,8.3 C37.6,8.5 37.7,8.5 37.8,8.5 C38,8.5 38,8.4 38,8.3 C38,6.3 38.6,5.7 40.6,5.7 C40.8,5.7 40.8,5.6 40.8,5.5 C40.8,5.4 40.8,5.3 40.6,5.3 Z M37.8,6.7 C37.6,6.1 37.2,5.7 36.6,5.5 C37.2,5.3 37.6,4.9 37.8,4.3 C38,4.9 38.4,5.3 39,5.5 C38.5,5.7 38.1,6.1 37.8,6.7 Z" id="star2"></path>
                <path d="M14.4,46.1 C12.6,46.1 12.1,45.6 12.1,43.8 C12.1,43.7 12,43.6 11.9,43.6 C11.8,43.6 11.7,43.7 11.7,43.8 C11.7,45.6 11.2,46.1 9.4,46.1 C9.3,46.1 9.2,46.2 9.2,46.3 C9.2,46.4 9.3,46.5 9.4,46.5 C11.2,46.5 11.7,47 11.7,48.8 C11.7,48.9 11.8,49 11.9,49 C12,49 12.1,48.9 12.1,48.8 C12.1,47 12.6,46.5 14.4,46.5 C14.5,46.5 14.6,46.4 14.6,46.3 C14.6,46.2 14.5,46.1 14.4,46.1 Z M11.9,47.4 C11.7,46.9 11.4,46.6 10.8,46.4 C11.3,46.2 11.6,45.9 11.9,45.3 C12.1,45.8 12.4,46.2 12.9,46.4 C12.4,46.5 12.1,46.9 11.9,47.4 Z" id="star1"></path>
            </g>
        </g>
    </g>
</svg>