<?xml version="1.0" encoding="utf-8"?>
<!-- Generator: Adobe Illustrator 19.0.0, SVG Export Plug-In . SVG Version: 6.00 Build 0)  -->
<svg version="1.1" id="seoTagsIcon" xmlns="http://www.w3.org/2000/svg" xmlns:xlink="http://www.w3.org/1999/xlink" x="0px"
	 y="0px" viewBox="-212 88 75 75" style="enable-background:new -212 88 75 75;" xml:space="preserve">
<style type="text/css">
	.st0{fill:none;stroke:#000000;stroke-width:1.17;stroke-linecap:round;stroke-linejoin:round;stroke-miterlimit:10;}
</style>
<g>
	<g>
		<path id="path6" class="st0" d="M-153.7,112.7l-8.5-3.1c-0.6-0.1-1.3,0-1.9,0.3l-29.5,17.1c-1.3,0.7-1.8,2.3-1.1,3.7l6.7,12
			c0.7,1.4,2.3,1.8,3.5,1.1l29.5-17.1c0.5-0.4,0.9-0.8,1.2-1.3l2-8.8C-151.2,114.3-152.1,113.2-153.7,112.7z"/>
		<path id="path7" class="st0" d="M-182.5,128.8c-0.6-0.7-2-0.7-2.8-0.4c-0.9,0.4-1.7,1.2-1.7,2.3c-0.1,1.2,1,1.9,2.1,1.6
			c0.6-0.1,1.3-0.3,1.9-0.6c0.9-0.5,2.3-0.5,2.9,0.6c0.5,1.1-0.1,2.4-1.2,2.9c-1.2,0.7-2.8,1.2-3.8-0.1"/>
		<path id="path3" class="st0" d="M-159.2,116.8c0-1.1,1.1-1.7,2-1.6c0.7,0.1,1.5,0.7,1.5,1.6c0,1.1-0.7,1.7-1.6,1.8
			C-158.4,118.7-159.2,117.8-159.2,116.8z"/>
		<path id="path1" class="st0" d="M-172.2,123.1c0-2.4,2.1-4.1,4.5-3.8c1.7,0.3,3,1.6,3.2,3.3c0.3,2.2-1.3,3.9-3.3,4.2
			C-170.2,127.1-172.1,125.5-172.2,123.1z"/>
		<path id="path4" class="st0" d="M-176.6,132.1c-1.2-2.1-2.4-4-3.7-6.2"/>
		<path id="path5" class="st0" d="M-175.9,123.3c-2.1,1.2-2.2,1.3-4.3,2.5"/>
		<path id="path2" class="st0" d="M-172.2,129.6c-2.1,1.2-2.2,1.3-4.3,2.5"/>
		<path id="path0" class="st0" d="M-174,126.6c-2.1,1.2-2.2,1.3-4.3,2.5"/>
	</g>
	<g id="stars_1_">
		<path id="star5" d="M-169.2,141c-1.3,0-2.2,1-2.2,2.2c0,1.2,1,2.2,2.2,2.2s2.2-1,2.2-2.2C-167,142-168,141-169.2,141z
			 M-169.2,144.8c-0.9,0-1.6-0.7-1.6-1.6c0-0.9,0.7-1.6,1.6-1.6s1.6,0.7,1.6,1.6C-167.6,144-168.3,144.8-169.2,144.8z"/>
		<path id="star4" d="M-174.1,105.7c-0.9,0-1.7,0.7-1.7,1.7s0.7,1.7,1.7,1.7s1.7-0.7,1.7-1.7S-173.2,105.7-174.1,105.7z
			 M-174.1,108.7c-0.7,0-1.3-0.5-1.3-1.3c0-0.7,0.5-1.3,1.3-1.3s1.3,0.5,1.3,1.3S-173.4,108.7-174.1,108.7z"/>
		<path id="star3" d="M-182.7,113.7c-2.4,0-3.2-0.7-3.2-3.2c0-0.2-0.1-0.3-0.3-0.3c-0.2,0-0.3,0.1-0.3,0.3c0,2.4-0.8,3.2-3.2,3.2
			c-0.2,0-0.3,0.1-0.3,0.3s0.1,0.3,0.3,0.3c2.4,0,3.2,0.7,3.2,3.2c0,0.2,0.1,0.3,0.3,0.3c0.2,0,0.3-0.1,0.3-0.3
			c0-2.4,0.7-3.2,3.2-3.2c0.2,0,0.3-0.1,0.3-0.3S-182.6,113.7-182.7,113.7z M-186.2,115.3c-0.3-0.7-0.7-1.2-1.4-1.4
			c0.7-0.3,1.2-0.7,1.4-1.4c0.3,0.7,0.7,1.2,1.4,1.4C-185.5,114.2-186,114.7-186.2,115.3z"/>
		<path id="star2" d="M-154.5,136c-2,0-2.6-0.6-2.6-2.6c0-0.2-0.1-0.2-0.2-0.2c-0.2,0-0.2,0.1-0.2,0.2c0,2-0.6,2.6-2.6,2.6
			c-0.2,0-0.2,0.1-0.2,0.2c0,0.1,0.1,0.2,0.2,0.2c2,0,2.6,0.6,2.6,2.6c0,0.2,0.1,0.2,0.2,0.2c0.2,0,0.2-0.1,0.2-0.2
			c0-2,0.6-2.6,2.6-2.6c0.2,0,0.2-0.1,0.2-0.2C-154.3,136.1-154.4,136-154.5,136z M-157.3,137.4c-0.2-0.6-0.6-1-1.2-1.2
			c0.6-0.2,1-0.6,1.2-1.2c0.2,0.6,0.6,1,1.2,1.2C-156.8,136.4-157.1,136.8-157.3,137.4z"/>
		<path id="star1" d="M-192.8,108.3c-1.8,0-2.3-0.5-2.3-2.3c0-0.1-0.1-0.2-0.2-0.2s-0.2,0.1-0.2,0.2c0,1.8-0.5,2.3-2.3,2.3
			c-0.1,0-0.2,0.1-0.2,0.2s0.1,0.2,0.2,0.2c1.8,0,2.3,0.5,2.3,2.3c0,0.1,0.1,0.2,0.2,0.2s0.2-0.1,0.2-0.2c0-1.8,0.5-2.3,2.3-2.3
			c0.1,0,0.2-0.1,0.2-0.2S-192.7,108.3-192.8,108.3z M-195.3,109.6c-0.2-0.5-0.5-0.8-1.1-1c0.5-0.2,0.8-0.5,1.1-1.1
			c0.2,0.5,0.5,0.9,1,1.1C-194.8,108.8-195.2,109.1-195.3,109.6z"/>
	</g>
</g>
</svg>
