<?xml version="1.0" encoding="utf-8"?>
<!-- Generator: Adobe Illustrator 19.0.0, SVG Export Plug-In . SVG Version: 6.00 Build 0)  -->
<svg version="1.1" id="siteArchitectureIcon" xmlns="http://www.w3.org/2000/svg" xmlns:xlink="http://www.w3.org/1999/xlink"
	 x="0px" y="0px" viewBox="-212 88 75 75" style="enable-background:new -212 88 75 75;" xml:space="preserve">
<style type="text/css">
	.st0{fill:none;stroke:#000000;stroke-width:1.17;stroke-linecap:round;stroke-linejoin:round;stroke-miterlimit:10;}
</style>
<g>
	<g>
		<path id="path4" class="st0" d="M-191.5,126.3h7.9 M-191.5,128.5h7.9 M-191.5,130.8h3.6 M-179.2,126.3h7.9 M-179.2,128.5h7.9
			 M-179.2,130.8h3.6 M-166.8,126.3h7.9 M-166.8,128.5h7.9 M-166.8,130.8h3.6"/>
		<path id="path5" class="st0" d="M-193.3,143.9h6.5c0.6,0,1.1,0.5,1.1,1.1v3.7c0,0.6-0.5,1.1-1.1,1.1h-6.5c-0.6,0-1.1-0.5-1.1-1.1
			v-3.6C-194.5,144.5-194.1,143.9-193.3,143.9z"/>
		<path id="path6" class="st0" d="M-178.4,143.9h6.5c0.6,0,1.1,0.5,1.1,1.1v3.7c0,0.6-0.5,1.1-1.1,1.1h-6.5c-0.6,0-1.1-0.5-1.1-1.1
			v-3.6C-179.5,144.5-179,143.9-178.4,143.9z"/>
		<path id="path7" class="st0" d="M-163.5,143.9h6.5c0.6,0,1.1,0.5,1.1,1.1v3.7c0,0.6-0.5,1.1-1.1,1.1h-6.5c-0.6,0-1.1-0.5-1.1-1.1
			v-3.6C-164.6,144.5-164.2,143.9-163.5,143.9z"/>
		<path id="path3" class="st0" d="M-190.2,143.9v-3.1c0-0.7,0.5-1.2,1.2-1.2h27.5c0.7,0,1.2,0.5,1.2,1.2v3.1 M-175,133.9
			c0,0,0-0.2,0,10"/>
		<path id="path0" class="st0" d="M-193.3,109.9h36.1c0.8,0,1.3,0.6,1.3,1.3v21c0,0.8-0.6,1.3-1.3,1.3h-36.1c-0.8,0-1.3-0.6-1.3-1.3
			v-20.8C-194.7,110.5-194.1,109.9-193.3,109.9z"/>
		<path id="path2" class="st0" d="M-194.6,123.4c0,0-0.1,0,38.7,0"/>
		<path id="path1" class="st0" d="M-179.5,117.1l2,2c0.4,0.4,0.9,0.4,1.2,0l5.8-5.7"/>
	</g>
	<g id="stars_1_">
		<path id="star5" d="M-149.8,123.5c-1,0-1.9,0.8-1.9,1.8s0.8,1.9,1.9,1.9s1.9-0.8,1.9-1.9C-148,124.1-148.9,123.5-149.8,123.5z
			 M-149.8,126.7c-0.7,0-1.4-0.6-1.4-1.4c0-0.7,0.6-1.3,1.4-1.3s1.4,0.6,1.4,1.3C-148.5,126.2-149.1,126.7-149.8,126.7z"/>
		<path id="star4" d="M-201.3,122.2c-0.9,0-1.7,0.7-1.7,1.7s0.7,1.7,1.7,1.7s1.7-0.7,1.7-1.7S-200.4,122.2-201.3,122.2z
			 M-201.3,125.2c-0.7,0-1.3-0.5-1.3-1.3s0.5-1.3,1.3-1.3s1.3,0.5,1.3,1.3S-200.7,125.2-201.3,125.2z"/>
		<path id="star3" d="M-146.3,108.8c-2.4,0-3.2-0.7-3.2-3.2c0-0.2-0.1-0.3-0.3-0.3s-0.3,0.1-0.3,0.3c0,2.4-0.8,3.2-3.2,3.2
			c-0.2,0-0.3,0.1-0.3,0.3c0,0.2,0.1,0.3,0.3,0.3c2.4,0,3.2,0.7,3.2,3.2c0,0.2,0.1,0.3,0.3,0.3s0.3-0.1,0.3-0.3
			c0-2.4,0.7-3.2,3.2-3.2c0.2,0,0.3-0.1,0.3-0.3C-146.1,108.9-146.2,108.8-146.3,108.8z M-149.8,110.5c-0.3-0.7-0.7-1.2-1.4-1.4
			c0.7-0.3,1.2-0.7,1.4-1.4c0.3,0.7,0.7,1.2,1.4,1.4C-149.1,109.3-149.7,109.7-149.8,110.5z"/>
		<path id="star2" d="M-196.6,134.4c-2,0-2.6-0.6-2.6-2.6c0-0.2-0.1-0.2-0.2-0.2c-0.2,0-0.2,0.1-0.2,0.2c0,2-0.6,2.6-2.6,2.6
			c-0.2,0-0.2,0.1-0.2,0.2s0.1,0.2,0.2,0.2c2,0,2.6,0.6,2.6,2.6c0,0.2,0.1,0.2,0.2,0.2c0.2,0,0.2-0.1,0.2-0.2c0-2,0.6-2.6,2.6-2.6
			c0.2,0,0.2-0.1,0.2-0.2C-196.4,134.4-196.6,134.4-196.6,134.4z M-199.4,135.8c-0.2-0.6-0.6-1-1.2-1.2c0.6-0.2,1-0.6,1.2-1.2
			c0.2,0.6,0.6,1,1.2,1.2C-198.9,134.9-199.3,135.2-199.4,135.8z"/>
		<path id="star1" d="M-162.7,103.1c-1.8,0-2.3-0.5-2.3-2.3c0-0.1-0.1-0.2-0.2-0.2c-0.1,0-0.2,0.1-0.2,0.2c0,1.8-0.5,2.3-2.3,2.3
			c-0.1,0-0.2,0.1-0.2,0.2s0.1,0.2,0.2,0.2c1.8,0,2.3,0.5,2.3,2.3c0,0.1,0.1,0.2,0.2,0.2s0.2-0.1,0.2-0.2c0-1.8,0.5-2.3,2.3-2.3
			c0.1,0,0.2-0.1,0.2-0.2S-162.6,103.1-162.7,103.1z M-165.2,104.3c-0.2-0.5-0.5-0.8-1.1-1c0.5-0.2,0.8-0.5,1.1-1.1
			c0.2,0.5,0.5,0.9,1,1.1C-164.8,103.4-165.1,103.8-165.2,104.3z"/>
	</g>
</g>
</svg>
