<?xml version="1.0" encoding="utf-8"?>
<!-- Generator: Adobe Illustrator 19.0.0, SVG Export Plug-In . SVG Version: 6.00 Build 0)  -->
<svg version="1.1" id="videoSearchIcon" xmlns="http://www.w3.org/2000/svg" xmlns:xlink="http://www.w3.org/1999/xlink" x="0px"
	 y="0px" viewBox="-212 88 75 75" style="enable-background:new -212 88 75 75;" xml:space="preserve">
<style type="text/css">
	.st0{fill:none;stroke:#000000;stroke-width:1.17;stroke-linecap:round;stroke-linejoin:round;stroke-miterlimit:10;}
</style>
<g>
	<g>
		<path id="path7" class="st0" d="M-196.6,142v-22.6c0,0-0.2-3.1,3.1-3.1c12.3,0,23.7,0,36,0c0.1,0,1.8-0.2,2.8,1.3
			c0.7,1.1,0.5,3.8,0.5,3.8s0,0.8,0,20.6"/>
		<path id="path5" class="st0" d="M-152.1,145.6h-46.4c-2.3,0-2.9-2.4-2.9-3.6l0,0h52.2l0,0C-149.2,143.2-149.7,145.6-152.1,145.6z"
			/>
		<path id="path4" class="st0" d="M-175.7,137.5L-175.7,137.5c-4.5-0.2-7.9-4-7.6-8.5l0,0c0.2-4.4,4.1-7.9,8.6-7.6l0,0
			c4.5,0.2,7.9,4,7.6,8.5l0,0C-167.4,134.3-171.1,137.8-175.7,137.5z"/>
		<path id="path2" class="st0" d="M-175.7,137.5L-175.7,137.5c-4.5-0.2-7.9-4-7.6-8.5l0,0c0.2-4.4,4.1-7.9,8.6-7.6l0,0
			c4.5,0.2,7.9,4,7.6,8.5l0,0C-167.4,134.3-171.1,137.8-175.7,137.5z"/>
		<path id="path1" class="st0" d="M-178.5,125.7c0,7.8,0,0.1,0,7.8"/>
		<path id="path6" class="st0" d="M-169.8,129.6c-8.7,3.9,0,0-8.7,3.9"/>
		<path id="path3" class="st0" d="M-169.8,129.6c-2.8-1.3-5.8-2.6-8.7-3.9"/>
		<path id="path0" class="st0" d="M-165.2,131.6l6,2.4c1.8,0.7,1,3.7-1.2,2.8l0,0l-5.9-2.4l0,0"/>
	</g>
	<g id="stars_1_">
		<path id="star5" d="M-187.8,107.9c-1.3,0-2.2,1-2.2,2.2c0,1.3,1,2.2,2.2,2.2c1.3,0,2.2-1,2.2-2.2
			C-185.7,108.9-186.6,107.9-187.8,107.9z M-187.8,111.7c-0.9,0-1.6-0.7-1.6-1.6s0.7-1.6,1.6-1.6s1.6,0.7,1.6,1.6
			S-186.9,111.7-187.8,111.7z"/>
		<path id="star4" d="M-198.7,124.7c0-0.9-0.7-1.7-1.7-1.7s-1.7,0.7-1.7,1.7s0.7,1.7,1.7,1.7C-199.3,126.4-198.7,125.5-198.7,124.7z
			 M-201.7,124.7c0-0.7,0.5-1.3,1.3-1.3s1.3,0.5,1.3,1.3c0,0.7-0.5,1.3-1.3,1.3S-201.7,125.3-201.7,124.7z"/>
		<path id="star3" d="M-152.6,108.4c-2.4,0-3.2-0.7-3.2-3.2c0-0.2-0.1-0.3-0.3-0.3s-0.3,0.1-0.3,0.3c0,2.4-0.8,3.2-3.2,3.2
			c-0.2,0-0.3,0.1-0.3,0.3s0.1,0.3,0.3,0.3c2.4,0,3.2,0.7,3.2,3.2c0,0.2,0.1,0.3,0.3,0.3s0.3-0.1,0.3-0.3c0-2.4,0.7-3.2,3.2-3.2
			c0.2,0,0.3-0.1,0.3-0.3C-152.3,108.3-152.6,108.4-152.6,108.4z M-156.1,110.1c-0.3-0.7-0.7-1.2-1.4-1.4c0.7-0.3,1.2-0.7,1.4-1.4
			c0.3,0.7,0.7,1.2,1.4,1.4C-155.4,108.9-155.8,109.3-156.1,110.1z"/>
		<path id="star2" d="M-147.1,117.5c-2,0-2.6-0.6-2.6-2.6c0-0.2-0.1-0.2-0.2-0.2c-0.2,0-0.2,0.1-0.2,0.2c0,2-0.6,2.6-2.6,2.6
			c-0.2,0-0.2,0.1-0.2,0.2s0.1,0.2,0.2,0.2c2,0,2.6,0.6,2.6,2.6c0,0.2,0.1,0.2,0.2,0.2c0.2,0,0.2-0.1,0.2-0.2c0-2,0.6-2.6,2.6-2.6
			c0.1,0,0.2-0.1,0.2-0.2C-146.9,117.5-147,117.5-147.1,117.5z M-149.9,118.9c-0.2-0.6-0.6-1-1.2-1.2c0.6-0.2,1-0.6,1.2-1.2
			c0.2,0.6,0.6,1,1.2,1.2C-149.4,117.9-149.8,118.3-149.9,118.9z"/>
		<path id="star1" d="M-196.2,113.8c-1.8,0-2.3-0.5-2.3-2.3c0-0.1-0.1-0.2-0.2-0.2s-0.2,0.1-0.2,0.2c0,1.8-0.5,2.3-2.3,2.3
			c-0.1,0-0.2,0.1-0.2,0.2s0.1,0.2,0.2,0.2c1.8,0,2.3,0.5,2.3,2.3c0,0.1,0.1,0.2,0.2,0.2s0.2-0.1,0.2-0.2c0-1.8,0.5-2.3,2.3-2.3
			c0.1,0,0.2-0.1,0.2-0.2S-196.1,113.8-196.2,113.8z M-198.7,115c-0.2-0.5-0.5-0.8-1.1-1c0.5-0.2,0.8-0.5,1.1-1.1
			c0.2,0.5,0.5,0.9,1,1.1C-198.3,114.2-198.6,114.5-198.7,115z"/>
	</g>
</g>
</svg>
