<?xml version="1.0" encoding="UTF-8"?>
<svg width="79px" height="67px" viewBox="0 0 79 67" version="1.1" xmlns="http://www.w3.org/2000/svg" xmlns:xlink="http://www.w3.org/1999/xlink">
    <!-- Generator: Sketch 50.2 (55047) - http://www.bohemiancoding.com/sketch -->
    <title>webDevelopmentIcon</title>
    <desc>Created with Sketch.</desc>
    <defs></defs>
    <g id="Page-1" stroke="none" stroke-width="1" fill="none" fill-rule="evenodd">
        <g id="webDevelopmentIcon">
            <g id="Group" transform="translate(11.000000, 10.000000)" stroke="#A6A6DA" stroke-linecap="round" stroke-linejoin="round">
                <path d="M4.96341463,2.4 C6.17073171,2.4 6.17073171,2.4 6.17073171,2.4" id="path0" stroke-width="1.17"></path>
                <path d="M9.65853659,2.4 C10.8658537,2.4 10.8658537,2.4 10.8658537,2.4" id="path1" stroke-width="1.17"></path>
                <path d="M14.3536585,2.4 C15.5609756,2.4 15.5609756,2.4 15.5609756,2.4" id="path2" stroke-width="1.17"></path>
                <path d="M53.7926829,27.7333333 C53.7926829,27.7333333 53.7926829,27.7333333 0.402439024,27.7333333 L0.402439024,5.2 C53.7926829,5.2 54.195122,5.2 54.195122,5.2 L54.195122,27.7333333 L53.7926829,27.7333333 Z" id="path5" stroke-width="1.1713"></path>
                <path d="M0.402439024,51.8666667 L0.402439024,3.46666667 C0.402439024,1.6 2.01219512,1.42108547e-14 3.8902439,1.42108547e-14 L50.7073171,1.42108547e-14 C52.5853659,1.42108547e-14 54.195122,1.6 54.195122,3.46666667 L54.195122,51.8666667 C54.195122,53.7333333 52.7195122,55.3333333 50.7073171,55.3333333 C41.0487805,55.3333333 13.6829268,55.4666667 3.8902439,55.4666667 C1.87804878,55.3333333 0.402439024,53.6 0.402439024,51.8666667 Z" id="path7" stroke-width="1.17"></path>
                <path d="M8.31707317,43.8666667 L17.4390244,43.8666667 L8.31707317,43.8666667 Z M8.31707317,46.4 L17.4390244,46.4 L8.31707317,46.4 Z M12.4756098,49.2 L8.45121951,49.2 L12.4756098,49.2 Z M22.9390244,43.8666667 L32.0609756,43.8666667 L22.9390244,43.8666667 Z M22.9390244,46.4 L32.0609756,46.4 L22.9390244,46.4 Z M27.097561,49.2 L23.0731707,49.2 L27.097561,49.2 Z M37.4268293,43.8666667 L46.5487805,43.8666667 L37.4268293,43.8666667 Z M37.4268293,46.4 L46.5487805,46.4 L37.4268293,46.4 Z M41.4512195,49.2 L37.4268293,49.2 L41.4512195,49.2 Z M17.5731707,34 L8.31707317,34 L8.31707317,40.2666667 L17.5731707,40.2666667 L17.5731707,34 Z M31.7926829,34 L22.5365854,34 L22.5365854,40.2666667 L31.7926829,40.2666667 L31.7926829,34 Z M46.4146341,34 L37.1585366,34 L37.1585366,40.2666667 L46.4146341,40.2666667 L46.4146341,34 Z" id="path4" stroke-width="1.17"></path>
                <path d="M44.6707317,27.4666667 C45.3414634,26.5333333 46.1463415,25.3333333 46.1463415,24.2666667 L48.9634146,24.1333333 L48.9634146,18.9333333 L46.1463415,19.0666667 C45.8780488,17.7333333 45.3414634,16.6666667 44.6707317,16.1333333 L47.0853659,14 L43.7317073,10.5333333 L41.7195122,12.6666667 C40.7804878,12 39.4390244,11.6 38.5,11.2 L38.3658537,8.4 L33.1341463,8.4 L33.2682927,11.2 C31.9268293,11.4666667 30.8536585,12 30.3170732,12.6666667 L28.1707317,10.2666667 L24.6829268,13.6 L26.8292683,16 C26.1585366,16.9333333 25.3536585,18.1333333 25.3536585,19.2 L22.5365854,19.3333333 L22.5365854,24.5333333 L25.3536585,24.4 C25.6219512,25.7333333 26.4268293,27.2 27.2317073,27.7333333" id="path6" stroke-width="1.17"></path>
                <path d="M36.4878049,15.6 C39.8414634,15.8666667 42.5243902,18.6666667 42.2560976,22 C41.9878049,25.3333333 39.1707317,28 35.8170732,27.7333333 C32.4634146,27.4666667 29.9146341,25.2 29.9146341,21.4666667 C29.7804878,17.8666667 33.1341463,15.3333333 36.4878049,15.6 Z" id="path3" stroke-width="1.17"></path>
            </g>
            <g id="stars_1_" fill="#A6A6DA" fill-rule="nonzero">
                <path d="M3.74915254,27.1346154 C2.00847458,27.1346154 0.803389831,28.4807692 0.803389831,30.0961538 C0.803389831,31.8461538 2.14237288,33.0576923 3.74915254,33.0576923 C5.3559322,33.0576923 6.69491525,31.7115385 6.69491525,30.0961538 C6.69491525,28.4807692 5.48983051,27.1346154 3.74915254,27.1346154 Z M3.74915254,32.25 C2.5440678,32.25 1.60677966,31.3076923 1.60677966,30.0961538 C1.60677966,28.8846154 2.5440678,27.9423077 3.74915254,27.9423077 C4.95423729,27.9423077 5.89152542,28.8846154 5.89152542,30.0961538 C5.89152542,31.1730769 4.95423729,32.25 3.74915254,32.25 Z" id="star5"></path>
                <path d="M24.3694915,0.75 C23.1644068,0.75 22.0932203,1.69230769 22.0932203,3.03846154 C22.0932203,4.38461538 23.0305085,5.32692308 24.3694915,5.32692308 C25.7084746,5.32692308 26.6457627,4.38461538 26.6457627,3.03846154 C26.6457627,1.69230769 25.7084746,0.75 24.3694915,0.75 Z M24.3694915,4.78846154 C23.4322034,4.78846154 22.6288136,4.11538462 22.6288136,3.03846154 C22.6288136,1.96153846 23.2983051,1.28846154 24.3694915,1.28846154 C25.3067797,1.28846154 26.1101695,1.96153846 26.1101695,3.03846154 C26.1101695,4.11538462 25.1728814,4.78846154 24.3694915,4.78846154 Z" id="star4"></path>
                <path d="M74.0457627,4.78846154 C70.8322034,4.78846154 69.7610169,3.84615385 69.7610169,0.480769231 C69.7610169,0.211538462 69.6271186,0.0769230769 69.359322,0.0769230769 C69.0915254,0.0769230769 68.9576271,0.211538462 68.9576271,0.480769231 C68.9576271,3.71153846 67.8864407,4.78846154 64.6728814,4.78846154 C64.4050847,4.78846154 64.2711864,4.92307692 64.2711864,5.19230769 C64.2711864,5.46153846 64.4050847,5.59615385 64.6728814,5.59615385 C67.8864407,5.59615385 68.9576271,6.53846154 68.9576271,9.90384615 C68.9576271,10.1730769 69.0915254,10.3076923 69.359322,10.3076923 C69.6271186,10.3076923 69.7610169,10.1730769 69.7610169,9.90384615 C69.7610169,6.67307692 70.6983051,5.59615385 74.0457627,5.59615385 C74.3135593,5.59615385 74.4474576,5.46153846 74.4474576,5.19230769 C74.4474576,4.92307692 74.179661,4.78846154 74.0457627,4.78846154 Z M69.359322,7.07692308 C68.9576271,6.13461538 68.4220339,5.46153846 67.4847458,5.19230769 C68.4220339,4.78846154 69.0915254,4.25 69.359322,3.30769231 C69.7610169,4.25 70.2966102,4.92307692 71.2338983,5.19230769 C70.4305085,5.46153846 69.7610169,6.13461538 69.359322,7.07692308 Z" id="star3"></path>
                <path d="M10.4440678,4.51923077 C7.76610169,4.51923077 6.96271186,3.71153846 6.96271186,1.01923077 C6.96271186,0.75 6.82881356,0.75 6.69491525,0.75 C6.42711864,0.75 6.42711864,0.884615385 6.42711864,1.01923077 C6.42711864,3.71153846 5.62372881,4.51923077 2.94576271,4.51923077 C2.6779661,4.51923077 2.6779661,4.65384615 2.6779661,4.78846154 C2.6779661,4.92307692 2.81186441,5.05769231 2.94576271,5.05769231 C5.62372881,5.05769231 6.42711864,5.86538462 6.42711864,8.55769231 C6.42711864,8.82692308 6.56101695,8.82692308 6.69491525,8.82692308 C6.96271186,8.82692308 6.96271186,8.69230769 6.96271186,8.55769231 C6.96271186,5.86538462 7.76610169,5.05769231 10.4440678,5.05769231 C10.7118644,5.05769231 10.7118644,4.92307692 10.7118644,4.78846154 C10.7118644,4.51923077 10.5779661,4.51923077 10.4440678,4.51923077 Z M6.69491525,6.40384615 C6.42711864,5.59615385 5.89152542,5.05769231 5.08813559,4.78846154 C5.89152542,4.51923077 6.42711864,3.98076923 6.69491525,3.17307692 C6.96271186,3.98076923 7.49830508,4.51923077 8.30169492,4.78846154 C7.49830508,5.05769231 6.82881356,5.46153846 6.69491525,6.40384615 Z" id="star2"></path>
                <path d="M77.9288136,23.0961538 C75.5186441,23.0961538 74.8491525,22.4230769 74.8491525,20 C74.8491525,19.8653846 74.7152542,19.7307692 74.5813559,19.7307692 C74.4474576,19.7307692 74.3135593,19.8653846 74.3135593,20 C74.3135593,22.4230769 73.6440678,23.0961538 71.2338983,23.0961538 C71.1,23.0961538 70.9661017,23.2307692 70.9661017,23.3653846 C70.9661017,23.5 71.1,23.6346154 71.2338983,23.6346154 C73.6440678,23.6346154 74.3135593,24.3076923 74.3135593,26.7307692 C74.3135593,26.8653846 74.4474576,27 74.5813559,27 C74.7152542,27 74.8491525,26.8653846 74.8491525,26.7307692 C74.8491525,24.3076923 75.5186441,23.6346154 77.9288136,23.6346154 C78.0627119,23.6346154 78.1966102,23.5 78.1966102,23.3653846 C78.1966102,23.0961538 77.9288136,23.0961538 77.9288136,23.0961538 Z M74.5813559,24.7115385 C74.3135593,24.0384615 73.9118644,23.6346154 73.1084746,23.3653846 C73.7779661,23.0961538 74.179661,22.6923077 74.5813559,21.8846154 C74.8491525,22.5576923 75.2508475,23.0961538 75.920339,23.3653846 C74.9830508,23.6346154 74.8491525,24.0384615 74.5813559,24.7115385 Z" id="star1"></path>
            </g>
        </g>
    </g>
</svg>