<svg id="Layer_1" data-name="Layer 1" xmlns="http://www.w3.org/2000/svg" xmlns:xlink="http://www.w3.org/1999/xlink" viewBox="0 0 1919.25 62.54"><defs><style>.cls-1{fill:url(#linear-gradient);}</style><linearGradient id="linear-gradient" x1="653.69" y1="422.21" x2="654.71" y2="421.2" gradientTransform="matrix(1919.25, 0, 0, -62.54, -1254534.78, 26403.88)" gradientUnits="userSpaceOnUse"><stop offset="0" stop-color="#3023ae"/><stop offset="1" stop-color="#c86dd7"/></linearGradient></defs><title>Combined Shape</title><g id="Design"><g id="home"><g id="roadmap"><g id="timeline"><path id="Combined-Shape" class="cls-1" d="M479.94,2.07c-27.76,0-50.43,3.19-71,9.38-15.55,4.69-26.14,9.39-48.58,20.67s-33.21,16.07-48.9,20.8c-20.72,6.25-43.58,9.47-71.53,9.47s-50.81-3.22-71.53-9.47c-15.69-4.73-26.36-9.47-48.9-20.8s-33-16-48.58-20.67C50.43,5.26,27.76,2.07,0,2.07v-2c27.95,0,50.81,3.22,71.53,9.47,15.69,4.73,26.36,9.47,48.9,20.8s33,16,48.58,20.67c20.53,6.19,43.19,9.38,71,9.38s50.43-3.19,71-9.38c15.55-4.69,26.14-9.39,48.58-20.67s33.21-16.07,48.9-20.8C429.13,3.28,452,.07,479.94.07s50.81,3.22,71.53,9.47c15.69,4.73,26.36,9.47,48.9,20.8s33,16,48.58,20.67c20.53,6.19,43.19,9.38,71,9.38s50.43-3.19,71-9.38c15.55-4.69,26.14-9.39,48.58-20.67s33.21-16.07,48.9-20.8C909.08,3.28,931.94.07,959.89.07V.28c27.91,0,50.75,3.22,71.45,9.47,15.69,4.73,26.36,9.47,48.9,20.8s33,16,48.58,20.67c20.53,6.19,43.19,9.38,71,9.38s50.43-3.19,71-9.38c15.55-4.69,26.14-9.39,48.58-20.67s33.21-16.07,48.9-20.8c20.61-6.22,43.34-9.43,71.09-9.47h.44c27.75,0,50.48,3.25,71.09,9.47,15.69,4.73,26.36,9.47,48.9,20.8s33,16,48.58,20.67c20.53,6.19,43.19,9.38,71,9.38s50.43-3.19,71-9.38c15.55-4.69,26.14-9.39,48.58-20.67s33.21-16.07,48.9-20.8C1868.44,3.5,1891.3.28,1919.25.28v2c-27.76,0-50.43,3.19-71,9.38-15.55,4.69-26.14,9.39-48.58,20.67s-33.21,16.07-48.9,20.8c-20.72,6.25-43.58,9.47-71.53,9.47s-50.81-3.22-71.53-9.47c-15.69-4.73-26.36-9.47-48.9-20.8s-33-16-48.58-20.67c-20.47-6.18-43.07-9.37-70.73-9.38s-50.26,3.21-70.73,9.38c-15.55,4.69-26.14,9.39-48.58,20.67s-33.21,16.07-48.9,20.8c-20.72,6.25-43.58,9.47-71.53,9.47s-50.81-3.22-71.53-9.47c-15.69-4.73-26.36-9.47-48.9-20.8s-33-16-48.58-20.67c-20.53-6.19-43.19-9.38-71-9.38V2.07c-27.72,0-50.36,3.2-70.87,9.38-15.55,4.69-26.14,9.39-48.58,20.67s-33.21,16.07-48.9,20.8c-20.72,6.25-43.58,9.47-71.53,9.47s-50.81-3.22-71.53-9.47c-15.69-4.73-26.36-9.47-48.9-20.8s-33-16-48.58-20.67C530.37,5.26,507.7,2.07,479.94,2.07Z" transform="translate(0 -0.07)"/></g></g></g></g></svg>