<svg xmlns="http://www.w3.org/2000/svg" viewBox="0 0 172.51 172.51"><defs><style>.cls-1{fill:#e60012;fill-rule:evenodd;}</style></defs><title>资源 1</title><g id="图层_2" data-name="图层 2"><g id="_" data-name="ͼ"><path class="cls-1" d="M86.26,0A86.26,86.26,0,1,1,0,86.26,86.26,86.26,0,0,1,86.26,0ZM37.76,87.87v23.94h1.59c3.11,0,5.12-1,6-2.87.82-1.72,1.22-4.71,1.22-9q0-5.83-.85-8c-1-2.71-3.05-4.06-6.16-4.06Zm84,34h6.64V98.22q11.55,0,15-1a12.72,12.72,0,0,0,8.51-8q1.76-4.34,1.75-12V69.56q0-10.64-4.39-14.74-4-3.78-13.38-4.09v-8h-3.45v8H121.77v-8h-3.46v8h-6.45v71.18h6.45V129h3.46v-7.16Zm-30.09,0h2.78V61.52H106V50.7H91.68v-8H88.23v8H83.69v-8H80.24v8h-14V61.52H77.91v60.36h2.33V129h3.45v-7.16h4.54V129h3.45v-7.16Zm-45.48-.14q9.15-.51,12.27-2.91,5.09-3.69,5.09-16.82a46.57,46.57,0,0,0-.74-9.61q-1.3-5.55-5.18-7.49a19.06,19.06,0,0,0-5.18-1.57v-.19C56.34,81.8,59,80,60.5,77.7q2.13-3.15,2.13-9.52A38.41,38.41,0,0,0,61.8,59Q60,52.47,51.91,51.26a55.82,55.82,0,0,0-5.71-.48v-8.1H42.74v8H33.31v-8H29.86v8H21.22v71.18h8.64V129h3.45v-7.16h9.43V129H46.2v-7.3ZM128.41,61V87.87h2.77c2.53,0,4.15-.77,4.85-2.33s1.07-4.42,1.07-8.61V72c0-4.21-.36-7.09-1.07-8.66S133.65,61,131,61ZM37.76,60.6V78.16h2.16c2.85,0,4.68-.65,5.45-1.94s1.18-3.76,1.18-7.4c0-3.26-.34-5.39-1-6.38-.86-1.23-2.86-1.84-6-1.84Z"/></g></g></svg>