<svg xmlns="http://www.w3.org/2000/svg" viewBox="0 0 163.45 138.05"><defs><style>.cls-1{fill:#fff;}.cls-2{opacity:0.8;}</style></defs><title>资源 1</title><g id="图层_2" data-name="图层 2"><g id="图层_1-2" data-name="图层 1"><rect class="cls-1" y="102.06" width="6.34" height="34.18"/><circle class="cls-1" cx="111.97" cy="119.16" r="3.86"/><polygon class="cls-1" points="65.46 108.39 76.09 108.39 76.09 136.24 82.43 136.24 82.43 108.39 93.06 108.39 93.06 102.06 65.46 102.06 65.46 108.39"/><polygon class="cls-1" points="17.98 102.06 17.98 102.06 17.98 102.06 8.92 102.06 8.92 108.39 15.36 108.39 19.81 112.84 16.66 115.98 8.92 115.98 8.92 122.32 16.58 122.32 19.76 125.5 15.36 129.9 8.92 129.9 8.92 136.24 17.98 136.24 17.98 136.24 17.98 136.24 24.25 129.98 24.25 129.99 28.73 125.51 28.73 125.5 28.73 125.49 24.25 121.01 24.25 121.02 22.42 119.19 28.73 112.87 28.7 112.84 28.73 112.8 17.98 102.06"/><polygon class="cls-1" points="45.3 113.41 33.95 102.06 29.46 106.54 40.81 117.89 41.97 119.05 41.97 136.24 48.31 136.24 48.31 119.35 49.78 117.89 61.43 106.23 56.95 101.75 45.3 113.41"/><polygon class="cls-1" points="162.97 102.86 157.12 102.86 157.11 102.86 157.11 102.87 148.65 111.33 140.19 102.88 140.19 102.86 140.17 102.86 134.42 102.86 133.85 102.86 133.85 103.42 133.85 105.5 133.85 135.62 140.19 135.62 140.19 111.84 144.16 115.81 144.16 115.81 148.65 120.29 153.13 115.81 157.11 111.83 157.11 135.47 163.45 135.47 163.45 105.49 163.45 103.33 162.97 102.86"/><path class="cls-1" d="M97.3,109.67v19l14.7,9.38,14.67-9.41v-19L112,100.27Zm23.49,15.77L112,131.1l-8.82-5.65V112.87l8.82-5.65,8.82,5.65Z"/><polygon class="cls-1" points="66.86 13.4 90.52 37.06 70.45 0 53.67 16.93 66.86 13.4"/><polygon class="cls-1" points="93.59 73.55 69.93 49.89 90 86.95 106.77 70.02 93.59 73.55"/><polygon class="cls-1" points="50.15 56.84 65.32 24.68 42.1 47.91 36.75 53.25 53.68 70.02 50.15 56.84"/><polygon class="cls-1" points="110.31 30.1 86.64 53.77 123.7 33.7 106.77 16.92 110.31 30.1"/><g class="cls-2"><polygon class="cls-1" points="99.01 28.56 75.79 5.35 70.45 0 90.52 37.06 99.01 28.56"/><polygon class="cls-1" points="61.44 58.38 90 86.95 69.93 49.89 61.44 58.38"/><polygon class="cls-1" points="73.81 33.18 65.32 24.68 50.15 56.84 73.81 33.18"/><polygon class="cls-1" points="95.13 62.26 123.7 33.7 86.64 53.77 95.13 62.26"/></g><polygon class="cls-1" points="43.88 7.12 36.75 33.7 51.27 25.9 43.88 7.12"/><polygon class="cls-1" points="116.58 79.83 123.7 53.25 109.18 61.04 116.58 79.83"/><polygon class="cls-1" points="43.88 79.82 70.45 86.95 62.66 72.42 43.88 79.82"/><polygon class="cls-1" points="116.58 7.12 90 0 97.79 14.52 116.58 7.12"/><g class="cls-2"><polygon class="cls-1" points="53.67 16.93 70.45 0 43.88 7.12 51.27 25.9 53.67 16.93"/><polygon class="cls-1" points="106.77 70.02 90 86.95 116.58 79.83 109.18 61.04 106.77 70.02"/><polygon class="cls-1" points="53.68 70.02 36.75 53.25 43.88 79.82 62.66 72.42 53.68 70.02"/><polygon class="cls-1" points="106.77 16.92 123.7 33.7 116.58 7.12 97.79 14.52 106.77 16.92"/></g><g class="cls-2"><polygon class="cls-1" points="51.27 25.9 36.75 33.7 40.12 37.06 51.27 25.9"/><polygon class="cls-1" points="109.18 61.04 123.7 53.25 120.33 49.89 109.18 61.04"/><polygon class="cls-1" points="70.45 86.95 73.81 83.58 62.66 72.42 70.45 86.95"/><polygon class="cls-1" points="90 0 86.64 3.37 97.79 14.52 90 0"/></g></g></g></svg>