<svg xmlns="http://www.w3.org/2000/svg" viewBox="0 0 86.95 86.95"><defs><style>.cls-1{fill:#fff;}.cls-2{opacity:0.8;}</style></defs><title>资源 2</title><g id="图层_2" data-name="图层 2"><g id="图层_1-2" data-name="图层 1"><polygon class="cls-1" points="30.11 13.4 53.77 37.06 33.7 0 16.92 16.93 30.11 13.4"/><polygon class="cls-1" points="56.84 73.55 33.18 49.89 53.25 86.95 70.02 70.02 56.84 73.55"/><polygon class="cls-1" points="13.4 56.84 28.57 24.68 5.35 47.91 0 53.25 16.93 70.02 13.4 56.84"/><polygon class="cls-1" points="73.56 30.1 49.89 53.77 86.95 33.7 70.02 16.92 73.56 30.1"/><g class="cls-2"><polygon class="cls-1" points="62.26 28.56 39.04 5.35 33.7 0 53.77 37.06 62.26 28.56"/><polygon class="cls-1" points="24.69 58.38 53.25 86.95 33.18 49.89 24.69 58.38"/><polygon class="cls-1" points="37.06 33.18 28.57 24.68 13.4 56.84 37.06 33.18"/><polygon class="cls-1" points="58.38 62.26 86.95 33.7 49.89 53.77 58.38 62.26"/></g><polygon class="cls-1" points="7.13 7.12 0 33.7 14.52 25.9 7.13 7.12"/><polygon class="cls-1" points="79.83 79.83 86.95 53.25 72.43 61.04 79.83 79.83"/><polygon class="cls-1" points="7.13 79.82 33.7 86.95 25.91 72.42 7.13 79.82"/><polygon class="cls-1" points="79.83 7.12 53.25 0 61.04 14.52 79.83 7.12"/><g class="cls-2"><polygon class="cls-1" points="16.92 16.93 33.7 0 7.13 7.12 14.52 25.9 16.92 16.93"/><polygon class="cls-1" points="70.02 70.02 53.25 86.95 79.83 79.83 72.43 61.04 70.02 70.02"/><polygon class="cls-1" points="16.93 70.02 0 53.25 7.13 79.82 25.91 72.42 16.93 70.02"/><polygon class="cls-1" points="70.02 16.92 86.95 33.7 79.83 7.12 61.04 14.52 70.02 16.92"/></g><g class="cls-2"><polygon class="cls-1" points="14.52 25.9 0 33.7 3.37 37.06 14.52 25.9"/><polygon class="cls-1" points="72.43 61.04 86.95 53.25 83.58 49.89 72.43 61.04"/><polygon class="cls-1" points="33.7 86.95 37.06 83.58 25.91 72.42 33.7 86.95"/><polygon class="cls-1" points="53.25 0 49.89 3.37 61.04 14.52 53.25 0"/></g></g></g></svg>