<svg xmlns="http://www.w3.org/2000/svg" viewBox="0 0 200 200"><defs><style>.cls-1{fill:#fff;}</style></defs><title>资源 1</title><g id="图层_2" data-name="图层 2"><g id="图层_1-2" data-name="图层 1"><path class="cls-1" d="M113.18,85.14v18.78H86.82V85.11c-27,1.15-47.19,5.87-47.19,11.52,0,6.52,26.87,11.8,60,11.8s60-5.28,60-11.8c0-5.6-19.87-10.29-46.51-11.49Z"/><path class="cls-1" d="M100,0A100,100,0,1,0,200,100,100,100,0,0,0,100,0Zm13.18,112.64v51.64H86.82V112.64C56.15,111.25,33,105.08,33,97.68s23.12-13.58,53.78-15V67.14H50V42.86H150V67.14H113.18V82.7c30.67,1.4,53.78,7.57,53.78,15S143.85,111.25,113.18,112.64Z"/></g></g></svg>