<?xml version="1.0" encoding="UTF-8"?>
<!DOCTYPE svg PUBLIC "-//W3C//DTD SVG 1.1//EN" "http://www.w3.org/Graphics/SVG/1.1/DTD/svg11.dtd">
<!-- Creator: CorelDRAW X7 -->
<svg xmlns="http://www.w3.org/2000/svg" xml:space="preserve" width="297mm" height="210mm" version="1.1" style="shape-rendering:geometricPrecision; text-rendering:geometricPrecision; image-rendering:optimizeQuality; fill-rule:evenodd; clip-rule:evenodd"
viewBox="0 0 29700 21000"
 xmlns:xlink="http://www.w3.org/1999/xlink">
 <defs>
  <style type="text/css">
   <![CDATA[
    .str0 {stroke:#DCDDDD;stroke-width:150}
    .str8 {stroke:#F08519;stroke-width:195.43}
    .str4 {stroke:#F08519;stroke-width:195.43}
    .str5 {stroke:#009B4C;stroke-width:181}
    .str2 {stroke:#E62129;stroke-width:181}
    .str7 {stroke:#A79CCB;stroke-width:181}
    .str6 {stroke:#62C3D0;stroke-width:181}
    .str3 {stroke:#A79CCB;stroke-width:181}
    .str1 {stroke:#009B4C;stroke-width:181}
    .fil0 {fill:none}
    .fil2 {fill:#FEFEFE}
    .fil1 {fill:#EEEEEF}
    .fil11 {fill:#B6B6B7;fill-rule:nonzero}
    .fil6 {fill:#F08519;fill-rule:nonzero}
    .fil3 {fill:#E62129;fill-rule:nonzero}
    .fil4 {fill:#A79CCB;fill-rule:nonzero}
    .fil10 {fill:#A79CCB;fill-rule:nonzero}
    .fil9 {fill:#62C3D0;fill-rule:nonzero}
    .fil7 {fill:#62C3D0;fill-rule:nonzero}
    .fil8 {fill:#009B4C;fill-rule:nonzero}
    .fil5 {fill:#009B4C;fill-rule:nonzero}
   ]]>
  </style>
 </defs>
 <g id="图层_x0020_1">
  <metadata id="CorelCorpID_0Corel-Layer"/>
  <rect class="fil0" width="29700" height="21000"/>
  <path class="fil1" d="M7871 5739c2901,0 5252,2352 5252,5252 0,2901 -2351,5253 -5252,5253 -2901,0 -5252,-2352 -5252,-5253 0,-2900 2351,-5252 5252,-5252zm0 1363c2148,0 3889,1742 3889,3889 0,2148 -1741,3889 -3889,3889 -2148,0 -3889,-1741 -3889,-3889 0,-2147 1741,-3889 3889,-3889z"/>
  <circle class="fil0 str0" cx="7883" cy="11000" r="3854"/>
  <circle class="fil2 str1" cx="7871" cy="7233" r="1311"/>
  <circle class="fil2 str2" cx="4476" cy="12742" r="1311"/>
  <circle class="fil2 str3" cx="11265" cy="12742" r="1311"/>
  <g>
   <path class="fil3" d="M9213 12742l-2994 0 0 -58 2994 0 0 58zm204 -29l-405 174 5 -11 5 -11 4 -11 5 -10 4 -11 3 -11 3 -11 3 -11 3 -11 2 -11 2 -10 1 -11 2 -11 0 -11 1 -11 0 -11 0 -11 -1 -10 0 -11 -2 -11 -1 -11 -2 -11 -2 -11 -3 -11 -3 -10 -3 -11 -3 -11 -4 -11 -5 -11 -4 -11 -5 -11 -5 -11 0 0 405 174z"/>
  </g>
  <g>
   <path class="fil4" d="M6423 12983l0 -57 2994 0 0 57 -2994 0zm-204 -29l406 -173 -6 11 -5 10 -4 11 -4 11 -4 11 -4 11 -3 11 -3 11 -3 10 -2 11 -2 11 -1 11 -1 11 -1 11 -1 11 0 10 0 11 1 11 1 11 1 11 1 11 2 11 2 11 3 10 3 11 3 11 4 11 4 11 4 11 4 11 5 10 6 11 0 0 -406 -174z"/>
  </g>
  <g>
   <path class="fil3" d="M6509 8556l-1497 2593 -51 -29 1497 -2593 51 29zm76 -191l-52 438 -7 -10 -7 -9 -7 -10 -7 -9 -7 -9 -8 -8 -8 -8 -8 -8 -8 -8 -8 -7 -9 -7 -8 -7 -9 -7 -9 -6 -9 -6 -10 -5 -9 -5 -10 -5 -10 -5 -10 -5 -10 -4 -10 -3 -11 -4 -10 -3 -11 -3 -11 -3 -11 -2 -12 -2 -11 -2 -12 -1 -12 -2 -12 0 0 0 353 -265z"/>
  </g>
  <g>
   <path class="fil5" d="M5357 11181l-50 -29 1497 -2593 50 29 -1497 2593zm-127 162l53 -438 6 10 7 10 7 9 8 9 7 9 8 9 8 8 8 8 8 8 8 7 8 7 9 7 9 6 9 6 9 6 9 6 10 5 10 5 9 5 10 4 11 4 10 4 10 4 11 3 11 3 11 2 11 3 11 2 12 2 12 1 12 1 12 1 0 0 -354 264z"/>
  </g>
  <g>
   <path class="fil4" d="M9394 8556l50 -29 1497 2593 -50 29 -1497 -2593zm-77 -191l353 265 -12 0 -11 2 -12 1 -12 2 -11 2 -11 2 -11 3 -11 3 -11 3 -10 4 -11 3 -10 4 -10 5 -10 5 -9 5 -10 5 -9 5 -9 6 -9 6 -9 7 -9 7 -8 7 -8 7 -9 8 -8 8 -7 8 -8 8 -7 9 -8 9 -7 10 -7 9 -7 10 0 0 -52 -438z"/>
  </g>
  <g>
   <path class="fil5" d="M10545 11197l-1497 -2593 50 -29 1498 2593 -51 29zm127 162l-353 -264 12 -1 12 -1 12 -2 11 -1 12 -2 11 -3 11 -2 11 -3 10 -3 11 -4 10 -4 10 -4 10 -4 10 -5 10 -5 9 -5 10 -6 9 -6 9 -6 9 -6 8 -7 9 -7 8 -7 8 -8 8 -8 8 -8 8 -9 7 -9 7 -9 7 -9 7 -10 7 -10 0 0 52 438z"/>
  </g>
  <circle class="fil0 str4" cx="7871" cy="10665" r="837"/>
  <path class="fil6" d="M7653 10838c-22,10 -50,16 -85,16 -45,0 -81,-14 -108,-41 -26,-27 -40,-63 -40,-108 0,-47 15,-86 45,-116 29,-30 68,-45 114,-45 30,0 54,3 74,11l0 62c-20,-12 -43,-18 -69,-18 -29,0 -53,9 -70,28 -18,19 -26,43 -26,73 0,30 8,53 25,71 16,18 39,27 67,27 27,0 51,-6 73,-19l0 59z"/>
  <path id="1" class="fil6" d="M7990 10848l-70 0 -22 -68 -109 0 -22 68 -70 0 110 -299 75 0 108 299zm-107 -118l-34 -104c-3,-6 -4,-15 -5,-26l-2 0c-1,9 -2,18 -5,26l-34 104 80 0z"/>
  <path id="2" class="fil6" d="M8318 10848l-65 0 -127 -194c-7,-10 -12,-18 -15,-24l-1 0c1,10 2,26 2,48l0 170 -61 0 0 -299 70 0 122 188c9,13 14,21 15,24l1 0c-1,-7 -2,-21 -2,-41l0 -171 61 0 0 299z"/>
  <g>
   <path class="fil3" d="M6881 11335l-1006 550 -28 -50 1006 -551 28 51zm165 -124l-273 347 0 -12 -1 -11 -1 -12 -2 -12 -2 -11 -2 -11 -2 -11 -3 -11 -3 -11 -3 -11 -4 -10 -3 -10 -5 -11 -4 -9 -5 -10 -5 -10 -5 -9 -6 -10 -6 -9 -6 -9 -7 -8 -7 -9 -7 -9 -7 -8 -8 -8 -8 -8 -8 -8 -9 -7 -9 -8 -9 -7 -10 -7 -10 -7 0 0 440 -43z"/>
  </g>
  <g>
   <path class="fil4" d="M8934 11335l28 -51 1006 551 -28 50 -1006 -550zm-164 -124l439 43 -10 7 -10 7 -9 7 -9 8 -8 7 -9 8 -8 8 -8 8 -7 8 -7 9 -7 9 -7 8 -6 9 -6 9 -5 10 -6 9 -5 10 -5 10 -4 9 -4 11 -4 10 -4 10 -3 11 -3 11 -3 11 -2 11 -2 11 -2 11 -2 12 -1 12 -1 11 0 12 0 0 -272 -347z"/>
  </g>
  <g>
   <path class="fil5" d="M7908 9460l-58 2 -24 -743 58 -2 24 743zm-22 205l-187 -400 11 5 11 5 11 4 11 4 11 3 11 4 11 3 11 2 11 2 11 2 11 2 11 1 11 1 10 0 11 0 11 0 11 0 11 -1 11 -1 10 -2 11 -2 11 -2 11 -3 11 -2 10 -4 11 -3 11 -4 11 -4 10 -5 11 -5 11 -5 10 -6 0 0 -160 411z"/>
  </g>
  <path class="fil3" d="M7110 12514l0 64 -39 0 0 -185 64 0c46,0 69,19 69,59 0,19 -7,34 -21,45 -14,12 -31,17 -52,17l-21 0zm0 -90l0 59 18 0c23,0 34,-10 34,-30 0,-20 -11,-29 -34,-29l-18 0z"/>
  <path id="1" class="fil3" d="M7239 12454c6,-3 14,-6 24,-8 10,-2 19,-3 26,-3 37,0 56,18 56,55l0 80 -37 0 0 -19 -1 0c-9,15 -22,23 -39,23 -13,0 -23,-4 -30,-11 -8,-7 -12,-17 -12,-29 0,-26 15,-40 46,-44l36 -5c0,-16 -8,-24 -24,-24 -16,0 -31,5 -45,15l0 -30zm44 64c-14,2 -21,9 -21,19 0,5 2,9 5,12 3,3 8,5 14,5 8,0 14,-3 19,-8 5,-6 8,-13 8,-21l0 -10 -25 3z"/>
  <path id="2" class="fil3" d="M7516 12446l-54 144c-13,34 -32,51 -57,51 -10,0 -18,-1 -24,-4l0 -31c5,3 11,5 17,5 11,0 18,-5 23,-15l7 -18 -54 -132 43 0 26 83c2,5 3,11 4,17l0 0c1,-4 2,-10 4,-17l27 -83 38 0z"/>
  <path id="3" class="fil3" d="M7645 12563l0 15 -39 0 0 -196 39 0 0 84 0 0c10,-15 25,-23 44,-23 16,0 29,6 39,17 9,12 14,28 14,49 0,21 -5,39 -16,53 -11,13 -25,20 -43,20 -17,0 -29,-7 -38,-19l0 0zm-1 -42c0,9 3,16 8,22 5,6 12,9 20,9 9,0 17,-4 22,-11 6,-8 8,-18 8,-32 0,-12 -2,-20 -7,-27 -5,-6 -12,-10 -21,-10 -9,0 -16,4 -21,10 -6,7 -9,15 -9,25l0 14z"/>
  <path id="4" class="fil3" d="M7908 12446l-55 144c-12,34 -31,51 -57,51 -10,0 -17,-1 -23,-4l0 -31c5,3 11,5 17,5 11,0 18,-5 22,-15l8 -18 -54 -132 43 0 26 83c2,5 3,11 3,17l1 0c1,-4 2,-10 4,-17l27 -83 38 0z"/>
  <path id="5" class="fil3" d="M8134 12572c-13,6 -31,10 -53,10 -28,0 -50,-9 -66,-25 -17,-17 -25,-39 -25,-67 0,-30 9,-54 28,-72 18,-19 42,-28 71,-28 18,0 33,2 45,7l0 38c-12,-7 -27,-11 -43,-11 -18,0 -32,6 -43,17 -11,12 -16,27 -16,46 0,18 5,33 15,44 10,11 24,16 42,16 16,0 32,-4 45,-12l0 37z"/>
  <path id="6" class="fil3" d="M8342 12578l-43 0 -14 -42 -67 0 -14 42 -42 0 67 -185 47 0 66 185zm-66 -73l-21 -64c-1,-4 -2,-9 -3,-16l-1 0c0,5 -1,11 -3,16l-21 64 49 0z"/>
  <path id="7" class="fil3" d="M8545 12578l-40 0 -79 -120c-4,-6 -7,-11 -8,-15l-1 0c1,7 1,17 1,30l0 105 -37 0 0 -185 43 0 75 117c5,7 8,12 10,14l0 0c-1,-4 -1,-13 -1,-25l0 -106 37 0 0 185z"/>
  <path class="fil4" d="M7428 13158l-49 185 -44 0 -32 -121c-2,-6 -3,-13 -3,-20l0 0c-1,8 -2,15 -4,20l-32 121 -46 0 -49 -185 43 0 28 126c1,5 2,12 2,20l1 0c1,-6 2,-13 4,-21l34 -125 42 0 32 126c1,6 2,12 3,20l0 0c1,-7 2,-14 3,-20l27 -126 40 0z"/>
  <path id="1" class="fil4" d="M7459 13168c0,-6 2,-11 7,-14 4,-4 9,-6 16,-6 6,0 12,2 16,6 4,4 6,8 6,14 0,6 -2,11 -6,15 -4,4 -10,5 -16,5 -7,0 -12,-1 -16,-5 -5,-4 -7,-9 -7,-15zm3 175l0 -132 39 0 0 132 -39 0z"/>
  <polygon id="2" class="fil4" points="7622,13286 7551,13286 7551,13259 7622,13259 "/>
  <polygon id="3" class="fil4" points="7781,13190 7715,13190 7715,13238 7776,13238 7776,13270 7715,13270 7715,13343 7675,13343 7675,13158 7781,13158 "/>
  <path id="4" class="fil4" d="M7820 13168c0,-6 2,-11 6,-14 4,-4 9,-6 16,-6 7,0 12,2 16,6 4,4 6,8 6,14 0,6 -2,11 -6,15 -4,4 -9,5 -16,5 -6,0 -12,-1 -16,-5 -4,-4 -6,-9 -6,-15zm2 175l0 -132 39 0 0 132 -39 0z"/>
  <path id="5" class="fil4" d="M8133 13343l-43 0 -14 -42 -67 0 -14 42 -43 0 68 -185 47 0 66 185zm-66 -73l-21 -64c-1,-4 -2,-10 -3,-16l-1 0c0,5 -1,10 -3,15l-21 65 49 0z"/>
  <path id="6" class="fil4" d="M8295 13343l-38 0 0 -18 -1 0c-9,14 -23,22 -41,22 -17,0 -30,-6 -40,-18 -10,-12 -15,-28 -15,-49 0,-22 5,-39 16,-52 12,-14 26,-20 44,-20 17,0 29,6 36,18l1 0 0 -79 38 0 0 196zm-37 -75c0,-9 -3,-16 -9,-22 -5,-6 -12,-9 -20,-9 -9,0 -17,4 -22,12 -5,7 -8,17 -8,30 0,12 3,21 8,28 5,7 12,10 21,10 9,0 16,-4 21,-11 6,-7 9,-16 9,-27l0 -11z"/>
  <path id="7" class="fil4" d="M8342 13308c13,8 26,12 39,12 16,0 24,-4 24,-13 0,-6 -7,-11 -20,-15 -17,-5 -28,-11 -34,-17 -6,-7 -9,-15 -9,-26 0,-13 5,-23 16,-30 10,-8 24,-11 41,-11 12,0 24,1 35,5l0 30c-10,-6 -22,-9 -34,-9 -6,0 -11,1 -15,4 -4,2 -5,5 -5,8 0,6 5,11 16,15 12,4 21,8 27,11 6,3 11,8 14,13 3,5 5,11 5,18 0,14 -6,25 -16,32 -11,8 -26,12 -44,12 -15,0 -28,-3 -40,-7l0 -32z"/>
  <path class="fil3" d="M5204 10231c-25,-15 -41,-34 -49,-58 -7,-24 -4,-48 10,-72 13,-23 32,-37 55,-42 23,-5 47,-1 71,13 25,15 41,34 48,57 8,24 4,47 -9,71 -13,23 -32,37 -55,43 -24,6 -47,1 -71,-12zm19 -37c16,9 30,12 45,10 14,-1 25,-9 33,-22 7,-13 9,-27 3,-39 -5,-13 -15,-25 -31,-34 -17,-9 -33,-13 -46,-12 -14,2 -25,9 -33,22 -7,14 -9,27 -3,41 5,13 16,25 32,34z"/>
  <path id="1" class="fil3" d="M5292 9927c-5,3 -8,7 -10,11 -7,12 -4,21 9,28l13 8 15 -26 25 14 -15 26 89 52 -19 34 -90 -52 -11 19 -25 -14 11 -20 -14 -8c-13,-8 -21,-18 -24,-31 -3,-13 -1,-26 7,-40 4,-7 8,-13 13,-16l26 15z"/>
  <path id="2" class="fil3" d="M5349 9828c-5,4 -8,7 -10,11 -7,12 -4,21 9,29l13 7 15 -26 25 14 -15 27 89 51 -19 34 -90 -52 -11 19 -25 -14 11 -19 -14 -9c-13,-7 -21,-18 -24,-31 -3,-13 -1,-26 7,-40 4,-7 8,-12 13,-16l26 15z"/>
  <path id="3" class="fil3" d="M5519 9756l-44 75c19,9 34,4 45,-17 8,-12 11,-25 10,-38l25 14c0,14 -5,29 -15,46 -11,18 -24,29 -40,34 -16,4 -34,1 -52,-10 -18,-11 -30,-25 -35,-42 -5,-17 -3,-34 6,-51 9,-16 22,-26 37,-29 15,-4 31,0 48,10l15 8zm-39 19c-17,-10 -30,-8 -38,6 -3,6 -4,12 -2,19 2,7 7,14 14,19l26 -44z"/>
  <path id="4" class="fil3" d="M5544 9627c-4,3 -8,7 -12,13 -4,8 -5,15 -2,23 4,8 10,15 21,21l55 32 -20 33 -114 -66 19 -34 22 13 0 -1c-13,-14 -15,-29 -6,-43 2,-4 4,-7 6,-9l31 18z"/>
  <path id="5" class="fil3" d="M5737 9474c-1,15 -7,32 -18,51 -14,24 -32,39 -55,45 -22,6 -46,2 -70,-12 -25,-15 -41,-34 -48,-60 -7,-25 -4,-50 11,-75 9,-16 19,-28 29,-36l33 19c-13,7 -23,18 -31,32 -9,15 -11,31 -7,46 5,15 15,27 31,37 16,9 32,12 46,8 15,-3 27,-12 36,-28 8,-14 12,-29 12,-45l31 18z"/>
  <path id="6" class="fil3" d="M5847 9297l-21 38 -44 -10 -34 59 30 33 -21 37 -127 -151 23 -41 194 35zm-96 21l-66 -14c-5,0 -10,-2 -16,-5l0 1c4,3 8,6 11,10l46 51 25 -43z"/>
  <path id="7" class="fil3" d="M5949 9122l-21 35 -143 8c-7,0 -13,0 -17,0l-1 0c6,3 15,7 27,14l91 53 -19 32 -160 -92 21 -38 139 -7c9,0 15,-1 17,-1l1 0c-5,-2 -12,-6 -23,-12l-92 -53 19 -32 161 93z"/>
  <path class="fil5" d="M5939 10428l128 148 -22 39 -193 -38 22 -37 133 31c7,2 13,4 18,6l0 -1c-5,-3 -9,-7 -14,-12l-93 -101 21 -35z"/>
  <path id="1" class="fil5" d="M5963 10407c-6,-3 -9,-7 -10,-13 -1,-5 0,-11 3,-17 4,-5 8,-9 13,-11 6,-2 11,-1 16,2 5,3 8,7 9,13 2,5 1,11 -3,17 -3,5 -7,9 -13,11 -5,1 -11,1 -15,-2zm153 85l-115 -66 19 -34 115 66 -19 34z"/>
  <path id="2" class="fil5" d="M6170 10286l-43 76c18,9 33,3 45,-17 7,-13 11,-26 10,-39l25 14c-1,14 -6,30 -15,47 -11,18 -24,29 -40,33 -16,4 -34,1 -52,-9 -18,-11 -30,-25 -35,-42 -6,-18 -4,-35 6,-51 9,-16 22,-26 37,-30 15,-3 31,0 48,10l14 8zm-39 20c-17,-10 -29,-8 -37,5 -4,6 -4,13 -2,20 2,7 7,13 14,19l25 -44z"/>
  <path id="3" class="fil5" d="M6218 10050l96 99 -21 35 -79 -22c-5,-1 -10,-3 -15,-6l0 1c5,3 9,7 12,10l58 59 -20 34 -133 -33 19 -34 86 27c4,1 8,3 14,5l0 0c-5,-4 -9,-7 -12,-10l-63 -64 18 -32 87 26c2,1 7,3 13,6l1 -1c-4,-2 -8,-5 -12,-9l-67 -60 18 -31z"/>
  <path id="4" class="fil5" d="M6462 9893l-22 37 -44 -9 -34 58 30 33 -21 38 -127 -152 24 -40 194 35zm-97 21l-66 -14c-4,-1 -9,-3 -16,-6l0 1c4,3 8,7 12,11l45 51 25 -43z"/>
  <path id="5" class="fil5" d="M6543 9753l-20 33 -16 -9 0 0c8,15 7,31 -2,47 -8,15 -20,23 -35,26 -16,2 -32,-1 -50,-12 -19,-10 -31,-24 -37,-40 -6,-17 -5,-33 4,-48 9,-15 20,-22 35,-22l0 -1 -69 -39 20 -34 170 99zm-84 -5c-8,-5 -16,-6 -24,-4 -7,2 -13,6 -17,13 -5,8 -6,16 -2,25 4,8 11,15 22,22 11,6 20,8 29,7 8,-1 14,-6 19,-13 4,-8 5,-16 1,-24 -3,-8 -9,-15 -19,-21l-9 -5z"/>
  <path id="6" class="fil5" d="M6535 9695c13,-8 23,-17 30,-28 8,-14 8,-23 1,-27 -6,-3 -13,0 -23,9 -13,12 -24,19 -32,21 -9,2 -17,1 -27,-5 -11,-6 -17,-16 -18,-29 -1,-12 2,-26 11,-41 6,-11 13,-20 22,-28l26 15c-10,6 -18,15 -25,25 -3,6 -4,11 -4,15 0,4 2,7 5,9 5,3 12,1 21,-7 9,-8 17,-14 23,-18 6,-4 12,-5 18,-5 6,0 12,1 18,5 12,7 19,17 20,30 1,13 -3,28 -13,43 -7,13 -15,23 -25,32l-28 -16z"/>
  <path class="fil4" d="M10380 8784l-185 49 -22 -38 89 -87c5,-5 10,-9 16,-13l0 -1c-8,4 -14,6 -19,8l-121 32 -23 -39 136 -136 21 38 -95 86c-4,4 -9,8 -17,13l1 1c6,-3 13,-6 20,-8l126 -33 21 37 -94 90c-4,4 -9,8 -16,13l1 0c6,-3 12,-6 19,-8l122 -39 20 35z"/>
  <path id="1" class="fil4" d="M10387 8816c5,-3 10,-4 16,-2 5,2 9,5 13,11 3,6 4,12 3,17 -2,6 -5,10 -10,13 -5,2 -10,3 -15,1 -6,-1 -10,-5 -13,-11 -4,-5 -5,-11 -3,-17 1,-5 4,-9 9,-12zm-150 90l114 -66 20 33 -115 66 -19 -33z"/>
  <polygon id="2" class="fil4" points="10366,9015 10331,8954 10354,8940 10390,9001 "/>
  <polygon id="3" class="fil4" points="10529,9105 10496,9048 10454,9072 10485,9125 10457,9141 10426,9088 10363,9125 10343,9090 10504,8998 10557,9089 "/>
  <path id="4" class="fil4" d="M10567 9128c5,-3 10,-4 16,-2 5,2 9,5 13,11 3,6 4,12 3,17 -1,6 -4,10 -9,13 -5,3 -11,3 -16,1 -6,-1 -10,-5 -13,-11 -4,-5 -5,-11 -3,-17 1,-5 4,-9 9,-12zm-150 90l115 -66 19 33 -115 66 -19 -33z"/>
  <path id="5" class="fil4" d="M10523 9370l-66 38 -20 -33 168 -97 19 34 -18 10 1 0c18,1 32,10 42,26 8,14 9,29 4,43 -5,14 -17,26 -34,36 -20,11 -38,15 -55,12 -17,-2 -30,-12 -39,-27 -8,-14 -9,-28 -2,-42l0 0zm37 -22c-8,5 -14,11 -16,18 -3,8 -2,15 2,22 5,8 12,13 21,14 9,1 19,-2 31,-9 21,-12 27,-26 18,-43 -5,-7 -11,-12 -20,-13 -8,-2 -17,0 -26,5l-10 6z"/>
  <path id="6" class="fil4" d="M10705 9523c0,-5 -1,-11 -5,-17 -4,-8 -10,-12 -19,-13 -8,-1 -17,1 -28,7l-55 32 -19 -33 115 -67 19 34 -22 12 1 1c19,-4 32,2 41,16 2,4 3,7 3,10l-31 18z"/>
  <path id="7" class="fil4" d="M10691 9561c18,-11 36,-14 54,-9 17,5 31,17 42,36 11,18 14,36 10,53 -5,17 -16,31 -34,41 -18,11 -37,14 -54,9 -18,-4 -32,-16 -43,-35 -11,-19 -14,-37 -10,-54 5,-17 16,-31 35,-41zm19 33c-22,13 -28,29 -18,48 11,18 28,20 51,7 23,-13 28,-29 18,-47 -5,-9 -12,-14 -21,-15 -9,-2 -19,1 -30,7z"/>
  <path id="8" class="fil4" d="M10902 9793l-139 23 -22 -37 91 -108 20 36 -60 63c-6,7 -12,12 -17,15l0 1c6,-3 13,-5 22,-7l85 -21 20 35z"/>
  <path id="9" class="fil4" d="M10954 9797c5,-3 10,-4 15,-2 6,2 10,6 13,11 3,6 5,12 3,17 -1,6 -4,10 -9,13 -5,3 -10,3 -16,2 -5,-2 -10,-6 -13,-11 -3,-6 -4,-12 -3,-17 1,-6 5,-10 10,-13zm-151 90l115 -66 19 33 -114 66 -20 -33z"/>
  <path id="10" class="fil4" d="M10911 10074l-19 -34 16 -9 0 -1c-18,0 -31,-9 -40,-24 -8,-15 -10,-30 -5,-44 6,-15 17,-27 35,-37 19,-11 37,-15 54,-12 17,3 30,12 39,28 8,15 9,28 2,40l0 1 69 -40 19 34 -170 98zm46 -71c8,-4 13,-10 15,-18 3,-7 2,-15 -2,-22 -5,-8 -12,-12 -21,-13 -9,-1 -19,2 -30,8 -11,6 -18,13 -21,21 -3,8 -2,15 2,23 5,8 11,12 20,13 9,2 18,-1 27,-6l10 -6z"/>
  <path id="11" class="fil4" d="M11086 10026c5,-3 10,-3 16,-1 5,1 9,5 12,11 4,5 5,11 4,17 -2,5 -5,9 -10,12 -5,3 -10,4 -15,2 -6,-2 -10,-6 -14,-11 -3,-6 -4,-11 -2,-17 1,-6 4,-10 9,-13zm-150 90l114 -66 20 34 -115 66 -19 -34z"/>
  <path id="12" class="fil4" d="M11042 10301l-19 -33 64 -37c19,-11 24,-23 16,-36 -3,-6 -9,-10 -16,-12 -8,-1 -15,1 -23,5l-65 38 -19 -34 114 -66 20 34 -19 10 1 1c18,0 33,8 42,24 15,26 6,48 -25,66l-71 40z"/>
  <path id="13" class="fil4" d="M11143 10446c-21,12 -41,16 -60,10 -18,-5 -34,-19 -47,-42 -9,-16 -14,-29 -15,-41l29 -16c0,16 3,30 10,42 7,12 16,19 26,22 10,3 21,1 32,-5l10 -6 -1 0c-17,-1 -31,-9 -40,-25 -8,-14 -10,-29 -5,-44 6,-14 17,-26 34,-36 20,-12 38,-16 55,-13 17,3 30,12 39,28 8,14 9,28 2,41l0 1 14 -8 19 33 -102 59zm33 -63c7,-4 13,-10 15,-18 3,-8 2,-15 -2,-22 -5,-8 -12,-13 -21,-14 -9,-1 -19,2 -31,9 -10,6 -16,12 -20,20 -3,8 -2,16 2,23 5,8 11,13 20,14 8,1 17,-1 27,-6l10 -6z"/>
  <path id="14" class="fil4" d="M10076 9094c25,-15 50,-19 74,-14 24,6 43,21 57,45 13,23 16,46 9,68 -7,23 -23,41 -47,55 -25,15 -49,19 -73,14 -24,-6 -43,-20 -56,-44 -14,-23 -17,-46 -10,-69 7,-23 22,-42 46,-55zm22 34c-15,9 -26,21 -32,34 -5,13 -4,26 4,39 7,14 18,22 32,24 14,2 29,-2 45,-11 16,-10 28,-21 33,-34 6,-13 4,-26 -3,-39 -8,-14 -19,-21 -33,-23 -15,-2 -30,1 -46,10z"/>
  <path id="15" class="fil4" d="M10295 9322c-1,-6 -2,-11 -5,-15 -6,-11 -16,-13 -29,-6l-13 7 15 26 -25 15 -15 -26 -89 52 -20 -34 90 -52 -11 -19 25 -14 11 19 15 -9c13,-7 26,-9 38,-5 13,4 23,13 31,27 4,7 7,13 8,18l-26 16z"/>
  <path id="16" class="fil4" d="M10352 9420c-1,-5 -2,-10 -5,-14 -6,-12 -16,-14 -29,-6l-13 7 15 26 -25 15 -15 -27 -89 52 -20 -33 90 -52 -11 -19 25 -15 11 20 15 -9c13,-8 26,-9 38,-5 13,4 23,13 31,26 4,7 7,14 8,19l-26 15z"/>
  <path id="17" class="fil4" d="M10330 9604l-44 -76c-17,11 -20,27 -8,48 7,12 17,22 29,28l-25 14c-12,-7 -23,-19 -32,-36 -11,-18 -14,-35 -10,-52 5,-16 16,-29 35,-40 18,-10 36,-13 54,-9 17,4 31,14 40,31 10,16 12,31 8,46 -5,15 -16,27 -33,37l-14 9zm3 -44c17,-10 21,-22 13,-35 -3,-6 -8,-10 -16,-12 -7,-1 -15,0 -23,3l26 44z"/>
  <path id="18" class="fil4" d="M10428 9690c0,-5 -1,-11 -5,-17 -4,-7 -11,-12 -19,-13 -8,-1 -18,1 -28,7l-55 32 -19 -33 114 -67 20 34 -22 12 0 1c19,-4 33,2 41,16 3,4 4,8 4,10l-31 18z"/>
  <path id="19" class="fil4" d="M10464 9933c-12,-8 -24,-22 -35,-40 -14,-25 -18,-48 -11,-70 6,-23 21,-41 45,-55 26,-15 51,-19 76,-12 25,6 45,22 60,47 9,16 14,30 16,43l-33 19c0,-14 -3,-29 -11,-42 -9,-16 -22,-26 -37,-29 -16,-4 -31,-1 -48,8 -15,9 -25,21 -30,36 -4,14 -2,29 7,44 8,15 19,26 32,33l-31 18z"/>
  <path id="20" class="fil4" d="M10562 10117l-21 -37 30 -33 -34 -59 -44 10 -21 -37 195 -34 23 40 -128 150zm31 -94l45 -50c2,-3 7,-7 12,-11l0 -1c-5,3 -10,4 -16,5l-66 14 25 43z"/>
  <path id="21" class="fil4" d="M10664 10293l-20 -35 64 -128c4,-7 7,-12 9,-15l0 -1c-6,4 -14,9 -25,16l-92 53 -19 -33 161 -93 22 38 -64 124c-4,8 -6,13 -8,15l1 1c3,-3 10,-8 21,-14l92 -53 19 32 -161 93z"/>
  <path class="fil5" d="M9277 9191l-185 50 -22 -38 89 -88c5,-4 10,-9 16,-12l0 -1c-8,4 -14,6 -19,7l-121 33 -23 -40 136 -135 21 37 -95 87c-4,4 -9,8 -16,13l0 0c6,-2 13,-5 20,-7l126 -33 21 37 -94 90c-4,4 -9,8 -15,13l0 0c6,-3 12,-6 19,-8l122 -39 20 34z"/>
  <path id="1" class="fil5" d="M9284 9223c5,-2 10,-3 16,-1 5,1 9,5 13,11 3,6 4,11 3,17 -1,5 -4,9 -9,12 -6,3 -11,4 -16,2 -6,-2 -10,-5 -13,-11 -4,-6 -5,-11 -3,-17 1,-5 4,-10 9,-13zm-150 91l115 -67 19 34 -115 66 -19 -33z"/>
  <polygon id="2" class="fil5" points="9263,9423 9228,9362 9251,9348 9287,9409 "/>
  <polygon id="3" class="fil5" points="9426,9513 9393,9456 9352,9480 9382,9532 9354,9549 9324,9496 9260,9532 9240,9498 9401,9405 9454,9497 "/>
  <path id="4" class="fil5" d="M9464 9535c5,-2 11,-3 16,-1 5,2 9,5 13,11 3,6 4,11 3,17 -1,5 -4,10 -9,12 -5,3 -11,4 -16,2 -6,-2 -10,-5 -13,-11 -3,-6 -4,-11 -3,-17 1,-5 4,-10 9,-13zm-150 91l115 -67 19 34 -115 66 -19 -33z"/>
  <path id="5" class="fil5" d="M9441 9836c-9,-6 -18,-16 -27,-30 -10,-18 -13,-35 -8,-52 4,-17 15,-30 32,-40 19,-11 38,-14 56,-9 18,5 32,17 44,36 7,13 11,24 11,33l-29 16c1,-11 -1,-21 -6,-30 -6,-10 -14,-16 -23,-19 -10,-3 -21,-1 -31,5 -11,7 -18,14 -20,24 -3,9 -1,19 5,29 5,9 13,16 23,21l-27 16z"/>
  <path id="6" class="fil5" d="M9511 9835c18,-11 37,-14 54,-9 17,5 31,17 42,36 11,19 14,37 10,54 -4,17 -16,30 -34,41 -18,10 -37,14 -54,9 -18,-5 -32,-17 -43,-36 -11,-18 -14,-36 -10,-53 5,-18 16,-31 35,-42zm20 34c-23,13 -29,29 -19,47 11,18 28,21 51,7 23,-13 29,-29 18,-47 -5,-8 -12,-13 -21,-15 -8,-1 -18,1 -29,8z"/>
  <path id="7" class="fil5" d="M9609 10136l-20 -33 64 -37c19,-11 24,-23 17,-36 -4,-7 -10,-11 -17,-12 -7,-1 -15,0 -23,5l-65 37 -19 -33 114 -66 20 33 -19 11 1 0c18,0 33,9 42,25 15,25 6,47 -25,65l-70 41z"/>
  <path id="8" class="fil5" d="M9695 10286l-19 -33 64 -37c19,-11 24,-23 16,-36 -3,-7 -9,-10 -16,-12 -8,-1 -15,0 -23,5l-65 38 -20 -34 115 -66 19 33 -18 11 0 0c19,1 33,9 43,25 14,25 6,47 -25,66l-71 40z"/>
  <path id="9" class="fil5" d="M9826 10402l-44 -76c-17,11 -20,27 -8,48 7,12 17,22 29,28l-25 14c-12,-7 -22,-19 -32,-36 -11,-18 -14,-36 -9,-52 4,-16 15,-29 34,-40 18,-10 36,-13 54,-9 18,4 31,14 41,31 9,16 11,31 7,46 -5,15 -16,27 -33,37l-14 9zm3 -44c17,-10 22,-22 13,-35 -3,-6 -8,-10 -15,-12 -8,-1 -15,-1 -24,3l26 44z"/>
  <path id="10" class="fil5" d="M9852 10547c-10,-5 -19,-15 -27,-30 -10,-17 -13,-35 -9,-52 5,-17 15,-30 32,-40 20,-11 39,-14 57,-9 18,5 32,17 43,37 8,13 12,24 12,32l-29 17c1,-11 -1,-21 -6,-30 -6,-11 -14,-17 -24,-20 -10,-2 -20,0 -31,6 -10,6 -17,14 -19,23 -3,9 -2,19 4,29 5,9 13,16 24,21l-27 16z"/>
  <path id="11" class="fil5" d="M9909 10653c-6,-4 -12,-11 -18,-21 -14,-24 -8,-44 18,-58l54 -32 -11 -19 25 -14 11 19 25 -15 29 28 -35 20 15 26 -25 15 -15 -26 -48 28c-12,7 -16,15 -10,25 2,3 5,7 10,9l-25 15z"/>
  <path id="12" class="fil5" d="M10077 10596c5,-3 10,-4 15,-2 5,2 10,6 13,11 3,6 4,12 3,17 -1,6 -4,10 -9,13 -5,3 -10,3 -16,2 -5,-2 -10,-6 -13,-11 -3,-6 -4,-12 -3,-17 1,-6 5,-10 10,-13zm-151 90l115 -66 19 33 -114 66 -20 -33z"/>
  <path id="13" class="fil5" d="M10023 10722c19,-10 37,-13 54,-8 18,5 32,17 43,36 10,18 14,36 9,53 -4,17 -15,31 -33,41 -19,11 -37,14 -55,9 -17,-4 -31,-16 -42,-35 -11,-19 -14,-37 -10,-54 4,-17 16,-31 34,-42zm20 34c-23,13 -29,29 -18,48 10,18 27,20 51,6 22,-13 28,-28 18,-46 -5,-9 -12,-14 -21,-15 -9,-2 -19,1 -30,7z"/>
  <path id="14" class="fil5" d="M10121 11023l-19 -33 64 -37c18,-11 24,-23 16,-36 -4,-6 -9,-10 -17,-12 -7,-1 -15,1 -22,5l-66 38 -19 -34 115 -66 19 34 -18 10 0 1c19,0 33,8 42,24 15,26 7,48 -25,66l-70 40z"/>
  <path id="15" class="fil5" d="M8784 9342c-12,-8 -24,-22 -35,-40 -14,-25 -17,-48 -11,-71 6,-22 21,-40 46,-54 25,-15 50,-19 76,-12 25,6 45,22 59,47 9,16 15,30 17,43l-33 19c0,-14 -4,-29 -12,-42 -9,-16 -21,-26 -37,-29 -15,-4 -31,-1 -47,8 -16,9 -26,21 -31,36 -4,14 -2,29 7,44 8,14 19,25 33,33l-32 18z"/>
  <path id="16" class="fil5" d="M8883 9526l-22 -37 30 -33 -34 -59 -43 10 -22 -38 195 -33 23 40 -127 150zm30 -94l45 -50c3,-3 7,-7 13,-11l-1 -1c-5,3 -10,4 -15,5l-67 14 25 43z"/>
  <path id="17" class="fil5" d="M8984 9702l-20 -35 65 -128c3,-7 6,-12 8,-15l0 -1c-5,4 -14,9 -25,16l-91 53 -19 -33 160 -93 22 38 -63 124c-4,8 -7,13 -8,15l0 0c4,-2 11,-7 22,-13l91 -53 19 32 -161 93z"/>
  <path id="18" class="fil5" d="M9226 9789c0,-6 -2,-11 -4,-15 -7,-11 -17,-13 -29,-6l-13 8 15 26 -25 14 -15 -26 -90 52 -19 -34 89 -51 -11 -20 25 -14 11 19 15 -8c13,-8 26,-10 39,-6 13,4 23,13 31,27 4,7 7,13 8,19l-27 15z"/>
  <path id="19" class="fil5" d="M9150 9858c19,-11 37,-14 55,-8 17,5 31,17 42,36 11,18 14,36 10,53 -5,17 -16,31 -34,41 -19,11 -37,14 -54,9 -18,-5 -32,-16 -43,-35 -11,-19 -14,-37 -10,-54 5,-17 16,-31 34,-42zm20 34c-23,13 -29,29 -18,48 11,18 27,20 51,6 22,-13 28,-28 18,-46 -5,-9 -12,-14 -21,-15 -9,-2 -19,1 -30,7z"/>
  <path id="20" class="fil5" d="M9312 10075c0,-6 -2,-11 -5,-17 -5,-8 -11,-12 -19,-13 -9,-1 -18,1 -28,7l-55 32 -20 -34 115 -66 19 33 -21 13 0 0c19,-3 33,2 41,17 2,4 4,7 4,10l-31 18z"/>
  <path id="21" class="fil5" d="M9307 10229l-67 38 -19 -33 168 -97 19 34 -18 10 1 0c18,1 32,10 41,26 9,14 10,29 5,43 -6,14 -17,26 -35,36 -19,11 -37,15 -54,12 -17,-2 -30,-12 -39,-27 -8,-14 -9,-28 -2,-42l0 0zm37 -22c-9,5 -14,11 -17,18 -2,8 -2,15 3,22 4,8 11,13 21,14 9,1 19,-2 31,-9 21,-12 27,-26 18,-43 -5,-7 -11,-12 -20,-13 -8,-2 -17,0 -26,5l-10 6z"/>
  <path id="22" class="fil5" d="M9471 10296c6,3 12,9 19,16 7,8 12,15 15,21 19,32 12,57 -20,76l-69 40 -19 -32 17 -9 0 -1c-18,0 -31,-8 -40,-23 -6,-11 -8,-21 -5,-31 2,-11 9,-19 19,-25 22,-12 43,-7 61,17l23 29c13,-7 16,-18 8,-32 -8,-14 -20,-24 -35,-31l26 -15zm-34 70c-9,-11 -18,-14 -27,-9 -4,3 -7,6 -8,10 -1,5 0,10 3,15 4,6 10,11 17,12 7,2 15,1 22,-4l8 -4 -15 -20z"/>
  <path id="23" class="fil5" d="M9616 10531l-152 25c-36,6 -60,-2 -72,-24 -5,-9 -8,-16 -9,-22l27 -15c0,6 1,11 4,17 6,9 14,13 25,12l19 -3 87 -112 22 37 -59 64c-4,4 -8,7 -13,11l0 1c4,-2 10,-3 17,-5l85 -19 19 33z"/>
  <path id="24" class="fil5" d="M9621 10805l-19 -33 65 -38c18,-10 23,-22 16,-35 -4,-6 -9,-9 -17,-10 -8,-1 -15,1 -23,5l-64 38 -19 -34 66 -38c17,-10 22,-21 14,-34 -3,-6 -9,-10 -16,-10 -7,-1 -15,1 -23,6l-64 36 -20 -33 115 -66 19 33 -18 11 1 0c8,0 17,3 24,7 8,5 13,11 18,18 9,16 8,31 -3,46 20,0 34,9 44,26 14,25 6,46 -25,64l-71 41z"/>
  <path id="25" class="fil5" d="M9752 10920l-44 -75c-17,11 -20,27 -8,47 7,13 17,22 29,29l-25 14c-12,-7 -23,-19 -32,-36 -11,-18 -14,-36 -10,-52 5,-16 16,-29 35,-40 18,-10 36,-14 54,-9 17,4 31,14 40,30 10,17 12,32 8,47 -5,15 -16,27 -33,37l-14 8zm3 -43c17,-10 21,-22 13,-36 -3,-5 -8,-9 -16,-11 -7,-1 -15,-1 -23,3l26 44z"/>
  <path id="26" class="fil5" d="M9787 11091l-20 -33 64 -37c19,-10 24,-23 17,-36 -4,-6 -10,-10 -17,-11 -7,-2 -15,0 -23,4l-65 38 -19 -34 114 -66 20 34 -19 10 1 1c18,0 33,8 42,24 15,26 6,48 -25,66l-70 40z"/>
  <path id="27" class="fil5" d="M9851 11199c-6,-3 -12,-10 -18,-20 -14,-24 -8,-44 18,-59l54 -31 -11 -19 25 -14 11 19 25 -15 29 28 -35 20 15 26 -25 14 -15 -26 -48 28c-13,7 -16,16 -10,25 2,4 5,7 10,10l-25 14z"/>
  <path class="fil5" d="M7501 7264c0,147 -69,221 -206,221 -132,0 -198,-72 -198,-216l0 -287 105 0 0 288c0,82 33,123 98,123 63,0 95,-39 95,-119l0 -292 106 0 0 282z"/>
  <path id="1" class="fil5" d="M7629 7381c35,22 70,33 104,33 42,0 63,-12 63,-35 0,-16 -17,-29 -52,-40 -44,-14 -74,-29 -91,-46 -16,-16 -24,-39 -24,-68 0,-34 14,-61 42,-81 28,-20 65,-30 110,-30 33,0 64,5 94,15l0 81c-27,-16 -58,-24 -91,-24 -16,0 -29,3 -39,8 -10,6 -15,14 -15,24 0,16 15,29 44,39 32,10 56,20 72,29 17,9 29,20 37,34 8,15 13,31 13,50 0,36 -15,65 -44,85 -29,20 -68,30 -117,30 -38,0 -74,-6 -106,-18l0 -86z"/>
  <path id="2" class="fil5" d="M8313 7329l-232 0c4,54 37,82 99,82 39,0 73,-10 103,-29l0 76c-32,18 -74,27 -126,27 -57,0 -100,-16 -131,-48 -32,-31 -47,-76 -47,-132 0,-57 16,-103 50,-138 33,-35 75,-53 125,-53 50,0 89,16 117,46 28,30 42,72 42,125l0 44zm-96 -65c0,-53 -21,-79 -64,-79 -18,0 -33,7 -47,22 -13,14 -22,33 -25,57l136 0z"/>
  <path id="3" class="fil5" d="M8645 7217c-13,-8 -28,-11 -46,-11 -24,0 -42,9 -56,27 -14,17 -20,42 -20,73l0 170 -104 0 0 -353 104 0 0 66 1 0c17,-48 48,-72 93,-72 12,0 21,1 28,4l0 96z"/>
  <path class="fil3" d="M3717 12922l-75 0 -24 -73 -116 0 -23 73 -74 0 117 -320 80 0 115 320zm-115 -126l-36 -111c-2,-7 -4,-16 -5,-28l-2 0c-1,9 -2,18 -5,27l-37 112 85 0z"/>
  <path id="1" class="fil3" d="M3969 12922l-66 0 0 -32 -1 0c-17,25 -40,38 -72,38 -29,0 -52,-11 -69,-31 -17,-21 -26,-49 -26,-84 0,-38 10,-68 29,-91 19,-23 44,-34 75,-34 30,0 51,10 63,32l1 0 0 -136 66 0 0 338zm-65 -129c0,-16 -5,-29 -14,-39 -10,-10 -21,-15 -35,-15 -16,0 -29,6 -38,19 -10,13 -14,31 -14,53 0,21 4,37 13,48 9,12 21,17 37,17 15,0 27,-6 36,-18 10,-12 15,-27 15,-46l0 -19z"/>
  <path id="2" class="fil3" d="M4241 12693l-86 229 -75 0 -82 -229 72 0 42 144c4,16 7,29 7,40l2 0c1,-11 3,-24 8,-39l42 -145 70 0z"/>
  <path id="3" class="fil3" d="M4468 12826l-150 0c2,36 24,54 64,54 25,0 47,-7 67,-19l0 49c-21,12 -48,18 -82,18 -37,0 -65,-11 -85,-31 -20,-21 -30,-49 -30,-86 0,-37 10,-66 32,-89 21,-23 48,-34 81,-34 32,0 58,10 76,29 18,20 27,47 27,81l0 28zm-62 -41c0,-35 -14,-52 -41,-52 -12,0 -22,5 -31,14 -9,10 -14,22 -16,38l88 0z"/>
  <path id="4" class="fil3" d="M4655 12754c-8,-5 -18,-7 -29,-7 -15,0 -27,6 -36,17 -9,12 -14,28 -14,48l0 110 -66 0 0 -229 66 0 0 43 1 0c11,-31 31,-47 60,-47 8,0 14,1 18,3l0 62z"/>
  <path id="5" class="fil3" d="M4834 12919c-10,6 -25,9 -45,9 -49,0 -73,-26 -73,-77l0 -108 -38 0 0 -50 38 0 0 -50 66 -19 0 69 52 0 0 50 -52 0 0 96c0,25 10,37 29,37 8,0 15,-2 23,-7l0 50z"/>
  <path id="6" class="fil3" d="M4867 12620c0,-11 4,-19 11,-25 7,-7 16,-10 28,-10 11,0 20,3 28,10 7,6 10,15 10,25 0,10 -3,18 -11,25 -7,6 -16,10 -27,10 -12,0 -21,-4 -28,-10 -7,-7 -11,-16 -11,-25zm5 302l0 -229 66 0 0 229 -66 0z"/>
  <path id="7" class="fil3" d="M4990 12861c23,13 45,20 67,20 28,0 41,-7 41,-22 0,-10 -11,-19 -34,-26 -28,-9 -48,-19 -58,-29 -11,-11 -16,-26 -16,-44 0,-23 9,-40 27,-53 18,-13 42,-19 72,-19 21,0 41,3 60,9l0 53c-17,-11 -37,-16 -58,-16 -11,0 -20,2 -26,6 -7,3 -10,8 -10,15 0,10 10,18 29,25 21,7 36,13 47,19 10,5 18,13 24,22 5,9 8,20 8,32 0,24 -10,42 -29,55 -18,13 -44,20 -75,20 -25,0 -48,-4 -69,-12l0 -55z"/>
  <path id="8" class="fil3" d="M5406 12826l-151 0c3,36 24,54 64,54 25,0 48,-7 67,-19l0 49c-21,12 -48,18 -82,18 -36,0 -64,-11 -85,-31 -20,-21 -30,-49 -30,-86 0,-37 11,-66 32,-89 22,-23 49,-34 81,-34 33,0 58,10 76,29 19,20 28,47 28,81l0 28zm-62 -41c0,-35 -14,-52 -42,-52 -11,0 -22,5 -30,14 -9,10 -15,22 -17,38l89 0z"/>
  <path id="9" class="fil3" d="M5593 12754c-8,-5 -18,-7 -30,-7 -15,0 -27,6 -36,17 -9,12 -13,28 -13,48l0 110 -67 0 0 -229 67 0 0 43 1 0c11,-31 31,-47 60,-47 8,0 14,1 18,3l0 62z"/>
  <path class="fil4" d="M10578 12922l0 -194c0,-18 1,-41 3,-68l-2 0c-4,21 -7,34 -10,41l-79 221 -54 0 -80 -219c-2,-5 -6,-19 -10,-43l-2 0c2,27 2,54 2,81l0 181 -61 0 0 -320 99 0 69 193c6,16 10,31 12,45l1 0c5,-17 9,-32 14,-45l69 -193 96 0 0 320 -67 0z"/>
  <path id="1" class="fil4" d="M10918 12826l-150 0c2,36 24,54 64,54 25,0 48,-7 67,-19l0 49c-21,12 -48,18 -82,18 -36,0 -65,-11 -85,-31 -20,-21 -30,-49 -30,-86 0,-37 11,-66 32,-89 22,-23 49,-34 81,-34 33,0 58,10 76,29 18,20 27,47 27,81l0 28zm-62 -41c0,-35 -14,-52 -41,-52 -12,0 -22,5 -31,14 -9,10 -14,22 -16,38l88 0z"/>
  <path id="2" class="fil4" d="M11109 12754c-8,-5 -18,-7 -29,-7 -15,0 -27,6 -36,17 -9,12 -13,28 -13,48l0 110 -67 0 0 -229 67 0 0 43 0 0c11,-31 31,-47 60,-47 8,0 14,1 18,3l0 62z"/>
  <path id="3" class="fil4" d="M11314 12913c-16,10 -38,15 -68,15 -35,0 -63,-11 -84,-32 -22,-22 -33,-49 -33,-83 0,-39 12,-69 35,-92 23,-22 54,-33 93,-33 26,0 45,3 58,10l0 58c-16,-11 -32,-17 -50,-17 -21,0 -37,6 -49,19 -13,12 -19,29 -19,51 0,21 6,37 18,49 11,12 27,18 47,18 18,0 35,-5 52,-17l0 54z"/>
  <path id="4" class="fil4" d="M11580 12922l-67 0 0 -130c0,-35 -13,-53 -38,-53 -13,0 -24,5 -32,15 -8,9 -13,22 -13,38l0 130 -66 0 0 -338 66 0 0 144 1 0c18,-27 41,-40 71,-40 52,0 78,31 78,94l0 140z"/>
  <path id="5" class="fil4" d="M11644 12707c11,-6 25,-10 42,-14 17,-3 32,-5 44,-5 64,0 96,32 96,96l0 138 -63 0 0 -33 -1 0c-16,26 -39,39 -69,39 -21,0 -39,-7 -52,-19 -13,-12 -19,-29 -19,-50 0,-44 26,-70 78,-77l63 -8c0,-27 -14,-40 -41,-40 -28,0 -53,8 -78,25l0 -52zm76 111c-24,4 -36,14 -36,33 0,9 3,15 8,21 6,5 14,8 24,8 14,0 25,-5 34,-15 9,-10 13,-22 13,-36l0 -16 -43 5z"/>
  <path id="6" class="fil4" d="M12103 12922l-67 0 0 -128c0,-37 -13,-55 -40,-55 -12,0 -23,5 -31,15 -9,10 -13,22 -13,37l0 131 -67 0 0 -229 67 0 0 37 1 0c17,-28 41,-42 73,-42 51,0 77,31 77,94l0 140z"/>
  <path id="7" class="fil4" d="M12296 12919c-10,6 -25,9 -46,9 -48,0 -72,-26 -72,-77l0 -108 -38 0 0 -50 38 0 0 -50 66 -19 0 69 52 0 0 50 -52 0 0 96c0,25 10,37 29,37 7,0 15,-2 23,-7l0 50z"/>
  <path class="fil1" d="M21829 5739c2901,0 5252,2352 5252,5252 0,2901 -2351,5253 -5252,5253 -2901,0 -5252,-2352 -5252,-5253 0,-2900 2351,-5252 5252,-5252zm0 1363c2148,0 3889,1742 3889,3889 0,2148 -1741,3889 -3889,3889 -2148,0 -3889,-1741 -3889,-3889 0,-2147 1741,-3889 3889,-3889z"/>
  <circle class="fil0 str0" cx="21841" cy="11000" r="3854"/>
  <circle class="fil2 str5" cx="21828" cy="7233" r="1311"/>
  <circle class="fil2 str6" cx="18434" cy="12742" r="1311"/>
  <circle class="fil2 str7" cx="25223" cy="12742" r="1311"/>
  <g>
   <path class="fil7" d="M23171 12983l-2994 0 0 -57 2994 0 0 57zm204 -29l-405 174 5 -11 5 -10 4 -11 5 -11 3 -11 4 -11 3 -11 3 -11 3 -10 2 -11 2 -11 1 -11 1 -11 1 -11 1 -11 0 -11 0 -10 -1 -11 -1 -11 -1 -11 -1 -11 -2 -11 -2 -11 -3 -10 -3 -11 -3 -11 -4 -11 -3 -11 -5 -11 -4 -11 -5 -10 -5 -11 0 0 405 173z"/>
  </g>
  <g>
   <path class="fil8" d="M18944 11135l53 -438 0 0 6 10 7 9 8 10 7 9 7 9 8 8 8 9 8 7 8 8 8 7 9 7 8 7 9 7 9 6 9 6 9 5 10 6 10 5 9 4 10 5 11 4 10 4 10 3 11 3 11 3 11 3 11 2 12 2 11 2 12 2 12 1 12 1 -354 264zm1624 -2755l-1497 2593 -50 -29 1497 -2593 50 29z"/>
  </g>
  <g>
   <path class="fil4" d="M23352 8556l50 -29 1497 2593 -50 29 -1497 -2593zm-77 -191l353 265 -12 0 -12 2 -11 1 -12 2 -11 2 -11 2 -11 3 -11 3 -11 3 -10 4 -11 3 -10 4 -10 5 -10 5 -9 5 -10 5 -9 5 -9 6 -9 6 -9 7 -9 7 -8 7 -9 7 -8 8 -8 8 -7 8 -8 8 -7 9 -8 9 -7 10 -7 9 -7 10 0 0 -52 -438z"/>
  </g>
  <circle class="fil0 str8" cx="21828" cy="10665" r="837"/>
  <path class="fil6" d="M21611 10838c-22,10 -50,16 -85,16 -46,0 -81,-14 -108,-41 -26,-27 -40,-63 -40,-108 0,-47 15,-86 45,-116 29,-30 68,-45 114,-45 30,0 54,3 74,11l0 62c-20,-12 -43,-18 -69,-18 -29,0 -53,9 -70,28 -18,19 -27,43 -27,73 0,30 9,53 25,71 17,18 40,27 68,27 27,0 51,-6 73,-19l0 59z"/>
  <path id="1" class="fil6" d="M21948 10848l-70 0 -22 -68 -109 0 -22 68 -70 0 110 -299 75 0 108 299zm-107 -118l-35 -104c-2,-6 -3,-15 -4,-26l-2 0c-1,9 -2,18 -5,26l-34 104 80 0z"/>
  <path id="2" class="fil6" d="M22276 10848l-66 0 -126 -194c-7,-10 -12,-18 -15,-24l-1 0c1,10 2,26 2,48l0 170 -61 0 0 -299 70 0 122 188c8,13 13,21 15,24l1 0c-1,-7 -2,-21 -2,-41l0 -171 61 0 0 299z"/>
  <g>
   <path class="fil9" d="M20839 11335l-1006 550 -28 -50 1006 -551 28 51zm164 -124l-272 347 0 -12 -1 -11 -1 -12 -2 -12 -2 -11 -2 -11 -2 -11 -3 -11 -3 -11 -3 -11 -4 -10 -4 -10 -4 -11 -4 -9 -5 -10 -5 -10 -5 -9 -6 -10 -6 -9 -6 -9 -7 -8 -7 -9 -7 -9 -7 -8 -8 -8 -8 -8 -8 -8 -9 -7 -9 -8 -9 -7 -10 -7 -10 -7 0 0 439 -43z"/>
  </g>
  <g>
   <path class="fil4" d="M22892 11335l28 -51 1006 551 -28 50 -1006 -550zm-164 -124l439 43 -10 7 -10 7 -9 7 -9 8 -8 7 -9 8 -8 8 -8 8 -7 8 -7 9 -7 9 -7 8 -6 9 -6 9 -6 10 -5 9 -5 10 -5 10 -4 9 -4 11 -4 10 -4 10 -3 11 -3 11 -3 11 -2 11 -2 11 -2 11 -2 12 -1 12 -1 11 0 12 0 0 -272 -347z"/>
  </g>
  <g>
   <path class="fil5" d="M21866 9460l-58 2 -24 -743 58 -2 24 743zm-22 205l-187 -400 11 5 11 5 11 4 11 4 11 3 11 4 11 3 11 2 11 2 11 2 11 2 11 1 10 1 11 0 11 0 11 0 11 0 11 -1 11 -1 10 -2 11 -2 11 -2 11 -3 11 -2 10 -4 11 -3 11 -4 11 -4 10 -5 11 -5 11 -5 10 -6 0 0 -160 411z"/>
  </g>
  <path class="fil7" d="M20968 13316l0 65 -40 0 0 -187 64 0c47,0 70,20 70,59 0,19 -7,35 -21,46 -14,12 -32,17 -53,17l-20 0zm0 -91l0 60 17 0c23,0 35,-10 35,-30 0,-20 -12,-30 -35,-30l-17 0z"/>
  <path id="1" class="fil7" d="M21097 13256c6,-4 14,-6 25,-8 10,-3 18,-4 25,-4 38,0 56,19 56,56l0 81 -37 0 0 -19 0 0c-9,15 -23,22 -40,22 -13,0 -23,-3 -30,-11 -8,-7 -12,-17 -12,-29 0,-25 15,-40 46,-44l37 -5c0,-16 -9,-24 -25,-24 -16,0 -31,5 -45,15l0 -30zm44 65c-14,1 -21,8 -21,19 0,5 2,9 5,12 4,3 8,4 14,4 8,0 15,-3 20,-8 5,-6 8,-13 8,-21l0 -10 -26 4z"/>
  <path id="2" class="fil7" d="M21376 13248l-55 145c-13,34 -32,51 -57,51 -10,0 -18,-1 -24,-4l0 -31c6,3 11,5 18,5 10,0 18,-5 22,-16l7 -17 -54 -133 44 0 26 83c1,5 2,11 3,17l1 0c0,-4 2,-10 4,-17l27 -83 38 0z"/>
  <path id="3" class="fil7" d="M21506 13365l0 16 -39 0 0 -197 39 0 0 84 0 0c10,-16 25,-24 44,-24 17,0 30,6 39,18 10,12 15,28 15,49 0,22 -6,40 -17,53 -11,14 -25,20 -43,20 -17,0 -29,-6 -38,-19l0 0zm-1 -42c0,9 3,16 8,22 5,6 12,9 20,9 10,0 17,-3 23,-11 5,-8 8,-18 8,-32 0,-12 -3,-21 -8,-27 -5,-6 -12,-10 -21,-10 -9,0 -16,4 -21,10 -6,7 -9,15 -9,25l0 14z"/>
  <path id="4" class="fil7" d="M21771 13248l-55 145c-13,34 -32,51 -58,51 -10,0 -18,-1 -23,-4l0 -31c5,3 11,5 17,5 11,0 18,-5 23,-16l7 -17 -54 -133 43 0 26 83c2,5 3,11 4,17l0 0c1,-4 2,-10 4,-17l27 -83 39 0z"/>
  <path id="5" class="fil7" d="M21998 13374c-13,7 -31,10 -53,10 -28,0 -50,-8 -67,-25 -16,-17 -25,-39 -25,-67 0,-30 10,-54 28,-73 19,-18 42,-28 72,-28 18,0 33,2 45,7l0 39c-12,-8 -27,-11 -43,-11 -18,0 -32,5 -43,17 -11,12 -17,27 -17,46 0,18 5,33 16,44 10,11 24,17 42,17 17,0 32,-4 45,-12l0 36z"/>
  <path id="6" class="fil7" d="M22208 13381l-43 0 -14 -43 -68 0 -14 43 -43 0 68 -187 47 0 67 187zm-67 -74l-21 -64c-1,-4 -2,-10 -3,-17l-1 0c0,6 -1,11 -3,16l-21 65 49 0z"/>
  <path id="7" class="fil7" d="M22413 13381l-41 0 -79 -121c-4,-6 -7,-11 -9,-15l-1 0c1,6 1,16 1,30l0 106 -37 0 0 -187 43 0 76 118c5,7 8,12 9,15l1 0c-1,-5 -1,-14 -1,-26l0 -107 38 0 0 187z"/>
  <path class="fil8" d="M18889 10294l-21 38 -45 -9 -33 59 30 33 -22 37 -127 -152 23 -41 195 35zm-97 22l-67 -14c-4,-1 -9,-3 -15,-6l-1 1c5,3 9,7 12,11l46 51 25 -43z"/>
  <path id="1" class="fil8" d="M18936 10203c0,11 -4,23 -12,38 -11,18 -24,29 -41,34 -17,4 -34,2 -51,-8 -20,-11 -32,-26 -36,-44 -5,-19 -2,-37 10,-57 7,-13 15,-22 22,-26l29 17c-10,4 -18,11 -23,20 -6,10 -8,20 -5,30 3,10 9,18 20,25 11,6 21,8 30,5 10,-2 18,-9 23,-19 6,-9 8,-19 7,-31l27 16z"/>
  <path id="2" class="fil8" d="M19064 10115l-20 34 -69 -40 -1 0c9,16 8,31 -1,47 -9,15 -20,23 -36,26 -15,3 -32,0 -50,-11 -19,-11 -32,-25 -38,-41 -5,-17 -4,-32 5,-48 8,-14 20,-22 35,-22l0 -1 -13 -8 19 -33 169 97zm-138 -35c-7,-4 -15,-6 -23,-4 -8,1 -14,6 -18,13 -5,8 -5,16 -2,25 4,8 11,16 23,22 10,6 20,9 28,7 9,-1 15,-5 19,-13 5,-8 5,-16 2,-24 -3,-8 -9,-15 -18,-20l-11 -6z"/>
  <path id="3" class="fil8" d="M19082 9960l-19 34 -18 -10 0 0c8,17 8,32 0,47 -16,27 -40,31 -72,13l-70 -41 20 -33 66 38c18,10 30,8 38,-5 4,-7 5,-14 2,-21 -2,-6 -8,-12 -16,-17l-66 -38 20 -33 115 66z"/>
  <path id="4" class="fil8" d="M18937 9859c-5,-3 -8,-7 -10,-13 -1,-5 0,-11 4,-17 3,-5 8,-9 13,-11 5,-2 11,-1 16,2 5,3 8,7 9,13 1,5 0,11 -3,17 -3,5 -8,9 -13,11 -6,2 -11,1 -16,-2zm154 86l-115 -67 19 -34 116 67 -20 34z"/>
  <path id="5" class="fil8" d="M19087 9881c14,-8 24,-17 30,-28 8,-14 8,-23 1,-28 -5,-3 -13,1 -23,10 -13,12 -24,19 -32,21 -9,2 -18,1 -27,-5 -11,-6 -18,-16 -19,-29 -1,-13 3,-27 11,-42 6,-10 14,-20 23,-28l26 16c-10,6 -19,14 -25,25 -3,5 -4,10 -4,14 0,5 1,8 4,10 6,3 13,0 22,-8 9,-8 17,-14 23,-18 6,-3 12,-5 18,-5 6,0 12,2 18,5 12,7 19,17 20,30 1,14 -3,28 -12,44 -8,13 -16,23 -26,32l-28 -16z"/>
  <path id="6" class="fil8" d="M19018 9719c-6,-3 -9,-7 -10,-12 -1,-6 0,-12 3,-17 4,-6 8,-10 14,-12 5,-1 10,-1 15,2 5,3 8,7 10,13 1,6 0,11 -3,17 -4,6 -8,9 -14,11 -5,2 -10,1 -15,-2zm154 86l-116 -67 20 -33 115 66 -19 34z"/>
  <path id="7" class="fil8" d="M19238 9687c0,7 -3,15 -9,25 -14,25 -34,30 -60,15l-54 -32 -11 19 -25 -14 11 -19 -26 -15 10 -39 35 20 15 -26 25 15 -15 26 49 28c12,7 21,6 27,-4 2,-4 3,-8 3,-14l25 15z"/>
  <path id="8" class="fil8" d="M19088 9597c-5,-3 -8,-8 -9,-13 -1,-6 0,-11 3,-17 4,-6 8,-10 13,-11 6,-2 11,-2 16,1 5,3 8,8 10,13 1,6 0,12 -3,17 -4,6 -8,10 -14,11 -5,2 -10,1 -16,-1zm155 85l-116 -66 20 -34 115 67 -19 33z"/>
  <path id="9" class="fil8" d="M19210 9607c-19,-11 -31,-25 -35,-43 -4,-18 -1,-36 10,-55 11,-19 25,-31 42,-35 17,-5 34,-2 52,8 19,11 31,25 36,43 5,18 1,36 -10,55 -10,19 -24,31 -42,36 -17,4 -35,1 -53,-9zm19 -35c23,14 40,11 51,-8 10,-18 4,-34 -20,-47 -22,-13 -39,-11 -49,7 -5,9 -6,18 -3,26 3,9 10,16 21,22z"/>
  <path id="10" class="fil8" d="M19407 9397l-19 34 -65 -37c-18,-11 -31,-10 -39,3 -4,7 -4,14 -2,21 3,7 8,13 16,17l65 38 -19 34 -116 -67 20 -33 18 10 1 0c-10,-17 -10,-33 0,-50 15,-25 38,-29 70,-11l70 41z"/>
  <path id="11" class="fil8" d="M19550 9151l-20 33 -66 -38c-17,-10 -30,-9 -37,4 -4,6 -4,13 -1,20 3,7 8,13 16,17l65 38 -19 33 -67 -38c-17,-10 -30,-9 -37,4 -4,6 -4,13 -1,20 3,6 9,12 17,17l64 37 -19 34 -116 -67 20 -34 18 11 0 0c-4,-8 -6,-17 -6,-25 0,-9 3,-17 7,-25 9,-16 23,-23 41,-20 -10,-18 -9,-35 0,-52 15,-25 38,-29 69,-11l72 42z"/>
  <path id="12" class="fil8" d="M19569 9006l-44 76c18,9 34,4 45,-17 8,-13 11,-26 10,-39l25 14c0,14 -5,30 -15,47 -10,18 -24,29 -40,34 -16,4 -34,1 -52,-10 -19,-11 -31,-25 -36,-42 -5,-18 -3,-35 7,-51 9,-17 21,-26 37,-30 15,-3 31,0 48,10l15 8zm-39 19c-18,-10 -30,-8 -38,6 -4,6 -4,13 -2,20 2,7 7,13 14,19l26 -45z"/>
  <path id="13" class="fil8" d="M19659 8958c0,6 -3,15 -9,25 -14,25 -34,30 -60,15l-54 -32 -11 19 -25 -14 11 -19 -26 -15 10 -39 35 20 15 -26 25 14 -15 27 49 28c12,7 21,6 27,-4 2,-4 3,-8 3,-14l25 15z"/>
  <path id="14" class="fil8" d="M19727 8843l-19 34 -66 -38c-18,-10 -31,-9 -38,4 -4,7 -4,13 -2,20 3,7 8,13 16,18l66 38 -20 33 -171 -98 20 -34 72 42 1 0c-9,-17 -9,-33 0,-48 15,-26 39,-30 70,-12l71 41z"/>
  <path id="15" class="fil8" d="M19674 8803c-19,-11 -30,-25 -35,-43 -4,-18 -1,-36 10,-55 11,-19 25,-31 42,-35 17,-5 34,-2 53,8 18,11 30,25 35,43 5,18 2,36 -9,55 -11,19 -25,31 -42,36 -18,4 -35,1 -54,-9zm19 -35c23,14 40,11 51,-8 11,-18 4,-34 -20,-47 -22,-13 -39,-11 -49,7 -5,9 -6,18 -3,26 3,9 10,16 21,22z"/>
  <path id="16" class="fil8" d="M19872 8592l-19 33 -16 -9 -1 0c8,16 8,32 -1,47 -9,15 -21,24 -36,26 -15,3 -32,-1 -50,-11 -19,-11 -31,-25 -37,-41 -6,-16 -5,-32 4,-48 9,-15 20,-23 35,-22l0 -1 -69 -40 19 -33 171 99zm-84 -5c-8,-5 -16,-6 -24,-4 -7,1 -13,6 -17,13 -5,8 -6,16 -2,25 4,8 12,16 23,22 10,6 20,9 28,8 8,-2 15,-6 19,-14 5,-8 5,-15 2,-24 -3,-8 -10,-15 -19,-21l-10 -5z"/>
  <path id="17" class="fil8" d="M19849 8560c14,-7 24,-16 30,-27 8,-14 8,-23 1,-28 -5,-3 -13,0 -23,10 -13,12 -24,19 -32,21 -9,2 -18,0 -27,-5 -11,-6 -18,-16 -19,-29 -1,-13 3,-27 12,-42 6,-10 13,-20 22,-28l26 16c-10,6 -18,14 -25,25 -3,5 -4,10 -4,14 0,5 1,8 4,10 6,3 13,0 22,-8 9,-8 17,-14 23,-18 6,-3 12,-5 18,-5 6,0 13,1 19,5 12,7 18,17 19,30 1,14 -3,28 -12,44 -7,13 -16,23 -26,32l-28 -17z"/>
  <path id="18" class="fil8" d="M19215 9960c-5,4 -8,7 -10,12 -7,11 -4,21 9,28l13 7 15 -26 25 15 -15 26 90 52 -19 34 -90 -52 -12 19 -25 -15 11 -19 -14 -8c-14,-8 -22,-18 -25,-31 -3,-14 0,-27 8,-41 4,-7 8,-13 12,-16l27 15z"/>
  <path id="19" class="fil8" d="M19298 10019c-19,-11 -31,-26 -35,-43 -4,-18 -1,-36 10,-56 11,-18 25,-30 42,-35 17,-4 34,-1 52,9 19,11 31,25 36,43 5,18 1,36 -10,55 -10,19 -24,31 -42,36 -17,4 -34,1 -53,-9zm19 -35c23,14 40,11 51,-8 11,-18 4,-34 -20,-47 -22,-13 -39,-11 -49,7 -5,9 -6,18 -3,26 3,9 10,16 21,22z"/>
  <path id="20" class="fil8" d="M19390 9796c-5,3 -9,7 -13,13 -4,8 -5,16 -1,23 3,8 10,15 20,21l55 32 -19 34 -116 -67 20 -34 22 13 0 0c-13,-15 -15,-30 -6,-45 2,-3 4,-6 6,-8l32 18z"/>
  <path id="21" class="fil8" d="M19351 9707c-5,-3 -8,-8 -10,-13 -1,-6 0,-11 4,-17 3,-6 7,-10 13,-11 5,-2 10,-1 15,1 5,3 9,8 10,13 1,6 0,12 -3,17 -3,6 -8,10 -13,11 -6,2 -11,1 -16,-1zm154 85l-115 -66 19 -34 115 67 -19 33z"/>
  <path id="22" class="fil8" d="M19597 9633l-20 34 -64 -37c-19,-11 -32,-10 -40,4 -3,6 -4,13 -1,20 2,7 7,13 15,17l66 38 -20 34 -115 -67 19 -33 19 10 0 0c-9,-17 -9,-33 0,-50 15,-25 38,-29 70,-11l71 41z"/>
  <path id="23" class="fil8" d="M19669 9508l-19 33 -16 -9 -1 0c8,16 8,32 -1,47 -9,15 -21,24 -36,27 -16,2 -32,-2 -50,-12 -19,-11 -31,-25 -37,-41 -6,-16 -5,-32 4,-48 9,-15 20,-23 35,-22l0 -1 -69 -40 19 -33 171 99zm-84 -5c-8,-5 -16,-6 -24,-4 -7,2 -13,6 -17,13 -5,8 -6,17 -2,25 4,8 11,16 23,22 10,6 20,9 28,8 8,-2 15,-6 19,-14 5,-8 5,-15 2,-24 -3,-8 -10,-15 -19,-21l-10 -5z"/>
  <path id="24" class="fil8" d="M19524 9406c-5,-3 -8,-7 -9,-13 -1,-5 0,-11 3,-16 3,-6 8,-10 13,-12 6,-1 11,-1 16,2 5,3 8,7 9,13 2,6 1,11 -3,17 -3,6 -7,9 -13,11 -5,2 -11,1 -16,-2zm154 86l-115 -67 19 -33 116 66 -20 34z"/>
  <path id="25" class="fil8" d="M19664 9320c-4,3 -8,7 -12,13 -4,8 -5,15 -1,23 3,8 10,15 20,21l55 32 -19 34 -116 -67 20 -34 22 13 0 -1c-13,-14 -15,-29 -6,-44 2,-4 4,-6 6,-8l31 18z"/>
  <path id="26" class="fil8" d="M19761 9237l-44 76c19,9 34,4 46,-17 7,-12 11,-25 10,-39l25 14c0,14 -6,30 -15,47 -11,18 -24,30 -41,34 -16,4 -33,1 -52,-10 -18,-11 -30,-25 -35,-42 -6,-18 -4,-35 6,-51 9,-16 22,-26 37,-30 15,-3 32,0 49,10l14 8zm-39 19c-17,-10 -30,-8 -38,6 -3,6 -4,13 -2,20 2,7 7,13 14,19l26 -45z"/>
  <path id="27" class="fil8" d="M19859 9169c0,10 -4,23 -12,38 -11,18 -24,29 -41,34 -17,4 -34,2 -51,-8 -20,-12 -32,-26 -37,-45 -4,-18 -1,-37 11,-56 7,-13 15,-22 22,-26l29 16c-10,5 -18,12 -23,21 -6,10 -8,20 -5,30 3,10 9,18 20,24 11,6 21,8 30,6 10,-3 18,-9 23,-19 6,-9 8,-19 7,-31l27 16z"/>
  <path id="28" class="fil8" d="M19907 9093c0,7 -3,15 -9,25 -14,25 -34,30 -60,15l-55 -32 -11 19 -25 -14 11 -19 -25 -15 10 -39 35 20 15 -26 25 15 -15 26 48 28c13,7 22,6 27,-4 3,-4 4,-8 4,-14l25 15z"/>
  <path class="fil4" d="M23855 8354l161 -93 33 56c33,57 23,101 -29,131 -25,15 -50,18 -75,11 -24,-7 -44,-24 -58,-49l-32 -56zm153 -43l-105 61 11 19c9,16 21,26 36,30 16,4 31,1 48,-9 16,-9 26,-21 29,-36 4,-15 1,-30 -8,-46l-11 -19z"/>
  <path id="1" class="fil4" d="M24101 8429c5,-3 11,-4 16,-2 5,2 10,5 13,11 3,6 5,12 3,17 -1,6 -4,10 -9,13 -5,3 -10,3 -16,1 -5,-1 -10,-5 -13,-11 -3,-5 -4,-11 -3,-17 1,-5 4,-10 9,-12zm-151 90l115 -66 20 33 -116 67 -19 -34z"/>
  <path id="2" class="fil4" d="M24016 8562c0,16 3,29 9,40 8,14 16,19 23,14 6,-3 7,-11 4,-25 -4,-16 -5,-29 -3,-38 3,-8 9,-15 18,-21 11,-6 23,-7 35,-1 11,5 21,15 30,30 6,11 11,22 13,34l-26 15c0,-12 -3,-23 -10,-34 -3,-6 -6,-9 -10,-11 -4,-3 -7,-3 -10,-1 -6,3 -7,10 -5,22 3,12 4,22 4,29 0,7 -1,13 -4,19 -3,5 -8,9 -14,13 -12,7 -24,7 -36,2 -12,-6 -23,-17 -32,-33 -7,-12 -12,-25 -14,-38l28 -16z"/>
  <path id="3" class="fil4" d="M24088 8755c-6,-3 -11,-10 -17,-20 -14,-25 -9,-44 17,-59l55 -32 -11 -19 25 -14 11 19 25 -15 29 28 -35 20 15 27 -25 14 -15 -26 -49 28c-12,7 -15,15 -10,25 2,4 6,7 10,10l-25 14z"/>
  <path id="4" class="fil4" d="M24226 8801c0,-5 -2,-11 -5,-17 -5,-8 -11,-12 -19,-13 -9,-1 -18,1 -28,7l-56 32 -19 -33 115 -67 20 34 -22 12 0 1c19,-4 33,2 41,16 3,4 4,7 4,10l-31 18z"/>
  <path id="5" class="fil4" d="M24302 8776c5,-3 11,-3 16,-1 5,1 10,5 13,11 3,6 4,11 3,17 -1,6 -4,10 -9,13 -5,3 -11,3 -16,1 -6,-1 -10,-5 -13,-11 -4,-5 -5,-11 -3,-17 1,-5 4,-10 9,-13zm-151 91l115 -67 20 34 -116 67 -19 -34z"/>
  <path id="6" class="fil4" d="M24221 8956l-14 8 -19 -33 171 -99 19 34 -73 42 0 0c19,1 33,10 42,26 9,15 10,29 5,43 -5,14 -17,27 -35,37 -19,11 -37,15 -54,13 -18,-3 -31,-12 -40,-28 -8,-14 -9,-28 -2,-42l0 -1zm36 -21c-8,5 -13,10 -16,18 -2,7 -1,15 3,22 5,8 12,13 21,14 9,1 20,-2 32,-9 10,-6 16,-13 19,-20 3,-8 3,-15 -2,-23 -4,-8 -11,-13 -19,-14 -9,-2 -17,0 -26,5l-12 7z"/>
  <path id="7" class="fil4" d="M24332 9181l-19 -34 17 -10 0 0c-19,-1 -32,-9 -41,-24 -15,-27 -7,-50 26,-68l69 -40 20 33 -67 39c-17,10 -22,21 -14,35 4,7 9,11 16,12 7,1 15,0 23,-5l66 -38 20 33 -116 67z"/>
  <path id="8" class="fil4" d="M24390 9279c-6,-4 -11,-11 -17,-21 -14,-25 -9,-44 17,-59l55 -32 -11 -19 25 -14 11 19 25 -15 29 28 -35 20 15 27 -25 14 -15 -26 -49 28c-12,7 -15,15 -10,25 2,4 6,7 10,10l-25 15z"/>
  <path id="9" class="fil4" d="M24552 9208c5,-3 10,-3 15,-1 6,1 10,5 13,11 4,6 5,11 4,17 -2,5 -5,10 -10,13 -5,3 -10,3 -16,1 -5,-1 -10,-5 -13,-11 -3,-5 -4,-11 -3,-17 1,-5 5,-10 10,-13zm-152 91l116 -67 19 34 -115 67 -20 -34z"/>
  <path id="10" class="fil4" d="M24490 9323c19,-11 37,-14 55,-9 17,5 32,17 43,36 10,19 14,37 9,54 -4,17 -15,31 -33,41 -19,11 -38,14 -55,10 -18,-5 -32,-17 -43,-36 -11,-19 -14,-37 -10,-54 4,-18 16,-32 34,-42zm20 34c-23,13 -29,29 -18,48 10,18 28,20 51,6 23,-13 29,-28 18,-46 -5,-9 -12,-14 -21,-16 -9,-1 -19,1 -30,8z"/>
  <path id="11" class="fil4" d="M24581 9613l-19 -34 64 -37c19,-11 25,-23 17,-36 -4,-7 -9,-11 -17,-12 -7,-1 -15,0 -23,5l-66 38 -19 -34 115 -67 20 34 -18 11 0 0c19,0 33,9 42,25 15,26 7,48 -25,66l-71 41z"/>
  <path id="12" class="fil4" d="M24755 9717c0,-5 -2,-11 -5,-17 -5,-8 -11,-12 -20,-13 -8,-1 -17,1 -28,7l-55 32 -20 -34 116 -66 19 33 -21 13 0 0c19,-3 33,2 41,17 2,4 4,7 4,10l-31 18z"/>
  <path id="13" class="fil4" d="M24786 9856l-44 -76c-17,12 -19,28 -8,48 8,13 17,22 29,29l-25 14c-12,-7 -22,-19 -32,-36 -11,-19 -14,-36 -9,-52 4,-16 15,-30 34,-40 18,-11 37,-14 54,-10 18,4 32,14 41,31 10,16 12,32 8,47 -5,15 -16,27 -33,37l-15 8zm3 -43c18,-10 22,-22 14,-36 -3,-6 -9,-10 -16,-11 -7,-2 -15,-1 -23,2l25 45z"/>
  <path id="14" class="fil4" d="M24780 9885c0,16 3,29 9,40 8,14 16,19 23,15 5,-4 7,-12 4,-25 -4,-17 -5,-30 -3,-38 3,-9 9,-16 18,-21 11,-7 23,-7 35,-2 11,6 21,16 30,31 6,10 10,21 13,33l-27 15c1,-12 -2,-23 -9,-34 -3,-5 -6,-9 -10,-11 -4,-2 -7,-3 -10,-1 -6,3 -7,11 -5,22 3,13 4,22 4,29 0,7 -1,13 -4,19 -3,5 -8,10 -14,13 -12,7 -24,8 -36,2 -12,-6 -23,-17 -32,-33 -7,-12 -12,-25 -14,-38l28 -16z"/>
  <path id="15" class="fil4" d="M24865 9971c19,-11 37,-13 54,-8 18,5 32,17 43,36 11,19 14,37 10,54 -5,17 -16,31 -34,41 -19,11 -37,14 -55,9 -17,-4 -32,-16 -43,-36 -11,-18 -14,-36 -10,-54 5,-17 16,-31 35,-42zm20 34c-23,14 -29,30 -18,49 10,18 27,20 51,6 22,-13 28,-29 18,-47 -5,-9 -12,-14 -21,-15 -9,-1 -19,1 -30,7z"/>
  <path id="16" class="fil4" d="M24955 10260l-19 -34 17 -10 0 -1c-19,0 -32,-8 -41,-23 -16,-27 -7,-50 25,-68l70 -41 19 34 -66 38c-17,10 -22,22 -14,36 4,6 9,10 16,12 7,1 15,-1 23,-5l66 -38 19 33 -115 67z"/>
  <path id="17" class="fil4" d="M25100 10315c0,-6 -2,-11 -5,-17 -5,-8 -11,-12 -20,-13 -8,-2 -17,1 -28,7l-55 32 -20 -34 116 -67 19 34 -21 13 0 0c19,-3 33,2 41,17 2,4 4,7 4,10l-31 18z"/>
  <path id="18" class="fil4" d="M25078 10464c-9,-6 -18,-16 -27,-31 -10,-17 -13,-35 -8,-52 4,-17 15,-30 32,-40 20,-11 38,-14 57,-9 18,5 32,17 44,37 7,13 11,24 11,32l-29 17c1,-11 -1,-21 -6,-30 -6,-11 -14,-17 -24,-20 -10,-2 -20,-1 -31,6 -11,6 -17,14 -20,23 -3,9 -1,19 5,29 5,9 13,17 24,22l-28 16z"/>
  <path id="19" class="fil4" d="M25195 10564l-44 -76c-17,12 -20,28 -8,48 7,13 17,22 29,29l-25 14c-12,-7 -23,-19 -33,-36 -10,-19 -13,-36 -9,-52 5,-16 16,-30 35,-40 18,-11 36,-14 54,-10 18,4 32,14 41,31 9,16 12,32 7,47 -4,15 -15,27 -33,37l-14 8zm3 -43c17,-10 22,-22 14,-36 -3,-6 -9,-10 -16,-11 -7,-2 -15,-1 -24,2l26 45z"/>
  <path id="20" class="fil4" d="M25189 10593c-1,16 2,29 9,40 8,14 16,19 23,15 5,-3 6,-12 3,-25 -4,-17 -4,-30 -2,-38 2,-9 8,-16 18,-21 11,-7 23,-7 34,-2 12,6 22,16 31,31 6,10 10,21 13,33l-27 15c0,-12 -3,-23 -9,-34 -3,-5 -6,-9 -10,-11 -4,-2 -8,-3 -11,-1 -5,3 -6,11 -4,22 2,13 4,22 4,29 0,7 -1,13 -4,19 -3,5 -8,10 -14,13 -12,7 -24,8 -36,2 -12,-6 -23,-17 -32,-33 -7,-12 -12,-25 -14,-38l28 -16z"/>
  <path id="21" class="fil4" d="M24054 9319l-14 8 -20 -34 171 -99 20 34 -73 42 0 1c19,1 33,9 42,26 9,14 10,29 5,43 -6,14 -17,26 -35,36 -19,12 -37,16 -55,13 -17,-3 -30,-12 -39,-28 -8,-14 -9,-28 -2,-42l0 0zm36 -21c-8,4 -13,10 -16,17 -2,8 -1,15 3,22 4,8 11,13 21,14 9,1 20,-2 32,-9 10,-6 16,-12 19,-20 3,-7 3,-15 -2,-23 -4,-8 -11,-12 -19,-14 -9,-1 -17,0 -26,5l-12 8z"/>
  <path id="22" class="fil4" d="M24280 9477l-153 25c-36,5 -60,-3 -72,-25 -5,-8 -8,-16 -9,-22l27 -15c0,6 1,12 4,17 6,9 14,13 25,12l19 -3 88 -113 22 37 -60 65c-3,4 -8,8 -13,11l1 1c4,-2 9,-3 16,-5l86 -19 19 34z"/>
  <path id="23" class="fil4" d="M24277 9724c-12,-8 -24,-22 -35,-41 -14,-24 -18,-48 -12,-70 7,-23 22,-42 46,-56 26,-14 51,-18 77,-12 25,7 45,23 60,48 9,16 15,30 17,43l-34 19c0,-14 -4,-28 -12,-42 -9,-16 -21,-26 -37,-29 -15,-4 -31,-1 -47,8 -16,9 -26,21 -31,36 -4,14 -2,29 7,45 8,14 19,25 33,33l-32 18z"/>
  <path id="24" class="fil4" d="M24288 9756l161 -93 33 55c33,58 23,102 -29,132 -25,15 -50,18 -75,11 -24,-8 -44,-24 -58,-49l-32 -56zm153 -43l-105 61 11 19c9,16 21,26 37,30 15,4 31,1 47,-9 16,-9 26,-21 29,-36 4,-15 1,-30 -8,-46l-11 -19z"/>
  <path id="25" class="fil4" d="M24468 10069l-20 -35 65 -129c3,-7 6,-12 9,-16l-1 0c-5,4 -13,9 -25,16l-92 53 -19 -33 162 -93 22 37 -64 125c-4,8 -7,13 -8,15l0 1c4,-3 11,-8 22,-14l92 -53 19 32 -162 94z"/>
  <path class="fil7" d="M17880 12617c-23,11 -54,17 -91,17 -48,0 -87,-15 -115,-44 -28,-28 -43,-67 -43,-115 0,-51 16,-92 48,-124 32,-32 72,-48 122,-48 32,0 58,4 79,12l0 66c-22,-13 -46,-19 -74,-19 -31,0 -56,10 -75,30 -18,20 -28,46 -28,78 0,31 9,57 27,76 18,19 42,29 72,29 29,0 55,-7 78,-21l0 63z"/>
  <path id="1" class="fil7" d="M17898 12515c0,-38 11,-67 34,-89 22,-21 53,-32 91,-32 36,0 66,11 87,32 22,21 33,49 33,85 0,37 -11,67 -34,89 -22,23 -52,34 -90,34 -37,0 -66,-11 -88,-32 -22,-21 -33,-50 -33,-87zm67 -1c0,46 19,69 56,69 36,0 54,-24 54,-71 0,-44 -18,-67 -54,-67 -18,0 -31,6 -41,18 -10,12 -15,29 -15,51z"/>
  <path id="2" class="fil7" d="M18389 12628l-67 0 0 -127c0,-37 -13,-56 -40,-56 -12,0 -23,5 -31,15 -9,10 -13,22 -13,38l0 130 -67 0 0 -228 67 0 0 36 1 0c17,-28 41,-42 74,-42 50,0 76,31 76,94l0 140z"/>
  <path id="3" class="fil7" d="M18562 12625c-10,6 -25,9 -46,9 -48,0 -73,-26 -73,-77l0 -108 -37 0 0 -49 37 0 0 -51 67 -19 0 70 52 0 0 49 -52 0 0 97c0,24 9,36 29,36 7,0 15,-2 23,-6l0 49z"/>
  <path id="4" class="fil7" d="M18785 12533l-150 0c2,35 24,53 64,53 25,0 47,-6 67,-19l0 49c-21,12 -48,18 -82,18 -36,0 -65,-10 -85,-31 -20,-21 -30,-49 -30,-86 0,-36 11,-66 32,-89 21,-23 49,-34 81,-34 32,0 58,10 76,29 18,20 27,47 27,81l0 29zm-62 -42c0,-34 -14,-51 -41,-51 -12,0 -22,4 -31,14 -9,9 -14,21 -16,37l88 0z"/>
  <path id="5" class="fil7" d="M19028 12628l-67 0 0 -127c0,-37 -13,-56 -40,-56 -12,0 -23,5 -31,15 -9,10 -13,22 -13,38l0 130 -67 0 0 -228 67 0 0 36 1 0c17,-28 41,-42 74,-42 50,0 76,31 76,94l0 140z"/>
  <path id="6" class="fil7" d="M19201 12625c-10,6 -25,9 -46,9 -48,0 -73,-26 -73,-77l0 -108 -37 0 0 -49 37 0 0 -51 67 -19 0 70 52 0 0 49 -52 0 0 97c0,24 9,36 29,36 7,0 15,-2 23,-6l0 49z"/>
  <path id="7" class="fil7" d="M17677 13075l0 112 -68 0 0 -320 110 0c80,0 120,33 120,101 0,33 -12,59 -36,79 -25,20 -55,29 -91,28l-35 0zm0 -155l0 103 30 0c40,0 60,-17 60,-52 0,-34 -20,-51 -60,-51l-30 0z"/>
  <path id="8" class="fil7" d="M18008 13019c-8,-5 -18,-7 -30,-7 -15,0 -27,6 -36,17 -9,12 -13,28 -13,48l0 110 -67 0 0 -229 67 0 0 43 1 0c11,-31 31,-47 60,-47 8,0 14,1 18,3l0 62z"/>
  <path id="9" class="fil7" d="M18008 13074c0,-38 11,-68 33,-89 23,-22 53,-32 91,-32 37,0 66,10 88,31 21,22 32,50 32,86 0,37 -11,67 -33,89 -22,22 -52,33 -90,33 -37,0 -67,-10 -89,-32 -22,-21 -32,-50 -32,-86zm67 -1c0,45 19,68 56,68 36,0 53,-23 53,-70 0,-45 -18,-67 -54,-67 -17,0 -31,6 -40,18 -10,12 -15,29 -15,51z"/>
  <path id="10" class="fil7" d="M18495 12958l-86 229 -76 0 -81 -229 71 0 42 144c5,16 7,29 8,40l1 0c1,-11 4,-24 8,-39l43 -145 70 0z"/>
  <path id="11" class="fil7" d="M18501 12884c0,-10 4,-18 11,-24 7,-7 16,-10 28,-10 11,0 21,3 28,10 7,6 10,15 10,24 0,11 -3,19 -10,26 -8,6 -17,10 -28,10 -12,0 -21,-4 -28,-11 -7,-6 -11,-15 -11,-25zm5 303l0 -229 66 0 0 229 -66 0z"/>
  <path id="12" class="fil7" d="M18834 13187l-66 0 0 -32 -1 0c-16,25 -40,37 -72,37 -29,0 -52,-10 -69,-30 -17,-21 -26,-49 -26,-84 0,-38 10,-68 29,-91 19,-23 44,-34 75,-34 30,0 51,10 63,32l1 0 0 -136 66 0 0 338zm-65 -130c0,-15 -5,-28 -14,-38 -9,-10 -21,-15 -35,-15 -16,0 -29,6 -38,19 -10,13 -14,31 -14,53 0,21 4,37 13,48 9,12 22,17 37,17 15,0 27,-6 37,-18 9,-12 14,-27 14,-47l0 -19z"/>
  <path id="13" class="fil7" d="M19080 13091l-151 0c3,36 24,53 64,53 25,0 48,-6 67,-18l0 49c-21,12 -48,17 -82,17 -36,0 -64,-10 -85,-30 -20,-21 -30,-49 -30,-86 0,-37 11,-66 32,-89 22,-23 49,-34 81,-34 33,0 58,10 76,29 19,20 28,47 28,81l0 28zm-62 -41c0,-35 -14,-52 -42,-52 -11,0 -22,5 -30,14 -9,10 -15,22 -17,38l89 0z"/>
  <path id="14" class="fil7" d="M19250 13019c-8,-5 -18,-7 -29,-7 -15,0 -27,6 -36,17 -9,12 -14,28 -14,48l0 110 -66 0 0 -229 66 0 0 43 1 0c11,-31 31,-47 60,-47 8,0 14,1 18,3l0 62z"/>
  <path class="fil10" d="M24783 12979l-99 0 -192 -293c-10,-16 -17,-28 -22,-37l-1 0c2,15 3,40 3,72l0 258 -92 0 0 -453 105 0 185 285c13,19 20,31 23,36l1 0c-2,-11 -3,-32 -3,-63l0 -258 92 0 0 453z"/>
  <path id="1" class="fil10" d="M24895 12819c0,-54 16,-96 48,-126 32,-30 75,-46 129,-46 52,0 93,15 124,45 31,30 46,70 46,121 0,53 -16,95 -47,127 -32,31 -74,47 -128,47 -52,0 -94,-15 -125,-45 -31,-30 -47,-72 -47,-123zm96 -2c0,65 26,97 79,97 51,0 76,-33 76,-99 0,-63 -26,-95 -76,-95 -25,0 -44,8 -58,25 -14,17 -21,41 -21,72z"/>
  <path id="2" class="fil10" d="M25657 12979l-95 0 0 -46 -1 0c-23,36 -57,54 -101,54 -41,0 -74,-15 -98,-44 -25,-29 -37,-68 -37,-119 0,-53 14,-95 41,-128 27,-32 63,-49 107,-49 42,0 71,16 88,46l1 0 0 -193 95 0 0 479zm-93 -183c0,-22 -7,-40 -20,-55 -13,-14 -29,-21 -49,-21 -23,0 -41,9 -54,27 -14,19 -20,43 -20,75 0,29 6,52 19,68 13,16 30,24 52,24 21,0 38,-8 52,-25 13,-17 20,-39 20,-66l0 -27z"/>
  <path id="3" class="fil10" d="M26066 12844l-213 0c3,50 33,75 91,75 35,0 67,-9 94,-26l0 69c-29,17 -68,25 -116,25 -51,0 -91,-15 -120,-44 -29,-29 -43,-69 -43,-121 0,-52 15,-94 46,-126 30,-33 69,-49 115,-49 45,0 81,14 107,42 26,28 39,66 39,115l0 40zm-88 -59c0,-49 -20,-73 -59,-73 -16,0 -31,7 -43,20 -13,13 -20,31 -23,53l125 0z"/>
  <path class="fil7" d="M20704 12725l-53 0 -34 -56c-7,-12 -13,-19 -17,-23 -5,-3 -9,-5 -14,-5l-14 0 0 84 -46 0 0 -216 75 0c52,0 77,20 77,59 0,14 -4,27 -12,37 -9,11 -21,18 -36,23l0 0c10,3 21,14 33,33l41 64zm-132 -181l0 62 22 0c11,0 20,-3 26,-9 7,-6 10,-14 10,-24 0,-19 -11,-29 -35,-29l-23 0z"/>
  <path id="1" class="fil7" d="M20827 12661l-101 0c2,23 16,35 43,35 17,0 32,-4 45,-12l0 33c-14,8 -32,12 -55,12 -24,0 -43,-7 -57,-21 -14,-14 -20,-33 -20,-58 0,-24 7,-44 21,-60 15,-15 33,-23 55,-23 22,0 39,7 51,20 12,13 18,31 18,54l0 20zm-41 -29c0,-23 -10,-34 -28,-34 -8,0 -15,3 -21,9 -6,7 -10,15 -11,25l60 0z"/>
  <path id="2" class="fil7" d="M20831 12684c15,9 30,14 45,14 19,0 28,-5 28,-15 0,-7 -8,-13 -23,-18 -19,-6 -32,-13 -40,-20 -7,-7 -10,-17 -10,-29 0,-15 6,-27 18,-36 12,-8 28,-13 48,-13 14,0 28,2 41,6l0 36c-12,-7 -25,-11 -40,-11 -7,0 -12,2 -17,4 -4,3 -6,6 -6,10 0,7 6,13 19,17 14,5 25,9 32,13 7,4 12,9 16,15 3,6 5,13 5,21 0,16 -6,29 -19,37 -13,9 -30,14 -51,14 -17,0 -32,-3 -46,-8l0 -37z"/>
  <path id="3" class="fil7" d="M20944 12649c0,-26 8,-46 23,-60 15,-15 36,-22 61,-22 25,0 45,7 59,22 15,14 22,33 22,57 0,25 -7,45 -22,60 -15,15 -35,23 -61,23 -25,0 -45,-8 -60,-22 -14,-14 -22,-34 -22,-58zm46 -1c0,31 12,46 37,46 24,0 36,-16 36,-47 0,-30 -12,-45 -36,-45 -12,0 -21,4 -27,12 -7,8 -10,19 -10,34z"/>
  <path id="4" class="fil7" d="M21263 12725l-45 0 0 -24 -1 0c-11,18 -27,28 -47,28 -35,0 -53,-22 -53,-65l0 -93 45 0 0 89c0,23 9,34 27,34 9,0 16,-3 21,-9 6,-7 8,-15 8,-26l0 -88 45 0 0 154z"/>
  <path id="5" class="fil7" d="M21380 12612c-6,-3 -12,-5 -20,-5 -10,0 -18,4 -24,12 -6,7 -9,18 -9,32l0 74 -45 0 0 -154 45 0 0 29 0 0c8,-21 21,-32 41,-32 5,0 9,1 12,2l0 42z"/>
  <path id="6" class="fil7" d="M21495 12719c-11,6 -26,10 -46,10 -24,0 -43,-8 -57,-22 -15,-14 -22,-33 -22,-55 0,-27 8,-47 24,-62 15,-15 36,-23 62,-23 17,0 30,3 39,7l0 39c-10,-8 -22,-11 -34,-11 -14,0 -25,4 -33,12 -8,9 -12,20 -12,35 0,14 4,25 11,33 8,8 19,12 33,12 12,0 23,-4 35,-11l0 36z"/>
  <path id="7" class="fil7" d="M21641 12661l-101 0c2,23 16,35 43,35 17,0 32,-4 45,-12l0 33c-14,8 -32,12 -55,12 -24,0 -43,-7 -57,-21 -14,-14 -20,-33 -20,-58 0,-24 7,-44 21,-60 15,-15 33,-23 55,-23 22,0 39,7 51,20 12,13 18,31 18,54l0 20zm-42 -29c0,-23 -9,-34 -28,-34 -7,0 -14,3 -20,9 -6,7 -10,15 -11,25l59 0z"/>
  <path id="8" class="fil7" d="M21645 12684c15,9 30,14 45,14 18,0 28,-5 28,-15 0,-7 -8,-13 -23,-18 -19,-6 -32,-13 -40,-20 -7,-7 -10,-17 -10,-29 0,-15 6,-27 18,-36 12,-8 28,-13 48,-13 14,0 28,2 41,6l0 36c-12,-7 -25,-11 -40,-11 -7,0 -12,2 -17,4 -4,3 -6,6 -6,10 0,7 6,13 19,17 14,5 24,9 31,13 7,4 13,9 16,15 4,6 6,13 6,21 0,16 -6,29 -19,37 -13,9 -30,14 -51,14 -17,0 -32,-3 -46,-8l0 -37z"/>
  <path id="9" class="fil7" d="M21880 12706l0 90 -45 0 0 -225 45 0 0 23 1 0c12,-18 28,-27 50,-27 19,0 35,7 46,21 11,13 16,32 16,56 0,25 -6,46 -19,61 -13,16 -29,24 -50,24 -19,0 -33,-8 -43,-23l-1 0zm0 -49c0,11 3,20 9,27 5,7 13,10 23,10 11,0 20,-4 26,-13 6,-9 9,-21 9,-37 0,-28 -11,-42 -33,-42 -10,0 -18,4 -25,11 -6,8 -9,18 -9,30l0 14z"/>
  <path id="10" class="fil7" d="M22101 12612c-5,-3 -12,-5 -19,-5 -11,0 -19,4 -25,12 -6,7 -9,18 -9,32l0 74 -45 0 0 -154 45 0 0 29 1 0c7,-21 21,-32 40,-32 6,0 10,1 12,2l0 42z"/>
  <path id="11" class="fil7" d="M22092 12649c0,-26 7,-46 22,-60 16,-15 36,-22 62,-22 24,0 44,7 59,22 14,14 21,33 21,57 0,25 -7,45 -22,60 -15,15 -35,23 -61,23 -25,0 -45,-8 -59,-22 -15,-14 -22,-34 -22,-58zm45 -1c0,31 13,46 38,46 24,0 36,-16 36,-47 0,-30 -12,-45 -37,-45 -11,0 -20,4 -27,12 -7,8 -10,19 -10,34z"/>
  <path id="12" class="fil7" d="M22410 12571l-58 154 -51 0 -54 -154 48 0 28 97c3,10 5,19 5,26l1 0c0,-7 2,-16 5,-25l29 -98 47 0z"/>
  <path id="13" class="fil7" d="M22405 12521c0,-7 2,-12 7,-16 5,-5 11,-7 19,-7 8,0 14,2 19,7 5,4 7,10 7,16 0,7 -2,13 -7,17 -5,5 -12,7 -19,7 -8,0 -14,-2 -19,-7 -5,-4 -7,-10 -7,-17zm3 204l0 -154 45 0 0 154 -45 0z"/>
  <path id="14" class="fil7" d="M22620 12725l-45 0 0 -22 -1 0c-11,17 -27,26 -48,26 -19,0 -35,-7 -46,-21 -12,-14 -18,-33 -18,-57 0,-25 7,-45 20,-61 13,-15 29,-23 50,-23 20,0 34,7 42,22l1 0 0 -92 45 0 0 228zm-44 -87c0,-11 -3,-19 -10,-26 -6,-7 -14,-10 -23,-10 -11,0 -20,4 -26,13 -6,8 -9,20 -9,35 0,14 3,25 9,33 6,7 14,11 25,11 10,0 18,-4 24,-12 7,-8 10,-19 10,-31l0 -13z"/>
  <path id="15" class="fil7" d="M22635 12521c0,-7 2,-12 7,-16 5,-5 11,-7 19,-7 8,0 14,2 19,7 5,4 7,10 7,16 0,7 -2,13 -7,17 -5,5 -12,7 -19,7 -8,0 -14,-2 -19,-7 -5,-4 -7,-10 -7,-17zm3 204l0 -154 45 0 0 154 -45 0z"/>
  <path id="16" class="fil7" d="M22848 12725l-45 0 0 -86c0,-25 -9,-37 -27,-37 -9,0 -16,3 -21,10 -6,6 -9,15 -9,25l0 88 -45 0 0 -154 45 0 0 24 1 0c11,-18 28,-28 49,-28 34,0 52,21 52,64l0 94z"/>
  <path id="17" class="fil7" d="M23013 12708c0,28 -8,50 -25,66 -16,15 -39,23 -70,23 -21,0 -37,-3 -49,-9l0 -38c16,9 32,14 48,14 16,0 28,-5 37,-13 10,-9 14,-21 14,-36l0 -13 -1 0c-11,18 -27,27 -48,27 -19,0 -35,-7 -47,-21 -11,-14 -17,-32 -17,-56 0,-26 6,-46 19,-62 13,-15 30,-23 51,-23 19,0 33,8 42,22l1 0 0 -18 45 0 0 137zm-45 -70c0,-10 -3,-19 -9,-26 -6,-7 -14,-10 -23,-10 -11,0 -20,4 -26,13 -6,8 -10,20 -10,36 0,13 3,24 10,31 6,8 14,12 24,12 10,0 18,-4 25,-12 6,-8 9,-18 9,-30l0 -14z"/>
  <g>
   <path class="fil11" d="M13244 11274l406 -174 0 0 -5 11 -5 11 -5 11 -4 11 -4 10 -4 11 -3 11 -3 11 -2 11 -2 11 -2 11 -2 10 -1 11 -1 11 0 11 -1 11 1 11 0 11 1 10 1 11 2 11 2 11 2 11 2 11 3 11 3 11 4 10 4 11 4 11 5 11 5 11 5 11 -406 -174zm320 -29l0 58 -116 0 0 -58 116 0zm174 0l0 58 -116 0 0 -58 116 0zm174 0l0 58 -116 0 0 -58 116 0zm173 0l0 58 -115 0 0 -58 115 0zm174 0l0 58 -116 0 0 -58 116 0zm174 0l0 58 -116 0 0 -58 116 0zm174 0l0 58 -116 0 0 -58 116 0zm174 0l0 58 -116 0 0 -58 116 0zm173 0l0 58 -115 0 0 -58 115 0zm174 0l0 58 -116 0 0 -58 116 0zm174 0l0 58 -116 0 0 -58 116 0zm174 0l0 58 -116 0 0 -58 116 0zm174 0l0 58 -116 0 0 -58 116 0zm173 0l0 58 -116 0 0 -58 116 0zm174 0l0 58 -116 0 0 -58 116 0zm174 0l0 58 -116 0 0 -58 116 0zm68 58l-10 0 0 -58 10 0 0 58zm203 -29l-405 174 5 -11 5 -11 5 -11 4 -11 4 -11 3 -10 4 -11 3 -11 2 -11 2 -11 2 -11 2 -11 1 -11 1 -10 0 -11 0 -11 0 -11 0 -11 -1 -11 -1 -11 -2 -10 -2 -11 -2 -11 -2 -11 -3 -11 -4 -11 -3 -11 -4 -10 -4 -11 -5 -11 -5 -11 -5 -11 0 0 405 174z"/>
  </g>
  <path class="fil6" d="M4147 5406l-112 0 -36 -110 -174 0 -36 110 -111 0 176 -481 121 0 172 481zm-172 -190l-54 -166c-4,-11 -6,-25 -8,-42l-3 0c-1,14 -4,28 -8,41l-55 167 128 0z"/>
  <path id="1" class="fil6" d="M4246 5406l0 -481 165 0c171,0 256,78 256,234 0,75 -24,134 -71,179 -48,45 -110,68 -185,68l-165 0zm102 -397l0 313 56 0c48,0 86,-15 114,-44 28,-29 42,-68 42,-117 0,-48 -15,-85 -44,-112 -29,-27 -66,-40 -113,-40l-55 0z"/>
  <path id="2" class="fil6" d="M4937 5406l0 -481 166 0c171,0 256,78 256,234 0,75 -24,134 -72,179 -47,45 -109,68 -184,68l-166 0zm103 -397l0 313 55 0c49,0 87,-15 115,-44 27,-29 41,-68 41,-117 0,-48 -14,-85 -43,-112 -29,-27 -67,-40 -113,-40l-55 0z"/>
  <polygon id="3" class="fil6" points="5762,5406 5478,5406 5478,4925 5751,4925 5751,5009 5580,5009 5580,5122 5739,5122 5739,5206 5580,5206 5580,5322 5762,5322 "/>
  <polygon id="4" class="fil6" points="6161,5406 5879,5406 5879,4925 5981,4925 5981,5322 6161,5322 "/>
  <polygon id="5" class="fil6" points="6366,4925 6366,5406 6263,5406 6263,4925 "/>
  <path id="6" class="fil6" d="M6910 4925l-167 481 -116 0 -165 -481 111 0 104 340c5,17 8,32 9,47l2 0c2,-15 5,-31 11,-48l104 -339 107 0z"/>
  <polygon id="7" class="fil6" points="7291,5406 7006,5406 7006,4925 7279,4925 7279,5009 7109,5009 7109,5122 7267,5122 7267,5206 7109,5206 7109,5322 7291,5322 "/>
  <path id="8" class="fil6" d="M7804 5406l-118 0 -76 -125c-15,-26 -28,-43 -38,-50 -10,-8 -20,-11 -31,-11l-31 0 0 186 -103 0 0 -481 169 0c114,0 171,44 171,130 0,33 -10,61 -29,85 -19,23 -45,39 -79,49l0 1c23,8 47,32 74,73l91 143zm-294 -403l0 138 50 0c24,0 43,-7 58,-21 14,-14 21,-31 21,-52 0,-43 -25,-65 -77,-65l-52 0z"/>
  <path id="9" class="fil6" d="M8238 4925l-157 309 0 172 -103 0 0 -170 -152 -311 117 0 80 184c2,4 6,16 12,38l1 0c3,-15 6,-27 10,-37l83 -185 109 0z"/>
  <path id="10" class="fil6" d="M8909 5406l-105 0 -204 -311c-10,-16 -18,-29 -23,-39l-1 0c2,16 3,42 3,76l0 274 -97 0 0 -481 111 0 196 302c13,20 21,33 24,38l2 0c-3,-11 -3,-33 -3,-66l0 -274 97 0 0 481z"/>
  <polygon id="11" class="fil6" points="9342,5406 9058,5406 9058,4925 9331,4925 9331,5009 9160,5009 9160,5122 9319,5122 9319,5206 9160,5206 9160,5322 9342,5322 "/>
  <polygon id="12" class="fil6" points="9795,5009 9658,5009 9658,5406 9556,5406 9556,5009 9419,5009 9419,4925 9795,4925 "/>
  <path id="13" class="fil6" d="M10534 4925l-128 481 -114 0 -82 -314c-4,-17 -7,-34 -8,-53l-1 0c-2,22 -5,40 -8,53l-84 314 -118 0 -128 -481 112 0 71 326c3,14 5,32 7,54l2 0c1,-17 4,-36 9,-56l90 -324 109 0 81 328c3,13 6,30 8,51l1 0c1,-18 3,-35 7,-53l70 -326 104 0z"/>
  <path id="14" class="fil6" d="M10603 5172c0,-75 22,-137 66,-184 44,-47 102,-71 174,-71 69,0 124,23 166,69 42,45 63,104 63,176 0,75 -22,135 -65,182 -44,47 -101,70 -171,70 -69,0 -125,-23 -168,-68 -43,-45 -65,-103 -65,-174zm108 -6c0,47 11,85 34,115 22,29 53,44 92,44 41,0 72,-14 94,-42 22,-29 34,-67 34,-115 0,-50 -11,-89 -33,-119 -22,-29 -52,-43 -92,-43 -40,0 -71,15 -95,45 -23,29 -34,68 -34,115z"/>
  <path id="15" class="fil6" d="M11587 5406l-118 0 -75 -125c-16,-26 -28,-43 -38,-50 -10,-8 -21,-11 -32,-11l-31 0 0 186 -102 0 0 -481 168 0c115,0 172,44 172,130 0,33 -10,61 -29,85 -19,23 -45,39 -79,49l0 1c22,8 47,32 74,73l90 143zm-294 -403l0 138 50 0c24,0 44,-7 58,-21 15,-14 22,-31 22,-52 0,-43 -26,-65 -78,-65l-52 0z"/>
  <path id="16" class="fil6" d="M12064 5406l-130 0 -145 -210c-4,-6 -8,-14 -13,-25l-2 0 0 235 -102 0 0 -481 102 0 0 227 2 0c4,-10 9,-18 14,-25l137 -202 122 0 -171 229 186 252z"/>
  <path class="fil6" d="M21445 5384c-43,21 -99,32 -168,32 -88,0 -158,-27 -210,-80 -52,-53 -78,-123 -78,-211 0,-93 29,-169 87,-228 58,-59 133,-88 225,-88 57,0 105,7 144,22l0 121c-40,-23 -85,-35 -135,-35 -58,0 -104,18 -138,55 -34,37 -51,85 -51,144 0,57 16,104 48,139 33,35 77,52 133,52 52,0 100,-12 143,-37l0 114z"/>
  <path id="1" class="fil6" d="M21595 5406l0 -587 202 0c209,0 313,95 313,286 0,90 -29,163 -88,218 -58,55 -133,83 -225,83l-202 0zm125 -485l0 382 68 0c59,0 106,-17 140,-53 34,-35 50,-83 50,-143 0,-59 -17,-104 -53,-137 -35,-33 -81,-49 -137,-49l-68 0z"/>
  <path id="2" class="fil6" d="M22777 5406l-128 0 -249 -380c-13,-20 -22,-36 -28,-48l-2 0c3,20 4,52 4,94l0 334 -119 0 0 -587 137 0 239 369c16,24 26,40 29,46l2 0c-2,-14 -4,-41 -4,-81l0 -334 119 0 0 587z"/>
  <path class="fil5" d="M21459 7264c0,147 -69,221 -206,221 -132,0 -199,-72 -199,-216l0 -287 106 0 0 288c0,82 33,123 98,123 63,0 95,-39 95,-119l0 -292 106 0 0 282z"/>
  <path id="1" class="fil5" d="M21587 7381c35,22 70,33 104,33 42,0 63,-12 63,-35 0,-16 -17,-29 -52,-40 -44,-14 -74,-29 -91,-46 -16,-16 -24,-39 -24,-68 0,-34 14,-61 42,-81 28,-20 65,-30 110,-30 33,0 64,5 94,15l0 81c-28,-16 -58,-24 -91,-24 -16,0 -29,3 -39,8 -10,6 -15,14 -15,24 0,16 14,29 44,39 32,10 56,20 72,29 16,9 29,20 37,34 8,15 13,31 13,50 0,36 -15,65 -44,85 -29,20 -68,30 -117,30 -38,0 -74,-6 -106,-18l0 -86z"/>
  <path id="2" class="fil5" d="M22271 7329l-232 0c4,54 37,82 99,82 39,0 73,-10 103,-29l0 76c-32,18 -74,27 -126,27 -57,0 -100,-16 -131,-48 -32,-31 -47,-76 -47,-132 0,-57 16,-103 49,-138 34,-35 75,-53 126,-53 50,0 89,16 117,46 28,30 42,72 42,125l0 44zm-96 -65c0,-53 -21,-79 -64,-79 -18,0 -33,7 -47,22 -14,14 -22,33 -25,57l136 0z"/>
  <path id="3" class="fil5" d="M22602 7217c-12,-8 -27,-11 -45,-11 -24,0 -42,9 -56,27 -14,17 -20,42 -20,73l0 170 -104 0 0 -353 104 0 0 66 1 0c17,-48 48,-72 93,-72 12,0 21,1 27,4l0 96z"/>
 </g>
</svg>
