<svg xmlns="http://www.w3.org/2000/svg" viewBox="0 0 119.17 107.25"><defs><style>.cls-1{fill:#51caff;}.cls-2{fill:#fff;}.cls-3{fill:none;stroke:#fff;}</style></defs><title>资源 5</title><g id="图层_2" data-name="图层 2"><g id="图层_1-2" data-name="图层 1"><path id="Combined-Shape" class="cls-1" d="M78.57,78.86,59.9,81.13A4.25,4.25,0,0,1,59.26,83L70.61,98.83l.25,0q4.23-9.32,8.45-18.61A4.4,4.4,0,0,1,78.57,78.86Zm1.08-4.42Q75.6,66,71.57,57.55h-.14a4.37,4.37,0,0,1-1.15-.16L58.45,77.57a4.89,4.89,0,0,1,.4.39l20-2.43A4.16,4.16,0,0,1,79.65,74.44Zm5.63-.28a4.23,4.23,0,0,1,1.63,3.33.76.76,0,0,1,0,.15l7.8,3.21Q94,70,93.24,59.2Zm-3,7.57L75.2,97.37,93.79,83.9l-8.18-3.36a4.3,4.3,0,0,1-3,1.21Zm-3.46-54a4.06,4.06,0,0,1,.66-.92L71.17,8.49a4.38,4.38,0,0,1-1-.16L59.26,23.58a4.21,4.21,0,0,1,.64,1.89Zm.6,4.82a4.26,4.26,0,0,1-.9-1.56L58.85,28.64a4.89,4.89,0,0,1-.4.39L70.28,49.2a4.37,4.37,0,0,1,1.15-.15h.14Q75.5,40.82,79.44,32.59Zm7.46-3a.76.76,0,0,1,0,.15,4.22,4.22,0,0,1-1.39,3.12l7.76,14.59q.69-10.38,1.4-20.76a2.48,2.48,0,0,1-.26-.19ZM82.59,25.5h0a4.3,4.3,0,0,1,3,1.21l7.25-3a4.36,4.36,0,0,1,0-.51,4.89,4.89,0,0,1,0-.54L75.64,10.2ZM32.52,75.7,52.3,78.1l.12-.14-12-20.45a3.69,3.69,0,0,1-.58,0h-.12l-8,16.93A4.21,4.21,0,0,1,32.52,75.7ZM32,80.13l8.29,18.39L51.92,82.89a4.2,4.2,0,0,1-.53-1.6L32.64,79A4.41,4.41,0,0,1,32,80.13Zm-6.1-5.9L16.59,57.52c-.11,0-.22,0-.34,0L15.2,79.87v0a4.26,4.26,0,0,1,1.4.64l7.75-3.18A4.24,4.24,0,0,1,25.9,74.23Zm-.44,6.11-7.1,2.92a3.94,3.94,0,0,1,.07.77,4.21,4.21,0,0,1,0,.62L36.25,97.9,29,81.73l-.32,0A4.31,4.31,0,0,1,25.46,80.34Zm6.88-52.72,19-2.31a4.15,4.15,0,0,1,.53-1.6L40.56,8.44a3.44,3.44,0,0,1-.45.05L31.8,26.89A3.83,3.83,0,0,1,32.34,27.62Zm.43,3.25a4.21,4.21,0,0,1-.9,1.68l7.84,16.5h.12a3.48,3.48,0,0,1,.57,0l12-20.46a.81.81,0,0,1-.12-.14Zm-8.41-1L16.61,26.7a4.26,4.26,0,0,1-1.4.64v0l1,21.67.37,0,9.07-16.26A4.28,4.28,0,0,1,24.36,29.88Zm1.1-3a4.31,4.31,0,0,1,3.18-1.41h0q3.59-7.91,7.15-15.82L18.39,22.6a4.21,4.21,0,0,1,0,.62,3.94,3.94,0,0,1-.07.77ZM67.27,104H44a4.29,4.29,0,0,1-8.45-1,4.33,4.33,0,0,1,.21-1.31L16.63,87.5A4.27,4.27,0,0,1,9.88,84a4.24,4.24,0,0,1,1.86-3.51L3.22,57.42a4.25,4.25,0,0,1,.27-8.3l8.25-22.39A4.25,4.25,0,0,1,14.16,19a4.3,4.3,0,0,1,2.47.79L35.76,5.56a4.33,4.33,0,0,1-.21-1.31,4.29,4.29,0,0,1,8.45-1H67.27a4.28,4.28,0,0,1,8.44,1,4.19,4.19,0,0,1-.32,1.63L94.58,19.79a4.26,4.26,0,1,1,4.79,7l7.8,22.22a4.25,4.25,0,0,1,0,8.49Q102.79,70,98.42,82.46l.09.14a1,1,0,0,1,.15.26l10.75,9.76a6.16,6.16,0,1,1-2.17,2.52c-3.38-3.07-6.67-6.07-10.32-9.37l-21.53,15.6a4.19,4.19,0,0,1,.32,1.63,4.28,4.28,0,0,1-8.44,1Zm.58-3.3L56.54,84.92a4.61,4.61,0,0,1-.91.1,4.72,4.72,0,0,1-1-.12L43.15,100.32a2.82,2.82,0,0,1,.29.39H67.83Zm-13.22-79a4.15,4.15,0,0,1,1-.12,3.82,3.82,0,0,1,.9.1L67.4,6.54h-24l0,.06Q49,14.16,54.63,21.7ZM91.18,54.93H75.39a4.18,4.18,0,0,1-.77,1.2q3.9,8.16,7.79,16.3l9-17C91.35,55.28,91.26,55.11,91.18,54.93Zm0-3.27c.08-.18.17-.35.26-.51l-9-17L74.62,50.46a4.47,4.47,0,0,1,.77,1.2Zm7.91,3.27a4.29,4.29,0,0,1-2.76,2.45q.6,8.77,1.19,17.54L104,56.37a4.12,4.12,0,0,1-1-1.44Zm0-3.27h4a4.31,4.31,0,0,1,1-1.44Q100.79,41,97.56,31.78q-.6,8.73-1.18,17.45A4.31,4.31,0,0,1,99.09,51.66ZM67.48,54.93H43.78a4,4,0,0,1-.51.9l12,20.48L67.64,55.26A2.53,2.53,0,0,1,67.48,54.93Zm0-3.27c0-.11.1-.22.16-.33l-12.34-21-12,20.48a3.74,3.74,0,0,1,.51.89ZM36.61,56.09a4.22,4.22,0,0,1-.73-1.16H20.08a4.45,4.45,0,0,1-.56,1l9.27,16.63Zm0-5.58L28.79,34.07,19.52,50.7a4.38,4.38,0,0,1,.56,1h15.8A4.08,4.08,0,0,1,36.61,50.51ZM12.18,54.93H8.23a4.23,4.23,0,0,1-1.54,1.88q2.85,7.71,5.69,15.43.38-8,.76-15.9A4.26,4.26,0,0,1,12.18,54.93Zm0-3.27a4.27,4.27,0,0,1,.93-1.37q-.36-7.63-.73-15.28-2.74,7.45-5.5,14.91a4.28,4.28,0,0,1,1.35,1.74Z"/><path id="path-1" class="cls-2" d="M85.94,48a30.16,30.16,0,1,0,.13,10.56H72.74A17.09,17.09,0,1,1,72.5,48Z"/><path class="cls-3" d="M87.74,49.47H71.45l-.35-1a15.6,15.6,0,1,0,.21,9.64l.32-1.06H87.82l-.28,1.73A31.66,31.66,0,1,1,87.4,47.7Z"/></g></g></svg>