<svg xmlns="http://www.w3.org/2000/svg" xmlns:xlink="http://www.w3.org/1999/xlink" viewBox="0 0 574.5 574.5"><defs><style>.cls-1{fill:none;}.cls-2{fill:url(#新建渐变色板);}.cls-3{fill:#fff;}.cls-4{clip-path:url(#clip-path);}.cls-5{fill:url(#未命名的渐变_64);}.cls-6{fill:url(#未命名的渐变_64-2);}.cls-7{fill:url(#未命名的渐变_64-3);}</style><linearGradient id="新建渐变色板" y1="287.25" x2="574.5" y2="287.25" gradientUnits="userSpaceOnUse"><stop offset="0" stop-color="#389085"/><stop offset="1" stop-color="#81b470"/></linearGradient><clipPath id="clip-path"><path class="cls-1" d="M430.74,271.06a7,7,0,0,0-6.41-4.18h0L239,267.05l77.5-132.93a7,7,0,0,0-11.4-8L149.47,310.3a7,7,0,0,0,5.35,11.52H317.38L227.5,479.37a7,7,0,0,0,11.25,8.19l190.75-209A7,7,0,0,0,430.74,271.06Z"/></clipPath><linearGradient id="未命名的渐变_64" x1="137.33" y1="221.55" x2="292.38" y2="221.55" gradientUnits="userSpaceOnUse"><stop offset="0" stop-color="#c1ffd2"/><stop offset="1" stop-color="#fff"/></linearGradient><linearGradient id="未命名的渐变_64-2" x1="188.33" y1="283.05" x2="396.5" y2="283.05" xlink:href="#未命名的渐变_64"/><linearGradient id="未命名的渐变_64-3" x1="358.73" y1="285.02" x2="221.72" y2="498.29" xlink:href="#未命名的渐变_64"/></defs><title>资源 2</title><g id="图层_2" data-name="图层 2"><g id="图层_1-2" data-name="图层 1"><path class="cls-2" d="M287.25,0A287.26,287.26,0,0,0,84.13,490.37,287.26,287.26,0,0,0,490.37,84.13,285.4,285.4,0,0,0,287.25,0Z"/><path class="cls-3" d="M287.25,552.93A265.67,265.67,0,0,1,99.39,99.39,265.67,265.67,0,1,1,475.11,475.11,264,264,0,0,1,287.25,552.93Zm0-521.36A255.68,255.68,0,0,0,106.46,468,255.68,255.68,0,1,0,468,106.46,254,254,0,0,0,287.25,31.57Z"/><path class="cls-3" d="M430.74,271.06a7,7,0,0,0-6.41-4.18h0L239,267.05l77.5-132.93a7,7,0,0,0-11.4-8L149.47,310.3a7,7,0,0,0,5.35,11.52H317.38L227.5,479.37a7,7,0,0,0,11.25,8.19l190.75-209A7,7,0,0,0,430.74,271.06Z"/><path class="cls-3" d="M238,360.35h30.13a7,7,0,1,0,0-14H132.48a7,7,0,1,0,0,14h89.77l-50.17,86.74a7,7,0,0,0,12.12,7l53-91.55A7,7,0,0,0,238,360.35Z"/><path class="cls-3" d="M296.88,236.54a7,7,0,0,0,6.05,3.49H411a7,7,0,0,0,0-14H315L387.46,99.86a7,7,0,1,0-12.14-7L296.86,229.54A7,7,0,0,0,296.88,236.54Z"/><g class="cls-4"><polygon class="cls-5" points="318.33 119.05 188.33 299.05 137.33 324.05 285.33 131.04 318.33 119.05"/><polygon class="cls-6" points="188.33 299.05 239.33 267.05 431.33 267.05 365.33 298.05 188.33 299.05"/><polygon class="cls-7" points="367.33 299.05 228.33 492.05 222.33 483.05 317.33 322.05 367.33 299.05"/></g><path class="cls-3" d="M238,360.35h30.13a7,7,0,1,0,0-14H132.48a7,7,0,1,0,0,14h89.77l-50.17,86.74a7,7,0,0,0,12.12,7l53-91.55A7,7,0,0,0,238,360.35Z"/><path class="cls-3" d="M296.88,236.54a7,7,0,0,0,6.05,3.49H411a7,7,0,0,0,0-14H315L387.46,99.86a7,7,0,1,0-12.14-7L296.86,229.54A7,7,0,0,0,296.88,236.54Z"/></g></g></svg>